<svg width="70" height="61" viewBox="0 0 70 61" fill="none" xmlns="http://www.w3.org/2000/svg">
<path d="M27.6387 47.1853C27.6387 49.8765 27.428 52.1191 27.0065 53.9132C26.5849 55.7074 25.8323 57.1426 24.7484 58.2191C23.7247 59.2358 22.3398 59.9534 20.5935 60.3721C18.8473 60.7907 16.6194 61 13.9097 61C10.8387 61 8.36989 60.5814 6.50323 59.7441C4.69677 58.8471 3.31183 57.5912 2.34839 55.9765C1.38495 54.3618 0.752688 52.3882 0.451613 50.0559C0.150538 47.7235 0 45.0623 0 42.0721C0 37.5868 0.692473 33.1015 2.07742 28.6162C3.46237 24.0711 5.14839 19.8848 7.13548 16.0574C9.1828 12.1701 11.3505 8.79118 13.6387 5.92059C15.9269 3.05 17.9441 1.07647 19.6903 0L27.8194 5.83088C26.4946 7.625 25.2301 9.65833 24.0258 11.9309C22.8215 14.2034 21.7376 16.5956 20.7742 19.1074C19.8108 21.6191 19.028 24.1608 18.4258 26.7324C17.8237 29.3039 17.4925 31.7559 17.4323 34.0882C21.0452 34.5667 23.6344 35.7926 25.2 37.7662C26.8258 39.6799 27.6387 42.8196 27.6387 47.1853ZM69.8194 47.1853C69.8194 49.8765 69.6086 52.1191 69.1871 53.9132C68.7656 55.7074 68.0129 57.1426 66.929 58.2191C65.9054 59.2358 64.5204 59.9534 62.7742 60.3721C61.028 60.7907 58.8 61 56.0903 61C53.0194 61 50.5505 60.5814 48.6839 59.7441C46.8774 58.8471 45.4925 57.5912 44.529 55.9765C43.5656 54.3618 42.9333 52.3882 42.6323 50.0559C42.3312 47.7235 42.1806 45.0623 42.1806 42.0721C42.1806 37.5868 42.8731 33.1015 44.2581 28.6162C45.643 24.0711 47.329 19.8848 49.3161 16.0574C51.3634 12.1701 53.5312 8.79118 55.8194 5.92059C58.1075 3.05 60.1247 1.07647 61.871 0L70 5.83088C68.6753 7.625 67.4108 9.65833 66.2065 11.9309C65.0022 14.2034 63.9183 16.5956 62.9548 19.1074C61.9914 21.6191 61.2086 24.1608 60.6065 26.7324C60.0043 29.3039 59.6731 31.7559 59.6129 34.0882C63.2258 34.5667 65.8151 35.7926 67.3806 37.7662C69.0065 39.6799 69.8194 42.8196 69.8194 47.1853Z" fill="white" fill-opacity="0.1"/>
</svg>
