<svg width="835" height="345" viewBox="0 0 835 345" fill="none" xmlns="http://www.w3.org/2000/svg">
<path d="M575.07 269.075V225.475L707.07 47.875H775.07L645.87 225.475L614.27 216.275H834.67V269.075H575.07ZM725.87 327.875V269.075L727.87 216.275V163.875H789.07V327.875H725.87Z" fill="#FF7B02"/>
<path d="M0 269.075V225.475L132 47.875H200L70.8 225.475L39.2 216.275H259.6V269.075H0ZM150.8 327.875V269.075L152.8 216.275V163.875H214V327.875H150.8Z" fill="#FF7B02"/>
<path d="M424.602 337.6C401.668 337.6 381.135 332 363.002 320.8C344.868 309.333 330.602 292.8 320.202 271.2C309.802 249.6 304.602 223.467 304.602 192.8C304.602 162.133 309.802 136 320.202 114.4C330.602 92.8 344.868 76.4 363.002 65.2C381.135 53.7333 401.668 48 424.602 48C447.802 48 468.335 53.7333 486.202 65.2C504.335 76.4 518.602 92.8 529.002 114.4C539.402 136 544.602 162.133 544.602 192.8C544.602 223.467 539.402 249.6 529.002 271.2C518.602 292.8 504.335 309.333 486.202 320.8C468.335 332 447.802 337.6 424.602 337.6ZM424.602 282.8C435.535 282.8 445.002 279.733 453.002 273.6C461.268 267.467 467.668 257.733 472.202 244.4C477.002 231.067 479.402 213.867 479.402 192.8C479.402 171.733 477.002 154.533 472.202 141.2C467.668 127.867 461.268 118.133 453.002 112C445.002 105.867 435.535 102.8 424.602 102.8C413.935 102.8 404.468 105.867 396.202 112C388.202 118.133 381.802 127.867 377.002 141.2C372.468 154.533 370.202 171.733 370.202 192.8C370.202 213.867 372.468 231.067 377.002 244.4C381.802 257.733 388.202 267.467 396.202 273.6C404.468 279.733 413.935 282.8 424.602 282.8Z" fill="#4C4743"/>
<path d="M560.342 22.3178L495.766 39.6211C528.001 50.5261 542.258 81.4482 545.357 95.5461L560.342 22.3178Z" fill="#4C4743"/>
<path d="M554.246 113.522L554.683 111.789C555.813 105.722 554.645 94.5121 553.837 89.2038L569.704 11.668L486.134 34.0605L474.602 29.0078L582.862 -0.000580968L554.683 111.789C554.564 112.428 554.419 113.01 554.246 113.522Z" fill="#FF7B02"/>
</svg>
