<svg width="153" height="58" viewBox="0 0 153 58" fill="none" xmlns="http://www.w3.org/2000/svg">
<rect width="153" height="58" rx="29" fill="#F7F7F7"/>
<g clip-path="url(#clip0_42_122)">
<path d="M77.1124 31.0009V43.8428H72.5245L63.5937 34.211V43.8428H60.2241V31.0009H64.7934L73.7428 40.651V31.0009H77.1124Z" fill="#FF8B00"/>
<path d="M81.9778 43.8428H78.6082V31.0009H81.9778V43.8428Z" fill="#FF8B00"/>
<path d="M100.365 31.0009V43.8428H95.777L86.8462 34.211V43.8428H83.4766V31.0009H88.0458L96.9952 40.651V31.0009H100.365Z" fill="#FF8B00"/>
<path d="M117.382 37.4044C117.382 41.8622 114.891 44.0272 109.517 44.0272C104.144 44.0272 101.653 41.8805 101.653 37.4044H105.022C105.022 39.2021 105.528 41.2574 109.516 41.2574C113.504 41.2574 114.009 39.1839 114.009 37.4044V33.7722H107.794V31.0024H117.38V37.4059L117.382 37.4044Z" fill="#FF8B00"/>
<path d="M129.87 41.1096H122.025L120.621 43.8428H116.914L123.673 31.0009H128.222L135 43.8428H131.274L129.87 41.1096ZM128.616 38.6521L125.958 33.4416L123.281 38.6521H128.617H128.616Z" fill="#FF8B00"/>
<path d="M75.9158 24.8824V28.1169H60.2241V13.1207H64.1471V24.8824H75.9158Z" fill="#FF8B00"/>
<path d="M76.4816 20.5967C76.4816 15.6269 79.3583 12.9058 86.0711 12.9058C92.784 12.9058 95.6607 15.6482 95.6607 20.5967C95.6607 25.5451 92.7623 28.3301 86.0711 28.3301C79.38 28.3301 76.4816 25.5878 76.4816 20.5967ZM91.7378 20.5967C91.7378 17.5541 90.1692 16.1403 86.0711 16.1403C81.9731 16.1403 80.4045 17.5328 80.4045 20.5967C80.4045 23.6605 81.9948 25.0957 86.0711 25.0957C90.1475 25.0957 91.7378 23.6605 91.7378 20.5967Z" fill="#FF8B00"/>
<path d="M96.8604 20.5967C96.8604 15.6269 99.7371 12.9058 106.45 12.9058C113.163 12.9058 116.039 15.6482 116.039 20.5967C116.039 25.5451 113.141 28.3301 106.45 28.3301C99.7588 28.3301 96.8604 25.5878 96.8604 20.5967ZM112.115 20.5967C112.115 17.5541 110.546 16.1403 106.448 16.1403C102.35 16.1403 100.782 17.5328 100.782 20.5967C100.782 23.6605 102.372 25.0957 106.448 25.0957C110.525 25.0957 112.115 23.6605 112.115 20.5967Z" fill="#FF8B00"/>
<path d="M135 16.3551H127.59V28.1169H123.667V16.3551H116.256V13.1207H135V16.3551Z" fill="#FF8B00"/>
<path d="M52.9859 35.1023C52.9471 35.343 52.7565 36.4141 51.9799 37.7456C51.4948 38.576 50.9337 39.2509 49.3156 40.7287C47.5812 42.3132 47.3828 42.3117 44.7665 44.5467C44.2348 45.0007 43.2491 45.8493 41.8696 46.9052C40.6451 47.8421 39.9399 48.2063 39.3199 48.4881C38.3125 48.9467 37.801 49 37.4507 48.9985C37.102 48.9985 36.5982 48.9421 35.6016 48.4881C34.9677 48.1986 34.2624 47.8299 33.0519 46.9052C31.6725 45.8509 30.6867 45.0023 30.1551 44.5467C29.2855 43.8047 28.6842 43.3096 28.2037 42.9211C29.0871 41.9978 30.4852 40.7942 32.4753 39.8908C34.4825 38.9797 36.3022 38.7329 37.46 38.6658C36.5254 38.4617 35.3691 38.32 34.0563 38.4084C30.4449 38.6476 27.8332 40.4697 26.5421 41.5621C26.274 41.332 25.9748 41.0669 25.606 40.7287C23.9894 39.2509 23.4267 38.576 22.9416 37.7456C22.1651 36.4141 21.9744 35.343 21.9357 35.1023C21.7156 33.7692 21.931 32.6677 22.1093 32.0339C22.7912 32.8871 23.7941 33.9231 25.1983 34.8372C25.9283 35.311 27.3899 36.2419 29.5475 36.6487C30.324 36.7949 31.657 37.0463 33.2441 36.7386C33.5572 36.6776 33.7851 36.6136 34.5135 36.4323C35.0886 36.2891 35.1645 36.2693 35.3536 36.2236C36.3595 35.9844 36.8617 35.8641 37.477 35.8671C38.0443 35.8701 38.5109 35.9783 39.4455 36.1947C39.6563 36.2434 39.7152 36.2602 40.408 36.4308C41.138 36.6121 41.3643 36.6761 41.6774 36.737C43.2646 37.0448 44.596 36.7934 45.3741 36.6472C47.5316 36.2388 48.9947 35.308 49.7232 34.8357C51.129 33.9215 52.1303 32.8855 52.8123 32.0323C52.989 32.6661 53.206 33.7692 52.9859 35.1008V35.1023Z" fill="#FF8B00"/>
<path d="M40.6498 32.6783C40.8327 32.7728 43.0553 33.8758 45.343 32.6783C47.7517 31.4168 47.9702 28.7887 47.9795 28.6364C47.3068 28.5861 45.4298 28.5328 43.497 29.6724C41.7921 30.6794 40.9644 32.0735 40.6498 32.6783Z" fill="#FF8B00"/>
<path d="M34.2748 32.6783C34.0919 32.7728 31.8693 33.8758 29.5815 32.6783C27.1729 31.4168 26.9544 28.7887 26.9451 28.6364C27.6177 28.5861 29.4947 28.5328 31.4275 29.6724C33.1325 30.6794 33.9602 32.0735 34.2748 32.6783Z" fill="#FF8B00"/>
<path d="M54.8489 8C53.3206 8.41136 51.2608 9.14113 49.0645 10.4803C47.3394 11.5331 46.0111 12.6712 45.0361 13.6401C42.7686 12.4594 40.2049 11.7936 37.4925 11.7936C34.7801 11.7936 32.187 12.467 29.9102 13.66C28.9337 12.6864 27.5992 11.5407 25.8617 10.4788C23.6639 9.14113 21.604 8.41136 20.0757 8C19.5131 9.60886 18.6947 12.627 19.1163 16.4176C19.4883 19.7572 20.6662 22.2908 21.5218 23.7885C21.2351 24.7011 21.0212 25.6472 20.8848 26.6192C24.7969 24.0642 29.7242 21.3584 35.6729 19.1279C38.3946 18.1072 40.9954 17.3119 43.4226 16.6903C40.3026 18.1041 37.0601 19.6825 33.7261 21.4483C28.9817 23.9591 24.645 26.5323 20.7127 29.066C20.7127 29.0873 20.7127 29.1071 20.7127 29.1285C20.7127 29.7348 20.7437 30.3351 20.8026 30.9262C24.5132 27.9919 29.4359 25.795 35.0312 24.8686C42.2819 23.6681 49.173 24.8443 54.2165 27.6796C54.1065 26.3084 53.843 24.9844 53.4431 23.7229C54.294 22.2177 55.4441 19.7099 55.8114 16.4191C56.233 12.63 55.4162 9.61038 54.852 8.00152L54.8489 8ZM23.2268 19.9948C22.8331 19.064 22.4316 17.8664 22.1945 16.4419C21.8721 14.5101 21.9667 12.8601 22.1263 11.6931C22.8873 12.0892 23.8142 12.6575 24.7643 13.468C25.6664 14.2359 26.3546 15.0205 26.8692 15.7061C25.4385 16.9158 24.2048 18.3646 23.2252 19.9933L23.2268 19.9948ZM48.0772 15.6771C48.5886 14.9991 49.2706 14.2267 50.1587 13.4695C51.1104 12.659 52.0357 12.0892 52.7968 11.6946C52.9564 12.8616 53.051 14.5116 52.7286 16.4435C52.4961 17.8375 52.107 19.0152 51.7211 19.9385C50.74 18.3189 49.5047 16.8792 48.0772 15.6786V15.6771Z" fill="#FF8B00"/>
</g>
<defs>
<clipPath id="clip0_42_122">
<rect width="116" height="41" fill="white" transform="translate(19 8)"/>
</clipPath>
</defs>
</svg>
