<svg width="62" height="65" viewBox="0 0 62 65" fill="none" xmlns="http://www.w3.org/2000/svg">
<path d="M56.5095 42.7111C56.4436 43.0901 56.1285 44.7781 54.8368 46.8772C54.0306 48.1862 53.0971 49.2489 50.4078 51.5783C47.5254 54.0756 47.1941 54.0726 42.8439 57.5953C41.959 58.3111 40.3208 59.6493 38.0287 61.3111C35.9934 62.787 34.8214 63.361 33.7897 63.8064C32.1148 64.5283 31.2645 64.6127 30.6806 64.6117C30.1011 64.6107 29.2626 64.5222 27.605 63.8064C26.5506 63.351 25.3776 62.7689 23.366 61.3111C21.0728 59.6493 19.4335 58.3111 18.5508 57.5953C17.1058 56.4261 16.1043 55.646 15.3057 55.0337C16.7744 53.5789 19.099 51.6818 22.4088 50.2583C25.7467 48.8216 28.7705 48.4325 30.6968 48.329C29.1439 48.0073 27.2208 47.7851 25.0376 47.9228C19.0321 48.2998 14.6895 51.1711 12.5441 52.8933C12.0995 52.5304 11.6009 52.1121 10.9869 51.5803C8.29757 49.2509 7.36409 48.1882 6.55795 46.8793C5.26618 44.7801 4.95107 43.0921 4.88524 42.7131C4.5194 40.6129 4.87876 38.8766 5.1723 37.8773C6.30758 39.2225 7.97274 40.8552 10.3091 42.2948C11.5221 43.0408 13.9524 44.5076 17.5407 45.1501C18.8324 45.3813 21.048 45.7774 23.6865 45.2918C24.2056 45.1953 24.5844 45.0948 25.7963 44.8102C26.7535 44.586 26.8787 44.5529 27.1938 44.4815C28.8655 44.1045 29.7007 43.9155 30.7249 43.9195C31.667 43.9245 32.444 44.0944 33.998 44.4362C34.3487 44.5137 34.4469 44.5388 35.5973 44.8092C36.8103 45.0948 37.1891 45.1953 37.7093 45.2918C40.3478 45.7784 42.5634 45.3813 43.8551 45.1501C47.4434 44.5076 49.8747 43.0408 51.0866 42.2948C53.423 40.8542 55.0882 39.2215 56.2235 37.8773C56.5181 38.8766 56.8775 40.6129 56.5105 42.7131L56.5095 42.7111Z" fill="#F7F7F7"/>
<path d="M35.9988 38.8909C36.3042 39.0407 39.9982 40.779 43.8012 38.8909C47.807 36.9023 48.1686 32.7623 48.1847 32.52C47.0667 32.4406 43.9447 32.3571 40.7331 34.1537C37.897 35.7401 36.5211 37.9368 35.9988 38.8909Z" fill="#F7F7F7"/>
<path d="M25.3959 38.8909C25.0905 39.0407 21.3965 40.779 17.5935 38.8909C13.5877 36.9023 13.2261 32.7623 13.21 32.52C14.328 32.4406 17.45 32.3571 20.6616 34.1537C23.4977 35.7401 24.8736 37.9368 25.3959 38.8909Z" fill="#F7F7F7"/>
<path d="M59.6067 0.000974837C57.0652 0.649428 53.6389 1.79855 49.9891 3.90979C47.1196 5.56963 44.9105 7.36318 43.2907 8.88931C39.5201 7.0274 35.2585 5.97982 30.7475 5.97982C26.2366 5.97982 21.9253 7.04047 18.1385 8.92148C16.5144 7.38731 14.2956 5.58069 11.4056 3.90979C7.75583 1.79855 4.32946 0.649428 1.78802 0.000974837C0.852379 2.53547 -0.508453 7.29381 0.194086 13.2656C0.811371 18.5286 2.77114 22.5199 4.19241 24.8805C3.71649 26.3191 3.35929 27.8101 3.13266 29.3412C9.63682 25.3158 17.8309 21.0501 27.7205 17.5354C32.2465 15.9268 36.5696 14.6741 40.6057 13.6929C35.4182 15.9208 30.0266 18.409 24.4819 21.1898C16.5931 25.1469 9.38321 29.2005 2.84345 33.1948C2.84237 33.2269 2.84237 33.2601 2.84237 33.2923C2.84237 34.2484 2.89309 35.1944 2.99129 36.1264C9.1609 31.5027 17.3453 28.0413 26.6499 26.5805C38.7053 24.6885 50.1629 26.5413 58.5512 31.0111C58.3689 28.8516 57.9307 26.7635 57.2638 24.7759C58.6797 22.4033 60.592 18.4512 61.2017 13.2646C61.9031 7.29281 60.5434 2.53447 59.6056 -3.05176e-05L59.6067 0.000974837ZM7.02739 18.9016C6.37233 17.4338 5.70648 15.5468 5.31151 13.3038C4.77624 10.2606 4.93272 7.65976 5.19927 5.82097C6.46514 6.44429 8.00511 7.34107 9.5861 8.61887C11.0851 9.82932 12.2301 11.0649 13.0869 12.1457C10.7084 14.0518 8.65585 16.335 7.02846 18.9016H7.02739ZM48.3477 12.0984C49.1981 11.0297 50.3312 9.81223 51.8086 8.61887C53.3907 7.34107 54.9306 6.44429 56.1954 5.82097C56.4609 7.65976 56.6185 10.2596 56.0832 13.3038C55.6958 15.5015 55.0483 17.3564 54.4072 18.8112C52.7755 16.2596 50.7229 13.9915 48.3477 12.0984Z" fill="#F7F7F7"/>
</svg>
