<svg width="41" height="41" viewBox="0 0 41 41" fill="none" xmlns="http://www.w3.org/2000/svg">
<g clip-path="url(#clip0_30_12457)">
<path d="M29.2955 30.9947L27.1289 28.8281" stroke="white" stroke-width="1.2" stroke-miterlimit="10" stroke-linecap="round" stroke-linejoin="round"/>
<path d="M28.8164 27.1172L31.0052 29.306" stroke="white" stroke-width="1.2" stroke-miterlimit="10" stroke-linecap="round" stroke-linejoin="round"/>
<path d="M18.2216 15.5781H19.0195C20.7885 15.5781 22.2227 17.0122 22.2227 18.7812V23.2656C22.2227 23.8848 21.7207 24.3867 21.1016 24.3867H12.1328C11.5136 24.3867 11.0117 23.8848 11.0117 23.2656V18.7812C11.0117 17.0122 12.4458 15.5781 14.2148 15.5781H15.0128" stroke="#FF7B02" stroke-width="1.2" stroke-miterlimit="10" stroke-linecap="round" stroke-linejoin="round"/>
<path d="M17.721 15.9469L18.2134 19.8523C18.2522 20.1604 18.1295 20.4668 17.8886 20.6628L16.9252 21.4466C16.7451 21.5931 16.487 21.5931 16.307 21.4466L15.3436 20.6628C15.1027 20.4667 14.9799 20.1604 15.0188 19.8523L15.5153 15.9141" stroke="#FF7B02" stroke-width="1.2" stroke-miterlimit="10" stroke-linecap="round" stroke-linejoin="round"/>
<path d="M13.9336 13.3785V11.5367C13.9336 10.0537 15.1357 8.85156 16.6187 8.85156C18.1017 8.85156 19.3038 10.0537 19.3038 11.5367V13.3684C19.3038 14.8541 18.0993 16.0585 16.6136 16.0585C15.1335 16.0585 13.9336 14.8586 13.9336 13.3785Z" stroke="#FF7B02" stroke-width="1.2" stroke-miterlimit="10" stroke-linecap="round" stroke-linejoin="round"/>
<path d="M14.043 11.8047H19.168" stroke="#FF7B02" stroke-width="1.2" stroke-miterlimit="10" stroke-linecap="round" stroke-linejoin="round"/>
<path d="M4.86973 27.503C2.2209 24.6458 0.601562 20.8206 0.601562 16.6172C0.601562 7.772 7.772 0.601562 16.6172 0.601562C20.2079 0.601562 23.5226 1.7832 26.1936 3.7789" stroke="white" stroke-width="1.2" stroke-miterlimit="10" stroke-linecap="round" stroke-linejoin="round"/>
<path d="M19.5357 32.3672C18.5894 32.5414 17.6139 32.6324 16.6173 32.6324C16.5742 32.6324 16.5312 32.6322 16.4883 32.6319" stroke="white" stroke-width="1.2" stroke-miterlimit="10" stroke-linecap="round" stroke-linejoin="round"/>
<path d="M32.6309 16.8633C32.5293 23.6303 28.2308 29.3801 22.2227 31.6252" stroke="white" stroke-width="1.2" stroke-miterlimit="10" stroke-linecap="round" stroke-linejoin="round"/>
<path d="M8.39044 27.4569C5.11933 24.9682 3.00391 21.0351 3.00391 16.6172C3.00391 9.11082 9.11082 3.00391 16.6172 3.00391C19.6016 3.00391 22.3648 3.96925 24.611 5.60404" stroke="white" stroke-width="1.2" stroke-miterlimit="10" stroke-linecap="round" stroke-linejoin="round"/>
<path d="M30.2286 16.8516C30.1023 24.2497 24.0449 30.2291 16.6173 30.2291C16.5742 30.2291 16.5312 30.2289 16.4883 30.2285" stroke="white" stroke-width="1.2" stroke-miterlimit="10" stroke-linecap="round" stroke-linejoin="round"/>
<path d="M38.9211 34.8047L40.0165 35.9001C40.5279 36.4115 40.5279 37.2405 40.0165 37.7519L37.7526 40.0159C37.2412 40.5272 36.4121 40.5272 35.9008 40.0159L34.832 38.9471" stroke="white" stroke-width="1.2" stroke-miterlimit="10" stroke-linecap="round" stroke-linejoin="round"/>
<path d="M30.1265 34.2462L29.0749 33.1946C28.5636 32.6832 28.5636 31.8542 29.0749 31.3428L31.3389 29.0788C31.8503 28.5675 32.6793 28.5675 33.1907 29.0788L34.2156 30.1038" stroke="white" stroke-width="1.2" stroke-miterlimit="10" stroke-linecap="round" stroke-linejoin="round"/>
<path d="M34.0841 38.9054L30.1368 34.958C29.97 34.7913 29.97 34.521 30.1368 34.3543L34.3543 30.1368C34.521 29.97 34.7913 29.97 34.958 30.1368L38.9054 34.0841C39.0721 34.2509 39.0721 34.5211 38.9054 34.6878L34.6878 38.9054C34.5211 39.0721 34.2509 39.0721 34.0841 38.9054Z" stroke="white" stroke-width="1.2" stroke-miterlimit="10" stroke-linecap="round" stroke-linejoin="round"/>
<path d="M33.7421 3.87891H35.8415C36.7423 3.87891 37.4727 4.60922 37.4727 5.51018V15.0601C37.4727 15.961 36.7424 16.6914 35.8415 16.6914H26.2914C25.3905 16.6914 24.6602 15.9611 24.6602 15.0601V5.51018C24.6602 4.6093 25.3905 3.87891 26.2914 3.87891H30.8326" stroke="white" stroke-width="1.2" stroke-miterlimit="10" stroke-linecap="round" stroke-linejoin="round"/>
<path d="M14.7204 40.3984H5.17033C4.26946 40.3984 3.53906 39.6681 3.53906 38.7672V29.2172C3.53906 28.3163 4.26938 27.5859 5.17033 27.5859H14.7204C15.6213 27.5859 16.3516 28.3163 16.3516 29.2172V38.7672C16.3516 39.6681 15.6213 40.3984 14.7204 40.3984Z" stroke="white" stroke-width="1.2" stroke-miterlimit="10" stroke-linecap="round" stroke-linejoin="round"/>
<path d="M28.2578 10.181L30.5534 11.9764L33.8744 8.3125" stroke="white" stroke-width="1.2" stroke-miterlimit="10" stroke-linecap="round" stroke-linejoin="round"/>
<path d="M6.82031 31.5938H11.3083" stroke="white" stroke-width="1.2" stroke-miterlimit="10" stroke-linecap="round" stroke-linejoin="round"/>
<path d="M6.82031 33.9961H13.8268" stroke="white" stroke-width="1.2" stroke-miterlimit="10" stroke-linecap="round" stroke-linejoin="round"/>
<path d="M6.82031 36.3984H12.3226" stroke="white" stroke-width="1.2" stroke-miterlimit="10" stroke-linecap="round" stroke-linejoin="round"/>
</g>
<defs>
<clipPath id="clip0_30_12457">
<rect width="41" height="41" fill="white"/>
</clipPath>
</defs>
</svg>
