<svg width="34" height="34" viewBox="0 0 34 34" fill="none" xmlns="http://www.w3.org/2000/svg">
<g clip-path="url(#clip0_30_12410)">
<path d="M33.4282 29.4601H32.295V28.327H31.1618V29.4601H30.0287V28.327H28.8955V29.4601H20.4638C19.859 29.4571 19.3055 29.7985 19.0371 30.3402C18.9605 30.4959 18.8011 30.5944 18.6274 30.5933H15.3646C15.1906 30.5944 15.0315 30.4959 14.9549 30.3402C14.6868 29.7993 14.1346 29.4579 13.5309 29.4601H5.09921V19.2617H3.96605V29.4601H2.83289V19.2617H1.69974V29.4601H0.566579C0.253688 29.4601 0 29.7138 0 30.0267V31.7265C0 32.978 1.01475 33.9928 2.26632 33.9928H31.7284C32.98 33.9928 33.9947 32.978 33.9947 31.7265V30.0267C33.9947 29.7138 33.741 29.4601 33.4282 29.4601ZM32.8616 31.7265C32.8616 32.3522 32.3542 32.8596 31.7284 32.8596H2.26632C1.64053 32.8596 1.13316 32.3522 1.13316 31.7265V30.5933H13.5309C13.705 30.5922 13.864 30.6907 13.9407 30.8464C14.2087 31.3873 14.7609 31.7287 15.3646 31.7265H18.6302C19.2349 31.7298 19.7885 31.3881 20.0568 30.8464C20.1332 30.6915 20.2909 30.5933 20.4638 30.5933H32.8616V31.7265Z" fill="white"/>
<path d="M14.7305 9.06285V7.92969H4.53211C2.96821 7.93162 1.70116 9.19868 1.69922 10.7626V11.3292H2.83238V10.7626C2.83238 9.82391 3.59344 9.06285 4.53211 9.06285H14.7305Z" fill="white"/>
<path d="M3.96484 11.3285H15.863V10.1953H5.098C4.47222 10.1953 3.96484 10.7027 3.96484 11.3285Z" fill="white"/>
<path d="M32.1463 7.13127L32.8263 4.98806C32.8748 4.83618 32.8571 4.67075 32.7777 4.5327C32.698 4.39465 32.5638 4.29644 32.4083 4.26213L30.2103 3.78159L29.7323 1.5861C29.6985 1.43062 29.6012 1.29617 29.4634 1.21622C29.3256 1.13599 29.1607 1.11746 29.0089 1.16532L26.8654 1.84504L25.3479 0.184592C25.2381 0.071442 25.0871 0.0078125 24.9294 0.0078125C24.7717 0.0078125 24.6206 0.071442 24.5108 0.184592L22.9956 1.84809L20.8499 1.16532C20.698 1.11663 20.5329 1.13461 20.3945 1.21428C20.2565 1.29396 20.1583 1.42813 20.1242 1.58389L19.6437 3.78159L17.4504 4.26213C17.2947 4.29616 17.1605 4.39437 17.0808 4.53242C17.0011 4.67075 16.9834 4.83591 17.0319 4.98806L17.7119 7.13127L16.0484 8.64648C15.9305 8.75382 15.8633 8.9057 15.8633 9.06505C15.8633 9.2244 15.9305 9.37628 16.0484 9.48362L17.7119 10.9988L17.0319 13.142C16.9834 13.2942 17.0011 13.4594 17.0808 13.5977C17.1605 13.7357 17.2947 13.8339 17.4504 13.868L19.6484 14.3485L20.1287 16.5462C20.1627 16.702 20.2609 16.8361 20.3992 16.9158C20.5373 16.9955 20.7027 17.0135 20.8546 16.9648L22.9978 16.282L24.513 17.9455C24.6204 18.0634 24.7722 18.1306 24.9316 18.1306C25.0909 18.1306 25.2431 18.0634 25.3504 17.9455L26.8654 16.282L29.0089 16.9648C29.1607 17.0135 29.3259 16.9955 29.4642 16.9158C29.6023 16.8361 29.7005 16.702 29.7345 16.5462L30.215 14.3485L32.4128 13.868C32.5685 13.8339 32.7027 13.7357 32.7824 13.5977C32.862 13.4594 32.88 13.2942 32.8313 13.142L32.1516 10.9988L33.8151 9.48362C33.9327 9.37628 33.9999 9.2244 33.9999 9.06505C33.9999 8.9057 33.9327 8.75382 33.8151 8.64648L32.1463 7.13127ZM31.1147 10.4057C30.9512 10.5548 30.8892 10.7855 30.9567 10.9966L31.5585 12.8939L29.6133 13.3194C29.3975 13.367 29.2291 13.5354 29.1815 13.7512L28.7582 15.6941L26.8609 15.0899C26.6499 15.0235 26.4194 15.0852 26.27 15.2482L24.9294 16.7224L23.5887 15.2493C23.4814 15.1314 23.3295 15.0645 23.1702 15.0645C23.1123 15.0648 23.0551 15.0736 23.0003 15.0913L21.1005 15.6941L20.6751 13.749C20.6275 13.5332 20.459 13.3647 20.2432 13.3172L18.3003 12.8939L18.9045 10.9966C18.9717 10.7855 18.91 10.5548 18.7462 10.4057L17.272 9.06505L18.7451 7.72441C18.9089 7.57529 18.9706 7.34457 18.9031 7.13348L18.3003 5.23622L20.2454 4.81073C20.4612 4.76315 20.6297 4.59467 20.6773 4.37888L21.1005 2.43597L22.9978 3.04017C23.2089 3.1074 23.4396 3.0457 23.5887 2.88193L24.9294 1.40766L26.27 2.88082C26.4191 3.0446 26.6499 3.10629 26.8609 3.03879L28.7582 2.43597L29.1837 4.38109C29.2313 4.59688 29.3998 4.76536 29.6155 4.81294L31.5607 5.23843L30.9567 7.13597C30.8892 7.34678 30.9512 7.57751 31.1147 7.7269L32.5868 9.06505L31.1147 10.4057Z" fill="white"/>
<path d="M21.6953 11.4939L27.3608 5.82812L28.1623 6.6293L22.4965 12.2951L21.6953 11.4939Z" fill="white"/>
<path d="M23.7979 7.3638C23.7979 6.42513 23.0368 5.66406 22.0982 5.66406C21.1595 5.66406 20.3984 6.42513 20.3984 7.3638C20.3984 8.30247 21.1595 9.06354 22.0982 9.06354C23.0368 9.06354 23.7979 8.30247 23.7979 7.3638ZM21.5316 7.3638C21.5316 7.05091 21.7853 6.79722 22.0982 6.79722C22.4111 6.79722 22.6648 7.05091 22.6648 7.3638C22.6648 7.67669 22.4111 7.93038 22.0982 7.93038C21.7853 7.93038 21.5316 7.67669 21.5316 7.3638Z" fill="white"/>
<path d="M27.7622 9.0625C26.8236 9.0625 26.0625 9.82356 26.0625 10.7622C26.0625 11.7009 26.8236 12.462 27.7622 12.462C28.7009 12.462 29.462 11.7009 29.462 10.7622C29.462 9.82356 28.7009 9.0625 27.7622 9.0625ZM27.7622 11.3288C27.4493 11.3288 27.1957 11.0751 27.1957 10.7622C27.1957 10.4493 27.4493 10.1957 27.7622 10.1957C28.0751 10.1957 28.3288 10.4493 28.3288 10.7622C28.3288 11.0751 28.0751 11.3288 27.7622 11.3288Z" fill="white"/>
<path d="M14.7109 15.1639C14.5214 15.1185 14.3217 15.1747 14.1836 15.3122L8.65365 20.7848L7.30913 21.5849C6.41666 22.1039 6.01386 23.1801 6.34611 24.1578C6.60616 24.9504 7.30111 25.5211 8.12912 25.6229L9.30931 28.0109C9.40503 28.2049 9.60284 28.3274 9.81918 28.3266H12.0481C12.2393 28.3269 12.4177 28.2306 12.5226 28.0707C12.6274 27.9108 12.6446 27.7086 12.5682 27.5334L11.3952 24.8256L17.5546 24.9277H17.5643C17.7474 24.9277 17.9192 24.8392 18.0254 24.69C18.1317 24.5409 18.1593 24.3495 18.0996 24.1763L15.1178 15.5304C15.0542 15.3465 14.9007 15.2081 14.7109 15.1639ZM7.42256 23.7945C7.26321 23.3237 7.45769 22.8061 7.88761 22.5565L8.77261 22.0314L9.76357 23.9912L8.92449 24.4065C8.64314 24.5462 8.31475 24.5567 8.02482 24.4358C7.73988 24.3204 7.51966 24.0861 7.42256 23.7945ZM10.1716 27.194L9.31484 25.4636C9.35053 25.4478 9.38899 25.4417 9.42467 25.424L10.2419 25.0195L11.1833 27.194H10.1716ZM10.8787 23.6864L9.698 21.3487L14.3438 16.7513L16.7683 23.7815L10.8787 23.6864Z" fill="#FF7B02"/>
<path d="M17.6562 19.4051L19.53 18.7539L19.9015 19.8237L18.0281 20.4749L17.6562 19.4051Z" fill="#FF7B02"/>
<path d="M16.1836 15.6384L17.4332 14.3359L18.251 15.1205L17.0011 16.423L16.1836 15.6384Z" fill="#FF7B02"/>
<path d="M19.2656 23.2266H20.9654V24.3597H19.2656V23.2266Z" fill="#FF7B02"/>
<path d="M33.4292 19.2629H32.2961V15.2969H31.1629V19.2629H30.0298V18.1298H28.8966V19.2629H22.6642C22.3513 19.2629 22.0977 19.5166 22.0977 19.8295V26.6285C22.0977 26.9413 22.3513 27.195 22.6642 27.195H33.4292C33.7421 27.195 33.9958 26.9413 33.9958 26.6285V19.8295C33.9958 19.5166 33.7421 19.2629 33.4292 19.2629ZM32.8627 26.0619H23.2308V20.3961H32.8627V26.0619Z" fill="white"/>
<path d="M24.3633 21.5273H26.6296V22.6605H24.3633V21.5273Z" fill="white"/>
<path d="M27.7617 21.5273H31.7278V22.6605H27.7617V21.5273Z" fill="white"/>
<path d="M24.3633 23.793H31.7288V24.9261H24.3633V23.793Z" fill="white"/>
<path d="M0.566579 18.1267H9.06526C9.37815 18.1267 9.63184 17.873 9.63184 17.5601V13.0275C9.63184 12.7146 9.37815 12.4609 9.06526 12.4609H0.566579C0.253688 12.4609 0 12.7146 0 13.0275V17.5601C0 17.873 0.253688 18.1267 0.566579 18.1267ZM1.13316 13.5941H8.49868V16.9936H1.13316V13.5941Z" fill="white"/>
<path d="M2.26562 14.7266H3.39878V15.8597H2.26562V14.7266Z" fill="white"/>
<path d="M4.53125 14.7266H7.36414V15.8597H4.53125V14.7266Z" fill="white"/>
</g>
<defs>
<clipPath id="clip0_30_12410">
<rect width="34" height="34" fill="white"/>
</clipPath>
</defs>
</svg>
