<svg width="34" height="34" viewBox="0 0 34 34" fill="none" xmlns="http://www.w3.org/2000/svg">
<g clip-path="url(#clip0_30_12367)">
<path d="M21.6209 15.8009L20.7309 14.911C20.5755 14.7556 20.3406 14.7119 20.1397 14.8011L19.6303 15.0273C19.3768 14.8925 19.1116 14.7825 18.8374 14.6985L18.6374 14.1788C18.5585 13.9737 18.3614 13.8384 18.1416 13.8384H16.883C16.6632 13.8384 16.4662 13.9737 16.3872 14.1788L16.1872 14.6984C15.913 14.7824 15.6479 14.8923 15.3943 15.0272L14.885 14.801C14.6843 14.7118 14.4491 14.7554 14.2937 14.9109L13.4038 15.8008C13.2484 15.9562 13.2048 16.1912 13.294 16.3921L13.5201 16.9013C13.3852 17.1549 13.2753 17.4201 13.1913 17.6943L12.6718 17.8944C12.4667 17.9733 12.3314 18.1704 12.3314 18.3901V19.6487C12.3314 19.8685 12.4667 20.0655 12.6718 20.1445L13.1912 20.3444C13.2753 20.6189 13.3852 20.8842 13.52 21.1378L13.294 21.6468C13.2048 21.8477 13.2484 22.0827 13.4038 22.2381L14.2937 23.128C14.4492 23.2834 14.6841 23.3271 14.885 23.2379L15.3943 23.0116C15.6478 23.1464 15.9131 23.2564 16.1872 23.3404L16.3872 23.86C16.4661 24.0651 16.6632 24.2004 16.883 24.2004H18.1416C18.3614 24.2004 18.5585 24.0651 18.6374 23.86L18.8374 23.3406C19.1117 23.2566 19.3771 23.1466 19.6307 23.0117L20.1397 23.2377C20.3405 23.3269 20.5754 23.2833 20.7309 23.1279L21.6209 22.2379C21.7762 22.0825 21.8199 21.8475 21.7307 21.6466L21.5045 21.1374C21.6394 20.8838 21.7494 20.6185 21.8333 20.3444L22.3529 20.1444C22.558 20.0655 22.6933 19.8684 22.6933 19.6486V18.3901C22.6933 18.1703 22.558 17.9732 22.3529 17.8943L21.8335 17.6943C21.7494 17.4199 21.6394 17.1546 21.5046 16.901L21.7307 16.392C21.8199 16.1913 21.7762 15.9563 21.6209 15.8009ZM21.6308 18.755V19.284L21.2006 19.4495C21.0371 19.5124 20.9152 19.6519 20.8746 19.8223C20.7901 20.1779 20.6497 20.5165 20.4574 20.8287C20.3656 20.9779 20.3532 21.1628 20.4243 21.3229L20.6115 21.7447L20.2375 22.1188L19.8159 21.9316C19.6559 21.8605 19.471 21.8728 19.3217 21.9648C19.0096 22.1571 18.6708 22.2975 18.3151 22.3822C18.1447 22.4227 18.0052 22.5447 17.9423 22.7081L17.7768 23.1381H17.2477L17.0822 22.7079C17.0193 22.5445 16.8798 22.4225 16.7094 22.382C16.3538 22.2974 16.0152 22.1569 15.703 21.9647C15.5538 21.8728 15.3688 21.8604 15.2089 21.9315L14.7871 22.1188L14.413 21.7447L14.6002 21.3232C14.6713 21.1631 14.6589 20.9781 14.567 20.829C14.3747 20.5169 14.2344 20.1783 14.1496 19.8223C14.1091 19.6519 13.9871 19.5123 13.8237 19.4495L13.3937 19.284V18.755L13.8238 18.5894C13.9873 18.5265 14.1092 18.387 14.1498 18.2166C14.2344 17.861 14.3748 17.5224 14.5671 17.2101C14.6589 17.061 14.6712 16.8761 14.6002 16.716L14.413 16.2944L14.7871 15.9202L15.2088 16.1075C15.3688 16.1786 15.5536 16.1662 15.7029 16.0744C16.0152 15.8821 16.3539 15.7417 16.7094 15.6571C16.8798 15.6165 17.0193 15.4946 17.0822 15.3311L17.2477 14.901H17.7768L17.9423 15.3311C18.0052 15.4946 18.1448 15.6166 18.3152 15.6571C18.6707 15.7417 19.0092 15.8821 19.3215 16.0744C19.4707 16.1663 19.6557 16.1786 19.8157 16.1076L20.2375 15.9203L20.6115 16.2944L20.4243 16.7158C20.3532 16.876 20.3656 17.061 20.4576 17.2101C20.6498 17.5222 20.7902 17.8608 20.8749 18.2168C20.9154 18.3872 21.0374 18.5267 21.2008 18.5896L21.6308 18.755ZM17.5123 16.3231C16.0255 16.3231 14.8159 17.5327 14.8159 19.0195C14.8159 20.5063 16.0255 21.7159 17.5123 21.7159C18.9991 21.7159 20.2087 20.5063 20.2087 19.0195C20.2087 17.5327 18.9991 16.3231 17.5123 16.3231ZM17.5123 20.6534C16.6114 20.6534 15.8784 19.9204 15.8784 19.0195C15.8784 18.1185 16.6114 17.3856 17.5123 17.3856C18.4132 17.3856 19.1462 18.1186 19.1462 19.0195C19.1462 19.9205 18.4132 20.6534 17.5123 20.6534ZM13.8345 8.63534H21.1901C21.3408 8.63534 21.4845 8.57132 21.5852 8.45916C21.686 8.34707 21.7343 8.19745 21.7183 8.04751C21.5521 6.49453 20.5645 5.21741 19.2133 4.62626C19.6459 4.1917 19.9138 3.59298 19.9138 2.93283C19.9138 1.60856 18.8364 0.53125 17.5123 0.53125C16.1882 0.53125 15.1108 1.60856 15.1108 2.93277C15.1108 3.59291 15.3787 4.19163 15.8113 4.62619C14.4601 5.21734 13.4725 6.49453 13.3063 8.04751C13.2903 8.19739 13.3386 8.347 13.4394 8.45916C13.5401 8.57125 13.6838 8.63534 13.8345 8.63534ZM16.1733 2.93277C16.1733 2.19439 16.774 1.59375 17.5123 1.59375C18.2506 1.59375 18.8513 2.19439 18.8513 2.93277C18.8513 3.67107 18.2506 4.27178 17.5123 4.27178C16.774 4.27178 16.1733 3.67107 16.1733 2.93277ZM17.5123 5.33428C18.9311 5.33428 20.1443 6.26284 20.5424 7.57277H14.4821C14.8802 6.26284 16.0935 5.33428 17.5123 5.33428ZM20.9081 23.8711L16.6241 26.3663C16.5264 26.4232 16.4279 26.472 16.3279 26.5128C16.3477 26.4582 16.3655 26.4019 16.3811 26.3439C16.6209 25.4488 16.0914 24.5151 15.1757 24.2182C15.1529 24.2109 15.1297 24.205 15.1061 24.2008C13.8875 23.981 12.6789 23.5441 11.7079 23.193C11.3674 23.0699 11.0458 22.9537 10.771 22.8645C9.61773 22.4903 8.58916 22.9454 7.73511 23.4399L4.67996 25.2088L4.45457 24.8106C4.30204 24.5411 4.05302 24.347 3.75346 24.264C3.45403 24.181 3.14053 24.2192 2.87098 24.3718L1.66903 25.052C1.39942 25.2045 1.20532 25.4535 1.12231 25.7531C1.03923 26.0527 1.07748 26.3661 1.23009 26.6357L4.76389 32.8797C4.91643 33.1492 5.16539 33.3433 5.46501 33.4263C5.5686 33.4551 5.67379 33.4692 5.77832 33.4692C5.97607 33.4692 6.17118 33.4183 6.34748 33.3185L7.5495 32.6383C7.81905 32.4857 8.01315 32.2368 8.09616 31.9372C8.17923 31.6376 8.14092 31.3242 7.98838 31.0547L7.69786 30.5413L8.24046 30.228L13.6669 31.682C13.9831 31.7668 14.2976 31.8089 14.607 31.8089C15.2332 31.8089 15.8383 31.6363 16.3916 31.2957L24.1659 26.5086C24.9412 26.0312 25.1901 24.8333 24.688 23.9951C24.4458 23.5906 23.4571 22.3865 20.9081 23.8711ZM7.07231 31.6533C7.0672 31.6718 7.05498 31.6972 7.02616 31.7136L5.82414 32.3939C5.79525 32.4102 5.76736 32.4076 5.74876 32.4024C5.73037 32.3973 5.70487 32.3851 5.68853 32.3562L2.15473 26.1123C2.13839 26.0834 2.14105 26.0554 2.14616 26.0369C2.15127 26.0184 2.16343 25.9931 2.19231 25.9767L3.39433 25.2964C3.41087 25.287 3.42714 25.2839 3.44148 25.2839C3.45217 25.2839 3.46187 25.2856 3.4697 25.2878C3.48816 25.2929 3.5136 25.3051 3.52993 25.334L6.51562 30.6096C6.51549 30.6094 6.51576 30.6098 6.51562 30.6096C6.51569 30.6097 6.51616 30.6104 6.51622 30.6106L7.06374 31.578C7.08008 31.6068 7.07742 31.6349 7.07231 31.6533ZM23.6089 25.6037L15.8345 30.391C15.2548 30.7478 14.6182 30.8369 13.9419 30.6556L8.30288 29.1447C8.16695 29.1084 8.02185 29.1273 7.8998 29.1978L7.17451 29.6165L5.2033 26.1335L8.26749 24.3594C9.20309 23.8177 9.83341 23.6772 10.4432 23.8752C10.7012 23.9588 11.0003 24.067 11.3465 24.1922C12.345 24.5531 13.585 25.0015 14.8776 25.2392C15.243 25.3722 15.4472 25.7237 15.3548 26.069C15.2565 26.4361 14.9794 26.5964 14.5327 26.5462C13.9104 26.4177 13.316 26.2482 12.6873 26.0686C12.3859 25.9826 12.0743 25.8935 11.7534 25.8075C11.4701 25.7318 11.1787 25.8998 11.1027 26.1832C11.0267 26.4666 11.195 26.7579 11.4784 26.8338C11.7909 26.9176 12.0983 27.0054 12.3956 27.0902C13.0524 27.2778 13.6728 27.455 14.3437 27.5921C14.3472 27.5929 14.3507 27.5931 14.3543 27.5937C14.3578 27.5944 14.3612 27.5954 14.3647 27.596L14.8978 27.6827C15.7304 27.8159 16.47 27.6857 17.1588 27.2845L21.4429 24.7893C22.5782 24.1282 23.4723 24.033 23.7766 24.541C23.9806 24.8816 23.8944 25.4279 23.6089 25.6037ZM3.66866 26.3708C3.70292 26.6053 3.54062 26.8232 3.30608 26.8575C3.0716 26.8917 2.85365 26.7294 2.81939 26.495C2.78505 26.2604 2.94742 26.0425 3.1819 26.0082C3.41645 25.9739 3.63439 26.1362 3.66866 26.3708ZM8.81315 8.45909C8.91395 8.347 8.9623 8.19739 8.94623 8.04744C8.78008 6.49453 7.79242 5.21734 6.44132 4.62619C6.87395 4.19163 7.14184 3.59291 7.14184 2.9327C7.14177 1.60856 6.06446 0.53125 4.74032 0.53125C3.41618 0.53125 2.3388 1.60856 2.3388 2.93277C2.3388 3.59291 2.60669 4.19163 3.03932 4.62619C1.68809 5.21734 0.700429 6.49453 0.534281 8.04757C0.51821 8.19745 0.566554 8.34707 0.667359 8.45923C0.768163 8.57132 0.9118 8.63534 1.06248 8.63534H8.41803C8.56871 8.63527 8.71234 8.57125 8.81315 8.45909ZM4.74032 1.59375C5.47862 1.59375 6.07927 2.19439 6.07927 2.93277C6.07927 3.67107 5.47862 4.27178 4.74032 4.27178C4.00202 4.27178 3.4013 3.67107 3.4013 2.93277C3.4013 2.19439 4.00202 1.59375 4.74032 1.59375ZM1.71007 7.57284C2.10818 6.26284 3.32142 5.33428 4.74025 5.33428C6.15902 5.33428 7.37227 6.26284 7.77037 7.57277L1.71007 7.57284ZM17.5123 12.9088C17.2189 12.9088 16.9811 12.6709 16.9811 12.3775V10.0963C16.9811 9.80289 17.2189 9.56502 17.5123 9.56502C17.8057 9.56502 18.0436 9.80289 18.0436 10.0963V12.3775C18.0436 12.6709 17.8057 12.9088 17.5123 12.9088ZM8.96469 9.72055L13.1913 13.9472C13.3988 14.1547 13.3988 14.491 13.1913 14.6985C13.0876 14.8022 12.9516 14.8541 12.8157 14.8541C12.6797 14.8541 12.5437 14.8022 12.44 14.6985L8.21337 10.4718C8.00591 10.2643 8.00591 9.928 8.21337 9.72055C8.42102 9.51309 8.7573 9.51309 8.96469 9.72055ZM26.8112 9.72061C27.0187 9.92807 27.0187 10.2644 26.8112 10.4719L22.5846 14.6985C22.4809 14.8022 22.3449 14.8541 22.209 14.8541C22.073 14.8541 21.937 14.8022 21.8333 14.6985C21.6258 14.491 21.6258 14.1547 21.8333 13.9472L26.0599 9.72061C26.2675 9.51316 26.6038 9.51323 26.8112 9.72061ZM33.4657 8.04751C33.2995 6.49453 32.3119 5.21734 30.9607 4.62619C31.3933 4.19163 31.6612 3.59291 31.6612 2.93277C31.6612 1.60856 30.5839 0.53125 29.2597 0.53125C27.9355 0.53125 26.8582 1.60856 26.8582 2.93277C26.8582 3.59291 27.1261 4.1917 27.5587 4.62619C26.2075 5.21734 25.2199 6.49453 25.0537 8.04751C25.0377 8.19739 25.086 8.34707 25.1868 8.45916C25.2876 8.57125 25.4312 8.63534 25.5819 8.63534H32.9375C33.0882 8.63534 33.2319 8.57132 33.3326 8.45916C33.4334 8.347 33.4817 8.19739 33.4657 8.04751ZM27.9207 2.93277C27.9207 2.19439 28.5214 1.59375 29.2597 1.59375C29.998 1.59375 30.5987 2.19439 30.5987 2.93277C30.5987 3.67107 29.998 4.27178 29.2597 4.27178C28.5214 4.27178 27.9207 3.67107 27.9207 2.93277ZM26.2296 7.57284C26.6277 6.26284 27.8409 5.33428 29.2597 5.33428C30.6785 5.33428 31.8918 6.26284 32.2899 7.57277L26.2296 7.57284Z" fill="#FF7B02"/>
<path d="M21.6209 15.8009L20.7309 14.911C20.5755 14.7556 20.3406 14.7119 20.1397 14.8011L19.6303 15.0273C19.3768 14.8925 19.1116 14.7825 18.8374 14.6985L18.6374 14.1788C18.5585 13.9737 18.3614 13.8384 18.1416 13.8384H16.883C16.6632 13.8384 16.4662 13.9737 16.3872 14.1788L16.1872 14.6984C15.913 14.7824 15.6479 14.8923 15.3943 15.0272L14.885 14.801C14.6843 14.7118 14.4491 14.7554 14.2937 14.9109L13.4038 15.8008C13.2484 15.9562 13.2048 16.1912 13.294 16.3921L13.5201 16.9013C13.3852 17.1549 13.2753 17.4201 13.1913 17.6943L12.6718 17.8944C12.4667 17.9733 12.3314 18.1704 12.3314 18.3901V19.6487C12.3314 19.8685 12.4667 20.0655 12.6718 20.1445L13.1912 20.3444C13.2753 20.6189 13.3852 20.8842 13.52 21.1378L13.294 21.6468C13.2048 21.8477 13.2484 22.0827 13.4038 22.2381L14.2937 23.128C14.4492 23.2834 14.6841 23.3271 14.885 23.2379L15.3943 23.0116C15.6478 23.1464 15.9131 23.2564 16.1872 23.3404L16.3872 23.86C16.4661 24.0651 16.6632 24.2004 16.883 24.2004H18.1416C18.3614 24.2004 18.5585 24.0651 18.6374 23.86L18.8374 23.3406C19.1117 23.2566 19.3771 23.1466 19.6307 23.0117L20.1397 23.2377C20.3405 23.3269 20.5754 23.2833 20.7309 23.1279L21.6209 22.2379C21.7762 22.0825 21.8199 21.8475 21.7307 21.6466L21.5045 21.1374C21.6394 20.8838 21.7494 20.6185 21.8333 20.3444L22.3529 20.1444C22.558 20.0655 22.6933 19.8684 22.6933 19.6486V18.3901C22.6933 18.1703 22.558 17.9732 22.3529 17.8943L21.8335 17.6943C21.7494 17.4199 21.6394 17.1546 21.5046 16.901L21.7307 16.392C21.8199 16.1913 21.7762 15.9563 21.6209 15.8009ZM21.6308 18.755V19.284L21.2006 19.4495C21.0371 19.5124 20.9152 19.6519 20.8746 19.8223C20.7901 20.1779 20.6497 20.5165 20.4574 20.8287C20.3656 20.9779 20.3532 21.1628 20.4243 21.3229L20.6115 21.7447L20.2375 22.1188L19.8159 21.9316C19.6559 21.8605 19.471 21.8728 19.3217 21.9648C19.0096 22.1571 18.6708 22.2975 18.3151 22.3822C18.1447 22.4227 18.0052 22.5447 17.9423 22.7081L17.7768 23.1381H17.2477L17.0822 22.7079C17.0193 22.5445 16.8798 22.4225 16.7094 22.382C16.3538 22.2974 16.0152 22.1569 15.703 21.9647C15.5538 21.8728 15.3688 21.8604 15.2089 21.9315L14.7871 22.1188L14.413 21.7447L14.6002 21.3232C14.6713 21.1631 14.6589 20.9781 14.567 20.829C14.3747 20.5169 14.2344 20.1783 14.1496 19.8223C14.1091 19.6519 13.9871 19.5123 13.8237 19.4495L13.3937 19.284V18.755L13.8238 18.5894C13.9873 18.5265 14.1092 18.387 14.1498 18.2166C14.2344 17.861 14.3748 17.5224 14.5671 17.2101C14.6589 17.061 14.6712 16.8761 14.6002 16.716L14.413 16.2944L14.7871 15.9202L15.2088 16.1075C15.3688 16.1786 15.5536 16.1662 15.7029 16.0744C16.0152 15.8821 16.3539 15.7417 16.7094 15.6571C16.8798 15.6165 17.0193 15.4946 17.0822 15.3311L17.2477 14.901H17.7768L17.9423 15.3311C18.0052 15.4946 18.1448 15.6166 18.3152 15.6571C18.6707 15.7417 19.0092 15.8821 19.3215 16.0744C19.4707 16.1663 19.6557 16.1786 19.8157 16.1076L20.2375 15.9203L20.6115 16.2944L20.4243 16.7158C20.3532 16.876 20.3656 17.061 20.4576 17.2101C20.6498 17.5222 20.7902 17.8608 20.8749 18.2168C20.9154 18.3872 21.0374 18.5267 21.2008 18.5896L21.6308 18.755ZM17.5123 16.3231C16.0255 16.3231 14.8159 17.5327 14.8159 19.0195C14.8159 20.5063 16.0255 21.7159 17.5123 21.7159C18.9991 21.7159 20.2087 20.5063 20.2087 19.0195C20.2087 17.5327 18.9991 16.3231 17.5123 16.3231ZM17.5123 20.6534C16.6114 20.6534 15.8784 19.9204 15.8784 19.0195C15.8784 18.1185 16.6114 17.3856 17.5123 17.3856C18.4132 17.3856 19.1462 18.1186 19.1462 19.0195C19.1462 19.9205 18.4132 20.6534 17.5123 20.6534ZM20.9081 23.8711L16.6241 26.3663C16.5264 26.4232 16.4279 26.472 16.3279 26.5128C16.3477 26.4582 16.3655 26.4019 16.3811 26.3439C16.6209 25.4488 16.0914 24.5151 15.1757 24.2182C15.1529 24.2109 15.1297 24.205 15.1061 24.2008C13.8875 23.981 12.6789 23.5441 11.7079 23.193C11.3674 23.0699 11.0458 22.9537 10.771 22.8645C9.61773 22.4903 8.58916 22.9454 7.73511 23.4399L4.67996 25.2088L4.45457 24.8106C4.30204 24.5411 4.05302 24.347 3.75346 24.264C3.45403 24.181 3.14053 24.2192 2.87098 24.3718L1.66903 25.052C1.39942 25.2045 1.20532 25.4535 1.12231 25.7531C1.03923 26.0527 1.07748 26.3661 1.23009 26.6357L4.76389 32.8797C4.91643 33.1492 5.16539 33.3433 5.46501 33.4263C5.5686 33.4551 5.67379 33.4692 5.77832 33.4692C5.97607 33.4692 6.17118 33.4183 6.34748 33.3185L7.5495 32.6383C7.81905 32.4857 8.01315 32.2368 8.09616 31.9372C8.17923 31.6376 8.14092 31.3242 7.98838 31.0547L7.69786 30.5413L8.24046 30.228L13.6669 31.682C13.9831 31.7668 14.2976 31.8089 14.607 31.8089C15.2332 31.8089 15.8383 31.6363 16.3916 31.2957L24.1659 26.5086C24.9412 26.0312 25.1901 24.8333 24.688 23.9951C24.4458 23.5906 23.4571 22.3865 20.9081 23.8711ZM7.07231 31.6533C7.0672 31.6718 7.05498 31.6972 7.02616 31.7136L5.82414 32.3939C5.79525 32.4102 5.76736 32.4076 5.74876 32.4024C5.73037 32.3973 5.70487 32.3851 5.68853 32.3562L2.15473 26.1123C2.13839 26.0834 2.14105 26.0554 2.14616 26.0369C2.15127 26.0184 2.16343 25.9931 2.19231 25.9767L3.39433 25.2964C3.41087 25.287 3.42714 25.2839 3.44148 25.2839C3.45217 25.2839 3.46187 25.2856 3.4697 25.2878C3.48816 25.2929 3.5136 25.3051 3.52993 25.334L6.51562 30.6096C6.51569 30.6097 6.51616 30.6104 6.51622 30.6106L7.06374 31.578C7.08008 31.6068 7.07742 31.6349 7.07231 31.6533ZM23.6089 25.6037L15.8345 30.391C15.2548 30.7478 14.6182 30.8369 13.9419 30.6556L8.30288 29.1447C8.16695 29.1084 8.02185 29.1273 7.8998 29.1978L7.17451 29.6165L5.2033 26.1335L8.26749 24.3594C9.20309 23.8177 9.83341 23.6772 10.4432 23.8752C10.7012 23.9588 11.0003 24.067 11.3465 24.1922C12.345 24.5531 13.585 25.0015 14.8776 25.2392C15.243 25.3722 15.4472 25.7237 15.3548 26.069C15.2565 26.4361 14.9794 26.5964 14.5327 26.5462C13.9104 26.4177 13.316 26.2482 12.6873 26.0686C12.3859 25.9826 12.0743 25.8935 11.7534 25.8075C11.4701 25.7318 11.1787 25.8998 11.1027 26.1832C11.0267 26.4666 11.195 26.7579 11.4784 26.8338C11.7909 26.9176 12.0983 27.0054 12.3956 27.0902C13.0524 27.2778 13.6728 27.455 14.3437 27.5921C14.3472 27.5929 14.3507 27.5931 14.3543 27.5937C14.3578 27.5944 14.3612 27.5954 14.3647 27.596L14.8978 27.6827C15.7304 27.8159 16.47 27.6857 17.1588 27.2845L21.4429 24.7893C22.5782 24.1282 23.4723 24.033 23.7766 24.541C23.9806 24.8816 23.8944 25.4279 23.6089 25.6037ZM3.66866 26.3708C3.70292 26.6053 3.54062 26.8232 3.30608 26.8575C3.0716 26.8917 2.85365 26.7294 2.81939 26.495C2.78505 26.2604 2.94742 26.0425 3.1819 26.0082C3.41645 25.9739 3.63439 26.1362 3.66866 26.3708ZM17.5123 12.9088C17.2189 12.9088 16.9811 12.6709 16.9811 12.3775V10.0963C16.9811 9.80289 17.2189 9.56502 17.5123 9.56502C17.8057 9.56502 18.0436 9.80289 18.0436 10.0963V12.3775C18.0436 12.6709 17.8057 12.9088 17.5123 12.9088ZM8.96469 9.72055L13.1913 13.9472C13.3988 14.1547 13.3988 14.491 13.1913 14.6985C13.0876 14.8022 12.9516 14.8541 12.8157 14.8541C12.6797 14.8541 12.5437 14.8022 12.44 14.6985L8.21337 10.4718C8.00591 10.2643 8.00591 9.928 8.21337 9.72055C8.42102 9.51309 8.7573 9.51309 8.96469 9.72055ZM26.8112 9.72061C27.0187 9.92807 27.0187 10.2644 26.8112 10.4719L22.5846 14.6985C22.4809 14.8022 22.3449 14.8541 22.209 14.8541C22.073 14.8541 21.937 14.8022 21.8333 14.6985C21.6258 14.491 21.6258 14.1547 21.8333 13.9472L26.0599 9.72061C26.2675 9.51316 26.6038 9.51323 26.8112 9.72061Z" fill="white"/>
</g>
<defs>
<clipPath id="clip0_30_12367">
<rect width="34" height="34" fill="white"/>
</clipPath>
</defs>
</svg>
