<svg width="36" height="36" viewBox="0 0 36 36" fill="none" xmlns="http://www.w3.org/2000/svg">
<path d="M33.9213 14.5391C33.5384 14.5391 33.229 14.8485 33.229 15.2314V27.0006C33.229 27.3828 32.9188 27.6929 32.5367 27.6929H3.45974C3.07758 27.6929 2.76743 27.3828 2.76743 27.0006V7.61599C2.76743 7.23383 3.07758 6.92368 3.45974 6.92368H13.8444C14.2272 6.92368 14.5367 6.61422 14.5367 6.23137C14.5367 5.84852 14.2272 5.53906 13.8444 5.53906H3.45974C2.31466 5.53906 1.38281 6.47091 1.38281 7.61599V27.0006C1.38281 28.1457 2.31466 29.0775 3.45974 29.0775H32.5367C33.6817 29.0775 34.6136 28.1457 34.6136 27.0006V15.2314C34.6136 14.8485 34.3041 14.5391 33.9213 14.5391Z" fill="white"/>
<path d="M23.5349 33.2302H22.1502V31.1532C22.1502 30.7704 21.8408 30.4609 21.4579 30.4609C21.0751 30.4609 20.7656 30.7704 20.7656 31.1532V33.2302H15.2272V31.1532C15.2272 30.7704 14.9177 30.4609 14.5349 30.4609C14.152 30.4609 13.8425 30.7704 13.8425 31.1532V33.2302H12.4579C12.0751 33.2302 11.7656 33.5396 11.7656 33.9225C11.7656 34.3053 12.0751 34.6148 12.4579 34.6148H23.5349C23.9177 34.6148 24.2272 34.3053 24.2272 33.9225C24.2272 33.5396 23.9177 33.2302 23.5349 33.2302Z" fill="white"/>
<path d="M11.7665 22.8438C11.3837 22.8438 11.0742 23.1532 11.0742 23.5361C11.0742 23.9189 11.3837 24.2284 11.7665 24.2284H29.7665C30.1494 24.2284 30.4588 23.9189 30.4588 23.5361C30.4588 23.1532 30.1494 22.8438 29.7665 22.8438H11.7665Z" fill="white"/>
<path d="M6.22746 22.8438C5.84462 22.8438 5.53516 23.1532 5.53516 23.5361C5.53516 23.9189 5.84462 24.2284 6.22746 24.2284H8.30439C8.68723 24.2284 8.99669 23.9189 8.99669 23.5361C8.99669 23.1532 8.68723 22.8438 8.30439 22.8438H6.22746Z" fill="white"/>
<path d="M16.3679 12.6217L17.4729 12.8426C17.5449 13.0399 17.6245 13.233 17.7124 13.4214L17.0879 14.358C16.7148 14.9174 16.7889 15.6686 17.2645 16.1435L18.4705 17.3488C18.9447 17.8237 19.6945 17.8999 20.2552 17.526L21.1968 16.8988C21.3865 16.9881 21.5782 17.0684 21.77 17.1397L21.9909 18.246C22.1224 18.9051 22.706 19.3828 23.3782 19.3828H25.0834C25.7556 19.3828 26.3385 18.9051 26.4708 18.2454L26.6916 17.1397C26.8889 17.0677 27.0821 16.9881 27.2704 16.9009L28.2078 17.526C28.7665 17.8971 29.5176 17.823 29.9919 17.3481L31.1979 16.1428C31.6735 15.6672 31.7475 14.9167 31.3744 14.3574L30.7472 13.4165C30.8372 13.2268 30.9175 13.0344 30.9888 12.8433L32.0944 12.6217C32.7528 12.4902 33.2305 11.9073 33.2305 11.235V9.5292C33.2305 8.85766 32.7528 8.27474 32.093 8.14251L30.9881 7.92166C30.9161 7.72366 30.8365 7.5312 30.7492 7.34289L31.373 6.4062C31.7462 5.84681 31.6721 5.09566 31.1965 4.62074L29.9905 3.41543C29.5162 2.9412 28.7665 2.86435 28.2057 3.2382L27.2642 3.86543C27.0745 3.77612 26.8827 3.69581 26.6909 3.6245L26.4701 2.5182C26.3385 1.8605 25.7549 1.38281 25.0827 1.38281H23.3775C22.7053 1.38281 22.1224 1.8605 21.9902 2.51958L21.7693 3.6252C21.5762 3.6965 21.383 3.77681 21.194 3.86612L20.2539 3.2382C19.6945 2.86643 18.9433 2.9412 18.4698 3.41612L17.2638 4.62143C16.7882 5.09704 16.7141 5.84751 17.0872 6.40689L17.7152 7.34774C17.6265 7.53674 17.5462 7.72851 17.4756 7.92097L16.3672 8.14251C15.7082 8.27474 15.2305 8.85835 15.2305 9.52989V11.2357C15.2305 11.9066 15.7082 12.4902 16.3679 12.6217ZM16.6393 9.50081L18.1409 9.20035C18.3915 9.15051 18.5951 8.96497 18.6685 8.71989C18.7785 8.35089 18.9322 7.98397 19.1233 7.62812C19.2452 7.40312 19.232 7.12827 19.0901 6.91574L18.242 5.60104L19.4861 4.39158L20.7613 5.24243C20.9745 5.38504 21.2494 5.39889 21.4751 5.27497C21.8295 5.0832 22.1972 4.92951 22.5669 4.81943C22.8126 4.74674 22.9982 4.54389 23.048 4.29189L23.3782 2.76743L25.1132 2.79097L25.4122 4.2905C25.4621 4.54181 25.6476 4.74466 25.8927 4.81804C26.2548 4.92604 26.6231 5.08043 26.9845 5.27497C27.2095 5.39681 27.485 5.38366 27.6969 5.24174L29.0115 4.39435L30.221 5.63843L29.3736 6.9095C29.231 7.12343 29.2185 7.39758 29.3411 7.62327C29.5252 7.9632 29.6775 8.3322 29.7932 8.71989C29.8665 8.96497 30.0694 9.14981 30.3207 9.19966L31.8202 9.50012L31.8459 9.52989L31.8216 11.2648L30.3228 11.5646C30.0715 11.6144 29.8686 11.8 29.7952 12.045C29.6872 12.4064 29.5335 12.774 29.3376 13.1361C29.2158 13.3618 29.2289 13.6367 29.3709 13.8492L30.2189 15.1639L28.9749 16.3734L27.7038 15.5253C27.4912 15.3834 27.2164 15.3709 26.9907 15.492C26.6494 15.6769 26.2804 15.8292 25.8934 15.9448C25.6483 16.0182 25.4635 16.221 25.4136 16.4724L25.0827 17.9982L23.3478 17.974L23.048 16.4744C22.9982 16.2231 22.8126 16.0203 22.5675 15.9469C22.2055 15.8389 21.8372 15.6845 21.4758 15.49C21.3733 15.4346 21.2598 15.4069 21.1469 15.4069C21.0126 15.4069 20.8783 15.4464 20.7627 15.5232L19.448 16.3706L18.2385 15.1265L19.0866 13.8554C19.2292 13.6415 19.2417 13.3674 19.1192 13.1417C18.9336 12.7997 18.782 12.4314 18.6664 12.045C18.593 11.8 18.3902 11.6151 18.1389 11.5653L16.6151 11.235L16.6393 9.50081Z" fill="#FF7B02"/>
<path d="M24.2281 14.5343C26.5189 14.5343 28.3819 12.6713 28.3819 10.3804C28.3819 10.1007 28.3542 9.82102 28.2995 9.55033C28.2241 9.17579 27.8592 8.93349 27.4833 9.00895C27.1088 9.0851 26.8658 9.45064 26.9419 9.82518C26.9793 10.0059 26.9973 10.1928 26.9973 10.3804C26.9973 11.9076 25.7553 13.1496 24.2281 13.1496C22.7008 13.1496 21.4588 11.9076 21.4588 10.3804C21.4588 8.85318 22.7008 7.61118 24.2281 7.61118C24.4157 7.61118 24.6019 7.62918 24.7833 7.66656C25.1564 7.74272 25.5227 7.49972 25.5995 7.12518C25.675 6.75064 25.4327 6.38579 25.0581 6.30895C24.7868 6.25426 24.5071 6.22656 24.2281 6.22656C21.9372 6.22656 20.0742 8.08956 20.0742 10.3804C20.0742 12.6713 21.9372 14.5343 24.2281 14.5343Z" fill="#FF7B02"/>
</svg>
