<svg width="39" height="39" viewBox="0 0 39 39" fill="none" xmlns="http://www.w3.org/2000/svg">
<path d="M31.6875 22.75H28.4375V21.125C28.4375 20.9095 28.3519 20.7028 28.1995 20.5505C28.0472 20.3981 27.8405 20.3125 27.625 20.3125C27.4095 20.3125 27.2028 20.3981 27.0505 20.5505C26.8981 20.7028 26.8125 20.9095 26.8125 21.125V22.75H23.5625C23.347 22.75 23.1403 22.8356 22.988 22.988C22.8356 23.1403 22.75 23.347 22.75 23.5625C22.75 23.778 22.8356 23.9847 22.988 24.137C23.1403 24.2894 23.347 24.375 23.5625 24.375H29.5912C29.3923 25.7554 28.6903 27.0135 27.6201 27.9078C26.995 27.3857 26.4898 26.735 26.1389 26C26.0954 25.9003 26.0322 25.8103 25.9532 25.7354C25.8742 25.6606 25.781 25.6023 25.679 25.5642C25.5771 25.5261 25.4685 25.5088 25.3598 25.5134C25.2511 25.5181 25.1444 25.5445 25.046 25.5911C24.9477 25.6378 24.8597 25.7037 24.7874 25.7851C24.715 25.8664 24.6598 25.9614 24.6248 26.0645C24.5899 26.1675 24.576 26.2766 24.5841 26.3851C24.5921 26.4937 24.6218 26.5995 24.6716 26.6963C25.0492 27.4793 25.5653 28.1876 26.195 28.7869C25.4729 29.0944 24.6959 29.252 23.9111 29.25C23.8058 29.2505 23.7017 29.2721 23.605 29.3134C23.5082 29.3548 23.4207 29.4151 23.3476 29.4908C23.2745 29.5666 23.2174 29.6562 23.1795 29.7544C23.1416 29.8525 23.1237 29.9573 23.127 30.0625C23.1338 30.2809 23.2255 30.488 23.3828 30.6398C23.54 30.7916 23.7502 30.876 23.9688 30.875C25.26 30.8745 26.5278 30.5295 27.6413 29.8756C28.765 30.5268 30.0401 30.8714 31.3389 30.875C31.4442 30.8745 31.5483 30.8529 31.645 30.8116C31.7418 30.7702 31.8293 30.7099 31.9024 30.6342C31.9755 30.5584 32.0326 30.4688 32.0705 30.3707C32.1084 30.2725 32.1263 30.1677 32.123 30.0625C32.1162 29.8441 32.0245 29.637 31.8672 29.4852C31.71 29.3334 31.4998 29.249 31.2812 29.25C30.5211 29.247 29.7694 29.0906 29.0712 28.7901C30.2814 27.6131 31.0455 26.0526 31.2333 24.375H31.6875C31.903 24.375 32.1097 24.2894 32.262 24.137C32.4144 23.9847 32.5 23.778 32.5 23.5625C32.5 23.347 32.4144 23.1403 32.262 22.988C32.1097 22.8356 31.903 22.75 31.6875 22.75Z" fill="white"/>
<path d="M11.3753 7.71875C11.2193 7.71879 11.0667 7.76371 10.9356 7.84813C10.8045 7.93256 10.7004 8.05293 10.6359 8.19488L6.57338 17.1324C6.48982 17.3276 6.48598 17.5477 6.5627 17.7457C6.63941 17.9437 6.79058 18.1038 6.98385 18.1917C7.17712 18.2796 7.39713 18.2884 7.59679 18.2162C7.79645 18.1439 7.95989 17.9964 8.05213 17.8051L9.49757 14.625H13.2529L14.6984 17.8051C14.7906 17.9964 14.9541 18.1439 15.1537 18.2162C15.3534 18.2884 15.5734 18.2796 15.7667 18.1917C15.9599 18.1038 16.1111 17.9437 16.1878 17.7457C16.2645 17.5477 16.2607 17.3276 16.1771 17.1324L12.1146 8.19488C12.0501 8.05293 11.946 7.93256 11.8149 7.84813C11.6838 7.76371 11.5312 7.71879 11.3753 7.71875ZM10.2378 13L11.3753 10.4951L12.5128 13H10.2378Z" fill="white"/>
<path d="M33.3125 16.25H21.9375C20.8605 16.2513 19.8279 16.6797 19.0663 17.4413C18.3047 18.2029 17.8763 19.2355 17.875 20.3125V31.6875C17.8763 32.7645 18.3047 33.7971 19.0663 34.5587C19.8279 35.3203 20.8605 35.7487 21.9375 35.75H33.3125C34.3895 35.7487 35.4221 35.3203 36.1837 34.5587C36.9453 33.7971 37.3737 32.7645 37.375 31.6875V20.3125C37.3737 19.2355 36.9453 18.2029 36.1837 17.4413C35.4221 16.6797 34.3895 16.2513 33.3125 16.25ZM35.75 31.6875C35.75 32.334 35.4932 32.954 35.0361 33.4111C34.579 33.8682 33.959 34.125 33.3125 34.125H21.9375C21.291 34.125 20.671 33.8682 20.2139 33.4111C19.7568 32.954 19.5 32.334 19.5 31.6875V20.3125C19.5 19.666 19.7568 19.046 20.2139 18.5889C20.671 18.1318 21.291 17.875 21.9375 17.875H33.3125C33.959 17.875 34.579 18.1318 35.0361 18.5889C35.4932 19.046 35.75 19.666 35.75 20.3125V31.6875Z" fill="white"/>
<path d="M19.5 7.3125V14.0156C19.5 14.2311 19.5856 14.4378 19.738 14.5901C19.8903 14.7425 20.097 14.8281 20.3125 14.8281C20.528 14.8281 20.7347 14.7425 20.887 14.5901C21.0394 14.4378 21.125 14.2311 21.125 14.0156V7.3125C21.1237 6.23545 20.6953 5.20289 19.9337 4.4413C19.1721 3.67972 18.1395 3.25129 17.0625 3.25H5.6875C4.61045 3.25129 3.57789 3.67972 2.8163 4.4413C2.05472 5.20289 1.62629 6.23545 1.625 7.3125V18.6875C1.62629 19.7645 2.05472 20.7971 2.8163 21.5587C3.57789 22.3203 4.61045 22.7487 5.6875 22.75H15.4375C15.653 22.75 15.8597 22.6644 16.012 22.512C16.1644 22.3597 16.25 22.153 16.25 21.9375C16.25 21.722 16.1644 21.5153 16.012 21.363C15.8597 21.2106 15.653 21.125 15.4375 21.125H5.6875C5.04103 21.125 4.42105 20.8682 3.96393 20.4111C3.50681 19.954 3.25 19.334 3.25 18.6875V7.3125C3.25 6.66603 3.50681 6.04605 3.96393 5.58893C4.42105 5.13181 5.04103 4.875 5.6875 4.875H17.0625C17.709 4.875 18.329 5.13181 18.7861 5.58893C19.2432 6.04605 19.5 6.66603 19.5 7.3125Z" fill="white"/>
<path d="M26.2379 10.3227C26.3911 10.4707 26.5964 10.5526 26.8094 10.5508C27.0224 10.5489 27.2262 10.4634 27.3769 10.3128C27.5275 10.1622 27.613 9.95838 27.6148 9.74534C27.6167 9.53231 27.5348 9.32707 27.3868 9.17383L27.1487 8.93577H30.8748C31.0903 8.93577 31.297 9.02137 31.4494 9.17374C31.6017 9.32611 31.6873 9.53278 31.6873 9.74827V12.1858C31.6873 12.4013 31.7729 12.6079 31.9253 12.7603C32.0777 12.9127 32.2843 12.9983 32.4998 12.9983C32.7153 12.9983 32.922 12.9127 33.0744 12.7603C33.2267 12.6079 33.3123 12.4013 33.3123 12.1858V9.74827C33.3123 9.1018 33.0555 8.48181 32.5984 8.02469C32.1413 7.56757 31.5213 7.31077 30.8748 7.31077H27.1487L27.3868 7.0727C27.4644 6.99775 27.5263 6.9081 27.5688 6.80897C27.6114 6.70984 27.6338 6.60322 27.6348 6.49534C27.6357 6.38746 27.6152 6.28047 27.5743 6.18062C27.5335 6.08076 27.4731 5.99004 27.3968 5.91376C27.3205 5.83747 27.2298 5.77714 27.13 5.73629C27.0301 5.69543 26.9231 5.67487 26.8152 5.67581C26.7074 5.67675 26.6008 5.69916 26.5016 5.74175C26.4025 5.78433 26.3128 5.84623 26.2379 5.92383L24.6129 7.54883C24.4606 7.70119 24.375 7.90782 24.375 8.12327C24.375 8.33871 24.4606 8.54534 24.6129 8.6977L26.2379 10.3227Z" fill="#FF7B02"/>
<path d="M12.7619 28.6756C12.6087 28.5276 12.4035 28.4457 12.1904 28.4475C11.9774 28.4494 11.7736 28.5348 11.623 28.6855C11.4723 28.8361 11.3869 29.0399 11.385 29.2529C11.3832 29.466 11.4651 29.6712 11.6131 29.8244L11.8511 30.0625H8.125C7.90951 30.0625 7.70285 29.9769 7.55048 29.8245C7.3981 29.6722 7.3125 29.4655 7.3125 29.25V26.8125C7.3125 26.597 7.2269 26.3903 7.07452 26.238C6.92215 26.0856 6.71549 26 6.5 26C6.28451 26 6.07785 26.0856 5.92548 26.238C5.7731 26.3903 5.6875 26.597 5.6875 26.8125V29.25C5.6875 29.8965 5.94431 30.5165 6.40143 30.9736C6.85855 31.4307 7.47853 31.6875 8.125 31.6875H11.8511L11.6131 31.9256C11.5355 32.0005 11.4736 32.0902 11.431 32.1893C11.3884 32.2884 11.366 32.395 11.365 32.5029C11.3641 32.6108 11.3847 32.7178 11.4255 32.8176C11.4664 32.9175 11.5267 33.0082 11.603 33.0845C11.6793 33.1608 11.77 33.2211 11.8698 33.262C11.9697 33.3028 12.0767 33.3234 12.1846 33.3225C12.2925 33.3215 12.3991 33.2991 12.4982 33.2565C12.5973 33.2139 12.687 33.152 12.7619 33.0744L14.3869 31.4494C14.5393 31.2971 14.6248 31.0904 14.6248 30.875C14.6248 30.6596 14.5393 30.4529 14.3869 30.3006L12.7619 28.6756Z" fill="#FF7B02"/>
</svg>
