<svg width="36" height="36" viewBox="0 0 36 36" fill="none" xmlns="http://www.w3.org/2000/svg">
<path d="M30.8358 21.6939C30.5088 21.5054 30.1476 21.3839 29.7731 21.3366C29.3987 21.2893 29.0186 21.317 28.655 21.4183L26.9292 18.2897C26.8807 18.2016 26.8094 18.1282 26.7228 18.0771C26.6363 18.0259 26.5376 17.9989 26.4371 17.9989H24.1871V16.3114H25.3121C25.4612 16.3114 25.6043 16.2521 25.7098 16.1466C25.8153 16.0411 25.8746 15.8981 25.8746 15.7489C25.8746 15.5997 25.8153 15.4566 25.7098 15.3511C25.6043 15.2456 25.4612 15.1864 25.3121 15.1864H24.1871V14.0614H25.8746C26.0237 14.0614 26.1668 14.0021 26.2723 13.8966C26.3778 13.7911 26.4371 13.6481 26.4371 13.4989V12.3429C26.5302 12.3584 26.6241 12.3687 26.7183 12.3739C27.2388 12.3749 27.747 12.215 28.1732 11.9162C28.5994 11.6174 28.923 11.1942 29.0995 10.7046C29.2761 10.2149 29.2971 9.68262 29.1596 9.18057C29.0221 8.67851 28.7329 8.23118 28.3316 7.89974L30.941 5.29031C31.0435 5.18422 31.1002 5.04213 31.0989 4.89464C31.0976 4.74716 31.0384 4.60608 30.9341 4.50178C30.8298 4.39749 30.6888 4.33833 30.5413 4.33705C30.3938 4.33577 30.2517 4.39247 30.1456 4.49493L27.2639 7.37662C27.085 7.33483 26.902 7.31295 26.7183 7.31137C26.1757 7.31185 25.6476 7.48669 25.2119 7.8101C24.7761 8.13352 24.4559 8.58839 24.2983 9.10764C24.1408 9.62689 24.1543 10.183 24.3368 10.694C24.5193 11.205 24.8612 11.6439 25.3121 11.9458V12.9364H24.1871C24.1852 12.439 24.0186 11.9563 23.7133 11.5636C23.4079 11.171 22.9811 10.8906 22.4996 10.7662V9.19124L25.0443 5.91862C25.5787 6.18279 26.1894 6.24927 26.7681 6.1063C27.3468 5.96332 27.8563 5.6201 28.2062 5.13746C28.5561 4.65482 28.7239 4.06391 28.6798 3.46941C28.6357 2.8749 28.3826 2.31519 27.9654 1.88943C27.59 1.5005 27.0985 1.2439 26.5647 1.15818C26.5406 1.15199 26.5158 1.14693 26.4911 1.14299C26.3799 1.12911 26.2679 1.12272 26.1558 1.12387C25.681 1.12323 25.2157 1.25631 24.813 1.50788C24.4103 1.75945 24.0867 2.11933 23.879 2.54631C23.6714 2.9733 23.5882 3.45012 23.639 3.92218C23.6898 4.39424 23.8725 4.84245 24.1662 5.21549L21.4927 8.65349C21.416 8.75229 21.3744 8.87381 21.3746 8.99887V10.6864H19.6871V8.38012C20.3228 8.25102 20.8944 7.90608 21.305 7.40376C21.7156 6.90144 21.9399 6.27263 21.9399 5.62387C21.9399 4.97511 21.7156 4.34629 21.305 3.84397C20.8944 3.34165 20.3228 2.99672 19.6871 2.86762V0.561369C19.6869 0.487961 19.6722 0.415313 19.6438 0.347634C19.6153 0.279956 19.5738 0.218595 19.5214 0.167109C19.4691 0.115622 19.4071 0.0750347 19.339 0.0476998C19.2708 0.0203648 19.198 0.006826 19.1246 0.00786843C18.9746 0.00964686 18.8313 0.0705597 18.726 0.177366C18.6207 0.284172 18.5617 0.428237 18.5621 0.578243V2.86762C17.9263 2.99672 17.3547 3.34165 16.9441 3.84397C16.5335 4.34629 16.3092 4.97511 16.3092 5.62387C16.3092 6.27263 16.5335 6.90144 16.9441 7.40376C17.3547 7.90608 17.9263 8.25102 18.5621 8.38012V10.6864H16.8746V9.56137C16.8746 9.46809 16.8514 9.37627 16.8071 9.29418L14.4333 4.88699C14.6722 4.65321 14.8619 4.37404 14.9913 4.0659C15.1208 3.75775 15.1873 3.42685 15.1871 3.09262C15.1864 2.63674 15.0628 2.18947 14.8294 1.79788C14.596 1.40629 14.2613 1.08484 13.8607 0.867369C13.5386 0.69223 13.1822 0.589533 12.8163 0.566455C12.4505 0.543377 12.084 0.600474 11.7425 0.733756C11.401 0.867038 11.0927 1.07329 10.8392 1.3381C10.5857 1.6029 10.393 1.91988 10.2747 2.26687C6.84349 4.59449 6.64718 8.21137 6.51049 10.8669C6.51034 11.694 6.41139 12.5181 6.21574 13.3217C5.67743 14.9411 3.62037 17.6136 2.76143 18.6874C2.48628 19.0328 2.31413 19.4489 2.26473 19.8878C2.21534 20.3267 2.29071 20.7706 2.48219 21.1686C2.67366 21.5666 2.97349 21.9025 3.34724 22.1378C3.72099 22.3731 4.15352 22.4983 4.59518 22.4989H6.16455C6.14543 23.8072 6.28268 26.8976 7.86949 28.611C8.22574 29.0012 8.66168 29.3104 9.14779 29.5175C9.6339 29.7246 10.1588 29.8248 10.6871 29.8114C11.9598 29.7654 13.2273 29.6242 14.4789 29.3889L13.3353 35.3301C13.3196 35.4114 13.3222 35.4953 13.3427 35.5756C13.3632 35.6559 13.4012 35.7307 13.454 35.7946C13.5067 35.8585 13.573 35.9099 13.648 35.9452C13.7229 35.9806 13.8048 35.9989 13.8877 35.9989H28.5633C28.6462 35.9989 28.728 35.9806 28.803 35.9452C28.878 35.9099 28.9442 35.8585 28.997 35.7946C29.0498 35.7307 29.0878 35.6559 29.1083 35.5756C29.1288 35.4953 29.1313 35.4114 29.1157 35.3301L28.9582 34.5144C28.4766 31.9949 28.5549 29.4003 29.1877 26.9145C29.2625 26.9207 29.3373 26.9314 29.4127 26.9314C30.0298 26.931 30.6297 26.7277 31.1199 26.3527C31.6101 25.9777 31.9633 25.4519 32.1252 24.8563C32.287 24.2608 32.2484 23.6285 32.0154 23.057C31.7824 22.4855 31.3679 22.0066 30.8358 21.6939ZM26.7183 8.43637C26.8876 8.43506 27.0555 8.46658 27.2127 8.52918H27.2161L27.2262 8.53368C27.5307 8.65322 27.7839 8.87514 27.9424 9.16124C28.1009 9.44734 28.1547 9.77974 28.0945 10.1012C28.0344 10.4227 27.8641 10.7132 27.6129 10.9226C27.3617 11.1321 27.0454 11.2475 26.7183 11.2489C26.5096 11.2503 26.3035 11.2035 26.1159 11.1122C25.828 10.975 25.5952 10.7441 25.4559 10.4573C25.3165 10.1705 25.2787 9.84484 25.3487 9.53374C25.4188 9.22264 25.5925 8.94459 25.8413 8.74519C26.0902 8.54579 26.3994 8.4369 26.7183 8.43637ZM26.1558 2.24887C26.1997 2.24887 26.2419 2.24887 26.2835 2.25449C26.3053 2.26008 26.3275 2.26421 26.3499 2.26687C26.6574 2.30626 26.9422 2.44955 27.1571 2.67299L27.161 2.67693C27.4186 2.93727 27.5627 3.2889 27.5621 3.65512C27.5621 4.02808 27.4139 4.38576 27.1502 4.64949C26.8864 4.91321 26.5288 5.06137 26.1558 5.06137C25.7833 5.05989 25.4265 4.91125 25.1631 4.64785C24.8997 4.38445 24.751 4.02762 24.7496 3.65512C24.7496 3.28216 24.8977 2.92447 25.1614 2.66075C25.4252 2.39703 25.7828 2.24887 26.1558 2.24887ZM17.4371 5.62387C17.4371 5.29011 17.536 4.96385 17.7214 4.68634C17.9069 4.40884 18.1704 4.19254 18.4788 4.06482C18.7871 3.9371 19.1264 3.90368 19.4538 3.96879C19.7811 4.03391 20.0818 4.19462 20.3178 4.43063C20.5538 4.66663 20.7145 4.96731 20.7796 5.29465C20.8447 5.622 20.8113 5.9613 20.6836 6.26965C20.5559 6.578 20.3396 6.84155 20.0621 7.02697C19.7846 7.2124 19.4583 7.31137 19.1246 7.31137C18.677 7.31137 18.2478 7.13358 17.9313 6.81711C17.6148 6.50064 17.4371 6.07142 17.4371 5.62387ZM23.0621 12.9364V18.5614C23.0621 18.8597 22.9435 19.1459 22.7325 19.3569C22.5216 19.5678 22.2354 19.6864 21.9371 19.6864H16.3121C16.0137 19.6864 15.7275 19.5678 15.5166 19.3569C15.3056 19.1459 15.1871 18.8597 15.1871 18.5614V12.9364C15.1871 12.638 15.3056 12.3519 15.5166 12.1409C15.7275 11.9299 16.0137 11.8114 16.3121 11.8114H21.9371C22.2354 11.8114 22.5216 11.9299 22.7325 12.1409C22.9435 12.3519 23.0621 12.638 23.0621 12.9364ZM12.6558 1.68637C12.8873 1.68623 13.1152 1.74426 13.3184 1.85512C13.5349 1.97097 13.7172 2.14158 13.8471 2.34992C13.977 2.55825 14.05 2.79703 14.0588 3.0424C14.0676 3.28777 14.0118 3.53115 13.8971 3.74823C13.7824 3.96531 13.6127 4.14849 13.4051 4.27949C13.1824 4.42481 12.9217 4.50113 12.6558 4.49887C12.2828 4.49887 11.9252 4.35071 11.6614 4.08699C11.3977 3.82326 11.2496 3.46558 11.2496 3.09262C11.2504 2.97861 11.2659 2.86518 11.2957 2.75512C11.3687 2.44974 11.5428 2.178 11.7897 1.98399C12.0366 1.78999 12.3418 1.68511 12.6558 1.68637ZM14.5683 34.8739L15.7389 28.7927C15.7563 28.702 15.7512 28.6083 15.7239 28.52C15.6965 28.4318 15.6479 28.3516 15.5822 28.2866C15.5165 28.2216 15.4359 28.1738 15.3473 28.1474C15.2588 28.1209 15.1651 28.1167 15.0746 28.1351C13.6276 28.4266 12.1611 28.6108 10.6871 28.6864C10.3142 28.6994 9.94302 28.6312 9.59917 28.4865C9.25533 28.3418 8.94708 28.124 8.6958 27.8482C7.02349 26.0426 7.30755 22.0196 7.31205 21.9791C7.31795 21.9017 7.30778 21.824 7.28216 21.7507C7.25655 21.6775 7.21605 21.6103 7.16321 21.5534C7.11038 21.4966 7.04636 21.4513 6.97517 21.4204C6.90398 21.3895 6.82716 21.3736 6.74955 21.3739H4.59518C4.36542 21.3735 4.1404 21.3085 3.94592 21.1861C3.75143 21.0638 3.59534 20.8892 3.49554 20.6822C3.39573 20.4753 3.35625 20.2444 3.38161 20.016C3.40697 19.7877 3.49615 19.5711 3.63893 19.3911C4.7538 17.9989 6.70962 15.4041 7.2828 13.6766C7.51593 12.7779 7.63388 11.8533 7.6338 10.9249C7.75418 8.58881 7.90887 5.74087 10.2157 3.72937C10.3009 4.06726 10.4556 4.3837 10.6699 4.6585C10.8842 4.9333 11.1534 5.16044 11.4603 5.32544C11.7673 5.49045 12.1052 5.5897 12.4526 5.61687C12.8001 5.64404 13.1493 5.59853 13.4782 5.48324L15.7496 9.70312V10.7662C15.268 10.8906 14.8412 11.171 14.5358 11.5636C14.2305 11.9563 14.0639 12.439 14.0621 12.9364H11.8121C11.6629 12.9364 11.5198 12.9956 11.4143 13.1011C11.3088 13.2066 11.2496 13.3497 11.2496 13.4989C11.2496 13.6481 11.3088 13.7911 11.4143 13.8966C11.5198 14.0021 11.6629 14.0614 11.8121 14.0614H14.0621V15.1864H10.6871C10.5379 15.1864 10.3948 15.2456 10.2893 15.3511C10.1838 15.4566 10.1246 15.5997 10.1246 15.7489C10.1246 15.8981 10.1838 16.0411 10.2893 16.1466C10.3948 16.2521 10.5379 16.3114 10.6871 16.3114H14.0621V17.4364H11.8121C11.6629 17.4364 11.5198 17.4956 11.4143 17.6011C11.3088 17.7066 11.2496 17.8497 11.2496 17.9989C11.2496 18.1481 11.3088 18.2911 11.4143 18.3966C11.5198 18.5021 11.6629 18.5614 11.8121 18.5614H14.0621C14.0621 19.1581 14.2991 19.7304 14.7211 20.1524C15.143 20.5743 15.7153 20.8114 16.3121 20.8114V22.4989C16.3121 22.6481 16.3713 22.7911 16.4768 22.8966C16.5823 23.0021 16.7254 23.0614 16.8746 23.0614C17.0237 23.0614 17.1668 23.0021 17.2723 22.8966C17.3778 22.7911 17.4371 22.6481 17.4371 22.4989V20.8114H18.5621V23.6239C18.5621 23.7731 18.6213 23.9161 18.7268 24.0216C18.8323 24.1271 18.9754 24.1864 19.1246 24.1864C19.2737 24.1864 19.4168 24.1271 19.5223 24.0216C19.6278 23.9161 19.6871 23.7731 19.6871 23.6239V20.8114H20.8121V22.4989C20.8121 22.6481 20.8713 22.7911 20.9768 22.8966C21.0823 23.0021 21.2254 23.0614 21.3746 23.0614C21.5237 23.0614 21.6668 23.0021 21.7723 22.8966C21.8778 22.7911 21.9371 22.6481 21.9371 22.4989V20.8114C22.4344 20.8095 22.9172 20.6429 23.3098 20.3376C23.7024 20.0323 23.9828 19.6055 24.1072 19.1239H26.1052L27.6532 21.9307C27.3244 22.1928 27.0589 22.5256 26.8766 22.9045C26.6943 23.2833 26.5998 23.6984 26.6002 24.1189C26.6034 24.6302 26.7452 25.1312 27.0106 25.5683C27.2759 26.0054 27.6549 26.3624 28.1071 26.6012C27.425 29.2581 27.3384 32.0328 27.8534 34.7271L27.8816 34.8739H14.5683ZM29.4127 25.8064C29.2496 25.8066 29.0875 25.7822 28.9317 25.7338C28.6086 25.6376 28.3217 25.4467 28.108 25.1859C27.8943 24.9251 27.7637 24.6062 27.733 24.2704C27.7022 23.9346 27.7728 23.5974 27.9355 23.3021C28.0982 23.0067 28.3457 22.767 28.646 22.6136C28.8841 22.4946 29.1465 22.4322 29.4127 22.4314C29.7125 22.4306 30.0069 22.5109 30.2649 22.6637C30.5841 22.8511 30.8329 23.1384 30.9728 23.4812C31.1127 23.8239 31.136 24.2032 31.0391 24.5605C30.9422 24.9178 30.7305 25.2334 30.4366 25.4585C30.1427 25.6836 29.7829 25.8059 29.4127 25.8064Z" fill="white"/>
<path d="M19.6875 13.5C19.6875 13.3508 19.6282 13.2077 19.5227 13.1023C19.4173 12.9968 19.2742 12.9375 19.125 12.9375H16.875C16.7258 12.9375 16.5827 12.9968 16.4773 13.1023C16.3718 13.2077 16.3125 13.3508 16.3125 13.5V18C16.3125 18.1492 16.3718 18.2923 16.4773 18.3977C16.5827 18.5032 16.7258 18.5625 16.875 18.5625C17.0242 18.5625 17.1673 18.5032 17.2727 18.3977C17.3782 18.2923 17.4375 18.1492 17.4375 18V14.0625H19.125C19.2742 14.0625 19.4173 14.0032 19.5227 13.8977C19.6282 13.7923 19.6875 13.6492 19.6875 13.5Z" fill="#FF7B02"/>
<path d="M21.375 12.9375C21.2258 12.9375 21.0827 12.9968 20.9773 13.1023C20.8718 13.2077 20.8125 13.3508 20.8125 13.5V17.4375H19.125C18.9758 17.4375 18.8327 17.4968 18.7273 17.6023C18.6218 17.7077 18.5625 17.8508 18.5625 18C18.5625 18.1492 18.6218 18.2923 18.7273 18.3977C18.8327 18.5032 18.9758 18.5625 19.125 18.5625H21.375C21.5242 18.5625 21.6673 18.5032 21.7727 18.3977C21.8782 18.2923 21.9375 18.1492 21.9375 18V13.5C21.9375 13.3508 21.8782 13.2077 21.7727 13.1023C21.6673 12.9968 21.5242 12.9375 21.375 12.9375Z" fill="#FF7B02"/>
<path d="M33.5616 13.6745C33.2255 13.3388 32.8014 13.105 32.3381 13.0001C31.8748 12.8952 31.3913 12.9235 30.9434 13.0817C30.4955 13.24 30.1016 13.5217 29.807 13.8943C29.5124 14.2669 29.3293 14.7153 29.2787 15.1876H28.125V14.8434L33.0188 9.47486C33.1122 9.36352 33.1589 9.22035 33.1491 9.07533C33.1393 8.93032 33.0737 8.79474 32.9662 8.69699C32.8586 8.59924 32.7174 8.54693 32.5721 8.551C32.4268 8.55508 32.2887 8.61524 32.1868 8.71886L27.1468 14.2482C27.0528 14.3513 27.0005 14.4856 27 14.6251V15.7501C27 15.8993 27.0593 16.0424 27.1648 16.1479C27.2702 16.2533 27.4133 16.3126 27.5625 16.3126H29.4002C29.5755 16.8045 29.8981 17.2305 30.3242 17.5324C30.7503 17.8344 31.259 17.9977 31.7812 18.0001C32.1482 18.0006 32.5107 17.9197 32.8427 17.7633C33.281 17.5608 33.6522 17.2373 33.9127 16.8307C34.1731 16.4242 34.3118 15.9517 34.3125 15.4689C34.3134 15.1348 34.2474 14.8039 34.1184 14.4958C33.9894 14.1876 33.8001 13.9084 33.5616 13.6745ZM32.3663 16.7446C32.1835 16.8314 31.9836 16.876 31.7812 16.8751C31.4397 16.8725 31.1106 16.7467 30.8545 16.5208C30.5984 16.2949 30.4325 15.984 30.3874 15.6455C30.3778 15.5871 30.3737 15.528 30.375 15.4689C30.375 15.0959 30.5232 14.7382 30.7869 14.4745C31.0506 14.2108 31.4083 14.0626 31.7812 14.0626C31.9645 14.0621 32.146 14.0981 32.3153 14.1683C32.4845 14.2384 32.6382 14.3415 32.7673 14.4715H32.7701C32.9028 14.6015 33.0081 14.7566 33.0798 14.9279C33.1515 15.0992 33.1881 15.2832 33.1875 15.4689C33.1869 15.7378 33.1092 16.0009 32.9637 16.227C32.8181 16.4531 32.6108 16.6327 32.3663 16.7446Z" fill="white"/>
<path d="M22.1023 3.21051C22.2084 3.31297 22.3505 3.36967 22.498 3.36839C22.6455 3.3671 22.7866 3.30795 22.8908 3.20366C22.9951 3.09936 23.0543 2.95828 23.0556 2.8108C23.0569 2.66331 23.0002 2.52122 22.8977 2.41513L21.9375 1.45494V0.590945C21.9368 0.44176 21.8768 0.298983 21.7708 0.194021C21.6647 0.089059 21.5214 0.0305111 21.3722 0.031257C21.223 0.032003 21.0802 0.0919815 20.9753 0.197998C20.8703 0.304015 20.8118 0.447385 20.8125 0.59657V1.68782C20.8125 1.83699 20.8718 1.98004 20.9773 2.08551L22.1023 3.21051Z" fill="white"/>
<path d="M16.875 2.81282C17.0242 2.81282 17.1673 2.75356 17.2728 2.64807C17.3782 2.54258 17.4375 2.3995 17.4375 2.25032V0.73157C17.4368 0.582385 17.3768 0.439608 17.2708 0.334646C17.1647 0.229684 17.0214 0.171136 16.8722 0.171882C16.723 0.172628 16.5802 0.232607 16.4753 0.338623C16.3703 0.44464 16.3118 0.58801 16.3125 0.737195V2.25032C16.3125 2.3995 16.3718 2.54258 16.4773 2.64807C16.5827 2.75356 16.7258 2.81282 16.875 2.81282Z" fill="white"/>
<path d="M29.9772 8.8346C30.0827 8.94005 30.2257 8.99929 30.3749 8.99929C30.524 8.99929 30.6671 8.94005 30.7726 8.8346L32.2182 7.38897C32.2719 7.33709 32.3148 7.27502 32.3442 7.20639C32.3737 7.13776 32.3892 7.06395 32.3899 6.98926C32.3905 6.91457 32.3763 6.8405 32.348 6.77138C32.3197 6.70225 32.278 6.63944 32.2252 6.58663C32.1723 6.53381 32.1095 6.49205 32.0404 6.46376C31.9713 6.43548 31.8972 6.42125 31.8225 6.4219C31.7478 6.42255 31.674 6.43806 31.6054 6.46754C31.5368 6.49702 31.4747 6.53987 31.4228 6.5936L29.9772 8.03922C29.8717 8.14471 29.8125 8.28776 29.8125 8.43691C29.8125 8.58607 29.8717 8.72912 29.9772 8.8346Z" fill="white"/>
<path d="M31.77 19.125H30.0938L28.575 17.1C28.4855 16.9807 28.3522 16.9018 28.2046 16.8807C28.0569 16.8596 27.9068 16.898 27.7875 16.9875C27.6682 17.077 27.5893 17.2103 27.5682 17.358C27.5471 17.5056 27.5855 17.6557 27.675 17.775L29.3625 20.025C29.4149 20.0949 29.4828 20.1516 29.5609 20.1906C29.6391 20.2297 29.7252 20.25 29.8125 20.25H31.77C31.9192 20.25 32.0623 20.1907 32.1677 20.0853C32.2732 19.9798 32.3325 19.8367 32.3325 19.6875C32.3325 19.5383 32.2732 19.3952 32.1677 19.2898C32.0623 19.1843 31.9192 19.125 31.77 19.125Z" fill="white"/>
<path d="M26.3504 28.5147C26.2064 28.4767 26.0533 28.4974 25.9245 28.5722C25.7958 28.6469 25.7019 28.7697 25.6635 28.9135C25.321 30.2954 25.2872 31.7358 25.5645 33.1322C25.5944 33.2546 25.6644 33.3634 25.7635 33.4412C25.8625 33.519 25.9848 33.5614 26.1107 33.5614C26.1558 33.5614 26.2007 33.5561 26.2446 33.5457C26.3164 33.5282 26.3841 33.4967 26.4437 33.4531C26.5034 33.4095 26.5539 33.3545 26.5923 33.2913C26.6307 33.2282 26.6562 33.1581 26.6675 33.085C26.6788 33.012 26.6756 32.9374 26.658 32.8656C26.4269 31.6511 26.4585 30.4011 26.7508 29.1998C26.7882 29.0558 26.7671 28.903 26.692 28.7746C26.617 28.6462 26.4941 28.5527 26.3504 28.5147Z" fill="white"/>
</svg>
