<svg width="38" height="33" viewBox="0 0 38 33" fill="none" xmlns="http://www.w3.org/2000/svg">
<path d="M35.1346 0H9.41126C9.06618 0 8.78386 0.28233 8.78386 0.627404C8.78386 0.972478 9.06618 1.25481 9.41126 1.25481H35.1346C35.8248 1.25481 36.3894 1.81945 36.3894 2.50962V3.76442H1.25481V2.50962C1.25481 1.81945 1.81945 1.25481 2.50962 1.25481H6.90164C7.24672 1.25481 7.52905 0.972478 7.52905 0.627404C7.52905 0.28233 7.24672 0 6.90164 0H2.50962C1.12306 0 0 1.12306 0 2.50962V30.1154C0 31.5019 1.12306 32.625 2.50962 32.625H26.9786C27.3236 32.625 27.606 32.3427 27.606 31.9976C27.606 31.6525 27.3236 31.3702 26.9786 31.3702H13.8033V5.01923H36.3898V30.1154C36.3898 30.8055 35.8252 31.3702 35.135 31.3702H29.4886C29.1435 31.3702 28.8612 31.6525 28.8612 31.9976C28.8612 32.3427 29.1435 32.625 29.4886 32.625H35.135C36.5216 32.625 37.6446 31.5019 37.6446 30.1154V2.50962C37.6446 1.12306 36.5212 0 35.1346 0ZM12.5481 31.3702H2.50962C1.81945 31.3702 1.25481 30.8055 1.25481 30.1154V5.01923H12.5481V31.3702Z" fill="white"/>
<path d="M3.76803 8.78606H10.0421C10.3871 8.78606 10.6695 8.50373 10.6695 8.15865C10.6695 7.81358 10.3871 7.53125 10.0421 7.53125H3.76803C3.42295 7.53125 3.14062 7.81358 3.14062 8.15865C3.14062 8.50373 3.42295 8.78606 3.76803 8.78606Z" fill="#FF7B02"/>
<path d="M3.76803 12.5517H10.0421C10.3871 12.5517 10.6695 12.2694 10.6695 11.9243C10.6695 11.5792 10.3871 11.2969 10.0421 11.2969H3.76803C3.42295 11.2969 3.14062 11.5792 3.14062 11.9243C3.14062 12.2694 3.42295 12.5517 3.76803 12.5517Z" fill="#FF7B02"/>
<path d="M3.76803 16.3095H10.0421C10.3871 16.3095 10.6695 16.0272 10.6695 15.6821C10.6695 15.337 10.3871 15.0547 10.0421 15.0547H3.76803C3.42295 15.0547 3.14062 15.337 3.14062 15.6821C3.14062 16.0272 3.42295 16.3095 3.76803 16.3095Z" fill="#FF7B02"/>
<path d="M3.76803 20.0751H10.0421C10.3871 20.0751 10.6695 19.7928 10.6695 19.4477C10.6695 19.1026 10.3871 18.8203 10.0421 18.8203H3.76803C3.42295 18.8203 3.14062 19.1026 3.14062 19.4477C3.14062 19.7928 3.42295 20.0751 3.76803 20.0751Z" fill="#FF7B02"/>
<path d="M3.76803 23.8407H10.0421C10.3871 23.8407 10.6695 23.5584 10.6695 23.2133C10.6695 22.8683 10.3871 22.5859 10.0421 22.5859H3.76803C3.42295 22.5859 3.14062 22.8683 3.14062 23.2133C3.14062 23.5584 3.42295 23.8407 3.76803 23.8407Z" fill="#FF7B02"/>
<path d="M30.4229 25.2922L32.1984 23.5166C32.6878 23.0272 32.6878 22.2304 32.1984 21.741L31.4204 20.9631C31.4581 20.8752 31.4957 20.7874 31.5271 20.6995H32.6251C33.3152 20.6995 33.8799 20.1349 33.8799 19.4447V16.9351C33.8799 16.245 33.3152 15.6803 32.6251 15.6803H31.5271C31.4894 15.5925 31.4581 15.5046 31.4204 15.4168L32.1984 14.6388C32.6878 14.1494 32.6878 13.3527 32.1984 12.8633L30.4229 11.0877C29.9335 10.5983 29.1367 10.5983 28.6473 11.0877L27.8693 11.8657C27.7815 11.828 27.6936 11.7904 27.6058 11.759V10.6611C27.6058 9.97089 27.0412 9.40625 26.351 9.40625H23.8414C23.1512 9.40625 22.5866 9.97089 22.5866 10.6611V11.759C22.4987 11.7904 22.4109 11.828 22.3231 11.8657L21.5451 11.0877C21.0557 10.5983 20.2589 10.5983 19.7695 11.0877L17.994 12.8633C17.5046 13.3527 17.5046 14.1494 17.994 14.6388L18.7719 15.4168C18.7343 15.5046 18.6966 15.5925 18.6653 15.6803H17.5673C16.8771 15.6803 16.3125 16.245 16.3125 16.9351V19.4447C16.3125 20.1349 16.8771 20.6995 17.5673 20.6995H18.6653C18.7029 20.7874 18.7343 20.8752 18.7719 20.9631L17.994 21.741C17.5046 22.2304 17.5046 23.0272 17.994 23.5166L19.7695 25.2922C20.2589 25.7816 21.0557 25.7816 21.5451 25.2922L22.3231 24.5142C22.4109 24.5518 22.4987 24.5895 22.5866 24.6208V25.7188C22.5866 26.409 23.1512 26.9736 23.8414 26.9736H26.351C27.0412 26.9736 27.6058 26.409 27.6058 25.7188V24.6208C27.6936 24.5895 27.7815 24.5518 27.8693 24.5142L28.6473 25.2922C29.1367 25.7816 29.9335 25.7816 30.4229 25.2922ZM28.4403 23.3096C28.2458 23.1151 27.9509 23.0712 27.7062 23.1966C27.405 23.3535 27.0976 23.4852 26.7902 23.5793C26.5267 23.6609 26.351 23.9056 26.351 24.1754V25.7188H23.8414V24.1754C23.8414 23.8993 23.6657 23.6609 23.4022 23.5793C23.101 23.4852 22.7936 23.3535 22.4862 23.1966C22.3921 23.1464 22.2917 23.1276 22.1976 23.1276C22.0345 23.1276 21.8713 23.1904 21.7521 23.3096L20.6604 24.4013L18.8849 22.6257L19.9766 21.534C20.1711 21.3395 20.215 21.0446 20.0895 20.7999C19.9327 20.4988 19.8009 20.1914 19.7068 19.884C19.6252 19.6204 19.3805 19.4448 19.1107 19.4448H17.5673V16.9351H19.1107C19.3868 16.9351 19.6252 16.7595 19.7068 16.4959C19.8009 16.1885 19.9327 15.8811 20.0895 15.5799C20.215 15.3353 20.1711 15.0404 19.9766 14.8459L18.8849 13.7542L20.6604 11.9786L21.7521 13.0703C21.9466 13.2648 22.2415 13.3087 22.4862 13.1833C22.7873 13.0264 23.0948 12.8947 23.4022 12.8006C23.6657 12.719 23.8414 12.4743 23.8414 12.2045V10.6611H26.351V12.2045C26.351 12.4806 26.5267 12.719 26.7902 12.8006C27.0913 12.8947 27.3988 13.0264 27.7062 13.1833C27.9509 13.3087 28.2458 13.2648 28.4402 13.0703L29.5319 11.9786L31.3075 13.7542L30.2158 14.8459C30.0213 15.0404 29.9774 15.3353 30.1029 15.5799C30.2597 15.8811 30.3915 16.1885 30.4856 16.4959C30.5671 16.7594 30.8118 16.9351 31.0816 16.9351H32.6251V19.4448H31.0816C30.8056 19.4448 30.5672 19.6204 30.4856 19.884C30.3915 20.1914 30.2597 20.4988 30.1029 20.7999C29.9774 21.0446 30.0213 21.3395 30.2158 21.534L31.3075 22.6257L29.5319 24.4013L28.4403 23.3096Z" fill="#FF7B02"/>
<path d="M25.1004 14.4297C24.6298 14.4297 24.1655 14.5175 23.7263 14.6869C23.4001 14.8124 23.2432 15.1763 23.3687 15.4963C23.4942 15.8225 23.8581 15.9794 24.1781 15.8539C24.4729 15.741 24.7804 15.6845 25.1003 15.6845C26.4869 15.6845 27.61 16.8075 27.61 18.1941C27.61 19.5807 26.4869 20.7037 25.1003 20.7037C23.7138 20.7037 22.5907 19.5807 22.5907 18.1941C22.5907 17.8741 22.6472 17.5667 22.7601 17.2718C22.8856 16.9456 22.7225 16.5879 22.4025 16.4625C22.0825 16.337 21.7187 16.5001 21.5932 16.8201C21.4238 17.2593 21.3359 17.7235 21.3359 18.1941C21.3359 20.2708 23.0236 21.9585 25.1004 21.9585C27.1771 21.9585 28.8648 20.2708 28.8648 18.1941C28.8648 16.1174 27.1771 14.4297 25.1004 14.4297Z" fill="#FF7B02"/>
</svg>
