<svg width="34" height="32" viewBox="0 0 34 32" fill="none" xmlns="http://www.w3.org/2000/svg">
<path d="M33.1534 19.7131C33.2993 19.7131 33.4187 19.5937 33.4187 19.4478V1.24393C33.4187 0.558329 32.8604 0 32.1747 0H1.24393C0.558329 0 0 0.558295 0 1.24393V24.5192C0 25.2048 0.558295 25.7631 1.24393 25.7631H19.5687L20.9386 29.4856H12.4792L13.5096 26.6848C13.56 26.5469 13.4897 26.3944 13.3518 26.344C13.2139 26.2936 13.0613 26.3639 13.011 26.5018L11.9129 29.4857H11.4567C10.7631 29.4857 10.1995 30.0493 10.1995 30.7428C10.1995 31.4364 10.7631 32 11.4567 32H21.9599C22.6535 32 23.2171 31.4364 23.2171 30.7428C23.2171 30.0493 22.6535 29.4857 21.9599 29.4857H21.5037L20.1338 25.7631H32.1739C32.8595 25.7631 33.4178 25.2048 33.4178 24.5192V20.5091C33.4178 20.3632 33.2984 20.2439 33.1526 20.2439C33.0067 20.2439 32.8873 20.3632 32.8873 20.5091V21.8313H31.7177L31.719 1.9669C31.719 1.89396 31.6885 1.82765 31.6408 1.77858C31.593 1.73084 31.5267 1.70034 31.4525 1.70034H1.96688C1.89395 1.70034 1.82764 1.73084 1.77857 1.77858C1.73083 1.82632 1.70033 1.89263 1.70033 1.9669V21.8313H0.530676V1.24412C0.530676 0.850238 0.851601 0.53064 1.24415 0.53064H32.1736C32.5675 0.53064 32.8871 0.851565 32.8871 1.24412V19.448C32.8871 19.5939 33.0064 19.7133 33.1523 19.7133L33.1534 19.7131ZM22.6876 30.7425C22.6876 31.143 22.3613 31.4692 21.9608 31.4692H11.4576C11.0571 31.4692 10.7309 31.143 10.7309 30.7425C10.7309 30.342 11.0572 30.0158 11.4576 30.0158H21.9608C22.3613 30.0158 22.6876 30.342 22.6876 30.7425ZM2.2318 2.23194H4.53665V3.96919H2.2318V2.23194ZM5.06711 2.23194H31.188V3.96919H5.06711V2.23194ZM2.23048 4.49965H31.1881V21.8311H2.23048V4.49965ZM32.8883 22.3613V24.519C32.8883 24.9129 32.5674 25.2325 32.1748 25.2325H1.24405C0.850173 25.2325 0.530575 24.9115 0.530575 24.519V22.3613H32.8883Z" fill="white"/>
<path d="M23.0667 13.0167V9.55289C23.0667 9.43752 22.9924 9.3354 22.8824 9.30092C20.7711 8.62326 18.819 7.56632 17.0791 6.15797L16.8788 5.99618C16.782 5.91794 16.6428 5.91794 16.5447 5.99618L16.3444 6.15797C14.6045 7.56632 12.6524 8.62326 10.5411 9.30092C10.4311 9.33673 10.3568 9.43884 10.3568 9.55289V13.0167V13.0207C10.3568 13.022 10.3555 13.0234 10.3555 13.0247C10.3581 15.4953 11.6776 17.7962 13.8006 19.0283C13.9584 19.1198 14.1202 19.2086 14.2834 19.2988C14.5035 19.4195 14.7276 19.5415 14.961 19.6661C14.9769 19.6741 14.9928 19.6834 15.0088 19.6913C15.2621 19.8266 15.5193 19.9658 15.7832 20.1117C16.0418 20.2549 16.3057 20.4048 16.5749 20.5652C16.6173 20.5904 16.6638 20.6024 16.7102 20.6024C16.7566 20.6024 16.8043 20.5904 16.8454 20.5652C17.116 20.4035 17.3785 20.2549 17.6371 20.1117C17.8997 19.9658 18.1583 19.8279 18.4116 19.6913C18.4275 19.6834 18.4434 19.6741 18.4593 19.6661C18.7007 19.5375 18.9314 19.4115 19.1569 19.2868C19.3134 19.2006 19.4685 19.1145 19.6184 19.0282C21.7402 17.7963 23.0612 15.4955 23.0636 13.0247C23.0636 13.0233 23.0622 13.022 23.0622 13.0207V13.0167L23.0667 13.0167ZM22.5362 9.74514V12.7581H19.5564C19.3297 11.4917 18.278 10.509 16.9771 10.391V6.74923C18.6573 8.06741 20.5244 9.07678 22.5362 9.74514ZM22.523 13.3828C22.5203 13.4358 22.515 13.4876 22.5111 13.5393C22.5044 13.6255 22.4965 13.7117 22.4859 13.7966C22.4792 13.8496 22.4713 13.9026 22.4646 13.9544C22.4527 14.0379 22.4381 14.1215 22.4235 14.205C22.4129 14.2581 22.4023 14.3111 22.3917 14.3628C22.3745 14.445 22.3546 14.5259 22.3347 14.6068C22.3214 14.6599 22.3068 14.7116 22.2922 14.7646C22.2697 14.8442 22.2458 14.9224 22.2206 15.002C22.2034 15.0537 22.1861 15.1055 22.1689 15.1572C22.1411 15.2341 22.1119 15.311 22.0827 15.3879C22.0628 15.4383 22.0429 15.4887 22.0204 15.5391C21.9886 15.6147 21.9541 15.689 21.9196 15.7632C21.897 15.8123 21.8732 15.8614 21.8493 15.9104C21.8122 15.9834 21.7737 16.0563 21.7339 16.1279C21.7074 16.1756 21.6822 16.2221 21.6544 16.2685C21.6133 16.3401 21.5682 16.4104 21.5244 16.4793C21.4952 16.5244 21.4674 16.5695 21.4382 16.6133C21.3918 16.6836 21.3427 16.7512 21.2923 16.8188C21.2618 16.8613 21.2326 16.9024 21.2008 16.9435C21.1478 17.0124 21.0934 17.0788 21.0377 17.1451C21.0059 17.1835 20.9754 17.222 20.9422 17.2591C20.8839 17.3267 20.8215 17.3917 20.7592 17.4567C20.7274 17.4899 20.6956 17.5257 20.6637 17.5575C20.5974 17.6251 20.5271 17.6888 20.4582 17.7524C20.4277 17.7803 20.3972 17.8108 20.3667 17.8386C20.2884 17.9076 20.2089 17.9726 20.1266 18.0376C20.1001 18.0588 20.0763 18.08 20.0497 18.1012C19.9516 18.1768 19.8508 18.2497 19.7487 18.3187C19.7368 18.3267 19.7262 18.3346 19.7155 18.3426C19.6002 18.4208 19.4808 18.4951 19.3588 18.5667C19.2023 18.6582 19.0405 18.747 18.8774 18.8372C18.6626 18.9552 18.4424 19.0746 18.213 19.1966C18.1242 19.2443 18.034 19.2934 17.9438 19.3412C17.8125 19.4114 17.6812 19.483 17.5473 19.556C17.3616 19.6581 17.172 19.7642 16.9797 19.8729V16.1453C18.4437 16.0114 19.5962 14.782 19.6055 13.2861H22.5296C22.5283 13.318 22.5283 13.3485 22.527 13.3803L22.523 13.3828ZM15.4626 19.3317C15.379 19.2866 15.2955 19.2415 15.2133 19.1978C14.9891 19.0784 14.7743 18.9617 14.5648 18.8463C14.3963 18.7535 14.2292 18.6607 14.0688 18.5679C13.9468 18.4976 13.8274 18.422 13.7121 18.3437C13.7028 18.3371 13.6948 18.3305 13.6855 18.3238C13.5808 18.2522 13.4773 18.178 13.3779 18.101C13.3527 18.0812 13.3275 18.0599 13.3023 18.0387C13.2201 17.9737 13.1392 17.9074 13.0609 17.8385C13.0304 17.8106 12.9999 17.7815 12.9694 17.7536C12.8991 17.6899 12.8302 17.625 12.7625 17.5573C12.7294 17.5242 12.6989 17.4897 12.6671 17.4552C12.6047 17.3902 12.5437 17.3253 12.4854 17.2576C12.4522 17.2205 12.4217 17.182 12.3899 17.1436C12.3342 17.0773 12.2798 17.011 12.2268 16.9433C12.1949 16.9022 12.1658 16.8598 12.1353 16.8174C12.0862 16.7497 12.0371 16.6821 11.9894 16.6118C11.9602 16.568 11.931 16.5216 11.9032 16.4779C11.8594 16.4089 11.8143 16.3386 11.7732 16.267C11.7454 16.2206 11.7202 16.1728 11.6937 16.1251C11.6539 16.0535 11.6154 15.9819 11.5783 15.9076C11.5544 15.8586 11.5305 15.8095 11.508 15.7604C11.4735 15.6862 11.439 15.6119 11.4072 15.5363C11.386 15.4859 11.3661 15.4355 11.3462 15.3851C11.3157 15.3095 11.2865 15.2326 11.26 15.1544C11.2414 15.1027 11.2242 15.0509 11.2083 14.9992C11.1831 14.921 11.1592 14.8414 11.1367 14.7618C11.1221 14.7101 11.1075 14.6571 11.0942 14.604C11.073 14.5231 11.0545 14.4422 11.0372 14.36C11.0253 14.307 11.0147 14.2553 11.0054 14.2022C10.9895 14.1187 10.9762 14.0351 10.9643 13.9516C10.9563 13.8985 10.9484 13.8468 10.9431 13.7938C10.9325 13.7089 10.9245 13.6227 10.9179 13.5365C10.9139 13.4848 10.9086 13.4317 10.9059 13.38C10.9046 13.3482 10.9046 13.3177 10.9033 13.2858H13.8274C13.838 14.7817 14.9891 16.011 16.4532 16.145V19.8726C16.2662 19.7652 16.0805 19.6618 15.9002 19.5623C15.7543 19.4828 15.6111 19.4045 15.4692 19.3289L15.4626 19.3317ZM16.7118 10.9069C18.0141 10.9069 19.0736 11.9665 19.0736 13.2687C19.0736 14.571 18.0141 15.6306 16.7131 15.6306C15.4109 15.6306 14.3526 14.571 14.3526 13.2687C14.3526 11.9665 15.4122 10.9069 16.7144 10.9069H16.7118ZM16.4466 6.74946V10.3912C15.147 10.5105 14.0953 11.4932 13.8672 12.7584H10.8874V9.74538C12.8991 9.07699 14.7651 8.06764 16.4466 6.74946Z" fill="#FF7B02"/>
<path d="M16.3988 14.1438C16.4506 14.1955 16.5182 14.222 16.5858 14.222C16.6535 14.222 16.7211 14.1955 16.7728 14.1438L17.9637 12.9529C18.0671 12.8494 18.0671 12.681 17.9637 12.5776C17.8602 12.4741 17.6918 12.4741 17.5884 12.5776L16.5845 13.5815L15.9334 12.9303C15.8299 12.8269 15.6615 12.8269 15.558 12.9303C15.4546 13.0338 15.4546 13.2022 15.558 13.3056L16.3975 14.1451L16.3988 14.1438Z" fill="#FF7B02"/>
<path d="M24.5127 9.23503H26.8149C26.9607 9.23503 27.0801 9.11568 27.0801 8.9698V7.61713C27.5336 7.49778 27.8718 7.088 27.8718 6.59733C27.8718 6.01381 27.397 5.53906 26.8135 5.53906C26.23 5.53906 25.7553 6.01381 25.7553 6.59733C25.7553 7.08932 26.0934 7.49909 26.5483 7.61713V8.70323H24.5113C24.3654 8.70323 24.2461 8.82258 24.2461 8.96846C24.2461 9.11434 24.3654 9.23369 24.5113 9.23369L24.5127 9.23503ZM26.2871 6.59734C26.2871 6.30692 26.5231 6.06954 26.8149 6.06954C27.1053 6.06954 27.3427 6.30559 27.3427 6.59734C27.3427 6.88644 27.108 7.12118 26.8202 7.12383C26.8189 7.12383 26.8175 7.1225 26.8162 7.1225C26.8149 7.1225 26.8136 7.12383 26.8122 7.12383C26.5231 7.1225 26.2884 6.88645 26.2884 6.59734H26.2871Z" fill="#FF7B02"/>
<path d="M27.0844 18.6726V17.3199C27.0844 17.174 26.9651 17.0547 26.8192 17.0547H23.6285C23.4826 17.0547 23.3633 17.174 23.3633 17.3199C23.3633 17.4658 23.4826 17.5851 23.6285 17.5851H26.554V18.6726C26.0991 18.7906 25.761 19.2017 25.761 19.6924C25.761 20.2759 26.2357 20.7506 26.8192 20.7506C27.4027 20.7506 27.8775 20.2759 27.8775 19.6924C27.8775 19.2017 27.5393 18.7919 27.0858 18.6726L27.0844 18.6726ZM26.8179 20.2202C26.5274 20.2202 26.2901 19.9841 26.2901 19.6924C26.2901 19.402 26.5261 19.1659 26.8165 19.1646H26.8192H26.8205C27.1096 19.1659 27.3457 19.402 27.3457 19.6911C27.3457 19.9815 27.1096 20.2189 26.8179 20.2189L26.8179 20.2202Z" fill="#FF7B02"/>
<path d="M24.5113 11.7376H27.6742C27.7922 12.1924 28.2033 12.5306 28.694 12.5306C29.2775 12.5306 29.7522 12.0558 29.7522 11.4723C29.7522 10.8888 29.2775 10.4141 28.694 10.4141C28.2033 10.4141 27.7935 10.7522 27.6742 11.2058H24.5113C24.3654 11.2058 24.2461 11.3251 24.2461 11.471C24.2461 11.6169 24.3654 11.7362 24.5113 11.7362V11.7376ZM28.6939 10.9459C28.9843 10.9459 29.2217 11.1819 29.2217 11.4737C29.2217 11.7641 28.9856 12.0015 28.6939 12.0015C28.4034 12.0015 28.1661 11.7654 28.1661 11.4737C28.1661 11.1833 28.4021 10.9459 28.6939 10.9459Z" fill="#FF7B02"/>
<path d="M28.694 13.7618C28.2033 13.7618 27.7922 14.0999 27.6742 14.5548H24.5113C24.3654 14.5548 24.2461 14.6741 24.2461 14.82C24.2461 14.9659 24.3654 15.0852 24.5113 15.0852H27.6742C27.7922 15.5401 28.2033 15.8782 28.694 15.8782C29.2775 15.8782 29.7522 15.4035 29.7522 14.82C29.7522 14.2365 29.2775 13.7618 28.694 13.7618ZM28.694 15.3478C28.4035 15.3478 28.1662 15.1118 28.1662 14.82C28.1662 14.5296 28.4022 14.2922 28.694 14.2922C28.9844 14.2922 29.2218 14.5283 29.2218 14.82C29.2218 15.1104 28.9857 15.3478 28.694 15.3478Z" fill="#FF7B02"/>
<path d="M6.33995 7.61969V8.97237C6.33995 9.11824 6.4593 9.23759 6.60517 9.23759H8.90734C9.05321 9.23759 9.17257 9.11824 9.17257 8.97237C9.17257 8.82649 9.05321 8.70714 8.90734 8.70714H6.87039V7.62103C7.32524 7.50301 7.66341 7.0919 7.66341 6.60123C7.66341 6.01771 7.18866 5.54297 6.60514 5.54297C6.02162 5.54297 5.54688 6.01771 5.54688 6.60123C5.54688 7.0919 5.88504 7.50167 6.33857 7.62103L6.33995 7.61969ZM6.6065 6.07341C6.89693 6.07341 7.13431 6.30946 7.13431 6.60122C7.13431 6.89164 6.89958 7.12638 6.61047 7.1277C6.60915 7.1277 6.60782 7.12637 6.60649 7.12637C6.60517 7.12637 6.60384 7.1277 6.60252 7.1277C6.31342 7.12505 6.08 6.89032 6.08 6.60122C6.08 6.31079 6.31606 6.07341 6.60781 6.07341H6.6065Z" fill="#FF7B02"/>
<path d="M9.79448 17.0547H6.6038C6.45792 17.0547 6.33857 17.174 6.33857 17.3199V18.6726C5.88504 18.7919 5.54688 19.2017 5.54688 19.6924C5.54688 20.2759 6.02162 20.7507 6.60514 20.7507C7.18866 20.7507 7.6634 20.2759 7.6634 19.6924C7.6634 19.2004 7.32524 18.7906 6.87039 18.6726V17.5852H9.79586C9.94173 17.5852 10.0611 17.4658 10.0611 17.3199C10.0611 17.1741 9.94173 17.0547 9.79586 17.0547L9.79448 17.0547ZM7.13157 19.6924C7.13157 19.9828 6.89552 20.2202 6.60377 20.2202C6.31334 20.2202 6.07596 19.9841 6.07596 19.6924C6.07596 19.4019 6.31069 19.1672 6.60112 19.1659H6.60244H6.6051C6.89552 19.1659 7.13158 19.4033 7.13158 19.6937L7.13157 19.6924Z" fill="#FF7B02"/>
<path d="M4.72623 12.5292C5.21823 12.5292 5.62799 12.1911 5.74603 11.7362H8.90888C9.05475 11.7362 9.17411 11.6169 9.17411 11.471C9.17411 11.3251 9.05475 11.2058 8.90888 11.2058H5.74603C5.62668 10.7509 5.2169 10.4141 4.72623 10.4141C4.14271 10.4141 3.66797 10.8888 3.66797 11.4723C3.66797 12.0558 4.14271 12.5306 4.72623 12.5306V12.5292ZM4.72623 10.9445C5.01666 10.9445 5.25404 11.1805 5.25404 11.4723C5.25404 11.7627 5.01799 12.0001 4.72623 12.0001C4.43581 12.0001 4.19843 11.7641 4.19843 11.4723C4.19843 11.1819 4.43448 10.9445 4.72623 10.9445Z" fill="#FF7B02"/>
<path d="M8.90888 15.0852C9.05475 15.0852 9.17411 14.9658 9.17411 14.82C9.17411 14.6741 9.05475 14.5547 8.90888 14.5547H5.74603C5.62801 14.0999 5.2169 13.7617 4.72623 13.7617C4.14271 13.7617 3.66797 14.2365 3.66797 14.82C3.66797 15.4035 4.14271 15.8782 4.72623 15.8782C5.2169 15.8782 5.62799 15.5401 5.74603 15.0852L8.90888 15.0852ZM4.72634 15.3478C4.43591 15.3478 4.19853 15.1117 4.19853 14.82C4.19853 14.5295 4.43458 14.2922 4.72634 14.2922C5.01676 14.2922 5.25414 14.5282 5.25414 14.82C5.25414 15.1104 5.01809 15.3478 4.72634 15.3478Z" fill="#FF7B02"/>
</svg>
