<svg width="35" height="35" viewBox="0 0 35 35" fill="none" xmlns="http://www.w3.org/2000/svg">
<path d="M15.5352 25.6862C14.7953 25.6862 14.1938 25.0853 14.1938 24.3454C14.1938 23.6055 14.7953 23.0046 15.5352 23.0046C16.275 23.0046 16.8765 23.6055 16.8765 24.3454C16.8765 25.0853 16.275 25.6862 15.5352 25.6862ZM15.5352 24.1337C15.4183 24.1337 15.3229 24.2285 15.3229 24.3454C15.3229 24.5792 15.7474 24.5792 15.7474 24.3454C15.7474 24.2285 15.652 24.1337 15.5352 24.1337ZM20.5776 25.6862C19.8377 25.6862 19.2367 25.0853 19.2367 24.3454C19.2367 23.6055 19.8377 23.0046 20.5776 23.0046C21.3174 23.0046 21.9184 23.6055 21.9184 24.3454C21.9184 25.0853 21.3174 25.6862 20.5776 25.6862ZM20.5776 24.1337C20.4607 24.1337 20.3659 24.2285 20.3659 24.3454C20.3659 24.5792 20.7893 24.5792 20.7893 24.3454C20.7893 24.2285 20.6944 24.1337 20.5776 24.1337ZM24.8007 12.8106C24.5504 12.4843 24.17 12.2974 23.7587 12.2974H10.9312L10.597 11.0475C10.4277 10.4129 9.85103 9.97022 9.19441 9.97022H8.35309C8.04104 9.97022 7.78853 10.2227 7.78853 10.5348C7.78853 10.8468 8.04104 11.0993 8.35309 11.0993H9.19441C9.34051 11.0993 9.46841 11.198 9.50645 11.3392L12.203 21.4212C12.4003 22.16 13.0724 22.676 13.8371 22.676H22.8876C23.1997 22.676 23.4522 22.4235 23.4522 22.1114C23.4522 21.7994 23.1997 21.5469 22.8876 21.5469H13.8371C13.5829 21.5469 13.3591 21.3749 13.2935 21.1301L13.0876 20.3604H14.9563H20.2832H21.5854C22.6075 20.3604 23.5062 19.6702 23.7708 18.6822L25.0289 13.9502C25.1348 13.5522 25.051 13.137 24.8007 12.8106ZM23.9053 13.4987C23.9263 13.5257 23.9583 13.5825 23.9373 13.6602L23.3777 15.7646H21.3947L21.7092 13.4265H23.7587C23.8381 13.4265 23.8844 13.4717 23.9053 13.4987ZM20.2561 15.7646H18.1815V13.4265H20.5709L20.2561 15.7646ZM17.0524 13.4265V15.7646H14.9798L14.663 13.4265H17.0524ZM13.5235 13.4265L13.8403 15.7646H11.8613L11.2349 13.4265H13.5235ZM13.9932 16.8937L14.3099 19.2313H12.7901L12.1638 16.8937H13.9932ZM15.1329 16.8937H17.0524V19.2313H15.4497L15.1329 16.8937ZM18.1815 19.2313V16.8937H20.104L19.7892 19.2313H18.1815ZM21.5854 19.2313H20.9283L21.2427 16.8937H23.0774L22.6792 18.3911C22.5469 18.8862 22.097 19.2313 21.5854 19.2313ZM9.56154 3.81933C9.56154 3.527 9.32499 3.29045 9.03265 3.29045H3.22501C2.93268 3.29045 2.69612 3.527 2.69612 3.81933C2.69612 4.11167 2.93267 4.34822 3.22501 4.34822H9.03265C9.32498 4.34822 9.56154 4.11167 9.56154 3.81933ZM25.5108 3.81927C25.5108 4.13106 25.258 4.38382 24.9462 4.38382C24.6344 4.38382 24.3816 4.13106 24.3816 3.81927C24.3816 3.50747 24.6344 3.25471 24.9462 3.25471C25.258 3.25472 25.5108 3.50748 25.5108 3.81927ZM27.2753 3.25472C26.9635 3.25472 26.7107 3.50748 26.7107 3.81928C26.7107 4.13107 26.9635 4.38383 27.2753 4.38383C27.5871 4.38383 27.8398 4.13107 27.8398 3.81928C27.8398 3.50748 27.5871 3.25472 27.2753 3.25472ZM29.6044 3.25472C29.2926 3.25472 29.0398 3.50748 29.0398 3.81928C29.0398 4.13107 29.2926 4.38383 29.6044 4.38383C29.9161 4.38383 30.1689 4.13107 30.1689 3.81928C30.1689 3.50748 29.9161 3.25472 29.6044 3.25472ZM34.5867 27.9246L32.8552 26.4648C32.8564 26.43 32.8617 26.3958 32.8617 26.361V4.30547C32.8617 2.61013 31.4781 1.22656 29.7828 1.22656H3.07891C1.3836 1.22656 0 2.61014 0 4.30547V26.361C0 28.0563 1.38361 29.4398 3.07891 29.4398H26.7793L26.7799 31.5545C26.7799 32.0099 27.0358 32.4124 27.4482 32.6053C27.8572 32.7961 28.3325 32.7365 28.682 32.4465L29.7394 31.5677L30.3283 32.8325C30.5102 33.2272 30.8366 33.5271 31.2445 33.676C31.4265 33.7422 31.6161 33.7752 31.8036 33.7752C32.0373 33.7752 32.2711 33.7245 32.4894 33.6231C32.8831 33.44 33.183 33.1136 33.3319 32.7057C33.4807 32.2966 33.462 31.8544 33.2778 31.4619L32.6901 30.1961L34.0431 29.9546C34.4907 29.8741 34.8414 29.551 34.9594 29.111C35.0773 28.6722 34.934 28.2168 34.5867 27.9246ZM1.12656 4.30547C1.12656 3.23358 2.00155 2.35859 3.07891 2.35859H29.7828C30.8601 2.35859 31.7352 3.23358 31.7352 4.30547V5.27889H1.12656V4.30547ZM26.7777 23.8349L26.779 28.3078H3.07891C2.00155 28.3078 1.12656 27.4328 1.12656 26.3609V6.41092H31.7352V25.5206L28.6842 22.9484C28.3347 22.6529 27.8605 22.5933 27.4482 22.7841C27.0347 22.9759 26.7777 23.3784 26.7777 23.8349ZM33.8435 28.8431L31.7694 29.2136C31.5974 29.2445 31.4485 29.3536 31.368 29.5091C31.2865 29.6646 31.2832 29.8487 31.357 30.0075L32.2546 31.9393C32.3108 32.0584 32.3163 32.194 32.2711 32.3186C32.2248 32.4432 32.1333 32.5436 32.0142 32.5998C31.8929 32.6549 31.7562 32.6616 31.6327 32.6152C31.507 32.57 31.4077 32.4785 31.3515 32.3572L30.454 30.4276C30.3801 30.2688 30.2367 30.153 30.0658 30.1144C30.025 30.1056 29.9831 30.1012 29.9423 30.1012C29.8122 30.1012 29.6843 30.1464 29.5817 30.2313L27.909 31.5545L27.9565 23.8106L33.8589 28.7869L33.8435 28.8431Z" fill="white"/>
<path d="M15.7466 25.6848C15.0068 25.6848 14.4053 25.0838 14.4053 24.3439C14.4053 23.6041 15.0068 23.0031 15.7466 23.0031C16.4865 23.0031 17.088 23.6041 17.088 24.3439C17.088 25.0838 16.4865 25.6848 15.7466 25.6848ZM15.7466 24.1322C15.6298 24.1322 15.5344 24.2271 15.5344 24.3439C15.5344 24.5777 15.9589 24.5777 15.9589 24.3439C15.9589 24.2271 15.8635 24.1322 15.7466 24.1322ZM20.789 25.6848C20.0491 25.6848 19.4482 25.0838 19.4482 24.3439C19.4482 23.6041 20.0492 23.0031 20.789 23.0031C21.5289 23.0031 22.1298 23.6041 22.1298 24.3439C22.1298 25.0838 21.5289 25.6848 20.789 25.6848ZM20.789 24.1322C20.6721 24.1322 20.5773 24.2271 20.5773 24.3439C20.5773 24.5777 21.0007 24.5777 21.0007 24.3439C21.0007 24.2271 20.9059 24.1322 20.789 24.1322ZM25.0122 12.8092C24.7619 12.4828 24.3814 12.2959 23.9702 12.2959H11.1427L10.8084 11.046C10.6392 10.4115 10.0625 9.96875 9.40587 9.96875H8.56456C8.25251 9.96875 8 10.2213 8 10.5333C8 10.8454 8.25251 11.0979 8.56456 11.0979H9.40587C9.55198 11.0979 9.67988 11.1966 9.71792 11.3377L12.4144 21.4197C12.6118 22.1585 13.2839 22.6745 14.0486 22.6745H23.0991C23.4111 22.6745 23.6636 22.422 23.6636 22.11C23.6636 21.7979 23.4111 21.5454 23.0991 21.5454H14.0486C13.7944 21.5454 13.5706 21.3734 13.505 21.1286L13.2991 20.359H15.1677H20.4946H21.7968C22.819 20.359 23.7177 19.6687 23.9823 18.6807L25.2404 13.9487C25.3463 13.5507 25.2625 13.1355 25.0122 12.8092ZM24.1168 13.4972C24.1378 13.5242 24.1697 13.581 24.1488 13.6588L23.5891 15.7631H21.6062L21.9207 13.425H23.9702C24.0495 13.425 24.0959 13.4702 24.1168 13.4972ZM20.4675 15.7632H18.393V13.425H20.7824L20.4675 15.7632ZM17.2639 13.425V15.7632H15.1913L14.8744 13.425H17.2639ZM13.7349 13.425L14.0517 15.7632H12.0728L11.4463 13.425H13.7349ZM14.2047 16.8923L14.5214 19.2299H13.0016L12.3753 16.8923H14.2047ZM15.3444 16.8923H17.2639V19.2299H15.6612L15.3444 16.8923ZM18.393 19.2299V16.8923H20.3154L20.0006 19.2299H18.393ZM21.7968 19.2299H21.1397L21.4542 16.8923H23.2889L22.8907 18.3897C22.7584 18.8847 22.3085 19.2299 21.7968 19.2299Z" fill="#FF7B02"/>
</svg>
