<svg width="29" height="36" viewBox="0 0 29 36" fill="none" xmlns="http://www.w3.org/2000/svg">
<path d="M4.45035 4.60156C4.24857 4.60376 4.05632 4.68725 3.91679 4.833C-0.89128 9.85444 -1.2573 17.6353 2.73359 23.0953V34.4999H1.0919C0.67772 34.4999 0.341911 34.8354 0.341911 35.2499C0.341911 35.6644 0.67772 35.9999 1.0919 35.9999H3.48357H17.4671H19.8587C20.2729 35.9999 20.6087 35.6644 20.6087 35.2499C20.6087 34.8354 20.2729 34.4999 19.8587 34.4999H17.8473L13.7173 28.86C13.8754 28.8651 14.0331 28.8823 14.1914 28.8823C17.7465 28.8823 21.3045 27.5772 24.0404 24.9574C24.1862 24.8175 24.2697 24.6256 24.2719 24.4234C24.2741 24.222 24.195 24.0279 24.0521 23.8851L15.0489 14.8817L19.5803 10.35C19.8887 10.4976 20.2204 10.5802 20.5556 10.5802C21.1353 10.5802 21.715 10.359 22.1567 9.91811C23.0385 9.03556 23.0385 7.60004 22.1563 6.71749C21.273 5.83347 19.8371 5.83347 18.9553 6.71749C18.2602 7.41259 18.1213 8.44734 18.5211 9.28815L13.9884 13.8212L4.98867 4.82128C4.84585 4.67847 4.6536 4.60376 4.45035 4.60156ZM20.0158 7.77802C20.1649 7.62934 20.3604 7.55463 20.556 7.55463C20.7512 7.55463 20.9467 7.62934 21.0954 7.77802C21.3931 8.07537 21.3931 8.56023 21.0958 8.85758C20.798 9.1543 20.3159 9.15444 20.018 8.859C20.0167 8.85772 20.0164 8.85594 20.0151 8.85465L20.013 8.85324C19.7191 8.55551 19.7194 8.07409 20.0158 7.77802ZM15.9883 34.4999H4.23356V24.844C6.34413 26.9117 8.9667 28.1821 11.7112 28.659L15.9883 34.4999ZM22.4332 24.3876C17.4425 28.615 9.86285 28.3623 5.18679 23.6866C0.510365 19.0102 0.257684 11.4305 4.48661 6.44064L22.4332 24.3876Z" fill="white"/>
<path d="M20.5512 0C15.9653 0 12.2344 3.73088 12.2344 8.31722C12.2344 8.73176 12.5702 9.06721 12.9844 9.06721C13.3985 9.06721 13.7343 8.73176 13.7343 8.31722C13.7343 4.55851 16.7925 1.49997 20.5512 1.49997C20.9654 1.49997 21.3012 1.16453 21.3012 0.749985C21.3012 0.335443 20.9654 0 20.5512 0Z" fill="#FF7B02"/>
<path d="M19.8047 15.8868C19.8047 16.3013 20.1405 16.6368 20.5547 16.6368C25.1406 16.6368 28.8715 12.9059 28.8715 8.3203C28.8715 7.90576 28.5357 7.57031 28.1215 7.57031C27.7074 7.57031 27.3716 7.90576 27.3716 8.3203C27.3716 12.079 24.3134 15.1368 20.5547 15.1368C20.1405 15.1368 19.8047 15.4723 19.8047 15.8868Z" fill="#FF7B02"/>
<path d="M20.5558 3.02734C17.6386 3.02734 15.2656 5.40035 15.2656 8.31753C15.2656 8.73207 15.6014 9.06751 16.0156 9.06751C16.4298 9.06751 16.7656 8.73207 16.7656 8.31753C16.7656 6.22723 18.4659 4.52731 20.5558 4.52731C20.97 4.52731 21.3058 4.19187 21.3058 3.77733C21.3058 3.36279 20.97 3.02734 20.5558 3.02734Z" fill="#FF7B02"/>
<path d="M25.0949 7.57031C24.6807 7.57031 24.3449 7.90576 24.3449 8.3203C24.3449 10.4106 22.6446 12.1105 20.5547 12.1105C20.1405 12.1105 19.8047 12.446 19.8047 12.8605C19.8047 13.275 20.1405 13.6105 20.5547 13.6105C23.4719 13.6105 25.8449 11.2375 25.8449 8.3203C25.8449 7.90576 25.509 7.57031 25.0949 7.57031Z" fill="#FF7B02"/>
<path d="M14.1853 25.9125C15.9416 25.9125 17.692 25.498 19.2469 24.7128C19.6164 24.5261 19.7651 24.0756 19.5784 23.7058C19.3916 23.3359 18.9401 23.185 18.5709 23.374C17.2248 24.0537 15.7079 24.4125 14.1853 24.4125C11.586 24.4118 9.14374 23.4004 7.30759 21.5635C7.01463 21.2705 6.54003 21.2705 6.24707 21.5635C5.9541 21.8564 5.9541 22.331 6.24707 22.624C8.36592 24.7436 11.1853 25.9118 14.1853 25.9125Z" fill="#FF7B02"/>
</svg>
