<svg width="35" height="34" viewBox="0 0 35 34" fill="none" xmlns="http://www.w3.org/2000/svg">
<path fill-rule="evenodd" clip-rule="evenodd" d="M32.1103 30.4632H31.4823C31.2755 30.4632 31.1076 30.2953 31.1076 30.0885C31.1076 29.8816 31.2755 29.7138 31.4823 29.7138H32.1103C32.9183 29.7138 33.5762 29.0573 33.5762 28.2479V2.21531C33.5762 1.40741 32.9183 0.74942 32.1103 0.74942H2.21383C1.40592 0.74942 0.749428 1.40741 0.749428 2.21531V28.2479C0.749428 29.0558 1.40592 29.7138 2.21383 29.7138H27.4713C27.6781 29.7138 27.846 29.8816 27.846 30.0885C27.846 30.2953 27.6781 30.4632 27.4713 30.4632H2.21383C0.99224 30.4632 0 29.4695 0 28.2479V2.21532C0 0.993737 0.993737 0 2.21383 0H32.1103C33.3319 0 34.3257 0.993737 34.3257 2.21532V28.2479C34.3257 29.4695 33.3319 30.4632 32.1103 30.4632Z" fill="white"/>
<path fill-rule="evenodd" clip-rule="evenodd" d="M33.951 5.95256H0.374718C0.167874 5.95256 0 5.78469 0 5.57784C0 5.371 0.167874 5.20312 0.374718 5.20312H33.951C34.1579 5.20312 34.3258 5.371 34.3258 5.57784C34.3258 5.78469 34.1579 5.95256 33.951 5.95256Z" fill="white"/>
<path fill-rule="evenodd" clip-rule="evenodd" d="M3.41037 2.53221C3.16755 2.53221 2.96822 2.73006 2.96822 2.97436C2.96822 3.21718 3.16607 3.41651 3.41037 3.41651H5.27348C5.5178 3.41651 5.71563 3.21867 5.71563 2.97436C5.71563 2.73155 5.51778 2.53221 5.27348 2.53221H3.41037ZM5.27348 4.16448H3.41037C2.75387 4.16448 2.21875 3.6294 2.21875 2.97287C2.21875 2.31637 2.75384 1.78125 3.41037 1.78125H5.27348C5.92997 1.78125 6.4651 2.31634 6.4651 2.97287C6.4651 3.62936 5.93001 4.16448 5.27348 4.16448Z" fill="white"/>
<path fill-rule="evenodd" clip-rule="evenodd" d="M9.1838 2.53221C8.94099 2.53221 8.74165 2.73006 8.74165 2.97436C8.74165 3.21718 8.9395 3.41651 9.1838 3.41651H11.0469C11.2897 3.41651 11.4891 3.21867 11.4891 2.97436C11.4891 2.73155 11.2912 2.53221 11.0469 2.53221H9.1838ZM11.0469 4.16448H9.1838C8.52731 4.16448 7.99219 3.6294 7.99219 2.97287C7.99219 2.31637 8.52727 1.78125 9.1838 1.78125H11.0469C11.7034 1.78125 12.2385 2.31634 12.2385 2.97287C12.2385 3.62936 11.7034 4.16448 11.0469 4.16448Z" fill="white"/>
<path fill-rule="evenodd" clip-rule="evenodd" d="M14.9572 2.53221C14.7144 2.53221 14.5151 2.73006 14.5151 2.97436C14.5151 3.21718 14.7129 3.41651 14.9572 3.41651H16.8204C17.0647 3.41651 17.2625 3.21867 17.2625 2.97436C17.2625 2.73155 17.0647 2.53221 16.8204 2.53221H14.9572ZM16.8204 4.16448H14.9572C14.3008 4.16448 13.7656 3.6294 13.7656 2.97287C13.7656 2.31637 14.2992 1.78125 14.9572 1.78125H16.8204C17.4768 1.78125 18.012 2.31634 18.012 2.97287C18.012 3.62936 17.4769 4.16448 16.8204 4.16448Z" fill="white"/>
<path fill-rule="evenodd" clip-rule="evenodd" d="M17.7077 24.5157H16.0544C15.8476 24.5157 15.6797 24.3493 15.6797 24.141V17.195C15.6797 16.9882 15.8476 16.8203 16.0544 16.8203H18.3792C18.586 16.8203 18.7539 16.9882 18.7539 17.195V20.4611C18.7539 20.6679 18.586 20.8358 18.3792 20.8358C18.1723 20.8358 18.0044 20.6679 18.0044 20.4611V17.5697H16.4291V23.7659H17.7076C17.9145 23.7659 18.0824 23.9338 18.0824 24.1406C18.0824 24.349 17.9145 24.5157 17.7077 24.5157Z" fill="#FF7B02"/>
<path fill-rule="evenodd" clip-rule="evenodd" d="M20.2888 19.1144C20.0819 19.1144 19.9141 18.9465 19.9141 18.7396V16.4958C19.9141 16.289 20.0819 16.1211 20.2888 16.1211H22.6135C22.8204 16.1211 22.9883 16.289 22.9883 16.4958V18.2135C22.9883 18.4219 22.8204 18.5883 22.6135 18.5883C22.4067 18.5883 22.2388 18.4219 22.2388 18.2135V16.8705H20.6635V18.7396C20.6635 18.9465 20.4956 19.1144 20.2888 19.1144Z" fill="#FF7B02"/>
<path fill-rule="evenodd" clip-rule="evenodd" d="M26.8479 21.2084C26.6411 21.2084 26.4732 21.042 26.4732 20.8352V16.0971H24.8979V18.6437C24.8979 18.8505 24.73 19.0184 24.5232 19.0184C24.3163 19.0184 24.1484 18.8505 24.1484 18.6437V15.7224C24.1484 15.5155 24.3163 15.3477 24.5232 15.3477H26.8479C27.0548 15.3477 27.2226 15.5155 27.2226 15.7224V20.8349C27.2226 21.0418 27.0548 21.2099 26.8479 21.2084Z" fill="#FF7B02"/>
<path fill-rule="evenodd" clip-rule="evenodd" d="M31.0823 24.5153C30.8755 24.5153 30.7076 24.3489 30.7076 24.1406V15.2492H29.1322V24.1406C29.1322 24.3489 28.9644 24.5153 28.7575 24.5153C28.5507 24.5153 28.3828 24.3489 28.3828 24.1406V14.8747C28.3828 14.6664 28.5507 14.5 28.7575 14.5H31.0823C31.2891 14.5 31.457 14.6664 31.457 14.8747V24.1406C31.457 24.3489 31.2891 24.5153 31.0823 24.5153Z" fill="#FF7B02"/>
<path fill-rule="evenodd" clip-rule="evenodd" d="M17.7086 24.5151H15.3044C15.0976 24.5151 14.9297 24.3487 14.9297 24.1403C14.9297 23.9335 15.0976 23.7656 15.3044 23.7656H17.7086C17.9154 23.7656 18.0833 23.9335 18.0833 24.1403C18.0833 24.3487 17.9154 24.5151 17.7086 24.5151ZM31.8326 24.5151H27.3002C27.0934 24.5151 26.9255 24.3487 26.9255 24.1403C26.9255 23.9335 27.0934 23.7656 27.3002 23.7656H31.8326C32.0395 23.7656 32.2074 23.9335 32.2074 24.1403C32.2074 24.3487 32.0395 24.5151 31.8326 24.5151Z" fill="#FF7B02"/>
<path fill-rule="evenodd" clip-rule="evenodd" d="M16.5849 15.248C16.4664 15.248 16.348 15.2315 16.2326 15.1971C15.9149 15.1026 15.6526 14.8913 15.4952 14.602C15.3363 14.3112 15.3018 13.9755 15.3947 13.6577C15.4877 13.34 15.7005 13.0792 15.9913 12.9203L18.9321 11.3165C18.9456 11.3075 18.9576 11.2985 18.9726 11.291C19.3353 11.0931 19.77 11.0886 20.1372 11.2775L21.011 11.6747L23.4077 10.3677C23.4212 10.3587 23.4347 10.3497 23.4482 10.3422C23.8109 10.1444 24.2456 10.1399 24.6113 10.3287L25.4866 10.726L28.2341 9.24057C28.4155 9.14164 28.6433 9.21059 28.7422 9.39195C28.8411 9.57332 28.7722 9.80114 28.5908 9.90006L25.68 11.4724C25.5766 11.5294 25.4537 11.5324 25.3473 11.4844L24.2936 11.0048C24.2876 11.0018 24.2801 10.9988 24.2741 10.9958C24.1377 10.9253 23.9788 10.9193 23.8409 10.9823C23.8304 10.9898 23.8199 10.9958 23.8094 11.0018L21.2074 12.4212C21.104 12.4781 20.9796 12.4826 20.8731 12.4332L19.8194 11.9535C19.8134 11.9505 19.8059 11.9475 19.8 11.9445C19.6636 11.8726 19.5047 11.8681 19.3653 11.931C19.3548 11.9385 19.3443 11.9445 19.3338 11.9505L16.3511 13.5768C16.2356 13.6398 16.1517 13.7432 16.1157 13.8691C16.0783 13.995 16.0933 14.1269 16.1547 14.2423C16.2177 14.3577 16.3211 14.4402 16.447 14.4776C16.5729 14.5151 16.7048 14.5016 16.8202 14.4387L19.4238 13.0192C19.5272 12.9623 19.6516 12.9578 19.758 13.0073L20.8582 13.5079C20.8657 13.5109 20.8732 13.5154 20.8807 13.5184C21.0306 13.5783 21.1984 13.5603 21.3348 13.4704C21.3438 13.4644 21.3528 13.4584 21.3618 13.4539L23.8994 12.0705C24.0028 12.0135 24.1273 12.009 24.2337 12.0585L25.3338 12.5591C25.3413 12.5621 25.3488 12.5666 25.3563 12.5696C25.5062 12.6295 25.6741 12.6115 25.8105 12.5216C25.8195 12.5156 25.83 12.5096 25.839 12.5051L29.2474 10.6615C29.4288 10.5626 29.6566 10.63 29.7555 10.8129C29.8544 10.9943 29.787 11.2221 29.6041 11.321L26.2092 13.1571C25.8524 13.3865 25.4103 13.4194 25.0236 13.2426C25.0131 13.2381 25.0041 13.2336 24.9951 13.2276L24.0958 12.8184L21.735 14.1059C21.3783 14.3353 20.9362 14.3668 20.5494 14.1914C20.539 14.1869 20.53 14.1809 20.5195 14.1764L19.6201 13.7672L17.1814 15.0982C16.9971 15.1987 16.7947 15.2496 16.5894 15.2496L16.5849 15.248Z" fill="#FF7B02"/>
<path fill-rule="evenodd" clip-rule="evenodd" d="M28.5872 9.17589L29.8778 10.988L30.8026 8.96308L28.5873 9.17442L28.5872 9.17589ZM29.9497 12.1092C29.8298 12.1092 29.7159 12.0507 29.6439 11.9518L27.601 9.08143C27.523 8.97351 27.5095 8.83112 27.565 8.70971C27.6205 8.5883 27.7374 8.50587 27.8708 8.49237L31.3781 8.15813C31.5115 8.14464 31.6404 8.20459 31.7199 8.31401C31.7978 8.42343 31.8113 8.56582 31.7543 8.68723L30.2899 11.8918C30.2345 12.0132 30.1176 12.0972 29.9842 12.1092C29.9722 12.1092 29.9602 12.1107 29.9482 12.1107L29.9497 12.1092Z" fill="#FF7B02"/>
<path fill-rule="evenodd" clip-rule="evenodd" d="M13.0101 21.1322H3.113C2.90616 21.1322 2.73828 20.9644 2.73828 20.7575C2.73828 20.5507 2.90616 20.3828 3.113 20.3828H13.0101C13.2169 20.3828 13.3848 20.5507 13.3848 20.7575C13.3848 20.9644 13.2169 21.1322 13.0101 21.1322Z" fill="#FF7B02"/>
<path fill-rule="evenodd" clip-rule="evenodd" d="M13.0101 23.5385H3.113C2.90616 23.5385 2.73828 23.3706 2.73828 23.1638C2.73828 22.9569 2.90616 22.7891 3.113 22.7891H13.0101C13.2169 22.7891 13.3848 22.9569 13.3848 23.1638C13.3848 23.3706 13.2169 23.5385 13.0101 23.5385Z" fill="#FF7B02"/>
<path fill-rule="evenodd" clip-rule="evenodd" d="M13.0101 25.9408H3.113C2.90616 25.9408 2.73828 25.773 2.73828 25.5661C2.73828 25.3593 2.90616 25.1914 3.113 25.1914H13.0101C13.2169 25.1914 13.3848 25.3593 13.3848 25.5661C13.3848 25.773 13.2169 25.9408 13.0101 25.9408Z" fill="#FF7B02"/>
<path fill-rule="evenodd" clip-rule="evenodd" d="M13.0101 28.3495H3.113C2.90616 28.3495 2.73828 28.1831 2.73828 27.9748C2.73828 27.7679 2.90616 27.6016 3.113 27.6016H13.0101C13.2169 27.6016 13.3848 27.7694 13.3848 27.9763C13.3848 28.1831 13.2169 28.351 13.0101 28.351V28.3495Z" fill="white"/>
<path fill-rule="evenodd" clip-rule="evenodd" d="M3.23873 16.4259C3.10983 16.4259 2.98392 16.3585 2.91347 16.2386C2.81005 16.0602 2.8715 15.8309 3.05137 15.7275L7.69045 13.049V7.69503C7.69045 7.48669 7.85832 7.32031 8.06517 7.32031C8.27201 7.32031 8.43988 7.48669 8.43988 7.69503V13.2665C8.43988 13.3999 8.36794 13.5243 8.25252 13.5903L3.4262 16.3767C3.36774 16.4112 3.30329 16.4276 3.23884 16.4276L3.23873 16.4259Z" fill="#FF7B02"/>
<path fill-rule="evenodd" clip-rule="evenodd" d="M11.1943 18.2503C11.0744 18.2503 10.956 18.1919 10.884 18.087L7.75588 13.4747C7.64047 13.3039 7.68393 13.07 7.85481 12.9546C8.02568 12.8392 8.25951 12.8842 8.37493 13.055L11.5031 17.6673C11.6185 17.8381 11.575 18.0705 11.4026 18.1874C11.3382 18.2309 11.2647 18.2518 11.1928 18.2518L11.1943 18.2503Z" fill="#FF7B02"/>
<path fill-rule="evenodd" clip-rule="evenodd" d="M8.06319 8.0697C5.19732 8.0697 2.86658 10.4004 2.86658 13.2663C2.86658 16.1306 5.19732 18.4629 8.06319 18.4629C10.9291 18.4629 13.2598 16.1307 13.2598 13.2663C13.2598 10.4004 10.9291 8.0697 8.06319 8.0697ZM8.06319 19.2123C4.78364 19.2123 2.11719 16.5443 2.11719 13.2663C2.11719 9.98676 4.78517 7.32031 8.06319 7.32031C11.3427 7.32031 14.0092 9.9883 14.0092 13.2663C14.0092 16.5443 11.3412 19.2123 8.06319 19.2123Z" fill="#FF7B02"/>
<path fill-rule="evenodd" clip-rule="evenodd" d="M22.5017 18.5849C21.3416 18.5849 20.1814 19.0256 19.2986 19.9084C18.4427 20.7643 17.9721 21.9019 17.9721 23.1115C17.9721 24.3212 18.4427 25.4588 19.2986 26.3147C21.0643 28.0803 23.9377 28.0803 25.7046 26.3147C27.4703 24.5475 27.4703 21.674 25.7046 19.9086C24.8218 19.0257 23.6618 18.5849 22.5017 18.5849ZM22.5017 28.3892C21.1497 28.3892 19.7977 27.8751 18.7695 26.8453C17.7727 25.8486 17.2227 24.5236 17.2227 23.1131C17.2227 21.7027 17.7712 20.3777 18.7695 19.3794C20.8274 17.3214 24.1775 17.3214 26.2354 19.3794C28.2933 21.4374 28.2933 24.7874 26.2354 26.8453C25.2056 27.875 23.8552 28.3891 22.5031 28.3891L22.5017 28.3892Z" fill="#FF7B02"/>
<path fill-rule="evenodd" clip-rule="evenodd" d="M22.5002 20.1164C21.7313 20.1164 20.9624 20.4087 20.3778 20.9932C19.2072 22.1639 19.2072 24.0689 20.3778 25.2394C20.9444 25.8075 21.6983 26.1192 22.5002 26.1192C23.3021 26.1192 24.056 25.8075 24.6226 25.2394C25.7932 24.0688 25.7932 22.1637 24.6226 20.9932C24.0365 20.4087 23.2691 20.1164 22.5002 20.1164ZM22.5002 26.8689C21.4974 26.8689 20.5562 26.4792 19.8472 25.7703C18.3843 24.3074 18.3843 21.927 19.8472 20.4643C21.3101 19.0016 23.6904 19.0014 25.1531 20.4643C26.6159 21.9272 26.616 24.3075 25.1531 25.7703C24.4442 26.4792 23.503 26.8689 22.5002 26.8689Z" fill="#FF7B02"/>
<path fill-rule="evenodd" clip-rule="evenodd" d="M27.9194 27.4164C27.8235 27.4164 27.7276 27.3805 27.6541 27.307L26.3696 26.0225C26.2227 25.8756 26.2227 25.6387 26.3696 25.4919C26.5165 25.3465 26.7533 25.3465 26.9002 25.4919L28.1847 26.7764C28.3316 26.9218 28.3316 27.1601 28.1847 27.307C28.1113 27.379 28.0154 27.4164 27.9194 27.4164ZM26.4296 28.9063C26.3336 28.9063 26.2377 28.8703 26.1643 28.7969L24.8797 27.5123C24.7328 27.3669 24.7328 27.1286 24.8797 26.9817C25.0266 26.8363 25.2634 26.8363 25.4103 26.9817L26.6948 28.2663C26.8417 28.4132 26.8417 28.65 26.6948 28.7969C26.6214 28.8703 26.5255 28.9063 26.4296 28.9063Z" fill="#FF7B02"/>
<path fill-rule="evenodd" clip-rule="evenodd" d="M26.6991 28.7911L31.1551 33.2487L32.6315 31.7723L28.1739 27.3163L26.6975 28.7927L26.6991 28.7911ZM31.1553 34.0013C30.9664 34.0013 30.7761 33.9293 30.6322 33.7855L26.1612 29.3144C26.0218 29.175 25.9453 28.9892 25.9453 28.7913C25.9453 28.5935 26.0218 28.4076 26.1612 28.2682L27.651 26.7783C27.7904 26.6389 27.9763 26.5625 28.1741 26.5625C28.372 26.5625 28.5579 26.6389 28.6973 26.7783L33.1683 31.2493C33.3077 31.3887 33.3841 31.5746 33.3841 31.7725C33.3841 31.9703 33.3062 32.1562 33.1683 32.2956L31.6784 33.7855C31.5345 33.9293 31.3441 34.0013 31.1553 34.0013Z" fill="#FF7B02"/>
</svg>
