<svg width="34" height="34" viewBox="0 0 34 34" fill="none" xmlns="http://www.w3.org/2000/svg">
<path d="M29.7507 23.7318H4.25065C3.59338 23.731 2.96326 23.4695 2.4985 23.0048C2.03374 22.54 1.77228 21.9099 1.77148 21.2526V4.2526C1.77228 3.59533 2.03374 2.96521 2.4985 2.50045C2.96326 2.03569 3.59338 1.77424 4.25065 1.77344H29.7507C30.4079 1.77424 31.038 2.03569 31.5028 2.50045C31.9676 2.96521 32.229 3.59533 32.2298 4.2526V21.2526C32.229 21.9099 31.9676 22.54 31.5028 23.0048C31.038 23.4695 30.4079 23.731 29.7507 23.7318ZM4.25065 3.89844C4.15678 3.89862 4.0668 3.93599 4.00042 4.00237C3.93404 4.06875 3.89666 4.15873 3.89648 4.2526V21.2526C3.89666 21.3465 3.93404 21.4365 4.00042 21.5028C4.0668 21.5692 4.15678 21.6066 4.25065 21.6068H29.7507C29.8445 21.6066 29.9345 21.5692 30.0009 21.5028C30.0673 21.4365 30.1046 21.3465 30.1048 21.2526V4.2526C30.1046 4.15873 30.0673 4.06875 30.0009 4.00237C29.9345 3.93599 29.8445 3.89862 29.7507 3.89844H4.25065Z" fill="white"/>
<path d="M9.91732 29.3984H2.83398C2.55219 29.3984 2.28194 29.2865 2.08268 29.0872C1.88343 28.888 1.77148 28.6177 1.77148 28.3359C1.77148 28.0541 1.88343 27.7839 2.08268 27.5846C2.28194 27.3854 2.55219 27.2734 2.83398 27.2734H9.91732C10.1991 27.2734 10.4694 27.3854 10.6686 27.5846C10.8679 27.7839 10.9798 28.0541 10.9798 28.3359C10.9798 28.6177 10.8679 28.888 10.6686 29.0872C10.4694 29.2865 10.1991 29.3984 9.91732 29.3984Z" fill="white"/>
<path d="M31.168 29.3984H14.168C13.8862 29.3984 13.6159 29.2865 13.4167 29.0872C13.2174 28.888 13.1055 28.6177 13.1055 28.3359C13.1055 28.0541 13.2174 27.7839 13.4167 27.5846C13.6159 27.3854 13.8862 27.2734 14.168 27.2734H31.168C31.4498 27.2734 31.72 27.3854 31.9193 27.5846C32.1185 27.7839 32.2305 28.0541 32.2305 28.3359C32.2305 28.6177 32.1185 28.888 31.9193 29.0872C31.72 29.2865 31.4498 29.3984 31.168 29.3984Z" fill="white"/>
<path d="M15.1488 17.1378C14.6067 17.1364 14.0873 16.9202 13.7043 16.5365C13.3213 16.1529 13.106 15.6331 13.1055 15.091V10.4121C13.1054 10.0636 13.1944 9.72075 13.3642 9.41629C13.5339 9.11182 13.7786 8.8558 14.0751 8.67254C14.3716 8.48928 14.7101 8.38488 15.0583 8.36925C15.4065 8.35361 15.753 8.42727 16.0647 8.58321L20.7436 10.9227C21.0832 11.0925 21.3688 11.3536 21.5684 11.6766C21.7681 11.9996 21.8738 12.3718 21.8738 12.7516C21.8738 13.1313 21.7681 13.5035 21.5684 13.8266C21.3688 14.1496 21.0832 14.4106 20.7436 14.5805L16.0647 16.9199C15.7805 17.0627 15.4669 17.1373 15.1488 17.1378ZM15.2305 10.5415V15.091L19.6547 12.7536L15.2305 10.5415Z" fill="#FF7B02"/>
<path d="M9.91797 31.5234C9.6362 31.5234 9.36599 31.4114 9.16675 31.2122C8.96751 31.0129 8.85554 30.7427 8.85547 30.4609V26.2109C8.85547 25.9291 8.96741 25.6589 9.16667 25.4596C9.36593 25.2604 9.63618 25.1484 9.91797 25.1484C10.1998 25.1484 10.47 25.2604 10.6693 25.4596C10.8685 25.6589 10.9805 25.9291 10.9805 26.2109V30.4609C10.9804 30.7427 10.8684 31.0129 10.6692 31.2122C10.4699 31.4114 10.1997 31.5234 9.91797 31.5234Z" fill="white"/>
</svg>
