<svg width="1400" height="740" viewBox="0 0 1400 740" fill="none" xmlns="http://www.w3.org/2000/svg">
<path d="M542.148 372.59C533.654 368.158 531.932 362.623 530.108 356.763C528.516 351.644 526.868 346.353 520.763 341.377C519.266 336.521 517.26 334.914 515.929 333.848C514.968 333.077 514.671 332.793 514.842 331.949C515.056 330.895 516.006 329.14 518.348 325.475L518.459 325.301L518.405 325.099C518.197 324.332 517.66 323.561 517.141 322.816C515.967 321.132 515.332 320.028 516.421 318.907L516.863 318.453L516.297 318.162C513.989 316.979 513.508 316.734 513.293 314.089L513.267 313.76L512.952 313.673C512.583 313.571 511.601 312.855 511.245 312.43C511.252 312.429 512.218 312.45 512.218 312.45L511.682 311.693C508.786 307.595 510.178 301.758 510.958 299.856L511.046 299.641L510.929 299.441C509.539 297.038 510.911 295.349 512.363 293.561C513.938 291.621 515.718 289.429 512.974 286.501C513.311 285.153 513.732 283.766 514.176 282.302C516.293 275.328 518.693 267.423 511.984 261.646L511.797 261.484L511.56 261.551C511.209 261.649 510.855 261.697 510.506 261.695C509.439 261.687 508.44 261.186 507.834 260.356C507.231 259.53 507.074 258.493 507.393 257.434L507.426 257.321L507.403 257.205C507.359 256.99 507.227 256.335 506.672 256.331C506.408 256.33 506.214 256.49 506.042 256.632C505.953 256.707 505.8 256.832 505.734 256.831C505.681 256.831 505.46 256.683 505.154 256.032L504.723 255.116L504.313 256.037C504.145 256.413 504.003 256.547 503.932 256.546C503.816 256.546 503.596 256.411 503.401 256.292C503.07 256.09 502.657 255.836 502.168 255.833C502.153 255.832 502.138 255.833 502.124 255.833C502.251 255.544 502.362 255.188 502.215 254.821L502.131 254.614L501.921 254.548C500.899 254.23 499.879 253.97 498.892 253.717C494.567 252.613 491.151 251.741 490.389 247.212L490.342 246.924L490.275 246.903C494.205 237.266 502.307 225.323 511.356 220.995C516.417 219.769 520.357 218.331 523.401 216.598C528.095 213.925 530.577 210.572 530.774 206.639C532.155 184.412 525.812 164.925 519.097 144.293C514.711 130.815 510.175 116.877 507.985 102.083C507.846 99.6005 507.752 97.2904 507.669 95.2518C507.335 87.0178 507.114 81.5783 504.519 76.8316C501.945 72.1236 497.114 68.1658 487.292 62.7144L487.152 62.6371L486.996 62.6623C486.532 62.7368 486.064 62.8947 485.611 63.0481C485.047 63.239 484.514 63.4193 484.069 63.4159C483.7 63.4131 483.281 63.2964 482.962 62.4804C483.412 60.0309 483.436 59.2783 483.091 58.8554C482.846 58.5563 482.494 58.5537 482.362 58.5527C482.288 58.5521 482.208 58.556 482.122 58.56C482.042 58.5642 481.954 58.5688 481.862 58.5681C481.453 58.5651 480.96 58.4542 480.361 57.6929C480.369 57.5315 480.332 57.3308 480.194 57.1021C479.333 55.6807 474.492 53.6189 471.974 53.6C470.74 53.5909 470.297 54.0805 470.144 54.4923L470.118 54.56L470.115 54.6321C470.105 54.8188 470.079 54.9833 470.063 55.1631C469.683 55.3771 469.08 55.9757 467.931 57.6011C462.464 58.1456 456.507 58.3856 449.729 58.3349C432.704 58.2077 413.356 56.1949 394.644 54.2487C375.821 52.2904 356.357 50.2656 339.124 50.1368C324.506 50.0275 312.749 51.3031 303.42 54.0664C304.543 52.9693 305.278 51.6473 305.362 49.9613C305.54 49.8411 305.557 49.6361 305.558 49.6042C305.58 49.1542 305.176 49.1134 304.851 49.0808C299.348 48.5284 298.301 47.5491 298.106 47.1538L297.85 46.6341L297.403 46.9939C289.752 53.1368 277.551 57.0514 266.32 56.9674C266.318 56.9674 266.316 56.9674 266.315 56.9674C257.288 56.899 249.862 54.215 245.402 49.4095C241.621 45.334 239.903 39.8083 240.294 32.9844L240.306 32.7879L240.175 32.6419C239.293 31.6608 239.337 30.8352 239.366 30.2881C239.382 29.9792 239.398 29.6876 239.191 29.4661C239.11 29.3791 238.964 29.2746 238.733 29.273C238.46 29.2709 238.114 29.4108 237.338 29.813C237.025 28.986 236.944 27.9674 236.859 26.8985C236.679 24.6418 236.477 22.0933 233.839 20.9958C233.628 19.3258 233.788 18.1299 234.307 17.528C234.606 17.1796 235.036 17.0125 235.621 17.0168C240.078 17.0501 250.595 26.8701 253.738 32.1494C254.013 32.7295 254.279 33.3301 254.53 33.9354L256.469 38.602L255.409 33.6603C255.297 33.1364 255.009 32.4801 254.554 31.7106C248.06 18.0081 235.468 10.9906 217.129 10.8535C192.956 10.6728 162.822 23.1204 145.054 34.7623L144.752 34.9599L144.87 35.3046C144.927 35.4736 144.997 35.6439 145.062 35.8138C143.464 34.8991 141.776 34.6601 140.52 34.6507C135.4 34.6124 129.37 38.142 126.484 42.8627C125.968 42.9176 125.203 43.7792 121.785 48.4934C121.497 48.8904 121.195 49.3073 120.922 49.6802L121.004 49.0122L119.863 50.9909C117.965 54.2827 117.594 54.9255 117.521 55.1166L117.266 54.9203C117.152 55.0697 117.043 55.2133 116.941 55.3501C116.102 56.4382 113.135 60.0511 110.037 61.0953L110.296 61.9932C110.871 61.8538 111.403 61.6626 111.872 61.4934C112.464 61.28 112.976 61.0958 113.341 61.0986C113.554 61.1001 113.947 61.103 114.137 62.3874C113.86 62.4338 113.378 62.4438 113.088 62.4498C112.199 62.4685 111.61 62.4807 111.49 62.9858C111.417 63.292 111.603 63.5242 111.821 63.6941C110.908 64.0436 108.434 64.3967 107.78 64.4396C107.529 64.2931 107.356 64.1796 107.239 64.0937C107.36 64.0643 107.496 64.0355 107.613 64.0106C108.258 63.8747 109.054 63.7062 109.488 63.2058C110.034 62.8043 110.376 62.5039 110.247 62.1C110.191 61.924 110.018 61.7349 109.702 61.7325C109.242 61.7291 108.103 62.1616 106.285 62.8751C105.784 63.0709 105.182 63.307 104.706 63.4823L104.728 63.435L103.749 63.6972C77.4725 70.7308 44.7699 79.484 18.5337 93.574L18.5051 93.5897L18.4788 93.6091C16.8958 94.7751 14.7198 95.0059 13.1736 94.9943C11.3438 94.9807 9.387 94.6209 7.78448 94.0059C7.24744 93.4082 6.81874 93.139 6.40475 93.1359C5.66904 93.1304 5.38165 93.9061 5.12836 94.5906C4.83798 95.3743 4.59593 95.9315 4.12146 95.9616L3.2395 96.0176L3.79244 96.7178C4.84398 98.0502 5.65358 99.2032 6.36787 100.22C8.1818 102.803 9.2767 104.362 11.4457 104.379C12.6755 104.388 14.2657 103.888 16.7619 102.706L16.8432 102.667L16.9044 102.6C17.8234 101.596 17.762 100.771 17.549 100.255C17.1827 99.37 16.152 98.8412 15.0976 98.6373C15.4297 98.1559 15.8082 97.6948 16.1814 97.6975C16.3504 97.6988 16.5449 97.7912 16.7607 97.9713L16.8912 98.0813L17.0608 98.0799C17.2048 98.0789 17.3314 98.0551 17.4422 98.0151C17.2715 98.5573 17.288 99.0227 17.49 99.4221C18.0615 100.553 19.884 100.686 21.8135 100.826C23.2487 100.93 24.8718 101.048 25.3889 101.628C25.7436 102.359 25.6221 103.408 25.5329 104.179C25.4565 104.84 25.4102 105.24 25.6461 105.509C25.7548 105.633 25.9053 105.702 26.0707 105.703C26.427 105.706 26.7783 105.456 27.9316 104.102C27.674 106.066 27.5008 107.781 27.7099 108.831C27.4756 108.886 27.2599 108.978 27.0604 109.062C26.8382 109.156 26.6286 109.244 26.4806 109.242C26.4276 109.242 26.3178 109.241 26.1539 108.99L25.7081 108.304L25.352 109.037C21.8655 116.2 24.8357 118.49 26.6104 119.857C27.1605 120.282 27.6358 120.647 27.6448 120.954C27.6501 121.131 27.512 121.466 26.8262 122.056L26.6804 122.18L26.6655 122.373C26.6034 123.187 26.5126 123.556 26.4512 123.721C26.1787 123.478 25.6939 122.771 25.2941 122.187C23.7836 119.985 21.502 116.657 18.107 116.631C17.7859 116.629 17.4594 116.657 17.1334 116.715C16.3289 116.151 15.1062 114.893 14.0194 113.774C12.0738 111.772 11.2849 111.014 10.7168 111.01C10.5046 111.008 10.3181 111.108 10.205 111.282C10.0018 111.596 10.0155 112.067 10.6629 113.585C6.65094 119.642 9.74146 129.11 12.7316 138.269C15.3719 146.357 18.1018 154.718 15.6285 160.156L15.5963 160.226L15.5884 160.304C14.438 172 13.5174 176.971 2.13102 182.622L1.65231 182.859L1.956 183.304C3.41476 185.445 2.70965 188 2.08841 190.256C1.58429 192.083 1.14876 193.662 1.95193 194.746C2.48014 195.461 3.43548 195.817 4.95149 195.865C9.90124 199.272 14.0205 203.529 18.0054 207.647C20.7929 210.529 23.677 213.502 26.8351 216.187L26.8324 216.243L27.0407 216.368L27.6304 216.865L27.6436 216.786C28.7881 217.736 28.3929 218.683 27.8295 220.03C27.2413 221.438 26.5154 223.174 28.0559 225.013C26.7473 227.702 25.5662 229.118 24.6959 230.162C22.5138 232.777 22.3564 233.445 25.8069 241.676C24.9466 244.488 27.296 245.343 29.1909 246.032C30.6597 246.567 32.0496 247.073 32.4112 248.246C30.108 255.759 31.795 258.648 33.029 260.76C33.9572 262.349 34.5703 263.4 33.4133 265.815C31.8602 268.891 31.6621 271.203 31.4865 273.244C31.2215 276.333 31.0119 278.772 26.2459 282.722L26.1517 282.801L26.1081 282.916C24.6835 286.689 27.3414 290.551 29.9119 294.287C32.9857 298.754 35.8887 302.974 32.4511 307.02L32.3799 307.104L32.3538 307.211C31.2338 311.793 35.343 313.323 38.9684 314.673C42.9144 316.143 46.6412 317.53 45.1838 322.239L44.7662 323.589L45.899 322.758C45.9606 322.714 46.0172 322.677 46.078 322.633C45.9139 322.93 45.7722 323.235 45.664 323.553C44.7733 326.166 45.8114 329.398 48.8377 333.429C47.1753 345.171 44.301 355.37 40.2942 363.748C38.8697 364.992 37.13 367.436 37.6065 368.755C37.7155 369.057 38.0378 369.565 38.9682 369.571C39.5349 369.576 40.2572 369.402 41.1754 369.041C41.29 369.035 41.4052 369.033 41.5203 369.034C42.2891 369.039 43.0698 369.174 43.8249 369.305C44.4992 369.421 45.1359 369.532 45.7017 369.536C46.4963 369.542 47.0637 369.325 47.4371 368.873C47.9859 368.208 48.0838 367.057 47.7453 365.252L47.7346 365.208C47.6092 364.774 47.8139 364.329 48.0738 363.765C48.5767 362.672 49.2659 361.175 47.5927 358.932L47.5517 358.877L47.4971 358.836C46.6288 358.19 46.5921 357.914 46.5933 357.865C46.5981 357.713 47.0102 357.448 47.3111 357.254C47.77 356.959 48.3462 356.588 48.6672 356.015C49.4969 356.591 50.8686 356.932 51.866 357.116C52.2611 358 53.3605 359.016 54.2085 359.022C54.4524 359.024 55.2387 358.931 55.3039 357.68C55.6869 356.74 55.9293 356.534 55.9799 356.495C56.2489 356.687 56.6197 357.882 56.8005 358.466C56.8597 358.658 56.9181 358.845 56.9754 359.021L57.0882 359.367L57.4475 359.343C57.825 359.318 58.185 359.306 58.5182 359.309C60.2631 359.322 61.391 359.709 61.8688 360.459C62.3675 361.242 62.2301 362.515 61.4603 364.243L61.4314 364.307L61.4226 364.378C61.1003 367.121 62.822 368.772 64.3412 370.229C65.8046 371.631 67.0682 372.842 66.6716 374.82L66.6595 374.88L66.6636 374.943C66.7112 375.674 66.7915 376.897 67.6715 376.904C68.0549 376.906 68.4121 376.649 68.9069 376.293C69.6981 375.725 70.7819 374.946 72.3479 374.957C73.5107 374.966 74.7864 375.421 76.14 376.312L76.2125 376.36L76.297 376.378C78.7208 376.901 83.5254 379.216 84.7952 380.683L85.0222 380.944L85.3346 380.802C86.6226 380.219 87.676 379.939 88.5558 379.944C90.3353 379.958 91.0894 381.183 91.9622 382.6C92.8677 384.071 93.8939 385.737 96.265 385.756C97.2778 385.763 98.4514 385.471 99.8458 384.864C101.886 386.59 101.402 388.4 101.046 389.735C100.852 390.46 100.699 391.033 101.022 391.463C101.211 391.713 101.51 391.836 101.933 391.839C102.324 391.842 102.86 391.743 103.619 391.53L103.751 391.493L103.84 391.389C105.133 389.905 106.658 388.391 108.169 388.401C108.973 388.407 109.728 388.837 110.479 389.716L110.55 389.799L110.649 389.842C111.147 390.055 111.567 390.161 111.934 390.164C113.031 390.171 113.42 389.292 113.732 388.585C114.104 387.743 114.424 387.016 115.705 387.025C116.355 387.03 117.199 387.227 118.215 387.612C121.544 389.898 123.541 391.61 123.905 393.57C124.201 395.165 123.453 397.075 121.323 400.161L121.293 400.205L121.274 400.254C121.089 400.716 120.843 400.807 120.506 400.805C120.235 400.802 119.918 400.732 119.583 400.656C119.205 400.571 118.814 400.483 118.426 400.48C118.048 400.477 117.731 400.555 117.454 400.718L117.283 400.82L117.238 401.014C116.975 402.152 115.835 402.844 114.734 403.513C114.391 403.72 114.067 403.918 113.764 404.129C113.76 404.129 113.757 404.129 113.753 404.129C113.539 404.127 113.351 404.222 113.237 404.39C113.079 404.624 113.108 404.911 113.197 405.212C112.883 405.138 112.872 405.138 112.838 405.138L112.501 405.135L112.396 405.458C111.565 408.025 112.325 408.558 113.405 408.988C114.094 409.263 114.745 409.521 114.9 411.076L114.922 411.299L115.108 411.422C115.894 411.943 116.625 412.197 117.343 412.203C117.89 412.207 118.34 412.065 118.702 411.951C118.953 411.871 119.17 411.802 119.346 411.803C119.763 411.806 120.41 412.312 121.725 416.219L121.777 416.377L121.916 416.466C127.837 420.243 130.205 425.427 131.933 429.212C133.422 432.474 134.599 435.05 137.292 435.07C140.036 435.09 144.124 432.385 151.399 425.73L151.421 425.711L151.439 425.688C151.579 425.525 151.742 425.454 151.983 425.456C152.196 425.457 152.436 425.516 152.668 425.572C152.908 425.63 153.137 425.685 153.359 425.687C153.661 425.689 153.901 425.589 154.073 425.39C154.299 425.127 154.374 424.739 154.311 424.12C154.368 424.088 154.399 424.085 154.408 424.085C154.559 424.086 154.857 424.54 155.035 424.81C155.411 425.381 155.837 426.028 156.554 426.044L156.793 426.05L156.934 425.856C158.288 423.998 155.814 419.867 153.195 415.494C151.414 412.519 149.197 408.817 149.772 407.792C149.881 407.598 150.155 407.502 150.587 407.505C151.074 407.509 151.74 407.648 152.552 407.906L152.528 407.994L153.012 408.055L153.35 408.172L153.379 408.112C155.338 408.418 157.678 409.28 159.949 410.12C162.082 410.91 164.105 411.659 165.735 411.92C166.357 416.094 169.109 416.507 171.773 416.906C172.31 416.987 172.858 417.069 173.404 417.181C173.38 417.259 173.36 417.346 173.344 417.441C173.128 418.738 173.852 422.017 175.136 422.469L175.598 422.632L175.731 422.158C175.972 421.301 176.293 420.79 176.589 420.792C177.099 420.796 177.98 421.909 178.595 423.326L178.91 424.052L179.387 423.427C180.372 422.133 181.623 421.586 183.571 421.6C184.243 421.605 184.949 421.673 185.631 421.74C186.325 421.807 187.041 421.876 187.733 421.881C189.493 421.894 191.687 421.532 193.063 418.595L193.077 418.563C193.115 418.46 193.152 418.357 193.188 418.256C193.313 417.902 193.486 417.42 193.64 417.421C193.68 417.421 193.79 417.437 193.998 417.566C195.606 420.702 196.095 423.201 195.45 424.991C194.687 427.118 192.497 428.021 190.565 428.819C189.009 429.461 187.665 430.015 187.518 431.167C187.38 432.25 188.368 433.519 190.823 435.411L191.048 435.586L191.303 435.463C191.738 435.252 192.184 435.148 192.627 435.151C193.248 435.156 193.863 435.367 194.458 435.78C195.187 438.228 198.653 446.744 203.355 446.779C204.681 446.789 205.973 446.125 207.197 444.802C207.589 444.642 208.312 444.622 209.013 444.601C210.282 444.562 211.594 444.523 212.205 443.737C212.497 443.361 212.583 442.873 212.461 442.287L212.441 442.194L212.387 442.116C211.358 440.624 210.968 439.33 211.185 438.167C211.29 440.118 212.547 442.4 215.034 445.112L215.154 445.242L215.328 445.26C219.297 445.67 222.711 447.945 225.474 452.019L225.782 452.474L226.175 452.096C227.267 451.045 228.436 450.539 229.748 450.548C231.398 450.561 233.326 451.391 235.811 453.159L235.924 453.24C235.924 453.24 236.132 453.247 236.168 453.248C237.177 453.255 238.061 452.826 238.771 452.483C239.159 452.295 239.559 452.101 239.768 452.102C239.812 452.103 239.819 452.11 239.83 452.122C239.927 452.228 240.136 452.692 239.992 454.715L239.988 454.766L239.996 454.817C240.162 455.957 240.816 456.394 241.206 456.655C241.263 456.693 241.336 456.742 241.383 456.779C241.323 456.907 241.102 457.222 240.313 457.973L240.148 458.13L240.171 458.358C240.914 465.758 243.363 469.965 247.452 470.862C253.09 473.009 253.504 475.776 254.407 481.823C254.517 482.556 254.634 483.335 254.767 484.164L254.782 484.256L254.831 484.336C255.814 485.931 256.865 486.678 258.141 486.686C258.614 486.69 259.044 486.593 259.422 486.507C259.705 486.444 259.971 486.383 260.182 486.385C260.369 486.386 260.489 486.434 260.6 486.548C261.479 487.452 261.526 492.196 261.484 495.687L261.481 495.985L261.747 496.115C262.134 496.305 262.547 496.402 262.976 496.405C263.907 496.412 264.766 495.99 265.597 495.582C266.307 495.233 266.977 494.905 267.578 494.908C268.051 494.912 268.457 495.131 268.853 495.598L268.923 495.68L269.02 495.723C269.524 495.945 270.031 496.06 270.526 496.064C273.535 496.086 275.442 492.054 275.589 489.958C276.103 486.35 277.479 485.835 279.761 484.983C281.916 484.176 284.839 483.074 288.23 478.935C288.6 479.51 288.996 480.078 289.396 480.652C291.181 483.211 293.027 485.858 293.318 489.944L293.327 490.058L293.385 490.154C294.233 491.562 295.497 491.845 296.421 492.051C297.06 492.194 297.46 492.296 297.621 492.579C297.821 492.929 297.749 493.662 297.405 494.757L297.289 495.127L297.628 495.311C299.068 496.096 300.396 496.481 301.689 496.491C302.643 496.499 303.381 496.301 303.974 496.143C304.319 496.051 304.615 495.972 304.824 495.974C304.998 495.975 305.289 495.977 305.571 497.369C305.806 498.562 305.876 499.795 305.943 500.989C306.05 502.887 306.152 504.689 306.887 506.222C304.553 507.674 304.073 509.639 304.428 511.041C304.812 512.56 306.138 513.587 307.73 513.598C308.858 513.607 310.04 513.113 311.145 512.168L311.196 512.123L311.233 512.064C312 510.862 312.798 510.281 313.673 510.287C314.925 510.297 316.271 511.494 317.459 512.55C318.595 513.56 319.577 514.433 320.544 514.441C321.938 514.451 322.471 512.702 322.75 511.386L322.757 511.347L322.759 511.307C323.109 502.697 330.496 500.92 333.657 500.555L333.986 500.517L334.054 500.188C334.681 497.15 335.108 496.531 335.556 496.534C335.796 496.536 336.137 496.656 336.533 496.795C337.227 497.039 338.179 497.374 339.444 497.383C339.903 497.386 340.378 497.346 340.857 497.265L341.267 497.194L341.239 496.775C341.194 496.08 341.327 495.881 341.368 495.836C341.383 495.819 341.418 495.782 341.549 495.783C342.039 495.786 342.95 496.3 343.832 496.796C345.063 497.489 346.46 498.275 347.654 498.284C348.547 498.289 349.223 497.877 349.659 497.067C350.083 496.312 350.727 495.883 351.425 495.888C351.666 495.89 351.915 495.941 352.166 496.041L352.371 496.122L352.561 496.014C352.924 495.81 353.273 495.711 353.629 495.714C355.153 495.726 356.611 497.676 357.897 499.398C358.832 500.649 359.716 501.832 360.639 502.332L360.765 502.4L360.908 502.384C361.133 502.36 361.355 502.349 361.567 502.35C363.253 502.363 364.256 503.207 365.14 503.952C365.872 504.57 366.563 505.153 367.497 505.16C368.348 505.166 369.255 504.68 370.349 503.629L370.393 503.586L370.425 503.533C371.902 501.063 372.875 499.666 375.652 499.688C375.728 499.688 375.805 499.69 375.882 499.693L376.124 499.701L376.268 499.506C377.324 498.071 376.041 497.001 375.192 496.293C374.917 496.064 374.345 495.587 374.381 495.433C374.402 495.338 374.671 494.841 377.819 494.095C379.536 495.155 380.789 495.652 381.751 495.66C382.845 495.668 383.465 495.066 384.063 494.483C384.814 493.753 385.591 492.997 387.54 493.012C389.483 493.026 392.186 493.804 395.802 495.389L395.906 495.436L396.019 495.427C398.356 495.26 399.425 495.117 399.852 494.437C399.875 494.4 399.888 494.362 399.905 494.325C400.176 494.473 400.474 494.544 400.819 494.546C401.092 494.548 401.373 494.513 401.699 494.474C402.112 494.425 402.58 494.367 403.149 494.372C404.724 494.384 406.48 494.89 408.512 495.92C411.507 499.473 412.549 500.175 413.333 500.18C413.905 500.184 414.232 499.78 414.495 499.454C414.794 499.081 415.054 498.76 415.678 498.765C416.852 498.774 418.912 499.906 421.803 502.131C425.166 505.564 425.534 507.688 425.831 509.397C426.297 512.092 426.873 513.484 434.779 515.664L434.865 515.687L434.954 515.677C435.352 515.632 435.689 515.609 435.958 515.612C436.522 515.616 436.638 515.723 436.65 515.736C436.694 515.784 436.68 516.027 436.671 516.189C436.605 517.361 436.814 518.549 440.066 519.092L440.159 519.107L440.251 519.085C440.68 518.978 441.109 518.927 441.524 518.931C443.331 518.943 445.052 520.008 446.637 522.093L446.702 522.179L446.797 522.227C447.863 522.77 449.268 522.87 450.627 522.967C452.188 523.078 453.803 523.193 454.793 523.971L455.175 524.273L455.454 523.877C455.808 523.374 456.144 523.12 456.45 523.123C456.994 523.127 457.665 523.878 458.313 524.605C459.191 525.588 460.188 526.704 461.456 526.714C461.605 526.715 461.753 526.701 461.925 526.666C462.607 526.488 463.235 526.404 463.845 526.409C465.959 526.424 467.466 527.538 469.211 528.827C470.038 529.437 470.893 530.068 471.882 530.638L472.253 530.852L472.492 530.499C473.414 529.14 472.919 528.127 472.482 527.232C472.002 526.247 471.548 525.316 472.437 523.61L472.455 523.573L472.468 523.534C472.955 521.982 470.729 520.838 469.533 520.224C469.391 520.152 469.269 520.088 469.19 520.045C463.785 516.769 464.29 514.104 465.129 509.69C465.713 506.618 466.438 502.793 465.294 497.629L465.281 497.572L465.254 497.52C456.075 479.212 480.188 455.228 497.795 437.717C502.184 433.351 506.331 429.225 509.389 425.746L509.742 425.413C514.645 420.8 515.962 419.559 515.82 418.458C515.773 418.089 515.564 417.817 515.248 417.568C516.373 417.291 517.299 416.249 518.061 414.388C519.818 413.593 522.387 413.514 524.875 413.437C528.507 413.326 532.263 413.211 534.101 410.927C535.161 409.609 535.465 407.746 535.032 405.232C535.048 404.49 536.233 403.848 537.381 403.226C538.931 402.385 540.688 401.431 540.127 399.76C538.932 396.468 539.376 395.225 539.767 394.127C540.188 392.944 540.585 391.825 539.117 389.033C539.419 385.515 537.847 384.684 536.696 384.074C535.711 383.553 535.217 383.292 536.01 381.394L536.065 381.262L536.038 381.123C535.884 380.338 535.117 380.125 534.374 379.918C533.217 379.597 532.124 379.293 532.364 377.197C532.755 375.516 533.771 375.178 535.177 375.188C535.717 375.192 536.311 375.255 536.885 375.314C537.485 375.377 538.105 375.441 538.696 375.446C539.925 375.455 541.643 375.228 542.372 373.167L542.508 372.782L542.148 372.59Z" fill="#BFBFBF"/>
<path d="M501.255 439.985C501.346 438.401 503.261 435.839 504.437 434.972C505.202 434.407 506.181 434.173 506.967 433.665C507.57 433.274 508.042 432.38 508.833 432.385C510.418 432.398 511.894 435.886 513.38 436.711C514.624 437.401 516.285 438.261 517.614 438.78C519.495 439.515 520.958 438.897 522.473 437.559C524.077 436.141 524.098 433.822 525.922 433.305C528.246 432.646 528.922 434.614 530.812 435.076C533.313 435.687 533.633 434.108 535.377 432.691C536.858 433.509 536.826 436.109 537.616 437.561C538.43 439.06 539.787 440.182 541.072 441.156C542.24 442.042 542.478 442.646 543.382 443.749C544.874 445.568 545.117 444.527 546.784 443.543C547.503 443.822 548.527 448.47 549.003 449.51C549.775 451.196 550.985 454.138 552.794 454.787C554.454 455.382 556.26 453.28 558.114 453.223C558.647 453.207 559.928 453.496 560.41 453.32C561.573 452.893 560.875 451.897 561.847 451.076C563.265 449.879 565.383 450.988 566.319 448.265C566.621 447.386 566.262 446.634 566.391 445.78C566.572 444.586 567.084 443.712 567.185 442.461C567.414 439.631 568.876 439.652 571.149 438.971C573.047 438.402 574.541 437.714 576.454 437.315C578.315 436.927 579.884 435.943 581.762 435.823C583.771 435.695 585.786 435.706 587.635 436.443C590.003 437.388 591.96 437.657 594.483 437.529C595.535 437.475 596.196 437.206 597.128 436.7C597.972 436.241 599.755 435.402 600.409 434.826C602.073 433.361 602.71 430.974 605.125 430.168C606.645 429.661 608.641 430.045 610.222 430.043C612.206 430.041 613.792 429.796 615.696 429.399C617.72 428.976 620.531 429.919 622.42 429.133C622.862 427.063 621.984 425.194 623.224 423.397C624.445 421.627 626.727 421.212 628.258 419.767C631.023 417.159 632.8 413.531 636.199 411.794C637.587 411.086 638.21 409.862 639.512 409.325C640.239 409.026 641.389 409.311 642.112 408.767C643.323 407.856 642.659 407.59 643.125 406.227C643.214 405.967 644.325 403.834 644.668 403.643C645.58 403.139 645.918 403.934 646.755 404.182C648.301 404.639 651.19 404.733 652.753 404.26C653.657 401.816 651.754 400.573 650.552 398.987C649.272 397.296 648.347 395.16 649.12 392.874C651.344 392.259 652.192 393.404 653.969 394.343C654.647 394.701 655.218 394.737 655.883 395.212C657.147 396.117 656.605 396.534 657.511 397.571C661.049 401.617 663.432 396.594 665.132 393.66C666.412 394.263 667.358 396.165 668.73 396.782C670.277 397.476 672.139 396.414 673.682 396.837C675.413 397.311 675.143 399 676.743 399.438C678.83 400.01 680.273 399.53 680.876 397.568C681.539 395.407 681.881 394.515 683.91 393.577C685.508 392.838 686.432 392.382 687.697 393.551C688.373 394.176 688.131 395.126 689.49 395.156C690.266 395.173 690.823 394.595 691.483 394.211C692.5 393.621 693.958 392.318 694.962 391.999C696.065 391.649 697.529 391.955 698.686 391.939C700.419 391.913 700.946 391.835 702.089 393.133C704.422 395.784 706.853 398.392 709.049 401.046C710.141 402.365 711.828 403.275 713.462 402.561C714.75 401.999 715.941 399.509 717.14 402.006C717.675 403.12 716.983 404.085 717.162 405.167C717.366 406.407 718.297 407.246 719.116 408.024C720.56 409.397 722.773 411.434 724.118 408.725C724.437 411.347 726.675 412.894 728.809 413.738C729.94 414.185 730.556 414.349 731.67 413.747C732.414 413.346 732.819 411.786 733.817 412.508C734.477 414.791 734.127 417.665 734.84 419.871C735.859 418.918 736.407 416.504 737.134 415.179C738.158 415.042 740.497 417.428 740.843 418.449C741.339 419.911 739.848 421.986 741.451 423.067C742.964 421.288 743.513 418.826 744.73 416.852C745.65 417.158 746.523 418.573 747.724 419.066C748.678 419.458 749.737 419.618 750.659 420.079C751.288 420.394 751.876 421.429 752.304 421.634C753.357 422.137 754.426 421.039 755.528 420.899C756.62 420.763 758.193 421.447 758.993 420.411C758.893 421.549 758.97 422.69 758.946 423.83C758.92 425.138 758.142 426.403 758.232 427.582C759.255 428.372 760.159 428.363 760.573 429.77C760.884 430.826 760.125 432.19 760.149 433.272C761.135 433.592 762.417 433.438 763.445 433.376C764.52 433.311 766.436 432.258 767.332 432.423C768.353 432.613 768.315 434.023 769.515 434.283C771.443 434.699 771.872 432.32 773.339 431.782C776.949 430.459 776.744 434.922 778.627 436.694C779.817 437.814 781.029 438.125 781.026 440.192C781.024 442.097 779.715 443.088 778.476 444.123C777.227 445.167 775.632 445.658 775.507 447.624C775.389 449.498 776.905 450.253 777.735 451.579C779.127 453.801 778.936 456.824 778.109 459.219C777.96 460.086 777.64 460.87 777.15 461.569C776.598 462.02 776.118 462.549 775.71 463.156C774.924 465.283 776.72 465.406 777.038 467.095C777.208 467.998 776.586 470.666 776.223 471.507C775.693 472.736 774.339 473.109 774.954 474.697C776.174 474.791 776.739 473.182 777.769 474.68C778.402 475.601 777.71 476.936 777.666 477.903C777.552 480.399 778.316 480.111 780.583 480.803C782.14 481.279 782.191 481.608 783.088 482.633C783.105 483.114 783.226 483.568 783.451 483.994C784.304 484.519 785.187 484.56 786.096 484.116C787.685 484.01 787.305 483.715 788.202 485.165C789.1 486.618 789.126 487.745 790.545 488.714C791.614 489.444 793.281 489.854 794.487 490.245C794.538 488.914 795.19 483.602 797.459 484.784C797.918 486.479 797.945 489.642 797.63 491.391C797.305 493.203 796.188 494.735 796.872 496.761C797.431 498.415 799.385 499.352 798.482 501.286C797.977 502.365 796.175 502.727 795.453 503.725C794.847 504.563 794.573 505.997 794.059 506.954C796.872 511.165 804.633 502.177 808.105 502.2C809.189 505.577 803.855 509.32 802.137 511.227C800.407 513.145 798.259 514.68 796.78 516.841C795.651 518.492 794.59 521.535 794.596 523.606C797.035 523.742 797.584 520.946 800.178 521.543C801.895 521.938 802.505 522.414 803.881 520.79C804.597 522.182 804.012 523.785 805.507 524.448C806.885 525.059 808.374 523.796 809.593 525.247C810.366 526.169 809.6 526.579 810.89 527.349C811.754 527.865 812.611 527.766 813.545 527.814C814.894 527.882 815.624 528.261 816.916 528.554C818.097 528.821 819.023 528.116 819.622 529.373C820.206 530.597 819.133 532.989 818.905 534.101C818.327 536.917 816.259 540.422 816.524 543.265C816.408 542.331 817.144 541.28 817.615 540.674C819.397 541.939 821.198 544.939 820.571 547.013C819.862 549.359 817.716 550.725 817.24 552.811C816.829 554.616 817.249 557.639 818.005 559.287C817.89 560.144 818.253 560.666 819.093 560.854C820.122 561.012 821.07 560.795 821.94 560.201C823.423 560.743 823.166 561.835 823.45 563.356C824.648 563.391 825.917 562.014 827.052 562.651C827.239 563.574 827.582 565.991 827.035 566.824C825.882 568.579 824.934 566.351 823.766 565.932C822.292 565.405 820.735 566.234 819.542 567.104C818.549 567.83 817.158 570.105 815.932 569.977C815.483 569.215 815.304 568.316 814.869 567.555C814.137 566.272 813.03 565.659 812.054 564.659C810.642 563.209 809.334 561.326 808.409 559.478C807.553 561.058 807.234 561.75 805.926 562.807C804.973 563.576 803.669 563.831 802.843 564.573C800.715 566.482 803.735 571.098 800.014 572.112C799.009 569.884 798.4 567.69 797.297 565.519C796.771 564.485 796.444 563.405 796.067 562.279C795.742 561.306 795.678 559.485 795.035 558.837C794.389 559.474 790.713 563.542 789.958 563.39C788.298 563.053 789.085 559.277 787.775 558.291C786.218 557.117 785.014 559.854 784.393 561.214C783.275 563.665 783.11 565.838 780.903 567.566C777.727 566.655 780.385 558.563 780.174 555.917C779.785 551.025 776.197 553.284 773.72 555.316C772.462 556.347 769.807 557.518 769.68 559.241C769.619 560.053 770.156 560.632 769.855 561.376C769.416 562.467 768.212 562.699 767.424 563.397C764.364 566.103 766.536 570.291 766.515 574.02C766.509 574.905 766.171 576.687 766.421 577.498C766.846 578.873 768.493 579.851 769.185 581.218C769.939 582.708 770.827 584.337 770.044 586.01C769.12 587.981 767.483 588.122 767.242 590.409C767.082 591.926 767.124 594.012 767.442 595.517C767.789 597.167 768.822 599.049 766.873 599.865C766.055 600.206 764.871 599.723 764.036 599.82C763.259 599.91 762.676 600.284 761.951 600.493C760.127 601.019 756.39 601.449 755.149 603.179C756.414 604.92 759.355 613.132 756.719 614.69C755.064 615.668 754.588 613.208 753.068 614.947C751.8 616.398 752.377 617.915 752.042 619.622C750.339 620.203 746.917 618.706 745.579 620.517C744.422 622.082 745.839 625.539 746.256 627.222C747.14 630.8 744.299 629.324 743.14 632.154C742.307 634.189 744.136 636.058 744.403 637.926C745.21 643.561 738.14 642.471 735.443 641.061C733.677 640.138 731.547 641.157 730.274 642.9C728.388 645.483 730.99 646.201 732.43 647.25C734.07 648.443 734.528 651.203 735.443 653.087C736.304 654.857 737.149 656.549 738.082 658.276C739.39 660.7 740.605 660.3 743.023 660.342C745.56 660.386 746.988 661.479 749.086 662.841C750.883 664.007 753.022 663.733 755.143 663.666C757.793 663.582 757.5 661.051 758.015 658.685C758.152 658.051 757.965 656.688 758.254 656.138C758.759 655.17 761.243 654.866 762.045 655.496C762.885 656.157 762.41 657.045 762.84 657.877C763.39 658.943 765.539 660.197 766.596 660.299C767.577 659.319 767.471 658.377 768.734 657.626C769.45 657.348 770.171 657.087 770.897 656.843C771.508 656.482 772.071 656.044 772.581 655.529C774 654.915 775.006 654.498 776.37 653.685C777.661 652.914 778.905 652.205 780.177 651.41C781.149 650.804 782.185 650.105 783.152 649.547C784.218 648.932 785.112 648.914 786.265 648.541C788.492 647.819 790.768 647.934 793.004 647.268C795.598 646.497 798.466 646.987 800.677 648.541C802.581 649.879 802.741 652.116 802.916 654.583C803.095 657.089 803.688 659.581 804.415 662.038C804.752 663.175 805.471 664.184 805.777 665.309C806.047 666.3 805.759 667.324 806.06 668.207C807.672 666.173 808.69 662.479 809.346 659.853C809.728 658.323 809.533 656.862 809.887 655.368C810.283 653.693 810.464 652.773 810.473 650.884C810.478 649.845 810.754 648.611 810.095 647.946C809.076 646.921 806.927 648.661 805.896 648.431C803.323 647.858 804.761 643.296 804.318 641.403C799.879 642.393 801.381 634.451 801.381 631.361C801.381 627.377 800.476 621.388 801.535 617.658C802.754 620.267 803.305 622.892 804.204 625.569C805.033 628.034 805.768 630.501 807.787 632.115C813.642 636.797 811.349 624.485 812.089 622.338C814.803 621.283 818.113 624.107 818.755 619.755C818.938 618.51 818.324 616.855 819.495 616.131C821.508 614.885 821.951 618.12 823.378 618.71C824.612 617.466 824.635 614.642 826.05 613.529C827.393 612.472 829.219 614.366 830.364 615.331C831.592 614.734 831.865 612.606 832.454 611.42C832.856 610.614 833.4 609.716 833.928 608.978C834.776 607.793 835.684 607.008 836.412 605.707C837.158 604.374 837.828 602.95 838.896 601.874C839.673 601.092 840.72 600.77 841.398 599.906C842.066 599.054 842.318 597.55 842.779 596.552C843.261 595.508 843.479 594.162 843.967 593.217C844.587 592.019 846.041 591.88 845.241 590.042C844.077 589.991 843.16 589.638 842.996 588.267C842.771 586.396 843.536 586.862 844.751 586.654C848.228 586.057 846.404 582.175 849.093 580.935C850.536 580.268 851.191 581.238 852.365 579.858C853.3 578.758 853.719 576.935 854.767 575.823C855.905 574.614 856.905 574.18 857.853 572.755C858.986 571.051 858.667 570.71 859.035 568.808C859.227 567.818 859.937 565.41 860.468 564.658C861.342 563.418 861.924 564.465 862.806 563.436C864.478 561.484 863.499 555.627 863.522 553.203C863.555 549.709 866.114 548.005 868.841 546.521C869.787 546.006 871.282 544.788 872.212 545.6C873.266 546.519 872.363 549.025 872.566 550.262C876.163 552.338 882.659 551.236 886.175 549.289C886.886 548.895 887.338 548.328 888.178 548.425C889.122 548.535 888.968 549.13 889.658 549.392C892.562 550.492 896.089 548.959 898.803 547.636C900.458 546.83 900.979 546.507 902.735 547.636C904.747 548.929 905.467 549.385 907.987 549.339C911.314 549.278 913.182 549.384 915.823 546.847C915.326 544.935 916.999 546.088 918.247 545.999C919.166 545.935 920.217 545.933 921.146 545.999C921.955 546.057 922.715 546.656 923.405 546.706C925.097 546.827 927.012 545.326 928.724 545.131C930.506 544.929 932.334 547.049 933.634 548.16C936.814 550.88 938.467 554.538 942.73 555.162C943.489 555.273 944.302 555.058 945.067 555.091C946.467 555.154 946.899 555.673 948.062 556.302C950.175 557.445 950.853 555.89 952.843 555.996C955.234 564.271 936.806 560.174 933.424 559.457C929.735 558.674 926.183 559.966 922.684 558.237C920.911 557.36 919.255 556.826 917.338 556.79C915.279 556.752 913.743 556.435 911.719 556.03C910.001 555.687 907.96 555.518 907.432 557.599C906.984 559.36 907.433 562.18 909.156 562.688C912.31 563.619 916.34 562.037 919.613 562.65C922.26 563.146 922.737 565.466 924.918 566.584C926.474 567.382 928.985 567.1 928.833 569.838C928.71 572.065 925.725 573.175 924.18 574.184C922.175 575.494 920.413 576.512 918.121 576.807C918.219 578.349 922.268 578.997 923.402 579.198C925.443 579.556 927.196 578.859 929.057 578.397C930.677 577.994 933.408 577.861 934.354 579.602C935.825 582.309 934.263 583.886 938.118 584.156C940.237 584.305 941.536 584.799 942.199 587.419C942.818 589.871 941.965 591.261 944.626 592.219C946.41 592.86 948.225 593.448 949.968 594.273C951.635 595.064 952.746 596.162 954.476 596.751C956.225 597.348 958.078 597.717 959.989 597.441C961.956 597.157 963.148 595.35 965.087 594.874C966.655 594.488 968.14 594.029 969.803 594.066C972.086 594.117 973.051 593.529 975.108 592.614C976.764 591.877 978.46 590.948 980.204 590.733C982.298 590.475 984.608 590.76 986.712 590.752C989.304 590.743 991.019 590.883 993.445 591.995C994.215 592.353 994.936 592.95 995.754 593.176C996.865 593.487 997.985 592.962 999.115 593.32C999.349 594.421 998.658 596.564 999.106 597.458C999.651 598.567 1002.24 598.481 1003.28 598.658C1007.1 599.318 1006.96 595.24 1009.02 592.844C1010.91 593.011 1011.16 597.879 1011.34 599.482C1011.47 600.596 1011.12 601.464 1011.99 602.393C1013.15 603.646 1015.5 603.009 1015.88 605.243C1016.16 606.86 1014.69 607.351 1013.78 608.35C1013.19 608.987 1012.78 610.057 1012.05 610.533C1011.69 610.776 1010.95 610.631 1010.57 610.813C1008.12 611.998 1005.7 612.572 1003.33 613.972C998.024 617.109 992.812 620.796 987.199 623.288C985.114 624.21 983.049 625.452 981.022 626.558C979.755 627.25 978.333 627.934 977.193 628.832C976.618 629.289 976.413 630.021 975.712 630.377C975.205 630.634 974.533 630.456 974.017 630.654C968.717 632.675 966.305 639.469 961.749 642.122C959.898 643.198 956.311 644.992 955.348 647.084C955.03 647.778 954.705 649.26 954.544 649.983C954.095 652.007 954.67 652.32 955.811 653.711C956.622 654.699 957.102 655.941 958.208 656.578C959.382 657.253 960.762 657.094 962.056 657.037C964.068 656.95 964.686 656.365 966.412 655.344C967.745 654.557 969.216 654.233 970.581 653.53C971.893 652.854 972.713 652.072 974.192 652.023C975.683 651.974 976.277 651.624 977.661 651.297C979.015 650.973 983.624 650.528 984.841 651.352C986.654 652.573 985.221 657.48 985.494 659.486C985.923 662.682 990.161 664.049 992.763 664.411C994.497 664.655 995.335 664.72 996.914 665.621C998.19 666.347 999.301 666.893 1000.71 666.984C1002.98 667.134 1006.99 667.759 1008.95 666.404C1009.54 667.619 1008.75 669.737 1007.54 670.193C1006.24 670.685 1005.75 669.381 1004.54 669.491C1003.91 671.745 1009.08 674.734 1010.03 676.888C1011.07 679.276 1010.8 682.76 1010.01 685.172C1009.54 686.574 1008.51 687.961 1008.21 689.378C1007.98 690.441 1008.28 692.198 1008.28 693.29C1008.28 696.105 1008.03 698.226 1007.45 700.922C1006.87 703.575 1005.97 706.311 1004.88 708.768C1004.18 710.369 1003.64 711.529 1002.67 712.981C1001.95 714.076 1000.56 714.903 1000.05 715.98C997.927 720.448 1004.32 718.6 1005.88 719.283C1007.5 719.994 1007.44 721.678 1008.25 723.113C1008.93 724.318 1010.46 726.145 1011.7 726.578C1013.97 727.37 1016.2 726.281 1018.51 727.44C1019.51 727.934 1020.47 728.38 1021.53 728.69C1022.94 729.107 1024.29 728.928 1025.71 729.28C1027.35 729.691 1029.02 729.702 1030.68 730.106C1032.2 730.473 1033.39 731.035 1035.02 730.793C1037.83 730.376 1041.3 729.065 1043.76 727.64C1046.47 726.071 1048.43 723.852 1050.69 721.64C1053.24 719.15 1056.24 716.956 1058.71 714.45C1059.95 713.173 1060.02 711.949 1060.65 710.449C1061.12 709.323 1061.92 708.274 1062.48 707.143C1063.28 705.536 1063.7 704.947 1065.13 703.83C1066.5 702.744 1067.54 701.053 1068.9 700.04C1069.92 699.278 1071.44 698.839 1072.67 698.614C1073.71 698.421 1074.37 698.345 1075.4 698.623C1075.63 698.685 1076.78 699.438 1077.29 699.237C1078.8 698.64 1078.54 696.308 1080.44 695.882C1081.75 695.588 1084.25 695.665 1085.6 695.914C1087.33 696.238 1087.6 696.568 1089.33 696.163C1091.29 695.706 1093.49 696.541 1095.37 696.018C1097.11 695.533 1096.62 694.938 1097.09 693.306C1097.69 691.24 1099.42 689.184 1100.74 687.646C1103.24 684.72 1107 683.914 1109.53 681.048C1111.52 678.775 1112.22 674.831 1115.12 673.718C1116.39 673.23 1118.55 673.988 1119.75 674.592C1121.62 675.53 1121.88 676.341 1121.99 678.379C1122.08 680.095 1122.12 680.898 1123.63 681.938C1124.56 682.585 1127.33 683.486 1128.43 683.399C1131.02 683.194 1133.1 681.005 1135.9 681.04C1138.92 681.078 1142.54 681.649 1145.31 680.036C1146.65 679.265 1147.39 678.118 1149.1 678.485C1150.52 678.794 1151.32 679.988 1152.8 680.279C1154.58 680.628 1156.15 679.957 1157.8 679.575C1159.16 679.26 1160.87 679.833 1162.14 679.263C1164.91 678.025 1164.71 673.954 1164.25 671.334C1163.64 667.943 1163.11 664.507 1164.38 661.138C1164.96 659.599 1165.9 658.493 1167.07 657.402C1168.33 656.221 1168.59 656.453 1170.07 656.119C1171.5 655.796 1172.43 655.45 1173.92 655.367C1175.47 655.281 1175.73 655.562 1175.83 653.747C1175.96 651.299 1174.12 650.424 1172.57 649.184C1170.95 647.895 1170 646.702 1168.2 645.743C1166.26 644.706 1164.81 644.117 1162.66 643.546C1160.24 642.906 1157.88 642.964 1155.42 642.529C1152.43 642.001 1146.8 640.879 1144.13 642.84C1142.83 643.788 1141.74 646.034 1140.92 647.475C1140.24 648.681 1139.46 651.194 1138.31 651.942C1134.96 654.127 1134.45 647.618 1132.23 647.048C1130.87 646.696 1129.66 647.134 1128.64 648.037C1126.69 649.769 1125.13 651.361 1122.88 652.698C1121.43 653.56 1120.17 654.644 1118.64 655.399C1117.29 656.059 1115.59 656.376 1114.35 657.19C1113.25 657.921 1112.19 660.474 1110.81 660.315C1109.77 660.194 1108.9 656.588 1107.72 656.246C1106.8 658.466 1108.65 661.734 1106.91 663.671C1105.24 663.579 1103.8 661.259 1102.43 660.292C1100.95 659.238 1099.68 658.167 1098.26 656.985C1096.07 655.139 1093.25 655.577 1091.6 652.883C1090.75 651.483 1089.76 649.618 1090.29 647.89C1090.99 645.66 1093.39 645.594 1094.26 643.364C1095.09 641.203 1093.22 639.096 1092.26 636.958C1091.05 634.246 1088.76 632.073 1087.09 629.664C1085.8 627.812 1084.86 624.14 1082.56 623.185C1081.88 622.899 1080.11 623.536 1079.64 622.954C1078.97 622.116 1079.73 620.053 1079.46 618.984C1077.97 618.317 1076.67 619.433 1075.73 620.577C1074.12 620.025 1074.36 617.969 1073.5 616.753C1072.45 615.289 1071.3 616.437 1070.34 615.69C1069.26 614.853 1070.25 614.12 1069.79 613.076C1069.21 611.741 1067.78 611.578 1066.59 611.419C1065.37 611.258 1064.88 611.645 1064.41 610.187C1063.82 608.411 1065.21 607.739 1063.34 606.656C1062.08 605.916 1060.56 605.644 1059.22 604.811C1058.24 604.201 1057.27 603.693 1056.24 603.181C1053.77 601.955 1051.63 601.521 1049.64 599.45C1047.62 597.346 1044.94 596.951 1042.36 596.551C1040.56 596.273 1038.33 595.833 1036.68 594.925C1034.73 593.851 1033.3 592.178 1031.21 591.334C1029.13 590.497 1027.22 591.244 1025.14 590.812C1023.28 590.424 1023.9 589.832 1023.06 588.654C1023.19 588.257 1023.09 587.926 1022.75 587.661C1021.98 587.579 1021.48 587.121 1021.22 586.287C1019.92 582.588 1024.05 582.188 1026.1 582.639C1029.04 583.282 1031.43 585.384 1034.26 586.402C1035.16 586.723 1036.34 586.942 1037.1 587.558C1038.04 588.318 1038.31 590.112 1039.37 590.673C1042.04 592.112 1042.82 589.085 1044.04 587.402C1046.4 584.128 1047.65 587.254 1050.01 588.144C1051.88 588.847 1054.2 588.092 1055.92 587.502C1056.93 590.617 1056.79 594.568 1056.8 597.896C1056.8 599.258 1057.8 599.558 1058.4 600.797C1059.23 602.499 1060.02 601.78 1061.25 600.797C1062.66 599.663 1062.34 599.5 1062.38 597.69C1062.45 595.059 1064.28 593.774 1066.67 592.512C1068.46 591.568 1069.74 591.752 1071.02 589.94C1072.02 588.526 1072.31 586.361 1073.43 585.158C1074.81 585.902 1075.25 587.587 1076.95 587.443C1078.75 587.289 1079.93 585.09 1081.35 584.144C1083.58 582.656 1085.38 581.637 1087.22 579.539C1088.08 578.57 1089.55 576.712 1090.86 576.567C1092.27 576.411 1093.86 577.807 1095.49 577.573C1097.57 577.272 1098.55 575.723 1099.53 573.862C1100.47 572.082 1101.44 571.064 1103.04 570.02C1104.94 568.781 1105.06 568.324 1105.43 565.979C1106.28 565.707 1107.18 565.947 1108.07 565.93C1109.9 565.897 1111.57 565.364 1113.32 564.828C1115.68 564.103 1115.47 565.334 1117.8 565.594C1119.14 565.742 1121.35 564.94 1121.85 563.434C1122.31 562.091 1121.77 561.604 1122.54 560.365C1123.79 558.374 1126.23 557.511 1128.14 556.522C1131.05 555.006 1133.97 553.541 1136.98 552.277C1140.95 550.616 1145.17 548.789 1149.31 547.843C1150.77 547.511 1152.27 547.704 1153.76 547.694C1155.73 547.681 1157.39 547.096 1159.29 546.804C1162.4 546.327 1164.3 548.145 1165.17 544.151C1166.01 540.34 1169.49 538.928 1172.75 537.943C1175.52 537.105 1177.81 536.055 1180.69 536.081C1182.27 536.095 1183.86 536.09 1185.45 536.081C1186.94 536.071 1188.34 536.529 1189.8 536.554C1191.42 536.581 1192.47 535.954 1193.61 534.863C1194.53 533.999 1194.88 532.68 1195.64 531.877C1196.67 530.783 1197.87 531.059 1199.27 531.094C1199.82 531.108 1200.26 531.016 1200.8 531.147C1201.76 531.378 1202.27 532.364 1203.08 532.639C1205.96 533.613 1207.27 528.517 1208.38 526.487C1210.15 523.278 1210.77 519.883 1214.05 517.813C1216.83 516.066 1219.18 514.274 1222.22 513.11C1223.81 512.501 1224.38 511.195 1225.77 510.523C1227.23 509.809 1228.34 510.676 1229.54 511.226C1232.66 512.666 1236.68 512.054 1240.09 512.054C1242.95 512.054 1247.47 510.906 1249.38 513.876C1250.28 515.276 1249.9 517.458 1252.14 516.953C1253.64 516.616 1254.55 514.266 1255.37 513.07C1255.75 512.508 1256.27 511.611 1256.84 511.164C1257.63 510.537 1258.73 510.616 1259.43 509.913C1260.06 509.269 1260.51 507.28 1260.67 506.255C1260.65 503.963 1260.76 502.176 1260.01 500.034C1259.3 498.034 1257.64 496.771 1257.03 494.658C1256.37 492.324 1258.09 491.702 1258.45 489.687C1258.59 488.92 1258.09 487.926 1258.3 487.186C1258.83 485.286 1260.1 486.313 1261.1 485.505C1262.45 484.41 1263.27 481.667 1262.77 479.744C1262.25 477.735 1262.19 476.11 1262.19 473.948C1262.19 472.015 1262.2 470.084 1262.19 468.151C1262.18 467.54 1261.91 466.185 1262.13 465.607C1262.69 464.151 1263.68 465.056 1264.92 465.364C1265.24 464.867 1265.36 464.316 1265.32 463.711C1267.18 463.598 1268.77 465.132 1270.48 464.729C1272.27 464.305 1273.08 461.96 1274.66 461.484C1276.02 461.076 1278.53 462.356 1279.71 461.396C1281.26 460.141 1279.49 457.901 1281.86 457.317C1284.4 456.688 1284.95 458.138 1284.93 454.557C1284.92 452.963 1285.31 451.422 1285.65 449.926C1286.31 446.98 1288.62 448.279 1290.28 446.672C1291.59 445.399 1291.61 443.435 1291.82 441.764C1294.68 440.935 1297.34 442.181 1300.04 442.488C1301.68 442.673 1303.23 441.866 1304.45 443.234C1305.9 444.832 1305.63 446.379 1308.24 445.632C1309.66 445.229 1310.83 444.006 1312.19 443.48C1313.55 442.954 1315.02 442.503 1316.41 442.017C1318.9 441.138 1317.62 442.971 1319.44 444.012C1320.53 444.634 1323.37 444.479 1323.58 442.732C1324.33 446.338 1328.96 445.688 1331.17 445.137C1333.57 444.542 1336.28 444.774 1338.62 443.999C1338.75 441.232 1340.32 441.275 1341.63 439.173C1342.78 437.335 1342.14 435.297 1342.68 433.358C1343.26 431.227 1344.71 430.511 1344.81 428.2C1344.86 427.047 1345.3 423.304 1344.09 422.85C1343.3 423.295 1342.73 424.211 1341.82 424.185C1341.65 422.443 1343.44 422.091 1344.45 421.351C1345.87 420.316 1345.74 419.646 1345.03 417.754C1346.89 416.659 1347.31 416.688 1347.83 414.715C1348.37 412.687 1349.23 412.319 1350.42 410.575C1352.12 408.098 1351.59 405.038 1353.66 402.626C1352.28 402.824 1350.49 402.24 1349.29 403.29C1348.17 404.26 1348.69 406.024 1347.04 406.617C1346.22 405.896 1344.27 402.375 1344.87 401.21C1345.2 400.584 1346.82 400.276 1347.33 399.41C1347.78 398.656 1347.87 397.779 1347.86 396.905C1347.84 392.753 1343.66 391.097 1343.24 386.922C1342.9 383.495 1344.84 378.567 1341 377.208C1339.23 376.578 1338.27 376.218 1337.56 374.123C1337.02 372.525 1337.04 370.747 1337.57 369.155C1338.24 367.088 1339.17 365.875 1340.84 364.782C1342 364.016 1342.28 364.509 1342.57 362.96C1342.7 362.341 1342.18 360.924 1342.42 360.381C1343.27 358.536 1345.77 361.609 1347.09 361.944C1348.49 362.299 1349.86 362.185 1351.21 361.736C1353 361.137 1354.69 360.102 1355.25 358.013C1355.58 356.771 1355.96 353.159 1354.7 352.297C1353.98 351.804 1350.92 351.927 1350.12 352.109C1348.26 352.529 1347.04 354.576 1344.95 353.706C1344.61 350.036 1342.27 352.491 1340.8 353.554C1339.21 352.112 1339.71 348.922 1338.29 347.201C1336.88 345.492 1334.08 344.428 1335.02 341.527C1338.64 340.253 1342.4 343.977 1345.55 341.05C1347 339.694 1348.61 336.72 1349.19 334.778C1349.57 333.565 1349.3 332.609 1350.08 331.581C1350.38 331.193 1351.32 330.518 1351.75 330.222C1353.75 328.812 1355.17 328.348 1356.92 326.472C1358.78 324.486 1359.92 325.392 1362.1 324.249C1363.76 323.372 1364.12 321.26 1362.26 320.025C1361.44 319.48 1360.31 319.881 1360.01 318.453C1359.68 316.873 1361.11 316.61 1361.44 315.309C1362.1 312.707 1359.8 311.825 1358.44 310.266C1356.45 307.99 1355.29 306.943 1355.39 303.79C1355.49 300.817 1355.95 300.734 1358.07 299.278C1359.08 298.577 1359.43 298.591 1359.99 297.192C1360.33 296.335 1360.51 295.464 1360.8 294.6C1361.63 292.164 1361.64 291.465 1358.8 290.933C1357.33 290.659 1354.9 290.554 1353.44 290.903C1351.17 291.443 1350.37 293.895 1348.14 294.221C1346.58 294.448 1343.32 294.548 1341.84 294.103C1341.63 293.029 1341.9 292.035 1341.65 290.968C1339.68 290.751 1338.17 289.412 1336.42 288.545C1334.55 287.617 1333.21 287.651 1333.37 284.727C1333.42 283.841 1333.98 283.049 1333.71 282.266C1333.54 281.76 1332.37 280.869 1331.9 280.495C1330.17 279.083 1328.49 279.566 1326.56 278.67C1324.96 277.924 1324.17 277.659 1322.44 277.624C1320.29 277.581 1318.84 276.489 1316.96 275.334C1314.63 273.904 1312.64 273.589 1311.26 271.212C1309.93 268.907 1309.96 267.919 1309.93 265.189V266.017C1310.06 265.266 1310.03 264.522 1309.85 263.783C1308.4 263 1305.77 265.907 1304.45 266.642C1302.68 267.636 1301.09 269.335 1299.15 269.972C1297.81 270.413 1294.93 271.743 1293.74 270.548C1292.44 269.261 1294.12 266.945 1292.85 265.636C1291.61 264.364 1289.88 265.429 1288.73 266.033C1287.6 266.631 1287.28 267.423 1286 266.136C1285.3 265.428 1284.99 263.644 1284.89 262.658C1284.65 260.397 1285.13 258.955 1284.16 256.886C1283.31 255.069 1283.73 254.032 1283.33 252.043C1279.33 250.55 1280.67 255.973 1278.55 257.324C1276.2 258.806 1274.49 254.178 1271.66 255.259C1270.37 255.749 1269.62 258.931 1267.81 257.686C1266.77 256.967 1266.77 254.737 1266.71 253.572C1266.65 252.13 1266.84 251.504 1266.02 250.277C1265.62 249.693 1264.84 249.332 1264.56 248.621C1264.3 247.924 1264.67 247.177 1264.43 246.512C1263.88 245.035 1262.47 245.048 1261.11 245.371C1259.85 245.675 1258.6 245.917 1257.31 246.21C1253.9 246.983 1255.93 250.193 1256.14 252.744C1256.28 254.544 1256.73 258.458 1255.45 259.65C1253.56 261.425 1253.03 258.974 1251.88 258.563C1250.4 258.033 1249.5 260.356 1248.65 261.259C1248 259.402 1248.94 257.154 1248.59 255.248C1248.2 253.083 1245.78 251.315 1244.03 250.488C1242.07 249.558 1239.94 249.142 1237.93 248.417C1235.92 247.693 1233.93 248.173 1232.21 246.658C1230.5 245.16 1231.1 242.827 1231.11 240.478C1231.12 238.172 1230.67 236.551 1230.16 234.354C1229.63 232.019 1228.83 229.442 1228.82 227.043C1228.82 226.357 1229.07 225.416 1228.71 224.781C1228.08 223.671 1229.65 224.885 1230.03 223.036L1230.35 223.768C1230.25 223.524 1230.14 223.28 1230.03 223.036C1229.16 222.889 1227.43 223.47 1226.56 223.728C1225.45 224.061 1225.26 224.777 1224.32 225.466C1222.03 227.165 1220.57 226.234 1220.49 223.384C1220.43 221.027 1220.52 219.355 1219.93 217.184C1219.32 214.958 1219.34 212.775 1218.91 210.6C1216.16 210.379 1212.89 213.451 1211.37 215.645C1210.08 217.499 1210.5 218.765 1208.37 219.869C1207.05 220.558 1206.05 220.461 1204.58 220.453C1201.82 220.439 1199.34 220.926 1196.7 221.688C1195.24 222.107 1193.76 222.817 1192.25 222.983C1190.71 223.152 1189.27 222.789 1187.74 223.127C1184.73 223.796 1182.19 225.208 1179.55 226.877C1178.25 227.706 1177.31 228.526 1176.51 229.981C1175.77 231.339 1175.65 232.331 1174.3 233.121C1169.37 236.033 1172.59 229.411 1170.82 227.528C1170.13 226.782 1168.24 226.755 1167.28 226.27C1165.56 225.406 1164.66 224.794 1163.49 223.188C1161.69 224.548 1158.8 229.927 1156.52 226.744C1154.91 224.497 1154.47 218.94 1151.54 218.736C1149.38 218.585 1149.1 219.129 1148.39 216.765C1147.99 215.432 1148 213.15 1147.21 212.093C1145.53 209.873 1141.38 212.055 1139.4 212.976C1138.7 213.305 1138.15 213.806 1137.48 214.173C1136.88 214.501 1136.2 214.501 1135.61 214.797C1134.25 215.482 1133.31 217.337 1132.2 218.413C1129.95 220.616 1127.24 221.305 1124.29 221.284C1122.89 221.274 1121.46 221.358 1120.06 221.298C1118.12 221.215 1118.19 220.844 1118.17 218.771C1118.15 217.505 1117.97 215.895 1118.15 214.653C1118.41 212.885 1119.67 211.334 1120.55 209.867C1120.66 212.034 1119.3 212.93 1117.42 212.083C1115.48 211.202 1114.58 208.378 1113.28 206.788C1111.92 205.139 1111.7 204.708 1111.29 202.645C1110.96 200.99 1110.26 199.578 1109.36 198.232C1109.69 198.119 1110.01 198.01 1110.35 197.903C1109.89 197.411 1108.6 197.157 1108.39 196.475C1108.1 195.582 1109.12 194.333 1109.82 194.052C1110.86 193.633 1114.41 194.526 1115.15 195.603C1112.91 195.089 1111.12 191.08 1111.52 189.16C1111.78 188.011 1111.98 186.796 1112.27 185.662C1112.7 183.931 1114.05 182.998 1114.96 181.645C1113.6 181.117 1112.1 181.804 1110.72 181.438C1110.28 179.63 1111.02 177.622 1110.49 175.862C1107.79 175.853 1109.03 173.971 1108.39 172.346C1107.85 170.996 1105.86 171.563 1104.96 170.281C1104.38 169.468 1103.36 166.053 1103.84 165.1C1104.61 163.587 1107.73 164.428 1108.95 164.041C1109.11 163.169 1110.1 160.635 1109.77 159.9C1109.46 159.205 1107.47 158.686 1106.81 158.512C1104.64 157.932 1102.21 158.479 1099.98 158.344C1097.6 158.2 1095.54 156.933 1095.43 154.202C1095.32 151.442 1095.55 148.662 1095.48 145.901C1095.44 144.188 1095.02 142.693 1093.15 143.003C1092.09 143.177 1091.57 144.031 1090.58 144.277C1089 144.669 1088.18 143.898 1087.08 143.095C1085.72 142.11 1085.82 141.796 1084.46 143.284C1083.7 144.106 1082.63 145.331 1081.46 145.473C1080.13 145.631 1078.93 143.669 1077.57 144.224C1076.06 144.838 1076.96 146.438 1076.11 147.523C1075.35 148.51 1073.13 148.712 1072.06 148.298C1071.66 145.269 1069.83 143.249 1068.55 140.507C1066.95 137.103 1064.82 138.782 1062.1 139.314C1061.35 139.46 1059.81 139.491 1059.07 139.33C1057.62 139.018 1057.28 137.435 1056.04 136.892C1052.79 135.483 1052.58 141.245 1050.77 142.334C1047.35 140.716 1048.15 135.684 1049.22 132.644C1049.63 131.426 1050.5 129.582 1050.61 128.299C1050.85 125.483 1048.03 125.927 1047.17 123.505C1048.25 121.887 1049.22 120.993 1049.89 118.966C1050.31 117.675 1051.36 115.902 1051.45 114.606C1048.91 113.405 1047.1 113.255 1048.26 110.277C1049.56 106.965 1047.09 108.995 1046.21 106.518C1045.32 104.03 1047.28 102.11 1043.93 101.977C1041.35 101.875 1039.66 102.383 1038.03 99.6301C1039.67 99.104 1041.23 99.8793 1042.77 99.031C1044.66 97.998 1045.46 97.0671 1047.73 97.0034C1049.46 96.9555 1051.03 97.0225 1052.66 97.4434C1054.72 97.9778 1055.82 97.3767 1056.08 94.7159C1056.24 93.1865 1056.23 91.0256 1056.05 89.5242C1055.79 87.4881 1054.7 86.302 1053.59 84.5993C1052.59 83.0588 1051.39 82.3004 1049.98 81.3021C1049.22 80.7633 1048.05 80.0678 1047.78 79.0278C1047.55 78.0524 1048.63 77.2088 1047.79 76.3979C1046.5 76.2648 1045.38 77.9076 1044 77.0348C1043.03 76.4195 1043.6 76.2874 1043.3 75.4812C1043.41 75.1908 1043.51 74.9003 1043.61 74.6101C1043.49 74.1583 1043.22 73.8972 1042.82 73.8274C1042.39 73.2819 1041.66 73.4226 1041.35 72.6158C1041.09 71.9215 1041.54 71.6352 1041.46 70.9264C1041.24 68.7997 1041.08 69.235 1042.17 67.1573C1041.38 65.6125 1038.52 66.2551 1038.49 63.8806C1038.49 63.1894 1039.1 62.3994 1039.27 61.7447C1039.51 60.79 1039.68 59.8261 1039.93 58.8733C1040.43 56.9661 1040.78 56.6921 1039.56 55.3755C1038.49 54.2199 1037.76 53.6629 1036.9 52.2861C1036.55 51.7296 1036 51.222 1035.72 50.632C1035.25 49.6609 1035.61 48.9822 1035.29 48.1467C1034.69 46.5656 1032.47 45.8948 1031.36 44.833C1030.12 43.6411 1030.38 42.825 1029.92 41.1295C1029.08 37.9958 1028.44 38.7101 1026.02 38.1321C1025.3 36.7356 1025.9 34.582 1023.85 34.8794C1021.97 35.1532 1020.62 37.6898 1018.72 38.2455C1015.95 39.0594 1012.68 39.488 1009.81 39.8995C1007.49 40.2324 1005.38 39.2184 1003.15 39.189C1003.43 39.7033 1003.83 39.9156 1004.37 39.826C1004.97 38.1501 1004.15 36.2761 1002.6 35.7486C1000.92 35.1743 1000.46 36.3324 999.184 37.0089C996.904 38.2292 993.523 37.434 991.272 36.5091C989.84 35.9168 988.106 35.9147 987.014 37.3212C985.972 38.6639 986.381 40.2522 985.27 41.5813C984.734 42.2175 983.302 43.5027 982.532 43.6595C981.753 43.8174 981.168 43.1461 980.213 43.6126C979.453 43.9859 979.034 44.6862 978.537 45.3947C977.651 44.5642 976.443 43.1766 975.098 43.4695L976.862 43.9249C975.751 43.5343 974.319 44.2474 973.138 44.1083C969.251 43.6491 963.867 44.9484 960.082 43.9249C958.55 43.9538 959.973 44.1005 958.78 43.208C957.453 42.2158 956.815 42.5013 955.191 42.3701C952.685 42.1674 949.527 39.9246 947.963 43.5531C947.22 45.2735 948.847 46.8515 948.334 48.2089C947.808 49.5988 945.21 49.6311 944.339 50.6239C941.449 53.9198 948.898 54.6681 947.004 57.7411C946.388 58.7404 944.33 59.121 943.451 59.6441C941.96 60.5311 942.731 60.304 942.405 62.2326C941.819 65.7096 938.839 66.2634 936.285 66.3555C933.387 66.4599 931.31 71.8456 928.771 70.0745C927.66 69.299 927.52 67.9074 926.486 67.1837C925.177 66.2669 923.386 66.6825 921.982 66.2684C921.583 65.1047 922.635 61.5211 921.788 60.7037C920.697 59.651 917.82 61.2846 916.582 61.4203C913.919 61.7124 909.698 62.0596 907.105 61.3384C905.302 60.8373 904.142 59.8038 902.141 59.725C900.74 59.6699 899.05 59.4711 897.674 59.6852C893.479 60.3375 893.266 66.5159 889.899 68.5606C887.605 67.1033 886.577 64.0081 883.824 63.2288C882.411 62.8289 879.683 62.664 878.306 63.099C876.712 63.6023 874.318 65.869 873.157 67.1835C871.986 68.5085 871.896 68.5579 871.831 70.3291C871.802 71.1419 872.257 72.948 871.788 73.659C870.558 75.5268 867.924 73.6025 867.262 76.299C866.707 78.5638 868.32 81.5754 865.043 82.1704C864.444 82.279 863.365 81.6666 862.884 82.2173C862.269 82.9197 862.995 84.4077 862.825 85.2598C862.239 88.2126 859.784 86.2194 858.167 88.2624C856.705 90.1082 858.209 92.2415 857.433 94.1556C856.982 95.2683 855.966 95.4513 855.172 96.3357C854.502 97.0827 853.814 98.4845 853.617 99.5298C853.453 100.404 853.887 101.32 853.562 102.22C853.034 103.68 851.76 103.768 851.347 105.242C850.849 107.017 851.416 109.566 852.327 111.105C853.029 112.292 853.574 112.617 853.639 113.983C853.723 115.728 852.658 115.512 853.603 117.315C854.45 118.934 857.187 120.281 857.536 121.835C857.819 123.098 856.792 124.586 856.666 125.832C856.584 126.659 856.639 127.677 856.689 128.499C856.753 129.578 856.781 129.988 857.238 130.987C857.665 131.92 859.074 133.087 858.922 134.14C857.034 134.387 855.93 136.338 855.858 138.315C854.193 138.902 852.337 138.101 850.643 138.416C849.58 138.614 849.381 139.004 848.387 138.564C847.301 138.084 846.462 136.085 845.505 135.254C844.292 134.201 842.067 134.772 841.496 133.55C840.67 131.782 842.462 129.089 842.339 127.261C842.17 124.756 840.98 123.883 838.874 123.502C837.128 123.187 835.966 122.977 834.347 121.897C833.576 121.383 832.936 120.606 832.102 120.267C831.26 119.925 830.031 120.047 829.108 119.807C828.422 119.628 827.537 118.904 826.807 119.414C826.038 119.949 826.593 121.147 825.688 121.857C823.616 121.647 823.95 118.491 821.214 119.317C819.948 119.699 819.273 121.383 818.679 122.663C817.141 122.326 816.39 120.57 814.657 121.033C813.089 121.451 812.067 123.474 811.885 125.098C807.079 127.21 807.637 116.058 809.054 113.822C808.447 115.296 807.756 116.133 807.377 117.733C806.959 119.491 805.749 120.62 804.411 121.688C803.603 122.334 802.372 123.437 801.379 123.61C799.676 123.907 799.154 121.895 797.719 121.892C797.367 124.293 796.304 127.202 793.901 127.643C792.87 127.831 791.773 127.413 790.771 127.634C789.753 127.859 788.842 129.01 787.81 128.859C787.785 127.791 788.37 127.14 788.461 126.114C787.054 125.812 785.81 126.387 784.651 125.245C783.59 124.199 783.215 122.12 783.162 120.702C783.115 119.412 783.337 118.116 783.161 116.834C782.887 114.842 781.619 113.874 780.844 112.182C780.8 112.94 781.027 113.714 781.544 114.217C781.567 113.101 781 112.206 780.872 111.1C780.763 110.165 781.208 109.153 780.887 108.24C780.499 107.136 778.346 106.115 777.145 106.034C775.863 105.947 773.218 108.393 772.503 109.449C771.204 111.367 772.225 113.13 769.203 112.729C767.497 112.503 765.594 111.381 763.828 111.89C762.831 112.177 763.191 112.122 762.56 112.888C762.29 113.216 760.75 115.587 760.565 116.095C760.088 117.403 760.356 118.978 759.9 120.403C759.285 122.32 758.557 124.07 758.029 125.996C756.736 125.772 757.153 123.973 756.155 123.528C755.101 123.058 754.053 123.856 753.01 123.867C752.101 121.751 751.87 119.453 751.423 117.218C750.818 114.182 751.768 113.13 753.631 111.106C753.427 111.058 753.222 111.011 753.017 110.965C752.628 105.791 747.199 106.604 744.094 107.865C742.328 108.581 740.758 110.073 738.853 110.309C738.109 110.4 737.3 110.017 736.578 110.278C735.243 110.761 734.901 112.584 733.911 113.613C732.467 113.39 730.931 107.204 730.489 105.689C729.775 103.249 730.745 100.433 730.022 98.0592C727.515 100.621 726.982 104.312 724.848 107.007C723.903 108.201 722.599 109.707 721.449 110.619C720.748 111.176 717.986 113.026 717.198 112.7C716.366 112.354 715.927 110.26 715.733 109.452C715.255 107.478 715.087 107.256 713.062 106.935C710.533 106.533 707.886 104.513 705.222 105.39C704.898 106.684 704.797 109.792 705.255 111.106C706.007 113.26 707.477 113.288 705.94 115.433C705.345 116.262 704.384 116.823 703.778 117.749C703.226 118.593 703.272 119.547 702.095 119.367C700.621 119.141 699.858 114.372 699.813 113.177C699.751 111.522 699.879 109.856 699.826 108.2C699.744 105.564 699.095 106.109 696.787 106.136C695.684 106.148 692.527 105.235 691.9 105.715C690.901 106.481 690.711 110.681 690.653 111.911C689.519 111.721 689.077 110.561 688.144 110.01C687.435 109.591 687.266 109.651 686.55 109.433C685.281 109.048 684.127 108.638 682.768 108.613C681.64 108.592 680.325 108.979 679.342 108.311C677.962 107.373 677.866 105.289 677.768 103.792C675.187 103.302 674.074 102.871 674.045 99.9228C674.027 97.922 674.721 94.2839 673.365 92.8032C672.02 91.3324 669.306 92.0794 667.547 92.0464C665.115 92.0009 663.842 93.4061 661.555 93.6924C660.456 93.83 659.53 94.5336 658.474 93.8148C657.471 93.1328 657.631 91.761 656.278 91.2497C653.835 90.326 652.258 93.4 650.242 90.8469C648.894 89.1381 647.952 86.4759 645.841 85.5512C642.754 84.199 641.827 86.4618 639.975 88.2628C638.921 89.2878 635.787 90.6241 634.755 88.7987C633.777 87.0666 634.965 84.1158 634.105 82.0961C633.019 79.5401 631.654 79.5522 629.375 79.6108C626.775 79.6777 625.561 81.7278 623.104 82.1492C620.275 82.6345 619.616 80.9216 617.617 79.2836C616.749 78.5724 615.154 77.5854 614.138 77.2862C613.126 76.9879 612.16 77.3066 611.146 76.9767C610.341 76.715 609.691 75.9069 608.89 75.6473C607.793 75.2921 606.592 75.3621 605.462 75.0724C603.041 74.4516 600.94 74.1936 598.927 75.8994C597.142 77.4115 594.127 77.5978 591.884 77.0712C590.914 76.8436 590.214 76.4165 589.206 76.2942C587.962 76.1435 586.609 76.5755 585.378 76.3562C582.997 75.9326 581.029 75.4361 578.557 75.482C575.419 75.5401 574.509 73.4898 573.122 70.5586C570.545 70.2736 568.463 73.6023 566.408 74.5386C564.593 75.3657 562.553 75.8789 560.682 76.7261C558.624 77.6585 556.429 78.2828 554.264 78.8222C552.79 79.1893 550.457 80.7655 548.998 80.4553C543.693 80.4553 538.388 80.4553 533.082 80.4553C529.887 80.4553 527.977 80.4418 525.098 82.1364C522.545 83.6385 520.196 86.0097 520.183 89.3834C520.174 91.9765 520.097 95.5227 517.202 96.2349C515.454 96.6653 514.306 96.6228 512.622 97.6304C511.12 98.5286 509.988 99.7483 509.246 101.51C508.105 104.22 507.208 107.948 504.302 109.321C499.865 111.418 500.916 105.438 500.418 102.95C497.726 101.943 496.254 104.606 493.747 104.437C493.359 102.594 494.045 100.593 493.596 98.7865C488.956 96.7249 486.109 105.708 486.096 109.034C486.091 110.001 485.912 111.004 486.224 111.932C486.561 112.929 487.89 113.656 488.21 114.605C488.977 116.877 486.932 118.743 486.835 121.067C486.748 123.208 486.721 124.808 486.247 126.82C485.447 130.204 489.117 128.904 488.213 132.691C487.485 135.738 487.561 136.345 490.288 138.487C490.995 139.042 492.143 139.438 492.779 140.058C493.997 141.242 493.592 141.792 493.654 143.369C493.717 144.971 493.566 145.752 494.752 146.759C495.86 147.699 496.787 147.75 497.515 149.216C498.485 151.17 497.986 152.917 498.183 154.992C498.419 157.458 500.213 159.509 501.419 161.597C502.785 163.958 504.128 166.078 505.632 168.285C507.2 170.587 509.022 170.353 511.158 171.745C514.268 173.773 512.112 175.688 509.546 175.738C507.714 175.774 505.769 175.581 504.436 177.296C503.837 178.067 503.137 180.617 503.621 181.579C504.124 182.58 505.671 182.75 506.498 183.3C506.744 185.238 504.455 186.205 505.122 188.164C505.51 189.306 506.497 189.359 507.336 189.805C508.33 190.333 508.369 190.536 509.031 191.443C510.958 194.083 510.345 197.262 510.345 200.531C510.345 201.948 510.747 204.151 510.402 205.544C510.173 206.473 509.669 206.861 509.279 207.686C508.839 208.618 509.059 209.632 508.683 210.558C508.22 211.696 506.96 213.389 506.213 214.287C504.297 216.588 503.32 214.296 501.272 213.767C497.418 212.769 494.85 216.409 492.178 218.799C491.034 219.822 488.759 220.79 488.01 222.114C487.096 223.73 488.071 225.433 486.736 227.123C485.494 228.694 483.403 229.443 481.732 230.17C479.864 230.982 478.572 232.568 476.811 233.546C473.651 235.3 470.518 236.723 467.903 239.487C466.783 240.671 465.555 241.737 464.537 242.965C462.94 244.889 462.23 246.102 461.289 248.437C460.694 249.915 459.685 251.038 458.901 252.318C458.318 253.27 458.28 254.026 457.496 255.068C456.735 256.077 456.011 256.947 455.211 257.915C452.926 260.684 451.45 264.166 449.37 267.127C446.725 270.896 443.317 274.333 441.374 278.631C440.354 280.89 439.351 282.352 437.753 284.266C436.66 285.576 434.949 287.06 434.577 288.83C434.32 290.053 434.745 291.292 434.404 292.527C433.744 294.915 433.022 295.49 433.042 298.142C433.07 301.748 433.422 304.028 435.692 306.955C438.497 310.571 438.345 313.421 438.345 318.023C438.345 321.074 437.245 326.298 440.015 327.961C443.412 330.002 447.516 332.32 445.163 337.326C444.303 339.156 444.717 341.347 442.946 342.264C440.862 343.343 439.79 342.877 438.161 341.416C437.76 341.137 437.359 340.857 436.958 340.577C436.374 340.147 436.023 339.56 435.903 338.816C434.897 338.186 434.384 338.896 433.205 338.96C430.721 339.096 430.552 336.823 428.57 335.792C426.61 336.633 424.501 339.046 423.581 341.099C422.946 342.515 423.234 343.969 423.201 345.507C423.113 349.718 420.779 353.097 418.161 355.979C415.686 358.703 416.307 361.79 416.362 365.461C416.43 369.866 413.709 373.411 410.709 376.196C409.09 377.699 407.595 379.312 406.002 380.829C404.201 382.546 402.471 382.87 402.508 385.263C402.55 387.961 403.64 391.13 404.732 393.565C406.429 397.347 408.666 395.221 411.439 396.111C412.96 396.599 413.434 398.609 414.832 399.263C416.461 400.024 417.773 398.748 419.3 398.626C419.973 400.653 419.146 403.22 419.551 405.375C420.029 407.925 421.564 409.685 423.905 410.201C425.965 410.653 428.828 409.354 430.802 410.286C432.412 411.047 434.443 414.859 434.615 416.603C434.903 419.56 434.756 420.906 438.179 420.946C440.295 420.971 442.855 420.618 444.459 422.547C445.987 424.385 444.652 426.349 446.666 428.217C448.054 429.504 450.029 429.56 451.875 429.132C452.234 427.508 451.551 425.779 453.061 424.674C454.744 423.444 455.804 425.173 457.496 425.174C461.041 425.176 459.417 419.164 463.349 419.372C466.284 419.526 468.591 424.079 470.176 426.315C471.081 427.591 471.914 428.822 472.619 430.227C473.253 431.493 474.332 434.028 475.868 434.085C478.899 434.2 478.197 428.763 480.79 427.685C482.889 426.813 485.135 428.057 486.816 429.168C488.856 430.515 489.257 431.178 491.785 430.463C493.091 430.094 494.615 429.698 495.98 430.076C497.416 430.474 497.936 432.194 498.956 433.355C499.928 434.462 500.812 435.563 501.707 436.731C501.555 436.711 501.403 436.69 501.25 436.67" fill="#DEDEDE"/>
</svg>
