<svg width="38" height="38" viewBox="0 0 38 38" fill="none" xmlns="http://www.w3.org/2000/svg">
<path d="M22.8428 22.2021C26.1509 24.5347 28.4395 28.1005 28.4395 32.0693C28.4394 32.3064 28.4199 32.5203 28.3994 32.7676L28.3975 32.7881V33.4785C28.3972 35.701 26.6013 37.5 24.3896 37.5H4.51367C2.30202 37.5 0.506092 35.701 0.505859 33.4785V32.5645H0.524414V32.0645C0.526125 28.1012 2.80914 24.5398 6.11035 22.208C8.18691 24.472 11.1629 25.8975 14.4746 25.8975C17.7892 25.8973 20.7664 24.4694 22.8428 22.2021ZM31.875 16.7549C35.1988 19.0873 37.5 22.6622 37.5 26.6426C37.5 26.8797 37.4804 27.0935 37.46 27.3408L37.458 27.3613V28.0518C37.4578 30.2742 35.6619 32.0732 33.4502 32.0732H31.1465C31.1651 31.8507 31.1836 31.6094 31.1836 31.3477C31.1836 26.8292 28.7758 22.9477 25.3037 20.3086C27.8902 19.8936 30.1835 18.609 31.875 16.7549ZM14.4746 5.92676C19.1887 5.92698 23.0126 9.76033 23.0127 14.4932C23.0127 19.2261 19.1887 23.0603 14.4746 23.0605C9.76071 23.0605 5.93555 19.2262 5.93555 14.4932C5.93564 9.76019 9.76033 5.92676 14.4746 5.92676ZM23.4893 0.5C28.2035 0.5 32.0282 4.3339 32.0283 9.06641C32.0283 13.1157 29.225 16.4993 25.4619 17.3926C25.707 16.4681 25.8438 15.498 25.8438 14.4932C25.8437 9.10074 22.1085 4.59636 17.0938 3.40918C18.6582 1.62709 20.9401 0.500068 23.4893 0.5Z" fill="#FF7B02" stroke="#FF7B02"/>
</svg>
