<svg width="50" height="50" viewBox="0 0 50 50" fill="none" xmlns="http://www.w3.org/2000/svg">
<path fill-rule="evenodd" clip-rule="evenodd" d="M44.5082 6.39453C46.6693 6.39453 48.4375 8.1627 48.4375 10.3237V44.191C48.4375 46.3522 46.6693 48.1203 44.5082 48.1203H5.4918C3.33066 48.1203 1.5625 46.3522 1.5625 44.191V10.3238C1.5625 8.1627 3.33066 6.39463 5.4918 6.39463L44.5082 6.39453Z" fill="white"/>
<path fill-rule="evenodd" clip-rule="evenodd" d="M1.5625 15.1006H48.4375V10.3237C48.4375 8.1626 46.6693 6.39453 44.5082 6.39453H5.4918C3.33066 6.39453 1.5625 8.1627 1.5625 10.3238V15.1006Z" fill="white"/>
<path fill-rule="evenodd" clip-rule="evenodd" d="M10.0039 1.875H14.0769C14.3458 1.875 14.5651 2.09434 14.5651 2.36328V10.3426C14.5651 10.6115 14.3458 10.8309 14.0769 10.8309H10.0039C9.73496 10.8309 9.51562 10.6115 9.51562 10.3426V2.36318C9.51562 2.09424 9.73496 1.875 10.0039 1.875ZM35.9185 1.875H39.9915C40.2604 1.875 40.4798 2.09434 40.4798 2.36328V10.3426C40.4798 10.6115 40.2604 10.8309 39.9915 10.8309H35.9185C35.6495 10.8309 35.4302 10.6115 35.4302 10.3426V2.36318C35.4302 2.09424 35.6495 1.875 35.9185 1.875ZM22.9611 1.875H27.0342C27.3031 1.875 27.5225 2.09434 27.5225 2.36328V10.3426C27.5225 10.6115 27.3031 10.8309 27.0342 10.8309H22.9611C22.6922 10.8309 22.4729 10.6115 22.4729 10.3426V2.36318C22.4729 2.09424 22.6922 1.875 22.9611 1.875Z" fill="white"/>
<path fill-rule="evenodd" clip-rule="evenodd" d="M8.57812 20.3555V24.1428C8.57812 24.4117 8.79746 24.6311 9.06641 24.6311H12.8537C13.1227 24.6311 13.342 24.4117 13.342 24.1428V20.3555C13.342 20.0865 13.1227 19.8672 12.8537 19.8672H9.06641C8.79746 19.8672 8.57812 20.0865 8.57812 20.3555ZM36.6604 20.3555V24.1428C36.6604 24.4117 36.8797 24.6311 37.1486 24.6311H40.9358C41.2048 24.6311 41.4241 24.4117 41.4241 24.1428V20.3555C41.4241 20.0865 41.2048 19.8672 40.9358 19.8672H37.1485C36.8797 19.8672 36.6604 20.0865 36.6604 20.3555ZM27.2996 20.3555V24.1428C27.2996 24.4117 27.5189 24.6311 27.7879 24.6311H31.5751C31.844 24.6311 32.0634 24.4117 32.0634 24.1428V20.3555C32.0634 20.0865 31.844 19.8672 31.5751 19.8672H27.7879C27.5189 19.8672 27.2996 20.0865 27.2996 20.3555ZM17.9389 20.3555V24.1428C17.9389 24.4117 18.1582 24.6311 18.4271 24.6311H22.2144C22.4833 24.6311 22.7026 24.4117 22.7026 24.1428V20.3555C22.7026 20.0865 22.4833 19.8672 22.2144 19.8672H18.4271C18.1582 19.8672 17.9389 20.0865 17.9389 20.3555Z" fill="white"/>
<path fill-rule="evenodd" clip-rule="evenodd" d="M14.7345 31.2559H21.7296V28.25C21.7296 27.9811 21.5103 27.7617 21.2413 27.7617H15.2227C14.9537 27.7617 14.7344 27.9811 14.7344 28.25L14.7345 31.2559Z" fill="white"/>
<path fill-rule="evenodd" clip-rule="evenodd" d="M24.2539 48.1206H38.0519C38.3208 48.1206 38.5401 47.9013 38.5401 47.6323V37.3516C38.5401 37.0826 38.3208 36.8633 38.0519 36.8633H24.2539C23.985 36.8633 23.7656 37.0826 23.7656 37.3516V47.6324C23.7656 47.9014 23.985 48.1206 24.2539 48.1206Z" fill="white"/>
<path fill-rule="evenodd" clip-rule="evenodd" d="M11.4609 48.1227H24.9991V31.0117C24.9991 30.7428 24.7798 30.5234 24.5108 30.5234H11.9492C11.6803 30.5234 11.4609 30.7428 11.4609 31.0117V48.1227Z" fill="white"/>
<path fill-rule="evenodd" clip-rule="evenodd" d="M14.7188 48.1219H21.7497V43.3555C21.7497 43.0865 21.5304 42.8672 21.2614 42.8672H15.207C14.9381 42.8672 14.7188 43.0865 14.7188 43.3555L14.7188 48.1219Z" fill="white"/>
<path fill-rule="evenodd" clip-rule="evenodd" d="M14.7188 33.3828H21.7496V40.1405H14.7188V33.3828Z" fill="white"/>
<path fill-rule="evenodd" clip-rule="evenodd" d="M31.7648 26.8242L32.8262 29.5192L35.7173 29.6958L33.4821 31.538L34.2075 34.3421L31.7648 32.7856L29.3222 34.3421L30.0477 31.538L27.8125 29.6958L30.7036 29.5192L31.7648 26.8242Z" fill="white"/>
<path fill-rule="evenodd" clip-rule="evenodd" d="M17.544 34.0655V36.0773H15.3957V34.0655H17.544ZM21.0596 36.0773H18.9113V34.0655H21.0596V36.0773ZM18.9113 39.4563V37.4445H21.0596V39.4563H18.9113ZM15.3958 37.4445H17.5441V39.4563H15.3958V37.4445ZM14.7122 40.8234H21.7432C22.1201 40.8234 22.4272 40.5178 22.4272 40.1397V33.382C22.4272 33.004 22.1201 32.6984 21.7432 32.6984H14.7122C14.3343 32.6984 14.0286 33.004 14.0286 33.382V40.1397C14.0285 40.5178 14.3343 40.8234 14.7122 40.8234ZM33.0482 31.0129C32.8433 31.1818 32.755 31.4543 32.8216 31.711L33.1126 32.8351L32.1329 32.2112C32.0217 32.1399 31.8938 32.1036 31.766 32.1036C31.6377 32.1036 31.5108 32.1399 31.3987 32.2112L30.4199 32.8351L30.7101 31.711C30.7767 31.4542 30.6885 31.1818 30.4834 31.0129L29.5883 30.2746L30.7463 30.2033C31.012 30.1877 31.2433 30.0187 31.3407 29.7717L31.766 28.6917L32.1917 29.7717C32.2883 30.0188 32.5204 30.1877 32.7853 30.2033L33.9433 30.2746L33.0482 31.0129ZM35.7602 29.0157L33.3038 28.8654L32.4014 26.5752C32.2988 26.3146 32.047 26.1426 31.766 26.1426C31.4847 26.1426 31.2327 26.3145 31.1298 26.5752L30.2278 28.8654L27.7715 29.0157C27.4915 29.0324 27.2502 29.2199 27.1633 29.4863C27.0764 29.7539 27.1624 30.047 27.3789 30.2257L29.2775 31.7902L28.6615 34.173C28.5912 34.4444 28.6946 34.7326 28.9213 34.8977C29.1488 35.0627 29.4532 35.0715 29.6909 34.921L31.7661 33.5979L33.8413 34.921C33.9535 34.9923 34.0812 35.0275 34.2082 35.0275C34.3498 35.0275 34.4904 34.9835 34.6108 34.8977C34.837 34.7326 34.9405 34.4444 34.8701 34.173L34.2541 31.7902L36.1537 30.2257C36.3693 30.0471 36.4553 29.7539 36.3685 29.4863C36.2814 29.2199 36.0401 29.0324 35.7602 29.0157ZM40.7366 23.9494H37.3402V20.5528H40.7366V23.9494ZM41.4202 19.1857H36.6565C36.2786 19.1857 35.9729 19.4914 35.9729 19.8692V24.633C35.9729 25.011 36.2787 25.3166 36.6565 25.3166H41.4202C41.7972 25.3166 42.1038 25.011 42.1038 24.633V19.8692C42.1039 19.4914 41.7973 19.1857 41.4202 19.1857ZM12.6535 23.9494H9.25703V20.5528H12.6535V23.9494ZM13.3371 19.1857H8.57344C8.19648 19.1857 7.88984 19.4914 7.88984 19.8692V24.633C7.88984 25.011 8.19648 25.3166 8.57344 25.3166H13.3371C13.715 25.3166 14.0207 25.011 14.0207 24.633V19.8692C14.0207 19.4914 13.715 19.1857 13.3371 19.1857ZM22.0148 23.9494H18.6185V20.5528H22.0148V23.9494ZM22.6984 19.1857H17.9348C17.5569 19.1857 17.2512 19.4914 17.2512 19.8692V24.633C17.2512 25.011 17.5569 25.3166 17.9348 25.3166H22.6984C23.0754 25.3166 23.382 25.011 23.382 24.633V19.8692C23.3821 19.4914 23.0755 19.1857 22.6984 19.1857ZM27.9789 20.5528H31.3754V23.9494H27.9789V20.5528ZM32.059 25.3165C32.4368 25.3165 32.7426 25.0109 32.7426 24.6329V19.8692C32.7426 19.4914 32.4368 19.1857 32.059 19.1857H27.2953C26.9184 19.1857 26.6117 19.4914 26.6117 19.8692V24.633C26.6117 25.011 26.9184 25.3166 27.2953 25.3166L32.059 25.3165ZM44.505 47.4377C46.2951 47.4377 47.7502 45.9816 47.7502 44.1925V15.7852H2.24219V44.1925C2.24219 45.9816 3.69863 47.4377 5.48828 47.4377H10.7746V30.5226C10.7746 30.1447 11.0812 29.8391 11.4582 29.8391H14.046V27.7619C14.046 27.3839 14.3526 27.0782 14.7296 27.0782H21.7247C22.1026 27.0782 22.4083 27.3838 22.4083 27.7619V29.8391H24.9962C25.3745 29.8391 25.6798 30.1447 25.6798 30.5226V36.1808H38.5355C38.9125 36.1808 39.2191 36.4863 39.2191 36.8644V47.4376H44.505V47.4377ZM21.0596 47.4377H15.3958V43.5509H21.0596V47.4377ZM25.6798 40.2082H37.8519V47.4377H34.9942V41.9815C34.9942 41.6038 34.6885 41.298 34.3106 41.298C33.9327 41.298 33.627 41.6037 33.627 41.9815V47.4377H29.9047V41.9815C29.9047 41.6038 29.5989 41.298 29.2211 41.298C28.8441 41.298 28.5375 41.6037 28.5375 41.9815V47.4377H25.6798V40.2082ZM25.6798 37.5481H37.8519V38.8411H25.6798V37.5481ZM24.3126 31.2062H12.1419V47.4377H14.0286V42.8674C14.0286 42.4894 14.3344 42.1837 14.7122 42.1837H21.7432C22.1201 42.1837 22.4272 42.4893 22.4272 42.8674V47.4377H24.3126V31.2062ZM21.0412 29.8391H15.4133V28.4454H21.0412V29.8391ZM5.48828 7.0792H8.83135V10.8312C8.83135 11.2081 9.13711 11.5148 9.51494 11.5148H14.5645C14.9415 11.5148 15.2481 11.2081 15.2481 10.8312V7.0792H21.7882V10.8312C21.7882 11.2081 22.0939 11.5148 22.4718 11.5148H27.5219C27.8988 11.5148 28.2055 11.2081 28.2055 10.8312V7.0792H34.745V10.8312C34.745 11.2081 35.0521 11.5148 35.4291 11.5148H40.4787C40.8566 11.5148 41.1623 11.2081 41.1623 10.8312V7.0792H44.505C46.2951 7.0792 47.7502 8.53525 47.7502 10.3253V14.4181H2.24219V10.3253C2.24219 8.53525 3.69853 7.0792 5.48828 7.0792ZM10.1986 2.55859V10.1477H13.881V2.55859H10.1986ZM23.1555 2.55859V10.1477H26.8379V2.55859H23.1555ZM36.1123 2.55859V10.1477H39.7951V2.55859H36.1123ZM44.505 5.71211H41.1623V1.875C41.1623 1.49707 40.8565 1.19141 40.4787 1.19141H35.4291C35.0521 1.19141 34.745 1.49707 34.745 1.875V5.71201H28.2055V1.875C28.2055 1.49707 27.8988 1.19141 27.5219 1.19141H22.4718C22.0939 1.19141 21.7882 1.49707 21.7882 1.875V5.71201H15.2481V1.875C15.2481 1.49707 14.9415 1.19141 14.5645 1.19141H9.51504C9.13711 1.19141 8.83144 1.49707 8.83144 1.875V5.71201H5.48828C2.94463 5.71201 0.875 7.78135 0.875 10.3252V44.1925C0.875 46.7355 2.94473 48.8048 5.48828 48.8048H44.505C47.0481 48.8048 49.1174 46.7354 49.1174 44.1925V10.3253C49.1174 7.78135 47.0482 5.71211 44.505 5.71211Z" fill="#FF7B02"/>
</svg>
