<svg width="56" height="56" viewBox="0 0 56 56" fill="none" xmlns="http://www.w3.org/2000/svg">
<g clip-path="url(#clip0_30_18231)">
<path d="M49.103 12.4625C49.0276 11.9709 48.5851 11.6216 48.0887 11.6551C47.9219 11.6664 47.7594 11.6742 47.6311 11.6742C43.329 11.6742 39.7956 8.68972 39.4107 4.87908C39.3709 4.48489 39.0341 4.1875 38.6379 4.1875H28.0006H17.3633C16.9671 4.1875 16.6304 4.48489 16.5905 4.87908C16.2056 8.68972 12.6722 11.6742 8.37004 11.6742C8.23999 11.6742 8.07407 11.6662 7.90388 11.6546C7.40764 11.6209 6.965 11.9703 6.88975 12.462C4.83568 25.8701 10.6798 39.3062 22.3284 47.8398L27.5407 51.6582C27.8145 51.8587 28.1866 51.8587 28.4603 51.6582L33.6726 47.8398C45.3214 39.3062 51.1574 25.8706 49.103 12.4625Z" fill="white"/>
<path d="M49.1038 12.4625C49.0284 11.9709 48.5859 11.6216 48.0896 11.6551C47.9228 11.6664 47.7602 11.6742 47.6319 11.6742C43.3299 11.6742 39.7964 8.68972 39.4115 4.87908C39.3717 4.48489 39.0349 4.1875 38.6386 4.1875H34.538C35.0819 9.52065 38.5367 14.2876 42.7182 14.2876C43.0473 14.2876 43.6013 14.2358 43.8768 14.2078C43.9709 14.1983 44.056 14.2633 44.0722 14.3565C46.4513 28.0017 40.6168 41.7669 28.7597 50.4531L27.3281 51.5019L27.5415 51.6582C27.8153 51.8587 28.1874 51.8587 28.4611 51.6582L33.6734 47.8398C45.3222 39.3062 51.1582 25.8706 49.1038 12.4625Z" fill="white"/>
<path d="M24.5126 44.8645C19.2097 40.9797 15.1266 35.889 12.7048 30.1426C10.7786 25.5723 9.94656 20.6849 10.2476 15.8264C10.2691 15.4793 10.5188 15.1864 10.8597 15.1186C14.7787 14.3394 17.9934 11.7566 19.46 8.34619C19.5821 8.06225 19.8574 7.875 20.1665 7.875H35.844C36.153 7.875 36.4284 8.06236 36.5505 8.34619C38.0171 11.7566 41.232 14.3393 45.1509 15.1186C45.4919 15.1864 45.7416 15.4793 45.7631 15.8264C46.0641 20.6851 45.2321 25.5723 43.3059 30.1426C40.8841 35.889 36.801 40.9797 31.498 44.8645L28.4599 47.0901C28.1893 47.2883 27.8214 47.2883 27.5508 47.0901L24.5126 44.8645Z" fill="white"/>
<path d="M45.756 15.8264C45.7346 15.4794 45.4848 15.1864 45.1439 15.1186C41.2249 14.3394 38.0101 11.7566 36.5435 8.34619C36.4214 8.06225 36.1461 7.875 35.837 7.875H30.995C31.6276 11.495 36.4377 16.4569 40.2584 17.2165C40.5994 17.2843 40.8491 17.5774 40.8707 17.9243C41.1717 22.783 40.3397 27.6702 38.4135 32.2406C36.0497 37.8491 32.1028 42.8325 26.9844 46.6802L27.5438 47.09C27.8144 47.2882 28.1823 47.2882 28.453 47.09L31.4911 44.8643C36.794 40.9796 40.8771 35.8889 43.2989 30.1425C45.225 25.5724 46.057 20.6851 45.756 15.8264Z" fill="white"/>
<path d="M52.7915 50.0654C48.6508 48.7232 44.4684 47.6944 40.1719 46.9652C40.5226 44.551 40.8734 42.1369 41.2241 39.7227C45.9022 40.5166 50.4558 41.6375 54.964 43.1004C55.1776 43.1697 55.2387 43.4422 55.0764 43.5974C54.2466 44.3904 53.43 45.2007 52.6312 46.0241C52.5632 46.0941 52.5343 46.193 52.5534 46.2887C52.7812 47.4333 52.9895 48.5844 53.1768 49.7366C53.2124 49.9558 53.0027 50.1339 52.7915 50.0654Z" fill="white"/>
<path d="M40.1719 46.9681C42.7119 46.1383 45.2593 45.4264 47.8598 44.8148C45.4738 44.2425 43.0829 43.7754 40.6888 43.4102C40.4846 44.8158 40.3791 45.5414 40.1719 46.9681Z" fill="white"/>
<path d="M3.20517 50.0654C7.34646 48.7231 11.529 47.6943 15.8248 46.9652C15.474 44.551 15.1233 42.1369 14.7726 39.7227C10.0953 40.5165 5.54154 41.6374 1.03265 43.1004C0.81904 43.1697 0.758009 43.4422 0.920322 43.5974C1.75004 44.3905 2.56653 45.2007 3.36552 46.0241C3.43344 46.0941 3.46243 46.193 3.44328 46.2887C3.21546 47.4333 3.00721 48.5844 2.81984 49.7366C2.78419 49.9558 2.99397 50.1339 3.20517 50.0654Z" fill="white"/>
<path d="M8.14062 44.8149C10.7415 45.4266 13.2888 46.1385 15.8279 46.968C15.6206 45.5413 15.5152 44.8157 15.311 43.4102C12.9171 43.7754 10.5263 44.2427 8.14062 44.8149Z" fill="white"/>
<path d="M47.8631 44.8147C34.6666 41.6499 21.3163 41.6513 8.1199 44.8193C7.59589 42.5537 7.07176 40.2881 6.54774 38.0225C6.50629 37.8435 6.6173 37.6639 6.79613 37.6214C20.8603 34.2842 35.1197 34.2823 49.1853 37.6165C49.3642 37.659 49.4752 37.8384 49.4338 38.0175C48.9103 40.2833 48.3867 42.549 47.8631 44.8147Z" fill="white"/>
<path d="M49.1898 37.6158C47.7086 37.2647 46.2253 36.9528 44.7404 36.6758L43.0938 43.8095C44.6869 44.0988 46.2783 44.4328 47.8675 44.814C48.3911 42.5483 48.9147 40.2825 49.4384 38.0168C49.4797 37.8378 49.3686 37.6582 49.1898 37.6158Z" fill="white"/>
<path d="M6.71708 22.6419C6.74891 22.6419 6.78129 22.6401 6.81366 22.6364C7.26801 22.5835 7.59351 22.1725 7.54068 21.7182C7.18827 18.6844 7.2446 15.6124 7.70802 12.5874C7.71798 12.523 7.77923 12.4766 7.84759 12.4807C8.06229 12.4953 8.23314 12.5024 8.36975 12.5024C10.6349 12.5024 12.8045 11.7352 14.4786 10.3422C16.1482 8.95305 17.1873 7.06326 17.4085 5.01565H38.592C38.8133 7.06316 39.8523 8.95305 41.522 10.3422C43.1962 11.7353 45.3657 12.5024 47.6309 12.5024C47.7655 12.5024 47.9384 12.4953 48.1441 12.4814C48.2115 12.4755 48.2742 12.5234 48.2841 12.5879C48.7474 15.6115 48.8043 18.6823 48.4532 21.7152C48.4006 22.1695 48.7262 22.5805 49.1807 22.6331C49.6346 22.6869 50.0459 22.3601 50.0985 21.9056C50.4667 18.7261 50.4071 15.5067 49.9214 12.3372C49.7823 11.4295 48.9515 10.7672 48.0324 10.8288C47.8219 10.8431 47.6979 10.8461 47.631 10.8461C45.7521 10.8461 43.9589 10.215 42.5815 9.0691C41.233 7.94713 40.3996 6.42943 40.2345 4.79591C40.1518 3.97691 39.4654 3.35938 38.6378 3.35938H17.3631C16.5355 3.35938 15.8491 3.97691 15.7664 4.7958C15.6014 6.42943 14.7679 7.94713 13.4194 9.0691C12.0419 10.2149 10.2486 10.846 8.36964 10.846C8.27207 10.846 8.13404 10.84 7.95948 10.8282C7.03908 10.7639 6.20991 11.4282 6.07067 12.3365C5.58483 15.5077 5.52587 18.7284 5.89534 21.9091C5.94445 22.3311 6.30233 22.6419 6.71708 22.6419Z" fill="#FF7B02"/>
<path d="M55.6513 44.1967C55.9407 43.9201 56.0602 43.5221 55.9711 43.1319C55.8822 42.7424 55.6021 42.4363 55.2224 42.3132C53.3946 41.7201 51.5291 41.1749 49.6654 40.689L50.2404 38.2012C50.3835 37.5799 49.9957 36.955 49.3757 36.8081C48.0681 36.4982 46.7586 36.2172 45.4479 35.9644C47.2814 32.7548 48.6207 29.3393 49.4305 25.7932C49.5325 25.3472 49.2535 24.9032 48.8077 24.8015C48.3618 24.6994 47.9178 24.9785 47.8159 25.4244C46.9998 28.998 45.6205 32.4346 43.7161 35.6486C42.9939 35.5232 42.2715 35.4058 41.5485 35.2979C42.5196 33.7426 43.3648 32.1225 44.0636 30.4644C46.0204 25.8215 46.8921 20.742 46.5843 15.7753C46.5395 15.0511 46.0143 14.447 45.307 14.3062C41.6799 13.585 38.6888 11.2348 37.306 8.01922C37.052 7.42849 36.4761 7.04688 35.8387 7.04688H20.1611C19.5237 7.04688 18.9478 7.42849 18.694 8.01911C17.3111 11.2348 14.3201 13.5852 10.6929 14.3063C9.98583 14.447 9.46061 15.051 9.41566 15.7751C9.10798 20.7422 9.9796 25.8216 11.9363 30.4644C12.6352 32.1226 13.4805 33.7428 14.4515 35.298C13.7279 35.4062 13.0046 35.5239 12.2816 35.6493C10.3786 32.4395 8.99937 29.008 8.18168 25.4402C8.07953 24.9944 7.63513 24.7164 7.18943 24.818C6.74362 24.9202 6.46504 25.3643 6.56719 25.8102C7.37854 29.3503 8.71773 32.7603 10.5497 35.9651C9.233 36.2191 7.91787 36.5016 6.60438 36.8133C5.98433 36.9606 5.59681 37.5857 5.74053 38.2067L6.31585 40.694C4.45811 41.1788 2.59872 41.7224 0.777842 42.3132C0.397872 42.4364 0.117871 42.7424 0.0289485 43.1319C-0.0601925 43.5221 0.0593549 43.9201 0.348653 44.1967C1.10192 44.9167 1.85071 45.6576 2.5774 46.4018C2.36915 47.4637 2.1761 48.5396 2.00296 49.6043C1.93963 49.9939 2.08061 50.3799 2.3803 50.6371C2.58844 50.8159 2.84646 50.9095 3.11071 50.9095C3.22752 50.9095 3.34565 50.8911 3.46104 50.8537C7.59543 49.5135 11.682 48.5094 15.9541 47.784C15.9546 47.7839 15.955 47.7839 15.9554 47.7838C15.9583 47.7833 15.961 47.7828 15.9639 47.7823C15.9998 47.7762 16.0344 47.7671 16.0684 47.7567C16.0761 47.7543 16.0837 47.7518 16.0914 47.7492C16.1658 47.724 16.2346 47.689 16.297 47.6456C16.3026 47.6417 16.3083 47.638 16.3139 47.6339C16.344 47.6118 16.3727 47.588 16.3995 47.5623C16.4049 47.557 16.4099 47.5514 16.4151 47.5462C16.4389 47.522 16.4612 47.4966 16.4817 47.4698C16.4855 47.465 16.4894 47.4607 16.493 47.4558C16.5154 47.4253 16.535 47.393 16.5531 47.3597C16.5569 47.3526 16.5607 47.3456 16.5644 47.3383C16.5822 47.3031 16.5976 47.2666 16.6102 47.229C16.6108 47.2269 16.6119 47.2252 16.6126 47.2232C16.6145 47.217 16.6157 47.2107 16.6176 47.2045C16.6227 47.1874 16.6277 47.1702 16.6317 47.1527C16.6341 47.1422 16.6361 47.1317 16.6382 47.1212C16.6411 47.1056 16.6438 47.0902 16.6459 47.0745C16.6477 47.0616 16.6489 47.0486 16.65 47.0357C16.6511 47.0226 16.652 47.0095 16.6525 46.9961C16.653 46.9807 16.653 46.9653 16.6527 46.9499C16.6525 46.9388 16.6523 46.9279 16.6515 46.9168C16.6505 46.8997 16.6488 46.8826 16.6467 46.8657C16.6459 46.8594 16.6458 46.8533 16.6449 46.8471L16.247 44.1084C16.3922 44.0877 16.5372 44.0665 16.6823 44.0466C18.2628 45.6566 19.9944 47.157 21.8385 48.5079L27.0509 52.3264C27.3347 52.5344 27.6674 52.6383 28 52.6383C28.3326 52.6383 28.6653 52.5344 28.9492 52.3263L34.1616 48.5079C36.006 47.1567 37.7374 45.6562 39.3174 44.0465C39.4626 44.0664 39.6078 44.0875 39.753 44.1082L39.3551 46.847C39.3542 46.853 39.3541 46.859 39.3534 46.865C39.3512 46.8823 39.3494 46.8996 39.3484 46.917C39.3478 46.9278 39.3476 46.9386 39.3473 46.9494C39.347 46.965 39.347 46.9805 39.3476 46.9961C39.348 47.0094 39.349 47.0224 39.3501 47.0355C39.3512 47.0484 39.3524 47.0613 39.3541 47.0743C39.3562 47.0901 39.3589 47.1056 39.3619 47.1211C39.3638 47.1315 39.3658 47.1421 39.3683 47.1525C39.3724 47.1702 39.3773 47.1876 39.3826 47.2047C39.3844 47.2108 39.3855 47.217 39.3876 47.2231C39.3882 47.2251 39.3893 47.2268 39.39 47.2288C39.4027 47.2665 39.418 47.3029 39.4358 47.3383C39.4394 47.3455 39.4434 47.3525 39.4472 47.3596C39.4652 47.393 39.4849 47.4253 39.5072 47.4558C39.5109 47.4608 39.5148 47.4651 39.5185 47.4698C39.5391 47.4966 39.5613 47.5219 39.585 47.5461C39.5904 47.5514 39.5954 47.5571 39.6008 47.5624C39.6274 47.5882 39.6561 47.6119 39.6863 47.634C39.6919 47.6381 39.6974 47.6419 39.7031 47.6457C39.7656 47.6891 39.8345 47.7241 39.9088 47.7493C39.9163 47.7519 39.9239 47.7544 39.9316 47.7569C39.9656 47.7672 40.0002 47.7764 40.0362 47.7824C40.039 47.7829 40.0419 47.7834 40.0447 47.784C40.045 47.7841 40.0455 47.7841 40.0458 47.7842C44.3177 48.5097 48.4044 49.5139 52.5389 50.8539C52.6544 50.8914 52.7724 50.9098 52.8893 50.9098C53.1534 50.9098 53.4115 50.8161 53.6195 50.6376C53.9192 50.3805 54.0602 49.9945 53.997 49.6046C53.8238 48.5393 53.6308 47.4635 53.4226 46.4021C54.1505 45.6561 54.8993 44.9152 55.6513 44.1967ZM13.4625 29.821C11.6102 25.426 10.7818 20.6204 11.0661 15.9207C15.1945 15.0837 18.6052 12.3898 20.2026 8.70326H35.7971C37.3945 12.3898 40.8054 15.0837 44.9337 15.9207C45.2181 20.6203 44.3897 25.4258 42.5373 29.821C41.7782 31.622 40.8381 33.3769 39.7432 35.0469C31.9252 34.0355 24.0746 34.0356 16.2569 35.0471C15.1619 33.3773 14.2217 31.6222 13.4625 29.821ZM3.78096 49.0129C3.92796 48.1573 4.0871 47.2987 4.25587 46.4506C4.32806 46.0877 4.21748 45.7128 3.96023 45.4478C3.36424 44.8336 2.75262 44.2207 2.13453 43.6183C3.63856 43.1456 5.16445 42.7092 6.68958 42.3105L7.31248 45.0033C7.36224 45.2185 7.4959 45.4047 7.6837 45.521C7.79078 45.5872 7.91043 45.626 8.03326 45.6388C9.51081 45.9877 10.9507 46.3645 12.3786 46.7748C9.47866 47.3778 6.63697 48.1165 3.78096 49.0129ZM11.7358 44.8744C12.6929 44.6852 13.6508 44.5122 14.6093 44.3565L14.8155 45.7755C13.7923 45.4568 12.7685 45.1573 11.7358 44.8744ZM33.1827 47.1715L28 50.9681L22.8172 47.1715C21.3938 46.1287 20.0395 44.9941 18.7749 43.7867C19.6862 43.685 20.5979 43.5977 21.5098 43.5262C22.318 44.2285 23.159 44.9034 24.0178 45.5324L27.0561 47.7583C27.3384 47.965 27.6691 48.0684 28 48.0684C28.3308 48.0684 28.6616 47.965 28.9439 47.7582L31.9819 45.5325C32.8404 44.9037 33.6815 44.2287 34.49 43.5261C35.4019 43.5976 36.3136 43.6848 37.2248 43.7865C35.9605 44.9939 34.6063 46.1285 33.1827 47.1715ZM23.9186 43.3725C26.639 43.2383 29.361 43.2383 32.0814 43.3725C31.7255 43.654 31.3664 43.9305 31.0032 44.1965L28 46.3967L24.9967 44.1964C24.6334 43.9302 24.2744 43.6539 23.9186 43.3725ZM40.8106 42.5881C40.8054 42.5873 40.8003 42.5873 40.795 42.5866C40.253 42.5041 39.7107 42.4265 39.1682 42.3546C39.1461 42.3505 39.1239 42.3478 39.1017 42.3455C37.5167 42.1364 35.9303 41.9724 34.3432 41.853C34.3038 41.8467 34.2641 41.8442 34.2243 41.8437C30.0751 41.5374 25.9205 41.5375 21.7715 41.844C21.7347 41.8448 21.698 41.8471 21.6617 41.8527C20.0693 41.9724 18.4777 42.137 16.8875 42.347C16.8692 42.3491 16.8508 42.3512 16.8325 42.3546C16.2904 42.4265 15.7486 42.5041 15.2069 42.5866C15.201 42.5873 15.1952 42.5873 15.1893 42.5882C15.182 42.5893 15.1753 42.5912 15.1681 42.5924C13.0215 42.92 10.8779 43.328 8.73884 43.8204L7.46484 38.3127C21.0875 35.1547 34.8921 35.1533 48.5156 38.3079L47.2428 43.8161C45.1089 43.3253 42.9703 42.9185 40.8287 42.5917C40.8226 42.5907 40.8168 42.589 40.8106 42.5881ZM41.3906 44.3562C42.3493 44.5119 43.3072 44.685 44.2643 44.8743C43.2317 45.1572 42.2077 45.4568 41.1844 45.7755L41.3906 44.3562ZM52.0397 45.4478C51.7822 45.7131 51.6716 46.0882 51.7441 46.4508C51.9127 47.2983 52.0719 48.1569 52.2189 49.013C49.3628 48.1165 46.5213 47.3778 43.6213 46.775C45.077 46.3567 46.5446 45.973 48.0522 45.6185C48.0558 45.6176 48.0592 45.6163 48.0628 45.6154C48.0765 45.612 48.0898 45.6077 48.1034 45.6037C48.1167 45.5996 48.1302 45.5957 48.1433 45.5911C48.1545 45.5872 48.1652 45.5824 48.1761 45.5779C48.1911 45.5717 48.2061 45.5657 48.2204 45.5588C48.2291 45.5547 48.2375 45.5499 48.246 45.5454C48.262 45.5371 48.2778 45.5288 48.293 45.5195C48.2948 45.5184 48.2966 45.5176 48.2983 45.5165C48.3043 45.5128 48.3099 45.5083 48.3158 45.5044C48.331 45.4944 48.3461 45.4844 48.3605 45.4735C48.3683 45.4677 48.3756 45.4614 48.3832 45.4553C48.3965 45.4444 48.4097 45.4336 48.4223 45.4221C48.4303 45.4148 48.4379 45.4069 48.4456 45.3993C48.4568 45.3882 48.4679 45.3771 48.4784 45.3655C48.4865 45.3565 48.494 45.3471 48.5016 45.3378C48.5108 45.3265 48.5201 45.3154 48.5286 45.3037C48.5362 45.2934 48.5432 45.2828 48.5503 45.2722C48.5581 45.2606 48.5658 45.249 48.5729 45.2371C48.5795 45.226 48.5855 45.2147 48.5916 45.2034C48.5983 45.1909 48.6049 45.1785 48.611 45.1657C48.6162 45.1546 48.6209 45.1433 48.6258 45.132C48.6316 45.1182 48.6371 45.1044 48.6422 45.0903C48.646 45.0796 48.6494 45.0686 48.6528 45.0577C48.6576 45.0424 48.6621 45.0271 48.6659 45.0114C48.667 45.0072 48.6685 45.0031 48.6695 44.9987L49.2919 42.3059C50.8228 42.7058 52.3547 43.1438 53.8652 43.6185C53.2482 44.2199 52.6365 44.8327 52.0397 45.4478Z" fill="#FF7B02"/>
</g>
<defs>
<clipPath id="clip0_30_18231">
<rect width="56" height="56" fill="white"/>
</clipPath>
</defs>
</svg>
