<svg width="50" height="50" viewBox="0 0 50 50" fill="none" xmlns="http://www.w3.org/2000/svg">
<g clip-path="url(#clip0_30_18341)">
<path d="M24.5908 17.6211H2.45966C1.55427 17.6211 0.820312 18.3551 0.820312 19.2604V37.2932C0.820312 38.1986 1.55427 38.9326 2.45966 38.9326H24.5908C25.4962 38.9326 26.2301 38.1986 26.2301 37.2932V19.2604C26.2301 18.3551 25.4962 17.6211 24.5908 17.6211Z" fill="white"/>
<path d="M24.5918 17.6211H22.1328C23.0371 17.6238 23.7695 18.3562 23.7722 19.2604V37.2932C23.7695 38.1975 23.0371 38.9299 22.1328 38.9326H24.5918C25.4961 38.9299 26.2285 38.1975 26.2312 37.2932V19.2604C26.2285 18.3562 25.4961 17.6238 24.5918 17.6211Z" fill="white"/>
<path d="M13.9298 38.9336L5.40523 45.327C5.15685 45.5133 4.82455 45.5433 4.54685 45.4044C4.26916 45.2656 4.09375 44.9818 4.09375 44.6713V38.9336H13.9298Z" fill="white"/>
<path d="M48.363 22.5417V40.5745C48.3603 41.4787 47.6279 42.2111 46.7236 42.2138H24.5925C23.6882 42.2111 22.9558 41.4787 22.9531 40.5745V38.9351H24.5925C25.4967 38.9324 26.2291 38.2 26.2318 37.2958V20.9023H46.7236C47.6279 20.905 48.3603 21.6374 48.363 22.5417Z" fill="white"/>
<path d="M46.7246 20.9023H44.2656C45.1699 20.905 45.9023 21.6374 45.905 22.5417V40.5745C45.9023 41.4787 45.1699 42.2111 44.2656 42.2138H46.7246C47.6289 42.2111 48.3613 41.4787 48.364 40.5745V22.5417C48.3613 21.6374 47.6289 20.905 46.7246 20.9023Z" fill="white"/>
<path d="M45.0861 42.2109V47.9486C45.0861 48.2591 44.9107 48.5429 44.633 48.6818C44.3553 48.8206 44.023 48.7907 43.7746 48.6044L35.25 42.2109H45.0861Z" fill="white"/>
<path d="M35.249 12.7045V20.9012H26.2326V19.2618C26.2299 18.3576 25.4975 17.6252 24.5932 17.6225H13.9375V12.7045C13.9375 10.893 18.708 9.42578 24.5932 9.42578C30.4785 9.42578 35.249 10.893 35.249 12.7045Z" fill="white"/>
<path d="M24.5889 9.42578C24.1725 9.42578 23.7635 9.4348 23.3594 9.44955C28.6643 9.63726 32.7856 11.0209 32.7856 12.7045V20.9012H35.2446V12.7045C35.2446 10.893 30.4741 9.42578 24.5889 9.42578Z" fill="white"/>
<path d="M47.8403 10.4663L35.2419 15.1467V12.704C35.2419 10.8926 30.4714 9.42535 24.5862 9.42535C18.7009 9.42535 13.9304 10.8926 13.9304 12.704V15.1303L1.33206 10.4499C1.0169 10.3427 0.807 10.0443 0.81261 9.71147C0.81822 9.37862 1.03806 9.08746 1.35665 8.99092L24.037 1.31879C24.3928 1.19582 24.7795 1.19582 25.1353 1.31879L47.8157 9.00732C48.1343 9.10385 48.3541 9.39501 48.3597 9.72786C48.3653 10.0607 48.1554 10.3591 47.8403 10.4663Z" fill="white"/>
<path d="M49.1803 9.71414C49.1694 9.03537 48.7269 8.43915 48.0803 8.23218L25.4098 0.546931C24.8817 0.364565 24.3076 0.364565 23.7795 0.546931L1.09672 8.21742C0.450816 8.4267 0.00990345 9.02408 0.000263205 9.70297C-0.00937703 10.3819 0.414396 10.9915 1.0541 11.2191L13.1148 15.7002V16.8027H2.45902C1.10094 16.8027 0 17.9036 0 19.2617V37.2945C0 38.6525 1.10094 39.7535 2.45902 39.7535H3.27869V44.6715C3.27869 45.2925 3.62951 45.8601 4.1849 46.1378C4.74028 46.4155 5.40489 46.3556 5.90164 45.983L14.2074 39.7535H22.1311V40.5732C22.1311 41.9312 23.2321 43.0322 24.5902 43.0322H34.9729L43.2787 49.2617C43.7754 49.6342 44.44 49.6942 44.9954 49.4165C45.5508 49.1388 45.9016 48.5711 45.9016 47.9502V43.0322H46.7213C48.0794 43.0322 49.1803 41.9312 49.1803 40.5732V22.5404C49.1803 21.1823 48.0794 20.0814 46.7213 20.0814H36.0656V15.7166L47.541 11.4543V16.8027C47.541 17.2554 47.908 17.6223 48.3607 17.6223C48.8133 17.6223 49.1803 17.2554 49.1803 16.8027C49.1803 12.3379 49.1934 9.61578 49.1803 9.71414ZM4.91803 44.6715V39.7535H6.55738C7.01007 39.7535 7.37705 39.3865 7.37705 38.9338C7.37705 38.4811 7.01007 38.1141 6.55738 38.1141H2.45902C2.00632 38.1141 1.63934 37.7472 1.63934 37.2945V19.2617C1.63934 18.809 2.00632 18.442 2.45902 18.442H24.5902C25.0429 18.442 25.4098 18.809 25.4098 19.2617V37.2945C25.4098 37.7472 25.0429 38.1141 24.5902 38.1141H9.83607C9.38337 38.1141 9.01639 38.4811 9.01639 38.9338C9.01639 39.3865 9.38337 39.7535 9.83607 39.7535H11.4754L4.91803 44.6715ZM47.541 22.5404V40.5732C47.541 41.0258 47.174 41.3928 46.7213 41.3928H42.6229C42.1703 41.3928 41.8033 41.7598 41.8033 42.2125C41.8033 42.6652 42.1703 43.0322 42.6229 43.0322H44.2623V47.9502L37.7049 43.0322H39.3443C39.797 43.0322 40.1639 42.6652 40.1639 42.2125C40.1639 41.7598 39.797 41.3928 39.3443 41.3928H24.5902C24.1375 41.3928 23.7705 41.0258 23.7705 40.5732V39.7535H24.5902C25.9482 39.7535 27.0492 38.6525 27.0492 37.2945V21.7207H46.7213C47.174 21.7207 47.541 22.0877 47.541 22.5404ZM27.0492 20.0814V19.2617C27.0492 17.9036 25.9482 16.8027 24.5902 16.8027H14.7541V12.7043C14.7541 11.8371 18.4885 10.2453 24.5902 10.2453C30.6918 10.2453 34.4262 11.8371 34.4262 12.7043V20.0814H27.0492ZM36.0656 13.9674V12.7043C36.0656 7.23791 13.1148 7.23955 13.1148 12.7043V13.951L1.74672 9.72808L24.3107 2.09529C24.7205 1.95267 23.3893 1.59365 47.4328 9.74447L36.0656 13.9674Z" fill="#FF7B02"/>
</g>
<defs>
<clipPath id="clip0_30_18341">
<rect width="50" height="50" fill="white"/>
</clipPath>
</defs>
</svg>
