<svg width="52" height="52" viewBox="0 0 52 52" fill="none" xmlns="http://www.w3.org/2000/svg">
<path d="M46.3125 14.625V17.0625C46.3125 17.5094 45.9469 17.875 45.5 17.875H26C25.5531 17.875 25.1875 17.5094 25.1875 17.0625V14.625H46.3125Z" fill="white"/>
<path d="M46.3125 4.0625V14.625H25.1875V4.0625C25.1875 3.61563 25.5531 3.25 26 3.25H45.5C45.9469 3.25 46.3125 3.61563 46.3125 4.0625Z" fill="white"/>
<path d="M46.3125 4.0625V4.875H34.125C30.55 4.875 27.625 7.8 27.625 11.375V14.625H25.1875V4.0625C25.1875 3.61562 25.5531 3.25 26 3.25H45.5C45.9469 3.25 46.3125 3.61562 46.3125 4.0625Z" fill="white"/>
<path d="M40.625 22.75H30.875L31.6469 21.9781C32.7113 20.9137 33.3125 19.4675 33.3125 17.9562V17.875H38.1875V17.9562C38.1875 19.4675 38.7887 20.9137 39.8531 21.9781L40.625 22.75Z" fill="white"/>
<path d="M3.25 22.75H48.75V26H3.25V22.75Z" fill="white"/>
<path d="M48.75 22.75V24.375H6.5C6.05127 24.375 5.6875 24.7388 5.6875 25.1875V26H3.25V22.75H48.75Z" fill="white"/>
<path d="M8.125 29.25H17.875V35.75H8.125V29.25Z" fill="white"/>
<path d="M17.875 29.25V30.875H15.0312C12.3389 30.875 10.1562 33.0576 10.1562 35.75L8.125 35.75V29.25H17.875Z" fill="white"/>
<path d="M8.125 35.75H17.875V47.125H8.125V35.75Z" fill="white"/>
<path d="M17.875 35.75V37.375H15.0312C12.3389 37.375 10.1562 39.5576 10.1562 42.25V47.125H8.125V35.75H17.875Z" fill="white"/>
<path d="M21.125 29.25H43.875V35.75H21.125V29.25Z" fill="white"/>
<path d="M43.875 29.25V30.875H28.4375C25.7451 30.875 23.5625 33.0576 23.5625 35.75L21.125 35.75V29.25H43.875Z" fill="white"/>
<path d="M47.125 26V48.75H43.875V29.25H21.125V48.75H17.875V29.25H8.125V48.75H4.875V26H47.125Z" fill="white"/>
<path d="M17.0167 5.19097L16.5536 5.85718L14.693 8.53034L14.2299 9.1966L13.5636 8.73346C12.9705 8.31908 12.613 7.6853 12.5317 7.01909C12.4668 6.45034 12.5967 5.84909 12.9542 5.33722C13.3117 4.82535 13.8317 4.49219 14.3924 4.35408C14.5792 4.31346 14.7661 4.28906 14.9611 4.28906C15.4405 4.28906 15.928 4.4353 16.3505 4.72785L17.0167 5.19097Z" fill="white"/>
<path d="M17.9131 7.65924C17.9131 7.98421 17.8156 8.3011 17.6206 8.5855C17.1006 9.32485 16.0931 9.50363 15.3538 8.99175L14.6875 8.52862L16.5481 5.85547L17.2144 6.32673C17.6694 6.64362 17.9131 7.14736 17.9131 7.65924Z" fill="white"/>
<path d="M14.3839 4.35272C13.8233 4.49083 13.3033 4.82399 12.9458 5.33586C12.5883 5.84774 12.4583 6.44899 12.5233 7.01775L11.3533 6.20525C11.2802 6.14836 11.207 6.09149 11.142 6.02647C10.5815 5.48211 10.492 4.6046 10.947 3.94647C11.1989 3.5727 11.5808 3.34523 11.9952 3.28021C12.4096 3.19898 12.8402 3.28021 13.2058 3.54022L14.3839 4.35272Z" fill="white"/>
<path d="M6.5 12.9961C6.5 13.5567 6.20751 14.0523 5.77687 14.3529C5.51686 14.5236 5.2081 14.6211 4.875 14.6211C3.98127 14.6211 3.25 13.8898 3.25 12.9961C3.25 12.1023 3.98127 11.3711 4.875 11.3711C5.28938 11.3711 5.67123 11.5255 5.95564 11.7936C6.28874 12.0861 6.5 12.5167 6.5 12.9961Z" fill="white"/>
<path d="M13 21.125V22.75H6.5V21.125C6.5 20.2312 7.23127 19.5 8.125 19.5H11.375C12.2687 19.5 13 20.2312 13 21.125Z" fill="white"/>
<path d="M48.75 21.9375H40.9616L40.4274 21.4039C39.6819 20.658 39.2133 19.7117 39.06 18.6875H45.5C46.3958 18.6875 47.125 17.9587 47.125 17.0625V4.0625C47.125 3.16629 46.3958 2.4375 45.5 2.4375H26C25.1042 2.4375 24.375 3.16629 24.375 4.0625V17.0625C24.375 17.9587 25.1042 18.6875 26 18.6875H32.44C32.2867 19.7116 31.8181 20.6579 31.0726 21.4035L30.5383 21.9375H13.8125V21.125C13.8125 19.7809 12.7191 18.6875 11.375 18.6875H9.6405L6.81896 14.4549C7.12465 14.0476 7.3125 13.5473 7.3125 13C7.3125 12.5793 7.19571 12.1892 7.00732 11.8434L11.2533 7.12535L11.8144 7.51602C11.9983 8.25225 12.4252 8.93111 13.0952 9.39771C13.0952 9.39771 13.7625 9.86186 13.7625 9.86188C14.1114 10.1046 14.6334 10.0319 14.8932 9.65955C15.3169 9.95432 15.8017 10.0956 16.2825 10.0956C17.0538 10.0956 17.8131 9.73136 18.2868 9.05176C19.0541 7.94806 18.7819 6.42621 17.6784 5.6581C17.9343 5.28998 17.8439 4.78406 17.4759 4.52747L16.8094 4.0633C16.1386 3.59709 15.3541 3.43225 14.6002 3.51512C14.6002 3.51512 13.6789 2.87386 13.6784 2.87351C12.5916 2.11703 11.0384 2.39808 10.284 3.4813C9.75765 4.23821 9.73136 5.18773 10.1162 5.95996L5.80623 10.7491C5.51899 10.6298 5.20488 10.5625 4.875 10.5625C3.53088 10.5625 2.4375 11.6559 2.4375 13C2.4375 14.3441 3.53088 15.4375 4.875 15.4375C5.08025 15.4375 5.27644 15.4044 5.46702 15.3564L7.71523 18.7289C6.56655 18.9252 5.6875 19.9212 5.6875 21.125V21.9375H3.25C2.80091 21.9375 2.4375 22.3013 2.4375 22.75V26C2.4375 26.4487 2.80091 26.8125 3.25 26.8125H4.0625V48.75C4.0625 49.1987 4.42591 49.5625 4.875 49.5625H8.125C8.57409 49.5625 8.9375 49.1987 8.9375 48.75V47.9375H17.0625V48.75C17.0625 49.1987 17.4259 49.5625 17.875 49.5625H21.125C21.5741 49.5625 21.9375 49.1987 21.9375 48.75V36.5625H43.0625V48.75C43.0625 49.1987 43.4259 49.5625 43.875 49.5625H47.125C47.5741 49.5625 47.9375 49.1987 47.9375 48.75V26.8125H48.75C49.1991 26.8125 49.5625 26.4487 49.5625 26V22.75C49.5625 22.3013 49.1991 21.9375 48.75 21.9375ZM45.5 4.0625L45.5006 13.8125H26V4.0625H45.5ZM26 15.4375H45.5007L45.5008 17.0625H38.1875H33.3125H26V15.4375ZM34.0845 18.6875H37.4155C37.5472 19.8765 38.0018 20.9941 38.735 21.9375H32.765C33.4982 20.9941 33.9528 19.8765 34.0845 18.6875ZM16.953 8.12342C16.6967 8.49119 16.1897 8.58203 15.8215 8.32574L16.75 6.9919C17.1174 7.24778 17.2085 7.75565 16.953 8.12342ZM15.8798 5.39839C15.8798 5.39839 14.0236 8.06431 14.0236 8.06391C13.2888 7.55213 13.1071 6.5373 13.6181 5.80217C14.123 5.07577 15.1557 4.89341 15.8798 5.39839ZM11.6178 4.40924C11.8934 4.01253 12.4707 3.95863 12.8361 4.26426C12.8077 4.24052 12.3415 4.79138 12.2843 4.87342C12.1233 5.10495 12.0086 5.35291 11.9152 5.60602C11.5201 5.33078 11.3159 4.84392 11.6178 4.40924ZM4.0625 13C4.0625 12.5521 4.42669 12.1875 4.87503 12.1875C5.30985 12.1875 5.6875 12.5664 5.6875 13C5.6875 13.4479 5.32331 13.8125 4.875 13.8125C4.42669 13.8125 4.0625 13.4479 4.0625 13ZM7.3125 21.125C7.3125 20.6771 7.67669 20.3125 8.125 20.3125H11.375C11.8233 20.3125 12.1875 20.6771 12.1875 21.125V21.9375H7.3125V21.125ZM17.0625 30.0625V34.9375H8.9375V30.0625H17.0625ZM8.9375 46.3125V36.5625H17.0625V46.3125H8.9375ZM21.9375 34.9375V30.0625H43.0625V34.9375H21.9375ZM46.3125 47.9375H44.6875V29.25C44.6875 28.8013 44.3241 28.4375 43.875 28.4375H21.125C20.6759 28.4375 20.3125 28.8013 20.3125 29.25V47.9375H18.6875V29.25C18.6875 28.8013 18.3241 28.4375 17.875 28.4375H8.125C7.67591 28.4375 7.3125 28.8013 7.3125 29.25V47.9375H5.6875V26.8125H46.3125V47.9375ZM47.9375 25.1875H4.0625V23.5625H47.9375V25.1875Z" fill="#FF7B02"/>
<path d="M11.375 33.3125H14.625C15.0741 33.3125 15.4375 32.9487 15.4375 32.5C15.4375 32.0513 15.0741 31.6875 14.625 31.6875H11.375C10.9259 31.6875 10.5625 32.0513 10.5625 32.5C10.5625 32.9487 10.9259 33.3125 11.375 33.3125Z" fill="#FF7B02"/>
<path d="M34.125 31.6875H30.875C30.4259 31.6875 30.0625 32.0513 30.0625 32.5C30.0625 32.9487 30.4259 33.3125 30.875 33.3125H34.125C34.5741 33.3125 34.9375 32.9487 34.9375 32.5C34.9375 32.0513 34.5741 31.6875 34.125 31.6875Z" fill="#FF7B02"/>
<path d="M11.375 38.1875C10.9259 38.1875 10.5625 38.5513 10.5625 39V43.875C10.5625 44.3237 10.9259 44.6875 11.375 44.6875C11.8241 44.6875 12.1875 44.3237 12.1875 43.875V39C12.1875 38.5513 11.8241 38.1875 11.375 38.1875Z" fill="#FF7B02"/>
<path d="M19.8235 11.1119C20.6673 11.6988 21.6207 10.3829 20.7519 9.77809L20.0846 9.31392C19.2298 8.71932 18.2915 10.0457 19.1562 10.6477C19.1562 10.6477 19.8218 11.1107 19.8235 11.1119Z" fill="#FF7B02"/>
<path d="M20.3229 7.97943C20.355 7.97919 20.3881 7.97711 20.4221 7.97306C20.4221 7.97306 21.2274 7.87478 21.2282 7.87468C22.2411 7.75106 22.0829 6.12922 21.0314 6.26158C21.0314 6.26158 20.2263 6.35985 20.2253 6.35997C19.256 6.47826 19.4024 7.98614 20.3229 7.97943Z" fill="#FF7B02"/>
<path d="M17.0409 10.8481C16.6449 10.9389 16.3094 11.2843 16.4319 11.7991L16.6191 12.5898C16.8551 13.586 18.4462 13.251 18.1997 12.2153L18.0124 11.4246C17.8932 10.921 17.4368 10.7572 17.0409 10.8481Z" fill="#FF7B02"/>
</svg>
