<svg width="50" height="50" viewBox="0 0 50 50" fill="none" xmlns="http://www.w3.org/2000/svg">
<g clip-path="url(#clip0_30_18266)">
<path d="M19.5312 44.5312H8.59375V36.7188C8.59375 35.8899 8.92299 35.0951 9.50904 34.509C10.0951 33.923 10.8899 33.5938 11.7188 33.5938H16.4062C17.2351 33.5938 18.0299 33.923 18.616 34.509C19.202 35.0951 19.5312 35.8899 19.5312 36.7188V44.5312Z" fill="white"/>
<path d="M30.4688 44.5312H19.5312V36.7188C19.5312 35.8899 19.8605 35.0951 20.4465 34.509C21.0326 33.923 21.8274 33.5938 22.6562 33.5938H27.3438C28.1726 33.5938 28.9674 33.923 29.5535 34.509C30.1395 35.0951 30.4688 35.8899 30.4688 36.7188V44.5312Z" fill="white"/>
<path d="M41.4062 44.5312H30.4688V36.7188C30.4688 35.8899 30.798 35.0951 31.384 34.509C31.9701 33.923 32.7649 33.5938 33.5938 33.5938H38.2812C39.1101 33.5938 39.9049 33.923 40.491 34.509C41.077 35.0951 41.4062 35.8899 41.4062 36.7188V44.5312Z" fill="white"/>
<path d="M19.5312 36.7188V44.5313H8.59375V36.7188H10.9375C11.7071 36.7177 12.4499 37.0015 13.0227 37.5156C13.3081 37.7725 13.6785 37.9146 14.0625 37.9146C14.4465 37.9146 14.8169 37.7725 15.1023 37.5156C15.6751 37.0015 16.4179 36.7177 17.1875 36.7188H19.5312Z" fill="white"/>
<path d="M30.4688 36.7188V44.5313H19.5312V36.7188H21.875C22.6446 36.7177 23.3874 37.0015 23.9602 37.5156C24.2456 37.7725 24.616 37.9146 25 37.9146C25.384 37.9146 25.7544 37.7725 26.0398 37.5156C26.6126 37.0015 27.3554 36.7177 28.125 36.7188H30.4688Z" fill="white"/>
<path d="M41.4062 36.7188V44.5313H30.4688V36.7188H32.8125C33.5821 36.7177 34.3249 37.0015 34.8977 37.5156C35.1831 37.7725 35.5535 37.9146 35.9375 37.9146C36.3215 37.9146 36.6919 37.7725 36.9773 37.5156C37.5501 37.0015 38.2929 36.7177 39.0625 36.7188H41.4062Z" fill="white"/>
<path d="M0.78125 3.90625H49.2188V30.4688H0.78125V3.90625Z" fill="white"/>
<path d="M46.875 3.90625H0.78125V30.4688H8.77812C8.42045 28.9041 7.62931 27.4718 6.49531 26.3359C6.17475 26.048 5.92088 25.6936 5.75142 25.2974C5.58195 24.9012 5.50098 24.4728 5.51415 24.0421C5.52731 23.6114 5.6343 23.1888 5.82765 22.8037C6.02099 22.4186 6.29604 22.0803 6.63359 21.8125C10.3362 18.6141 12.6661 14.043 13.6234 8.09922C13.7325 7.37141 14.0979 6.70648 14.6538 6.2242C15.2097 5.74193 15.9195 5.47403 16.6555 5.46875H33.3445C34.0805 5.47403 34.7903 5.74193 35.3462 6.2242C35.9021 6.70648 36.2675 7.37141 36.3766 8.09922C37.3339 14.0424 39.6638 18.6135 43.3664 21.8125C43.7038 22.0804 43.9788 22.4187 44.172 22.8038C44.3653 23.1889 44.4723 23.6115 44.4854 24.0421C44.4986 24.4728 44.4177 24.9011 44.2483 25.2973C44.0789 25.6935 43.8251 26.0479 43.5047 26.3359C42.3707 27.4718 41.5796 28.9041 41.2219 30.4688H49.2188V3.90625H46.875Z" fill="white"/>
<path d="M0.78125 0.78125H49.2188V3.90625H0.78125V0.78125Z" fill="white"/>
<path d="M0.78125 24.2188V3.90625H11.7188C11.1979 13.8021 7.55208 20.5729 0.78125 24.2188Z" fill="white"/>
<path d="M2.34375 17.4664V3.90625H0.78125V24.2188C5.49323 21.6823 8.6901 17.631 10.3719 12.0648C9.06083 14.6907 7.15768 16.976 4.8125 18.7406C4.5787 18.9071 4.30357 19.0059 4.01729 19.0263C3.73101 19.0467 3.44465 18.9879 3.18961 18.8563C2.93457 18.7246 2.72072 18.5253 2.57151 18.2801C2.4223 18.0349 2.3435 17.7534 2.34375 17.4664Z" fill="white"/>
<path d="M11.7188 3.90625H0.78125V5.46875H11.6031C11.6492 4.95547 11.6906 4.4375 11.7188 3.90625Z" fill="white"/>
<path d="M49.2188 24.2188V3.90625H38.2812C38.8021 13.8021 42.4479 20.5729 49.2188 24.2188Z" fill="white"/>
<path d="M38.5711 3.90625H38.2812C38.8021 13.8021 42.4479 20.5729 49.2188 24.2188V21.0938C43.1875 17.8464 39.6383 12.1172 38.5711 3.90625Z" fill="white"/>
<path d="M38.2812 3.90625H49.2188V5.46875H38.3969C38.3508 4.95547 38.3094 4.4375 38.2812 3.90625Z" fill="white"/>
<path d="M7.03125 35.1562H0.78125V24.2188C4.45312 25.8375 6.82812 27.9766 7.03125 35.1562Z" fill="white"/>
<path d="M2.34375 30.4688V25C1.83711 24.7121 1.31554 24.4513 0.78125 24.2188V35.1562H7.03125C7.01562 34.6031 6.98281 34.0891 6.94141 33.5938H5.46875C4.63995 33.5938 3.84509 33.2645 3.25904 32.6785C2.67299 32.0924 2.34375 31.2976 2.34375 30.4688Z" fill="white"/>
<path d="M14.0625 49.2188H3.125V41.4062C3.125 40.5774 3.45424 39.7826 4.04029 39.1965C4.62634 38.6105 5.4212 38.2812 6.25 38.2812H10.9375C11.7663 38.2812 12.5612 38.6105 13.1472 39.1965C13.7333 39.7826 14.0625 40.5774 14.0625 41.4062V49.2188Z" fill="white"/>
<path d="M8.59375 46.8766C7.76495 46.8766 6.97009 46.5473 6.38404 45.9613C5.79799 45.3752 5.46875 44.5804 5.46875 43.7516V39.0641C5.47044 38.8293 5.49875 38.5955 5.55312 38.3672C4.86421 38.5248 4.24906 38.9112 3.80807 39.4635C3.36707 40.0157 3.12629 40.7011 3.125 41.4078V49.2203H14.0625V46.8766H8.59375Z" fill="white"/>
<path d="M25 49.2188H14.0625V41.4062C14.0625 40.5774 14.3917 39.7826 14.9778 39.1965C15.5638 38.6105 16.3587 38.2812 17.1875 38.2812H21.875C22.7038 38.2812 23.4987 38.6105 24.0847 39.1965C24.6708 39.7826 25 40.5774 25 41.4062V49.2188Z" fill="white"/>
<path d="M19.5312 46.8766C18.7024 46.8766 17.9076 46.5473 17.3215 45.9613C16.7355 45.3752 16.4062 44.5804 16.4062 43.7516V39.0641C16.4079 38.8293 16.4362 38.5955 16.4906 38.3672C15.8017 38.5248 15.1866 38.9112 14.7456 39.4635C14.3046 40.0157 14.0638 40.7011 14.0625 41.4078V49.2203H25V46.8766H19.5312Z" fill="white"/>
<path d="M35.9375 49.2188H25V41.4062C25 40.5774 25.3292 39.7826 25.9153 39.1965C26.5013 38.6105 27.2962 38.2812 28.125 38.2812H32.8125C33.6413 38.2812 34.4362 38.6105 35.0222 39.1965C35.6083 39.7826 35.9375 40.5774 35.9375 41.4062V49.2188Z" fill="white"/>
<path d="M30.4688 46.8766C29.6399 46.8766 28.8451 46.5473 28.259 45.9613C27.673 45.3752 27.3438 44.5804 27.3438 43.7516V39.0641C27.3454 38.8293 27.3737 38.5955 27.4281 38.3672C26.7392 38.5248 26.1241 38.9112 25.6831 39.4635C25.2421 40.0157 25.0013 40.7011 25 41.4078V49.2203H35.9375V46.8766H30.4688Z" fill="white"/>
<path d="M46.875 49.2188H35.9375V41.4062C35.9375 40.5774 36.2667 39.7826 36.8528 39.1965C37.4388 38.6105 38.2337 38.2812 39.0625 38.2812H43.75C44.5788 38.2812 45.3737 38.6105 45.9597 39.1965C46.5458 39.7826 46.875 40.5774 46.875 41.4062V49.2188Z" fill="white"/>
<path d="M41.4062 46.8766C40.5774 46.8766 39.7826 46.5473 39.1965 45.9613C38.6105 45.3752 38.2812 44.5804 38.2812 43.7516V39.0641C38.2829 38.8293 38.3112 38.5955 38.3656 38.3672C37.6767 38.5248 37.0616 38.9112 36.6206 39.4635C36.1796 40.0157 35.9388 40.7011 35.9375 41.4078V49.2203H46.875V46.8766H41.4062Z" fill="white"/>
<path d="M42.9688 35.1562H49.2188V24.2188C45.5469 25.8375 43.1719 27.9766 42.9688 35.1562Z" fill="white"/>
<path d="M47.975 33.5945C47.5111 33.5926 47.0535 33.4878 46.635 33.2878C46.2164 33.0877 45.8475 32.7974 45.5547 32.4376C45.2619 32.0779 45.0525 31.6576 44.9416 31.2072C44.8306 30.7568 44.821 30.2874 44.9133 29.8328C45.1578 28.34 45.7389 26.9224 46.6125 25.6875C44.4531 27.3125 43.1188 29.8633 42.9688 35.157H49.2188V33.5945H47.975Z" fill="white"/>
<path d="M1.95312 42.9688C2.26393 42.9688 2.562 43.0922 2.78177 43.312C3.00153 43.5318 3.125 43.8298 3.125 44.1406V49.2188H0.78125V44.1406C0.78125 43.8298 0.904715 43.5318 1.12448 43.312C1.34425 43.0922 1.64232 42.9688 1.95312 42.9688Z" fill="white"/>
<path d="M49.2188 49.2188H46.875V44.1406C46.875 43.8298 46.9985 43.5318 47.2182 43.312C47.438 43.0922 47.7361 42.9688 48.0469 42.9688C48.3577 42.9688 48.6557 43.0922 48.8755 43.312C49.0953 43.5318 49.2188 43.8298 49.2188 44.1406V49.2188Z" fill="white"/>
<path d="M49.2188 0H0.78125C0.57405 0 0.375336 0.08231 0.228823 0.228823C0.08231 0.375336 0 0.57405 0 0.78125L0 35.1562C0 35.3634 0.08231 35.5622 0.228823 35.7087C0.375336 35.8552 0.57405 35.9375 0.78125 35.9375H7.03125C7.13571 35.9375 7.23912 35.9166 7.33536 35.876C7.4316 35.8354 7.51872 35.7759 7.59156 35.701C7.6644 35.6261 7.72148 35.5374 7.75943 35.4401C7.79738 35.3427 7.81542 35.2388 7.8125 35.1344C7.78624 33.8309 7.6535 32.5318 7.41562 31.25H42.5844C42.3465 32.5318 42.2138 33.8309 42.1875 35.1344C42.1846 35.2388 42.2026 35.3427 42.2406 35.4401C42.2785 35.5374 42.3356 35.6261 42.4084 35.701C42.4813 35.7759 42.5684 35.8354 42.6646 35.876C42.7609 35.9166 42.8643 35.9375 42.9688 35.9375H49.2188C49.4259 35.9375 49.6247 35.8552 49.7712 35.7087C49.9177 35.5622 50 35.3634 50 35.1562V0.78125C50 0.57405 49.9177 0.375336 49.7712 0.228823C49.6247 0.08231 49.4259 0 49.2188 0ZM47.7914 19.0836C47.1721 17.6903 46.7711 16.2099 46.6023 14.6945L46.0891 10.0703C46.0778 9.96833 46.0465 9.86957 45.9971 9.77968C45.9476 9.68978 45.8809 9.6105 45.8008 9.54637C45.7208 9.48224 45.6288 9.43451 45.5303 9.40591C45.4317 9.37731 45.3285 9.3684 45.2266 9.37969C45.1246 9.39097 45.0258 9.42223 44.9359 9.47169C44.846 9.52114 44.7668 9.58781 44.7026 9.6679C44.5731 9.82965 44.5131 10.0362 44.5359 10.2422L45.05 14.8664C45.2354 16.5416 45.6787 18.1781 46.3641 19.718L47.4656 22.1984C42.5 18.5938 39.6937 12.7211 39.1125 4.6875H48.4375V20.5367L47.7914 19.0836ZM4.77344 9.37969C4.56798 9.35776 4.36221 9.41812 4.20115 9.54755C4.04009 9.67699 3.93686 9.86495 3.91406 10.0703L3.40078 14.6945C3.23203 16.2099 2.83098 17.6903 2.21172 19.0836L1.5625 20.5367V4.6875H10.8875C10.3062 12.7211 7.5 18.5938 2.53437 22.1984L3.63672 19.718C4.32148 18.178 4.76446 16.5415 4.95 14.8664L5.46406 10.2422C5.47536 10.1402 5.46645 10.037 5.43785 9.93846C5.40926 9.83992 5.36153 9.74798 5.2974 9.66789C5.23326 9.5878 5.15399 9.52112 5.06408 9.47167C4.97418 9.42222 4.87542 9.39097 4.77344 9.37969ZM1.5625 34.375V27.5281L2.05156 28.507C2.26865 28.9418 2.42631 29.4037 2.52031 29.8805L3.14062 32.9688C3.17665 33.1452 3.27253 33.3038 3.41205 33.4177C3.55156 33.5316 3.72615 33.5938 3.90625 33.5938C3.95874 33.5941 4.01112 33.5889 4.0625 33.5781C4.16305 33.5576 4.25858 33.5175 4.34363 33.4601C4.42868 33.4027 4.50158 33.329 4.55817 33.2434C4.61476 33.1578 4.65393 33.0619 4.67344 32.9612C4.69295 32.8604 4.69242 32.7568 4.67188 32.6562L4.05469 29.5711C3.93248 28.9583 3.72912 28.3645 3.45 27.8055L2.57812 26.0664C4.76562 27.5469 5.97109 29.7437 6.21797 34.375H1.5625ZM7.02734 29.6875C6.68837 28.4967 6.10456 27.3899 5.31327 26.4377C4.52198 25.4855 3.54064 24.709 2.43203 24.1578C8.44766 20.3453 11.807 13.7992 12.4438 4.6875H30.4688C30.676 4.6875 30.8747 4.60519 31.0212 4.45868C31.1677 4.31216 31.25 4.11345 31.25 3.90625C31.25 3.69905 31.1677 3.50034 31.0212 3.35382C30.8747 3.20731 30.676 3.125 30.4688 3.125H1.5625V1.5625H48.4375V3.125H33.5938C33.3866 3.125 33.1878 3.20731 33.0413 3.35382C32.8948 3.50034 32.8125 3.69905 32.8125 3.90625C32.8125 4.11345 32.8948 4.31216 33.0413 4.45868C33.1878 4.60519 33.3866 4.6875 33.5938 4.6875H37.5562C38.1914 13.7992 41.55 20.3453 47.568 24.1578C46.4594 24.709 45.478 25.4855 44.6867 26.4377C43.8954 27.3899 43.3116 28.4967 42.9727 29.6875H7.02734ZM43.782 34.375C44.0289 29.7437 45.2336 27.5469 47.4219 26.0664L46.55 27.8125C46.271 28.3713 46.0677 28.9648 45.9453 29.5773L45.3281 32.6633C45.2887 32.8653 45.3306 33.0747 45.4447 33.246C45.5588 33.4173 45.7359 33.5367 45.9375 33.5781C45.9889 33.5889 46.0413 33.5941 46.0938 33.5938C46.2737 33.5936 46.4481 33.5313 46.5875 33.4175C46.7268 33.3036 46.8226 33.1451 46.8586 32.9688L47.4766 29.8828C47.5707 29.4063 47.7283 28.9447 47.9453 28.5102L48.4375 27.5281V34.375H43.782Z" fill="#FF7B02"/>
<path d="M48.0469 42.1875C47.9157 42.1876 47.7848 42.201 47.6562 42.2273V41.4062C47.655 40.3706 47.2431 39.3778 46.5108 38.6455C45.7785 37.9132 44.7856 37.5012 43.75 37.5H42.1875V36.7188C42.1863 35.6831 41.7743 34.6903 41.042 33.958C40.3097 33.2257 39.3169 32.8137 38.2812 32.8125H33.5938C32.9851 32.8142 32.3853 32.9586 31.8426 33.2342C31.2998 33.5098 30.8293 33.9088 30.4688 34.3992C30.1082 33.9088 29.6377 33.5098 29.0949 33.2342C28.5522 32.9586 27.9524 32.8142 27.3438 32.8125H22.6562C22.0476 32.8142 21.4478 32.9586 20.905 33.2342C20.3623 33.5098 19.8918 33.9088 19.5312 34.3992C19.1707 33.9088 18.7002 33.5098 18.1575 33.2342C17.6147 32.9586 17.0149 32.8142 16.4062 32.8125H11.7188C10.6831 32.8137 9.69028 33.2257 8.95798 33.958C8.22569 34.6903 7.81374 35.6831 7.8125 36.7188V37.5H6.25C5.21438 37.5012 4.22153 37.9132 3.48923 38.6455C2.75694 39.3778 2.34499 40.3706 2.34375 41.4062V42.2273C2.06001 42.1694 1.76694 42.1753 1.48577 42.2446C1.20459 42.3139 0.942342 42.4449 0.718008 42.628C0.493675 42.8111 0.312872 43.0419 0.188691 43.3035C0.0645093 43.5651 5.67286e-05 43.851 0 44.1406L0 49.2188C0 49.426 0.08231 49.6247 0.228823 49.7712C0.375336 49.9177 0.57405 50 0.78125 50H49.2188C49.4259 50 49.6247 49.9177 49.7712 49.7712C49.9177 49.6247 50 49.426 50 49.2188V44.1406C50 43.6226 49.7942 43.1258 49.4279 42.7596C49.0617 42.3933 48.5649 42.1875 48.0469 42.1875ZM33.5938 34.375H38.2812C38.9029 34.375 39.499 34.6219 39.9385 35.0615C40.3781 35.501 40.625 36.0971 40.625 36.7188V37.5H39.0625C38.4538 37.5017 37.854 37.6461 37.3113 37.9217C36.7686 38.1973 36.298 38.5963 35.9375 39.0867C35.577 38.5963 35.1064 38.1973 34.5637 37.9217C34.021 37.6461 33.4212 37.5017 32.8125 37.5H31.25V36.7188C31.25 36.0971 31.4969 35.501 31.9365 35.0615C32.376 34.6219 32.9721 34.375 33.5938 34.375ZM22.6562 34.375H27.3438C27.9654 34.375 28.5615 34.6219 29.001 35.0615C29.4406 35.501 29.6875 36.0971 29.6875 36.7188V37.5H28.125C27.5163 37.5017 26.9165 37.6461 26.3738 37.9217C25.8311 38.1973 25.3605 38.5963 25 39.0867C24.6395 38.5963 24.1689 38.1973 23.6262 37.9217C23.0835 37.6461 22.4837 37.5017 21.875 37.5H20.3125V36.7188C20.3125 36.0971 20.5594 35.501 20.999 35.0615C21.4385 34.6219 22.0346 34.375 22.6562 34.375ZM9.375 36.7188C9.375 36.0971 9.62193 35.501 10.0615 35.0615C10.501 34.6219 11.0971 34.375 11.7188 34.375H16.4062C17.0279 34.375 17.624 34.6219 18.0635 35.0615C18.5031 35.501 18.75 36.0971 18.75 36.7188V37.5H17.1875C16.5788 37.5017 15.979 37.6461 15.4363 37.9217C14.8936 38.1973 14.423 38.5963 14.0625 39.0867C13.702 38.5963 13.2314 38.1973 12.6887 37.9217C12.146 37.6461 11.5462 37.5017 10.9375 37.5H9.375V36.7188ZM1.5625 44.1406C1.5625 44.037 1.60366 43.9377 1.67691 43.8644C1.75017 43.7912 1.84952 43.75 1.95312 43.75C2.05673 43.75 2.15608 43.7912 2.22934 43.8644C2.30259 43.9377 2.34375 44.037 2.34375 44.1406V48.4375H1.5625V44.1406ZM3.90625 44.1406V41.4062C3.90625 40.7846 4.15318 40.1885 4.59272 39.749C5.03226 39.3094 5.6284 39.0625 6.25 39.0625H10.9375C11.5591 39.0625 12.1552 39.3094 12.5948 39.749C13.0343 40.1885 13.2812 40.7846 13.2812 41.4062V48.4375H3.90625V44.1406ZM14.8438 41.4062C14.8438 40.7846 15.0907 40.1885 15.5302 39.749C15.9698 39.3094 16.5659 39.0625 17.1875 39.0625H21.875C22.4966 39.0625 23.0927 39.3094 23.5323 39.749C23.9718 40.1885 24.2188 40.7846 24.2188 41.4062V48.4375H14.8438V41.4062ZM25.7812 41.4062C25.7812 40.7846 26.0282 40.1885 26.4677 39.749C26.9073 39.3094 27.5034 39.0625 28.125 39.0625H32.8125C33.4341 39.0625 34.0302 39.3094 34.4698 39.749C34.9093 40.1885 35.1562 40.7846 35.1562 41.4062V48.4375H25.7812V41.4062ZM36.7188 41.4062C36.7188 40.7846 36.9657 40.1885 37.4052 39.749C37.8448 39.3094 38.4409 39.0625 39.0625 39.0625H43.75C44.3716 39.0625 44.9677 39.3094 45.4073 39.749C45.8468 40.1885 46.0938 40.7846 46.0938 41.4062V48.4375H36.7188V41.4062ZM48.4375 48.4375H47.6562V44.1406C47.6562 44.037 47.6974 43.9377 47.7707 43.8644C47.8439 43.7912 47.9433 43.75 48.0469 43.75C48.1505 43.75 48.2498 43.7912 48.3231 43.8644C48.3963 43.9377 48.4375 44.037 48.4375 44.1406V48.4375Z" fill="#FF7B02"/>
<path d="M27.8979 14.2912C27.7514 14.1448 27.5527 14.0625 27.3455 14.0625C27.1384 14.0625 26.9397 14.1448 26.7932 14.2912L16.6369 24.4475C16.5623 24.5196 16.5028 24.6058 16.4619 24.7011C16.4209 24.7964 16.3994 24.8989 16.3985 25.0026C16.3976 25.1064 16.4173 25.2093 16.4566 25.3053C16.4959 25.4013 16.5539 25.4885 16.6273 25.5619C16.7006 25.6352 16.7878 25.6932 16.8839 25.7325C16.9799 25.7718 17.0827 25.7916 17.1865 25.7907C17.2902 25.7898 17.3927 25.7682 17.488 25.7273C17.5834 25.6863 17.6696 25.6268 17.7416 25.5522L27.8979 15.3959C28.0443 15.2494 28.1266 15.0507 28.1266 14.8436C28.1266 14.6364 28.0443 14.4377 27.8979 14.2912Z" fill="#FF7B02"/>
<path d="M32.2619 8.82087L29.1369 11.9459C29.0623 12.0179 29.0028 12.1041 28.9619 12.1995C28.9209 12.2948 28.8994 12.3973 28.8985 12.501C28.8976 12.6048 28.9173 12.7076 28.9566 12.8036C28.9959 12.8997 29.0539 12.9869 29.1273 13.0602C29.2006 13.1336 29.2878 13.1916 29.3839 13.2309C29.4799 13.2702 29.5827 13.2899 29.6865 13.289C29.7902 13.2881 29.8927 13.2666 29.988 13.2256C30.0834 13.1847 30.1696 13.1252 30.2416 13.0506L33.3666 9.92556C33.5089 9.77821 33.5877 9.58087 33.5859 9.37602C33.5841 9.17118 33.502 8.97524 33.3571 8.83039C33.2123 8.68554 33.0163 8.60337 32.8115 8.60159C32.6066 8.59981 32.4093 8.67856 32.2619 8.82087Z" fill="#FF7B02"/>
<path d="M32.2619 16.6334L24.4494 24.4459C24.3748 24.5179 24.3153 24.6041 24.2744 24.6995C24.2334 24.7948 24.2119 24.8973 24.211 25.001C24.2101 25.1048 24.2298 25.2076 24.2691 25.3036C24.3084 25.3997 24.3664 25.4869 24.4398 25.5602C24.5131 25.6336 24.6003 25.6916 24.6964 25.7309C24.7924 25.7702 24.8952 25.7899 24.999 25.789C25.1027 25.7881 25.2052 25.7666 25.3005 25.7256C25.3959 25.6847 25.4821 25.6252 25.5541 25.5506L33.3666 17.7381C33.5089 17.5907 33.5877 17.3934 33.5859 17.1885C33.5841 16.9837 33.502 16.7877 33.3571 16.6429C33.2123 16.498 33.0163 16.4159 32.8115 16.4141C32.6066 16.4123 32.4093 16.4911 32.2619 16.6334Z" fill="#FF7B02"/>
</g>
<defs>
<clipPath id="clip0_30_18266">
<rect width="50" height="50" fill="white"/>
</clipPath>
</defs>
</svg>
