<svg width="62" height="62" viewBox="0 0 62 62" fill="none" xmlns="http://www.w3.org/2000/svg">
<g clip-path="url(#clip0_30_18247)">
<path fill-rule="evenodd" clip-rule="evenodd" d="M33.6887 45.8774L42.5552 41.0518C44.0967 40.2114 44.6695 38.2642 43.8315 36.7239C42.9935 35.186 41.0475 34.6096 39.506 35.4476L29.8984 40.6788L33.6887 45.8774Z" fill="white"/>
<path fill-rule="evenodd" clip-rule="evenodd" d="M32.2382 51.6164L50.7982 41.5208C52.3397 40.6828 52.9125 38.7368 52.0745 37.1953C51.2341 35.6574 49.287 35.081 47.7454 35.9214L38.1621 41.1321C38.0107 39.9441 37.1909 38.8834 35.9788 38.4922C32.3193 37.3152 28.6635 36.137 25.0052 34.9599C22.0772 34.019 19.2073 34.2866 16.5057 35.7567L5.25 41.8804L11.72 53.7609L15.9184 51.4747C17.8752 50.4103 19.952 50.2177 22.0736 50.8983L26.083 52.1891C28.2045 52.8721 30.2813 52.6796 32.2382 51.6164Z" fill="white"/>
<path fill-rule="evenodd" clip-rule="evenodd" d="M9.34902 39.6523L5.25 41.8841L11.7237 53.7646L15.9184 51.4784C15.9838 51.4444 16.0491 51.4093 16.1145 51.3754L9.34902 39.6523Z" fill="white"/>
<path fill-rule="evenodd" clip-rule="evenodd" d="M1.07791 41.3962L10.3937 57.5634C10.6237 57.9582 11.1347 58.095 11.5331 57.8686L15.6733 55.483C16.0717 55.2566 16.2086 54.7456 15.9785 54.3472L6.66639 38.1836C6.43631 37.7852 5.9253 37.6483 5.5269 37.8748L1.3867 40.2603C0.988304 40.4904 0.851468 41.0014 1.07791 41.3962Z" fill="white"/>
<path fill-rule="evenodd" clip-rule="evenodd" d="M20.3594 40.1617C21.8113 40.6316 23.2632 41.099 24.7151 41.5652C27.8175 42.5642 30.9248 43.5632 34.0272 44.5623C35.6959 45.1011 37.5038 44.1748 38.0403 42.5061C38.5791 40.8374 37.6528 39.0319 35.9841 38.4931L27.4676 35.7539L20.3594 40.1617Z" fill="white"/>
<path fill-rule="evenodd" clip-rule="evenodd" d="M1.078 41.3962L1.7537 42.5635C1.52362 42.1688 1.66046 41.6578 2.05886 41.4277L6.20147 39.0421C6.58534 38.823 7.07698 38.9465 7.31312 39.3134L6.66405 38.1836C6.43397 37.7852 5.92296 37.6483 5.52456 37.8748L1.38437 40.2603C0.988389 40.4904 0.851553 41.0014 1.078 41.3962Z" fill="white"/>
<path fill-rule="evenodd" clip-rule="evenodd" d="M34.3977 28.742C35.404 28.478 36.351 28.0796 37.2301 27.5686C37.4396 27.4451 37.6794 27.4379 37.8961 27.5517L39.5442 28.3896C39.8191 28.5301 40.1376 28.4793 40.3543 28.2625L42.0254 26.5914C42.2446 26.3746 42.293 26.0562 42.1562 25.7813L41.3158 24.1332C41.2056 23.914 41.2129 23.6767 41.3364 23.4636C41.8474 22.588 42.2458 21.6375 42.5098 20.6348C42.5716 20.3975 42.7362 20.2231 42.9663 20.1468L44.7234 19.5764C45.0152 19.4808 45.2078 19.2192 45.2078 18.9141V16.5491C45.2078 16.2403 45.0152 15.9787 44.7234 15.8831L42.9663 15.3127C42.7326 15.2377 42.5716 15.0621 42.5062 14.8247C42.2422 13.8221 41.8474 12.8715 41.3352 11.996C41.2117 11.7829 41.2044 11.5467 41.3146 11.3263L42.155 9.67824C42.2918 9.40336 42.2446 9.0873 42.0242 8.86812L40.3531 7.19703C40.1364 6.98027 39.8179 6.92941 39.543 7.06988L37.8949 7.90785C37.6782 8.02168 37.4384 8.01441 37.2289 7.8909C36.3498 7.37988 35.4028 6.98148 34.3965 6.7175C34.1592 6.65574 33.9848 6.49105 33.9085 6.25734L33.3382 4.50027C33.2425 4.20844 32.9809 4.01953 32.6758 4.01953H30.3108C30.002 4.01953 29.7405 4.20844 29.6484 4.50027L29.0757 6.25734C29.0006 6.49105 28.8286 6.65574 28.5913 6.7175C27.585 6.98148 26.6344 7.37988 25.7589 7.8909C25.5494 8.01441 25.3096 8.02168 25.0929 7.90785L23.4448 7.06988C23.1699 6.92941 22.8514 6.98027 22.6347 7.19703L20.96 8.86812C20.7432 9.0873 20.6923 9.40336 20.8328 9.67824L21.6732 11.3263C21.7834 11.5455 21.7761 11.7829 21.6526 11.996C21.1416 12.8715 20.7432 13.8221 20.4792 14.8247C20.4175 15.0621 20.2528 15.2364 20.0227 15.3127L18.2656 15.8831C17.9702 15.9787 17.7812 16.2403 17.7812 16.5491V18.9141C17.7812 19.2192 17.9702 19.4808 18.2656 19.5764L20.0227 20.1468C20.2528 20.2219 20.4175 20.3975 20.4792 20.6348C20.7432 21.6375 21.1416 22.588 21.6526 23.4636C21.7761 23.6767 21.7834 23.9128 21.6732 24.1332L20.8328 25.7813C20.6923 26.0562 20.7432 26.3746 20.96 26.5914L22.6347 28.2625C22.8514 28.4793 23.1699 28.5301 23.4448 28.3896L25.0929 27.5517C25.3096 27.4379 25.5494 27.4451 25.7589 27.5686C26.6344 28.0796 27.585 28.478 28.5913 28.742C28.8286 28.8038 28.9994 28.9685 29.0757 29.2022L29.6484 30.9593C29.7417 31.2511 30.002 31.44 30.3108 31.44H32.6758C32.9809 31.44 33.2425 31.2511 33.3382 30.9593L33.9085 29.2022C33.986 28.9697 34.1604 28.8038 34.3977 28.742Z" fill="white"/>
<path fill-rule="evenodd" clip-rule="evenodd" d="M31.491 24.1158C35.0088 24.1158 37.8751 21.2459 37.8751 17.7317C37.8751 14.2164 35.0088 11.3477 31.491 11.3477C27.9757 11.3477 25.1094 14.2176 25.1094 17.7317C25.1094 21.2471 27.9757 24.1158 31.491 24.1158Z" fill="white"/>
<path fill-rule="evenodd" clip-rule="evenodd" d="M47.1607 15.3473H58.2141L61.0284 17.7292L58.2141 20.1111H57.1643L56.2512 18.9583C56.0938 18.7561 55.8843 18.7561 55.7257 18.9583L54.8126 20.1111H53.4188L52.5094 18.9583C52.3484 18.7561 52.1425 18.7561 51.9802 18.9583L51.0708 20.1111H47.1607C46.2065 22.5657 43.8209 24.3058 41.0297 24.3058C37.3981 24.3058 34.4531 21.3608 34.4531 17.7292C34.4531 14.0976 37.3981 11.1562 41.0297 11.1562C43.8209 11.1562 46.2065 12.8927 47.1607 15.3473Z" fill="white"/>
<path fill-rule="evenodd" clip-rule="evenodd" d="M37.1641 17.7303C37.1641 16.9166 37.8192 16.2578 38.6329 16.2578C39.4467 16.2578 40.1054 16.9166 40.1054 17.7303C40.1054 18.5441 39.4467 19.2028 38.6329 19.2028C37.8192 19.2028 37.1641 18.5441 37.1641 17.7303Z" fill="white"/>
<path fill-rule="evenodd" clip-rule="evenodd" d="M26.7054 17.729C26.7054 14.4752 29.1394 11.787 32.2902 11.3958C32.0299 11.3619 31.7611 11.3438 31.491 11.3438C27.966 11.3438 25.1094 14.2028 25.1094 17.7278C25.1094 21.2529 27.9648 24.1119 31.491 24.1119C31.7623 24.1119 32.0299 24.0949 32.2902 24.0598C29.1394 23.6711 26.7054 20.9828 26.7054 17.729Z" fill="white"/>
<path fill-rule="evenodd" clip-rule="evenodd" d="M41.6848 24.2719C41.4681 24.2925 41.2489 24.3058 41.0297 24.3058C37.3981 24.3058 34.4531 21.3608 34.4531 17.7292C34.4531 14.0976 37.3981 11.1562 41.0297 11.1562C41.2489 11.1562 41.4693 11.1659 41.6848 11.1865C38.3584 11.5159 35.7634 14.3168 35.7634 17.7292C35.7634 21.1416 38.3584 23.945 41.6848 24.2719Z" fill="white"/>
<path d="M50.4509 34.7313C49.3829 34.4165 48.2591 34.5339 47.2843 35.0631L44.7728 36.4315C44.745 36.3734 44.7147 36.3152 44.6844 36.2583C43.5898 34.2445 41.0601 33.4974 39.0439 34.5921L34.5828 37.0188L25.3058 34.0326C22.1089 33.0021 18.9932 33.2939 16.0458 34.8997L8.32242 39.1016L7.50503 37.6824C7.00492 36.825 5.90054 36.5296 5.0432 37.0248L0.903001 39.4104C0.485227 39.6514 0.186126 40.0425 0.0613993 40.5099C-0.0621163 40.9737 0.00206337 41.4581 0.241829 41.871L9.55636 58.0467C9.79613 58.4633 10.1836 58.7624 10.6498 58.8871C10.806 58.9295 10.9647 58.9501 11.1221 58.9501C11.4333 58.9501 11.7409 58.8689 12.017 58.7091L16.1644 56.3211C17.0194 55.8234 17.3148 54.7215 16.822 53.8629L16.0446 52.5127L16.3836 52.3287C18.1007 51.3938 19.9171 51.2231 21.7808 51.8237L25.7902 53.1146C26.7202 53.4137 27.6417 53.5638 28.5499 53.5638C29.9716 53.5638 31.3617 53.1981 32.7046 52.4667L51.2623 42.3675C53.2748 41.2692 54.0208 38.7383 52.9273 36.7245C52.4005 35.7558 51.5202 35.0462 50.4509 34.7313ZM39.9703 36.2959C41.0468 35.711 42.397 36.1094 42.9807 37.1835C43.0121 37.2416 43.04 37.3009 43.0666 37.3603L38.7436 39.7143C38.3718 38.9514 37.7736 38.3121 37.0313 37.8943L39.9703 36.2959ZM11.1705 56.9641L1.99163 41.0258L5.8957 38.7759L13.8588 52.6036V52.6048C13.8588 52.606 13.86 52.606 13.86 52.6072L15.0746 54.7179L11.1705 56.9641ZM50.3371 40.6686L31.7807 50.7666C30.0624 51.7014 28.2472 51.8709 26.3872 51.2715L22.3778 49.9807C19.9886 49.2117 17.6612 49.4297 15.4597 50.6285L15.0794 50.8356L9.29117 40.7848L16.9734 36.6046C19.4352 35.2629 22.0387 35.0183 24.7112 35.8805L35.6848 39.4128C36.4985 39.6756 37.0967 40.3997 37.2081 41.2583C37.2118 41.2837 37.2166 41.3079 37.2226 41.3321C37.2202 41.3648 37.2202 41.3988 37.2226 41.4327C37.2348 41.7003 37.2009 41.9618 37.1209 42.2089C36.7443 43.3738 35.4898 44.0156 34.3249 43.6402C31.2212 42.6412 28.1188 41.6421 25.0116 40.6431C24.5018 40.4796 23.9556 40.7594 23.7921 41.2692C23.6287 41.779 23.9084 42.3251 24.4182 42.4886C27.5243 43.4876 30.6279 44.4866 33.7303 45.4845C34.1529 45.6213 34.5816 45.6855 35.0042 45.6855C36.7613 45.6855 38.3985 44.5629 38.9664 42.8046C39.0826 42.4474 39.1468 42.0757 39.1614 41.6978L44.6481 38.7093C44.6639 38.7008 44.6796 38.6935 44.6941 38.6838L48.2131 36.7669C48.7314 36.4848 49.332 36.423 49.9036 36.5913C50.4752 36.7597 50.945 37.1375 51.2259 37.6545C51.8096 38.7298 51.4112 40.0825 50.3371 40.6686ZM61.6594 16.9887L58.8451 14.6104C58.6696 14.4627 58.448 14.3815 58.2191 14.3815H47.7966C46.8109 12.4029 44.986 10.9558 42.8717 10.4181L43.0194 10.1275C43.3524 9.48691 43.2325 8.70828 42.7167 8.18395L41.0419 6.51285C40.5285 5.99941 39.7499 5.87711 39.1057 6.2077L37.5932 6.98027C36.7116 6.47895 35.7719 6.09023 34.7947 5.8202L34.2692 4.20723C34.0488 3.51578 33.4118 3.05078 32.6828 3.05078H30.3179C29.5962 3.05078 28.9604 3.51215 28.7328 4.20238L28.2084 5.81898C27.2373 6.0866 26.2976 6.47652 25.4063 6.98027L23.8939 6.20891C23.2472 5.87711 22.4686 5.99941 21.9564 6.51285L20.2841 8.18516C19.773 8.69738 19.6483 9.47359 19.9753 10.1214L20.7491 11.6363C20.2514 12.513 19.8627 13.4539 19.5914 14.436L17.9784 14.9616C17.2846 15.182 16.8184 15.8201 16.8184 16.5479V18.9129C16.8184 19.6334 17.2809 20.2703 17.9724 20.498L19.5866 21.0211C19.8566 21.9995 20.2477 22.9404 20.7491 23.822L19.9716 25.3441C19.6471 25.9944 19.7743 26.7718 20.2841 27.2732L21.9503 28.9394C22.4577 29.4541 23.2351 29.5824 23.8927 29.253L25.4063 28.4805C26.2879 28.9794 27.2288 29.3681 28.2084 29.6381L28.734 31.2596C28.9604 31.9474 29.5974 32.41 30.3179 32.41H32.6828C33.4118 32.41 34.0488 31.9437 34.2668 31.2571L34.7947 29.6369C35.7768 29.3657 36.7153 28.9782 37.5932 28.4793L39.1129 29.2555C39.7632 29.58 40.5406 29.4529 41.0419 28.9443L42.7179 27.272C43.2313 26.7585 43.3536 25.9799 43.023 25.3369L42.8729 25.0426C44.9872 24.5037 46.8109 23.0579 47.7966 21.0792H51.0758C51.3725 21.0792 51.6522 20.9436 51.8362 20.7111L52.2516 20.1868L52.667 20.7111C52.851 20.9436 53.1307 21.0792 53.4274 21.0792H54.8212C55.1179 21.0792 55.3988 20.9436 55.5829 20.7099L55.9958 20.1868L56.4087 20.7099C56.5928 20.9436 56.8737 21.0792 57.1704 21.0792H58.2203C58.4492 21.0792 58.672 20.9981 58.8464 20.8491L61.6606 18.4672C61.8785 18.2832 62.0033 18.0119 62.0033 17.7261C62.0033 17.4428 61.8773 17.1727 61.6594 16.9887ZM39.808 27.4354L38.3367 26.6847C37.8281 26.4255 37.2299 26.4449 36.7419 26.7331C35.9378 27.2029 35.0672 27.5626 34.1541 27.8023C33.5947 27.9489 33.1709 28.3485 32.9928 28.8995L32.4806 30.4725H30.5141L30.0043 28.9019C29.8275 28.3582 29.3927 27.9464 28.8405 27.8023C27.9323 27.5638 27.0605 27.2029 26.2552 26.7343C25.7635 26.4449 25.1666 26.4255 24.6555 26.6847L23.1855 27.4342L21.7905 26.0392L22.5412 24.5679C22.8016 24.0545 22.7846 23.4732 22.4928 22.9707C22.0193 22.1606 21.6585 21.2899 21.4199 20.3866C21.2758 19.8356 20.8677 19.3996 20.324 19.2216L18.7534 18.7118V16.7453L20.324 16.233C20.8653 16.0575 21.2649 15.6409 21.4199 15.0875C21.4211 15.0827 21.4223 15.0778 21.4235 15.073C21.6633 14.1587 22.0242 13.288 22.4916 12.4876C22.7846 11.9911 22.804 11.4099 22.5412 10.8843L21.7905 9.41426L23.183 8.02168L24.6568 8.77367C25.1653 9.03281 25.7635 9.01344 26.2503 8.72645C27.0677 8.25055 27.9396 7.88969 28.8393 7.65234C29.3927 7.50824 29.8287 7.09652 30.0043 6.55281L30.5128 4.98586H32.4818L32.9928 6.55281C33.1721 7.10621 33.5947 7.50703 34.1529 7.65234C35.0599 7.8909 35.9318 8.25176 36.7383 8.72402C37.2299 9.01344 37.8269 9.03281 38.3379 8.77367L39.8104 8.02168L41.2042 9.41305L40.8094 10.1893C39.0221 10.2425 37.3885 10.9195 36.1207 12.0105C34.8189 10.9509 33.2108 10.3757 31.4985 10.3757C27.4431 10.3757 24.1445 13.6731 24.1445 17.7261C24.1445 21.7816 27.4431 25.0802 31.4985 25.0802C33.1805 25.0802 34.8177 24.4916 36.1183 23.443C37.3861 24.5364 39.0209 25.2146 40.8094 25.2666L41.203 26.0404L39.808 27.4354ZM34.8238 22.0032C33.878 22.743 32.724 23.1439 31.4998 23.1439C28.5136 23.1439 26.0844 20.7147 26.0844 17.7286C26.0844 14.7448 28.5136 12.3169 31.4998 12.3169C32.7264 12.3169 33.8805 12.7165 34.8238 13.4564C33.9846 14.6721 33.493 16.1434 33.493 17.7286C33.4918 19.3149 33.9846 20.7874 34.8238 22.0032ZM57.8631 19.1417H57.6378L57.0166 18.3534C56.7502 18.0192 56.3869 17.8363 55.9934 17.8363C55.5998 17.8363 55.2366 18.0204 54.9677 18.357L54.3489 19.1417H53.8948L53.2773 18.3619C53.0169 18.0277 52.6427 17.8363 52.2504 17.8363C51.858 17.8363 51.4839 18.0277 51.2271 18.3558L50.6047 19.1417H47.1644C46.7648 19.1417 46.4052 19.3875 46.2611 19.7605C45.4292 21.899 43.3294 23.3364 41.0347 23.3364C37.9444 23.3364 35.4305 20.8213 35.4305 17.7298C35.4305 14.6395 37.9444 12.1255 41.0347 12.1255C43.3294 12.1255 45.4292 13.5629 46.2611 15.7014C46.4064 16.0744 46.7648 16.3202 47.1644 16.3202H57.8619L59.5293 17.7298L57.8631 19.1417ZM38.6358 15.2897C37.2905 15.2897 36.197 16.3832 36.197 17.7286C36.197 19.0751 37.2905 20.171 38.6358 20.171C39.9824 20.171 41.0783 19.0751 41.0783 17.7286C41.0783 16.3844 39.9824 15.2897 38.6358 15.2897ZM38.6358 18.2311C38.3609 18.2311 38.1369 18.0059 38.1369 17.7286C38.1369 17.4537 38.3609 17.2296 38.6358 17.2296C38.9131 17.2296 39.1384 17.4537 39.1384 17.7286C39.1384 18.0059 38.9131 18.2311 38.6358 18.2311Z" fill="#FF7B02"/>
</g>
<defs>
<clipPath id="clip0_30_18247">
<rect width="62" height="62" fill="white"/>
</clipPath>
</defs>
</svg>
