<svg width="73" height="54" viewBox="0 0 73 54" fill="none" xmlns="http://www.w3.org/2000/svg">
<path d="M16.1773 54C11.3241 54 7.41459 52.3209 4.44875 48.9627C1.48292 45.4701 0 40.8358 0 35.0597C0 27.6716 2.15697 20.7537 6.47091 14.306C10.7849 7.85821 16.1099 3.08955 22.446 0L24.4681 3.42536C21.7719 5.57462 19.3453 8.19403 17.1884 11.2836C15.1662 14.3731 13.5485 18.1343 12.3352 22.5672L16.5817 23.7761C20.8957 25.1194 24.2659 27.1343 26.6925 29.8209C29.2539 32.5075 30.5346 35.7985 30.5346 39.694C30.5346 43.9925 29.1191 47.4851 26.2881 50.1716C23.4571 52.7239 20.0868 54 16.1773 54ZM58.6427 54C53.7895 54 49.88 52.3209 46.9141 48.9627C43.9483 45.4701 42.4654 40.8358 42.4654 35.0597C42.4654 27.6716 44.6223 20.7537 48.9363 14.306C53.2502 7.85821 58.5752 3.08955 64.9114 0L66.9335 3.42536C64.2373 5.57462 61.8107 8.19403 59.6537 11.2836C57.6316 14.3731 56.0139 18.1343 54.8006 22.5672L59.0471 23.7761C63.361 25.1194 66.7313 27.1343 69.1579 29.8209C71.7193 32.5075 73 35.7985 73 39.694C73 43.9925 71.5845 47.4851 68.7535 50.1716C65.9224 52.7239 62.5522 54 58.6427 54Z" fill="white"/>
</svg>
