<svg width="30" height="39" viewBox="0 0 30 39" fill="none" xmlns="http://www.w3.org/2000/svg">
<path fill-rule="evenodd" clip-rule="evenodd" d="M4.91624 36.5023H23.5972V37.2255C23.5972 38.2027 22.8276 38.9982 21.8822 38.9982L1.71502 39C0.769615 39 0 38.2045 0 37.2272V8.39076C0 7.41529 0.769615 6.618 1.71502 6.618H2.4147V33.9183C2.4147 35.3435 3.53755 36.5042 4.91641 36.5042L4.91624 36.5023ZM26.7304 4.7464H29.6075L25.4078 0.40537V3.37933C25.4078 3.75505 25.5563 4.09723 25.7952 4.34419C26.0341 4.59114 26.3652 4.7446 26.7286 4.7446L26.7304 4.7464ZM30 5.55958V30.6092C30 31.5865 29.2304 32.382 28.285 32.382H8.11781C7.1724 32.382 6.40278 31.5865 6.40278 30.6092V1.77275C6.40278 0.797283 7.1724 0 8.11781 0H24.6228V3.37969C24.6228 3.97942 24.86 4.5245 25.2406 4.91962C25.6228 5.31474 26.1501 5.55818 26.7303 5.55818H30L30 5.55958ZM9.33787 7.44698C9.33787 7.671 9.51363 7.85269 9.73036 7.85269H21.0682C21.2849 7.85269 21.4607 7.67101 21.4607 7.44698C21.4607 7.22296 21.2849 7.04128 21.0682 7.04128H9.73036C9.51364 7.04128 9.33787 7.22296 9.33787 7.44698ZM21.4607 26.5911C21.4607 26.3671 21.2849 26.1854 21.0682 26.1854H9.73041C9.51369 26.1854 9.33792 26.3671 9.33792 26.5911C9.33792 26.8151 9.51369 26.9968 9.73041 26.9968H21.0682C21.2849 26.9968 21.4607 26.8151 21.4607 26.5911ZM27.063 22.7616C27.063 22.5376 26.8872 22.3559 26.6705 22.3559H9.73041C9.51369 22.3559 9.33792 22.5376 9.33792 22.7616C9.33792 22.9856 9.51369 23.1673 9.73041 23.1673H26.6705C26.8872 23.1673 27.063 22.9856 27.063 22.7616ZM27.063 18.9321C27.063 18.7081 26.8872 18.5264 26.6705 18.5264H9.73041C9.51369 18.5264 9.33792 18.7081 9.33792 18.9321C9.33792 19.1561 9.51369 19.3378 9.73041 19.3378H26.6705C26.8872 19.3378 27.063 19.1561 27.063 18.9321ZM27.063 15.1026C27.063 14.8786 26.8872 14.6969 26.6705 14.6969H9.73041C9.51369 14.6969 9.33792 14.8786 9.33792 15.1026C9.33792 15.3266 9.51369 15.5083 9.73041 15.5083H26.6705C26.8872 15.5083 27.063 15.3266 27.063 15.1026ZM27.063 11.2731C27.063 11.0491 26.8872 10.8674 26.6705 10.8674H9.73041C9.51369 10.8674 9.33792 11.0491 9.33792 11.2731C9.33792 11.4971 9.51369 11.6788 9.73041 11.6788H26.6705C26.8872 11.6788 27.063 11.4971 27.063 11.2731ZM5.61583 30.6073V3.30884H4.91615C3.97245 3.30884 3.20113 4.10436 3.20113 5.0816V33.9181C3.20113 34.8936 3.97075 35.6908 4.91615 35.6908H25.0833C26.0287 35.6908 26.7983 34.8953 26.7983 33.9181V33.1949H8.11737C6.73855 33.1949 5.61565 32.0342 5.61565 30.6089L5.61583 30.6073Z" fill="#FF7B02"/>
</svg>
