<svg width="32" height="31" viewBox="0 0 32 31" fill="none" xmlns="http://www.w3.org/2000/svg">
<path d="M10.8787 16.8624L3.79677 18.352C3.5072 18.413 3.28908 18.6523 3.25527 18.9462C3.22139 19.2402 3.37945 19.5228 3.64764 19.6479L4.99145 20.2747L2.95133 22.3149C2.68289 22.5834 2.68289 23.0187 2.95133 23.2872L5.26827 25.6041C5.40252 25.7384 5.57845 25.8055 5.75439 25.8055C5.93033 25.8055 6.10627 25.7384 6.24052 25.6041L8.28064 23.564L8.90752 24.9078C9.03258 25.176 9.31508 25.3339 9.60914 25.3002C9.90314 25.2664 10.1425 25.0482 10.2033 24.7587L11.6929 17.6767C11.7407 17.4494 11.6705 17.2132 11.5063 17.049C11.3421 16.8848 11.106 16.8145 10.8787 16.8624ZM9.2822 22.4582L9.11183 22.093C9.01702 21.8897 8.82902 21.7455 8.60808 21.7065C8.3872 21.6675 8.1612 21.7389 8.00258 21.8975L5.75445 24.1457L4.40977 22.801L6.65795 20.5529C6.81658 20.3942 6.88783 20.1682 6.84889 19.9474C6.80995 19.7264 6.6657 19.5385 6.46245 19.4436L6.0972 19.2732L10.1306 18.4249L9.2822 22.4582Z" fill="white"/>
<path d="M28.5633 11.6094H20.9824C20.6027 11.6094 20.2949 11.9172 20.2949 12.2969C20.2949 12.6766 20.6027 12.9844 20.9824 12.9844H28.5633C28.943 12.9844 29.2508 12.6766 29.2508 12.2969C29.2508 11.9172 28.943 11.6094 28.5633 11.6094Z" fill="white"/>
<path d="M20.9824 10.7305H25.7761C26.1558 10.7305 26.4636 10.4227 26.4636 10.043C26.4636 9.66328 26.1558 9.35547 25.7761 9.35547H20.9824C20.6027 9.35547 20.2949 9.66328 20.2949 10.043C20.2949 10.4227 20.6027 10.7305 20.9824 10.7305Z" fill="white"/>
<path d="M28.5633 18.332H20.9824C20.6027 18.332 20.2949 18.6398 20.2949 19.0195C20.2949 19.3992 20.6027 19.707 20.9824 19.707H28.5633C28.943 19.707 29.2508 19.3992 29.2508 19.0195C29.2508 18.6398 28.943 18.332 28.5633 18.332Z" fill="white"/>
<path d="M20.9824 17.4492H25.7761C26.1558 17.4492 26.4636 17.1414 26.4636 16.7617C26.4636 16.382 26.1558 16.0742 25.7761 16.0742H20.9824C20.6027 16.0742 20.2949 16.382 20.2949 16.7617C20.2949 17.1414 20.6027 17.4492 20.9824 17.4492Z" fill="white"/>
<path d="M28.5633 25.0508H20.9824C20.6027 25.0508 20.2949 25.3586 20.2949 25.7383C20.2949 26.118 20.6027 26.4258 20.9824 26.4258H28.5633C28.943 26.4258 29.2508 26.118 29.2508 25.7383C29.2508 25.3586 28.943 25.0508 28.5633 25.0508Z" fill="white"/>
<path d="M20.9824 24.168H25.7761C26.1558 24.168 26.4636 23.8602 26.4636 23.4805C26.4636 23.1008 26.1558 22.793 25.7761 22.793H20.9824C20.6027 22.793 20.2949 23.1008 20.2949 23.4805C20.2949 23.8602 20.6027 24.168 20.9824 24.168Z" fill="white"/>
<path d="M29.4375 0H2.5625C1.14956 0 0 1.14956 0 2.5625V27.7146C0 29.1276 1.14956 30.2771 2.5625 30.2771H29.4375C30.8504 30.2771 32 29.1276 32 27.7146V2.5625C32 1.14956 30.8504 0 29.4375 0ZM2.5625 1.375H29.4375C30.0923 1.375 30.625 1.90769 30.625 2.5625V5.5H1.375V2.5625C1.375 1.90775 1.90769 1.375 2.5625 1.375ZM29.4375 28.9021H2.5625C1.90769 28.9021 1.375 28.3694 1.375 27.7146V6.875H30.625V27.7146C30.625 28.3694 30.0923 28.9021 29.4375 28.9021Z" fill="white"/>
<path d="M18.0677 15.1367H13.9336C13.5539 15.1367 13.2461 15.4445 13.2461 15.8242V19.9583C13.2461 20.338 13.5539 20.6458 13.9336 20.6458H18.0677C18.4473 20.6458 18.7552 20.338 18.7552 19.9583V15.8242C18.7552 15.4445 18.4473 15.1367 18.0677 15.1367ZM17.3802 19.2707H14.6211V16.5117H17.3802V19.2707Z" fill="#FF7B02"/>
<path d="M18.0677 8.25H13.9336C13.5539 8.25 13.2461 8.55781 13.2461 8.9375V13.0716C13.2461 13.4512 13.5539 13.7591 13.9336 13.7591H18.0677C18.4473 13.7591 18.7552 13.4512 18.7552 13.0716V8.9375C18.7552 8.55781 18.4473 8.25 18.0677 8.25ZM17.3802 12.3841H14.6211V9.625H17.3802V12.3841Z" fill="#FF7B02"/>
<path d="M18.0677 22.0195H13.9336C13.5539 22.0195 13.2461 22.3273 13.2461 22.707V26.8411C13.2461 27.2208 13.5539 27.5286 13.9336 27.5286H18.0677C18.4473 27.5286 18.7552 27.2208 18.7552 26.8411V22.707C18.7552 22.3273 18.4473 22.0195 18.0677 22.0195ZM17.3802 26.1536H14.6211V23.3945H17.3802V26.1536Z" fill="#FF7B02"/>
<path d="M4.07329 3.17628C3.90117 2.73003 3.28236 2.60809 2.95204 2.95253C2.52173 3.3779 2.83236 4.13078 3.43829 4.12628C3.91179 4.14097 4.26792 3.60865 4.07329 3.17628Z" fill="#FF7B02"/>
<path d="M6.57056 2.86899C6.18362 2.59486 5.5935 2.83823 5.51493 3.30586C5.3905 3.89823 6.07025 4.35224 6.57056 4.01205C6.97225 3.76055 6.973 3.12036 6.57056 2.86899Z" fill="#FF7B02"/>
<path d="M9.57336 3.17567C9.40492 2.73148 8.77761 2.60723 8.45211 2.95254C8.02117 3.37654 8.33342 4.13142 8.93842 4.12567C9.41186 4.14035 9.76798 3.6081 9.57336 3.17567Z" fill="#FF7B02"/>
<path d="M28.5633 2.75H20.9824C20.6027 2.75 20.2949 3.05781 20.2949 3.4375C20.2949 3.81719 20.6027 4.125 20.9824 4.125H28.5633C28.943 4.125 29.2508 3.81719 29.2508 3.4375C29.2508 3.05781 28.943 2.75 28.5633 2.75Z" fill="#FF7B02"/>
</svg>
