<svg width="36" height="34" viewBox="0 0 36 34" fill="none" xmlns="http://www.w3.org/2000/svg">
<path d="M26.7451 31.5303C27.2933 31.5305 27.7391 31.9778 27.7393 32.5146V33.2549C27.7393 33.3863 27.6294 33.5 27.4893 33.5L8.50879 33.498C8.36862 33.498 8.25879 33.3844 8.25879 33.2529V32.5137C8.25879 31.9901 8.68259 31.5522 9.21191 31.5303H26.7451ZM21.1611 25.8174C21.2759 27.4687 21.63 28.8124 22.2334 29.7852H13.7656C14.369 28.8124 14.7232 27.4686 14.8379 25.8174H21.1611ZM35.498 21.1055V22.3369C35.498 23.2893 34.7143 24.0722 33.749 24.0723H2.25098C1.28458 24.0722 0.501953 23.2882 0.501953 22.3369V21.1055H35.498ZM2.24902 0.5H33.749C34.7153 0.500049 35.4978 1.28335 35.498 2.23438V19.3604H0.5V2.23438C0.500241 1.34176 1.18907 0.59832 2.07031 0.508789L2.24902 0.5Z" fill="white" stroke="#FF7B02"/>
</svg>
