<svg width="33" height="33" viewBox="0 0 33 33" fill="none" xmlns="http://www.w3.org/2000/svg">
<path d="M29.6514 0.5C31.2216 0.500092 32.4989 1.77746 32.499 3.34766C32.499 4.91695 31.2211 6.19629 29.6523 6.19629C29.4858 6.19627 29.3169 6.17582 29.1406 6.14355L28.8232 6.08594L28.6396 6.35059L24.4531 12.3945L24.4521 12.3965C24.2902 12.6314 24.0207 12.7725 23.7334 12.7725H16.5C16.0162 12.7725 15.6251 12.3805 15.625 11.8975C15.625 11.4143 16.0161 11.0225 16.5 11.0225H23.2734L23.4229 10.8066L27.2021 5.34863L27.3857 5.08301L27.2197 4.80664C26.9584 4.3705 26.8037 3.87644 26.8037 3.34766C26.8039 1.7774 28.0811 0.5 29.6514 0.5ZM29.6514 2.25C29.0475 2.25 28.5529 2.74093 28.5527 3.34766C28.5527 3.95453 29.0474 4.44629 29.6514 4.44629C30.2574 4.4462 30.749 3.95373 30.749 3.34766C30.7489 2.74098 30.2552 2.25009 29.6514 2.25Z" fill="white" stroke="#FF7B02"/>
<path d="M29.6514 13.5156C31.2216 13.5157 32.4989 14.7931 32.499 16.3633C32.499 17.9336 31.2217 19.2118 29.6514 19.2119C28.5031 19.2119 27.5122 18.5229 27.0625 17.5322L26.9297 17.2383H16.5C16.0161 17.2383 15.625 16.8464 15.625 16.3633C15.6252 15.8803 16.0162 15.4883 16.5 15.4883H26.9297L27.0625 15.1953C27.5121 14.2045 28.503 13.5156 29.6514 13.5156ZM29.6514 15.2637C29.0452 15.2637 28.5527 15.7562 28.5527 16.3623C28.5528 16.9691 29.0474 17.46 29.6514 17.46C30.2581 17.4599 30.749 16.9662 30.749 16.3623C30.749 15.7584 30.2582 15.2638 29.6514 15.2637Z" fill="white" stroke="#FF7B02"/>
<path d="M13.8428 0.507812L13.9336 0.533203L23.8135 4.18848C23.8373 4.36531 23.8684 4.54339 23.9102 4.72168L21.6689 7.95801H16.499C14.3284 7.95812 12.5615 9.72327 12.5615 11.8955C12.5616 12.7337 12.8348 13.4979 13.2783 14.1289C12.8344 14.7601 12.5615 15.5256 12.5615 16.3643C12.5616 17.2028 12.8338 17.9679 13.2773 18.5996C12.8338 19.231 12.5615 19.997 12.5615 20.834C12.5617 23.0061 14.3285 24.7714 16.499 24.7715H21.6699L23.0859 26.8164C21.2148 28.8541 18.9955 30.2517 17.1934 31.1504C16.2523 31.6197 15.4302 31.9512 14.8398 32.166C14.5449 32.2733 14.3078 32.3518 14.1436 32.4033C13.9851 32.4531 13.8975 32.4766 13.8906 32.4785C13.8394 32.4915 13.7908 32.498 13.749 32.498C13.7073 32.498 13.6595 32.4915 13.6084 32.4785H13.6074C13.601 32.4767 13.589 32.4735 13.5723 32.4688C13.5455 32.4611 13.5068 32.4497 13.457 32.4346C13.3568 32.4042 13.2117 32.3582 13.0283 32.2959C12.6611 32.1712 12.1404 31.9806 11.5186 31.7139C10.2733 31.1798 8.62837 30.3435 6.99023 29.1289C3.71754 26.7023 0.500035 22.7891 0.5 16.7393V5.73828C0.500006 5.51495 0.638533 5.31706 0.845703 5.24121L0.847656 5.24023L13.5645 0.533203L13.5635 0.532227C13.653 0.499218 13.7498 0.491238 13.8428 0.507812Z" fill="white" stroke="#FF7B02"/>
<path d="M16.5 19.957H23.7324C24.0188 19.9571 24.2873 20.0976 24.4512 20.334L28.6377 26.3789L28.8213 26.6436L29.1387 26.5859C29.3172 26.5535 29.485 26.5332 29.6514 26.5332C31.2215 26.5333 32.4988 27.8107 32.499 29.3809C32.499 30.9503 31.2223 32.2295 29.6523 32.2295C28.0821 32.2294 26.8047 30.9512 26.8047 29.3809C26.8048 28.8511 26.9593 28.3568 27.2207 27.9238L27.3877 27.6465L27.2041 27.3809L23.4238 21.9219L23.2754 21.707H16.5C16.0161 21.707 15.625 21.3151 15.625 20.832C15.625 20.3489 16.0161 19.957 16.5 19.957ZM29.6514 28.2832C29.0454 28.2832 28.553 28.7749 28.5527 29.3809C28.5527 29.9877 29.0474 30.4795 29.6514 30.4795C30.2574 30.4794 30.749 29.9869 30.749 29.3809C30.7488 28.775 30.2573 28.2833 29.6514 28.2832Z" fill="white" stroke="#FF7B02"/>
</svg>
