<svg width="33" height="42" viewBox="0 0 33 42" fill="none" xmlns="http://www.w3.org/2000/svg">
<path d="M15.6738 0.413086C16.2306 0.195358 16.7704 0.195476 17.3271 0.413086L31.8027 6.08203V6.08301C32.3833 6.31111 32.75 6.85343 32.75 7.5V21.25C32.75 26.4402 30.4342 30.9349 27.377 34.4258C24.5091 37.7002 21.0023 40.0759 18.1875 41.2969L17.6338 41.5254C16.9674 41.7874 16.3144 41.8205 15.6514 41.624L15.3662 41.5254L14.8125 41.2969C11.9985 40.0757 8.49203 37.7001 5.62402 34.4258C2.56641 30.9349 0.250047 26.4403 0.25 21.25V7.5L0.253906 7.37988C0.296227 6.78665 0.652948 6.29688 1.19727 6.08301L15.6738 0.413086ZM16.7461 1.99023C16.5858 1.92847 16.4134 1.92992 16.2607 1.99023L2.31543 7.45117V7.45215C2.05248 7.55608 1.88281 7.81171 1.88281 8.09277V21.25C1.88287 25.8451 3.9178 29.9627 6.83398 33.291V33.292C9.19245 35.9848 12.605 38.6348 15.9473 39.9473C16.1349 40.021 16.3154 40.0624 16.5029 40.0625C16.6438 40.0625 16.781 40.0389 16.9199 39.9961L17.0596 39.9473C20.4012 38.6348 23.8133 35.9846 26.1719 33.292V33.291C29.0363 30.0202 31.0514 25.9871 31.1201 21.4873H31.1279V8.09277C31.1279 7.79466 30.9399 7.53832 30.6738 7.44336H30.6748L16.7471 1.99023H16.7461ZM29.7705 8.56348V21.25C29.7704 25.4748 27.889 29.2635 25.1621 32.3779C22.9291 34.9264 19.7013 37.4366 16.5713 38.665C16.5428 38.6761 16.5252 38.6817 16.5137 38.6846C16.5084 38.6859 16.5048 38.6863 16.5029 38.6865C16.5014 38.6867 16.5003 38.6875 16.5 38.6875C16.4995 38.6875 16.4984 38.6867 16.4971 38.6865C16.4951 38.6862 16.4914 38.6858 16.4863 38.6846C16.4747 38.6817 16.4572 38.6761 16.4287 38.665H16.4297C13.2998 37.4363 10.0703 34.927 7.83887 32.3789C5.11181 29.2644 3.23053 25.4748 3.23047 21.25V8.5625L16.499 3.36621L29.7705 8.56348ZM16.501 7.88574C15.0938 7.88583 13.7495 8.46431 12.7578 9.4834C11.7663 10.5023 11.2061 11.8805 11.2061 13.3203V16.2666C10.6331 16.2689 10.1149 16.5095 9.74023 16.8945C9.3642 17.2812 9.13193 17.8131 9.13184 18.3984V28.4824C9.13184 29.068 9.36397 29.6006 9.74023 29.9873C10.1166 30.374 10.6378 30.6151 11.2139 30.6152H21.7881C22.3643 30.6152 22.8853 30.3741 23.2617 29.9873C23.638 29.6006 23.8701 29.0681 23.8701 28.4824V18.3984C23.87 17.8129 23.638 17.2812 23.2617 16.8945C22.8871 16.5097 22.3697 16.269 21.7969 16.2666V13.3203C21.7969 11.8805 21.2357 10.5024 20.2441 9.4834C19.2524 8.4644 17.9082 7.88574 16.501 7.88574ZM11.2139 17.6396H21.7881C21.9866 17.6396 22.1686 17.7225 22.3027 17.8604C22.4368 17.9982 22.5204 18.1881 22.5205 18.3984V28.4824C22.5205 28.6929 22.4369 28.8836 22.3027 29.0215C22.1686 29.1593 21.9866 29.2422 21.7881 29.2422H11.2139C11.0154 29.2421 10.8333 29.1593 10.6992 29.0215C10.5651 28.8836 10.4814 28.6929 10.4814 28.4824V18.3984C10.4815 18.1882 10.5652 17.9982 10.6992 17.8604C10.8333 17.7226 11.0154 17.6397 11.2139 17.6396ZM16.501 20.1211C15.4342 20.1211 14.5823 21.0078 14.582 22.085C14.582 22.75 14.9055 23.3386 15.4014 23.6943V25.6396C15.4014 26.2529 15.8903 26.7627 16.501 26.7627C17.1141 26.7627 17.6005 26.2504 17.6006 25.6396V23.6943C18.0965 23.3386 18.4199 22.75 18.4199 22.085C18.4197 21.0056 17.5656 20.1211 16.501 20.1211ZM16.501 9.26074C17.5502 9.26074 18.5413 9.68579 19.2852 10.4502C20.029 11.2148 20.4453 12.236 20.4453 13.3203V16.2666H19.6865V13.3203C19.6865 12.5106 19.3885 11.7312 18.8623 11.1328L18.7539 11.0156L18.6396 10.9033C18.0567 10.3604 17.2962 10.0537 16.501 10.0537C15.6544 10.0537 14.8445 10.4049 14.249 11.0146L14.248 11.0156C13.6526 11.6277 13.3154 12.4552 13.3154 13.3203V16.2666H12.5566V13.3203C12.5566 12.236 12.973 11.2148 13.7168 10.4502C14.4607 9.6858 15.4518 9.26075 16.501 9.26074ZM16.501 11.4287C16.9886 11.4287 17.4456 11.625 17.792 11.9824L17.793 11.9834C18.1416 12.3418 18.335 12.8149 18.335 13.3203V16.2666H14.667V13.3203C14.667 12.8127 14.8608 12.3396 15.209 11.9834H15.21C15.5586 11.6252 16.0136 11.4287 16.501 11.4287Z" fill="white" stroke="#E67300" stroke-width="0.5"/>
</svg>
