<svg width="41" height="40" viewBox="0 0 41 40" fill="none" xmlns="http://www.w3.org/2000/svg">
<mask id="path-1-inside-1_30_22113" fill="white">
<path d="M29.6689 17.7577V24.527C29.6689 24.7687 29.4709 24.9657 29.2281 24.9657H27.7075C27.5491 24.9657 27.4027 25.0103 27.2839 25.084C27.1651 25.1628 27.0635 25.2776 27.0015 25.4182C26.9361 25.5587 26.9171 25.7129 26.9361 25.8517C26.9584 25.9923 27.0239 26.1277 27.1255 26.2459L31.1188 30.7734C31.1981 30.8608 31.2859 30.9277 31.3789 30.9705C31.4719 31.0099 31.5821 31.0322 31.7009 31.0322C31.8197 31.0322 31.9299 31.0099 32.0229 30.9705C32.1159 30.9259 32.2037 30.8608 32.2829 30.7683L36.2763 26.2456C36.3779 26.1273 36.4433 25.992 36.4623 25.8514C36.4847 25.7075 36.4623 25.5567 36.4003 25.4179C36.3348 25.2773 36.2367 25.1642 36.1179 25.0837C35.999 25.0083 35.8527 24.9654 35.6942 24.9654H34.1737C33.9309 24.9654 33.7329 24.7683 33.7329 24.5267V17.8311C33.0268 17.6648 32.2916 17.5723 31.5338 17.5723C31.155 17.5723 30.7796 17.5946 30.4232 17.6374C30.1631 17.6683 29.9169 17.7077 29.6689 17.7557L29.6689 17.7577ZM34.6146 18.0867V24.0883H35.6943C36.025 24.0883 36.3298 24.1809 36.5932 24.3471C36.8533 24.5133 37.0651 24.7601 37.2011 25.0583C37.3372 25.3565 37.3819 25.677 37.3337 25.9803C37.2889 26.2836 37.1529 26.5767 36.9376 26.8235L32.9443 31.351C32.7807 31.5361 32.5964 31.6749 32.3846 31.7674C32.2124 31.8462 32.0282 31.8942 31.8336 31.9079V36.41C34.3288 36.3312 36.5814 35.2961 38.231 33.6544C39.941 31.9526 41 29.5963 41 26.9947C41 24.3933 39.9427 22.0368 38.231 20.335C37.2219 19.3342 35.9924 18.5579 34.6165 18.0883L34.6146 18.0867ZM30.9519 31.7347C30.7659 31.6421 30.5989 31.5102 30.4577 31.3491L27.3804 27.8616H20.1599C19.6089 27.8616 19.0923 27.7297 18.6394 27.4846C18.1848 27.2396 17.7973 26.8745 17.4977 26.4135L17.1671 25.8994C16.9467 25.5618 16.6694 25.2979 16.3474 25.1231C16.0254 24.9483 15.6517 24.8558 15.2505 24.8558H11.8426C11.3484 24.8558 10.9041 25.058 10.5769 25.3819C10.2514 25.7023 10.0483 26.1496 10.0483 26.6415V38.2143C10.0483 38.7061 10.2514 39.1534 10.5769 39.4773C10.9024 39.8012 11.3484 40 11.8426 40H29.1591C29.6533 40 30.0976 39.8029 30.4248 39.4773C30.7503 39.1534 30.9534 38.7044 30.9534 38.2143V31.7345L30.9519 31.7347ZM26.6055 26.9843L26.4643 26.8215C26.2491 26.5764 26.1113 26.2816 26.0682 25.9783C26.02 25.6715 26.0631 25.3545 26.2008 25.0563C26.3369 24.7581 26.5487 24.513 26.8087 24.3451C27.0687 24.1789 27.377 24.0863 27.7076 24.0863H28.7873V17.4661C28.5221 16.5973 28.1743 15.7644 27.7558 14.9692L27.73 14.9213C26.6985 12.9813 25.24 11.2967 23.4801 9.99449C23.313 9.8711 23.1443 9.75286 22.9738 9.63975C22.9566 9.62604 22.9342 9.61405 22.917 9.60034C20.5768 8.034 17.7544 7.1223 14.7165 7.1223C10.6526 7.1223 6.97589 8.75893 4.31191 11.4083C1.64966 14.0578 0 17.7219 0 21.7659C0 24.8935 0.986725 27.7982 2.66742 30.1769C4.28097 32.463 6.53334 34.2693 9.16447 35.3371V26.6418C9.16447 25.9083 9.4641 25.2417 9.95317 24.7601C10.4336 24.2768 11.1035 23.9787 11.8405 23.9787H15.2484C15.7943 23.9787 16.3109 24.1106 16.7655 24.3557C17.2201 24.6007 17.6076 24.9658 17.9071 25.4268L18.2378 25.9409C18.4582 26.2785 18.7354 26.5424 19.0626 26.7172C19.3846 26.892 19.7549 26.9845 20.1596 26.9845L26.6055 26.9843ZM23.6299 9.0277C23.7573 9.1151 23.8813 9.20765 24.0053 9.29504C25.4466 10.361 26.6951 11.6686 27.6956 13.1561V6.50517C27.6956 6.26354 27.8936 6.06646 28.1364 6.06646H29.6569C29.8153 6.06646 29.9617 6.0219 30.0805 5.94821C30.1994 5.8728 30.2958 5.7597 30.3629 5.61403C30.4249 5.47351 30.4473 5.31927 30.4249 5.18046C30.4077 5.03994 30.3406 4.90455 30.239 4.7863L26.2456 0.258775C26.1664 0.171375 26.0786 0.104541 25.9856 0.0616962C25.8926 0.0222804 25.7824 0 25.6636 0C25.5447 0 25.4345 0.0222787 25.3415 0.0616962C25.2451 0.106252 25.1556 0.171375 25.0815 0.258775L21.0881 4.7863C20.9865 4.90455 20.9211 5.03993 20.8987 5.18046C20.8815 5.32099 20.8987 5.47008 20.9642 5.61403C21.0262 5.74942 21.114 5.85567 21.2328 5.93793C21.3654 6.0219 21.51 6.06474 21.6685 6.06474H23.189C23.4318 6.06474 23.6298 6.26182 23.6298 6.50346L23.6299 9.0277ZM11.4808 9.9497C11.715 9.88801 11.9561 10.0251 12.0181 10.2616C12.0836 10.4947 11.9424 10.7346 11.7099 10.7963C10.3529 11.1648 9.0993 11.7697 7.9972 12.5683C6.88136 13.3806 5.91182 14.3883 5.15416 15.5468C5.01812 15.749 4.74432 15.8056 4.54113 15.6736C4.33793 15.5416 4.28111 15.2692 4.4137 15.0687C5.23339 13.8279 6.2735 12.7397 7.48232 11.8623C8.67223 10.9985 10.0257 10.3439 11.4808 9.9497ZM3.08774 17.7676C3.17557 17.5397 3.42698 17.43 3.65603 17.514C3.88161 17.6014 3.99526 17.8516 3.90227 18.0881C3.81445 18.3246 3.55787 18.4342 3.33399 18.352C3.10496 18.2646 2.99475 18.0092 3.08774 17.7693V17.7676Z"/>
</mask>
<path d="M29.6689 17.7577V24.527C29.6689 24.7687 29.4709 24.9657 29.2281 24.9657H27.7075C27.5491 24.9657 27.4027 25.0103 27.2839 25.084C27.1651 25.1628 27.0635 25.2776 27.0015 25.4182C26.9361 25.5587 26.9171 25.7129 26.9361 25.8517C26.9584 25.9923 27.0239 26.1277 27.1255 26.2459L31.1188 30.7734C31.1981 30.8608 31.2859 30.9277 31.3789 30.9705C31.4719 31.0099 31.5821 31.0322 31.7009 31.0322C31.8197 31.0322 31.9299 31.0099 32.0229 30.9705C32.1159 30.9259 32.2037 30.8608 32.2829 30.7683L36.2763 26.2456C36.3779 26.1273 36.4433 25.992 36.4623 25.8514C36.4847 25.7075 36.4623 25.5567 36.4003 25.4179C36.3348 25.2773 36.2367 25.1642 36.1179 25.0837C35.999 25.0083 35.8527 24.9654 35.6942 24.9654H34.1737C33.9309 24.9654 33.7329 24.7683 33.7329 24.5267V17.8311C33.0268 17.6648 32.2916 17.5723 31.5338 17.5723C31.155 17.5723 30.7796 17.5946 30.4232 17.6374C30.1631 17.6683 29.9169 17.7077 29.6689 17.7557L29.6689 17.7577ZM34.6146 18.0867V24.0883H35.6943C36.025 24.0883 36.3298 24.1809 36.5932 24.3471C36.8533 24.5133 37.0651 24.7601 37.2011 25.0583C37.3372 25.3565 37.3819 25.677 37.3337 25.9803C37.2889 26.2836 37.1529 26.5767 36.9376 26.8235L32.9443 31.351C32.7807 31.5361 32.5964 31.6749 32.3846 31.7674C32.2124 31.8462 32.0282 31.8942 31.8336 31.9079V36.41C34.3288 36.3312 36.5814 35.2961 38.231 33.6544C39.941 31.9526 41 29.5963 41 26.9947C41 24.3933 39.9427 22.0368 38.231 20.335C37.2219 19.3342 35.9924 18.5579 34.6165 18.0883L34.6146 18.0867ZM30.9519 31.7347C30.7659 31.6421 30.5989 31.5102 30.4577 31.3491L27.3804 27.8616H20.1599C19.6089 27.8616 19.0923 27.7297 18.6394 27.4846C18.1848 27.2396 17.7973 26.8745 17.4977 26.4135L17.1671 25.8994C16.9467 25.5618 16.6694 25.2979 16.3474 25.1231C16.0254 24.9483 15.6517 24.8558 15.2505 24.8558H11.8426C11.3484 24.8558 10.9041 25.058 10.5769 25.3819C10.2514 25.7023 10.0483 26.1496 10.0483 26.6415V38.2143C10.0483 38.7061 10.2514 39.1534 10.5769 39.4773C10.9024 39.8012 11.3484 40 11.8426 40H29.1591C29.6533 40 30.0976 39.8029 30.4248 39.4773C30.7503 39.1534 30.9534 38.7044 30.9534 38.2143V31.7345L30.9519 31.7347ZM26.6055 26.9843L26.4643 26.8215C26.2491 26.5764 26.1113 26.2816 26.0682 25.9783C26.02 25.6715 26.0631 25.3545 26.2008 25.0563C26.3369 24.7581 26.5487 24.513 26.8087 24.3451C27.0687 24.1789 27.377 24.0863 27.7076 24.0863H28.7873V17.4661C28.5221 16.5973 28.1743 15.7644 27.7558 14.9692L27.73 14.9213C26.6985 12.9813 25.24 11.2967 23.4801 9.99449C23.313 9.8711 23.1443 9.75286 22.9738 9.63975C22.9566 9.62604 22.9342 9.61405 22.917 9.60034C20.5768 8.034 17.7544 7.1223 14.7165 7.1223C10.6526 7.1223 6.97589 8.75893 4.31191 11.4083C1.64966 14.0578 0 17.7219 0 21.7659C0 24.8935 0.986725 27.7982 2.66742 30.1769C4.28097 32.463 6.53334 34.2693 9.16447 35.3371V26.6418C9.16447 25.9083 9.4641 25.2417 9.95317 24.7601C10.4336 24.2768 11.1035 23.9787 11.8405 23.9787H15.2484C15.7943 23.9787 16.3109 24.1106 16.7655 24.3557C17.2201 24.6007 17.6076 24.9658 17.9071 25.4268L18.2378 25.9409C18.4582 26.2785 18.7354 26.5424 19.0626 26.7172C19.3846 26.892 19.7549 26.9845 20.1596 26.9845L26.6055 26.9843ZM23.6299 9.0277C23.7573 9.1151 23.8813 9.20765 24.0053 9.29504C25.4466 10.361 26.6951 11.6686 27.6956 13.1561V6.50517C27.6956 6.26354 27.8936 6.06646 28.1364 6.06646H29.6569C29.8153 6.06646 29.9617 6.0219 30.0805 5.94821C30.1994 5.8728 30.2958 5.7597 30.3629 5.61403C30.4249 5.47351 30.4473 5.31927 30.4249 5.18046C30.4077 5.03994 30.3406 4.90455 30.239 4.7863L26.2456 0.258775C26.1664 0.171375 26.0786 0.104541 25.9856 0.0616962C25.8926 0.0222804 25.7824 0 25.6636 0C25.5447 0 25.4345 0.0222787 25.3415 0.0616962C25.2451 0.106252 25.1556 0.171375 25.0815 0.258775L21.0881 4.7863C20.9865 4.90455 20.9211 5.03993 20.8987 5.18046C20.8815 5.32099 20.8987 5.47008 20.9642 5.61403C21.0262 5.74942 21.114 5.85567 21.2328 5.93793C21.3654 6.0219 21.51 6.06474 21.6685 6.06474H23.189C23.4318 6.06474 23.6298 6.26182 23.6298 6.50346L23.6299 9.0277ZM11.4808 9.9497C11.715 9.88801 11.9561 10.0251 12.0181 10.2616C12.0836 10.4947 11.9424 10.7346 11.7099 10.7963C10.3529 11.1648 9.0993 11.7697 7.9972 12.5683C6.88136 13.3806 5.91182 14.3883 5.15416 15.5468C5.01812 15.749 4.74432 15.8056 4.54113 15.6736C4.33793 15.5416 4.28111 15.2692 4.4137 15.0687C5.23339 13.8279 6.2735 12.7397 7.48232 11.8623C8.67223 10.9985 10.0257 10.3439 11.4808 9.9497ZM3.08774 17.7676C3.17557 17.5397 3.42698 17.43 3.65603 17.514C3.88161 17.6014 3.99526 17.8516 3.90227 18.0881C3.81445 18.3246 3.55787 18.4342 3.33399 18.352C3.10496 18.2646 2.99475 18.0092 3.08774 17.7693V17.7676Z" fill="white" stroke="#FF7B02" stroke-width="2" mask="url(#path-1-inside-1_30_22113)"/>
</svg>
