<svg width="36" height="36" viewBox="0 0 36 36" fill="none" xmlns="http://www.w3.org/2000/svg">
<g clip-path="url(#clip0_52_3213)">
<path d="M11.7674 22.1546C11.9143 22.2159 12.0795 22.2163 12.2267 22.1558C12.3738 22.0953 12.491 21.9787 12.5522 21.8319L13.3982 19.8009H16.5986L17.4446 21.8319C17.5722 22.1377 17.9236 22.2822 18.2294 22.1547C18.5353 22.0271 18.6798 21.6757 18.5523 21.3699L15.5523 14.1699C15.4591 13.9464 15.2406 13.8008 14.9985 13.8008C14.7563 13.8008 14.5379 13.9464 14.4447 14.1699L11.4447 21.3699C11.3834 21.5168 11.383 21.682 11.4435 21.8292C11.5041 21.9763 11.6205 22.0934 11.7674 22.1546ZM14.9984 15.9608L16.0982 18.6009H13.8986L14.9984 15.9608Z" fill="#FF7B02"/>
<path fill-rule="evenodd" clip-rule="evenodd" d="M19.7992 21.0008C19.4678 21.0008 19.1992 21.2694 19.1992 21.6008C19.1992 21.9322 19.4678 22.2008 19.7992 22.2008H23.3992C23.7306 22.2008 23.9992 21.9322 23.9992 21.6008C23.9992 21.2694 23.7306 21.0008 23.3992 21.0008H22.1992V15.0008H23.3992C23.7306 15.0008 23.9992 14.7322 23.9992 14.4008C23.9992 14.0694 23.7306 13.8008 23.3992 13.8008H19.7992C19.4678 13.8008 19.1992 14.0694 19.1992 14.4008C19.1992 14.7322 19.4678 15.0008 19.7992 15.0008H20.9993V21.0008H19.7992Z" fill="#FF7B02"/>
<path d="M0.598082 26.4C0.598082 27.7255 1.67262 28.8 2.99807 28.8C3.29869 28.7989 3.59636 28.7406 3.87526 28.6284C5.29365 29.7144 7.29528 30.2808 9.75526 30.2808C10.126 30.2808 10.5113 30.2634 10.9018 30.2382C12.6442 33.7986 15.1582 36 17.998 36C20.8378 36 23.3518 33.7986 25.0948 30.24C25.486 30.2652 25.8706 30.2826 26.2414 30.2826C28.7014 30.2826 30.703 29.7162 32.1214 28.6302C32.4002 28.7417 32.6977 28.7993 32.998 28.8C34.0573 28.797 34.9894 28.0998 35.2915 27.0845C35.5936 26.0691 35.1943 24.9758 34.309 24.3942C34.393 22.4622 33.646 20.2697 32.1256 18C33.646 15.7308 34.393 13.5384 34.309 11.6058C35.3463 10.9364 35.7046 9.58807 35.1366 8.49197C34.5686 7.39588 33.2604 6.91125 32.1154 7.37273C30.4852 6.12535 28.078 5.57276 25.0954 5.76715C23.3543 2.20382 20.8391 0 17.9981 0C15.1571 0 12.6419 2.20382 10.8989 5.76721C7.91749 5.574 5.51149 6.12718 3.87886 7.37279C2.73458 6.91503 1.42969 7.40037 0.862628 8.49463C0.295567 9.58889 0.651464 10.9349 1.68526 11.6058C1.60247 13.5372 2.35005 15.7296 3.87048 18C2.35005 20.2698 1.60247 22.4622 1.68709 24.3942C1.00848 24.8359 0.59885 25.5904 0.598082 26.4ZM1.7981 26.4C1.7981 25.7373 2.33534 25.2 2.99813 25.2C3.66091 25.2 4.19815 25.7372 4.19815 26.4C4.19815 27.0628 3.66091 27.6 2.99813 27.6C2.67984 27.6 2.37461 27.4736 2.14957 27.2486C1.92453 27.0235 1.7981 26.7183 1.7981 26.4ZM11.6435 7.03201C13.2408 7.22328 14.8145 7.57652 16.3403 8.08624C15.2664 8.56555 14.2176 9.09942 13.1981 9.68585C12.1751 10.2763 11.1841 10.9206 10.2293 11.616C10.5439 10.044 11.0178 8.50804 11.6435 7.03201ZM25.7663 11.616C24.8118 10.9205 23.821 10.2762 22.7981 9.68585C21.7801 9.10013 20.7331 8.56626 19.6613 8.08624C21.1855 7.57675 22.7576 7.22357 24.3533 7.03201C24.9787 8.50809 25.4521 10.044 25.7663 11.616ZM24.3527 28.968C22.7554 28.7768 21.1817 28.4235 19.6559 27.9138C20.7298 27.4345 21.7786 26.9006 22.7981 26.3142C23.8211 25.7238 24.8121 25.0795 25.7669 24.384C25.4523 25.9561 24.9785 27.492 24.3527 28.968ZM22.1981 10.7256C23.5512 11.5043 24.8447 12.3821 26.0681 13.3518C26.2888 14.8914 26.399 16.4448 26.3981 18C26.3992 19.5553 26.2891 21.1087 26.0687 22.6482C24.845 23.6179 23.5513 24.4957 22.1981 25.2744C20.8492 26.0546 19.4455 26.736 17.9981 27.3132C16.5506 26.7357 15.1469 26.0539 13.7981 25.2732C12.445 24.4945 11.1515 23.6167 9.9281 22.647C9.48888 19.5637 9.48888 16.4338 9.9281 13.3506C11.1516 12.3813 12.4451 11.504 13.7981 10.7256C15.1481 9.94479 16.553 9.26299 18.0017 8.68554C19.448 9.26329 20.8505 9.94508 22.1981 10.7256ZM27.4181 14.4858C28.6148 15.5452 29.7017 16.7226 30.6623 18C29.7031 19.2772 28.6175 20.4546 27.4224 21.5142C27.5402 20.3466 27.5989 19.1737 27.5982 18C27.5985 16.8264 27.5394 15.6535 27.4212 14.4858H27.4181ZM8.57809 21.5142C7.38108 20.4551 6.29414 19.2777 5.33386 18C6.29314 16.7228 7.3786 15.5455 8.57384 14.4858C8.33781 16.8227 8.33781 19.1774 8.57384 21.5142H8.57809ZM13.2017 26.3142C14.2196 26.8999 15.2666 27.4338 16.3385 27.9138C14.8142 28.4233 13.2422 28.7765 11.6465 28.968C11.0209 27.492 10.5472 25.9561 10.2329 24.384C11.1864 25.0795 12.1762 25.7238 13.1981 26.3142H13.2017ZM17.9981 34.8C15.7445 34.8 13.6967 33.0126 12.1865 30.1134C14.175 29.8315 16.1248 29.3234 17.9981 28.599C19.8721 29.3238 21.8227 29.8318 23.8121 30.1134C22.2989 33.0126 20.2517 34.8 17.9981 34.8ZM32.9981 27.6C32.3354 27.6 31.7981 27.0628 31.7981 26.4C31.7981 25.7372 32.3354 25.2 32.9981 25.2C33.6609 25.2 34.1982 25.7372 34.1982 26.4C34.1982 27.0628 33.6609 27.6 32.9981 27.6ZM33.1241 24.0126C33.0815 24.0126 33.0413 24 32.9981 24C31.6726 24 30.5981 25.0746 30.5981 26.4C30.6003 26.9365 30.7841 27.4565 31.1195 27.8754C29.8127 28.7376 27.9053 29.1474 25.6205 29.0616C26.3644 27.2031 26.8917 25.2651 27.1919 23.286C28.7438 22.0364 30.1482 20.614 31.3781 19.0464C32.3912 20.5172 32.9939 22.2315 33.1241 24.0126ZM34.1981 9.59999C34.1981 10.2627 33.6609 10.8 32.9981 10.8C32.3353 10.8 31.7981 10.2628 31.7981 9.59999C31.7981 8.93721 32.3353 8.39997 32.9981 8.39997C33.6609 8.39997 34.1981 8.93727 34.1981 9.59999ZM31.1195 8.12462C30.7842 8.54347 30.6004 9.06346 30.5981 9.59999C30.5981 10.9255 31.6726 12 32.9981 12C33.0413 12 33.0815 11.9898 33.1241 11.9874C32.994 13.7686 32.3913 15.4829 31.3781 16.9536C30.148 15.386 28.7434 13.9636 27.1913 12.714C26.8907 10.7348 26.3628 8.79673 25.6181 6.93842C27.9047 6.85203 29.8133 7.26001 31.1195 8.12462ZM17.9981 1.20002C20.2517 1.20002 22.2995 2.98742 23.8097 5.88661C21.8222 6.16876 19.8734 6.67682 18.0011 7.40102C16.1271 6.67629 14.1765 6.16822 12.1871 5.88661C13.6973 2.98742 15.7445 1.20002 17.9981 1.20002ZM2.99807 8.40003C3.66079 8.40003 4.19809 8.93727 4.19809 9.60005C4.19809 10.2628 3.66085 10.8001 2.99807 10.8001C2.33528 10.8001 1.79804 10.2628 1.79804 9.60005C1.79804 8.93727 2.33534 8.40003 2.99807 8.40003ZM2.87211 11.9874C2.91469 11.9874 2.9549 12 2.99813 12C4.32363 12 5.39811 10.9254 5.39811 9.59999C5.39587 9.06346 5.2121 8.54341 4.87669 8.12462C6.18289 7.26243 8.09027 6.85321 10.3757 6.93842C9.63184 8.79685 9.10452 10.7349 8.80431 12.714C7.25259 13.9636 5.84813 15.3857 4.61811 16.953C3.60469 15.4826 3.00196 13.7685 2.87211 11.9874ZM4.61811 19.047C5.84872 20.6141 7.25353 22.0363 8.80549 23.286C9.10606 25.2654 9.63373 27.2036 10.3781 29.0622C8.09453 29.1486 6.1859 28.7376 4.87912 27.8754C5.21364 27.4562 5.39651 26.9362 5.39811 26.4C5.39811 25.0745 4.32357 24 2.99813 24C2.9549 24 2.91475 24.0108 2.87211 24.0126C3.0022 22.2316 3.60487 20.5175 4.61811 19.047Z" fill="white"/>
</g>
<defs>
<clipPath id="clip0_52_3213">
<rect width="36" height="36" fill="white"/>
</clipPath>
</defs>
</svg>
