<svg width="34" height="34" viewBox="0 0 34 34" fill="none" xmlns="http://www.w3.org/2000/svg">
<g clip-path="url(#clip0_52_3198)">
<path d="M11.6503 6.76397C10.6132 7.15571 9.87019 8.15045 9.87019 9.32271C9.87019 9.77416 9.99042 10.1943 10.1845 10.5705C9.36198 10.8867 8.77344 11.6798 8.77344 12.613C8.77344 13.5464 9.36198 14.3392 10.1845 14.6557C9.99042 15.0319 9.87019 15.4521 9.87019 15.9032C9.87019 17.0758 10.6132 18.0705 11.6503 18.462C11.5681 18.6917 11.5153 18.9359 11.5153 19.1935C11.5153 20.4032 12.4991 21.387 13.7088 21.387C13.9819 21.387 14.2409 21.3305 14.4821 21.2395C14.8374 21.9729 15.5826 22.4838 16.4507 22.4838C17.6605 22.4838 18.6442 21.5 18.6442 20.2902V4.93569C18.6442 3.72621 17.6605 2.74219 16.4507 2.74219C15.5826 2.74219 14.8374 3.25335 14.4821 3.98648C14.2409 3.89544 13.9819 3.83894 13.7088 3.83894C12.4991 3.83894 11.5153 4.82297 11.5153 6.03245C11.5153 6.2903 11.5681 6.53423 11.6503 6.76397ZM13.7088 4.93569C14.3137 4.93569 14.8056 5.42757 14.8056 6.03245H15.9023C15.9023 5.50549 15.7077 5.02727 15.3968 4.64892C15.524 4.18409 15.9457 3.83894 16.4507 3.83894C17.0556 3.83894 17.5475 4.33082 17.5475 4.93569V20.2902C17.5475 20.8951 17.0556 21.387 16.4507 21.387C15.9457 21.387 15.524 21.0421 15.3968 20.577C15.7077 20.1987 15.9023 19.7207 15.9023 19.1935H14.8056C14.8056 19.7984 14.3137 20.2902 13.7088 20.2902C13.104 20.2902 12.6121 19.7984 12.6121 19.1935C12.6121 18.5886 13.104 18.0967 13.7088 18.0967V17C13.1746 17 12.6911 17.1997 12.3106 17.5178C11.5472 17.3757 10.9669 16.7073 10.9669 15.9032C10.9669 14.9963 11.7052 14.2581 12.6121 14.2581C13.5193 14.2581 14.2572 14.9963 14.2572 15.9032H15.354C15.354 14.3914 14.1241 13.1613 12.6121 13.1613C11.9925 13.1613 11.4264 13.3758 10.9669 13.7242V13.7097C10.3621 13.7097 9.87019 13.2178 9.87019 12.613C9.87019 12.0081 10.3621 11.5162 10.9669 11.5162V11.502C11.4264 11.8504 11.9925 12.0646 12.6121 12.0646C14.1241 12.0646 15.354 10.8348 15.354 9.32271H14.2572C14.2572 10.2299 13.5193 10.9678 12.6121 10.9678C11.7052 10.9678 10.9669 10.2299 10.9669 9.32271C10.9669 8.51889 11.5472 7.85055 12.3106 7.70837C12.6911 8.02647 13.1746 8.22596 13.7088 8.22596V7.1292C13.104 7.1292 12.6121 6.63732 12.6121 6.03245C12.6121 5.42757 13.104 4.93569 13.7088 4.93569Z" fill="white"/>
<path d="M24.6776 3.83894C24.4045 3.83894 24.1458 3.89544 23.9045 3.98648C23.549 3.25335 22.8038 2.74219 21.9357 2.74219C20.7259 2.74219 19.7422 3.72621 19.7422 4.93569V20.2902C19.7422 21.5 20.7259 22.4838 21.9357 22.4838C22.8038 22.4838 23.549 21.9729 23.9045 21.2395C24.1458 21.3305 24.4045 21.387 24.6776 21.387C25.8873 21.387 26.8711 20.4032 26.8711 19.1935C26.8711 18.9359 26.8186 18.6917 26.7361 18.462C27.7732 18.0705 28.5162 17.0758 28.5162 15.9032C28.5162 15.4521 28.3963 15.0319 28.2021 14.6557C29.0247 14.3392 29.613 13.5464 29.613 12.613C29.613 11.6798 29.0247 10.8867 28.2021 10.5705C28.3963 10.1943 28.5162 9.77416 28.5162 9.32271C28.5162 8.15045 27.7732 7.15571 26.7361 6.76397C26.8186 6.53423 26.8711 6.2903 26.8711 6.03245C26.8711 4.82297 25.8873 3.83894 24.6776 3.83894ZM27.4195 9.32271C27.4195 10.2299 26.6815 10.9678 25.7743 10.9678C24.8674 10.9678 24.1292 10.2299 24.1292 9.32271H23.0324C23.0324 10.8348 24.2625 12.0646 25.7743 12.0646C26.3939 12.0646 26.96 11.8504 27.4195 11.502V11.5162C28.0243 11.5162 28.5162 12.0081 28.5162 12.613C28.5162 13.2178 28.0243 13.7097 27.4195 13.7097V13.7242C26.96 13.3758 26.3939 13.1613 25.7743 13.1613C24.2625 13.1613 23.0324 14.3914 23.0324 15.9032H24.1292C24.1292 14.9963 24.8674 14.2581 25.7743 14.2581C26.6815 14.2581 27.4195 14.9963 27.4195 15.9032C27.4195 16.7073 26.8392 17.3757 26.0761 17.5178C25.6953 17.1997 25.2118 17 24.6776 17V18.0967C25.2825 18.0967 25.7743 18.5886 25.7743 19.1935C25.7743 19.7984 25.2825 20.2902 24.6776 20.2902C24.0727 20.2902 23.5808 19.7984 23.5808 19.1935H22.4841C22.4841 19.7207 22.6787 20.1987 22.9896 20.577C22.8624 21.0421 22.4407 21.387 21.9357 21.387C21.3308 21.387 20.8389 20.8951 20.8389 20.2902V4.93569C20.8389 4.33082 21.3308 3.83894 21.9357 3.83894C22.4407 3.83894 22.8624 4.18409 22.9896 4.64892C22.6787 5.02727 22.4841 5.50549 22.4841 6.03245H23.5808C23.5808 5.42757 24.0727 4.93569 24.6776 4.93569C25.2825 4.93569 25.7743 5.42757 25.7743 6.03245C25.7743 6.63732 25.2825 7.1292 24.6776 7.1292V8.22596C25.2118 8.22596 25.6953 8.02647 26.0761 7.70837C26.8392 7.85055 27.4195 8.51889 27.4195 9.32271Z" fill="white"/>
<path d="M27.8296 3.42032C25.2671 1.0118 21.911 -0.195807 18.3889 0.0259L18.4569 1.12024C21.6751 0.920225 24.7383 2.02073 27.0788 4.21932C29.4204 6.41979 30.7102 9.40132 30.7102 12.6131C30.7102 16.4836 28.781 20.0727 25.5494 22.2143C24.4347 22.9533 23.5912 24.0075 23.0715 25.2258H15.2943C14.7674 23.9986 13.9207 22.937 12.8041 22.1912C9.47372 19.9653 7.56002 16.248 7.68453 12.2458L6.58831 12.2118C6.45176 16.5945 8.54807 20.6661 12.195 23.1027C13.0004 23.6412 13.6436 24.3743 14.0918 25.2258H12.6138V26.3225H14.5293C14.6356 26.6779 14.7208 27.042 14.7639 27.4193H13.7105V28.5161H14.8073V30.1612C14.8073 30.4646 15.0531 30.7096 15.3556 30.7096H15.904C15.904 32.5242 17.3797 33.9998 19.1943 33.9998C21.0089 33.9998 22.4845 32.5242 22.4845 30.7096H23.0329C23.3358 30.7096 23.5813 30.4646 23.5813 30.1612V28.5161H24.6781V27.4193H23.6199C23.6587 27.0426 23.7361 26.6773 23.8402 26.3225H25.7748V25.2258H24.2729C24.7147 24.3837 25.3542 23.6597 26.1556 23.1289C29.694 20.7823 31.807 16.8515 31.807 12.6131C31.807 9.14641 30.357 5.79537 27.8296 3.42032ZM19.1943 32.9031C17.9845 32.9031 17.0008 31.9193 17.0008 30.7096H21.3878C21.3878 31.9193 20.404 32.9031 19.1943 32.9031ZM22.4845 29.6128H15.904V28.5161H22.4845V29.6128ZM22.5236 27.4193H15.8601C15.8234 27.046 15.7643 26.6792 15.6743 26.3225H22.6942C22.6069 26.6787 22.5563 27.0471 22.5236 27.4193Z" fill="white"/>
<path d="M6.03275 3.83864C7.2425 3.83864 8.22626 4.82266 8.22626 6.03214C8.22626 6.33552 8.47206 6.58052 8.77464 6.58052C9.07747 6.58052 9.32301 6.33552 9.32301 6.03214C9.32301 4.82266 10.3068 3.83864 11.5165 3.83864C11.8194 3.83864 12.0649 3.59364 12.0649 3.29026C12.0649 2.98715 11.8194 2.74188 11.5165 2.74188C10.3068 2.74188 9.32301 1.75813 9.32301 0.548377C9.32301 0.24527 9.07747 0 8.77464 0C8.47206 0 8.22626 0.24527 8.22626 0.548377C8.22626 1.75813 7.2425 2.74188 6.03275 2.74188C5.73018 2.74188 5.48438 2.98715 5.48438 3.29026C5.48438 3.59364 5.73018 3.83864 6.03275 3.83864ZM8.77464 2.36514C9.0183 2.73144 9.33346 3.04686 9.69975 3.29026C9.33346 3.53392 9.0183 3.84908 8.77464 4.21538C8.53124 3.84908 8.21582 3.53392 7.84952 3.29026C8.21582 3.04686 8.53124 2.73144 8.77464 2.36514Z" fill="#FF7B02"/>
<path d="M8.2255 9.32301C8.52834 9.32301 8.77388 9.07801 8.77388 8.77464C8.77388 8.47153 8.52834 8.22626 8.2255 8.22626C7.01575 8.22626 6.032 7.2425 6.032 6.03275C6.032 5.72965 5.78646 5.48438 5.48362 5.48438C5.18105 5.48438 4.93524 5.72965 4.93524 6.03275C4.93524 7.2425 3.95149 8.22626 2.74174 8.22626C2.43917 8.22626 2.19336 8.47153 2.19336 8.77464C2.19336 9.07801 2.43917 9.32301 2.74174 9.32301C3.95149 9.32301 4.93524 10.307 4.93524 11.5165C4.93524 11.8199 5.18105 12.0649 5.48362 12.0649C5.78646 12.0649 6.032 11.8199 6.032 11.5165C6.032 10.307 7.01575 9.32301 8.2255 9.32301ZM5.48362 9.69975C5.24022 9.33346 4.9248 9.0183 4.5585 8.77464C4.9248 8.53124 5.23969 8.21582 5.48362 7.84952C5.72728 8.21582 6.04244 8.5307 6.40874 8.77464C6.04244 9.0183 5.72728 9.33346 5.48362 9.69975Z" fill="#FF7B02"/>
</g>
<defs>
<clipPath id="clip0_52_3198">
<rect width="34" height="34" fill="white"/>
</clipPath>
</defs>
</svg>
