<svg width="35" height="35" viewBox="0 0 35 35" fill="none" xmlns="http://www.w3.org/2000/svg">
<path d="M20.4173 31.7187H18.959C18.6689 31.7187 18.3907 31.6035 18.1856 31.3984C17.9805 31.1933 17.8652 30.9151 17.8652 30.625C17.8652 30.3349 17.9805 30.0567 18.1856 29.8516C18.3907 29.6465 18.6689 29.5312 18.959 29.5312H20.4173C21.2876 29.5312 22.1222 29.1855 22.7375 28.5702C23.3529 27.9548 23.6986 27.1202 23.6986 26.25C23.6986 25.9599 23.8138 25.6817 24.0189 25.4766C24.224 25.2715 24.5022 25.1562 24.7923 25.1562C25.0824 25.1562 25.3606 25.2715 25.5657 25.4766C25.7708 25.6817 25.8861 25.9599 25.8861 26.25C25.8861 27.7004 25.3099 29.0914 24.2843 30.117C23.2587 31.1426 21.8677 31.7187 20.4173 31.7187Z" fill="#FF7B02"/>
<path d="M28.8021 15.6042V14.5833C28.8021 11.5858 27.6113 8.71111 25.4918 6.59155C23.3722 4.472 20.4975 3.28125 17.5 3.28125C14.5025 3.28125 11.6278 4.472 9.50822 6.59155C7.38867 8.71111 6.19792 11.5858 6.19792 14.5833V15.6042C5.3223 16.068 4.58871 16.7603 4.07515 17.6077C3.56158 18.4551 3.28723 19.4258 3.28125 20.4167V21.875C3.28125 23.3254 3.85742 24.7164 4.88301 25.742C5.9086 26.7676 7.2996 27.3437 8.75 27.3437H10.2083C10.884 27.3399 11.5309 27.0698 12.0087 26.592C12.4865 26.1143 12.7566 25.4673 12.7604 24.7917V17.5C12.7566 16.8243 12.4865 16.1774 12.0087 15.6996C11.5309 15.2219 10.884 14.9517 10.2083 14.9479H8.75C8.6286 14.9399 8.50681 14.9399 8.38542 14.9479V14.5833C8.38542 12.166 9.3457 9.84767 11.055 8.13835C12.7643 6.42903 15.0827 5.46875 17.5 5.46875C19.9173 5.46875 22.2357 6.42903 23.945 8.13835C25.6543 9.84767 26.6146 12.166 26.6146 14.5833V14.9917C26.4932 14.9837 26.3714 14.9837 26.25 14.9917H24.7917C24.1235 14.9953 23.483 15.2594 23.0064 15.7278C22.5299 16.1962 22.2548 16.832 22.2396 17.5V24.7917C22.2434 25.4673 22.5135 26.1143 22.9913 26.592C23.4691 27.0698 24.116 27.3399 24.7917 27.3437H26.25C27.7004 27.3437 29.0914 26.7676 30.117 25.742C31.1426 24.7164 31.7187 23.3254 31.7187 21.875V20.4167C31.7128 19.4258 31.4384 18.4551 30.9249 17.6077C30.4113 16.7603 29.6777 16.068 28.8021 15.6042ZM10.2083 17.1354C10.305 17.1354 10.3978 17.1738 10.4661 17.2422C10.5345 17.3106 10.5729 17.4033 10.5729 17.5V24.7917C10.5729 24.8884 10.5345 24.9811 10.4661 25.0495C10.3978 25.1178 10.305 25.1562 10.2083 25.1562H8.75C7.87976 25.1562 7.04516 24.8105 6.42981 24.1952C5.81445 23.5798 5.46875 22.7452 5.46875 21.875V20.4167C5.46875 19.5464 5.81445 18.7118 6.42981 18.0965C7.04516 17.4811 7.87976 17.1354 8.75 17.1354H10.2083ZM29.5312 21.875C29.5312 22.7452 29.1855 23.5798 28.5702 24.1952C27.9548 24.8105 27.1202 25.1562 26.25 25.1562H24.7917C24.695 25.1562 24.6022 25.1178 24.5339 25.0495C24.4655 24.9811 24.4271 24.8884 24.4271 24.7917V17.5C24.4271 17.4033 24.4655 17.3106 24.5339 17.2422C24.6022 17.1738 24.695 17.1354 24.7917 17.1354H26.25C27.1202 17.1354 27.9548 17.4811 28.5702 18.0965C29.1855 18.7118 29.5312 19.5464 29.5312 20.4167V21.875Z" fill="white"/>
</svg>
