<svg width="37" height="37" viewBox="0 0 37 37" fill="none" xmlns="http://www.w3.org/2000/svg">
<g clip-path="url(#clip0_52_3295)">
<path d="M32.8575 16.012C33.9668 15.1664 34.6875 13.8352 34.6875 12.3359C34.6875 9.78525 32.6132 7.71094 30.0625 7.71094C27.5118 7.71094 25.4375 9.78525 25.4375 12.3359C25.4375 13.8406 26.1629 15.1749 27.2783 16.0205C27.1603 16.0729 27.0393 16.1176 26.9252 16.177C26.5475 16.3728 26.3995 16.8384 26.5953 17.2161C26.7919 17.5946 27.2582 17.741 27.6344 17.5452C28.3713 17.1629 29.2115 16.9609 30.0625 16.9609C33.0371 16.9609 35.4583 19.3814 35.4583 22.3568V25.4401C35.4583 26.7151 34.4208 27.7526 33.1458 27.7526H29.2454C28.8191 27.7526 28.4746 28.0979 28.4746 28.5234C28.4746 28.9489 28.8191 29.2943 29.2454 29.2943H33.1458C35.271 29.2943 37 27.5653 37 25.4401V22.3568C37 19.5263 35.2941 17.0897 32.8575 16.012ZM26.9792 12.3359C26.9792 10.6355 28.362 9.2526 30.0625 9.2526C31.763 9.2526 33.1458 10.6355 33.1458 12.3359C33.1458 14.0364 31.763 15.4193 30.0625 15.4193C28.362 15.4193 26.9792 14.0364 26.9792 12.3359Z" fill="#FF7B02"/>
<path d="M10.4047 17.2161C10.6005 16.8384 10.4525 16.3728 10.0748 16.177C9.96071 16.1176 9.83969 16.0729 9.72175 16.0205C10.8371 15.1757 11.5625 13.8406 11.5625 12.3359C11.5625 9.78525 9.48819 7.71094 6.9375 7.71094C4.38681 7.71094 2.3125 9.78525 2.3125 12.3359C2.3125 13.8352 3.03323 15.1664 4.14246 16.012C1.70585 17.0897 0 19.5263 0 22.3568V25.4401C0 27.5653 1.72898 29.2943 3.85417 29.2943H7.75458C8.18085 29.2943 8.52542 28.9489 8.52542 28.5234C8.52542 28.0979 8.18085 27.7526 7.75458 27.7526H3.85417C2.57921 27.7526 1.54167 26.7151 1.54167 25.4401V22.3568C1.54167 19.3814 3.96285 16.9609 6.9375 16.9609C7.7885 16.9609 8.62871 17.1629 9.36562 17.5452C9.74102 17.7395 10.2081 17.5938 10.4047 17.2161ZM3.85417 12.3359C3.85417 10.6355 5.23704 9.2526 6.9375 9.2526C8.63796 9.2526 10.0208 10.6355 10.0208 12.3359C10.0208 14.0364 8.63796 15.4193 6.9375 15.4193C5.23704 15.4193 3.85417 14.0364 3.85417 12.3359Z" fill="#FF7B02"/>
<path d="M21.5647 15.2304C22.9715 14.2553 23.8965 12.6319 23.8965 10.7943C23.8965 7.81885 21.4753 5.39844 18.5007 5.39844C15.526 5.39844 13.1048 7.81885 13.1048 10.7943C13.1048 12.6319 14.0298 14.2553 15.4366 15.2304C12.2731 16.4622 10.0215 19.534 10.0215 23.1276V27.7526C10.0215 29.8778 11.7505 31.6068 13.8757 31.6068H23.1257C25.2508 31.6068 26.9798 29.8778 26.9798 27.7526V23.1276C26.9798 19.5332 24.7282 16.4622 21.5647 15.2304ZM14.6465 10.7943C14.6465 8.66908 16.3755 6.9401 18.5007 6.9401C20.6258 6.9401 22.3548 8.66908 22.3548 10.7943C22.3548 12.9195 20.6258 14.6484 18.5007 14.6484C16.3755 14.6484 14.6465 12.9195 14.6465 10.7943ZM25.4382 27.7526C25.4382 29.0276 24.4006 30.0651 23.1257 30.0651H13.8757C12.6007 30.0651 11.5632 29.0276 11.5632 27.7526V23.1276C11.5632 19.3027 14.675 16.1901 18.5007 16.1901C22.3263 16.1901 25.4382 19.3027 25.4382 23.1276V27.7526Z" fill="white"/>
</g>
<defs>
<clipPath id="clip0_52_3295">
<rect width="37" height="37" fill="white"/>
</clipPath>
</defs>
</svg>
