<svg width="33" height="33" viewBox="0 0 33 33" fill="none" xmlns="http://www.w3.org/2000/svg">
<mask id="mask0_30_6115" style="mask-type:luminance" maskUnits="userSpaceOnUse" x="0" y="0" width="33" height="33">
<path d="M0 0H33V33H0V0Z" fill="white"/>
</mask>
<g mask="url(#mask0_30_6115)">
<path d="M31.0314 30.0996C31.0314 30.6335 30.5907 31.0664 30.0471 31.0664H8.3925C7.84889 31.0664 7.4082 31.4993 7.4082 32.0332C7.4082 32.5672 7.84889 33 8.3925 33H30.0471C31.6779 33 33 31.7014 33 30.0996V7.41233C33 7.15593 32.8963 6.91003 32.7118 6.72872L26.15 0.283195C25.9654 0.101879 25.715 0 25.454 0H10.3611C8.7303 0 7.40821 1.29859 7.4082 2.90039L7.4082 15.891C7.4082 16.4249 7.84889 16.8578 8.3925 16.8578C8.93612 16.8578 9.37681 16.4249 9.37681 15.891V2.90039C9.37682 2.36649 9.81753 1.93359 10.3611 1.93359H25.0463L31.0314 7.81278V30.0996Z" fill="white"/>
<path d="M27.3615 19.5313C27.8716 19.5313 28.2851 19.079 28.2851 18.521C28.2851 17.9631 27.8716 17.5108 27.3615 17.5108H14.3923C13.8822 17.5108 13.4688 17.9631 13.4688 18.521C13.4688 19.079 13.8822 19.5313 14.3923 19.5313H27.3615Z" fill="white"/>
<path d="M27.3146 13.4688C27.8502 13.4688 28.2844 13.0165 28.2844 12.4585C28.2844 11.9006 27.8502 11.4483 27.3146 11.4483H13.0909C12.5553 11.4483 12.1211 11.9006 12.1211 12.4585C12.1211 13.0165 12.5553 13.4688 13.0909 13.4688H27.3146Z" fill="white"/>
<path d="M27.3265 24.918C27.8565 24.918 28.2862 24.6164 28.2862 24.2445C28.2862 23.8726 27.8565 23.571 27.3265 23.571H16.4499C15.9199 23.571 15.4902 23.8726 15.4902 24.2445C15.4902 24.6164 15.9199 24.918 16.4499 24.918H27.3265Z" fill="white"/>
<path d="M15.5646 24.2449C15.5646 28.0057 12.5159 31.0544 8.7551 31.0544C4.99432 31.0544 1.94558 28.0057 1.94558 24.2449C1.94558 20.4841 4.99432 17.4354 8.7551 17.4354C12.5159 17.4354 15.5646 20.4841 15.5646 24.2449ZM17.5102 24.2449C17.5102 19.4096 13.5904 15.4898 8.7551 15.4898C3.9198 15.4898 0 19.4096 0 24.2449C0 29.0802 3.9198 33 8.7551 33C13.5904 33 17.5102 29.0802 17.5102 24.2449Z" fill="#FF7B02"/>
<path d="M31.991 8.08203C32.3996 8.08203 32.7679 7.85482 32.9243 7.50637C33.0806 7.15793 32.9942 6.75683 32.7053 6.49014L25.9706 0.27353C25.6817 0.00684017 25.2472 -0.0729147 24.8697 0.0714135C24.4922 0.215746 24.2461 0.555765 24.2461 0.932924V7.14954C24.2461 7.66454 24.6984 8.08203 25.2563 8.08203H31.991ZM26.2665 3.18416L29.5521 6.21704H26.2665V3.18416Z" fill="white"/>
<path d="M6.35728 27.9893C6.75178 28.3838 7.39145 28.3838 7.78595 27.9893C8.18046 27.5948 8.18046 26.9551 7.78595 26.5606L5.76557 24.5402C5.37106 24.1457 4.7314 24.1457 4.33689 24.5402C3.94239 24.9347 3.94239 25.5744 4.33689 25.9689L6.35728 27.9893Z" fill="#FF7B02"/>
<path d="M6.35643 27.9893C6.75094 28.3838 7.3906 28.3838 7.78511 27.9893L12.4994 23.275C12.8939 22.8805 12.8939 22.2408 12.4994 21.8463C12.1049 21.4518 11.4652 21.4518 11.0707 21.8463L6.35643 26.5606C5.96192 26.9551 5.96192 27.5948 6.35643 27.9893Z" fill="#FF7B02"/>
</g>
</svg>
