<svg width="40" height="40" viewBox="0 0 40 40" fill="none" xmlns="http://www.w3.org/2000/svg">
<path d="M27.1527 7C27.1527 3.77064 29.7706 1.15272 33 1.15272C36.2294 1.15272 38.8473 3.77064 38.8473 7C38.8473 10.2294 36.2294 12.8473 33 12.8473C29.7706 12.8473 27.1527 10.2294 27.1527 7ZM26 7C26 10.866 29.134 14 33 14C36.866 14 40 10.866 40 7C40 3.13401 36.866 0 33 0C29.134 2.21834e-06 26 3.13401 26 7Z" fill="white"/>
<path d="M31.1783 6.00004C31.1783 4.99396 31.9939 4.17834 33 4.17832C34.006 4.17832 34.8217 4.99395 34.8217 6.00004C34.8217 7.00611 34.006 7.82168 33 7.82168C31.9939 7.82166 31.1783 7.0061 31.1783 6.00004ZM30 6.00004C30 7.65687 31.3431 8.99998 33 9C34.6568 9 36 7.65688 36 6.00004C36 4.34318 34.6568 3 33 3C31.3431 3.00002 30 4.34319 30 6.00004Z" fill="white"/>
<path d="M31.8078 8C29.5323 8.00001 27.6077 9.40924 27.0219 11.3131C26.9675 11.49 27.0159 11.68 27.1502 11.817C28.4629 13.1554 30.3731 14 32.5 14C34.6269 14 36.5371 13.1553 37.8498 11.817C37.9841 11.68 38.0325 11.49 37.9781 11.3131C37.3923 9.40924 35.4677 8 33.1921 8H31.8078ZM33.1921 9.0763C34.807 9.0763 36.198 10.0125 36.739 11.3215C35.6538 12.3117 34.1558 12.9236 32.5 12.9236C30.8441 12.9236 29.3463 12.3117 28.2611 11.3214C28.8021 10.0125 30.1929 9.0763 31.8078 9.0763H33.1921Z" fill="white"/>
<path d="M5.17832 6.00004C5.17832 4.99396 5.99389 4.17834 6.99996 4.17832C8.00605 4.17832 8.82168 4.99395 8.82168 6.00004C8.82166 7.00611 8.00604 7.82168 6.99996 7.82168C5.9939 7.82166 5.17834 7.0061 5.17832 6.00004ZM4 6.00004C4.00002 7.65687 5.34313 8.99998 6.99996 9C8.65681 9 9.99998 7.65688 10 6.00004C10 4.34318 8.65682 3 6.99996 3C5.34312 3.00002 4 4.34319 4 6.00004Z" fill="white"/>
<path d="M6.80779 8C4.53227 8.00001 2.6077 9.40924 2.02194 11.3131C1.96751 11.49 2.01587 11.68 2.15022 11.817C3.46286 13.1554 5.37309 14 7.49996 14C9.62687 14 11.5371 13.1553 12.8498 11.817C12.9841 11.68 13.0325 11.49 12.9781 11.3131C12.3923 9.40924 10.4677 8 8.19213 8H6.80779ZM8.19213 9.0763C9.80704 9.0763 11.198 10.0125 11.739 11.3215C10.6538 12.3117 9.15581 12.9236 7.49996 12.9236C5.84411 12.9236 4.3463 12.3117 3.26106 11.3214C3.80208 10.0125 5.19293 9.0763 6.80779 9.0763H8.19213Z" fill="white"/>
<path d="M31.1783 32C31.1783 30.994 31.9939 30.1783 33 30.1783C34.006 30.1783 34.8217 30.994 34.8217 32C34.8217 33.0061 34.006 33.8217 33 33.8217C31.9939 33.8217 31.1783 33.0061 31.1783 32ZM30 32C30 33.6569 31.3431 35 33 35C34.6568 35 36 33.6569 36 32C36 30.3432 34.6568 29 33 29C31.3431 29 30 30.3432 30 32Z" fill="white"/>
<path d="M31.8078 33C29.5323 33 27.6077 34.6441 27.0219 36.8653C26.9675 37.0717 27.0159 37.2933 27.1502 37.4532C28.4629 39.0145 30.3731 40 32.5 40C34.6269 40 36.5371 39.0145 37.8498 37.4532C37.9841 37.2933 38.0325 37.0717 37.9781 36.8653C37.3923 34.6441 35.4677 33 33.1921 33H31.8078ZM33.1921 34.2557C34.807 34.2557 36.198 35.3479 36.739 36.875C35.6538 38.0303 34.1558 38.7442 32.5 38.7442C30.8441 38.7442 29.3463 38.0302 28.2611 36.8749C28.8021 35.3479 30.1929 34.2557 31.8078 34.2557H33.1921Z" fill="white"/>
<path d="M1.15272 33C1.15272 29.7706 3.77064 27.1527 7 27.1527C10.2294 27.1527 12.8473 29.7706 12.8473 33C12.8473 36.2294 10.2294 38.8473 7 38.8473C3.77064 38.8473 1.15272 36.2294 1.15272 33ZM-1.19209e-07 33C8.34465e-07 36.866 3.13401 40 7 40C10.866 40 14 36.866 14 33C14 29.134 10.866 26 7 26C3.13401 26 -1.19209e-07 29.134 -1.19209e-07 33Z" fill="white"/>
<path d="M5.17832 32C5.17832 30.994 5.99389 30.1783 6.99996 30.1783C8.00605 30.1783 8.82168 30.994 8.82168 32C8.82166 33.0061 8.00604 33.8217 6.99996 33.8217C5.9939 33.8217 5.17834 33.0061 5.17832 32ZM4 32C4.00002 33.6569 5.34313 35 6.99996 35C8.65681 35 9.99998 33.6569 10 32C10 30.3432 8.65682 29 6.99996 29C5.34312 29 4 30.3432 4 32Z" fill="white"/>
<path d="M6.8078 33C4.53227 33 2.6077 34.6441 2.02194 36.8653C1.96751 37.0717 2.01586 37.2933 2.15022 37.4532C3.46285 39.0145 5.37307 40 7.49996 40C9.62687 40 11.5371 39.0145 12.8498 37.4532C12.9841 37.2933 13.0325 37.0717 12.9781 36.8653C12.3923 34.6441 10.4677 33 8.19213 33H6.8078ZM8.19213 34.2557C9.80704 34.2557 11.198 35.3479 11.739 36.875C10.6538 38.0303 9.15581 38.7442 7.49996 38.7442C5.84413 38.7442 4.34631 38.0302 3.26107 36.8749C3.80208 35.3479 5.19293 34.2557 6.8078 34.2557H8.19213Z" fill="white"/>
<path d="M4.39439 19.9999C4.39439 18.546 4.59706 17.1361 4.97774 15.7918C5.0737 15.4528 4.84916 15.1074 4.47627 15.0201C4.10338 14.9329 3.72326 15.137 3.62729 15.4759C3.21764 16.9226 3 18.4386 3 19.9999C3 21.5614 3.21773 23.0774 3.62738 24.5242C3.72336 24.8631 4.10347 25.0671 4.47636 24.9799C4.84926 24.8926 5.0738 24.5472 4.97783 24.2082C4.59714 22.8638 4.39439 21.4539 4.39439 19.9999Z" fill="white"/>
<path d="M15.7917 35.0222C15.4529 34.9262 15.1074 35.1506 15.0202 35.5235C14.9329 35.8963 15.1369 36.2764 15.4758 36.3724C16.9225 36.7821 18.4386 37 20 37C21.5615 37 23.0775 36.7821 24.5242 36.3724C24.8631 36.2764 25.0671 35.8963 24.9798 35.5235C24.8926 35.1506 24.5471 34.9262 24.2083 35.0222C22.8639 35.403 21.4539 35.6058 20 35.6058C18.5461 35.6058 17.1361 35.403 15.7917 35.0222Z" fill="white"/>
<path d="M37 19.9998C37 18.4385 36.7856 16.9224 36.3822 15.4758C36.3351 15.3067 36.2145 15.1631 36.0489 15.0788C35.8833 14.9945 35.6873 14.977 35.5073 15.0304C35.4951 15.034 35.4896 15.0357 35.4832 15.0376C35.1211 15.1413 34.9187 15.4963 35.031 15.8306C35.0486 15.8828 35.0729 15.9315 35.1026 15.976C35.4451 17.2647 35.627 18.6122 35.627 19.9998C35.627 21.4538 35.4274 22.8639 35.0525 24.2082C34.958 24.5471 35.179 24.8926 35.5462 24.9798C35.9134 25.0671 36.2876 24.8631 36.3821 24.5241C36.7856 23.0774 37 21.5613 37 19.9998Z" fill="white"/>
<path d="M20 3C18.4385 3 16.9225 3.21772 15.4758 3.62747C15.1369 3.72346 14.9329 4.10355 15.0202 4.47644C15.1074 4.84933 15.4528 5.07381 15.7917 4.97782C17.1361 4.59705 18.546 4.39438 20 4.39438C21.4539 4.39438 22.8638 4.59706 24.2082 4.97782C24.5471 5.07381 24.8926 4.84934 24.9798 4.47644C25.0671 4.10356 24.8631 3.72348 24.5242 3.62747C23.0775 3.21771 21.5613 3 20 3Z" fill="white"/>
<path d="M18.427 13.1986C18.4271 13.1801 18.4425 13.165 18.4614 13.165H21.5386C21.5575 13.165 21.5729 13.1801 21.573 13.1986V14.4781C21.573 14.9289 21.8312 15.3462 22.2483 15.5495L22.2484 15.5495C22.4406 15.6431 22.6259 15.7484 22.8037 15.8645L22.8036 15.8646C23.1795 16.1104 23.6595 16.1294 24.0526 15.9246L24.0903 15.9041L25.2214 15.2638V15.2637C25.2379 15.2545 25.2588 15.2602 25.2682 15.276L25.2682 15.2762L26.8069 17.8889C26.8164 17.9051 26.8106 17.9256 26.7944 17.9347H26.7943L25.6632 18.575H25.6633C25.2571 18.8049 25.025 19.2397 25.0551 19.6929V19.693C25.0619 19.7948 25.0654 19.8971 25.0654 19.9999C25.0654 20.0771 25.0634 20.154 25.0596 20.2305L25.0551 20.3069V20.3073C25.0252 20.7602 25.2572 21.1949 25.6632 21.4248L25.6633 21.4249L26.7943 22.0651H26.7944C26.8107 22.0743 26.8163 22.0949 26.8069 22.1109V22.111L25.2682 24.7237L25.2682 24.7238C25.2588 24.7398 25.2378 24.7453 25.2214 24.736H25.2214L24.0903 24.0958L24.0526 24.0753C23.6596 23.8706 23.1796 23.8895 22.8037 24.1353L22.7367 24.1783C22.602 24.2634 22.463 24.3423 22.3201 24.4147L22.2483 24.4504L22.2483 24.4505C21.8311 24.6538 21.5729 25.0711 21.5729 25.5218V26.8013C21.5729 26.8199 21.5575 26.835 21.5385 26.835H18.4613C18.4423 26.835 18.427 26.8199 18.427 26.8013V25.5218C18.427 25.0711 18.1687 24.6537 17.7516 24.4505L17.7515 24.4504C17.5593 24.3568 17.3739 24.2514 17.1962 24.1353C16.8202 23.8895 16.3403 23.8706 15.9474 24.0752L15.9096 24.0958L14.7785 24.736L14.7721 24.7388C14.7569 24.7438 14.7398 24.7377 14.7317 24.7238V24.7237L13.1931 22.1112C13.1836 22.095 13.1894 22.0743 13.2057 22.0651H13.2057L14.3368 21.4249V21.4248C14.7429 21.1949 14.975 20.7602 14.9449 20.307C14.9381 20.2048 14.9346 20.1025 14.9346 19.9999C14.9346 19.8973 14.9381 19.7949 14.9449 19.6927L14.947 19.6503C14.9602 19.2128 14.7304 18.7978 14.3368 18.575L13.2057 17.9347H13.2056C13.1893 17.9255 13.1837 17.905 13.1931 17.8891L13.1931 17.8889L14.7318 15.2762V15.2761C14.7412 15.2601 14.7622 15.2545 14.7786 15.2637L14.7785 15.2638L15.9097 15.9041C16.3094 16.1304 16.8083 16.1183 17.1964 15.8645V15.8646C17.374 15.7485 17.5594 15.6432 17.7516 15.5495L17.7516 15.5495C18.1688 15.3462 18.427 14.9289 18.427 14.4781V13.1986ZM17.9072 19.9998C17.9072 18.8667 18.8442 17.9481 20 17.9481C21.1558 17.9481 22.0928 18.8667 22.0928 19.9998C22.0928 21.133 21.1558 22.0516 20 22.0516C18.8443 22.0516 17.9073 21.1331 17.9072 19.9998ZM16.72 20.0829C16.765 21.8211 18.2163 23.2166 20 23.2166C21.8121 23.2166 23.2812 21.7765 23.2812 19.9998C23.2812 18.2233 21.8121 16.7831 20 16.7831C18.1879 16.7831 16.7189 18.2232 16.7189 19.9998L16.72 20.0829ZM17.2387 14.4781C17.2387 14.4926 17.2305 14.5024 17.2227 14.5062H17.2228C17.0148 14.6075 16.8135 14.7198 16.6197 14.8422L16.5372 14.8953L16.5371 14.8953C16.5293 14.9005 16.5163 14.9022 16.5039 14.8952L15.3728 14.2549L15.3727 14.2548C14.788 13.9239 14.0402 14.1203 13.7026 14.6937L12.1641 17.3063L12.1486 17.3333C11.8377 17.8934 12.0296 18.5953 12.5844 18.928L12.6115 18.9437L13.7426 19.584L13.7426 19.584C13.7508 19.5886 13.7581 19.598 13.759 19.6114V19.6173C13.7507 19.7431 13.7463 19.8708 13.7463 19.9999C13.7463 20.1292 13.7507 20.2567 13.759 20.3825L13.7591 20.3828C13.7599 20.395 13.7556 20.4045 13.7494 20.4107L13.7426 20.4159L12.6116 21.0561L12.5845 21.0719C12.0207 21.4099 11.8319 22.129 12.1637 22.6932L12.1639 22.6935L13.7025 25.3063C14.0401 25.8797 14.788 26.0758 15.3725 25.745H15.3726L16.5037 25.1047C16.5162 25.0976 16.5291 25.0995 16.537 25.1046L16.5371 25.1047C16.7562 25.2479 16.9851 25.378 17.2227 25.4938C17.2305 25.4976 17.2386 25.5074 17.2386 25.5218V26.8013C17.2386 27.4634 17.7861 28 18.4613 28H21.5385C22.2138 28 22.7612 27.4633 22.7612 26.8013V25.5218C22.7612 25.5074 22.7694 25.4976 22.7771 25.4938L22.8659 25.4497C23.0719 25.3453 23.2711 25.23 23.4627 25.1047L23.463 25.1046C23.4708 25.0995 23.4837 25.0977 23.4961 25.1047H23.4962L24.6273 25.7449L24.6272 25.745C25.2028 26.0708 25.9365 25.8856 26.2813 25.3328L26.2973 25.3063L27.836 22.6935C28.1736 22.1202 27.9733 21.3871 27.3885 21.0561L26.2573 20.4159C26.2481 20.4106 26.24 20.3992 26.2409 20.383L26.2464 20.2879C26.2512 20.1927 26.2537 20.0966 26.2537 19.9999C26.2537 19.871 26.2494 19.7434 26.2409 19.617C26.2399 19.6008 26.2479 19.5894 26.2573 19.584L26.2574 19.584L27.3886 18.9437V18.9437C27.9734 18.6126 28.1735 17.8796 27.836 17.3065L27.836 17.3064L26.2973 14.6937C25.965 14.1291 25.2352 13.9302 24.6548 14.2397L24.6273 14.2548L24.6272 14.2549L23.4961 14.8952L23.4914 14.8974C23.4806 14.9017 23.4698 14.8999 23.4628 14.8953L23.4627 14.8952C23.2438 14.7521 23.015 14.622 22.7773 14.5062C22.7695 14.5024 22.7613 14.4926 22.7613 14.4781V13.1986C22.7613 12.5367 22.2138 12 21.5386 12H18.4614C17.7862 12 17.2387 12.5367 17.2387 13.1986V14.4781Z" fill="#FF7B02"/>
<path d="M40 32.9409C40 29.5968 37.6941 26.7994 34.5999 26.0692C34.29 25.996 33.9799 26.1901 33.9074 26.5027C33.8349 26.8152 34.0273 27.1279 34.3373 27.201C36.9224 27.8111 38.8473 30.1494 38.8473 32.9409C38.8473 36.1976 36.2293 38.8375 33 38.8375C29.7707 38.8375 27.1527 36.1975 27.1527 32.9409C27.1527 30.0686 29.1904 27.6759 31.8879 27.1521C32.2005 27.0915 32.4051 26.7867 32.3449 26.4715C32.2847 26.1563 31.9826 25.9499 31.67 26.0106C28.4405 26.6376 26 29.5004 26 32.9409C26 36.8395 29.134 40 33 40C36.866 40 40 36.8396 40 32.9409Z" fill="white"/>
<path d="M14 7C14 3.13404 10.8424 0 6.94729 0C3.63403 1.34774e-06 0.857178 2.26752 0.099799 5.32293C0.0231799 5.63203 0.213537 5.94429 0.524965 6.02034C0.836378 6.09637 1.15093 5.90743 1.22755 5.59835C1.86031 3.04565 4.18143 1.15272 6.94729 1.15272C10.201 1.15272 12.8386 3.77067 12.8386 7C12.8386 10.2293 10.2009 12.8473 6.94729 12.8473C4.05485 12.8473 1.64968 10.777 1.15224 8.04765C1.09514 7.73444 0.793061 7.52646 0.477481 7.58311C0.161899 7.63977 -0.0477 7.93961 0.00936687 8.25283C0.604896 11.5204 3.48264 14 6.94729 14C10.8424 14 14 10.866 14 7Z" fill="white"/>
</svg>
