<svg width="39" height="39" viewBox="0 0 39 39" fill="none" xmlns="http://www.w3.org/2000/svg">
<path d="M0 8.47873V23.0236C1.2915e-06 25.2202 1.80948 27 4.04005 27H7.99733L8.02674 26.9996C8.64188 26.9843 9.13575 26.4886 9.1358 25.8793L9.13658 15.2309C9.13658 14.2722 9.92583 13.4952 10.8989 13.4952L30.8615 13.4959C31.1634 13.4959 31.453 13.3778 31.6665 13.1676C31.88 12.9575 32 12.6724 32 12.3752V8.47873C32 6.28292 30.1921 4.50167 27.9607 4.50166H13.0418L8.80321 0.328354C8.47762 0.0077855 7.9879 -0.0881312 7.56246 0.0853268C7.13703 0.258781 6.85966 0.667448 6.85964 1.12075V4.50166H4.04005C1.8091 4.50166 1.50257e-05 6.28254 0 8.47873ZM2.27693 8.47873C2.27695 7.52046 3.06662 6.74313 4.04005 6.74313H7.99811C8.62686 6.74312 9.13657 6.24135 9.13658 5.62239V3.82681L11.7651 6.41479L11.7853 6.43421C11.9967 6.63226 12.2776 6.74312 12.5702 6.74313H27.9607C28.9338 6.74313 29.7231 7.52009 29.7231 8.47873V11.2545L10.899 11.2537C8.66766 11.2537 6.8597 13.0349 6.85964 15.2307L6.85892 24.7585H4.04005C3.06622 24.7585 2.27693 23.9815 2.27693 23.0236V8.47873Z" fill="white"/>
<path d="M36.7231 30.2075C36.7231 31.2012 35.9335 32.0074 34.96 32.0074H31.0021C30.3733 32.0074 29.8636 32.5277 29.8636 33.1696V35.0317L27.2352 32.3478C27.0217 32.1298 26.7321 32.0074 26.4301 32.0074H11.04C10.0665 32.0074 9.27688 31.2012 9.27688 30.2075L9.27765 15.1244C9.27765 14.1302 10.0669 13.3245 11.0399 13.3245L34.96 13.3252C35.9339 13.3252 36.7231 14.131 36.7231 15.1243V30.2075ZM18.7867 27.0104C19.2327 27.4432 19.938 27.4362 20.3756 26.9894L20.3764 26.9886C20.702 26.6563 20.7994 26.1564 20.6232 25.7221C20.447 25.2878 20.0319 25.0047 19.5714 25.0046H19.5699C19.1094 25.0046 18.6943 25.2878 18.5181 25.7221C18.3419 26.1564 18.4393 26.6563 18.7649 26.9886L18.7657 26.9894L18.7867 27.0104ZM39 15.1243C39 12.8464 37.1906 11.0008 34.96 11.0008L11.04 11C8.80869 11 7.00083 12.8472 7.00078 15.1242L7 30.2075C7 32.485 8.80905 34.3318 11.04 34.3318H25.9585L30.197 38.6595C30.5226 38.9919 31.0122 39.0914 31.4377 38.9115C31.8631 38.7316 32.1405 38.3079 32.1405 37.8378V34.3318H34.96C37.1909 34.3318 39 32.485 39 30.2075V15.1243Z" fill="#FF7B02"/>
<path d="M19.2193 26.5513C19.5827 27.0468 20.2699 27.1473 20.7543 26.7756L29.5614 20.0188C30.0458 19.6472 30.144 18.9442 29.7807 18.4487C29.4173 17.9532 28.7301 17.8527 28.2457 18.2244L19.4386 24.9812C18.9542 25.3528 18.856 26.0558 19.2193 26.5513Z" fill="#FF7B02"/>
<path d="M17.6367 26.4485C17.9448 26.9411 18.694 27.1408 19.3102 26.8945C19.9264 26.6482 20.1761 26.0491 19.868 25.5565L17.3633 21.5515C17.0552 21.0589 16.306 20.8592 15.6898 21.1055C15.0736 21.3518 14.8239 21.9509 15.132 22.4435L17.6367 26.4485Z" fill="#FF7B02"/>
</svg>
