<svg width="37" height="37" viewBox="0 0 37 37" fill="none" xmlns="http://www.w3.org/2000/svg">
<path d="M19.5336 24.9424C19.9678 25.1079 20.4598 24.9047 20.6325 24.4886L24.9399 14.1107C25.1126 13.6946 24.9006 13.2231 24.4664 13.0576C24.0322 12.8921 23.5402 13.0953 23.3675 13.5114L19.0601 23.8894C18.8874 24.3055 19.0994 24.7769 19.5336 24.9424Z" fill="white"/>
<path d="M27.3669 26.9269C27.7835 27.1185 28.2697 26.9205 28.4529 26.4846L31.9303 18.209C32.0424 17.9424 32.0181 17.6347 31.866 17.3909C31.7138 17.147 31.4543 17 31.176 17H26.824C26.3689 17 26 17.386 26 17.8621C26 18.3382 26.3689 18.7241 26.824 18.7241H29.9136L26.9441 25.7908C26.761 26.2267 26.9503 26.7353 27.3669 26.9269Z" fill="white"/>
<mask id="mask0_30_6176" style="mask-type:luminance" maskUnits="userSpaceOnUse" x="0" y="0" width="37" height="37">
<path d="M0 0H37V37H0V0Z" fill="white"/>
</mask>
<g mask="url(#mask0_30_6176)">
<path d="M18.9111 19.0545C18.9111 19.0507 18.9112 19.045 18.9113 19.0374C18.9114 19.0224 18.9115 19.0001 18.9118 18.971C18.9122 18.9127 18.9129 18.8273 18.9137 18.7183C18.9153 18.5005 18.9176 18.1887 18.9202 17.8128C18.9213 17.6569 18.9224 17.49 18.9236 17.3143H19.1281C19.6097 17.3143 20 16.8898 20 16.3663C20 15.8428 19.6097 15.4184 19.1281 15.4184H18.9351C18.9358 15.2888 18.9366 15.1584 18.9373 15.0277C18.9425 14.0027 18.9464 12.959 18.9464 12.1368C18.9464 11.3481 18.9433 10.6925 18.9289 10.5043C18.8928 10.0331 18.6714 9.41143 18.1128 9.12937C17.4275 8.78337 16.7996 9.18868 16.4382 9.67084V9.67089C16.2711 9.89382 15.9719 10.4291 15.6626 10.9993C15.3332 11.6068 14.9393 12.3555 14.5618 13.081C14.1839 13.8074 13.8207 14.5141 13.552 15.039C13.4177 15.3015 13.3068 15.5187 13.2296 15.6703C13.191 15.7461 13.1608 15.8056 13.1401 15.8461C13.1298 15.8664 13.1219 15.8819 13.1166 15.8924C13.1139 15.8977 13.1119 15.9017 13.1106 15.9043C13.1099 15.9057 13.1093 15.9067 13.109 15.9074C13.1088 15.9077 13.1087 15.908 13.1086 15.9082C13.1085 15.9083 13.1085 15.9084 13.1085 15.9084C13.1086 15.9086 13.1206 15.9157 13.8719 16.3663L13.1085 15.9085C12.9595 16.2021 12.9643 16.5595 13.1211 16.8483C13.2779 17.137 13.5634 17.3143 13.8719 17.3143H17.1797C17.1785 17.4848 17.1776 17.6469 17.1765 17.7985C17.1739 18.1739 17.1716 18.4853 17.17 18.7029C17.1691 18.8116 17.1685 18.8969 17.168 18.955C17.1678 18.9841 17.1676 19.0063 17.1675 19.0213C17.1674 19.0287 17.1674 19.0344 17.1673 19.0382C17.1673 19.0401 17.1674 19.0415 17.1673 19.0425C17.1673 19.043 17.1673 19.0434 17.1673 19.0436C17.1673 19.0437 17.1673 19.0438 17.1673 19.0438C17.1673 19.0439 17.1673 19.0439 18.0392 19.0521C18.9111 19.0603 18.9111 19.0602 18.9111 19.0601V19.0545ZM15.3541 15.4184C15.5723 14.9938 15.8226 14.5084 16.0797 14.0144C16.4553 13.2923 16.8433 12.5551 17.1649 11.962C17.1775 11.9388 17.19 11.9159 17.2024 11.8932C17.2025 11.9718 17.2026 12.0531 17.2026 12.1368C17.2026 12.9537 17.1987 13.9932 17.1935 15.0171C17.1928 15.1514 17.192 15.2853 17.1913 15.4184H15.3541ZM18.0317 20C18.5132 20.0045 18.9069 19.5838 18.9111 19.0603L18.0392 19.0521L17.1673 19.0439C17.1632 19.5674 17.5501 19.9954 18.0317 20Z" fill="white"/>
<path d="M8.84486 19.9965C9.23601 20.0011 9.73702 20.0007 10.2285 19.9981C10.7209 19.9956 11.2072 19.9909 11.5701 19.9869C11.7517 19.9848 11.9025 19.9829 12.008 19.9816C12.0608 19.9809 12.1022 19.9803 12.1305 19.98C12.1446 19.9798 12.1554 19.9796 12.1628 19.9795C12.1664 19.9795 12.1692 19.9794 12.1711 19.9794C12.172 19.9794 12.1728 19.9794 12.1733 19.9794H12.1739C12.174 19.9788 12.1738 19.9567 12.1635 19.0312L12.153 18.083H12.1503C12.1485 18.083 12.1458 18.0831 12.1422 18.0831C12.1351 18.0832 12.1244 18.0834 12.1104 18.0835C12.0824 18.0839 12.0413 18.0845 11.989 18.0852C11.8842 18.0865 11.7342 18.0884 11.5537 18.0904C11.1924 18.0944 10.7093 18.0991 10.2209 18.1016C10.046 18.1025 9.87092 18.103 9.70079 18.1033C10.1025 17.4964 10.6575 16.641 11.4075 15.4339L11.6387 15.0605C12.1328 14.2603 12.4446 13.5292 12.5919 12.8574L12.6057 12.7926L12.6101 12.7692C12.6144 12.7458 12.6178 12.7223 12.6205 12.6986L12.6595 12.3533C12.664 12.3134 12.6662 12.2732 12.6662 12.233C12.6662 10.4474 11.3893 9 9.81426 9C8.42738 9 7.27339 10.1214 7.01584 11.6073C6.92679 12.1212 7.22211 12.6196 7.67543 12.7206C8.12875 12.8216 8.56846 12.4868 8.65752 11.973C8.7639 11.3592 9.24238 10.8966 9.81426 10.8966C10.4501 10.8966 10.9682 11.4671 10.9922 12.1813L10.9668 12.4066C10.8823 12.7876 10.681 13.3041 10.268 13.9731C9.02054 15.9936 8.28168 17.0904 7.87653 17.6917C7.68948 17.9694 7.53176 18.201 7.44501 18.3612C7.41972 18.408 7.38602 18.4744 7.35649 18.5528C7.33023 18.6225 7.28229 18.7656 7.27881 18.9508C7.27468 19.1701 7.33486 19.4241 7.50241 19.6349C7.64613 19.8156 7.80994 19.8883 7.88526 19.9167L7.88536 19.9168C8.01296 19.965 8.14888 19.973 8.15969 19.974C8.21448 19.9788 8.27807 19.9823 8.34379 19.9851C8.47693 19.9906 8.6501 19.9942 8.84486 19.9965ZM12.174 19.9794C12.6359 19.9728 13.0057 19.5429 12.9999 19.0193C12.9941 18.4956 12.615 18.0764 12.153 18.083L12.174 19.9794Z" fill="white"/>
<path d="M29.9148 1.04259V4.91482H26.0426C25.4668 4.91482 25 5.38161 25 5.95741C25 6.53322 25.4668 7 26.0426 7H30.9574C31.5332 7 32 6.53322 32 5.95741V1.04259C32 0.466783 31.5332 0 30.9574 0C30.3816 2.38419e-06 29.9148 0.466784 29.9148 1.04259Z" fill="#FF7B02"/>
<path d="M6 35.8085C6 36.4665 6.46678 37 7.04259 37C7.61839 37 8.08518 36.4665 8.08518 35.8085V31.3831H11.9574C12.5332 31.3831 13 30.8496 13 30.1915C13 29.5335 12.5332 29 11.9574 29H7.04259C6.46678 29 6 29.5335 6 30.1915V35.8085Z" fill="#FF7B02"/>
<path d="M6.30854 30.8381C13.3298 37.7206 24.7136 37.7206 31.7349 30.8381C37.0315 25.6462 38.33 18.023 35.6389 11.6386C35.4167 11.1115 34.8007 10.8607 34.263 11.0785C33.7252 11.2963 33.4694 11.9002 33.6916 12.4273C36.069 18.0674 34.9186 24.7965 30.2451 29.3777C24.0466 35.4537 13.9969 35.4537 7.79841 29.3777C7.38701 28.9745 6.71994 28.9745 6.30854 29.3777C5.89716 29.781 5.89715 30.4348 6.30854 30.8381Z" fill="#FF7B02"/>
<path d="M1.40841 25.3366C1.63802 25.8845 2.27404 26.1448 2.82899 25.9182C3.38395 25.6915 3.64768 25.0635 3.41806 24.5156C0.960002 18.65 2.14655 11.6502 6.97282 6.88518C13.3712 0.567987 23.7452 0.567987 30.1436 6.88518C30.5683 7.30445 31.2568 7.30446 31.6815 6.88518C32.1062 6.4659 32.1062 5.78611 31.6815 5.36682C24.4337 -1.78894 12.6827 -1.78894 5.43494 5.36682C-0.0347415 10.7671 -1.37401 18.697 1.40841 25.3366Z" fill="#FF7B02"/>
</g>
</svg>
