<svg width="45" height="45" viewBox="0 0 45 45" fill="none" xmlns="http://www.w3.org/2000/svg">
<path d="M21.9962 29.5806C22.2619 29.6987 22.573 29.6409 22.7788 29.4352L24.3137 27.9004C24.5194 27.6947 24.5771 27.3837 24.4591 27.1178L24.0264 26.1437C24.2917 25.6609 24.5027 25.152 24.6565 24.624L25.6505 24.2414C25.9219 24.137 26.1011 23.8762 26.1011 23.5852V21.4146C26.1011 21.1237 25.9219 20.8629 25.6505 20.7584L24.6568 20.376C24.5029 19.8476 24.2919 19.3386 24.0266 18.8557L24.4591 17.8821C24.5771 17.6162 24.5194 17.3052 24.3137 17.0995L22.7788 15.5647C22.573 15.359 22.2621 15.3011 21.9962 15.4193L21.0221 15.8519C20.5392 15.5866 20.0305 15.3756 19.5025 15.2218L19.1198 14.2279C19.0154 13.9565 18.7545 13.7773 18.4636 13.7773H16.2931C16.0022 13.7773 15.7414 13.9565 15.6369 14.2279L15.2542 15.2218C14.7263 15.3756 14.2175 15.5867 13.7345 15.8519L12.7604 15.4193C12.4944 15.3012 12.1834 15.3591 11.9778 15.5647L10.443 17.0996C10.2373 17.3053 10.1796 17.6163 10.2976 17.8822L10.7302 18.8561C10.4649 19.3389 10.2539 19.8478 10.1 20.376L9.10617 20.7585C8.83477 20.8629 8.65564 21.1238 8.65564 21.4147V23.5853C8.65564 23.8762 8.83477 24.137 9.10617 24.2415L10.0999 24.624C10.2538 25.1524 10.4648 25.6615 10.7301 26.1443L10.2976 27.1178C10.1796 27.3837 10.2373 27.6947 10.443 27.9004L11.9779 29.4352C12.1837 29.6409 12.4946 29.6987 12.7605 29.5807L13.7346 29.1481C14.2174 29.4134 14.7262 29.6243 15.2542 29.7782L15.6369 30.7721C15.7413 31.0435 16.0022 31.2227 16.2931 31.2227H18.4636C18.7545 31.2227 19.0153 31.0435 19.1198 30.7721L19.5023 29.7785C20.0306 29.6246 20.5396 29.4136 21.0226 29.1483L21.9962 29.5806ZM20.611 27.7612C20.0531 28.1047 19.4481 28.3556 18.8124 28.5068C18.5868 28.5605 18.4022 28.7219 18.319 28.9383L17.9809 29.8164H16.7759L16.4377 28.938C16.3544 28.7217 16.1698 28.5602 15.9443 28.5065C15.309 28.3553 14.7039 28.1045 14.1461 27.761C13.9487 27.6394 13.7039 27.6231 13.4921 27.7171L12.6309 28.0996L11.7788 27.2474L12.1612 26.3867C12.2552 26.1748 12.2389 25.9301 12.1172 25.7326C11.7738 25.175 11.5229 24.5699 11.3716 23.9339C11.3179 23.7084 11.1565 23.5238 10.9402 23.4406L10.0621 23.1025V21.8975L10.9404 21.5594C11.1567 21.4762 11.3181 21.2916 11.3717 21.0661C11.5231 20.4304 11.7739 19.8254 12.1173 19.2678C12.2389 19.0703 12.2553 18.8256 12.1613 18.6137L11.7788 17.7527L12.6308 16.9006L13.492 17.283C13.7037 17.3772 13.9484 17.3608 14.146 17.2392C14.704 16.8956 15.309 16.6448 15.9442 16.4937C16.1698 16.44 16.3544 16.2786 16.4377 16.0622L16.7759 15.1838H17.9808L18.319 16.0622C18.4023 16.2785 18.5869 16.44 18.8125 16.4937C19.4476 16.6449 20.0526 16.8957 20.6106 17.2392C20.8082 17.3608 21.0529 17.3772 21.2646 17.283L22.1258 16.9006L22.9779 17.7527L22.5955 18.6134C22.5015 18.8253 22.5178 19.07 22.6395 19.2674C22.9829 19.8252 23.2338 20.4303 23.3851 21.0662C23.4388 21.2917 23.6002 21.4764 23.8165 21.5596L24.6946 21.8976V23.1027L23.8162 23.4408C23.5998 23.5241 23.4384 23.7087 23.3848 23.9342C23.2336 24.5695 22.9828 25.1746 22.6392 25.7325C22.5177 25.9299 22.5013 26.1746 22.5954 26.3865L22.9779 27.2475L22.1258 28.0996L21.265 27.7174C21.0533 27.6232 20.8085 27.6395 20.611 27.7612ZM17.3783 18.0113C14.9033 18.0113 12.8898 20.025 12.8898 22.5C12.8898 24.975 14.9033 26.9886 17.3783 26.9886C19.8534 26.9886 21.867 24.975 21.867 22.5C21.867 20.0249 19.8534 18.0113 17.3783 18.0113ZM17.3783 25.5824C15.6787 25.5824 14.296 24.1996 14.296 22.5C14.296 20.8003 15.6787 19.4175 17.3783 19.4175C19.0781 19.4175 20.4608 20.8003 20.4608 22.5C20.4608 24.1996 19.078 25.5824 17.3783 25.5824ZM43.8463 20.7585L42.8527 20.3761C42.6988 19.8479 42.4878 19.3388 42.2224 18.8558L42.6549 17.8822C42.7729 17.6163 42.7152 17.3053 42.5095 17.0996L40.9747 15.5648C40.7689 15.3591 40.458 15.3012 40.1921 15.4194L39.218 15.852C38.7351 15.5867 38.2263 15.3757 37.6983 15.2219L37.3157 14.228C37.2113 13.9566 36.9504 13.7775 36.6595 13.7775H34.4889C34.198 13.7775 33.9372 13.9566 33.8327 14.228L33.45 15.222C32.9221 15.3758 32.4134 15.5868 31.9304 15.8521L30.9563 15.4195C30.6904 15.3014 30.3793 15.3593 30.1737 15.5649L28.6389 17.0998C28.4332 17.3054 28.3755 17.6165 28.4935 17.8824L28.9261 18.8563C28.6607 19.3391 28.4498 19.848 28.2959 20.3762L27.3021 20.7587C27.0307 20.8631 26.8516 21.1239 26.8516 21.4149V23.5855C26.8516 23.8763 27.0307 24.1372 27.3021 24.2417L28.2957 24.6242C28.4496 25.1525 28.6606 25.6615 28.9259 26.1444L28.4935 27.1181C28.3755 27.3839 28.4332 27.695 28.6389 27.9007L30.1737 29.4355C30.3795 29.6412 30.6904 29.699 30.9563 29.581L31.9304 29.1484C32.4133 29.4136 32.9221 29.6245 33.4501 29.7784L33.8327 30.7724C33.9371 31.0438 34.198 31.2229 34.4889 31.2229H36.6595C36.9504 31.2229 37.2112 31.0438 37.3157 30.7724L37.6982 29.7788C38.2265 29.625 38.7355 29.4139 39.2185 29.1485L40.1921 29.581C40.458 29.6991 40.7689 29.6412 40.9747 29.4356L42.5095 27.9008C42.7152 27.6951 42.7729 27.384 42.6549 27.1182L42.2223 26.1441C42.4876 25.6612 42.6985 25.1524 42.8524 24.6243L43.8463 24.2417C44.1178 24.1373 44.2969 23.8764 44.2969 23.5855V21.4149C44.2969 21.1238 44.1178 20.8629 43.8463 20.7585ZM42.8906 23.1025L42.0122 23.4407C41.796 23.5239 41.6345 23.7085 41.5809 23.934C41.4295 24.5694 41.1788 25.1745 40.8353 25.7322C40.7137 25.9296 40.6974 26.1743 40.7914 26.3862L41.1739 27.2473L40.3218 28.0994L39.4611 27.7171C39.2494 27.623 39.0046 27.6394 38.807 27.7611C38.2492 28.1047 37.6441 28.3555 37.0084 28.5068C36.7828 28.5604 36.5982 28.7218 36.515 28.9382L36.1769 29.8163H34.9717L34.6336 28.938C34.5503 28.7216 34.3658 28.5602 34.1402 28.5065C33.5049 28.3553 32.8998 28.1045 32.3419 27.7609C32.1443 27.6394 31.8996 27.6231 31.6879 27.7171L30.8268 28.0995L29.9747 27.2474L30.357 26.3867C30.451 26.1748 30.4347 25.9302 30.313 25.7327C29.9696 25.1748 29.7186 24.5697 29.5674 23.9339C29.5138 23.7084 29.3524 23.5238 29.136 23.4406L28.258 23.1025V21.8975L29.1363 21.5594C29.3527 21.4762 29.514 21.2916 29.5676 21.066C29.7189 20.4306 29.9697 19.8255 30.3132 19.2678C30.4349 19.0703 30.4512 18.8256 30.3572 18.6137L29.9747 17.7527L30.8268 16.9006L31.6879 17.283C31.8996 17.3772 32.1443 17.3608 32.3419 17.2392C32.8999 16.8956 33.5049 16.6448 34.1401 16.4937C34.3656 16.44 34.5502 16.2786 34.6335 16.0622L34.9717 15.1838H36.1767L36.5149 16.0621C36.5981 16.2785 36.7828 16.4399 37.0083 16.4936C37.6436 16.6448 38.2485 16.8956 38.8065 17.2391C39.0041 17.3607 39.2488 17.3771 39.4605 17.2829L40.3217 16.9005L41.1737 17.7526L40.7914 18.6133C40.6973 18.8253 40.7137 19.0699 40.8353 19.2673C41.1789 19.8253 41.4298 20.4304 41.5809 21.066C41.6346 21.2916 41.7959 21.4762 42.0123 21.5594L42.8904 21.8975L42.8906 23.1025ZM35.5743 18.0113C33.0992 18.0113 31.0856 20.025 31.0856 22.5C31.0856 24.975 33.0992 26.9886 35.5743 26.9886C38.0493 26.9886 40.0629 24.975 40.0629 22.5C40.0629 20.0249 38.0493 18.0113 35.5743 18.0113ZM35.5743 25.5824C33.8745 25.5824 32.4918 24.1996 32.4918 22.5C32.4918 20.8003 33.8745 19.4175 35.5743 19.4175C37.274 19.4175 38.6567 20.8003 38.6567 22.5C38.6567 24.1996 37.274 25.5824 35.5743 25.5824ZM6.80783 18.8989C6.80783 18.5106 7.12266 18.1958 7.51096 18.1958H9.42908C9.81738 18.1958 10.1322 18.5106 10.1322 18.8989C10.1322 19.2872 9.81738 19.602 9.42908 19.602H7.51096C7.12266 19.602 6.80783 19.2873 6.80783 18.8989ZM2.46103 18.8989C2.46103 18.5106 2.77585 18.1958 3.16415 18.1958H5.08228C5.47058 18.1958 5.7854 18.5106 5.7854 18.8989C5.7854 19.2872 5.47058 19.602 5.08228 19.602H3.16415C2.77585 19.602 2.46103 19.2873 2.46103 18.8989ZM10.1322 26.1014C10.1322 26.4897 9.81738 26.8045 9.42908 26.8045H7.51096C7.12266 26.8045 6.80783 26.4897 6.80783 26.1014C6.80783 25.7131 7.12266 25.3982 7.51096 25.3982H9.42908C9.81738 25.3982 10.1322 25.713 10.1322 26.1014ZM5.7854 26.1014C5.7854 26.4897 5.47058 26.8045 5.08228 26.8045H3.16415C2.77585 26.8045 2.46103 26.4897 2.46103 26.1014C2.46103 25.7131 2.77585 25.3982 3.16415 25.3982H5.08228C5.47058 25.3982 5.7854 25.713 5.7854 26.1014ZM8.37439 23.7047C8.37439 24.093 8.05957 24.4078 7.67127 24.4078H5.75314C5.36484 24.4078 5.05002 24.093 5.05002 23.7047C5.05002 23.3164 5.36484 23.0016 5.75314 23.0016H7.67127C8.05957 23.0016 8.37439 23.3163 8.37439 23.7047ZM3.32438 24.4078H1.40625C1.01795 24.4078 0.703125 24.093 0.703125 23.7047C0.703125 23.3164 1.01795 23.0016 1.40625 23.0016H3.32438C3.71268 23.0016 4.0275 23.3164 4.0275 23.7047C4.0275 24.093 3.71268 24.4078 3.32438 24.4078ZM8.37439 21.2953C8.37439 21.6836 8.05957 21.9985 7.67127 21.9985H5.75314C5.36484 21.9985 5.05002 21.6836 5.05002 21.2953C5.05002 20.907 5.36484 20.5922 5.75314 20.5922H7.67127C8.05957 20.5922 8.37439 20.9069 8.37439 21.2953ZM0.703125 21.2953C0.703125 20.907 1.01795 20.5922 1.40625 20.5922H3.32438C3.71268 20.5922 4.0275 20.907 4.0275 21.2953C4.0275 21.6836 3.71268 21.9985 3.32438 21.9985H1.40625C1.01795 21.9985 0.703125 21.6836 0.703125 21.2953Z" fill="white"/>
<path d="M34.5316 36.4469C34.7022 36.3136 34.802 36.1092 34.802 35.8927C34.802 35.6762 34.7022 35.4718 34.5316 35.3386L32.5483 33.7897C32.2422 33.5505 31.8004 33.605 31.5614 33.9111C31.3223 34.2171 31.3767 34.659 31.6828 34.898L32.0561 35.1895H20.5065C20.1182 35.1895 19.8034 35.5043 19.8034 35.8926C19.8034 36.2809 20.1182 36.5958 20.5065 36.5958H32.0562L31.6828 36.8874C31.3766 37.1264 31.3223 37.5683 31.5614 37.8743C31.7001 38.0518 31.907 38.1447 32.1161 38.1447C32.2674 38.1447 32.4198 38.0961 32.5483 37.9958L34.5316 36.4469Z" fill="#FF7B02"/>
<path d="M16.7299 36.5958C17.1182 36.5958 17.433 36.281 17.433 35.8927C17.433 35.5044 17.1182 35.1896 16.7299 35.1896H13.9512C13.5629 35.1896 13.248 35.5044 13.248 35.8927C13.248 36.281 13.5629 36.5958 13.9512 36.5958H16.7299Z" fill="#FF7B02"/>
<path d="M20.5064 8.40835C20.1181 8.40835 19.8033 8.72317 19.8033 9.11147C19.8033 9.49978 20.1182 9.8146 20.5064 9.8146H32.056L31.6827 10.1061C31.3765 10.3451 31.3222 10.787 31.5613 11.0931C31.7 11.2706 31.9069 11.3635 32.116 11.3635C32.2673 11.3635 32.4197 11.3149 32.5482 11.2145L34.5316 9.66563C34.7022 9.53238 34.8019 9.32795 34.8019 9.11147C34.8019 8.895 34.7022 8.69057 34.5316 8.55732L32.5482 7.00843C32.2421 6.76928 31.8003 6.82377 31.5613 7.12981C31.3222 7.43584 31.3766 7.87775 31.6827 8.11673L32.0561 8.40835H20.5064Z" fill="#FF7B02"/>
<path d="M13.9512 8.40835C13.5629 8.40835 13.248 8.72317 13.248 9.11147C13.248 9.49978 13.5629 9.8146 13.9512 9.8146H16.7299C17.1182 9.8146 17.433 9.49978 17.433 9.11147C17.433 8.72317 17.1182 8.40835 16.7299 8.40835H13.9512Z" fill="#FF7B02"/>
</svg>
