<svg width="30" height="30" viewBox="0 0 30 30" fill="none" xmlns="http://www.w3.org/2000/svg">
<g clip-path="url(#clip0_30_12954)">
<path fill-rule="evenodd" clip-rule="evenodd" d="M13.0882 24.3516H2.02163C1.16581 24.3516 0.46875 23.6571 0.46875 22.8012V11.2868C0.46875 10.4345 1.16581 9.73636 2.02163 9.73636H2.8764V6.80224C2.8764 3.289 5.75134 0.414062 9.26451 0.414062C12.7778 0.414062 15.6502 3.28894 15.6502 6.80224C15.6502 7.06212 15.4395 7.27283 15.1796 7.27283H12.4713C12.2115 7.27283 12.0007 7.06212 12.0007 6.80224C12.0007 5.29936 10.7653 4.06347 9.26451 4.06347C7.76381 4.06347 6.52834 5.29936 6.52834 6.80224V9.73636H16.5075C17.3636 9.73636 18.0578 10.4342 18.0578 11.2868V12.9937C18.9684 12.6629 19.9509 12.4825 20.9752 12.4825C25.6963 12.4825 29.5292 16.3154 29.5292 21.0365C29.5292 25.7576 25.6963 29.5905 20.9752 29.5905C17.4293 29.5905 14.3845 27.4284 13.0882 24.3516ZM3.81757 9.73636H5.58716V6.80224C5.58716 4.78265 7.24781 3.1223 9.26451 3.1223C11.1222 3.1223 12.6778 4.531 12.9116 6.33165H14.6887C14.4484 3.55412 12.1016 1.35524 9.26451 1.35524C6.26893 1.35524 3.81757 3.80659 3.81757 6.80224V9.73636ZM17.1166 13.4014V11.2868C17.1166 10.9518 16.8439 10.6775 16.5075 10.6775H2.02163C1.68493 10.6775 1.40993 10.9515 1.40993 11.2868V22.8012C1.40993 23.1379 1.68493 23.4104 2.02163 23.4104H12.7554C12.5377 22.6566 12.4212 21.8601 12.4212 21.0365C12.4212 17.7032 14.3317 14.8128 17.1166 13.4014ZM20.9752 13.4237C16.7735 13.4237 13.3623 16.8348 13.3623 21.0365C13.3623 25.2381 16.7735 28.6494 20.9752 28.6494C25.1768 28.6494 28.588 25.2381 28.588 21.0365C28.588 16.8348 25.1768 13.4237 20.9752 13.4237ZM22.7825 20.8801C24.664 21.5582 26.0536 23.2652 26.2733 25.3218C26.2875 25.4545 26.2446 25.5871 26.1554 25.6864C26.0662 25.7857 25.9389 25.8424 25.8054 25.8424H16.1449C16.0114 25.8424 15.8841 25.7857 15.7949 25.6863C15.7056 25.5869 15.6628 25.4544 15.677 25.3215C15.8979 23.2649 17.2879 21.5581 19.1689 20.88C18.4878 20.3432 18.0493 19.5111 18.0493 18.5799C18.0493 16.9681 19.3633 15.6528 20.9752 15.6528C22.5885 15.6528 23.9023 16.9681 23.9023 18.5799C23.9023 19.5111 23.4639 20.3433 22.7825 20.8801ZM20.9752 21.5071C18.8942 21.5071 17.1514 22.9565 16.7007 24.9012H25.2499C24.8003 22.9565 23.0573 21.5071 20.9752 21.5071ZM20.9752 20.5659C22.0698 20.5659 22.9612 19.6735 22.9612 18.5799C22.9612 17.4864 22.0698 16.5939 20.9752 16.5939C19.8817 16.5939 18.9905 17.4864 18.9905 18.5799C18.9905 19.6734 19.8817 20.5659 20.9752 20.5659ZM9.26451 12.4647C10.6868 12.4647 11.8396 13.6199 11.8396 15.0422C11.8396 15.8732 11.4492 16.6109 10.84 17.0819V20.0479C10.84 20.916 10.129 21.6233 9.26451 21.6233C8.39646 21.6233 7.6891 20.916 7.6891 20.0479V17.0819C7.07951 16.6109 6.68699 15.8732 6.68699 15.0422C6.68699 13.6201 7.84246 12.4647 9.26451 12.4647ZM9.26451 13.4058C8.36169 13.4058 7.62816 14.1394 7.62816 15.0422C7.62816 15.6319 7.93963 16.1475 8.40669 16.4355C8.54569 16.5212 8.63028 16.6728 8.63028 16.8361V20.0479C8.63028 20.3974 8.91504 20.6821 9.26451 20.6821C9.61257 20.6821 9.89881 20.3974 9.89881 20.0479V16.8361C9.89881 16.6728 9.9834 16.5212 10.1224 16.4355C10.5893 16.1475 10.8985 15.6318 10.8985 15.0422C10.8985 14.1395 10.1672 13.4058 9.26451 13.4058Z" fill="white"/>
<path fill-rule="evenodd" clip-rule="evenodd" d="M13.0882 24.3516H2.02163C1.16581 24.3516 0.46875 23.6571 0.46875 22.8012V11.2868C0.46875 10.4345 1.16581 9.73636 2.02163 9.73636H2.8764V6.80224C2.8764 3.289 5.75134 0.414062 9.26451 0.414062C12.7778 0.414062 15.6502 3.28894 15.6502 6.80224C15.6502 7.06212 15.4395 7.27283 15.1796 7.27283H12.4713C12.2115 7.27283 12.0007 7.06212 12.0007 6.80224C12.0007 5.29936 10.7653 4.06347 9.26451 4.06347C7.76381 4.06347 6.52834 5.29936 6.52834 6.80224V9.73636H16.5075C17.3636 9.73636 18.0578 10.4342 18.0578 11.2868V12.9937C18.9684 12.6629 19.9509 12.4825 20.9752 12.4825C25.6963 12.4825 29.5292 16.3154 29.5292 21.0365C29.5292 25.7576 25.6963 29.5905 20.9752 29.5905C17.4293 29.5905 14.3845 27.4284 13.0882 24.3516ZM3.81757 9.73636H5.58716V6.80224C5.58716 4.78265 7.24781 3.1223 9.26451 3.1223C11.1222 3.1223 12.6777 4.531 12.9116 6.33165H14.6887C14.4484 3.55412 12.1016 1.35524 9.26451 1.35524C6.26893 1.35524 3.81757 3.80659 3.81757 6.80224V9.73636ZM17.1166 13.4014V11.2868C17.1166 10.9518 16.8439 10.6775 16.5075 10.6775H2.02163C1.68493 10.6775 1.40993 10.9515 1.40993 11.2868V22.8012C1.40993 23.1379 1.68493 23.4104 2.02163 23.4104H12.7554C12.5377 22.6566 12.4212 21.8601 12.4212 21.0365C12.4212 17.7032 14.3318 14.8128 17.1166 13.4014ZM20.9752 13.4237C16.7735 13.4237 13.3623 16.8348 13.3623 21.0365C13.3623 25.2381 16.7735 28.6494 20.9752 28.6494C25.1768 28.6494 28.588 25.2381 28.588 21.0365C28.588 16.8348 25.1768 13.4237 20.9752 13.4237Z" fill="#FF7B02"/>
</g>
<defs>
<clipPath id="clip0_30_12954">
<rect width="30" height="30" fill="white"/>
</clipPath>
</defs>
</svg>
