<svg width="40" height="40" viewBox="0 0 40 40" fill="none" xmlns="http://www.w3.org/2000/svg">
<g clip-path="url(#clip0_30_12961)">
<path d="M38.8987 20.1778C38.2111 19.2296 36.5486 17.8934 33.1409 19.5966L25.2571 23.5376C24.9471 22.4404 23.9377 21.6337 22.7427 21.6337H15.9936C13.2305 20.7291 9.28559 20.105 6.5984 24.7591L4.43613 28.5043C3.54207 28.2315 2.54324 28.5984 2.05613 29.442L1.05621 31.174C0.48957 32.1554 0.826992 33.4151 1.80855 33.9818L10.4034 38.944C10.7263 39.1304 11.0791 39.219 11.4276 39.219C12.1386 39.219 12.8309 38.8503 13.2112 38.1917L14.2111 36.4598C14.6981 35.6162 14.5168 34.5677 13.8332 33.9297L14.3364 33.0581C15.0372 31.8444 16.2429 31.1483 17.6444 31.1483C17.9627 31.1483 18.2711 31.1502 18.5711 31.1523C21.3366 31.17 23.5208 31.1842 26.3455 29.5534L38.3818 22.6043C38.7925 22.3672 39.0843 21.9672 39.1824 21.5067C39.2806 21.046 39.1771 20.5617 38.8987 20.1778ZM13.3992 35.9909L12.3993 37.7229C12.091 38.2567 11.4057 38.4402 10.8721 38.132L2.2773 33.1699C1.74348 32.8617 1.55988 32.1766 1.86816 31.6427L2.86809 29.9109C3.07488 29.5526 3.45145 29.3521 3.83816 29.3521C4.0277 29.3521 4.21965 29.4003 4.39527 29.5017L12.99 34.4639C13.2477 34.6126 13.4322 34.8538 13.5097 35.143C13.5871 35.4322 13.5479 35.7334 13.3992 35.9909ZM38.2655 21.3112C38.222 21.5154 38.0969 21.6863 37.9131 21.7923L25.8768 28.7414C23.2725 30.245 21.3028 30.232 18.5772 30.2146C18.2751 30.2127 17.9648 30.2106 17.6444 30.2106C15.8989 30.2106 14.3973 31.0777 13.5246 32.5892L13.0479 33.4147L5.27473 28.9269L7.41035 25.2278C9.75215 21.1718 13.1083 21.6646 15.7709 22.5473C15.8184 22.5631 15.8682 22.5712 15.9184 22.5712H22.7428C23.6666 22.5712 24.4182 23.3228 24.4182 24.2466C24.4182 25.1705 23.6666 25.9221 22.7428 25.9221H17.6031C17.3443 25.9221 17.1343 26.132 17.1343 26.3909C17.1343 26.6497 17.3443 26.8596 17.6031 26.8596H22.7428C24.0826 26.8596 25.1895 25.8458 25.3382 24.5452L33.5601 20.4351C35.6871 19.372 37.2279 19.4705 38.1398 20.7281C38.2643 20.9 38.309 21.107 38.2655 21.3112ZM29.0939 5.31586C28.9107 5.13273 28.9107 4.83594 29.0938 4.65297L30.316 3.4307C30.4991 3.24758 30.796 3.24766 30.9789 3.43062C31.162 3.61375 31.162 3.91055 30.9789 4.09352L29.7568 5.31578C29.6652 5.40734 29.5452 5.45312 29.4253 5.45312C29.3054 5.45312 29.1854 5.40734 29.0939 5.31586ZM24.1136 2.97844V1.25C24.1136 0.991172 24.3236 0.78125 24.5824 0.78125C24.8412 0.78125 25.0511 0.991172 25.0511 1.25V2.97844C25.0511 3.23727 24.8412 3.44719 24.5824 3.44719C24.3236 3.44719 24.1136 3.23727 24.1136 2.97844ZM31.4313 9.35859H33.1597C33.4186 9.35859 33.6285 9.56852 33.6285 9.82734C33.6285 10.0862 33.4186 10.2961 33.1597 10.2961H31.4313C31.1725 10.2961 30.9625 10.0862 30.9625 9.82734C30.9625 9.56852 31.1724 9.35859 31.4313 9.35859ZM15.5363 9.82734C15.5363 9.56852 15.7462 9.35859 16.005 9.35859H17.7335C17.9923 9.35859 18.2022 9.56852 18.2022 9.82734C18.2022 10.0862 17.9923 10.2961 17.7335 10.2961H16.005C15.7461 10.2961 15.5363 10.0862 15.5363 9.82734ZM18.1858 4.09359C18.0027 3.91055 18.0027 3.61375 18.1858 3.43078C18.3688 3.24766 18.6657 3.24766 18.8486 3.43078L20.0709 4.65305C20.254 4.83609 20.254 5.13289 20.0709 5.31586C19.9794 5.40742 19.8594 5.4532 19.7395 5.4532C19.6196 5.4532 19.4996 5.40742 19.4081 5.31586L18.1858 4.09359ZM20.814 12.6828C21.3022 13.2676 21.7635 13.8202 21.9007 15.4157V17.6087C21.9007 19.0873 23.1036 20.2902 24.5823 20.2902C26.061 20.2902 27.2639 19.0873 27.2639 17.6087V15.4157C27.4011 13.8201 27.8624 13.2675 28.3506 12.6827C28.8621 12.0702 29.3908 11.4369 29.3908 9.82727C29.3908 7.17586 27.2337 5.01867 24.5822 5.01867C21.9307 5.01867 19.7736 7.17578 19.7736 9.82727C19.7738 11.4369 20.3026 12.0703 20.814 12.6828ZM22.8383 15.8646H26.3264V17.14H22.8383V15.8646ZM24.5824 19.3528C23.7831 19.3528 23.1082 18.8122 22.9028 18.0775H26.2619C26.0566 18.8122 25.3817 19.3528 24.5824 19.3528ZM24.5824 5.95625C26.7169 5.95625 28.4535 7.69281 28.4535 9.82734C28.4535 11.097 28.0905 11.5316 27.6311 12.082C27.1377 12.673 26.5839 13.3373 26.3746 14.9271H25.0512V10.9505C25.0512 10.6916 24.8413 10.4817 24.5825 10.4817C24.3236 10.4817 24.1137 10.6916 24.1137 10.9505V14.9271H22.7904C22.581 13.3374 22.0272 12.673 21.5338 12.082C21.0743 11.5316 20.7114 11.097 20.7114 9.82734C20.7113 7.69273 22.4479 5.95625 24.5824 5.95625Z" fill="white"/>
<path d="M29.0939 5.31586C28.9107 5.13273 28.9107 4.83594 29.0938 4.65297L30.316 3.4307C30.4991 3.24758 30.796 3.24766 30.9789 3.43062C31.162 3.61375 31.162 3.91055 30.9789 4.09352L29.7568 5.31578C29.6652 5.40734 29.5452 5.45312 29.4253 5.45312C29.3054 5.45312 29.1854 5.40734 29.0939 5.31586ZM24.1136 2.97844V1.25C24.1136 0.991172 24.3236 0.78125 24.5824 0.78125C24.8412 0.78125 25.0511 0.991172 25.0511 1.25V2.97844C25.0511 3.23727 24.8412 3.44719 24.5824 3.44719C24.3236 3.44719 24.1136 3.23727 24.1136 2.97844ZM31.4313 9.35859H33.1597C33.4186 9.35859 33.6285 9.56852 33.6285 9.82734C33.6285 10.0862 33.4186 10.2961 33.1597 10.2961H31.4313C31.1725 10.2961 30.9625 10.0862 30.9625 9.82734C30.9625 9.56852 31.1724 9.35859 31.4313 9.35859ZM15.5363 9.82734C15.5363 9.56852 15.7462 9.35859 16.005 9.35859H17.7335C17.9923 9.35859 18.2022 9.56852 18.2022 9.82734C18.2022 10.0862 17.9923 10.2961 17.7335 10.2961H16.005C15.7461 10.2961 15.5363 10.0862 15.5363 9.82734ZM18.1858 4.09359C18.0027 3.91055 18.0027 3.61375 18.1858 3.43078C18.3688 3.24766 18.6657 3.24766 18.8486 3.43078L20.0709 4.65305C20.254 4.83609 20.254 5.13289 20.0709 5.31586C19.9794 5.40742 19.8594 5.4532 19.7395 5.4532C19.6196 5.4532 19.4996 5.40742 19.4081 5.31586L18.1858 4.09359ZM20.814 12.6828C21.3022 13.2676 21.7635 13.8202 21.9007 15.4157V17.6087C21.9007 19.0873 23.1036 20.2902 24.5823 20.2902C26.061 20.2902 27.2639 19.0873 27.2639 17.6087V15.4157C27.4011 13.8201 27.8624 13.2675 28.3506 12.6827C28.8621 12.0702 29.3908 11.4369 29.3908 9.82727C29.3908 7.17586 27.2337 5.01867 24.5822 5.01867C21.9307 5.01867 19.7736 7.17578 19.7736 9.82727C19.7738 11.4369 20.3026 12.0703 20.814 12.6828ZM22.8383 15.8646H26.3264V17.14H22.8383V15.8646ZM24.5824 19.3528C23.7831 19.3528 23.1082 18.8122 22.9028 18.0775H26.2619C26.0566 18.8122 25.3817 19.3528 24.5824 19.3528ZM24.5824 5.95625C26.7169 5.95625 28.4535 7.69281 28.4535 9.82734C28.4535 11.097 28.0905 11.5316 27.6311 12.082C27.1377 12.673 26.5839 13.3373 26.3746 14.9271H25.0512V10.9505C25.0512 10.6916 24.8413 10.4817 24.5825 10.4817C24.3236 10.4817 24.1137 10.6916 24.1137 10.9505V14.9271H22.7904C22.581 13.3374 22.0272 12.673 21.5338 12.082C21.0743 11.5316 20.7114 11.097 20.7114 9.82734C20.7113 7.69273 22.4479 5.95625 24.5824 5.95625Z" fill="#FF7B02"/>
</g>
<defs>
<clipPath id="clip0_30_12961">
<rect width="40" height="40" fill="white"/>
</clipPath>
</defs>
</svg>
