<svg width="42" height="39" viewBox="0 0 42 39" fill="none" xmlns="http://www.w3.org/2000/svg">
<path d="M35.913 -3.28256e-06C38.2464 -3.48655e-06 39.8696 0.406246 40.7826 1.21874C41.5942 2.1328 42 3.75781 42 6.09375L42 14.9297C42 18.2812 41.7464 21.3281 41.2391 24.0703C40.7319 26.9141 40.0217 29.5547 39.1087 31.9922C38.1957 34.4297 37.0797 36.7656 35.7609 39L28.4565 36.8672C29.0652 33.8203 29.5217 30.9258 29.8261 28.1836C30.029 25.543 30.1812 22.5469 30.2826 19.1953C26.9348 19.1953 25.2609 17.418 25.2609 13.8633L25.413 6.09375C25.5145 3.75781 26.0725 2.13281 27.087 1.21874C28 0.406247 29.5217 -2.72381e-06 31.6522 -2.91006e-06L35.913 -3.28256e-06ZM10.6522 -1.07418e-06C12.9855 -1.27817e-06 14.6087 0.406249 15.5217 1.21874C16.3333 2.13281 16.7391 3.75781 16.7391 6.09375L16.7391 14.9297C16.6377 18.2812 16.3841 21.3281 15.9783 24.0703C15.471 26.9141 14.7609 29.5547 13.8478 31.9922C12.8333 34.4297 11.6667 36.7656 10.3478 39L3.04348 36.8672C3.75363 33.8203 4.26087 30.9258 4.56522 28.1836C4.76811 25.543 4.86956 22.5469 4.86956 19.1953C1.62319 19.1953 1.92794e-06 17.418 1.61718e-06 13.8633L9.37941e-07 6.09375C0.101449 3.75781 0.659417 2.13281 1.67391 1.21875C2.58695 0.40625 4.15942 -5.06569e-07 6.3913 -7.01687e-07L10.6522 -1.07418e-06Z" fill="#E4E4E4"/>
</svg>
