<svg width="32" height="32" viewBox="0 0 32 32" fill="none" xmlns="http://www.w3.org/2000/svg">
<path d="M20.0003 17.2134C19.4876 17.0132 18.9066 17.2642 18.7034 17.7778C18.2679 18.8833 17.1819 19.6255 15.9993 19.6255C14.7982 19.6255 13.7357 18.8999 13.2943 17.7778C13.0911 17.2642 12.5091 17.0132 11.9974 17.2134C11.4837 17.4155 11.2308 17.9966 11.4329 18.5102C12.178 20.4028 13.971 21.6255 15.9993 21.6255C18.0277 21.6255 19.8196 20.4028 20.5648 18.5102C20.7669 17.9966 20.514 17.4155 20.0003 17.2134Z" fill="#FF7B02"/>
<path d="M24.7822 11.2237V11.1816C24.7822 6.33887 20.8428 2.39844 16 2.39844C11.1572 2.39844 7.2168 6.33887 7.2168 11.1816V11.2238C4.31531 11.3765 2 13.7779 2 16.7168C2 19.7539 4.4707 22.2246 7.50781 22.2246H8.2168C8.50024 22.2246 8.75311 22.1048 8.935 21.9156C10.5362 24.0851 13.1028 25.501 16 25.501C18.7296 25.501 21.1718 24.2493 22.7842 22.29V23.5928C22.7842 25.8037 20.9863 27.6016 18.7754 27.6016C18.2227 27.6016 17.7754 28.0488 17.7754 28.6016C17.7754 29.1543 18.2227 29.6016 18.7754 29.6016C22.0889 29.6016 24.7842 26.9062 24.7842 23.5928V22.2098C27.6852 22.0566 30 19.6553 30 16.7168C30 13.7776 27.6842 11.3759 24.7822 11.2237ZM16 4.39844C19.7245 4.39844 22.7562 7.41797 22.78 11.138C21.1676 9.18188 18.7271 7.93262 16 7.93262C13.2726 7.93262 10.8317 9.18207 9.21899 11.1385C9.24249 7.41821 12.2743 4.39844 16 4.39844ZM4 16.7168C4 14.8809 5.41797 13.3691 7.2168 13.2207V13.2393C7.21674 13.2427 7.21484 13.2456 7.21484 13.249V20.1846C7.21484 20.188 7.21674 20.1909 7.2168 20.1943V20.2129C5.41797 20.0645 4 18.5527 4 16.7168ZM16 23.501C12.2718 23.501 9.23785 20.4787 9.2168 16.7554V16.7158V16.6782C9.23785 12.9549 12.2718 9.93262 16 9.93262C19.7282 9.93262 22.7612 12.9549 22.7822 16.6782V16.7158C22.7822 16.7175 22.7832 16.7189 22.7832 16.7206V16.7361C22.7726 20.4683 19.7347 23.501 16 23.501ZM24.7842 20.2127V20.1846V13.249C24.7842 13.2473 24.7832 13.2459 24.7832 13.2442V13.2207C26.582 13.3691 28 14.8809 28 16.7168C28 18.5524 26.5826 20.0637 24.7842 20.2127Z" fill="white"/>
<path d="M16 29.6016C16.5527 29.6016 17 29.1543 17 28.6016C17 28.0488 16.5527 27.6016 16 27.6016H15.002C14.4492 27.6016 14.002 28.0488 14.002 28.6016C14.002 29.1543 14.4492 29.6016 15.002 29.6016H16Z" fill="#FF7B02"/>
</svg>
