<svg width="33" height="33" viewBox="0 0 33 33" fill="none" xmlns="http://www.w3.org/2000/svg">
<path d="M16.6103 29.5215C11.0118 29.5215 6.13135 25.948 4.36281 20.7931L5.80376 21.4219L6.57878 19.6456L2.56546 17.8945L0 21.7436L1.61265 22.8185L2.53426 21.4358C4.57141 27.3564 10.1788 31.4595 16.6104 31.4595C23.7963 31.4595 29.9536 26.3384 31.2512 19.2824L29.3451 18.9319C28.2166 25.0679 22.8609 29.5215 16.6103 29.5215Z" fill="white"/>
<path d="M16.6102 3.48102C22.1531 3.48102 27.0205 7.01655 28.819 12.1152L27.1084 11.4121L26.3716 13.2047L30.6502 14.9631L32.9998 11.2684L31.3645 10.2283L30.6211 11.3973C28.5324 5.57412 22.9561 1.54297 16.6102 1.54297C9.49759 1.54297 3.35144 6.60251 1.99609 13.5734L3.89849 13.9434C5.07721 7.88111 10.4233 3.48102 16.6102 3.48102Z" fill="white"/>
<path d="M9.82031 25.6402H23.3952V9.7305L21.0805 7.44922H9.82031V25.6402ZM11.7584 9.38727H20.2859L21.4572 10.5416V23.7022H11.7584V9.38727Z" fill="white"/>
<path d="M14.3926 11.4805H18.8268V13.4185H14.3926V11.4805Z" fill="#FF7B02"/>
<path d="M14.3926 15.5742H18.8268V17.5123H14.3926V15.5742Z" fill="#FF7B02"/>
<path d="M14.3926 19.668H18.8268V21.606H14.3926V19.668Z" fill="#FF7B02"/>
</svg>
