<svg width="27" height="27" viewBox="0 0 27 27" fill="none" xmlns="http://www.w3.org/2000/svg">
<path d="M25.0653 6.15344L20.8466 1.93469C20.6884 1.77649 20.4741 1.6875 20.25 1.6875H8.4375C7.97154 1.6875 7.59375 2.06529 7.59375 2.53125V9.33986C4.26942 9.7572 1.6875 12.5957 1.6875 16.0312C1.6875 19.4668 4.26942 22.3053 7.59375 22.7226V24.4688C7.59375 24.9347 7.97154 25.3125 8.4375 25.3125H24.4688C24.9351 25.3125 25.3125 24.9347 25.3125 24.4688V6.75C25.3125 6.52629 25.2235 6.31165 25.0653 6.15344ZM23.2756 6.75H20.25V3.72437L23.2756 6.75ZM3.375 16.0312C3.375 13.2396 5.64587 10.9688 8.4375 10.9688C11.2291 10.9688 13.5 13.2396 13.5 16.0312C13.5 18.8229 11.2291 21.0938 8.4375 21.0938C5.64587 21.0938 3.375 18.8229 3.375 16.0312ZM23.625 23.625H9.28125V22.7226C10.1481 22.6138 10.965 22.3439 11.6981 21.9375H21.0938C21.5601 21.9375 21.9375 21.5597 21.9375 21.0938C21.9375 20.6278 21.5601 20.25 21.0938 20.25H13.6983C14.1063 19.7422 14.4417 19.1749 14.6905 18.5625H21.0938C21.5601 18.5625 21.9375 18.1847 21.9375 17.7188C21.9375 17.2528 21.5601 16.875 21.0938 16.875H15.1289C15.1637 16.5979 15.1875 16.3176 15.1875 16.0312C15.1875 15.7449 15.1637 15.4646 15.1289 15.1875H21.0938C21.5601 15.1875 21.9375 14.8097 21.9375 14.3438C21.9375 13.8778 21.5601 13.5 21.0938 13.5H14.6905C14.4417 12.8876 14.1063 12.3203 13.6983 11.8125H21.0938C21.5601 11.8125 21.9375 11.4347 21.9375 10.9688C21.9375 10.5028 21.5601 10.125 21.0938 10.125H11.6981C10.965 9.71863 10.1481 9.44872 9.28125 9.33986V3.375H18.5625V7.59375C18.5625 8.05971 18.9399 8.4375 19.4062 8.4375H23.625V23.625Z" fill="white"/>
<path d="M11.4957 13.6849C11.1327 13.3944 10.6013 13.4521 10.31 13.8167L7.52371 17.2992L6.50281 16.2783C6.17322 15.9487 5.63928 15.9487 5.30969 16.2783C4.9801 16.6079 4.9801 17.1418 5.30969 17.4714L6.99719 19.1589C7.15581 19.3175 7.37045 19.4061 7.59375 19.4061C7.60941 19.4061 7.62465 19.4057 7.6403 19.4049C7.88008 19.3917 8.10255 19.2768 8.25252 19.0893L11.6275 14.8706C11.9188 14.5068 11.8599 13.9757 11.4957 13.6849Z" fill="#FF7B02"/>
</svg>
