<svg width="32" height="32" viewBox="0 0 32 32" fill="none" xmlns="http://www.w3.org/2000/svg">
<path d="M6.27441 9.4375H6.26465C5.71289 9.4375 5.26953 9.88525 5.26953 10.4375C5.26953 10.9897 5.72266 11.4375 6.27441 11.4375C6.82715 11.4375 7.27441 10.9897 7.27441 10.4375C7.27441 9.88525 6.82715 9.4375 6.27441 9.4375Z" fill="white"/>
<path d="M9.53027 9.4375H9.52051C8.96875 9.4375 8.52539 9.88525 8.52539 10.4375C8.52539 10.9897 8.97852 11.4375 9.53027 11.4375C10.083 11.4375 10.5303 10.9897 10.5303 10.4375C10.5303 9.88525 10.083 9.4375 9.53027 9.4375Z" fill="white"/>
<path d="M19.4199 9.44141H16.8301C16.2773 9.44141 15.8301 9.88916 15.8301 10.4414C15.8301 10.9937 16.2773 11.4414 16.8301 11.4414H19.4199C19.9727 11.4414 20.4199 10.9937 20.4199 10.4414C20.4199 9.88916 19.9727 9.44141 19.4199 9.44141Z" fill="white"/>
<path d="M6 22.4194H14.5801C15.1328 22.4194 15.5801 21.9717 15.5801 21.4194C15.5801 20.9221 15.2108 20.5278 14.7349 20.4507C14.6824 20.4422 14.635 20.4194 14.5801 20.4194H6C4.89746 20.4194 4 19.5225 4 18.4194V17.0996C4 15.9966 4.89746 15.0996 6 15.0996H15.5901H15.75C16.3027 15.0996 16.75 14.6519 16.75 14.0996C16.75 13.9457 16.709 13.8042 16.647 13.674C16.4863 13.3368 16.1487 13.0996 15.75 13.0996H6C4.89746 13.0996 4 12.2026 4 11.0996V9.76953C4 8.6665 4.89746 7.76953 6 7.76953H21.1602C22.2627 7.76953 23.1602 8.6665 23.1602 9.76953V10.1094C23.1602 10.2632 23.2011 10.4048 23.2632 10.535C23.4238 10.8721 23.7614 11.1094 24.1602 11.1094C24.7129 11.1094 25.1602 10.6616 25.1602 10.1094V9.76953C25.1602 7.56396 23.3662 5.76953 21.1602 5.76953H6C3.79395 5.76953 2 7.56396 2 9.76953V11.0996C2 12.2999 2.5423 13.3658 3.3822 14.0996C2.5423 14.8334 2 15.8993 2 17.0996V18.4194C2 20.625 3.79395 22.4194 6 22.4194Z" fill="white"/>
<path d="M5.26953 17.7617C5.26953 18.314 5.72266 18.7617 6.27441 18.7617C6.82715 18.7617 7.27441 18.314 7.27441 17.7617C7.27441 17.2095 6.82715 16.7617 6.27441 16.7617H6.26465C5.71289 16.7617 5.26953 17.2095 5.26953 17.7617Z" fill="white"/>
<path d="M9.53027 18.7617C10.083 18.7617 10.5303 18.314 10.5303 17.7617C10.5303 17.2095 10.083 16.7617 9.53027 16.7617H9.52051C8.96875 16.7617 8.52539 17.2095 8.52539 17.7617C8.52539 18.314 8.97852 18.7617 9.53027 18.7617Z" fill="white"/>
<path d="M23.4824 12.0853C22.6836 11.2885 21.3848 11.2885 20.5879 12.0863L15.7012 16.973C15.335 17.3392 15.1328 17.8275 15.1328 18.3475C15.1328 18.8676 15.335 19.3558 15.7012 19.722L21.6387 25.6595C22.0049 26.0262 22.4932 26.2279 23.0127 26.2279H23.0146C23.5342 26.2274 24.0225 26.0253 24.3867 25.6595L29.2754 20.7723C30.0723 19.9745 30.0723 18.6757 29.2744 17.8768L28.0864 16.6895L29.291 15.4852C29.748 15.0287 29.999 14.4222 29.999 13.7772C29.999 13.1327 29.748 12.5262 29.291 12.0697C28.3496 11.1273 26.8164 11.1283 25.875 12.0697L24.6709 13.2741L23.4824 12.0853ZM27.2891 13.4838C27.4512 13.3217 27.7148 13.3217 27.877 13.4838C28.0391 13.6459 28.0391 13.9091 27.877 14.0712L25.9648 15.9828C25.7695 16.1779 25.6719 16.4338 25.6719 16.6898C25.6719 16.9459 25.7695 17.202 25.9648 17.3973L27.8604 19.3588L27.4633 19.7625L21.6323 13.9315L22.0693 13.5004L23.9639 15.3954C24.3545 15.786 24.9873 15.786 25.3779 15.3954L27.2891 13.4838ZM23.1689 22.4774C23.5596 22.0868 23.5596 21.454 23.1689 21.0634C22.7783 20.6727 22.1455 20.6727 21.7549 21.0634L20.7976 22.0206L17.1152 18.3876L20.2086 15.3359L26.0607 21.188L23.0527 24.2455L22.2213 23.4251L23.1689 22.4774Z" fill="#FF7B02"/>
</svg>
