<svg width="29" height="29" viewBox="0 0 29 29" fill="none" xmlns="http://www.w3.org/2000/svg">
<path d="M11.8642 6.59162C12.2282 6.59162 12.5233 6.29653 12.5233 5.93253C12.5233 5.56852 12.2282 5.27344 11.8642 5.27344C11.5002 5.27344 11.2051 5.56852 11.2051 5.93253C11.2051 6.29653 11.5002 6.59162 11.8642 6.59162Z" fill="white"/>
<path d="M14.5009 6.59162H17.7963C17.9711 6.59162 18.1388 6.52218 18.2624 6.39858C18.386 6.27497 18.4554 6.10733 18.4554 5.93253C18.4554 5.75773 18.386 5.59008 18.2624 5.46648C18.1388 5.34288 17.9711 5.27344 17.7963 5.27344H14.5009C14.3261 5.27344 14.1584 5.34288 14.0348 5.46648C13.9112 5.59008 13.8418 5.75773 13.8418 5.93253C13.8418 6.10733 13.9112 6.27497 14.0348 6.39858C14.1584 6.52218 14.3261 6.59162 14.5009 6.59162Z" fill="white"/>
<path d="M25.1257 24.8516L23.2744 23.0016C24.1263 21.9111 24.5134 20.5285 24.3515 19.1542C24.1896 17.7799 23.4917 16.5251 22.4096 15.6626V3.29475C22.4096 2.94515 22.2708 2.60986 22.0235 2.36265C21.7763 2.11545 21.441 1.97657 21.0914 1.97657H8.84158C8.66842 1.9761 8.49688 2.00999 8.3369 2.07629C8.17693 2.14259 8.0317 2.23997 7.90963 2.36279L4.34131 5.93111C4.21849 6.05318 4.12111 6.19841 4.05481 6.35839C3.98851 6.51836 3.95461 6.6899 3.95508 6.86307V23.0675C3.95508 23.4171 4.09396 23.7524 4.34117 23.9996C4.58838 24.2468 4.92366 24.3857 5.27326 24.3857H16.5674C17.4682 24.8856 18.4962 25.1093 19.5232 25.0286C20.5502 24.948 21.5308 24.5666 22.3424 23.9322L24.1938 25.7836C24.3181 25.9036 24.4846 25.9701 24.6574 25.9686C24.8302 25.9671 24.9955 25.8978 25.1177 25.7756C25.2399 25.6534 25.3092 25.4881 25.3107 25.3152C25.3122 25.1424 25.2458 24.9759 25.1257 24.8516ZM7.90963 4.2267V5.93111H6.20522L7.90963 4.2267ZM5.27326 7.24929H7.90963C8.25923 7.24929 8.59452 7.11041 8.84172 6.86321C9.08893 6.616 9.22781 6.28072 9.22781 5.93111V3.29475H21.0914V14.8875C20.4637 14.6313 19.7922 14.4995 19.1142 14.4993C18.8937 14.5007 18.6736 14.5159 18.4551 14.5448V9.88566C18.4551 9.71086 18.3856 9.54321 18.262 9.41961C18.1384 9.29601 17.9708 9.22657 17.796 9.22657H14.5005C14.3257 9.22657 14.1581 9.29601 14.0345 9.41961C13.9109 9.54321 13.8414 9.71086 13.8414 9.88566V18.4538H12.5233V12.522C12.5233 12.3472 12.4538 12.1796 12.3302 12.056C12.2066 11.9324 12.039 11.8629 11.8642 11.8629H8.56872C8.39392 11.8629 8.22627 11.9324 8.10267 12.056C7.97907 12.1796 7.90963 12.3472 7.90963 12.522V18.4538C7.73483 18.4538 7.56718 18.5233 7.44358 18.6469C7.31998 18.7705 7.25054 18.9381 7.25054 19.1129C7.25054 19.2877 7.31998 19.4554 7.44358 19.579C7.56718 19.7026 7.73483 19.772 7.90963 19.772H13.8414C13.841 20.9712 14.2516 22.1343 15.0047 23.0675H5.27326V7.24929ZM17.1369 14.8875C16.3775 15.1973 15.7006 15.6795 15.1596 16.296V10.5447H17.1369V14.8875ZM9.22781 18.4538V13.1811H11.2051V18.4538H9.22781ZM15.1596 19.772C15.1596 18.9899 15.3916 18.2253 15.8261 17.575C16.2606 16.9247 16.8782 16.4178 17.6008 16.1185C18.3234 15.8192 19.1186 15.7409 19.8857 15.8935C20.6528 16.046 21.3574 16.4227 21.9105 16.9757C22.4635 17.5288 22.8401 18.2334 22.9927 19.0005C23.1453 19.7676 23.067 20.5628 22.7677 21.2854C22.4684 22.008 21.9615 22.6256 21.3112 23.0601C20.6609 23.4946 19.8963 23.7266 19.1142 23.7266C18.0657 23.7255 17.0604 23.3085 16.319 22.5672C15.5776 21.8258 15.1607 20.8205 15.1596 19.772Z" fill="white"/>
<path d="M20.6259 17.9897L18.4555 20.1601L17.6033 19.3079C17.479 19.1878 17.3125 19.1214 17.1397 19.1229C16.9669 19.1244 16.8016 19.1937 16.6794 19.3159C16.5572 19.4381 16.4879 19.6034 16.4864 19.7762C16.4849 19.949 16.5513 20.1155 16.6713 20.2398L17.9895 21.558C18.1131 21.6816 18.2807 21.751 18.4555 21.751C18.6303 21.751 18.7979 21.6816 18.9215 21.558L21.5578 18.9217C21.6779 18.7974 21.7443 18.6309 21.7428 18.4581C21.7413 18.2852 21.672 18.1199 21.5498 17.9977C21.4276 17.8755 21.2623 17.8062 21.0895 17.8047C20.9167 17.8032 20.7502 17.8696 20.6259 17.9897Z" fill="#FF7B02"/>
</svg>
