<svg width="24" height="24" viewBox="0 0 24 24" fill="none" xmlns="http://www.w3.org/2000/svg">
<g clip-path="url(#clip0_30_16707)">
<path d="M23.2969 18.8281H21.7406V8.98748C21.7406 7.76925 20.7495 6.77813 19.5313 6.77813H18.7281V5.22188C18.7281 5.03541 18.654 4.85658 18.5221 4.72472L14.0034 0.205969C13.8716 0.0741094 13.6927 0 13.5063 0H5.97502C5.5867 0 5.27189 0.314812 5.27189 0.703125V6.77813H4.46873C3.2505 6.77813 2.25938 7.76925 2.25938 8.98748V18.8281H0.703125C0.314812 18.8281 0 19.1429 0 19.5312V21.7906C0 23.0236 1.00083 24 2.20936 24H21.7906C23.0055 24 24 23.0178 24 21.7906V19.5313C24 19.1429 23.6852 18.8281 23.2969 18.8281ZM14.2094 2.40061L16.3275 4.51875H14.2094V2.40061H14.2094ZM6.67814 1.40625H12.8032V5.22188C12.8032 5.61019 13.118 5.925 13.5063 5.925H17.3219V15.8156H6.67814V1.40625ZM3.66562 8.98748C3.66562 8.54466 4.02591 8.18438 4.46873 8.18438H5.27184V16.5187C5.27184 16.9071 5.58666 17.2219 5.97497 17.2219H18.0249C18.4132 17.2219 18.7281 16.9071 18.7281 16.5187V8.18438H19.5312C19.974 8.18438 20.3343 8.54466 20.3343 8.98748V18.8281H14.2594C14.0729 18.8281 13.894 18.9022 13.7622 19.0341L13.215 19.5812H10.785L10.2378 19.0341C10.1059 18.9022 9.92709 18.8281 9.74063 18.8281H3.66562V8.98748ZM22.5938 21.7906C22.5938 22.2282 22.24 22.5938 21.7906 22.5938H2.20936C1.77169 22.5938 1.40625 22.2399 1.40625 21.7906V20.2344H9.44934L9.99656 20.7816C10.1284 20.9134 10.3073 20.9875 10.4937 20.9875H13.5062C13.6927 20.9875 13.8716 20.9134 14.0034 20.7816L14.5506 20.2344H22.5938V21.7906Z" fill="white"/>
<path d="M8.98771 4.41797H10.4939C11.4252 4.3837 11.4257 3.04617 10.4939 3.01172H8.98771C8.05644 3.04598 8.05592 4.38347 8.98771 4.41797Z" fill="#FF7B02"/>
<path d="M8.98771 7.42969H10.4939C11.4252 7.39542 11.4257 6.05789 10.4939 6.02344H8.98771C8.05644 6.05775 8.05592 7.39523 8.98771 7.42969Z" fill="#FF7B02"/>
<path d="M15.0133 9.03906H8.98828C8.59997 9.03906 8.28516 9.35387 8.28516 9.74219C8.28516 10.1305 8.59997 10.4453 8.98828 10.4453H15.0133C15.9433 10.4116 15.9463 9.07394 15.0133 9.03906Z" fill="#FF7B02"/>
<path d="M15.0133 12.0508H8.98828C8.59997 12.0508 8.28516 12.3656 8.28516 12.7539C8.28516 13.1422 8.59997 13.457 8.98828 13.457H15.0133C15.9433 13.4233 15.9463 12.0857 15.0133 12.0508Z" fill="#FF7B02"/>
</g>
<defs>
<clipPath id="clip0_30_16707">
<rect width="24" height="24" fill="white"/>
</clipPath>
</defs>
</svg>
