<svg width="25" height="23" viewBox="0 0 25 23" fill="none" xmlns="http://www.w3.org/2000/svg">
<path d="M18.1375 12.1738C18.9617 14.9034 22.9369 14.383 23 11.5C22.9366 8.61642 18.9612 8.09708 18.1375 10.8262H13.6173V8.20426H14.7479C14.9599 8.20426 15.1596 8.1044 15.2869 7.93473L17.25 5.31722H18.1375C18.9617 8.04677 22.9369 7.52644 23 4.64335C22.9366 1.75981 18.9612 1.24052 18.1375 3.96957H16.9131C16.701 3.96957 16.5013 4.06943 16.374 4.2391L14.4109 6.85661H13.6173V0.673828C13.6173 0.301695 13.3156 0 12.9435 0H10.0565C9.71665 0 9.43 0.253045 9.38786 0.590273L9.15378 2.46307C8.31589 2.67986 7.51741 3.01111 6.77031 3.45198L5.27913 2.29218C5.0109 2.08366 4.62929 2.10733 4.389 2.34762L2.34757 4.38896C2.10729 4.62924 2.08352 5.01086 2.29214 5.27908L3.45198 6.77031C3.01116 7.51754 2.6799 8.31585 2.46307 9.15373L0.590228 9.38786C0.253045 9.43 0 9.71669 0 10.0565V12.9435C0 13.2833 0.253045 13.57 0.590273 13.6121L2.46307 13.8462C2.67986 14.6842 3.01116 15.4826 3.45198 16.2297L2.29218 17.7209C2.08352 17.9892 2.10733 18.3708 2.34762 18.611L4.389 20.6524C4.62929 20.8927 5.01095 20.9165 5.27913 20.7078L6.77036 19.548C7.51759 19.9888 8.31594 20.3201 9.15382 20.5369L9.38791 22.4097C9.43005 22.747 9.71669 23 10.0565 23H12.9435C13.3157 23 13.6173 22.6983 13.6173 22.3262V16.1434H14.4109L16.374 18.7609C16.5013 18.9306 16.701 19.0304 16.9131 19.0304H18.1375C18.9617 21.7599 22.9369 21.2396 23 18.3566C22.9366 15.473 18.9612 14.9537 18.1375 17.6828H17.25L15.2869 15.0653C15.1596 14.8956 14.9599 14.7957 14.7479 14.7957H13.6173V12.1738H18.1375ZM20.5218 10.3695C21.1452 10.3695 21.6523 10.8766 21.6523 11.5C21.5955 12.9978 19.4479 12.9973 19.3912 11.5C19.3913 10.8766 19.8985 10.3695 20.5218 10.3695ZM20.5218 3.51289C21.1452 3.51289 21.6523 4.02001 21.6523 4.64339C21.5955 6.14118 19.4479 6.14073 19.3912 4.64339C19.3913 4.02001 19.8985 3.51289 20.5218 3.51289ZM12.2696 16.177C9.4251 16.6678 6.73406 14.3905 6.76079 11.5C6.73397 8.60991 9.42528 6.33174 12.2697 6.823V16.177H12.2696ZM12.2696 5.46214C8.67414 4.97932 5.38667 7.8695 5.41313 11.5C5.38654 15.1301 8.67432 18.0212 12.2697 17.5378V21.6523H10.6514L10.4327 19.903C10.3969 19.6161 10.1819 19.3841 9.89867 19.3264C8.89723 19.1222 7.95566 18.7316 7.10013 18.1653C6.85894 18.0056 6.54278 18.0178 6.31453 18.1952L4.92128 19.2789L3.72115 18.0787L4.80475 16.6855C4.98233 16.4571 4.99437 16.141 4.83472 15.8998C4.26839 15.0445 3.87775 14.103 3.67367 13.1014C3.61594 12.8181 3.38388 12.6031 3.097 12.5673L1.34766 12.3487V10.6514L3.09696 10.4327C3.38383 10.3969 3.6159 10.182 3.67362 9.89867C3.87775 8.89723 4.26843 7.95562 4.83472 7.10013C4.99432 6.85899 4.98229 6.54283 4.80471 6.31453L3.7211 4.92128L4.92124 3.72115L6.31449 4.80475C6.54283 4.98233 6.85899 4.99437 7.10017 4.83467C7.95553 4.26839 8.89705 3.87775 9.89858 3.67367C10.1819 3.61594 10.3968 3.38388 10.4327 3.09696L10.6513 1.34766H12.2696V5.46214ZM20.5218 17.2261C21.1452 17.2261 21.6523 17.7332 21.6523 18.3566C21.5955 19.8543 19.4478 19.8539 19.3912 18.3566C19.3913 17.7332 19.8985 17.2261 20.5218 17.2261Z" fill="white"/>
<path d="M13 11.5L18.5 11.634M18.5 11.634C18.5 12.634 19.3 13.5 20.5 13.5C22 13.5 22.5 12 22.5 11.5C22.5 11 21.7372 9.5 20.5 9.5C19.5 9.5 18.5 10.134 18.5 11.634Z" stroke="#FF7B02" stroke-width="2"/>
</svg>
