<svg width="29" height="29" viewBox="0 0 29 29" fill="none" xmlns="http://www.w3.org/2000/svg">
<path d="M25.8281 11.3281C25.2025 11.3281 24.6953 11.8353 24.6953 12.4609V21.0703C24.6953 21.6949 24.1871 22.2031 23.5625 22.2031H9.96875C9.34412 22.2031 8.83594 21.6949 8.83594 21.0703V3.39844C8.83594 2.7738 9.34412 2.26562 9.96875 2.26562H17.8984V5.66406C17.8984 7.53796 19.423 9.0625 21.2969 9.0625H25.8281C26.2863 9.0625 26.6994 8.78649 26.8747 8.36322C27.0501 7.93988 26.9532 7.45266 26.6292 7.12868L19.8323 0.331801C19.6146 0.114131 19.3183 0 19.0312 0H9.96875C8.09485 0 6.57031 1.52454 6.57031 3.39844V4.53125H5.4375C3.5636 4.53125 2.03906 6.05579 2.03906 7.92969V25.6016C2.03906 27.4755 3.5636 29 5.4375 29H19.0312C20.9051 29 22.4297 27.4755 22.4297 25.6016V24.4688H23.5625C25.4364 24.4688 26.9609 22.9442 26.9609 21.0703V12.4609C26.9609 11.8353 26.4538 11.3281 25.8281 11.3281ZM21.2969 6.79688C20.6722 6.79688 20.1641 6.2887 20.1641 5.66406V3.86765L23.0932 6.79688H21.2969ZM20.1641 25.6016C20.1641 26.2262 19.6559 26.7344 19.0312 26.7344H5.4375C4.81287 26.7344 4.30469 26.2262 4.30469 25.6016V7.92969C4.30469 7.30505 4.81287 6.79688 5.4375 6.79688H6.57031V21.0703C6.57031 22.9442 8.09485 24.4688 9.96875 24.4688H20.1641V25.6016Z" fill="white"/>
<path d="M21.2969 13.5938H12.2344C11.6087 13.5938 11.1016 13.0866 11.1016 12.4609C11.1016 11.8353 11.6087 11.3281 12.2344 11.3281H21.2969C21.9225 11.3281 22.4297 11.8353 22.4297 12.4609C22.4297 13.0866 21.9225 13.5938 21.2969 13.5938Z" fill="#FF7B02"/>
<path d="M21.2969 18.125H12.2344C11.6087 18.125 11.1016 17.6178 11.1016 16.9922C11.1016 16.3665 11.6087 15.8594 12.2344 15.8594H21.2969C21.9225 15.8594 22.4297 16.3665 22.4297 16.9922C22.4297 17.6178 21.9225 18.125 21.2969 18.125Z" fill="#FF7B02"/>
</svg>
