<svg width="27" height="27" viewBox="0 0 27 27" fill="none" xmlns="http://www.w3.org/2000/svg">
<path d="M15.6897 5.16491C15.9293 5.16491 16.1236 4.9706 16.1236 4.73089C16.1236 4.49119 15.9293 4.29688 15.6897 4.29688C15.4501 4.29688 15.2559 4.49119 15.2559 4.73089C15.2559 4.9706 15.4501 5.16491 15.6897 5.16491Z" fill="white"/>
<path d="M11.2971 5.16491C11.5367 5.16491 11.731 4.9706 11.731 4.73089C11.731 4.49119 11.5367 4.29688 11.2971 4.29688C11.0575 4.29688 10.8633 4.49119 10.8633 4.73089C10.8633 4.9706 11.0575 5.16491 11.2971 5.16491Z" fill="white"/>
<path d="M13.7627 4.25724C13.2864 4.06034 14.2187 4.44318 13.7627 4.25724V4.25724Z" fill="white"/>
<path d="M17.2212 4.56756C16.8415 4.56756 16.4934 4.31573 16.3876 3.9319C16.0304 2.63596 14.8404 1.73088 13.4935 1.73088C12.216 1.73088 11.0762 2.54077 10.6573 3.74613C10.5004 4.19763 10.0074 4.43642 9.55599 4.27944C9.10466 4.12252 8.86593 3.62931 9.0228 3.17787C9.68331 1.27708 11.48 0 13.4935 0C15.6163 0 17.4923 1.42771 18.0557 3.47192C18.1827 3.93271 17.9122 4.40919 17.4516 4.53623C17.3746 4.5574 17.2973 4.56756 17.2212 4.56756Z" fill="#FF7B02"/>
<path d="M13.871 19.1215H13.1191C12.6413 19.1215 12.2539 18.734 12.2539 18.2561C12.2539 17.7781 12.6413 17.3906 13.1191 17.3906H13.871C14.3488 17.3906 14.7362 17.7781 14.7362 18.2561C14.7362 18.734 14.3489 19.1215 13.871 19.1215Z" fill="white"/>
<path d="M11.5624 14.3324H10.8105C10.3327 14.3324 9.94531 13.945 9.94531 13.467C9.94531 12.989 10.3327 12.6016 10.8105 12.6016H11.5624C12.0402 12.6016 12.4276 12.989 12.4276 13.467C12.4276 13.945 12.0402 14.3324 11.5624 14.3324Z" fill="white"/>
<path d="M16.1776 14.3324H15.4258C14.948 14.3324 14.5605 13.945 14.5605 13.467C14.5605 12.989 14.9479 12.6016 15.4258 12.6016H16.1776C16.6554 12.6016 17.0428 12.989 17.0428 13.467C17.0428 13.945 16.6555 14.3324 16.1776 14.3324Z" fill="white"/>
<path d="M18.4842 9.60198H17.7324C17.2546 9.60198 16.8672 9.21452 16.8672 8.73654C16.8672 8.25855 17.2545 7.87109 17.7324 7.87109H18.4842C18.9621 7.87109 19.3495 8.25855 19.3495 8.73654C19.3495 9.21452 18.9621 9.60198 18.4842 9.60198Z" fill="white"/>
<path d="M13.871 9.60198H13.1191C12.6413 9.60198 12.2539 9.21452 12.2539 8.73654C12.2539 8.25855 12.6413 7.87109 13.1191 7.87109H13.871C14.3488 7.87109 14.7362 8.25855 14.7362 8.73654C14.7362 9.21452 14.3489 9.60198 13.871 9.60198Z" fill="white"/>
<path d="M9.25579 9.60198H8.50388C8.02608 9.60198 7.63867 9.21452 7.63867 8.73654C7.63867 8.25855 8.02602 7.87109 8.50388 7.87109H9.25579C9.7336 7.87109 10.121 8.25855 10.121 8.73654C10.1209 9.21452 9.7336 9.60198 9.25579 9.60198Z" fill="white"/>
<path d="M24.2804 5.41408H14.7429C14.7199 4.73452 14.2101 4.43758 13.7645 4.25585C13.6236 4.19764 13.3545 4.11704 13.2751 3.96658C13.209 3.84145 13.2887 3.7181 13.4143 3.67581C13.7544 3.56135 14.0955 3.78624 14.3764 3.94685L14.6846 3.1335L14.5068 3.0292C14.3332 2.92731 14.1435 2.86125 13.9316 2.82941V2.28906H13.1109V2.88145C12.6197 3.03733 12.3026 3.44072 12.3026 3.9356C12.3026 4.59312 12.8275 4.88758 13.3384 5.08783C13.4899 5.14922 13.7162 5.23564 13.7769 5.40635C13.7778 5.40895 13.7783 5.41149 13.7791 5.41408H2.70832C2.04919 5.41408 1.62584 6.15566 1.966 6.72399L10.5538 21.0741C10.71 21.3353 10.9919 21.4951 11.2961 21.4951H14.8258V23.6627L12.1617 24.8173V23.8975C12.1617 23.4196 11.7743 23.0321 11.2965 23.0321C10.8187 23.0321 10.4312 23.4196 10.4312 23.8975V26.1354C10.4312 26.747 11.0772 27.1736 11.6404 26.9295L16.0349 25.025C16.3513 24.8879 16.5562 24.5759 16.5562 24.2309V20.8715L25.0227 6.72393C25.398 6.02141 24.9077 5.3651 24.2804 5.41408ZM15.2022 19.7642H11.7866L9.93509 16.6704H17.0537L15.2022 19.7642ZM18.0895 14.9395H8.89923L7.08573 11.9091H17.9715C18.4493 11.9091 18.8367 11.5217 18.8367 11.0437C18.8367 10.5657 18.4493 10.1783 17.9715 10.1783H6.04992L4.23463 7.14491H22.7542L18.0895 14.9395Z" fill="white"/>
</svg>
