<svg width="24" height="24" viewBox="0 0 24 24" fill="none" xmlns="http://www.w3.org/2000/svg">
<path d="M20.544 9.21094H3.45703" stroke="white" stroke-miterlimit="10"/>
<path d="M9.8333 17.8477V14.5798L3.45703 9.20822V6.40003H20.544V9.20822L14.1678 14.5798V17.8477H9.8333Z" stroke="white" stroke-miterlimit="10"/>
<mask id="mask0_30_16870" style="mask-type:luminance" maskUnits="userSpaceOnUse" x="0" y="0" width="24" height="24">
<path d="M23.5 23.5V0.5H0.5V23.5H23.5Z" fill="white" stroke="white"/>
</mask>
<g mask="url(#mask0_30_16870)">
<path d="M13.4637 21.8326C13.4637 22.6413 12.8081 23.2969 11.9994 23.2969C11.1907 23.2969 10.5352 22.6413 10.5352 21.8326C10.5352 21.024 11.1907 20.3684 11.9994 20.3684C12.8081 20.3684 13.4637 21.024 13.4637 21.8326Z" stroke="white" stroke-miterlimit="10"/>
<path d="M13.1212 6.40234C13.3348 6.14786 13.4637 5.81983 13.4637 5.46156C13.4637 4.65288 12.8081 3.99728 11.9994 3.99728C11.1907 3.99728 10.5352 4.65288 10.5352 5.46156C10.5352 5.81983 10.664 6.14786 10.8777 6.40234" stroke="white" stroke-miterlimit="10"/>
<path d="M8.28984 2.16858C8.28984 2.97727 7.6343 3.63281 6.82561 3.63281C6.01692 3.63281 5.36133 2.97727 5.36133 2.16858C5.36133 1.35989 6.01692 0.704344 6.82561 0.704344C7.6343 0.704344 8.28984 1.35989 8.28984 2.16858Z" stroke="#FF7B02" stroke-miterlimit="10"/>
<path d="M18.6395 2.16858C18.6395 2.97727 17.9839 3.63281 17.1752 3.63281C16.3665 3.63281 15.7109 2.97727 15.7109 2.16858C15.7109 1.35989 16.3665 0.704344 17.1752 0.704344C17.9839 0.704344 18.6395 1.35989 18.6395 2.16858Z" stroke="#FF7B02" stroke-miterlimit="10"/>
</g>
</svg>
