<svg width="27" height="27" viewBox="0 0 27 27" fill="none" xmlns="http://www.w3.org/2000/svg">
<path d="M22.4856 17.6849L19.8809 20.2896L18.8582 19.2669C18.5493 18.958 18.0484 18.958 17.7395 19.2669C17.4306 19.5758 17.4306 20.0766 17.7395 20.3855L19.3215 21.9676C19.476 22.122 19.6784 22.1992 19.8809 22.1992C20.0833 22.1992 20.2858 22.122 20.4402 21.9675L23.6042 18.8035C23.9132 18.4945 23.9132 17.9937 23.6042 17.6848C23.2954 17.3759 22.7945 17.3759 22.4856 17.6849Z" fill="#FF7B02"/>
<path d="M22.2903 12.9171C23.3401 11.402 23.8359 9.93199 23.8359 8.36842C23.8359 4.64178 21.1652 1.63281 17.5078 1.63281C15.0288 1.63281 13.1367 3.08179 11.9267 5.21131C10.7298 3.06666 8.84651 1.63281 6.38086 1.63281C2.68355 1.63281 0 4.68513 0 8.36842C0 12.7119 4.00876 15.8255 8.43639 19.5128C9.38271 20.3008 10.3612 21.1157 11.4032 22.0088C11.5513 22.1358 11.7346 22.1992 11.918 22.1992C12.1013 22.1992 12.2846 22.1357 12.4328 22.0088C13.1161 21.423 13.7963 20.867 14.454 20.3292C14.4606 20.3238 14.4669 20.3186 14.4735 20.3132C15.0663 23.192 17.6202 25.3633 20.6719 25.3633C24.1612 25.3633 27 22.5245 27 19.0352C27 16.1051 24.9981 13.634 22.2903 12.9171ZM14.3819 18.3414C13.5866 18.9999 12.7763 19.6497 11.9196 20.3696C11.0597 19.6386 10.243 18.9584 9.44879 18.2971C4.71161 14.3521 1.58203 11.7458 1.58203 8.36842C1.58203 5.43043 3.64511 3.21484 6.38086 3.21484C8.83702 3.21484 10.5732 5.35955 11.1563 7.38318C11.2515 7.72332 11.5607 7.95909 11.9139 7.96094H11.918C12.2695 7.96094 12.5792 7.72885 12.6775 7.39104C12.6896 7.34927 13.9345 3.21484 17.5078 3.21484C20.2136 3.21484 22.2539 5.43043 22.2539 8.36842C22.2539 9.84044 21.7005 11.1913 20.4678 12.7107C17.3053 12.8114 14.7213 15.2437 14.3819 18.3414ZM20.6719 23.7812C18.0549 23.7812 15.9258 21.6522 15.9258 19.0352C15.9258 16.4182 18.0549 14.2891 20.6719 14.2891C23.2889 14.2891 25.418 16.4182 25.418 19.0352C25.418 21.6522 23.2889 23.7812 20.6719 23.7812Z" fill="white"/>
<path d="M17.5078 11.916C17.5078 11.4792 17.1536 11.125 16.7168 11.125H13.5C13.2004 11.125 12.9265 11.2943 12.7925 11.5623L12.1667 12.8138L11.1033 8.56009C11.023 8.23899 10.7512 8.00179 10.4222 7.96567C10.0934 7.9296 9.77637 8.10215 9.62835 8.39825L8.26501 11.125H7.17188C6.73502 11.125 6.38086 11.4792 6.38086 11.916C6.38086 12.3529 6.73502 12.707 7.17188 12.707H8.75391C9.05354 12.707 9.32739 12.5377 9.46144 12.2697L10.0872 11.0183L11.1506 15.2719C11.2389 15.6247 11.5557 15.8711 11.9183 15.8711C12.2153 15.8711 12.4906 15.7038 12.6256 15.4338L13.9889 12.707H16.7168C17.1536 12.707 17.5078 12.3529 17.5078 11.916Z" fill="#FF7B02"/>
</svg>
