<svg width="34" height="34" viewBox="0 0 34 34" fill="none" xmlns="http://www.w3.org/2000/svg">
<path d="M23.5 19.836L22.707 19.043L21.293 20.457L22.793 21.957C22.9805 22.1444 23.2348 22.2498 23.5 22.2498C23.7651 22.2498 24.0194 22.1444 24.207 21.957L26.707 19.457L25.293 18.043L23.5 19.836Z" fill="#FF7B02"/>
<path d="M24 14V11C24 10.7348 23.8946 10.4804 23.7071 10.2929C23.5196 10.1054 23.2652 10 23 10H19V8C19 6.67392 18.4732 5.40215 17.5355 4.46447C16.5979 3.52678 15.3261 3 14 3C12.6739 3 11.4021 3.52678 10.4645 4.46447C9.52678 5.40215 9 6.67392 9 8V10H5C4.73478 10 4.48043 10.1054 4.29289 10.2929C4.10536 10.4804 4 10.7348 4 11V29C4 29.2652 4.10536 29.5196 4.29289 29.7071C4.48043 29.8946 4.73478 30 5 30H23C23.2652 30 23.5196 29.8946 23.7071 29.7071C23.8946 29.5196 24 29.2652 24 29V26C25.5913 26 27.1174 25.3679 28.2426 24.2426C29.3679 23.1174 30 21.5913 30 20C30 18.4087 29.3679 16.8826 28.2426 15.7574C27.1174 14.6321 25.5913 14 24 14ZM11 8C11 7.20435 11.3161 6.44129 11.8787 5.87868C12.4413 5.31607 13.2044 5 14 5C14.7956 5 15.5587 5.31607 16.1213 5.87868C16.6839 6.44129 17 7.20435 17 8V10H11V8ZM22 28H6V12H22V14.35C20.8304 14.7618 19.8174 15.5265 19.1008 16.5385C18.3842 17.5505 17.9994 18.76 17.9994 20C17.9994 21.24 18.3842 22.4495 19.1008 23.4615C19.8174 24.4735 20.8304 25.2382 22 25.65V28ZM24 24C23.2089 24 22.4355 23.7654 21.7777 23.3259C21.1199 22.8864 20.6072 22.2616 20.3045 21.5307C20.0017 20.7998 19.9225 19.9956 20.0769 19.2196C20.2312 18.4437 20.6122 17.731 21.1716 17.1716C21.731 16.6122 22.4437 16.2312 23.2196 16.0769C23.9956 15.9225 24.7998 16.0017 25.5307 16.3045C26.2616 16.6072 26.8864 17.1199 27.3259 17.7777C27.7654 18.4355 28 19.2089 28 20C28 21.0609 27.5786 22.0783 26.8284 22.8284C26.0783 23.5786 25.0609 24 24 24Z" fill="white"/>
<path d="M14.0007 17C13.5609 16.9985 13.1328 17.1425 12.7833 17.4096C12.4338 17.6767 12.1824 18.0519 12.0683 18.4767C11.9541 18.9016 11.9837 19.3522 12.1524 19.7585C12.321 20.1648 12.6193 20.5039 13.0007 20.723V23H15.0007V20.723C15.3822 20.5039 15.6805 20.1648 15.8491 19.7585C16.0178 19.3522 16.0473 18.9016 15.9332 18.4767C15.8191 18.0519 15.5677 17.6767 15.2182 17.4096C14.8687 17.1425 14.4406 16.9985 14.0007 17Z" fill="#FF7B02"/>
</svg>
