<svg width="23" height="23" viewBox="0 0 23 23" fill="none" xmlns="http://www.w3.org/2000/svg">
<g clip-path="url(#clip0_30_16833)">
<path d="M22.3262 15.0986H13.7598C13.4691 14.1256 12.5663 13.4141 11.5 13.4141C10.4337 13.4141 9.5309 14.1256 9.24021 15.0986H0.673828C0.301695 15.0986 0 15.4003 0 15.7725C0 16.1446 0.301695 16.4463 0.673828 16.4463H9.24021C9.5309 17.4193 10.4337 18.1309 11.5 18.1309C12.5663 18.1309 13.4691 17.4193 13.7598 16.4463H22.3262C22.6983 16.4463 23 16.1446 23 15.7725C23 15.4003 22.6983 15.0986 22.3262 15.0986ZM11.5 16.7832C10.9427 16.7832 10.4893 16.3298 10.4893 15.7725C10.4893 15.2152 10.9427 14.7617 11.5 14.7617C12.0573 14.7617 12.5107 15.2152 12.5107 15.7725C12.5107 16.3298 12.0573 16.7832 11.5 16.7832Z" fill="#FF7B02"/>
<path d="M22.3262 19.9658H19.2854C18.9947 18.9928 18.0919 18.2812 17.0256 18.2812C15.9593 18.2812 15.0565 18.9928 14.7658 19.9658H0.673828C0.301695 19.9658 0 20.2675 0 20.6396C0 21.0118 0.301695 21.3135 0.673828 21.3135H14.7658C15.0565 22.2865 15.9593 22.998 17.0256 22.998C18.0919 22.998 18.9947 22.2865 19.2854 21.3135H22.3262C22.6983 21.3135 23 21.0118 23 20.6396C23 20.2675 22.6983 19.9658 22.3262 19.9658ZM17.0256 21.6504C16.4683 21.6504 16.0149 21.1969 16.0149 20.6396C16.0149 20.0823 16.4683 19.6289 17.0256 19.6289C17.5829 19.6289 18.0364 20.0823 18.0364 20.6396C18.0364 21.1969 17.5829 21.6504 17.0256 21.6504Z" fill="#FF7B02"/>
<path d="M22.3262 0H2.22817C0.999557 0 0 0.999557 0 2.22817C0 3.2855 0.740492 4.17252 1.72994 4.39951C1.59711 4.68468 1.52245 5.00214 1.52245 5.33685C1.52245 6.56547 2.522 7.56502 3.75062 7.56502H4.78189C4.95282 9.30381 5.77951 10.9227 7.10943 12.0837C7.76479 12.6557 8.66543 12.7868 9.46005 12.4257C10.261 12.0617 10.7585 11.2902 10.7585 10.4123V10.3531C10.7585 9.72945 10.4859 9.12597 10.0107 8.69746C9.4605 8.20139 9.16806 7.49319 9.20831 6.7545C9.27533 5.52557 10.2911 4.51734 11.5208 4.45921C12.1926 4.42741 12.831 4.66559 13.3177 5.12981C13.805 5.59462 14.0733 6.22002 14.0733 6.89079C14.0733 7.58443 13.7743 8.2477 13.2527 8.71049C12.7867 9.12399 12.5195 9.72267 12.5195 10.353V10.4122C12.5195 11.2901 13.0171 12.0617 13.8181 12.4257C14.1154 12.5608 14.4273 12.627 14.7359 12.627C15.252 12.627 15.7582 12.4417 16.1681 12.0838C17.0894 11.2796 17.7715 10.2626 18.161 9.11941H22.3262C22.6983 9.11941 23 8.81771 23 8.44558V0.673828C23 0.301695 22.6983 0 22.3262 0ZM1.34766 2.22817C1.34766 1.74265 1.74265 1.34766 2.22817 1.34766H7.55042C6.89623 1.83146 6.33053 2.42816 5.88198 3.10868H2.22817C1.74265 3.10868 1.34766 2.71369 1.34766 2.22817ZM2.87015 5.33681C2.87015 4.85129 3.26515 4.45629 3.75066 4.45629H5.19288C4.98202 5.01279 4.8411 5.60329 4.7813 6.21732H3.75062C3.26515 6.21737 2.87015 5.82237 2.87015 5.33681ZM21.6523 7.77166H17.6595C17.3521 7.77166 17.0837 7.97974 17.007 8.27744C16.7277 9.36203 16.1312 10.3272 15.2819 11.0685C15.0263 11.2917 14.6875 11.3404 14.3757 11.1988C14.0573 11.0541 13.8672 10.76 13.8672 10.4121V10.3529C13.8672 10.1076 13.9693 9.87634 14.1472 9.71844C14.9568 9.0001 15.4211 7.96941 15.4211 6.89075C15.4211 5.84793 15.0044 4.87618 14.2479 4.1546C13.5367 3.47614 12.6173 3.10859 11.6417 3.10859C11.5804 3.10859 11.5188 3.11003 11.4571 3.11295C10.5254 3.15702 9.64459 3.54627 8.97692 4.20896C8.30915 4.87173 7.91344 5.74969 7.86268 6.68105C7.80014 7.8284 8.25413 8.92813 9.10822 9.69823C9.30054 9.87163 9.41082 10.1103 9.41082 10.3531V10.4122C9.41082 10.76 9.2208 11.054 8.90244 11.1987C8.5905 11.3404 8.25152 11.2917 7.99564 11.0683C6.78832 10.0144 6.0959 8.49176 6.0959 6.89066C6.09594 3.83426 8.58255 1.34766 11.639 1.34766H21.6523V7.77166Z" fill="white"/>
</g>
<defs>
<clipPath id="clip0_30_16833">
<rect width="23" height="23" fill="white"/>
</clipPath>
</defs>
</svg>
