<svg width="21" height="21" viewBox="0 0 21 21" fill="none" xmlns="http://www.w3.org/2000/svg">
<path d="M10.5 0C5.51266 0 1.47656 4.0361 1.47656 9.02344V13.6172C1.47656 14.9741 2.58054 16.0781 3.9375 16.0781C5.29446 16.0781 6.39844 14.9741 6.39844 13.6172V10.6641C6.39844 9.3071 5.29446 8.20312 3.9375 8.20312C3.662 8.20312 3.39724 8.24931 3.14971 8.33319C3.49892 4.58477 6.66188 1.64062 10.5 1.64062C14.3381 1.64062 17.5011 4.58477 17.8503 8.33319C17.6028 8.24931 17.338 8.20312 17.0625 8.20312C15.7055 8.20312 14.6016 9.3071 14.6016 10.6641V13.6172C14.6016 14.9741 15.7055 16.0781 17.0625 16.0781C17.3108 16.0781 17.5506 16.0408 17.7767 15.9721C17.4699 16.9817 16.5305 17.7188 15.4219 17.7188H12.8198C12.4812 16.764 11.5694 16.0781 10.5 16.0781C9.14304 16.0781 8.03906 17.1821 8.03906 18.5391C8.03906 19.896 9.14304 21 10.5 21C11.5694 21 12.4812 20.3141 12.8198 19.3594H15.4219C17.6835 19.3594 19.5234 17.5194 19.5234 15.2578V9.02344C19.5234 4.0361 15.4873 0 10.5 0ZM3.9375 9.84375C4.38982 9.84375 4.75781 10.2117 4.75781 10.6641V13.6172C4.75781 14.0695 4.38982 14.4375 3.9375 14.4375C3.48518 14.4375 3.11719 14.0695 3.11719 13.6172V10.6641C3.11719 10.2117 3.48518 9.84375 3.9375 9.84375ZM10.5 19.3594C10.0477 19.3594 9.67969 18.9914 9.67969 18.5391C9.67969 18.0867 10.0477 17.7188 10.5 17.7188C10.9523 17.7188 11.3203 18.0867 11.3203 18.5391C11.3203 18.9914 10.9523 19.3594 10.5 19.3594ZM17.0625 14.4375C16.6102 14.4375 16.2422 14.0695 16.2422 13.6172V10.6641C16.2422 10.2117 16.6102 9.84375 17.0625 9.84375C17.5148 9.84375 17.8828 10.2117 17.8828 10.6641V13.6172C17.8828 14.0695 17.5148 14.4375 17.0625 14.4375Z" fill="white"/>
<circle cx="10.5" cy="18.5" r="2.5" fill="#FF7B02"/>
</svg>
