<svg width="26" height="26" viewBox="0 0 26 26" fill="none" xmlns="http://www.w3.org/2000/svg">
<path d="M17.9233 19.9483L16.5438 18.5687L15.4668 19.6458L17.9233 22.1024L21.3666 18.6591L20.2895 17.582L17.9233 19.9483Z" fill="#FF7B02"/>
<path d="M5.44141 5.65625H10.0236V7.17943H5.44141V5.65625Z" fill="white"/>
<path d="M20.7085 14.6983V5.03472L15.6739 0H2.38281V24.4661H15.4279C16.3165 25.1311 17.3734 25.6531 18.4042 26C18.7159 25.8791 23.5461 24.3954 23.6175 20.7545V16.1379L20.7085 14.6983ZM16.12 2.60022L18.1083 4.58858H16.12V2.60022ZM3.90599 22.9429V1.52318H14.5968V6.11175H19.1854V14.4095H16.7098L13.2175 16.1379V20.7558C13.2078 21.5491 13.475 22.2832 13.925 22.9429H3.90599ZM18.4169 24.3806C17.2932 23.9612 14.6803 22.558 14.7408 20.7544V17.0835L17.0662 15.9327H19.7688L22.0943 17.0835V20.7544C22.1582 22.2574 20.1953 23.7056 18.4169 24.3806Z" fill="white"/>
<path d="M5.44141 9.94141H17.6491V11.4646H5.44141V9.94141Z" fill="white"/>
<path d="M5.44141 13H13.0748V14.5232H5.44141V13Z" fill="white"/>
<path d="M5.44141 17.2852H10.0236V18.8083H5.44141V17.2852Z" fill="white"/>
</svg>
