<svg width="27" height="27" viewBox="0 0 27 27" fill="none" xmlns="http://www.w3.org/2000/svg">
<g clip-path="url(#clip0_30_16733)">
<path d="M19.8524 3.17578H7.14648V7.94049H19.8524V3.17578ZM18.2641 6.35225H8.73472V4.76402H18.2641V6.35225Z" fill="white"/>
<path d="M18.3614 9.89844L16.6522 11.6076L15.6244 10.668L14.5527 11.8402L16.7014 13.8045L19.4844 11.0215L18.3614 9.89844Z" fill="#FF7B02"/>
<path d="M27 2.38235C27 1.06872 25.9313 0 24.6176 0H7.14706C4.95768 0 3.17647 1.78121 3.17647 3.97059V22.2353H0V23.0294C0 25.2188 1.78121 27 3.97059 27H20.6471C22.3986 27 23.8235 25.575 23.8235 23.8235V6.35294H27V2.38235ZM3.97059 25.4118C2.93522 25.4118 2.05205 24.7479 1.72429 23.8235H17.4706C17.4706 24.4 17.6272 24.9469 17.8969 25.4118H3.97059ZM22.2353 23.8235C22.2353 24.6993 21.5228 25.4118 20.6471 25.4118C19.7713 25.4118 19.0588 24.6993 19.0588 23.8235C19.0588 23.2681 19.0588 22.7908 19.0588 22.2353H4.76471V3.97059C4.76471 2.65696 5.83343 1.58824 7.14706 1.58824H22.3719C22.2837 1.83679 22.2353 2.10394 22.2353 2.38235V23.8235ZM25.4118 4.76471H23.8235V2.38235C23.8235 1.94448 24.1797 1.58824 24.6176 1.58824C25.0556 1.58824 25.4118 1.94448 25.4118 2.38235V4.76471Z" fill="white"/>
<path d="M6.35352 14.296H11.1182V9.53125H6.35352V14.296ZM7.94175 11.1195H9.52999V12.7077H7.94175V11.1195Z" fill="#FF7B02"/>
<path d="M6.35352 20.6475H11.1182V15.8828H6.35352V20.6475ZM7.94175 17.471H9.52999V19.0593H7.94175V17.471Z" fill="#FF7B02"/>
<path d="M13.5 15.8828H18.2647V17.471H13.5V15.8828Z" fill="white"/>
<path d="M13.5 19.0586H20.6471V20.6468H13.5V19.0586Z" fill="white"/>
</g>
<defs>
<clipPath id="clip0_30_16733">
<rect width="27" height="27" fill="white"/>
</clipPath>
</defs>
</svg>
