<svg width="22" height="22" viewBox="0 0 22 22" fill="none" xmlns="http://www.w3.org/2000/svg">
<g clip-path="url(#clip0_30_16765)">
<path d="M0.6875 11V18.7773C0.6875 20.5616 2.13043 21.9961 3.91016 21.9993V22H18.0898C19.8668 22 21.3125 20.5543 21.3125 18.7773V0H5.84375V9.02344H2.62109C1.55298 9.02344 0.6875 9.92991 0.6875 11ZM7.13281 18.6394V1.28906H20.0234V18.7773C20.0234 19.8435 19.156 20.7109 18.0898 20.7109H6.44884C6.87784 20.1345 7.13281 19.4107 7.13281 18.6394ZM5.84375 10.3125V15.5547H4.55469V11C4.55469 10.7626 4.51202 10.5307 4.43124 10.3125H5.84375ZM1.97656 11C1.97656 10.6338 2.27773 10.3125 2.62109 10.3125C2.96446 10.3125 3.26562 10.6338 3.26562 11V16.8438H5.84375V18.6394C5.84375 19.6994 5.08264 20.6941 3.9368 20.7109H3.91016C3.9093 20.7109 3.90835 20.7112 3.90749 20.7112C2.83031 20.7112 1.97656 19.8327 1.97656 18.7773V11Z" fill="white"/>
<path d="M14.0728 7.73438H13.0835L10.5582 14.2656H9.71094V15.5547H11.4418L12.4553 12.9336H14.701L15.7144 15.5547H17.4453V14.2656H16.5981L14.0728 7.73438ZM12.9537 11.6445L13.5781 10.0295L14.2026 11.6445H12.9537Z" fill="#FF7B02"/>
<path d="M13.5781 2.57812C10.735 2.57812 8.42188 4.89122 8.42188 7.73438H9.71094C9.71094 5.60201 11.4458 3.86719 13.5781 3.86719C15.7105 3.86719 17.4453 5.60201 17.4453 7.73438H18.7344C18.7344 4.89122 16.4213 2.57812 13.5781 2.57812Z" fill="#FF7B02"/>
<path d="M13.5781 6.44531C14.2889 6.44531 14.8672 7.02359 14.8672 7.73438H16.1562C16.1562 6.3128 14.9997 5.15625 13.5781 5.15625C12.1565 5.15625 11 6.3128 11 7.73438H12.2891C12.2891 7.02359 12.8673 6.44531 13.5781 6.44531Z" fill="#FF7B02"/>
<path d="M9.71094 16.8438H17.4453V18.1328H9.71094V16.8438Z" fill="white"/>
</g>
<defs>
<clipPath id="clip0_30_16765">
<rect width="22" height="22" fill="white"/>
</clipPath>
</defs>
</svg>
