<svg width="26" height="26" viewBox="0 0 26 26" fill="none" xmlns="http://www.w3.org/2000/svg">
<path d="M3.24935 10.293C2.59935 10.293 2.16602 9.85964 2.16602 9.20964V5.41797C2.16602 3.5763 3.57435 2.16797 5.41602 2.16797H9.20768C9.85768 2.16797 10.291 2.6013 10.291 3.2513C10.291 3.9013 9.85768 4.33464 9.20768 4.33464H5.41602C4.76602 4.33464 4.33268 4.76797 4.33268 5.41797V9.20964C4.33268 9.85964 3.89935 10.293 3.24935 10.293Z" fill="white"/>
<path d="M9.20768 23.832H5.41602C3.57435 23.832 2.16602 22.4237 2.16602 20.582V16.7904C2.16602 16.1404 2.59935 15.707 3.24935 15.707C3.89935 15.707 4.33268 16.1404 4.33268 16.7904V20.582C4.33268 21.232 4.76602 21.6654 5.41602 21.6654H9.20768C9.85768 21.6654 10.291 22.0987 10.291 22.7487C10.291 23.3987 9.85768 23.832 9.20768 23.832Z" fill="white"/>
<path d="M20.584 23.832H16.7923C16.1423 23.832 15.709 23.3987 15.709 22.7487C15.709 22.0987 16.1423 21.6654 16.7923 21.6654H20.584C21.234 21.6654 21.6673 21.232 21.6673 20.582V16.7904C21.6673 16.1404 22.1007 15.707 22.7507 15.707C23.4007 15.707 23.834 16.1404 23.834 16.7904V20.582C23.834 22.4237 22.4257 23.832 20.584 23.832Z" fill="white"/>
<path d="M22.7507 10.293C22.1007 10.293 21.6673 9.85964 21.6673 9.20964V5.41797C21.6673 4.76797 21.234 4.33464 20.584 4.33464H16.7923C16.1423 4.33464 15.709 3.9013 15.709 3.2513C15.709 2.6013 16.1423 2.16797 16.7923 2.16797H20.584C22.4257 2.16797 23.834 3.5763 23.834 5.41797V9.20964C23.834 9.85964 23.4007 10.293 22.7507 10.293Z" fill="white"/>
<path d="M17.8743 19.5H8.12435C7.47435 19.5 7.04102 19.0667 7.04102 18.4167V7.58333C7.04102 6.93333 7.47435 6.5 8.12435 6.5H17.8743C18.5243 6.5 18.9577 6.93333 18.9577 7.58333V18.4167C18.9577 19.0667 18.5243 19.5 17.8743 19.5ZM9.20768 17.3333H16.791V8.66667H9.20768V17.3333Z" fill="white"/>
<path d="M13.541 12.4596H11.3743C10.7243 12.4596 10.291 12.0263 10.291 11.3763C10.291 10.7263 10.7243 10.293 11.3743 10.293H13.541C14.191 10.293 14.6243 10.7263 14.6243 11.3763C14.6243 12.0263 14.191 12.4596 13.541 12.4596Z" fill="#FF7B02"/>
<path d="M11.916 15.7096H11.3743C10.7243 15.7096 10.291 15.2763 10.291 14.6263C10.291 13.9763 10.7243 13.543 11.3743 13.543H11.916C12.566 13.543 12.9993 13.9763 12.9993 14.6263C12.9993 15.2763 12.566 15.7096 11.916 15.7096Z" fill="#FF7B02"/>
</svg>
