<svg width="28" height="28" viewBox="0 0 28 28" fill="none" xmlns="http://www.w3.org/2000/svg">
<g clip-path="url(#clip0_30_16683)">
<path d="M19.8894 14.6014H18.0445C18.0013 12.3749 16.2737 10.5387 14.0395 10.2284C14.8959 9.32673 15.4217 8.11208 15.4217 6.77755V5.03259C15.4217 3.67831 14.9033 2.41274 13.962 1.4689C13.0173 0.521661 11.7462 0 10.3825 0C9.02772 0.000656246 7.76045 0.512309 6.80769 1.44041C6.80353 1.44445 6.7991 1.44823 6.795 1.45238C6.78822 1.459 6.78111 1.46518 6.77433 1.47185C5.81583 2.42259 5.28793 3.68712 5.28793 5.03264V6.7776C5.28793 8.11208 5.81375 9.32668 6.67021 10.2284C4.43602 10.5388 2.70845 12.3749 2.66525 14.6015H0.820319C0.580844 14.6015 0.353235 14.7061 0.197432 14.888C0.0415732 15.0699 -0.0270045 15.3108 0.00969059 15.5475L1.83269 27.3052C1.89465 27.705 2.2388 27.9998 2.64332 27.9998H18.0645C18.469 27.9998 18.8131 27.705 18.8751 27.3054L20.7 15.5476C20.7368 15.3109 20.6682 15.07 20.5124 14.888C20.3565 14.7061 20.1289 14.6014 19.8894 14.6014ZM6.92855 5.03264C6.92855 4.64322 6.99483 4.26385 7.12138 3.90685C7.74558 4.77403 8.82669 5.34912 10.0542 5.34912H13.7615C13.7682 5.34912 13.7746 5.3483 13.7812 5.34813V6.7776C13.7812 8.64796 12.2441 10.1696 10.3549 10.1696C8.46559 10.1696 6.92855 8.64796 6.92855 6.7776V5.03264ZM10.3829 1.64056C11.8153 1.64056 13.0142 2.48252 13.5214 3.70845H10.0542C9.11161 3.70845 8.33144 3.13024 8.21364 2.38447C8.82357 1.89726 9.566 1.64094 10.3829 1.64056ZM7.34089 11.8219L13.3688 11.822C15.0133 11.822 16.3558 13.0612 16.4038 14.6014H4.30586C4.35388 13.0612 5.69639 11.8219 7.34089 11.8219ZM17.3617 26.3592H3.34627L1.77762 16.242H18.932L17.3617 26.3592Z" fill="white"/>
<path d="M27.8573 3.87039C27.7695 3.50026 27.4391 3.23941 27.0592 3.23941C27.0559 3.23941 27.0525 3.23946 27.0491 3.23946C26.8167 3.23946 26.6019 3.11691 26.4875 2.91883C26.3725 2.7196 26.3745 2.4705 26.4926 2.26865C26.6855 1.93933 26.6258 1.52042 26.3485 1.25814C25.7497 0.691803 25.0174 0.268579 24.2307 0.0342993C23.8648 -0.0746922 23.472 0.0832444 23.2833 0.41525C23.1677 0.618741 22.9529 0.745123 22.7226 0.745123C22.4924 0.745123 22.2775 0.618687 22.1619 0.41525C21.9732 0.0832444 21.5805 -0.074911 21.2146 0.0342993C20.4284 0.26836 19.6961 0.691639 19.0969 1.25836C18.8197 1.52059 18.7599 1.93933 18.9527 2.26871C19.0708 2.4705 19.0727 2.71966 18.9577 2.91883C18.8434 3.11691 18.6285 3.23946 18.3962 3.23946C18.3928 3.23946 18.3894 3.23941 18.386 3.23941C18.0062 3.23941 17.6758 3.50032 17.5879 3.87028C17.4933 4.26917 17.4453 4.6803 17.4453 5.09248C17.4453 5.50438 17.4933 5.91558 17.588 6.31458C17.6758 6.6847 18.0062 6.94556 18.3861 6.94556C18.3894 6.94556 18.3929 6.9455 18.3962 6.9455C18.6286 6.9455 18.8434 7.06806 18.9578 7.26608C19.0728 7.4653 19.0708 7.7144 18.9527 7.91625C18.7598 8.24558 18.8195 8.66448 19.0968 8.92676C19.6957 9.49316 20.428 9.91644 21.2146 10.1507C21.5805 10.2599 21.9732 10.1017 22.1619 9.76971C22.2776 9.56617 22.4924 9.43978 22.7226 9.43978C22.9529 9.43978 23.1677 9.56622 23.2833 9.76971C23.432 10.0313 23.7074 10.1849 23.9966 10.1849C24.0743 10.1849 24.1531 10.1738 24.2307 10.1507C25.017 9.91649 25.7492 9.49321 26.3483 8.92655C26.6256 8.66432 26.6854 8.24553 26.4926 7.91614C26.3745 7.7144 26.3726 7.4653 26.4876 7.26608C26.6019 7.068 26.8167 6.9455 27.049 6.9455C27.0524 6.94556 27.0559 6.94561 27.0593 6.94556C27.439 6.94556 27.7695 6.6847 27.8573 6.31474C27.952 5.91596 28 5.50471 28 5.09248C28 4.68052 27.952 4.26938 27.8573 3.87039ZM26.3451 5.41563C25.8131 5.58724 25.3529 5.94998 25.0667 6.44577C24.7806 6.94129 24.6964 7.52097 24.8136 8.06741C24.6369 8.19171 24.4494 8.30027 24.2542 8.39132C23.8395 8.01628 23.2951 7.79911 22.7227 7.79911C22.1502 7.79911 21.6058 8.01628 21.1911 8.39138C20.9958 8.30038 20.8083 8.19188 20.6317 8.06763C20.749 7.52108 20.6648 6.94134 20.3787 6.44577C20.0925 5.95008 19.6324 5.58729 19.1003 5.41563C19.0908 5.30833 19.086 5.20043 19.086 5.09248C19.086 4.98442 19.0908 4.87663 19.1003 4.76928C19.6323 4.59762 20.0925 4.23488 20.3787 3.73914C20.6647 3.24367 20.7489 2.66399 20.6317 2.1175C20.8084 1.99325 20.9959 1.88464 21.1912 1.79364C21.6059 2.16863 22.1502 2.38579 22.7227 2.38579C23.2953 2.38579 23.8396 2.16863 24.2542 1.79359C24.4495 1.88459 24.6371 1.99303 24.8137 2.11728C24.6964 2.66382 24.7806 3.24356 25.0667 3.73914C25.3529 4.23488 25.813 4.59767 26.345 4.76933C26.3546 4.87663 26.3593 4.98453 26.3593 5.09248C26.3594 5.20049 26.3546 5.30833 26.3451 5.41563Z" fill="#FF7B02"/>
<path d="M10.3555 18.8398C8.99851 18.8398 7.89453 19.9439 7.89453 21.3008C7.89453 22.6578 8.99851 23.7618 10.3555 23.7618C11.7124 23.7618 12.8164 22.6578 12.8164 21.3008C12.8164 19.9439 11.7125 18.8398 10.3555 18.8398ZM10.3555 22.1211C9.90315 22.1211 9.53516 21.7532 9.53516 21.3008C9.53516 20.8485 9.90315 20.4805 10.3555 20.4805C10.8078 20.4805 11.1758 20.8485 11.1758 21.3008C11.1758 21.7532 10.8078 22.1211 10.3555 22.1211Z" fill="white"/>
<path d="M22.7227 5.91406C23.1757 5.91406 23.543 5.5468 23.543 5.09375C23.543 4.6407 23.1757 4.27344 22.7227 4.27344C22.2696 4.27344 21.9023 4.6407 21.9023 5.09375C21.9023 5.5468 22.2696 5.91406 22.7227 5.91406Z" fill="#FF7B02"/>
</g>
<defs>
<clipPath id="clip0_30_16683">
<rect width="28" height="28" fill="white"/>
</clipPath>
</defs>
</svg>
