<svg width="23" height="23" viewBox="0 0 23 23" fill="none" xmlns="http://www.w3.org/2000/svg">
<g clip-path="url(#clip0_30_16792)">
<path d="M10.1872 12.8285H0.73718C0.33006 12.8285 0 12.4946 0 12.0875V10.5393C0 9.14064 0.528214 7.81018 1.48743 6.79297L2.56008 7.80448C1.85995 8.54696 1.47436 9.51822 1.47436 10.5393V11.3541H9.4359V10.5393C9.4359 9.52928 9.0646 8.56584 8.3777 7.82635L9.45442 6.8229C10.3955 7.83603 10.9103 9.15588 10.9103 10.5393V12.0874C10.9103 12.4946 10.5943 12.8285 10.1872 12.8285Z" fill="white"/>
<path d="M5.46267 0C3.41852 0 1.75195 1.67659 1.75195 3.7374C1.75195 5.54379 3.04747 7.05476 4.71841 7.40035V9.82906H6.19277V7.4004C7.91286 7.05481 9.16631 5.54384 9.16631 3.73745C9.16631 1.67659 7.50682 0 5.46267 0ZM5.46267 6.00044C4.23148 6.00044 3.22985 4.98525 3.22985 3.7374C3.22985 2.48955 4.23148 1.47436 5.46267 1.47436C6.69386 1.47436 7.69554 2.48955 7.69554 3.7374C7.69554 4.98525 6.69381 6.00044 5.46267 6.00044Z" fill="#FF7B02"/>
<path d="M21.2495 13.9132C21.2495 11.8524 19.5847 10.1758 17.5405 10.1758C15.4963 10.1758 13.8359 11.8524 13.8359 13.9132C13.8359 15.7196 15.0885 17.2306 16.8086 17.5762V20.0011H18.2829V17.5762C19.9539 17.2305 21.2495 15.7196 21.2495 13.9132ZM17.5387 16.1762C16.3076 16.1762 15.3059 15.161 15.3059 13.9132C15.3059 12.6653 16.3076 11.6501 17.5387 11.6501C18.7699 11.6501 19.7716 12.6653 19.7716 13.9132C19.7716 15.161 18.7699 16.1762 17.5387 16.1762Z" fill="#FF7B02"/>
<path d="M22.2629 22.9989H12.8129C12.4058 22.9989 12.0898 22.6688 12.0898 22.2617V20.7135C12.0898 19.3743 12.5724 18.086 13.4615 17.086L14.5669 18.0656C13.918 18.7954 13.5642 19.7358 13.5642 20.7135V21.5245H21.5257V20.7135C21.5257 19.7358 21.1684 18.7955 20.5195 18.0656L21.6213 17.0859C22.5105 18.086 23.0001 19.3743 23.0001 20.7135V22.2617C23.0001 22.6688 22.67 22.9989 22.2629 22.9989Z" fill="white"/>
<path d="M10.7328 19.8187C7.43429 19.5179 4.62436 17.2915 3.57422 14.1467L4.97265 13.6797C5.83746 16.2694 8.15097 18.1028 10.8667 18.3504L10.7328 19.8187Z" fill="white"/>
<path d="M18.0567 9.4052C17.1431 6.54234 14.5084 4.61889 11.5006 4.61889C11.1833 4.61889 10.8644 4.64066 10.5527 4.68357L10.3516 3.22297C10.7297 3.17092 11.1163 3.14453 11.5006 3.14453C15.0964 3.14453 18.3681 5.53167 19.4612 8.957L18.0567 9.4052Z" fill="white"/>
</g>
<defs>
<clipPath id="clip0_30_16792">
<rect width="23" height="23" fill="white"/>
</clipPath>
</defs>
</svg>
