<svg width="29" height="29" viewBox="0 0 29 29" fill="none" xmlns="http://www.w3.org/2000/svg">
<path fill-rule="evenodd" clip-rule="evenodd" d="M10.5723 13.293V15.7096C10.5723 16.431 10.8586 17.1222 11.3686 17.6321C11.8785 18.142 12.5696 18.4284 13.291 18.4284H15.7077C16.4291 18.4284 17.1202 18.142 17.6301 17.6321C18.1401 17.1222 18.4264 16.431 18.4264 15.7096V13.293C18.4264 12.5716 18.1401 11.8804 17.6301 11.3705C17.1202 10.8606 16.4291 10.5742 15.7077 10.5742H13.291C12.5696 10.5742 11.8785 10.8606 11.3686 11.3705C10.8586 11.8804 10.5723 12.5716 10.5723 13.293ZM12.3848 13.293C12.3848 13.0525 12.4802 12.8217 12.6506 12.6526C12.8198 12.4822 13.0506 12.3867 13.291 12.3867H15.7077C15.9481 12.3867 16.1789 12.4822 16.3481 12.6526C16.5185 12.8217 16.6139 13.0525 16.6139 13.293V15.7096C16.6139 15.9501 16.5185 16.1809 16.3481 16.3501C16.1789 16.5204 15.9481 16.6159 15.7077 16.6159H13.291C13.0506 16.6159 12.8198 16.5204 12.6506 16.3501C12.4802 16.1809 12.3848 15.9501 12.3848 15.7096V13.293Z" fill="white"/>
<path fill-rule="evenodd" clip-rule="evenodd" d="M1.50977 4.23047V6.64714C1.50977 7.36851 1.79614 8.05968 2.30606 8.56959C2.81597 9.07951 3.50714 9.36589 4.22852 9.36589H6.64518C7.36656 9.36589 8.05772 9.07951 8.56764 8.56959C9.07756 8.05968 9.36393 7.36851 9.36393 6.64714V4.23047C9.36393 3.50909 9.07756 2.81793 8.56764 2.30801C8.05772 1.79809 7.36656 1.51172 6.64518 1.51172H4.22852C3.50714 1.51172 2.81597 1.79809 2.30606 2.30801C1.79614 2.81793 1.50977 3.50909 1.50977 4.23047ZM3.32227 4.23047C3.32227 3.99001 3.41772 3.75922 3.5881 3.59005C3.75727 3.41968 3.98806 3.32422 4.22852 3.32422H6.64518C6.88564 3.32422 7.11643 3.41968 7.2856 3.59005C7.45597 3.75922 7.55143 3.99001 7.55143 4.23047V6.64714C7.55143 6.88759 7.45597 7.11839 7.2856 7.28755C7.11643 7.45793 6.88564 7.55339 6.64518 7.55339H4.22852C3.98806 7.55339 3.75727 7.45793 3.5881 7.28755C3.41772 7.11839 3.32227 6.88759 3.32227 6.64714V4.23047Z" fill="#FF7B02"/>
<path fill-rule="evenodd" clip-rule="evenodd" d="M19.6348 22.3555V24.7721C19.6348 25.4935 19.9211 26.1847 20.4311 26.6946C20.941 27.2045 21.6321 27.4909 22.3535 27.4909H24.7702C25.4916 27.4909 26.1827 27.2045 26.6926 26.6946C27.2026 26.1847 27.4889 25.4935 27.4889 24.7721V22.3555C27.4889 21.6341 27.2026 20.9429 26.6926 20.433C26.1827 19.9231 25.4916 19.6367 24.7702 19.6367H22.3535C21.6321 19.6367 20.941 19.9231 20.4311 20.433C19.9211 20.9429 19.6348 21.6341 19.6348 22.3555ZM21.4473 22.3555C21.4473 22.115 21.5427 21.8842 21.7131 21.7151C21.8823 21.5447 22.1131 21.4492 22.3535 21.4492H24.7702C25.0106 21.4492 25.2414 21.5447 25.4106 21.7151C25.581 21.8842 25.6764 22.115 25.6764 22.3555V24.7721C25.6764 25.0126 25.581 25.2434 25.4106 25.4126C25.2414 25.5829 25.0106 25.6784 24.7702 25.6784H22.3535C22.1131 25.6784 21.8823 25.5829 21.7131 25.4126C21.5427 25.2434 21.4473 25.0126 21.4473 24.7721V22.3555Z" fill="#FF7B02"/>
<path fill-rule="evenodd" clip-rule="evenodd" d="M8.45703 6.34375H24.1654C24.5665 6.34375 24.9496 6.50325 25.2335 6.786C25.5163 7.06996 25.6758 7.453 25.6758 7.85417V12.0833C25.6758 12.4845 25.5163 12.8675 25.2335 13.1515C24.9496 13.4342 24.5665 13.5938 24.1654 13.5938H20.5404C20.0401 13.5938 19.6341 13.9998 19.6341 14.5C19.6341 15.0003 20.0401 15.4062 20.5404 15.4062H24.1654C25.0462 15.4062 25.8921 15.0558 26.5156 14.4335C27.1379 13.81 27.4883 12.9642 27.4883 12.0833C27.4883 10.7747 27.4883 9.16279 27.4883 7.85417C27.4883 6.97329 27.1379 6.12746 26.5156 5.50396C25.8921 4.88167 25.0462 4.53125 24.1654 4.53125C19.2305 4.53125 8.45703 4.53125 8.45703 4.53125C7.95678 4.53125 7.55078 4.93725 7.55078 5.4375C7.55078 5.93775 7.95678 6.34375 8.45703 6.34375Z" fill="#FF7B02"/>
<path fill-rule="evenodd" clip-rule="evenodd" d="M15.7077 22.6562H4.83268C4.43152 22.6562 4.04847 22.4968 3.76452 22.214C3.48177 21.93 3.32227 21.547 3.32227 21.1458C3.32227 19.8372 3.32227 18.2253 3.32227 16.9167C3.32227 16.5155 3.48177 16.1325 3.76452 15.8485C4.04847 15.5658 4.43152 15.4062 4.83268 15.4062H11.4785C11.9788 15.4062 12.3848 15.0003 12.3848 14.5C12.3848 13.9998 11.9788 13.5938 11.4785 13.5938H4.83268C3.95181 13.5938 3.10597 13.9442 2.48247 14.5665C1.86018 15.19 1.50977 16.0358 1.50977 16.9167V21.1458C1.50977 22.0267 1.86018 22.8725 2.48247 23.496C3.10597 24.1183 3.95181 24.4688 4.83268 24.4688H15.7077C16.2079 24.4688 16.6139 24.0628 16.6139 23.5625C16.6139 23.0623 16.2079 22.6562 15.7077 22.6562Z" fill="white"/>
<path fill-rule="evenodd" clip-rule="evenodd" d="M23.5978 16.2786L21.8228 14.5023L23.5978 12.7261C23.9518 12.3732 23.9518 11.7981 23.5978 11.4452C23.245 11.0912 22.6698 11.0912 22.317 11.4452L19.9003 13.8619C19.5463 14.2159 19.5463 14.7887 19.9003 15.1427L22.317 17.5594C22.6698 17.9134 23.245 17.9134 23.5978 17.5594C23.9518 17.2066 23.9518 16.6314 23.5978 16.2786Z" fill="#FF7B02"/>
<path fill-rule="evenodd" clip-rule="evenodd" d="M15.1401 26.6219L17.5568 24.2052C17.9108 23.8512 17.9108 23.2784 17.5568 22.9244L15.1401 20.5077C14.7873 20.1537 14.2121 20.1537 13.8593 20.5077C13.5052 20.8606 13.5052 21.4357 13.8593 21.7886L15.6343 23.5648L13.8593 25.3411C13.5052 25.6939 13.5052 26.2691 13.8593 26.6219C14.2121 26.9759 14.7873 26.9759 15.1401 26.6219Z" fill="white"/>
</svg>
