<svg width="48" height="48" viewBox="0 0 48 48" fill="none" xmlns="http://www.w3.org/2000/svg">
<path d="M23.5414 34.0791C23.5414 28.7669 19.235 24.4605 13.9228 24.4605C8.61064 24.4605 4.30427 28.7669 4.30427 34.0791C4.30427 39.3912 8.61064 43.6976 13.9228 43.6976C19.235 43.6976 23.5414 39.3912 23.5414 34.0791ZM24.9628 34.0791C24.9628 40.1763 20.02 45.1191 13.9228 45.1191C7.82559 45.1191 2.88281 40.1763 2.88281 34.0791C2.88281 27.9818 7.82559 23.0391 13.9228 23.0391C20.02 23.0391 24.9628 27.9818 24.9628 34.0791Z" fill="#363636"/>
<path d="M44.5958 13.4419C44.5958 7.89874 40.1022 3.40514 34.5591 3.40514C29.0159 3.40514 24.5223 7.89874 24.5223 13.4419C24.5223 18.985 29.0159 23.4786 34.5591 23.4786C40.1022 23.4786 44.5958 18.985 44.5958 13.4419ZM46.0791 13.4419C46.0791 19.8042 40.9214 24.9619 34.5591 24.9619C28.1967 24.9619 23.0391 19.8042 23.0391 13.4419C23.0391 7.07956 28.1967 1.92188 34.5591 1.92188C40.9214 1.92188 46.0791 7.07956 46.0791 13.4419Z" fill="#363636"/>
<path d="M23.2959 28.8008C23.6868 28.8008 24.0037 29.2306 24.0037 29.7608C24.0037 30.291 23.6868 30.7208 23.2959 30.7208H4.55158C4.16066 30.7208 3.84375 30.291 3.84375 29.7608C3.84375 29.2306 4.16066 28.8008 4.55158 28.8008H23.2959Z" fill="#363636"/>
<path d="M23.2959 37.4375C23.6868 37.4375 24.0037 37.8673 24.0037 38.3975C24.0037 38.9277 23.6868 39.3575 23.2959 39.3575H4.55158C4.16066 39.3575 3.84375 38.9277 3.84375 38.3975C3.84375 37.8673 4.16066 37.4375 4.55158 37.4375H23.2959Z" fill="#363636"/>
<path d="M33.6016 24.25V16.0687C33.6016 15.677 33.893 15.3594 34.2525 15.3594H43.5106C43.8701 15.3594 44.1616 15.677 44.1616 16.0687C44.1616 16.4605 43.8701 16.7781 43.5106 16.7781H34.9034V24.25C34.9034 24.6418 34.612 24.9594 34.2525 24.9594C33.893 24.9594 33.6016 24.6418 33.6016 24.25Z" fill="#363636"/>
<path d="M30.1774 23.2935V16.7711H24.7513C24.3364 16.7711 24 16.455 24 16.0652C24 15.6754 24.3364 15.3594 24.7513 15.3594H30.9287C31.3436 15.3594 31.68 15.6754 31.68 16.0652V23.2935C31.68 23.6834 31.3436 23.9994 30.9287 23.9994C30.5138 23.9994 30.1774 23.6834 30.1774 23.2935Z" fill="#363636"/>
<path d="M30.1774 4.46726C30.1774 4.12075 30.5138 3.83985 30.9287 3.83984C31.3436 3.83984 31.68 4.12075 31.68 4.46726V10.8924C31.68 11.2389 31.3436 11.5198 30.9287 11.5198H24.7513C24.3364 11.5198 24 11.2389 24 10.8924C24 10.5459 24.3364 10.265 24.7513 10.265H30.1774V4.46726Z" fill="#363636"/>
<path d="M33.6016 2.63123C33.6016 2.23947 33.893 1.92188 34.2525 1.92188C34.612 1.92188 34.9034 2.23947 34.9034 2.63123V10.1032H43.5106C43.8701 10.1032 44.1616 10.4207 44.1616 10.8125C44.1616 11.2043 43.8701 11.5219 43.5106 11.5219H34.2525C33.893 11.5219 33.6016 11.2043 33.6016 10.8125V2.63123Z" fill="#363636"/>
<path d="M20.1562 13.92C20.1562 10.6178 21.3078 7.58316 23.2292 5.19671C23.476 4.89015 23.9247 4.8417 24.2312 5.08852C24.5378 5.33534 24.5861 5.784 24.3393 6.09056C22.6142 8.23319 21.5815 10.9549 21.5815 13.92C21.5815 20.8207 27.1756 26.4147 34.0763 26.4147C36.101 26.4147 38.0111 25.9331 39.7012 25.0794C39.9377 24.9599 40.221 24.9816 40.4366 25.1355C41.564 25.9405 42.9421 26.4147 44.4331 26.4147C44.7562 26.4147 45.0738 26.3924 45.3847 26.3494C44.3406 25.6208 43.4725 24.6586 42.8543 23.5393C42.7017 23.2629 42.7491 22.919 42.9708 22.6942C45.1975 20.4373 46.571 17.3399 46.571 13.92C46.571 7.0193 40.9769 1.42526 34.0763 1.42526C31.1112 1.42526 28.3894 2.45795 26.2468 4.18307C25.9402 4.42989 25.4916 4.38153 25.2448 4.07497C24.998 3.76841 25.0464 3.31975 25.353 3.07293C27.7394 1.1515 30.774 0 34.0763 0C41.7641 0 47.9963 6.23216 47.9963 13.92C47.9963 17.5297 46.6208 20.8188 44.3677 23.2916C45.1324 24.4608 46.2416 25.3836 47.551 25.9138C47.8201 26.0227 47.9962 26.284 47.9963 26.5743C47.9963 26.8646 47.8201 27.1259 47.551 27.2348C46.5874 27.625 45.5347 27.84 44.4331 27.84C42.7884 27.84 41.2548 27.3606 39.9642 26.5358C38.1752 27.3722 36.1796 27.84 34.0763 27.84C26.3884 27.84 20.1562 21.6078 20.1562 13.92Z" fill="#363636"/>
<path d="M26.4147 34.0802C26.4147 27.1795 20.8207 21.5854 13.92 21.5854C7.0193 21.5854 1.42526 27.1795 1.42526 34.0802C1.42526 37.5 2.79875 40.5973 5.02542 42.8544C5.24715 43.0791 5.2946 43.4231 5.14196 43.6994C4.5238 44.8187 3.65564 45.7809 2.61158 46.5096C2.92245 46.5526 3.24009 46.5749 3.56314 46.5749C5.05429 46.5749 6.4322 46.1007 7.55961 45.2957C7.77525 45.1417 8.05856 45.1201 8.29506 45.2396C9.98502 46.0932 11.8952 46.5749 13.92 46.5749C16.8851 46.5749 19.6068 45.5422 21.7494 43.8171C22.056 43.5703 22.5047 43.6186 22.7515 43.9252C22.9983 44.2317 22.9498 44.6804 22.6433 44.9272C20.2568 46.8487 17.2222 48.0002 13.92 48.0002C11.8165 48.0002 9.8209 47.5324 8.03191 46.696C6.74136 47.5207 5.20793 48.0002 3.56314 48.0002C2.46158 48.0002 1.40884 47.7851 0.445207 47.395C0.176107 47.286 -7.15839e-06 47.0247 2.18227e-10 46.7344C1.06767e-05 46.4441 0.17611 46.1828 0.445207 46.0738C1.75456 45.5438 2.86376 44.621 3.62846 43.4518C1.37541 40.9789 2.18227e-10 37.6898 2.18227e-10 34.0802C2.18227e-10 26.3923 6.23216 20.1602 13.92 20.1602C21.6078 20.1602 27.84 26.3923 27.84 34.0802C27.84 37.3823 26.6886 40.417 24.7671 42.8034C24.5202 43.11 24.0716 43.1584 23.765 42.9115C23.4585 42.6647 23.4101 42.2161 23.6569 41.9096C25.3821 39.767 26.4147 37.0453 26.4147 34.0802Z" fill="#363636"/>
</svg>
