<svg width="41" height="41" viewBox="0 0 41 41" fill="none" xmlns="http://www.w3.org/2000/svg">
<g clip-path="url(#clip0_30_18125)">
<path d="M15.7182 13.6641H14.3516V15.0307H15.7182V13.6641Z" fill="#363636"/>
<path d="M15.7182 16.3984H14.3516V17.7651H15.7182V16.3984Z" fill="#363636"/>
<path d="M15.7182 19.1328H14.3516V20.4995H15.7182V19.1328Z" fill="#363636"/>
<path d="M15.7182 21.8672H14.3516V23.2339H15.7182V21.8672Z" fill="#363636"/>
<path d="M18.4526 13.6641H17.0859V15.0307H18.4526V13.6641Z" fill="#363636"/>
<path d="M18.4526 16.3984H17.0859V17.7651H18.4526V16.3984Z" fill="#363636"/>
<path d="M18.4526 19.1328H17.0859V20.4995H18.4526V19.1328Z" fill="#363636"/>
<path d="M18.4526 21.8672H17.0859V23.2339H18.4526V21.8672Z" fill="#363636"/>
<path d="M21.187 13.6641H19.8203V15.0307H21.187V13.6641Z" fill="#363636"/>
<path d="M21.187 16.3984H19.8203V17.7651H21.187V16.3984Z" fill="#363636"/>
<path d="M21.187 19.1328H19.8203V20.4995H21.187V19.1328Z" fill="#363636"/>
<path d="M21.187 21.8672H19.8203V23.2339H21.187V21.8672Z" fill="#363636"/>
<path d="M23.9135 13.6641H22.5469V15.0307H23.9135V13.6641Z" fill="#363636"/>
<path d="M18.4526 10.9336H17.0859V12.3003H18.4526V10.9336Z" fill="#363636"/>
<path d="M21.187 10.9336H19.8203V12.3003H21.187V10.9336Z" fill="#363636"/>
<path d="M23.9135 10.9336H22.5469V12.3003H23.9135V10.9336Z" fill="#363636"/>
<path d="M23.9135 16.3984H22.5469V17.7651H23.9135V16.3984Z" fill="#363636"/>
<path d="M23.9135 19.1328H22.5469V20.4995H23.9135V19.1328Z" fill="#363636"/>
<path d="M23.9135 21.8672H22.5469V23.2339H23.9135V21.8672Z" fill="#363636"/>
<path d="M26.6479 13.6641H25.2812V15.0307H26.6479V13.6641Z" fill="#363636"/>
<path d="M26.6479 16.3984H25.2812V17.7651H26.6479V16.3984Z" fill="#363636"/>
<path d="M26.6479 19.1328H25.2812V20.4995H26.6479V19.1328Z" fill="#363636"/>
<path d="M26.6479 21.8672H25.2812V23.2339H26.6479V21.8672Z" fill="#363636"/>
<path d="M40.3174 10.25C40.3172 10.25 40.3169 10.25 40.3167 10.25H30.0667V0.683334C30.0669 0.306134 29.7613 0.000256411 29.3841 1.61023e-07C29.3838 1.61023e-07 29.3836 1.61023e-07 29.3833 1.61023e-07H11.6167C11.2395 -0.000256089 10.9336 0.305365 10.9333 0.682565C10.9333 0.682821 10.9333 0.683077 10.9333 0.683334V10.25H0.683334C0.306134 10.2497 0.000256411 10.5554 1.61023e-07 10.9326C1.61023e-07 10.9328 1.61023e-07 10.9331 1.61023e-07 10.9333V35.5333C-0.000256089 35.9105 0.305365 36.2164 0.682565 36.2167C0.682821 36.2167 0.683077 36.2167 0.683334 36.2167H2.11176C2.07212 36.4423 2.05145 36.6709 2.05 36.9V40.3167C2.04974 40.6939 2.35536 40.9997 2.73256 41C2.73282 41 2.73308 41 2.73333 41H38.2667C38.6439 41.0003 38.9497 40.6946 38.95 40.3174C38.95 40.3172 38.95 40.3169 38.95 40.3167V36.9C38.9486 36.6709 38.928 36.4423 38.8882 36.2167H40.3167C40.6939 36.2169 40.9997 35.9113 41 35.5341C41 35.5338 41 35.5336 41 35.5333V10.9333C41.0003 10.5561 40.6946 10.2503 40.3174 10.25ZM29.3833 29.3833C29.3833 30.1382 28.7715 30.75 28.0167 30.75C27.2618 30.75 26.65 30.1382 26.65 29.3833C26.65 28.6285 27.2618 28.0167 28.0167 28.0167C28.7711 28.0176 29.3824 28.6289 29.3833 29.3833ZM12.9833 28.0167C13.7382 28.0167 14.35 28.6285 14.35 29.3833C14.35 30.1382 13.7382 30.75 12.9833 30.75C12.2285 30.75 11.6167 30.1382 11.6167 29.3833C11.6176 28.6289 12.2289 28.0176 12.9833 28.0167ZM8.88333 39.6333H3.41667V36.9C3.41667 35.3904 4.64043 34.1667 6.15 34.1667C7.65957 34.1667 8.88333 35.3904 8.88333 36.9V39.6333ZM4.78333 31.4333C4.78333 30.6785 5.39517 30.0667 6.15 30.0667C6.90483 30.0667 7.51667 30.6785 7.51667 31.4333C7.51667 32.1882 6.90483 32.8 6.15 32.8C5.3956 32.7991 4.78427 32.1877 4.78333 31.4333ZM8.98686 33.9467C8.72916 33.6982 8.44019 33.4843 8.12722 33.3105C9.16948 32.2185 9.12925 30.4883 8.03728 29.4459C6.94531 28.4036 5.21511 28.4439 4.17278 29.5359C3.1646 30.5921 3.1646 32.2542 4.17278 33.3104C3.52053 33.6724 2.97865 34.2044 2.6047 34.8499H1.36667V11.6167H10.9333V27.5944C9.99495 28.6473 10.0266 30.2456 11.0061 31.2605C9.98111 31.8274 9.24661 32.8045 8.98686 33.9467ZM15.7167 39.6333H10.25V34.85C10.25 33.3404 11.4738 32.1167 12.9833 32.1167C14.4929 32.1167 15.7167 33.3404 15.7167 34.85V39.6333ZM23.9167 39.6333H17.0833V34.85C17.0833 32.9631 18.6131 31.4333 20.5 31.4333C22.3869 31.4333 23.9167 32.9631 23.9167 34.85V39.6333ZM18.45 28.0167C18.45 26.8845 19.3678 25.9667 20.5 25.9667C21.6322 25.9667 22.55 26.8845 22.55 28.0167C22.55 29.1489 21.6322 30.0667 20.5 30.0667C19.3683 30.0655 18.4512 29.1484 18.45 28.0167ZM24.6617 32.5006C24.2041 31.6939 23.5233 31.0367 22.7011 30.6078C24.1444 29.3921 24.3289 27.2366 23.1133 25.7934C21.8977 24.3501 19.7422 24.1656 18.2989 25.3811C16.8556 26.5968 16.6711 28.7523 17.8867 30.1956C18.0121 30.3444 18.1499 30.4823 18.2989 30.6078C17.4767 31.0367 16.7959 31.6939 16.3383 32.5006C15.9791 31.9881 15.5079 31.564 14.9606 31.2605C16.0082 30.1887 15.9887 28.4706 14.9169 27.4229C14.2268 26.7483 13.2304 26.491 12.3 26.747V1.36667H28.7V26.747C28.4773 26.6856 28.2476 26.653 28.0167 26.65C26.5111 26.646 25.2873 27.8633 25.2833 29.3689C25.2815 30.0734 25.5525 30.7514 26.0394 31.2605C25.4921 31.564 25.0209 31.9881 24.6617 32.5006ZM30.75 36.9V39.6333H25.2833V34.85C25.2833 33.3404 26.5071 32.1167 28.0167 32.1167C29.5262 32.1167 30.75 33.3404 30.75 34.85V36.9ZM37.5833 39.6333H32.1167V36.9C32.1167 35.3904 33.3404 34.1667 34.85 34.1667C36.3596 34.1667 37.5833 35.3904 37.5833 36.9V39.6333ZM33.4833 31.4333C33.4833 30.6785 34.0952 30.0667 34.85 30.0667C35.6048 30.0667 36.2167 30.6785 36.2167 31.4333C36.2167 32.1882 35.6048 32.8 34.85 32.8C34.0956 32.7991 33.4843 32.1877 33.4833 31.4333ZM39.6333 34.85H38.3953C38.0214 34.2045 37.4795 33.6724 36.8272 33.3105C37.8695 32.2185 37.8292 30.4883 36.7373 29.4459C35.6453 28.4037 33.9151 28.4439 32.8728 29.5359C31.8646 30.5921 31.8646 32.2542 32.8728 33.3104C32.5598 33.4842 32.2708 33.6981 32.0131 33.9466C31.7535 32.8044 31.0189 31.8273 29.9939 31.2604C30.9734 30.2455 31.0051 28.6472 30.0668 27.5943V11.6167H39.6334V34.85H39.6333Z" fill="#363636"/>
<path d="M33.4839 15.7148H32.1172V26.6482H33.4839V15.7148Z" fill="#363636"/>
<path d="M37.5854 15.7148H36.2188V26.6482H37.5854V15.7148Z" fill="#363636"/>
<path d="M4.78073 15.7148H3.41406V26.6482H4.78073V15.7148Z" fill="#363636"/>
<path d="M8.88229 15.7148H7.51562V26.6482H8.88229V15.7148Z" fill="#363636"/>
<path d="M24.6029 2.73438C24.6026 2.73438 24.6023 2.73438 24.6021 2.73438H16.4021C16.0249 2.73412 15.719 3.03974 15.7188 3.41694C15.7188 3.4172 15.7188 3.41745 15.7188 3.41771V8.88437C15.7185 9.26157 16.0241 9.56745 16.4013 9.56771C16.4016 9.56771 16.4018 9.56771 16.4021 9.56771H24.6021C24.9793 9.56796 25.2852 9.26234 25.2854 8.88514C25.2854 8.88489 25.2854 8.88463 25.2854 8.88437V3.41771C25.2857 3.04051 24.9801 2.73463 24.6029 2.73438ZM23.9187 8.20104H17.0854V4.10104H23.9187V8.20104Z" fill="#363636"/>
</g>
<defs>
<clipPath id="clip0_30_18125">
<rect width="41" height="41" fill="white"/>
</clipPath>
</defs>
</svg>
