<svg width="48" height="48" viewBox="0 0 48 48" fill="none" xmlns="http://www.w3.org/2000/svg">
<path d="M42.135 15C42.4425 15.87 43.2675 16.5 44.25 16.5C45.4875 16.5 46.5 15.4875 46.5 14.25C46.5 13.0125 45.4875 12 44.25 12C43.275 12 42.45 12.63 42.135 13.5H32.25V10.5H38.25C38.6625 10.5 39 10.1625 39 9.75V6.615C39.87 6.3075 40.5 5.4825 40.5 4.5C40.5 3.2625 39.4875 2.25 38.25 2.25C37.0125 2.25 36 3.2625 36 4.5C36 5.475 36.63 6.3 37.5 6.615V9H32.25V6.75C32.25 6.3375 31.9125 6 31.5 6H29.25V4.5C29.25 4.0875 28.9125 3.75 28.5 3.75C28.0875 3.75 27.75 4.0875 27.75 4.5V6H24.75V4.5C24.75 4.0875 24.4125 3.75 24 3.75C23.5875 3.75 23.25 4.0875 23.25 4.5V6H20.25V4.5C20.25 4.0875 19.9125 3.75 19.5 3.75C19.0875 3.75 18.75 4.0875 18.75 4.5V6H16.5C16.0875 6 15.75 6.3375 15.75 6.75V9H10.5V6.615C11.37 6.3075 12 5.4825 12 4.5C12 3.2625 10.9875 2.25 9.75 2.25C8.5125 2.25 7.5 3.2625 7.5 4.5C7.5 5.475 8.13 6.3 9 6.615V9.75C9 10.1625 9.3375 10.5 9.75 10.5H15.75V13.5H5.865C5.5575 12.63 4.7325 12 3.75 12C2.5125 12 1.5 13.0125 1.5 14.25C1.5 15.4875 2.5125 16.5 3.75 16.5C4.725 16.5 5.55 15.87 5.865 15H15.75V18H9.75C9.5475 18 9.36 18.0825 9.2175 18.2175C9.075 18.3525 9 18.5475 9 18.75V21.885C8.13 22.1925 7.5 23.0175 7.5 24C7.5 25.2375 8.5125 26.25 9.75 26.25C10.9875 26.25 12 25.2375 12 24C12 23.025 11.37 22.2 10.5 21.885V19.5H15.75V21.75C15.75 22.1625 16.0875 22.5 16.5 22.5H18.75V27.75H12.75C12.3375 27.75 12 28.0875 12 28.5V30.75H3.75C3.3375 30.75 3 31.0875 3 31.5V45C3 45.4125 3.3375 45.75 3.75 45.75H21.75C22.1625 45.75 22.5 45.4125 22.5 45V31.5C22.5 31.0875 22.1625 30.75 21.75 30.75H13.5V29.25H19.5C19.9125 29.25 20.25 28.9125 20.25 28.5V22.5H23.25V24C23.25 24.4125 23.5875 24.75 24 24.75C24.4125 24.75 24.75 24.4125 24.75 24V22.5H27.75V28.5C27.75 28.9125 28.0875 29.25 28.5 29.25H34.5V30.75H26.25C25.8375 30.75 25.5 31.0875 25.5 31.5V45C25.5 45.4125 25.8375 45.75 26.25 45.75H44.25C44.6625 45.75 45 45.4125 45 45V31.5C45 31.0875 44.6625 30.75 44.25 30.75H36V28.5C36 28.0875 35.6625 27.75 35.25 27.75H29.25V22.5H31.5C31.9125 22.5 32.25 22.1625 32.25 21.75V19.5H37.5V21.885C36.63 22.1925 36 23.0175 36 24C36 25.2375 37.0125 26.25 38.25 26.25C39.4875 26.25 40.5 25.2375 40.5 24C40.5 23.025 39.87 22.2 39 21.885V18.75C39 18.555 38.925 18.36 38.7825 18.2175C38.64 18.075 38.4525 18 38.25 18H32.25V15H42.135ZM44.25 13.5C44.6625 13.5 45 13.8375 45 14.25C45 14.6625 44.6625 15 44.25 15C43.8375 15 43.5 14.6625 43.5 14.25C43.5 13.8375 43.8375 13.5 44.25 13.5ZM37.5 4.5C37.5 4.0875 37.8375 3.75 38.25 3.75C38.6625 3.75 39 4.0875 39 4.5C39 4.9125 38.6625 5.25 38.25 5.25C37.8375 5.25 37.5 4.9125 37.5 4.5ZM9.75 5.25C9.3375 5.25 9 4.9125 9 4.5C9 4.0875 9.3375 3.75 9.75 3.75C10.1625 3.75 10.5 4.0875 10.5 4.5C10.5 4.9125 10.1625 5.25 9.75 5.25ZM3.75 15C3.3375 15 3 14.6625 3 14.25C3 13.8375 3.3375 13.5 3.75 13.5C4.1625 13.5 4.5 13.8375 4.5 14.25C4.5 14.6625 4.1625 15 3.75 15ZM10.5 24C10.5 24.4125 10.1625 24.75 9.75 24.75C9.3375 24.75 9 24.4125 9 24C9 23.5875 9.3375 23.25 9.75 23.25C10.1625 23.25 10.5 23.5875 10.5 24ZM21 32.25V44.25H4.5V32.25H21ZM43.5 32.25V44.25H27V32.25H43.5ZM30.75 21H17.25V7.5H30.75V21ZM38.25 23.25C38.6625 23.25 39 23.5875 39 24C39 24.4125 38.6625 24.75 38.25 24.75C37.8375 24.75 37.5 24.4125 37.5 24C37.5 23.5875 37.8375 23.25 38.25 23.25Z" fill="#363636"/>
<path d="M19.2036 17.94C19.5786 18.105 20.0211 17.94 20.1936 17.55L20.6511 16.5H23.6061L24.0636 17.55C24.1836 17.835 24.4611 18 24.7536 18C24.8511 18 24.9561 17.9775 25.0536 17.94C25.4361 17.775 25.6086 17.3325 25.4436 16.95L22.8186 10.95C22.6986 10.68 22.4286 10.5 22.1286 10.5C21.8286 10.5 21.5586 10.68 21.4386 10.95L18.8136 16.95C18.6486 17.3325 18.8136 17.7675 19.2036 17.94ZM22.1286 13.125L22.9536 15H21.3111L22.1361 13.125H22.1286Z" fill="#363636"/>
<path d="M27.75 18C28.1625 18 28.5 17.6625 28.5 17.25V11.25C28.5 10.8375 28.1625 10.5 27.75 10.5C27.3375 10.5 27 10.8375 27 11.25V17.25C27 17.6625 27.3375 18 27.75 18Z" fill="#363636"/>
<path d="M30 36H35.25C35.6625 36 36 35.6625 36 35.25C36 34.8375 35.6625 34.5 35.25 34.5H30C29.5875 34.5 29.25 34.8375 29.25 35.25C29.25 35.6625 29.5875 36 30 36Z" fill="#363636"/>
<path d="M30 39H40.5C40.9125 39 41.25 38.6625 41.25 38.25C41.25 37.8375 40.9125 37.5 40.5 37.5H30C29.5875 37.5 29.25 37.8375 29.25 38.25C29.25 38.6625 29.5875 39 30 39Z" fill="#363636"/>
<path d="M30 42H40.5C40.9125 42 41.25 41.6625 41.25 41.25C41.25 40.8375 40.9125 40.5 40.5 40.5H30C29.5875 40.5 29.25 40.8375 29.25 41.25C29.25 41.6625 29.5875 42 30 42Z" fill="#363636"/>
<path d="M12.75 42C13.1625 42 13.5 41.6625 13.5 41.25V35.25C13.5 34.8375 13.1625 34.5 12.75 34.5C12.3375 34.5 12 34.8375 12 35.25V41.25C12 41.6625 12.3375 42 12.75 42Z" fill="#363636"/>
<path d="M9.75 41.25C10.1625 41.25 10.5 40.9125 10.5 40.5V36C10.5 35.5875 10.1625 35.25 9.75 35.25C9.3375 35.25 9 35.5875 9 36V40.5C9 40.9125 9.3375 41.25 9.75 41.25Z" fill="#363636"/>
<path d="M15.75 41.25C16.1625 41.25 16.5 40.9125 16.5 40.5V36C16.5 35.5875 16.1625 35.25 15.75 35.25C15.3375 35.25 15 35.5875 15 36V40.5C15 40.9125 15.3375 41.25 15.75 41.25Z" fill="#363636"/>
<path d="M6.75 39.75C7.1625 39.75 7.5 39.4125 7.5 39V37.5C7.5 37.0875 7.1625 36.75 6.75 36.75C6.3375 36.75 6 37.0875 6 37.5V39C6 39.4125 6.3375 39.75 6.75 39.75Z" fill="#363636"/>
<path d="M18.75 39.75C19.1625 39.75 19.5 39.4125 19.5 39V37.5C19.5 37.0875 19.1625 36.75 18.75 36.75C18.3375 36.75 18 37.0875 18 37.5V39C18 39.4125 18.3375 39.75 18.75 39.75Z" fill="#363636"/>
</svg>
