<svg width="46" height="46" viewBox="0 0 46 46" fill="none" xmlns="http://www.w3.org/2000/svg">
<g clip-path="url(#clip0_30_18095)">
<path d="M22.9204 5.84523C23.4202 5.84523 23.8253 5.44013 23.8253 4.94042V0.904816C23.8253 0.405106 23.4202 0 22.9204 0C22.4207 0 22.0156 0.405106 22.0156 0.904816V4.94042C22.0157 5.44013 22.4208 5.84523 22.9204 5.84523Z" fill="#363636"/>
<path d="M45.0347 31.0864L43.4363 29.4925C42.8676 28.9246 42.1098 28.6118 41.3023 28.6118C40.786 28.6118 40.2903 28.7403 39.8511 28.9809L36.839 25.9724L36.9857 25.8259C38.2076 24.6015 38.2072 22.6119 36.9856 21.3917C36.549 20.9543 36.0043 20.6627 35.4105 20.5399C35.4923 20.2577 35.5353 19.9622 35.5353 19.6597C35.5353 18.8192 35.2088 18.0311 34.6178 17.4425C34.1812 17.0051 33.6366 16.7135 33.0428 16.5908C33.1245 16.3086 33.1676 16.0131 33.1676 15.7105C33.1676 14.8699 32.8411 14.0819 32.2491 13.4924C31.802 13.0459 31.2525 12.7633 30.6754 12.643C30.9841 11.5786 30.7203 10.381 29.883 9.54226C29.186 8.84822 28.2402 8.54994 27.3287 8.64661L21.36 7.51682C20.4497 7.34415 19.3129 7.22995 18.5953 7.88447C18.55 7.92579 18.5038 7.97332 18.4584 8.02624C17.3457 7.62068 16.048 7.86218 15.1571 8.75218C14.566 9.34254 14.2404 10.1303 14.2404 10.9703C14.2404 11.2729 14.2832 11.5684 14.3649 11.8507C13.7718 11.9733 13.2277 12.2646 12.7926 12.7005C12.2004 13.2904 11.8738 14.0772 11.8732 14.9163C11.8729 15.2196 11.9159 15.5161 11.9981 15.7991C11.4046 15.9214 10.8603 16.2122 10.4238 16.6481C9.83156 17.2397 9.50543 18.0279 9.50543 18.8675C9.50543 19.5106 9.69743 20.1233 10.0532 20.6408C9.60399 20.793 9.1925 21.0465 8.84795 21.3907C7.62518 22.6119 7.62473 24.6016 8.84876 25.8278L8.99494 25.9733L5.98248 28.9803C4.86293 28.4532 3.48356 28.6507 2.5597 29.5734L0.960301 31.1683C0.39141 31.7365 0.0782148 32.4944 0.078125 33.3023C0.078125 34.1104 0.39141 34.8684 0.960301 35.4367L2.95636 37.4303C3.30989 37.7835 3.88283 37.7831 4.23591 37.4296C4.58909 37.076 4.58873 36.5031 4.2352 36.15L2.23914 34.1564C2.01255 33.9301 1.88776 33.6268 1.88776 33.3024C1.88776 32.9782 2.01255 32.675 2.2386 32.4492L3.83809 30.8542C4.23771 30.455 4.84937 30.3955 5.31386 30.6732C5.34656 30.7224 5.38439 30.7691 5.42769 30.8125C5.50523 30.8902 5.59372 30.9498 5.6877 30.9934L14.8601 40.1523C14.9037 40.2473 14.9635 40.3367 15.0416 40.4148C15.1176 40.4909 15.2043 40.5498 15.2963 40.5931C15.4903 40.8124 15.5975 41.0925 15.5975 41.3913C15.5975 41.7157 15.4727 42.0189 15.2461 42.2452L13.6482 43.8412C13.1761 44.3113 12.4081 44.3112 11.9374 43.8426L9.94135 41.8464C9.588 41.493 9.01515 41.493 8.6618 41.8464C8.30844 42.1997 8.30844 42.7726 8.6618 43.1259L10.6593 45.1236C11.2472 45.7091 12.0193 46.0018 12.7918 46.0018C13.5645 46.0018 14.3375 45.7087 14.9262 45.1226L16.525 43.5257C17.0939 42.9574 17.4072 42.1995 17.4072 41.3913C17.4072 40.8146 17.2468 40.2639 16.9486 39.789L20.339 36.4028C20.3426 36.3991 20.3462 36.3954 20.3498 36.3917C20.7381 35.9904 21.8191 36.0655 22.8647 36.1381C23.6075 36.1897 24.4357 36.2471 25.2448 36.1539L28.9575 39.8622C28.717 40.3007 28.5886 40.7958 28.5886 41.3113C28.5886 42.1185 28.9019 42.876 29.4708 43.4443L31.0697 45.0412C31.6383 45.6091 32.3961 45.922 33.2036 45.922C34.011 45.922 34.7689 45.6092 35.3375 45.0412L45.0353 35.3552C45.6042 34.787 45.9175 34.0291 45.9175 33.221C45.9174 32.4131 45.6041 31.6551 45.0347 31.0864ZM21.023 9.29483L24.948 10.0378L22.5987 12.3862C22.2353 12.2115 21.7372 11.8857 21.1908 11.363C20.4428 10.6475 19.9078 9.82141 19.8591 9.30615C19.859 9.30588 19.859 9.30561 19.859 9.30534C19.859 9.30525 19.8589 9.30517 19.8589 9.30508C19.8554 9.26806 19.8545 9.2385 19.855 9.21595C19.9733 9.1872 20.2876 9.15531 21.023 9.29483ZM16.4358 10.0325C16.8942 9.57461 17.6063 9.52178 18.1242 9.87253C18.4178 11.1032 19.4676 12.2186 19.9399 12.6705C20.2899 13.0055 21.4131 14.0097 22.5467 14.2857C22.7001 14.5055 22.7835 14.7676 22.7835 15.0441C22.7835 15.4003 22.6465 15.7334 22.3968 15.9828C22.1479 16.2322 21.8143 16.3695 21.4574 16.3695C21.1005 16.3695 20.7669 16.2322 20.5168 15.9816L20.5167 15.9815L20.5162 15.9811L16.4357 11.9079C16.1869 11.6595 16.0499 11.3265 16.0499 10.9703C16.05 10.6141 16.187 10.281 16.4358 10.0325ZM14.0715 13.9809C14.3204 13.7316 14.6537 13.5942 15.01 13.5942C15.3667 13.5942 15.7011 13.7319 15.9516 13.9822L19.2374 17.2614C19.7548 17.7796 19.7548 18.6229 19.2392 19.1393C18.9889 19.3886 18.6541 19.5259 18.2966 19.5259C17.9392 19.5259 17.6044 19.3886 17.3552 19.1404L17.3551 19.1403L14.8624 16.6481C14.8585 16.6442 14.8543 16.6406 14.8503 16.6367L14.0705 15.8572C13.8203 15.6073 13.6825 15.2736 13.6828 14.9176C13.6832 14.5628 13.8204 14.2308 14.0715 13.9809ZM11.7026 17.9285C11.9518 17.6797 12.2857 17.5427 12.6431 17.5427C12.9976 17.5427 13.3286 17.6777 13.5767 17.9222L16.0771 20.4214C16.3264 20.6697 16.4637 21.0024 16.4637 21.3582C16.4637 21.7138 16.3264 22.0465 16.0761 22.2959C15.827 22.5445 15.4934 22.6816 15.1367 22.6816C14.7793 22.6816 14.4447 22.5442 14.1953 22.2959L13.2888 21.3905C13.2887 21.3902 13.2884 21.39 13.2882 21.3899L11.7027 19.8063C11.4528 19.5566 11.3152 19.2231 11.3152 18.8673C11.3152 18.5116 11.4528 18.178 11.7026 17.9285ZM10.1268 22.6709C10.377 22.421 10.7114 22.2834 11.0684 22.2834C11.4252 22.2834 11.7595 22.4209 12.0096 22.6707L12.9173 23.5773C13.1667 23.8256 13.304 24.1583 13.304 24.5141C13.304 24.8699 13.1667 25.2025 12.9155 25.4528C12.6665 25.7021 12.3329 25.8395 11.976 25.8395C11.6191 25.8395 11.2855 25.7022 11.0347 25.451L10.9211 25.3378C10.9196 25.3363 10.9184 25.3346 10.917 25.3332C10.9153 25.3316 10.9135 25.3301 10.9118 25.3285L10.1277 24.5475C9.61028 24.029 9.60983 23.1873 10.1268 22.6709ZM28.5658 32.9543C28.2126 32.6007 27.6397 32.6004 27.2862 32.9535L26.4812 33.7575C25.7163 34.5224 24.3303 34.4261 22.9899 34.3331C21.5343 34.232 20.0292 34.1276 19.0552 35.1275L15.7224 38.4562L7.38826 30.1343L10.3377 27.1902C10.8251 27.489 11.3877 27.6492 11.9762 27.6492C12.8171 27.6492 13.6055 27.3232 14.1945 26.7332C14.7873 26.1428 15.1139 25.3548 15.1139 24.5142C15.1139 24.5064 15.1134 24.4986 15.1134 24.4908C15.1212 24.4909 15.129 24.4914 15.1368 24.4914C15.9765 24.4914 16.7644 24.1664 17.3541 23.5774C17.947 22.9869 18.2736 22.1988 18.2736 21.3583C18.2736 21.3505 18.273 21.3428 18.273 21.335C18.2809 21.335 18.2888 21.3355 18.2968 21.3355C19.1362 21.3355 19.9245 21.0109 20.5182 20.4196C21.1345 19.8023 21.4394 18.9896 21.4335 18.1786C21.4416 18.1787 21.4497 18.1791 21.4578 18.1791C22.2986 18.179 23.087 17.8532 23.6768 17.2623C24.2679 16.6719 24.5935 15.8842 24.5935 15.0441C24.5935 14.4566 24.4338 13.895 24.1359 13.4085L26.721 10.8245C26.9136 10.6327 27.1512 10.5123 27.4001 10.4626C27.4271 10.4597 27.4537 10.4554 27.48 10.4502C27.8795 10.3951 28.2989 10.5184 28.6044 10.8226C29.1218 11.3409 29.1218 12.1842 28.6063 12.7006L27.819 13.4847C27.8164 13.4873 27.8136 13.4896 27.811 13.4922L26.9042 14.3975C26.5506 14.7506 26.5502 15.3235 26.9034 15.6771C27.2567 16.0307 27.8295 16.031 28.183 15.6779L28.9734 14.8885C28.9736 14.8883 28.9738 14.8881 28.9739 14.888L29.0934 14.7689C29.6123 14.2548 30.4529 14.2559 30.9712 14.7735C31.2206 15.0218 31.3579 15.3545 31.3579 15.7103C31.3579 16.066 31.2206 16.3987 30.9692 16.649L30.1774 17.4424C30.1773 17.4425 30.1772 17.4426 30.1771 17.4428L29.2704 18.3458C28.9163 18.6984 28.9152 19.2714 29.2678 19.6253C29.6205 19.9794 30.1933 19.9805 30.5474 19.6279L31.4582 18.7208C31.7072 18.4714 32.0408 18.3341 32.3976 18.3341C32.7546 18.3341 33.0882 18.4714 33.339 18.7226C33.5884 18.971 33.7257 19.3037 33.7257 19.6595C33.7257 20.0152 33.5884 20.3479 33.3376 20.5976L31.759 22.1768C31.4057 22.5303 31.4058 23.1031 31.7592 23.4564C31.9359 23.633 32.1673 23.7212 32.3989 23.7212C32.6305 23.7212 32.8621 23.6328 33.0387 23.4561L33.8124 22.6822C33.8168 22.678 33.8215 22.6743 33.826 22.6699C34.0749 22.4205 34.4085 22.2832 34.7654 22.2832C35.1223 22.2832 35.4559 22.4205 35.7058 22.6708C36.2226 23.1871 36.2222 24.0289 35.7058 24.5463L34.9192 25.3319C34.9189 25.3322 34.9185 25.3325 34.9183 25.3328C34.918 25.333 34.9177 25.3334 34.9175 25.3337L33.669 26.5806C33.3155 26.9338 33.3151 27.5067 33.6682 27.8602C33.8449 28.0371 34.0767 28.1256 34.3084 28.1256C34.5398 28.1256 34.7712 28.0374 34.9478 27.861L35.5585 27.2511L38.4853 30.1745L30.1519 38.4978L27.166 35.5156C27.3742 35.3817 27.5734 35.2243 27.7603 35.0373L28.5649 34.2337C28.9186 33.8808 28.919 33.3078 28.5658 32.9543ZM43.7564 34.0748L34.0586 43.7609C33.8317 43.9875 33.528 44.1123 33.2035 44.1123C32.879 44.1123 32.5753 43.9875 32.3484 43.7608L30.7494 42.1638C30.5228 41.9376 30.3981 41.6348 30.3981 41.3113C30.3981 40.9878 30.5228 40.6851 30.7494 40.4588L40.4473 30.7727C40.6742 30.546 40.9778 30.4212 41.3024 30.4212C41.6269 30.4212 41.9306 30.546 42.1581 30.7732L43.7565 32.3672C43.9831 32.5935 44.1078 32.8966 44.1078 33.2209C44.1078 33.5454 43.983 33.8486 43.7564 34.0748Z" fill="#363636"/>
<path d="M10.9065 5.08195C11.0831 5.25822 11.3144 5.34627 11.5456 5.34627C11.7774 5.34627 12.0093 5.25768 12.186 5.0806C12.539 4.72688 12.5385 4.15404 12.1848 3.80104L8.88769 0.510516C8.53407 0.157519 7.96113 0.157969 7.60814 0.511773C7.25514 0.865488 7.25568 1.43833 7.6094 1.79133L10.9065 5.08195Z" fill="#363636"/>
<path d="M34.2954 5.34623C34.5268 5.34623 34.7582 5.25801 34.9348 5.08164L38.2294 1.79102C38.5829 1.43794 38.5833 0.865005 38.2301 0.51147C37.877 0.157935 37.3042 0.157575 36.9506 0.510751L33.656 3.80137C33.3025 4.15445 33.3021 4.72739 33.6553 5.08092C33.832 5.25783 34.0637 5.34623 34.2954 5.34623Z" fill="#363636"/>
<path d="M5.64238 38.9189C5.29208 39.2753 5.29693 39.8482 5.65334 40.1985L5.65595 40.201C5.83177 40.3739 6.06007 40.4599 6.28827 40.4599C6.52249 40.4599 6.75671 40.3693 6.93415 40.1888C7.28446 39.8325 7.27826 39.2583 6.92194 38.908C6.56571 38.5577 5.99286 38.5626 5.64238 38.9189Z" fill="#363636"/>
<path d="M30.7821 31.6462C30.9198 31.6462 31.0594 31.6149 31.1905 31.5488C31.6366 31.3238 31.8159 30.7797 31.5909 30.3335C31.3658 29.8873 30.8216 29.708 30.3756 29.9331L30.3705 29.9356C29.9244 30.1606 29.7477 30.7035 29.9726 31.1496C30.1315 31.4648 30.4509 31.6462 30.7821 31.6462Z" fill="#363636"/>
</g>
<defs>
<clipPath id="clip0_30_18095">
<rect width="46" height="46" fill="white"/>
</clipPath>
</defs>
</svg>
