<svg width="25" height="25" viewBox="0 0 25 25" fill="none" xmlns="http://www.w3.org/2000/svg">
<g clip-path="url(#clip0_85_5187)">
<path d="M12.5 25C19.4036 25 25 19.4036 25 12.5C25 5.59644 19.4036 0 12.5 0C5.59644 0 0 5.59644 0 12.5C0 19.4036 5.59644 25 12.5 25Z" fill="url(#paint0_linear_85_5187)"/>
<path d="M24.9067 14.084C24.2871 18.9873 20.8271 23.0054 16.2271 24.4355L9.0625 17.2754L18.5474 7.72656L24.9067 14.084Z" fill="url(#paint1_linear_85_5187)"/>
<path d="M18.5728 7.76035L18.541 7.72813C18.3771 7.56416 18.1824 7.43409 17.9682 7.34535C17.754 7.25661 17.5244 7.21094 17.2925 7.21094C17.0606 7.21094 16.831 7.25661 16.6168 7.34535C16.4026 7.43409 16.2079 7.56416 16.044 7.72813L10.3047 13.4679L8.95853 12.1217C8.79253 11.9556 8.59545 11.8239 8.37854 11.7341C8.16163 11.6442 7.92915 11.598 7.69437 11.598C7.45958 11.598 7.2271 11.6442 7.01019 11.7341C6.79329 11.8239 6.59621 11.9556 6.43021 12.1217C6.2641 12.2877 6.13233 12.4848 6.04243 12.7018C5.95252 12.9187 5.90625 13.1512 5.90625 13.3861C5.90625 13.6209 5.95252 13.8535 6.04243 14.0704C6.13233 14.2874 6.2641 14.4845 6.43021 14.6505L9.02445 17.2447L9.05618 17.277C9.2201 17.4409 9.4147 17.571 9.62889 17.6597C9.84307 17.7484 10.0726 17.7941 10.3045 17.7941C10.5363 17.7941 10.7659 17.7484 10.9801 17.6597C11.1942 17.571 11.3889 17.4409 11.5528 17.277L11.5689 17.2608L18.5728 10.2564C18.9038 9.92543 19.0897 9.4765 19.0897 9.0084C19.0897 8.5403 18.9038 8.09137 18.5728 7.76035Z" fill="white"/>
</g>
<defs>
<linearGradient id="paint0_linear_85_5187" x1="3.66113" y1="3.66113" x2="21.3389" y2="21.3389" gradientUnits="userSpaceOnUse">
<stop stop-color="#E67300"/>
<stop offset="1" stop-color="#FF9A35"/>
</linearGradient>
<linearGradient id="paint1_linear_85_5187" x1="13.7891" y1="12.4849" x2="21.9932" y2="20.6895" gradientUnits="userSpaceOnUse">
<stop stop-color="#B34118"/>
<stop offset="0.93" stop-color="#B34C18" stop-opacity="0"/>
</linearGradient>
<clipPath id="clip0_85_5187">
<rect width="25" height="25" fill="white"/>
</clipPath>
</defs>
</svg>
