<svg width="34" height="34" viewBox="0 0 34 34" fill="none" xmlns="http://www.w3.org/2000/svg">
<g clip-path="url(#clip0_52_3168)">
<path fill-rule="evenodd" clip-rule="evenodd" d="M17.3555 2.125H3.54297C2.97984 2.125 2.43797 2.34883 2.04131 2.74727C1.6411 3.14606 1.41797 3.68652 1.41797 4.25V31.875C1.41797 33.0487 2.37068 34 3.54297 34H24.793C25.9653 34 26.918 33.0487 26.918 31.875C26.918 28.2869 26.918 19.125 26.918 19.125C26.918 18.734 26.5992 18.4167 26.2096 18.4167C25.8201 18.4167 25.5013 18.734 25.5013 19.125V31.875C25.5013 32.2664 25.1861 32.5833 24.793 32.5833H3.54297C3.14984 32.5833 2.83464 32.2664 2.83464 31.875C2.83464 26.7707 2.83464 9.35425 2.83464 4.25C2.83464 4.06229 2.90904 3.88202 3.04362 3.74921C3.17467 3.6164 3.35526 3.54167 3.54297 3.54167H17.3555C17.7451 3.54167 18.0638 3.22433 18.0638 2.83333C18.0638 2.44233 17.7451 2.125 17.3555 2.125ZM6.90755 26.2083H21.4284C21.818 26.2083 22.1367 25.891 22.1367 25.5C22.1367 25.109 21.818 24.7917 21.4284 24.7917H6.90755C6.51797 24.7917 6.19922 25.109 6.19922 25.5C6.19922 25.891 6.51797 26.2083 6.90755 26.2083ZM6.90755 22.3125H21.4284C21.818 22.3125 22.1367 21.9952 22.1367 21.6042C22.1367 21.2132 21.818 20.8958 21.4284 20.8958H6.90755C6.51797 20.8958 6.19922 21.2132 6.19922 21.6042C6.19922 21.9952 6.51797 22.3125 6.90755 22.3125ZM13.4596 10.2708H7.08464C6.69505 10.2708 6.3763 10.5882 6.3763 10.9792C6.3763 11.3702 6.69505 11.6875 7.08464 11.6875H9.5638V18.7708C9.5638 19.1618 9.88255 19.4792 10.2721 19.4792C10.6617 19.4792 10.9805 19.1618 10.9805 18.7708V11.6875H13.4596C13.8492 11.6875 14.168 11.3702 14.168 10.9792C14.168 10.5882 13.8492 10.2708 13.4596 10.2708ZM14.3451 18.7708H21.4284C21.818 18.7708 22.1367 18.4535 22.1367 18.0625C22.1367 17.6715 21.818 17.3542 21.4284 17.3542H14.3451C13.9555 17.3542 13.6367 17.6715 13.6367 18.0625C13.6367 18.4535 13.9555 18.7708 14.3451 18.7708ZM28.9863 9.67087C28.8836 9.39285 28.618 9.20833 28.324 9.20833C28.0265 9.20833 27.7609 9.39285 27.6582 9.67087L26.8152 11.9506L24.5344 12.7939C24.2582 12.897 24.074 13.1619 24.074 13.4583C24.074 13.7548 24.2582 14.0197 24.5344 14.1228L26.8152 14.966L27.6582 17.2458C27.7609 17.5238 28.0265 17.7083 28.324 17.7083C28.618 17.7083 28.8836 17.5238 28.9863 17.2458L29.8292 14.966L32.11 14.1228C32.3898 14.0197 32.574 13.7548 32.574 13.4583C32.574 13.1619 32.3898 12.897 32.11 12.7939L29.8292 11.9506L28.9863 9.67087ZM16.293 15.2292H19.1263C19.5159 15.2292 19.8346 14.9118 19.8346 14.5208C19.8346 14.1298 19.5159 13.8125 19.1263 13.8125H16.293C15.9034 13.8125 15.5846 14.1298 15.5846 14.5208C15.5846 14.9118 15.9034 15.2292 16.293 15.2292ZM28.324 11.9577L28.6144 12.7475C28.6853 12.9416 28.8411 13.0942 29.0323 13.1661L29.8221 13.4583L29.0323 13.7505C28.8411 13.8224 28.6853 13.9751 28.6144 14.1691L28.324 14.9589L28.03 14.1691C27.9592 13.9751 27.8069 13.8224 27.6121 13.7505L26.8223 13.4583L27.6121 13.1661C27.8069 13.0942 27.9592 12.9416 28.03 12.7475L28.324 11.9577ZM22.6254 0.462542C22.5227 0.184521 22.2571 0 21.9596 0C21.6621 0 21.3966 0.184521 21.2938 0.462542L19.5903 5.06883L14.9861 6.77308C14.7063 6.87614 14.5221 7.14106 14.5221 7.4375C14.5221 7.73394 14.7063 7.99886 14.9861 8.10192L19.5903 9.80617L21.2938 14.4125C21.3966 14.6905 21.6621 14.875 21.9596 14.875C22.2571 14.875 22.5227 14.6905 22.6254 14.4125L24.329 9.80617L28.9332 8.10192C29.2129 7.99886 29.3971 7.73394 29.3971 7.4375C29.3971 7.14106 29.2129 6.87614 28.9332 6.77308L24.329 5.06883L22.6254 0.462542ZM21.9596 2.7494L23.1142 5.86571C23.1851 6.05979 23.3373 6.21244 23.5321 6.28433L26.6488 7.4375L23.5321 8.59066C23.3373 8.66256 23.1851 8.81521 23.1142 9.00929L21.9596 12.1256L20.805 9.00929C20.7342 8.81521 20.5819 8.66256 20.3872 8.59066L17.2705 7.4375L20.3872 6.28433C20.5819 6.21244 20.7342 6.05979 20.805 5.86571L21.9596 2.7494ZM16.293 11.6875H17.7096C18.0992 11.6875 18.418 11.3702 18.418 10.9792C18.418 10.5882 18.0992 10.2708 17.7096 10.2708H16.293C15.9034 10.2708 15.5846 10.5882 15.5846 10.9792C15.5846 11.3702 15.9034 11.6875 16.293 11.6875ZM27.6263 2.47917H26.918C26.5284 2.47917 26.2096 2.7965 26.2096 3.1875C26.2096 3.5785 26.5284 3.89583 26.918 3.89583H27.6263V4.60417C27.6263 4.99517 27.9451 5.3125 28.3346 5.3125C28.7242 5.3125 29.043 4.99517 29.043 4.60417V3.89583H29.7513C30.1409 3.89583 30.4596 3.5785 30.4596 3.1875C30.4596 2.7965 30.1409 2.47917 29.7513 2.47917H29.043V1.77083C29.043 1.37983 28.7242 1.0625 28.3346 1.0625C27.9451 1.0625 27.6263 1.37983 27.6263 1.77083V2.47917Z" fill="#FF7B02"/>
<path fill-rule="evenodd" clip-rule="evenodd" d="M28.9863 9.67087C28.8836 9.39285 28.618 9.20833 28.324 9.20833C28.0265 9.20833 27.7609 9.39285 27.6582 9.67087L26.8152 11.9506L24.5344 12.7939C24.2582 12.897 24.074 13.1619 24.074 13.4583C24.074 13.7548 24.2582 14.0197 24.5344 14.1228L26.8152 14.966L27.6582 17.2458C27.7609 17.5238 28.0265 17.7083 28.324 17.7083C28.618 17.7083 28.8836 17.5238 28.9863 17.2458L29.8292 14.966L32.11 14.1228C32.3898 14.0197 32.574 13.7548 32.574 13.4583C32.574 13.1619 32.3898 12.897 32.11 12.7939L29.8292 11.9506L28.9863 9.67087ZM28.324 11.9577L28.6144 12.7475C28.6853 12.9416 28.8411 13.0942 29.0323 13.1661L29.8221 13.4583L29.0323 13.7505C28.8411 13.8224 28.6853 13.9751 28.6144 14.1691L28.324 14.9589L28.03 14.1691C27.9592 13.9751 27.8069 13.8224 27.6121 13.7505L26.8223 13.4583L27.6121 13.1661C27.8069 13.0942 27.9592 12.9416 28.03 12.7475L28.324 11.9577ZM22.6254 0.462542C22.5227 0.184521 22.2571 0 21.9596 0C21.6621 0 21.3966 0.184521 21.2938 0.462542L19.5903 5.06883L14.9861 6.77308C14.7063 6.87614 14.5221 7.14106 14.5221 7.4375C14.5221 7.73394 14.7063 7.99886 14.9861 8.10192L19.5903 9.80617L21.2938 14.4125C21.3966 14.6905 21.6621 14.875 21.9596 14.875C22.2571 14.875 22.5227 14.6905 22.6254 14.4125L24.329 9.80617L28.9332 8.10192C29.2129 7.99886 29.3971 7.73394 29.3971 7.4375C29.3971 7.14106 29.2129 6.87614 28.9332 6.77308L24.329 5.06883L22.6254 0.462542ZM21.9596 2.7494L23.1142 5.86571C23.1851 6.05979 23.3373 6.21244 23.5321 6.28433L26.6488 7.4375L23.5321 8.59066C23.3373 8.66256 23.1851 8.81521 23.1142 9.00929L21.9596 12.1256L20.805 9.00929C20.7342 8.81521 20.5819 8.66256 20.3872 8.59066L17.2705 7.4375L20.3872 6.28433C20.5819 6.21244 20.7342 6.05979 20.805 5.86571L21.9596 2.7494ZM27.6263 2.47917H26.918C26.5284 2.47917 26.2096 2.7965 26.2096 3.1875C26.2096 3.5785 26.5284 3.89583 26.918 3.89583H27.6263V4.60417C27.6263 4.99517 27.9451 5.3125 28.3346 5.3125C28.7242 5.3125 29.043 4.99517 29.043 4.60417V3.89583H29.7513C30.1409 3.89583 30.4596 3.5785 30.4596 3.1875C30.4596 2.7965 30.1409 2.47917 29.7513 2.47917H29.043V1.77083C29.043 1.37983 28.7242 1.0625 28.3346 1.0625C27.9451 1.0625 27.6263 1.37983 27.6263 1.77083V2.47917Z" fill="white"/>
</g>
<defs>
<clipPath id="clip0_52_3168">
<rect width="34" height="34" fill="white"/>
</clipPath>
</defs>
</svg>
