<svg width="35" height="36" viewBox="0 0 35 36" fill="none" xmlns="http://www.w3.org/2000/svg">
<path d="M11.1737 22.1546C11.3205 22.2159 11.4858 22.2163 11.6329 22.1558C11.7801 22.0953 11.8972 21.9787 11.9585 21.8319L12.8045 19.8009H16.0049L16.8509 21.8319C16.9784 22.1377 17.3299 22.2822 17.6357 22.1547C17.9416 22.0271 18.0861 21.6757 17.9585 21.3699L14.9585 14.1699C14.8653 13.9464 14.6469 13.8008 14.4047 13.8008C14.1626 13.8008 13.9441 13.9464 13.851 14.1699L10.851 21.3699C10.7897 21.5168 10.7893 21.682 10.8498 21.8292C10.9103 21.9763 11.0268 22.0934 11.1737 22.1546ZM14.4047 15.9608L15.5045 18.6009H13.3049L14.4047 15.9608Z" fill="#FF7B02"/>
<path fill-rule="evenodd" clip-rule="evenodd" d="M19.2055 21.0008C18.8741 21.0008 18.6055 21.2694 18.6055 21.6008C18.6055 21.9322 18.8741 22.2008 19.2055 22.2008H22.8055C23.1369 22.2008 23.4055 21.9322 23.4055 21.6008C23.4055 21.2694 23.1369 21.0008 22.8055 21.0008H21.6055V15.0008H22.8055C23.1369 15.0008 23.4055 14.7322 23.4055 14.4008C23.4055 14.0694 23.1369 13.8008 22.8055 13.8008H19.2055C18.8741 13.8008 18.6055 14.0694 18.6055 14.4008C18.6055 14.7322 18.8741 15.0008 19.2055 15.0008H20.4055V21.0008H19.2055Z" fill="#FF7B02"/>
<path d="M0.0043321 26.4C0.0043321 27.7255 1.07887 28.8 2.40432 28.8C2.70494 28.7989 3.00261 28.7406 3.28151 28.6284C4.6999 29.7144 6.70153 30.2808 9.16151 30.2808C9.53229 30.2808 9.91753 30.2634 10.3081 30.2382C12.0505 33.7986 14.5645 36 17.4043 36C20.2441 36 22.7581 33.7986 24.5011 30.24C24.8923 30.2652 25.2769 30.2826 25.6477 30.2826C28.1076 30.2826 30.1093 29.7162 31.5277 28.6302C31.8065 28.7417 32.1039 28.7993 32.4043 28.8C33.4636 28.797 34.3956 28.0998 34.6977 27.0845C34.9998 26.0691 34.6006 24.9758 33.7152 24.3942C33.7992 22.4622 33.0522 20.2697 31.5319 18C33.0522 15.7308 33.7993 13.5384 33.7152 11.6058C34.7525 10.9364 35.1109 9.58807 34.5429 8.49197C33.9749 7.39588 32.6666 6.91125 31.5216 7.37273C29.8914 6.12535 27.4842 5.57276 24.5016 5.76715C22.7606 2.20382 20.2454 0 17.4043 0C14.5633 0 12.0481 2.20382 10.3051 5.76721C7.32374 5.574 4.91774 6.12718 3.28511 7.37279C2.14083 6.91503 0.835938 7.40037 0.268878 8.49463C-0.298183 9.58889 0.0577137 10.9349 1.09151 11.6058C1.00872 13.5372 1.7563 15.7296 3.27673 18C1.7563 20.2698 1.00872 22.4622 1.09334 24.3942C0.414732 24.8359 0.00509975 25.5904 0.0043321 26.4ZM1.20435 26.4C1.20435 25.7373 1.74159 25.2 2.40438 25.2C3.06716 25.2 3.6044 25.7372 3.6044 26.4C3.6044 27.0628 3.06716 27.6 2.40438 27.6C2.08609 27.6 1.78086 27.4736 1.55582 27.2486C1.33078 27.0235 1.20435 26.7183 1.20435 26.4ZM11.0498 7.03201C12.6471 7.22328 14.2208 7.57652 15.7466 8.08624C14.6726 8.56555 13.6238 9.09942 12.6044 9.68585C11.5813 10.2763 10.5903 10.9206 9.63556 11.616C9.95013 10.044 10.424 8.50804 11.0498 7.03201ZM25.1725 11.616C24.2181 10.9205 23.2272 10.2762 22.2043 9.68585C21.1863 9.10013 20.1394 8.56626 19.0675 8.08624C20.5918 7.57675 22.1638 7.22357 23.7595 7.03201C24.3849 8.50809 24.8583 10.044 25.1725 11.616ZM23.7589 28.968C22.1616 28.7768 20.5879 28.4235 19.0621 27.9138C20.1361 27.4345 21.1849 26.9006 22.2043 26.3142C23.2274 25.7238 24.2183 25.0795 25.1731 24.384C24.8586 25.9561 24.3848 27.492 23.7589 28.968ZM21.6044 10.7256C22.9574 11.5043 24.2509 12.3821 25.4743 13.3518C25.695 14.8914 25.8053 16.4448 25.8043 18C25.8054 19.5553 25.6954 21.1087 25.4749 22.6482C24.2513 23.6179 22.9576 24.4957 21.6044 25.2744C20.2555 26.0546 18.8518 26.736 17.4043 27.3132C15.9568 26.7357 14.5532 26.0539 13.2043 25.2732C11.8513 24.4945 10.5578 23.6167 9.33435 22.647C8.89513 19.5637 8.89513 16.4338 9.33435 13.3506C10.5578 12.3813 11.8514 11.504 13.2043 10.7256C14.5543 9.94479 15.9593 9.26299 17.408 8.68554C18.8542 9.26329 20.2567 9.94508 21.6044 10.7256ZM26.8244 14.4858C28.0211 15.5452 29.108 16.7226 30.0686 18C29.1093 19.2772 28.0238 20.4546 26.8286 21.5142C26.9464 20.3466 27.0051 19.1737 27.0044 18C27.0048 16.8264 26.9456 15.6535 26.8274 14.4858H26.8244ZM7.98434 21.5142C6.78733 20.4551 5.70039 19.2777 4.74011 18C5.69939 16.7228 6.78485 15.5455 7.98009 14.4858C7.74406 16.8227 7.74406 19.1774 7.98009 21.5142H7.98434ZM12.6079 26.3142C13.6259 26.8999 14.6729 27.4338 15.7447 27.9138C14.2205 28.4233 12.6484 28.7765 11.0527 28.968C10.4271 27.492 9.95349 25.9561 9.63911 24.384C10.5927 25.0795 11.5825 25.7238 12.6043 26.3142H12.6079ZM17.4043 34.8C15.1508 34.8 13.1029 33.0126 11.5927 30.1134C13.5813 29.8315 15.5311 29.3234 17.4043 28.599C19.2783 29.3238 21.229 29.8318 23.2183 30.1134C21.7052 33.0126 19.6579 34.8 17.4043 34.8ZM32.4044 27.6C31.7417 27.6 31.2044 27.0628 31.2044 26.4C31.2044 25.7372 31.7416 25.2 32.4044 25.2C33.0672 25.2 33.6044 25.7372 33.6044 26.4C33.6044 27.0628 33.0671 27.6 32.4044 27.6ZM32.5303 24.0126C32.4878 24.0126 32.4475 24 32.4043 24C31.0788 24 30.0043 25.0746 30.0043 26.4C30.0066 26.9365 30.1903 27.4565 30.5258 27.8754C29.219 28.7376 27.3115 29.1474 25.0267 29.0616C25.7707 27.2031 26.2979 25.2651 26.5981 23.286C28.15 22.0364 29.5545 20.614 30.7843 19.0464C31.7974 20.5172 32.4001 22.2315 32.5303 24.0126ZM33.6043 9.59999C33.6043 10.2627 33.0671 10.8 32.4043 10.8C31.7415 10.8 31.2043 10.2628 31.2043 9.59999C31.2043 8.93721 31.7415 8.39997 32.4043 8.39997C33.0671 8.39997 33.6043 8.93727 33.6043 9.59999ZM30.5258 8.12462C30.1904 8.54347 30.0066 9.06346 30.0043 9.59999C30.0043 10.9255 31.0789 12 32.4043 12C32.4475 12 32.4877 11.9898 32.5303 11.9874C32.4003 13.7686 31.7976 15.4829 30.7843 16.9536C29.5543 15.386 28.1496 13.9636 26.5975 12.714C26.2969 10.7348 25.769 8.79673 25.0243 6.93842C27.311 6.85203 29.2196 7.26001 30.5258 8.12462ZM17.4043 1.20002C19.6579 1.20002 21.7058 2.98742 23.216 5.88661C21.2285 6.16876 19.2796 6.67682 17.4074 7.40102C15.5334 6.67629 13.5827 6.16822 11.5934 5.88661C13.1035 2.98742 15.1508 1.20002 17.4043 1.20002ZM2.40432 8.40003C3.06704 8.40003 3.60434 8.93727 3.60434 9.60005C3.60434 10.2628 3.0671 10.8001 2.40432 10.8001C1.74153 10.8001 1.20429 10.2628 1.20429 9.60005C1.20429 8.93727 1.74159 8.40003 2.40432 8.40003ZM2.27836 11.9874C2.32094 11.9874 2.36115 12 2.40438 12C3.72988 12 4.80436 10.9254 4.80436 9.59999C4.80212 9.06346 4.61835 8.54341 4.28294 8.12462C5.58914 7.26243 7.49652 6.85321 9.78195 6.93842C9.03809 8.79685 8.51077 10.7349 8.21056 12.714C6.65884 13.9636 5.25438 15.3857 4.02436 16.953C3.01094 15.4826 2.40821 13.7685 2.27836 11.9874ZM4.02436 19.047C5.25497 20.6141 6.65978 22.0363 8.21174 23.286C8.51231 25.2654 9.03998 27.2036 9.78437 29.0622C7.50078 29.1486 5.59215 28.7376 4.28537 27.8754C4.61989 27.4562 4.80276 26.9362 4.80436 26.4C4.80436 25.0745 3.72982 24 2.40438 24C2.36115 24 2.321 24.0108 2.27836 24.0126C2.40845 22.2316 3.01112 20.5175 4.02436 19.047Z" fill="white"/>
</svg>
