<svg width="35" height="31" viewBox="0 0 35 31" fill="none" xmlns="http://www.w3.org/2000/svg">
<path d="M24.9233 20.6215L23.533 20.3682C23.4774 20.2173 23.4163 20.0685 23.3499 19.9234L24.1535 18.7628C24.2507 18.6223 24.2955 18.4523 24.2802 18.2822C24.2648 18.1121 24.1902 17.9529 24.0695 17.8321L22.2757 16.0391C22.1552 15.9181 21.9959 15.8434 21.8259 15.8281C21.6558 15.8127 21.4857 15.8577 21.3455 15.9551L20.1846 16.7578C20.0394 16.6916 19.8909 16.6305 19.7392 16.5747L19.4868 15.1848C19.4562 15.0168 19.3677 14.8648 19.2367 14.7554C19.1056 14.646 18.9403 14.586 18.7695 14.5859H16.2331C16.0623 14.586 15.8969 14.6459 15.7658 14.7554C15.6347 14.8648 15.5462 15.0168 15.5157 15.1848L15.2633 16.5747C15.1116 16.6303 14.9631 16.6913 14.8178 16.7578L13.6568 15.9546C13.5165 15.8573 13.3464 15.8124 13.1764 15.8278C13.0064 15.8431 12.8471 15.9178 12.7265 16.0386L10.9331 17.8316C10.8124 17.9523 10.7378 18.1116 10.7225 18.2817C10.7071 18.4518 10.7519 18.6218 10.8491 18.7622L11.6527 19.9229C11.5864 20.0682 11.5252 20.2171 11.4696 20.3677L10.0793 20.6212C9.91125 20.6516 9.7592 20.7401 9.64973 20.8712C9.54027 21.0023 9.48036 21.1677 9.48047 21.3385V23.875C9.48043 24.0458 9.54037 24.2111 9.64983 24.3422C9.75928 24.4732 9.9113 24.5617 10.0793 24.5921L11.4696 24.8455C11.5252 24.9965 11.5863 25.1453 11.6527 25.2903L10.8491 26.4503C10.7519 26.5907 10.7071 26.7608 10.7224 26.9309C10.7378 27.1009 10.8123 27.2603 10.9331 27.381L12.7265 29.1747C12.8473 29.2953 13.0065 29.3697 13.1764 29.385C13.3464 29.4004 13.5163 29.3557 13.6568 29.2587L14.818 28.4558C14.9632 28.522 15.1117 28.583 15.2634 28.6388L15.5159 30.0287C15.5464 30.1967 15.6349 30.3487 15.7659 30.4581C15.897 30.5676 16.0623 30.6276 16.2331 30.6276H18.7695C18.9403 30.6276 19.1057 30.5676 19.2368 30.4582C19.3679 30.3487 19.4564 30.1968 19.4869 30.0287L19.7393 28.6388C19.891 28.5832 20.0395 28.5222 20.1848 28.4558L21.3458 29.259C21.4863 29.3559 21.6562 29.4006 21.8262 29.3852C21.9961 29.3699 22.1553 29.2955 22.2761 29.175L24.0699 27.3812C24.1906 27.2605 24.2652 27.1012 24.2805 26.9311C24.2959 26.761 24.2511 26.5909 24.1539 26.4505L23.3503 25.2905C23.4165 25.1452 23.4778 24.9964 23.5333 24.8457L24.9236 24.5923C25.0916 24.5618 25.2436 24.4733 25.353 24.3422C25.4624 24.2111 25.5222 24.0458 25.5221 23.875V21.3385C25.5222 21.1678 25.4622 21.0024 25.3528 20.8714C25.2433 20.7403 25.0913 20.6519 24.9233 20.6215ZM24.0638 23.2662L22.8461 23.4883C22.7127 23.5124 22.5887 23.5732 22.488 23.6639C22.3873 23.7546 22.3139 23.8716 22.276 24.0017C22.176 24.3483 22.0384 24.6828 21.8656 24.9994C21.8003 25.1182 21.7695 25.2528 21.7765 25.3881C21.7836 25.5235 21.8282 25.6542 21.9055 25.7655L22.6082 26.7802L21.6754 27.7136L20.6597 27.0109C20.5484 26.9339 20.4178 26.8893 20.2825 26.8823C20.1473 26.8753 20.0128 26.906 19.8941 26.9711C19.5774 27.1442 19.2426 27.282 18.8958 27.3819C18.7656 27.4198 18.6486 27.4931 18.5579 27.5938C18.4671 27.6944 18.4062 27.8183 18.382 27.9516L18.1611 29.1693H16.8413L16.6202 27.9516C16.5959 27.8182 16.535 27.6943 16.4443 27.5937C16.3535 27.4931 16.2365 27.4197 16.1064 27.3819C15.7596 27.2819 15.4248 27.1442 15.1081 26.9711C14.9894 26.9059 14.8549 26.8752 14.7196 26.8822C14.5844 26.8892 14.4538 26.9338 14.3425 27.0109L13.327 27.7137L12.3942 26.7804L13.0971 25.7655C13.1743 25.6541 13.2189 25.5234 13.2259 25.3881C13.2329 25.2527 13.202 25.1181 13.1367 24.9994C12.9638 24.6828 12.8262 24.3483 12.7262 24.0017C12.6884 23.8716 12.615 23.7546 12.5143 23.6639C12.4135 23.5732 12.2895 23.5124 12.1561 23.4883L10.9388 23.2662V21.9474L12.1565 21.7252C12.2899 21.7012 12.4139 21.6404 12.5146 21.5497C12.6153 21.459 12.6887 21.3419 12.7266 21.2118C12.8265 20.8653 12.9642 20.5308 13.137 20.2142C13.2023 20.0954 13.2331 19.9608 13.2261 19.8255C13.219 19.6901 13.1744 19.5594 13.0971 19.448L12.3944 18.4326L13.3272 17.4998L14.3426 18.2026C14.4541 18.2793 14.5847 18.3237 14.7198 18.3307C14.855 18.3377 14.9894 18.3072 15.1082 18.2424C15.425 18.0693 15.7597 17.9316 16.1066 17.8316C16.2367 17.7938 16.3537 17.7204 16.4444 17.6198C16.5352 17.5192 16.5961 17.3952 16.6203 17.2619L16.8416 16.0443H18.1613L18.3824 17.262C18.4067 17.3953 18.4676 17.5192 18.5583 17.6199C18.6491 17.7205 18.7661 17.7938 18.8962 17.8317C19.243 17.9316 19.5778 18.0694 19.8945 18.2425C20.0133 18.3072 20.1478 18.3378 20.2829 18.3308C20.4181 18.3237 20.5486 18.2794 20.6601 18.2027L21.6756 17.4998L22.6084 18.4327L21.9055 19.448C21.8283 19.5594 21.7837 19.6902 21.7767 19.8255C21.7697 19.9609 21.8006 20.0955 21.8659 20.2142C22.0388 20.5308 22.1764 20.8653 22.2764 21.2118C22.3142 21.3419 22.3876 21.459 22.4883 21.5497C22.5891 21.6404 22.7131 21.7012 22.8465 21.7252L24.0642 21.9474L24.0638 23.2662Z" fill="#E67300"/>
<path d="M17.5013 18.9609C16.7802 18.9609 16.0753 19.1748 15.4758 19.5754C14.8762 19.976 14.4089 20.5454 14.133 21.2116C13.857 21.8778 13.7848 22.6108 13.9255 23.318C14.0662 24.0253 14.4134 24.6749 14.9233 25.1848C15.4332 25.6946 16.0828 26.0419 16.79 26.1825C17.4973 26.3232 18.2303 26.251 18.8965 25.9751C19.5627 25.6991 20.1321 25.2318 20.5327 24.6323C20.9333 24.0327 21.1471 23.3278 21.1471 22.6068C21.146 21.6402 20.7615 20.7135 20.078 20.03C19.3946 19.3466 18.4679 18.9621 17.5013 18.9609ZM17.5013 24.7943C17.0687 24.7943 16.6457 24.666 16.286 24.4256C15.9263 24.1852 15.6459 23.8436 15.4803 23.4439C15.3148 23.0442 15.2714 22.6043 15.3558 22.18C15.4402 21.7557 15.6486 21.3659 15.9545 21.06C16.2604 20.754 16.6502 20.5457 17.0745 20.4613C17.4989 20.3769 17.9387 20.4202 18.3384 20.5858C18.7381 20.7514 19.0798 21.0317 19.3201 21.3915C19.5605 21.7512 19.6888 22.1741 19.6888 22.6068C19.6882 23.1867 19.4575 23.7428 19.0474 24.1529C18.6373 24.563 18.0813 24.7936 17.5013 24.7943Z" fill="#E67300"/>
<path d="M29.8825 9.08466C29.7807 7.60988 29.1235 6.22855 28.0434 5.21921C26.9633 4.20987 25.5407 3.64761 24.0624 3.64581C23.611 3.64603 23.1612 3.69934 22.7223 3.80462C22.1213 2.50482 21.1112 1.43754 19.8465 0.765883C18.5818 0.0942227 17.1319 -0.144877 15.7185 0.085123C14.305 0.315123 13.0058 1.00157 12.0192 2.03957C11.0327 3.07757 10.4132 4.41002 10.2553 5.83331H10.2082C8.52103 5.83534 6.89925 6.48634 5.67891 7.65143C4.45856 8.81653 3.73318 10.4064 3.65304 12.0917C2.39685 12.5977 1.3559 13.5251 0.708815 14.7148C0.0617296 15.9045 -0.151155 17.2822 0.106689 18.6117C0.364534 19.9412 1.07703 21.1395 2.12193 22.0011C3.16683 22.8626 4.47898 23.3336 5.83325 23.3333H7.29158C7.48497 23.3333 7.67043 23.2565 7.80718 23.1197C7.94393 22.983 8.02075 22.7975 8.02075 22.6041C8.02075 22.4108 7.94393 22.2253 7.80718 22.0885C7.67043 21.9518 7.48497 21.875 7.29158 21.875H5.83325C4.78168 21.8752 3.76524 21.4965 2.97009 20.8084C2.17494 20.1203 1.65432 19.1687 1.50358 18.128C1.35283 17.0873 1.58206 16.0271 2.14928 15.1417C2.7165 14.2562 3.58373 13.6047 4.59213 13.3065C4.74726 13.2608 4.88275 13.1647 4.97731 13.0335C5.07186 12.9022 5.1201 12.7433 5.11444 12.5817L5.10408 12.3958C5.09949 11.6701 5.25067 10.9519 5.54741 10.2896C5.84416 9.62738 6.27956 9.03652 6.82421 8.55694C7.36887 8.07736 8.01009 7.72024 8.70458 7.5097C9.39906 7.29915 10.1306 7.24009 10.8499 7.33649C10.954 7.34466 11.0587 7.33088 11.1571 7.29605C11.2555 7.26122 11.3456 7.20611 11.4214 7.13429C11.4992 7.06081 11.5611 6.97215 11.6032 6.8738C11.6454 6.77545 11.667 6.66949 11.6666 6.56248C11.6661 5.35239 12.0957 4.18151 12.8787 3.25891C13.6617 2.33631 14.7472 1.72206 15.9413 1.52584C17.1353 1.32962 18.3603 1.56421 19.3974 2.18771C20.4345 2.81121 21.2162 3.78303 21.6029 4.92965C21.6341 5.022 21.6836 5.10715 21.7483 5.18006C21.813 5.25297 21.8916 5.31215 21.9796 5.3541C22.0675 5.39655 22.1631 5.4207 22.2606 5.4251C22.3581 5.4295 22.4554 5.41405 22.5468 5.3797C23.2115 5.1315 23.9268 5.04921 24.6305 5.13996C25.3343 5.23071 26.0053 5.49175 26.5853 5.90046C27.1653 6.30916 27.6369 6.85319 27.9592 7.48537C28.2814 8.11754 28.4446 8.81879 28.4346 9.52829C28.4346 9.53558 28.4296 9.60944 28.4296 9.61732C28.4231 9.78743 28.4763 9.95445 28.58 10.0894C28.6838 10.2244 28.8314 10.3189 28.9975 10.3564C30.3967 10.6731 31.63 11.4944 32.4616 12.6634C33.2932 13.8323 33.6648 15.2667 33.5052 16.6924C33.3457 18.118 32.6662 19.4348 31.5967 20.391C30.5272 21.3471 29.1428 21.8755 27.7082 21.875C27.5149 21.875 27.3294 21.9518 27.1927 22.0885C27.0559 22.2253 26.9791 22.4108 26.9791 22.6041C26.9791 22.7975 27.0559 22.983 27.1927 23.1197C27.3294 23.2565 27.5149 23.3333 27.7082 23.3333C29.4514 23.3337 31.1369 22.7094 32.4593 21.5738C33.7817 20.4381 34.6534 18.8662 34.9163 17.143C35.1793 15.4199 34.8161 13.6595 33.8926 12.1811C32.9691 10.7027 31.5464 9.6042 29.8825 9.08466Z" fill="white"/>
</svg>
