<svg width="34" height="34" viewBox="0 0 34 34" fill="none" xmlns="http://www.w3.org/2000/svg">
<g clip-path="url(#clip0_52_3182)">
<path d="M13.8125 18.5938C14.7581 18.5938 15.6825 18.3133 16.4688 17.788C17.2551 17.2626 17.8679 16.5159 18.2298 15.6422C18.5917 14.7685 18.6864 13.8072 18.5019 12.8797C18.3174 11.9523 17.862 11.1003 17.1934 10.4316C16.5247 9.76298 15.6727 9.30761 14.7453 9.12312C13.8178 8.93864 12.8565 9.03332 11.9828 9.3952C11.1091 9.75708 10.3624 10.3699 9.83704 11.1562C9.31167 11.9425 9.03125 12.8669 9.03125 13.8125C9.03266 15.0801 9.53684 16.2954 10.4332 17.1918C11.3296 18.0882 12.5449 18.5923 13.8125 18.5938ZM13.8125 10.0938C14.548 10.0938 15.267 10.3119 15.8785 10.7205C16.4901 11.1291 16.9667 11.7099 17.2482 12.3894C17.5296 13.0689 17.6033 13.8166 17.4598 14.538C17.3163 15.2594 16.9621 15.922 16.4421 16.4421C15.922 16.9621 15.2594 17.3163 14.538 17.4598C13.8166 17.6033 13.0689 17.5296 12.3894 17.2482C11.7099 16.9667 11.1291 16.4901 10.7205 15.8785C10.3119 15.267 10.0937 14.548 10.0937 13.8125C10.095 12.8266 10.4872 11.8815 11.1843 11.1843C11.8815 10.4872 12.8266 10.095 13.8125 10.0938Z" fill="#FF7B02"/>
<path d="M12.7506 15.4068C12.8915 15.4068 13.0266 15.3508 13.1262 15.2512L15.7824 12.5949L15.0312 11.8438L12.7506 14.1244L12.0637 13.4375L11.3125 14.1887L12.375 15.2512C12.4746 15.3508 12.6097 15.4068 12.7506 15.4068Z" fill="#FF7B02"/>
<path d="M32.9375 0.53125H29.2187V1.59375H31.6551L27.625 5.62381L26.4068 4.40566C26.3106 4.30947 26.1812 4.25387 26.0452 4.25031C25.9091 4.24675 25.777 4.29551 25.6758 4.38653L20.5148 9.03125H18.7845C18.1422 8.35958 17.3705 7.82501 16.516 7.45979C15.6615 7.09457 14.7418 6.90628 13.8125 6.90628C12.8832 6.90628 11.9635 7.09457 11.109 7.45979C10.2545 7.82501 9.48278 8.35958 8.84053 9.03125H5.3125C4.60828 9.03209 3.93314 9.31222 3.43518 9.81018C2.93722 10.3081 2.65709 10.9833 2.65625 11.6875V28.1562C2.09266 28.1562 1.55216 28.3801 1.15365 28.7786C0.755133 29.1772 0.53125 29.7177 0.53125 30.2812C0.532094 31.1264 0.86819 31.9366 1.46578 32.5342C2.06337 33.1318 2.87363 33.4679 3.71875 33.4687H30.2812C31.1264 33.4679 31.9366 33.1318 32.5342 32.5342C33.1318 31.9366 33.4679 31.1264 33.4687 30.2812C33.4687 29.7177 33.2449 29.1772 32.8463 28.7786C32.4478 28.3801 31.9073 28.1562 31.3437 28.1562V11.6875C31.3429 10.9833 31.0628 10.3081 30.5648 9.81018C30.0669 9.31222 29.3917 9.03209 28.6875 9.03125H22.1032L26.0121 5.51331L27.2494 6.75059C27.349 6.85019 27.4841 6.90614 27.625 6.90614C27.7659 6.90614 27.901 6.85019 28.0006 6.75059L32.4062 2.34494V4.78125H33.4687V1.0625C33.4687 0.921604 33.4128 0.786478 33.3132 0.686849C33.2135 0.587221 33.0784 0.53125 32.9375 0.53125ZM13.8125 7.96875C14.9683 7.96875 16.0981 8.31148 17.0591 8.9536C18.0201 9.59572 18.7691 10.5084 19.2114 11.5762C19.6537 12.644 19.7694 13.819 19.544 14.9526C19.3185 16.0861 18.7619 17.1274 17.9447 17.9447C17.1274 18.7619 16.0861 19.3185 14.9526 19.544C13.819 19.7694 12.644 19.6537 11.5762 19.2114C10.5084 18.7691 9.59572 18.0201 8.9536 17.0591C8.31148 16.0981 7.96875 14.9683 7.96875 13.8125C7.97058 12.2632 8.58684 10.7779 9.68236 9.68236C10.7779 8.58684 12.2632 7.97058 13.8125 7.96875ZM20.5259 12.2187H28.1562V26.0312H5.84375V12.2187H7.09909C6.79047 13.5094 6.86077 14.8617 7.30157 16.1133C7.74238 17.365 8.53495 18.4629 9.58422 19.2753C10.6335 20.0877 11.8949 20.5802 13.217 20.6935C14.5392 20.8069 15.866 20.5364 17.0382 19.9144L20.9658 23.842C21.3472 24.2234 21.8645 24.4376 22.4039 24.4376C22.9433 24.4376 23.4606 24.2234 23.842 23.842C24.2234 23.4606 24.4376 22.9433 24.4376 22.4039C24.4376 21.8645 24.2234 21.3472 23.842 20.9658L19.9144 17.0382C20.7039 15.5616 20.9216 13.8458 20.5259 12.2187ZM19.3269 17.9531L23.0908 21.717C23.2665 21.9005 23.3634 22.1455 23.3607 22.3996C23.358 22.6536 23.2558 22.8965 23.0762 23.0762C22.8965 23.2558 22.6536 23.358 22.3996 23.3607C22.1455 23.3634 21.9005 23.2665 21.717 23.0908L17.9531 19.3269C18.473 18.9355 18.9355 18.473 19.3269 17.9531ZM32.4062 30.2812C32.4062 30.8448 32.1824 31.3853 31.7838 31.7838C31.3853 32.1824 30.8448 32.4062 30.2812 32.4062H3.71875C3.15516 32.4062 2.61466 32.1824 2.21615 31.7838C1.81763 31.3853 1.59375 30.8448 1.59375 30.2812C1.59375 29.9995 1.70569 29.7292 1.90495 29.5299C2.10421 29.3307 2.37446 29.2187 2.65625 29.2187H12.4217L13.337 31.05C13.3812 31.1383 13.449 31.2125 13.533 31.2644C13.617 31.3163 13.7138 31.3438 13.8125 31.3437H20.1875C20.2867 31.3443 20.384 31.3171 20.4685 31.2651C20.553 31.2132 20.6213 31.1387 20.6656 31.05L21.5783 29.2187H31.3437C31.6255 29.2187 31.8958 29.3307 32.095 29.5299C32.2943 29.7292 32.4062 29.9995 32.4062 30.2812ZM13.6096 29.2187H20.3904L19.8592 30.2812H14.1408L13.6096 29.2187ZM30.2812 11.6875V28.1562H3.71875V11.6875C3.71875 11.2648 3.88666 10.8594 4.18555 10.5605C4.48443 10.2617 4.88981 10.0937 5.3125 10.0937H8.00222C7.78341 10.4308 7.59445 10.7863 7.4375 11.1562H5.3125C5.1716 11.1562 5.03648 11.2122 4.93685 11.3118C4.83722 11.4115 4.78125 11.5466 4.78125 11.6875V26.5625C4.78125 26.7034 4.83722 26.8385 4.93685 26.9381C5.03648 27.0378 5.1716 27.0937 5.3125 27.0937H28.6875C28.8284 27.0937 28.9635 27.0378 29.0631 26.9381C29.1628 26.8385 29.2187 26.7034 29.2187 26.5625V11.6875C29.2187 11.5466 29.1628 11.4115 29.0631 11.3118C28.9635 11.2122 28.8284 11.1562 28.6875 11.1562H20.1875C20.0311 10.7864 19.8426 10.4309 19.6244 10.0937H28.6875C29.1102 10.0937 29.5156 10.2617 29.8144 10.5605C30.1133 10.8594 30.2812 11.2648 30.2812 11.6875Z" fill="white"/>
<path d="M6.90625 23.9062H7.96875V24.9687H6.90625V23.9062Z" fill="white"/>
<path d="M9.03125 23.9062H10.0937V24.9687H9.03125V23.9062Z" fill="white"/>
<path d="M11.1562 23.9062H12.2187V24.9687H11.1562V23.9062Z" fill="white"/>
</g>
<defs>
<clipPath id="clip0_52_3182">
<rect width="34" height="34" fill="white"/>
</clipPath>
</defs>
</svg>
