<svg width="29" height="29" viewBox="0 0 29 29" fill="none" xmlns="http://www.w3.org/2000/svg">
<path d="M17.1361 28.4375H15.6777C15.3877 28.4375 15.1095 28.3223 14.9043 28.1171C14.6992 27.912 14.584 27.6338 14.584 27.3437C14.584 27.0537 14.6992 26.7755 14.9043 26.5704C15.1095 26.3652 15.3877 26.25 15.6777 26.25H17.1361C18.0063 26.25 18.8409 25.9043 19.4563 25.2889C20.0716 24.6736 20.4173 23.839 20.4173 22.9687C20.4173 22.6787 20.5326 22.4005 20.7377 22.1954C20.9428 21.9902 21.221 21.875 21.5111 21.875C21.8011 21.875 22.0793 21.9902 22.2845 22.1954C22.4896 22.4005 22.6048 22.6787 22.6048 22.9687C22.6048 24.4192 22.0286 25.8102 21.0031 26.8357C19.9775 27.8613 18.5865 28.4375 17.1361 28.4375Z" fill="#4C4743"/>
<path d="M25.5208 12.3229V11.3021C25.5208 8.30458 24.3301 5.42986 22.2105 3.3103C20.091 1.19075 17.2162 0 14.2187 0C11.2213 0 8.34652 1.19075 6.22697 3.3103C4.10742 5.42986 2.91667 8.30458 2.91667 11.3021V12.3229C2.04105 12.7867 1.30746 13.4791 0.793899 14.3265C0.280333 15.1739 0.00597833 16.1446 0 17.1354V18.5937C0 20.0442 0.57617 21.4352 1.60176 22.4607C2.62735 23.4863 4.01835 24.0625 5.46875 24.0625H6.92708C7.60276 24.0587 8.24967 23.7886 8.72745 23.3108C9.20523 22.833 9.47534 22.1861 9.47917 21.5104V14.2187C9.47534 13.5431 9.20523 12.8962 8.72745 12.4184C8.24967 11.9406 7.60276 11.6705 6.92708 11.6667H5.46875C5.34735 11.6587 5.22556 11.6587 5.10417 11.6667V11.3021C5.10417 8.88475 6.06445 6.56642 7.77377 4.8571C9.48308 3.14778 11.8014 2.1875 14.2187 2.1875C16.6361 2.1875 18.9544 3.14778 20.6637 4.8571C22.373 6.56642 23.3333 8.88475 23.3333 11.3021V11.7104C23.2119 11.7024 23.0901 11.7024 22.9687 11.7104H21.5104C20.8422 11.714 20.2018 11.9781 19.7252 12.4465C19.2486 12.9149 18.9735 13.5507 18.9583 14.2187V21.5104C18.9622 22.1861 19.2323 22.833 19.7101 23.3108C20.1878 23.7886 20.8347 24.0587 21.5104 24.0625H22.9687C24.4192 24.0625 25.8102 23.4863 26.8357 22.4607C27.8613 21.4352 28.4375 20.0442 28.4375 18.5937V17.1354C28.4315 16.1446 28.1572 15.1739 27.6436 14.3265C27.13 13.4791 26.3965 12.7867 25.5208 12.3229ZM6.92708 13.8542C7.02378 13.8542 7.11651 13.8926 7.18488 13.961C7.25326 14.0293 7.29167 14.1221 7.29167 14.2187V21.5104C7.29167 21.6071 7.25326 21.6998 7.18488 21.7682C7.11651 21.8366 7.02378 21.875 6.92708 21.875H5.46875C4.59851 21.875 3.76391 21.5293 3.14856 20.9139C2.5332 20.2986 2.1875 19.464 2.1875 18.5937V17.1354C2.1875 16.2652 2.5332 15.4306 3.14856 14.8152C3.76391 14.1999 4.59851 13.8542 5.46875 13.8542H6.92708ZM26.25 18.5937C26.25 19.464 25.9043 20.2986 25.2889 20.9139C24.6736 21.5293 23.839 21.875 22.9687 21.875H21.5104C21.4137 21.875 21.321 21.8366 21.2526 21.7682C21.1842 21.6998 21.1458 21.6071 21.1458 21.5104V14.2187C21.1458 14.1221 21.1842 14.0293 21.2526 13.961C21.321 13.8926 21.4137 13.8542 21.5104 13.8542H22.9687C23.839 13.8542 24.6736 14.1999 25.2889 14.8152C25.9043 15.4306 26.25 16.2652 26.25 17.1354V18.5937Z" fill="white"/>
</svg>
