<svg width="38" height="38" viewBox="0 0 38 38" fill="none" xmlns="http://www.w3.org/2000/svg">
<path d="M5.34375 10.0937C5.18641 10.0937 5.035 10.0314 4.92397 9.91978L2.54897 7.54478C2.43735 7.43375 2.375 7.28234 2.375 7.125V4.64075C1.68566 4.39494 1.1875 3.74181 1.1875 2.96875C1.1875 1.98669 1.98669 1.1875 2.96875 1.1875C3.95082 1.1875 4.75 1.98669 4.75 2.96875C4.75 3.74181 4.25184 4.39494 3.5625 4.64075V6.87919L5.58957 8.90625H12.7852C13.2163 8.63966 13.6574 8.39147 14.1152 8.18425C14.1586 8.16466 14.2043 8.15575 14.25 8.14744V5.58956L12.2229 3.5625H11.172C10.9262 4.25184 10.2731 4.75 9.5 4.75C8.51794 4.75 7.71875 3.95081 7.71875 2.96875C7.71875 1.98669 8.51794 1.1875 9.5 1.1875C10.2731 1.1875 10.9262 1.68566 11.172 2.375H12.4688C12.6261 2.375 12.7775 2.43734 12.8885 2.54897L15.2635 4.92397C15.3752 5.035 15.4375 5.18641 15.4375 5.34375V9.00719L15.83 9.42637C16.1975 9.30466 16.5728 9.20431 16.9533 9.12594L17.3001 7.64037C17.3577 7.39278 17.5673 7.20931 17.8202 7.18437C18.0197 7.16478 18.2115 7.16478 18.4063 7.15528V4.64075C17.7169 4.39494 17.2188 3.74181 17.2188 2.96875C17.2188 1.98669 18.0179 1.1875 19 1.1875C19.9821 1.1875 20.7813 1.98669 20.7813 2.96875C20.7813 3.74181 20.2831 4.39494 19.5938 4.64075V7.15528C19.7885 7.16537 19.9809 7.16478 20.1798 7.18437C20.4327 7.20931 20.6423 7.39278 20.6999 7.64037L21.0467 9.12594C21.4267 9.20431 21.8025 9.30466 22.1694 9.42637L22.5625 9.00659V5.34375C22.5625 5.18641 22.6248 5.035 22.7365 4.92397L25.1115 2.54897C25.2225 2.43734 25.3739 2.375 25.5313 2.375H26.828C27.0738 1.68566 27.7269 1.1875 28.5 1.1875C29.4821 1.1875 30.2813 1.98669 30.2813 2.96875C30.2813 3.95081 29.4821 4.75 28.5 4.75C27.7269 4.75 27.0738 4.25184 26.828 3.5625H25.7771L23.75 5.58956V8.14744C23.7951 8.15634 23.8408 8.16466 23.8848 8.18425C24.3426 8.39147 24.7831 8.63966 25.2148 8.90625H32.4104L34.4375 6.87919V4.64075C33.7482 4.39494 33.25 3.74181 33.25 2.96875C33.25 1.98669 34.0492 1.1875 35.0313 1.1875C36.0133 1.1875 36.8125 1.98669 36.8125 2.96875C36.8125 3.74181 36.3143 4.39494 35.625 4.64075V7.125C35.625 7.28234 35.5627 7.43375 35.451 7.54478L33.076 9.91978C32.965 10.0314 32.8136 10.0937 32.6563 10.0937H26.1268L25.7112 11.4617C26.0021 11.7212 26.2794 11.9979 26.5383 12.2888L27.9775 11.8512C28.2198 11.777 28.4834 11.8655 28.6318 12.0721C28.8616 12.3916 29.0759 12.7223 29.2737 13.0625H31.5786C31.8238 12.3732 32.4769 11.875 33.25 11.875C34.2321 11.875 35.0313 12.6742 35.0313 13.6562C35.0313 14.6383 34.2321 15.4375 33.25 15.4375C32.4769 15.4375 31.8238 14.9393 31.578 14.25H29.8526C29.89 14.4465 29.8312 14.652 29.6804 14.7933L28.5736 15.83C28.6953 16.1975 28.7957 16.5727 28.8741 16.9533L30.3596 17.3001C30.6072 17.3577 30.7907 17.5673 30.8156 17.8202C30.8352 18.0197 30.8352 18.2103 30.8453 18.4062H33.3593C33.6051 17.7169 34.2582 17.2187 35.0313 17.2187C36.0133 17.2187 36.8125 18.0179 36.8125 19C36.8125 19.9821 36.0133 20.7812 35.0313 20.7812C34.2582 20.7812 33.6051 20.2831 33.3593 19.5937H30.8447C30.8346 19.7897 30.8346 19.9803 30.815 20.1798C30.7901 20.4327 30.6066 20.6423 30.359 20.6999L28.8735 21.0467C28.7951 21.4267 28.6948 21.8025 28.573 22.1694L29.6798 23.2061C29.8306 23.3474 29.8894 23.5529 29.852 23.75H31.5774C31.8238 23.0607 32.4769 22.5625 33.25 22.5625C34.2321 22.5625 35.0313 23.3617 35.0313 24.3437C35.0313 25.3258 34.2321 26.125 33.25 26.125C32.4769 26.125 31.8238 25.6268 31.578 24.9375H29.2731C29.0759 25.2771 28.8622 25.6078 28.6318 25.9273C28.4834 26.1333 28.2221 26.2224 27.9769 26.1482L26.5377 25.7112C26.2782 26.0027 26.0015 26.2794 25.7106 26.5382L26.1274 27.9062H32.6563C32.8136 27.9062 32.965 27.9686 33.076 28.0802L35.451 30.4552C35.5627 30.5662 35.625 30.7177 35.625 30.875V33.3592C36.3143 33.6051 36.8125 34.2582 36.8125 35.0312C36.8125 36.0133 36.0133 36.8125 35.0313 36.8125C34.0492 36.8125 33.25 36.0133 33.25 35.0312C33.25 34.2582 33.7482 33.6051 34.4375 33.3592V31.1208L32.4104 29.0937H25.2148C24.7837 29.3597 24.3432 29.6085 23.8848 29.8157C23.8414 29.8353 23.7957 29.8442 23.75 29.8532V32.4104L25.7771 34.4375H26.828C27.0738 33.7482 27.7269 33.25 28.5 33.25C29.4821 33.25 30.2813 34.0492 30.2813 35.0312C30.2813 36.0133 29.4821 36.8125 28.5 36.8125C27.7269 36.8125 27.0738 36.3143 26.828 35.625H25.5313C25.3739 35.625 25.2225 35.5627 25.1115 35.451L22.7365 33.076C22.6248 32.965 22.5625 32.8136 22.5625 32.6562V28.9928L22.17 28.5736C21.8025 28.6953 21.4273 28.7957 21.0467 28.8741L20.6999 30.3596C20.6423 30.6072 20.4327 30.7907 20.1798 30.8156C19.9803 30.8352 19.7897 30.8352 19.5938 30.8453V33.3598C20.2831 33.6057 20.7813 34.2588 20.7813 35.0318C20.7813 36.0139 19.9821 36.8131 19 36.8131C18.0179 36.8131 17.2188 36.0139 17.2188 35.0318C17.2188 34.2588 17.7169 33.6057 18.4063 33.3598V30.8453C18.2103 30.8352 18.0191 30.8352 17.8202 30.8156C17.5673 30.7907 17.3577 30.6072 17.3001 30.3596L16.9533 28.8741C16.5733 28.7957 16.1975 28.6953 15.8306 28.5736L15.4375 28.9934V32.6562C15.4375 32.8136 15.3752 32.965 15.2635 33.076L12.8885 35.451C12.7775 35.5627 12.6261 35.625 12.4688 35.625H11.172C10.9262 36.3143 10.2731 36.8125 9.5 36.8125C8.51794 36.8125 7.71875 36.0133 7.71875 35.0312C7.71875 34.0492 8.51794 33.25 9.5 33.25C10.2731 33.25 10.9262 33.7482 11.172 34.4375H12.2229L14.25 32.4104V29.8532C14.2049 29.8442 14.1592 29.8359 14.1152 29.8163C13.6574 29.6091 13.2169 29.3609 12.7852 29.0943H5.58957L3.5625 31.1208V33.3592C4.25184 33.6051 4.75 34.2582 4.75 35.0312C4.75 36.0133 3.95082 36.8125 2.96875 36.8125C1.98669 36.8125 1.1875 36.0133 1.1875 35.0312C1.1875 34.2582 1.68566 33.6051 2.375 33.3592V30.875C2.375 30.7177 2.43735 30.5662 2.54897 30.4552L4.92397 28.0802C5.035 27.9686 5.18641 27.9062 5.34375 27.9062H11.8732L12.2888 26.5382C11.9973 26.2788 11.7206 26.0021 11.4618 25.7112L10.0231 26.1487C9.78025 26.2224 9.51663 26.1339 9.36878 25.9279C9.13841 25.6084 8.92406 25.2771 8.72694 24.9375H6.422C6.17619 25.6268 5.52306 26.125 4.75 26.125C3.76794 26.125 2.96875 25.3258 2.96875 24.3437C2.96875 23.3617 3.76794 22.5625 4.75 22.5625C5.52306 22.5625 6.17619 23.0607 6.422 23.75H8.14744C8.11003 23.5535 8.16882 23.348 8.31963 23.2067L9.42638 22.17C9.30466 21.8025 9.20431 21.4272 9.12594 21.0467L7.64038 20.6999C7.39278 20.6423 7.20931 20.4327 7.18438 20.1798C7.16478 19.9803 7.16478 19.7897 7.15469 19.5937H4.64016C4.39435 20.2831 3.74122 20.7812 2.96816 20.7812C1.9861 20.7812 1.18691 19.9821 1.18691 19C1.18691 18.0179 1.9861 17.2187 2.96816 17.2187C3.74122 17.2187 4.39435 17.7169 4.64016 18.4062H7.15469C7.16478 18.2103 7.16478 18.0191 7.18438 17.8202C7.20931 17.5673 7.39278 17.3577 7.64038 17.3001L9.12594 16.9533C9.20431 16.5733 9.30466 16.1975 9.42638 15.8306L8.31963 14.7939C8.16882 14.6526 8.11003 14.4471 8.14744 14.25H6.422C6.17619 14.9393 5.52306 15.4375 4.75 15.4375C3.76794 15.4375 2.96875 14.6383 2.96875 13.6562C2.96875 12.6742 3.76794 11.875 4.75 11.875C5.52306 11.875 6.17619 12.3732 6.422 13.0625H8.72694C8.92406 12.7229 9.13781 12.3922 9.36819 12.0727C9.51663 11.8667 9.77966 11.7776 10.0231 11.8518L11.4623 12.2888C11.7218 11.9973 11.9985 11.7206 12.2894 11.4617L11.8738 10.0937H5.34375ZM2.96875 2.375C2.6416 2.375 2.375 2.64159 2.375 2.96875C2.375 3.29591 2.6416 3.5625 2.96875 3.5625C3.29591 3.5625 3.5625 3.29591 3.5625 2.96875C3.5625 2.64159 3.29591 2.375 2.96875 2.375ZM9.5 2.375C9.17285 2.375 8.90625 2.64159 8.90625 2.96875C8.90625 3.29591 9.17285 3.5625 9.5 3.5625C9.82716 3.5625 10.0938 3.29591 10.0938 2.96875C10.0938 2.64159 9.82716 2.375 9.5 2.375ZM28.5 3.5625C28.8272 3.5625 29.0938 3.29591 29.0938 2.96875C29.0938 2.64159 28.8272 2.375 28.5 2.375C28.1728 2.375 27.9063 2.64159 27.9063 2.96875C27.9063 3.29591 28.1728 3.5625 28.5 3.5625ZM35.0313 2.375C34.7041 2.375 34.4375 2.64159 34.4375 2.96875C34.4375 3.29591 34.7041 3.5625 35.0313 3.5625C35.3584 3.5625 35.625 3.29591 35.625 2.96875C35.625 2.64159 35.3584 2.375 35.0313 2.375ZM33.25 14.25C33.5772 14.25 33.8438 13.9834 33.8438 13.6562C33.8438 13.3291 33.5772 13.0625 33.25 13.0625C32.9228 13.0625 32.6563 13.3291 32.6563 13.6562C32.6563 13.9834 32.9228 14.25 33.25 14.25ZM33.25 24.9375C33.5772 24.9375 33.8438 24.6709 33.8438 24.3437C33.8438 24.0166 33.5772 23.75 33.25 23.75C32.9228 23.75 32.6563 24.0166 32.6563 24.3437C32.6563 24.6709 32.9228 24.9375 33.25 24.9375ZM35.0313 35.625C35.3584 35.625 35.625 35.3584 35.625 35.0312C35.625 34.7041 35.3584 34.4375 35.0313 34.4375C34.7041 34.4375 34.4375 34.7041 34.4375 35.0312C34.4375 35.3584 34.7041 35.625 35.0313 35.625ZM28.5 35.625C28.8272 35.625 29.0938 35.3584 29.0938 35.0312C29.0938 34.7041 28.8272 34.4375 28.5 34.4375C28.1728 34.4375 27.9063 34.7041 27.9063 35.0312C27.9063 35.3584 28.1728 35.625 28.5 35.625ZM9.5 34.4375C9.17285 34.4375 8.90625 34.7041 8.90625 35.0312C8.90625 35.3584 9.17285 35.625 9.5 35.625C9.82716 35.625 10.0938 35.3584 10.0938 35.0312C10.0938 34.7041 9.82716 34.4375 9.5 34.4375ZM2.96875 35.625C3.29591 35.625 3.5625 35.3584 3.5625 35.0312C3.5625 34.7041 3.29591 34.4375 2.96875 34.4375C2.6416 34.4375 2.375 34.7041 2.375 35.0312C2.375 35.3584 2.6416 35.625 2.96875 35.625ZM4.75 23.75C4.42285 23.75 4.15625 24.0166 4.15625 24.3437C4.15625 24.6709 4.42285 24.9375 4.75 24.9375C5.07716 24.9375 5.34375 24.6709 5.34375 24.3437C5.34375 24.0166 5.07716 23.75 4.75 23.75ZM4.75 13.0625C4.42285 13.0625 4.15625 13.3291 4.15625 13.6562C4.15625 13.9834 4.42285 14.25 4.75 14.25C5.07716 14.25 5.34375 13.9834 5.34375 13.6562C5.34375 13.3291 5.07716 13.0625 4.75 13.0625ZM19 2.375C18.6728 2.375 18.4063 2.64159 18.4063 2.96875C18.4063 3.29591 18.6728 3.5625 19 3.5625C19.3272 3.5625 19.5938 3.29591 19.5938 2.96875C19.5938 2.64159 19.3272 2.375 19 2.375ZM35.0313 19.5937C35.3584 19.5937 35.625 19.3272 35.625 19C35.625 18.6728 35.3584 18.4062 35.0313 18.4062C34.7041 18.4062 34.4375 18.6728 34.4375 19C34.4375 19.3272 34.7041 19.5937 35.0313 19.5937ZM19 35.625C19.3272 35.625 19.5938 35.3584 19.5938 35.0312C19.5938 34.7041 19.3272 34.4375 19 34.4375C18.6728 34.4375 18.4063 34.7041 18.4063 35.0312C18.4063 35.3584 18.6728 35.625 19 35.625ZM2.96875 18.4062C2.6416 18.4062 2.375 18.6728 2.375 19C2.375 19.3272 2.6416 19.5937 2.96875 19.5937C3.29591 19.5937 3.5625 19.3272 3.5625 19C3.5625 18.6728 3.29591 18.4062 2.96875 18.4062ZM12.1184 13.3469C11.9664 13.5322 11.7177 13.607 11.4873 13.5375L10.0914 13.1136C9.85447 13.4722 9.63894 13.8433 9.44775 14.2239L10.5207 15.2285C10.6958 15.3924 10.7552 15.6459 10.6703 15.8709C10.4684 16.4083 10.3182 16.97 10.2238 17.5406C10.1846 17.7769 10.0071 17.9669 9.77313 18.0215L8.3321 18.3576C8.31903 18.5761 8.3125 18.7904 8.3125 19C8.3125 19.2096 8.31903 19.4239 8.33269 19.6424L9.77372 19.9785C10.0077 20.0331 10.1852 20.2231 10.2244 20.4594C10.3188 21.03 10.4696 21.5917 10.6709 22.1291C10.7552 22.3535 10.6958 22.6076 10.5213 22.7715L9.44834 23.7761C9.64012 24.1579 9.85566 24.529 10.092 24.8864L11.4873 24.4619C11.7171 24.3924 11.9658 24.4672 12.1184 24.6525C12.486 25.099 12.8986 25.5122 13.3469 25.881C13.5322 26.0336 13.6076 26.2823 13.5375 26.5121L13.1136 27.908C13.4722 28.1449 13.8433 28.3605 14.2239 28.5517L15.2285 27.4787C15.393 27.3036 15.6477 27.2442 15.8709 27.3291C16.4083 27.531 16.97 27.6812 17.5406 27.7756C17.7769 27.8148 17.9669 27.9923 18.0215 28.2263L18.3576 29.6673C18.794 29.694 19.206 29.694 19.6424 29.6673L19.9785 28.2263C20.0331 27.9923 20.2231 27.8148 20.4594 27.7756C21.03 27.6812 21.5917 27.5304 22.1291 27.3291C22.3547 27.2442 22.6076 27.3042 22.7715 27.4787L23.7767 28.5517C24.1579 28.3605 24.529 28.1449 24.887 27.908L24.4625 26.5127C24.3924 26.2829 24.4678 26.0336 24.6531 25.8816C25.0996 25.514 25.5128 25.1014 25.8816 24.6531C26.0342 24.4672 26.2835 24.3918 26.5127 24.4625L27.9086 24.8864C28.1455 24.5278 28.3611 24.1567 28.5523 23.7761L27.4793 22.7715C27.3042 22.6076 27.2448 22.3541 27.3297 22.1291C27.5316 21.5917 27.6818 21.03 27.7762 20.4594C27.8154 20.2231 27.9929 20.0331 28.2269 19.9785L29.6679 19.6424C29.681 19.4239 29.6875 19.2096 29.6875 19C29.6875 18.7904 29.681 18.5761 29.6673 18.3576L28.2263 18.0215C27.9923 17.9669 27.8148 17.7769 27.7756 17.5406C27.6812 16.97 27.5304 16.4083 27.3291 15.8709C27.2448 15.6465 27.3042 15.3924 27.4788 15.2285L28.5517 14.2239C28.3599 13.8421 28.1443 13.471 27.908 13.1136L26.5127 13.5375C26.2823 13.6082 26.0342 13.5327 25.8816 13.3469C25.514 12.9004 25.1008 12.4872 24.6531 12.1184C24.4678 11.9658 24.3924 11.7171 24.4625 11.4873L24.8864 10.0914C24.5278 9.85447 24.1567 9.63894 23.7761 9.44775L22.7715 10.5207C22.6076 10.6952 22.3535 10.7546 22.1291 10.6703C21.5917 10.4684 21.03 10.3182 20.4594 10.2238C20.2231 10.1846 20.0331 10.0071 19.9785 9.77312L19.6424 8.33209C19.206 8.30537 18.794 8.30537 18.3576 8.33209L18.0215 9.77312C17.9669 10.0071 17.7769 10.1846 17.5406 10.2238C16.97 10.3182 16.4083 10.469 15.8709 10.6703C15.6465 10.754 15.393 10.6952 15.2285 10.5207L14.2233 9.44775C13.8421 9.63894 13.471 9.85447 13.113 10.0914L13.5375 11.4867C13.6076 11.7165 13.5322 11.9658 13.3469 12.1178C12.9004 12.486 12.4872 12.8992 12.1184 13.3469Z" fill="white"/>
<path d="M19 12.4688C21.6558 12.4688 24.3438 13.2846 24.3438 14.8437V23.75C24.3438 25.3092 21.6558 26.125 19 26.125C16.3442 26.125 13.6563 25.3092 13.6563 23.75V14.8437C13.6563 13.2846 16.3442 12.4688 19 12.4688ZM19 24.9375C21.6998 24.9375 23.1563 24.095 23.1563 23.75V22.325C22.1255 22.873 20.5592 23.1562 19 23.1562C17.4408 23.1562 15.8745 22.873 14.8438 22.325V23.75C14.8438 24.095 16.3002 24.9375 19 24.9375ZM19 21.9687C21.6998 21.9687 23.1563 21.1262 23.1563 20.7812V19.3562C22.1255 19.9043 20.5592 20.1875 19 20.1875C17.4408 20.1875 15.8745 19.9043 14.8438 19.3562V20.7812C14.8438 21.1262 16.3002 21.9687 19 21.9687ZM19 19C21.6998 19 23.1563 18.1575 23.1563 17.8125V16.3875C22.1255 16.9355 20.5592 17.2187 19 17.2187C17.4408 17.2187 15.8745 16.9355 14.8438 16.3875V17.8125C14.8438 18.1575 16.3002 19 19 19ZM19 16.0312C21.6998 16.0312 23.1563 15.1887 23.1563 14.8437C23.1563 14.4988 21.6998 13.6562 19 13.6562C16.3002 13.6562 14.8438 14.4988 14.8438 14.8437C14.8438 15.1887 16.3002 16.0312 19 16.0312Z" fill="#FF7B02"/>
</svg>
