<svg width="105" height="103" viewBox="0 0 105 103" fill="none" xmlns="http://www.w3.org/2000/svg">
<path d="M22.5645 72.0762C23.2513 71.4355 24.3304 71.4697 24.9746 72.1527C25.6188 72.8356 25.5842 73.9086 24.8975 74.5493L11.4257 87.1171C10.4402 88.0365 10.4084 89.7307 11.4648 90.7814C12.5207 91.8316 14.2252 91.7997 15.1492 90.8202L27.7443 77.4678C28.3885 76.7849 29.4674 76.7506 30.1542 77.3913C30.8409 78.032 30.8753 79.1049 30.2311 79.7879L17.6362 93.1403H17.636C15.2978 95.619 11.3694 95.4824 9.0536 93.1792C6.73832 90.8764 6.59885 86.9706 9.09272 84.644L22.5645 72.0762Z" fill="#FF7B02"/>
<path d="M52.742 49.6468C45.8593 42.7897 34.7004 42.7897 27.8177 49.6468C20.9351 56.5038 20.9351 67.6212 27.8177 74.4782C34.7004 81.3353 45.8593 81.3353 52.742 74.4782C59.6246 67.6212 59.6246 56.5038 52.742 49.6468ZM55.1737 47.2241C63.3993 55.4191 63.3993 68.7059 55.1737 76.9009C46.948 85.0959 33.6116 85.0959 25.386 76.9009C17.1604 68.7059 17.1604 55.4191 25.386 47.2241C33.6116 39.0291 46.948 39.0291 55.1737 47.2241Z" fill="#FF7B02"/>
<path d="M32.3086 43.0802V8.9501C32.3086 8.00685 33.0709 7.24219 34.0113 7.24219H78.2815L78.366 7.24436C78.7868 7.26531 79.1862 7.44212 79.4856 7.74239L94.8098 23.1136C95.1291 23.4339 95.3086 23.8684 95.3086 24.3213V89.2218C95.3086 90.165 94.5462 90.9296 93.6059 90.9297H34.0113C33.0709 90.9297 32.3086 90.165 32.3086 89.2218V80.7114C32.3086 79.7682 33.0709 79.0035 34.0113 79.0035C34.9517 79.0035 35.714 79.7682 35.714 80.7114V87.5139H91.9032V25.0287L77.5762 10.658H35.714V43.0802C35.714 44.0235 34.9517 44.7881 34.0113 44.7881C33.0709 44.7881 32.3086 44.0235 32.3086 43.0802Z" fill="black"/>
<path d="M76.7305 9.73289C76.7305 8.80173 77.4881 8.04688 78.4228 8.04688C79.3574 8.04688 80.1151 8.80173 80.1151 9.73289V22.378H92.8074C93.742 22.378 94.4997 23.1328 94.4997 24.064C94.4997 24.9951 93.742 25.75 92.8074 25.75H78.4228C77.4881 25.75 76.7305 24.9951 76.7305 24.064V9.73289Z" fill="black"/>
<path d="M70.1786 15.2891C71.1203 15.2891 71.8837 16.0096 71.8837 16.8984C71.8837 17.7873 71.1203 18.5078 70.1786 18.5078H42.8965C41.9548 18.5078 41.1914 17.7873 41.1914 16.8984C41.1914 16.0096 41.9548 15.2891 42.8965 15.2891H70.1786Z" fill="black"/>
<path d="M57.1837 22.5312C58.1651 22.5312 58.9606 23.2518 58.9606 24.1406C58.9606 25.0295 58.1651 25.75 57.1837 25.75H42.9683C41.987 25.75 41.1914 25.0295 41.1914 24.1406C41.1914 23.2518 41.987 22.5312 42.9683 22.5312H57.1837Z" fill="black"/>
<path d="M85.5247 32.9922C86.4665 32.9922 87.2299 33.7127 87.2299 34.6016C87.2299 35.4904 86.4665 36.2109 85.5247 36.2109H42.8965C41.9548 36.2109 41.1914 35.4904 41.1914 34.6016C41.1914 33.7127 41.9548 32.9922 42.8965 32.9922H85.5247Z" fill="black"/>
<path d="M85.5226 41.0391C86.4668 41.0391 87.2323 41.7596 87.2323 42.6484C87.2323 43.5373 86.4668 44.2578 85.5226 44.2578H59.0573C58.1131 44.2578 57.3477 43.5373 57.3477 42.6484C57.3477 41.7596 58.1131 41.0391 59.0573 41.0391H85.5226Z" fill="black"/>
<path d="M85.5405 56.3281C86.4733 56.3281 87.2296 57.0487 87.2296 57.9375C87.2296 58.8263 86.4733 59.5469 85.5405 59.5469H67.1109C66.1781 59.5469 65.4219 58.8263 65.4219 57.9375C65.4219 57.0487 66.1781 56.3281 67.1109 56.3281H85.5405Z" fill="black"/>
<path d="M76.6116 64.375C77.5689 64.375 78.345 65.0955 78.345 65.9844C78.345 66.8732 77.5689 67.5938 76.6116 67.5938H67.1552C66.1979 67.5938 65.4219 66.8732 65.4219 65.9844C65.4219 65.0955 66.1979 64.375 67.1552 64.375H76.6116Z" fill="black"/>
<path d="M85.5324 71.6172C86.4704 71.6172 87.2308 72.3377 87.2308 73.2266C87.2308 74.1154 86.4704 74.8359 85.5324 74.8359H64.6984C63.7604 74.8359 63 74.1154 63 73.2266C63 72.3377 63.7604 71.6172 64.6984 71.6172H85.5324Z" fill="black"/>
<path d="M64.448 79.6641C65.4334 79.6641 66.2323 80.3846 66.2323 81.2734C66.2323 82.1623 65.4334 82.8828 64.448 82.8828H59.132C58.1465 82.8828 57.3477 82.1623 57.3477 81.2734C57.3477 80.3846 58.1465 79.6641 59.132 79.6641H64.448Z" fill="black"/>
<path d="M44.6607 56.8357C45.3456 56.1589 46.4562 56.1589 47.1411 56.8357C47.826 57.5126 47.826 58.61 47.1411 59.2868L39.2487 67.0861C38.5638 67.763 37.4533 67.763 36.7684 67.0861L32.8223 63.1866C32.1374 62.5097 32.1374 61.4123 32.8223 60.7355C33.5072 60.0586 34.6177 60.0586 35.3026 60.7355L38.0085 63.4095L44.6607 56.8357Z" fill="#FF7B02"/>
</svg>
