<svg width="126" height="119" viewBox="0 0 126 119" fill="none" xmlns="http://www.w3.org/2000/svg">
<mask id="mask0_30_21524" style="mask-type:luminance" maskUnits="userSpaceOnUse" x="9" y="3" width="106" height="106">
<path d="M9.61719 3.84048H114.457V108.445H9.61719V3.84048Z" fill="white"/>
</mask>
<g mask="url(#mask0_30_21524)">
<path d="M104.702 37.4297C105.84 37.4297 106.762 36.5704 106.762 35.5103C106.762 34.4503 105.84 33.591 104.702 33.591H11.6773C10.5395 33.591 9.61719 34.4503 9.61719 35.5103C9.61719 36.5704 10.5395 37.4297 11.6773 37.4297H104.702Z" fill="black"/>
<path d="M31.2887 22.0727C31.2887 23.774 29.9785 25.1712 28.3709 25.1712C26.771 25.1712 25.459 23.7757 25.459 22.0727C25.459 20.3696 26.7709 18.9741 28.3709 18.9741C29.9785 18.9741 31.2887 20.3713 31.2887 22.0727ZM35.5876 22.0727C35.5876 17.833 32.344 14.3952 28.3709 14.3952C24.4024 14.3952 21.1602 17.8347 21.1602 22.0727C21.1602 26.3106 24.4024 29.75 28.3709 29.75C32.3439 29.75 35.5876 26.3123 35.5876 22.0727Z" fill="black"/>
<path d="M92.1066 22.0727C92.1066 23.7711 90.8615 25.1712 89.3464 25.1712H71.2769C69.7618 25.1712 68.5165 23.7711 68.5165 22.0727C68.5165 20.3743 69.7618 18.9741 71.2769 18.9741H89.3464C90.8614 18.9741 92.1066 20.3743 92.1066 22.0727ZM96.1819 22.0727C96.1819 17.8431 93.11 14.3952 89.3464 14.3952H71.2769C67.5133 14.3952 64.4414 17.8431 64.4414 22.0727C64.4414 26.3025 67.5133 29.75 71.2769 29.75H89.3464C93.1099 29.75 96.1818 26.3025 96.1819 22.0727Z" fill="black"/>
<path d="M48.8869 22.0727C48.8869 23.774 47.6641 25.1712 46.1636 25.1712C44.6703 25.1712 43.4458 23.7757 43.4458 22.0727C43.4458 20.3696 44.6703 18.9741 46.1636 18.9741C47.6641 18.9741 48.8869 20.3713 48.8869 22.0727ZM52.8992 22.0727C52.8992 17.833 49.8718 14.3952 46.1636 14.3952C42.4596 14.3952 39.4336 17.8347 39.4336 22.0727C39.4336 26.3106 42.4597 29.75 46.1636 29.75C49.8718 29.75 52.8992 26.3123 52.8992 22.0727Z" fill="black"/>
<path d="M38.215 70.002C39.3821 70.2651 40.5542 69.5859 40.8331 68.4851L45.1434 51.4719C45.4223 50.3711 44.7022 49.2654 43.5352 49.0023C42.3681 48.7392 41.1959 49.4184 40.917 50.5192L36.6069 67.5325C36.328 68.6333 37.048 69.7389 38.215 70.002Z" fill="#FF7B02"/>
<path d="M50.7387 67.6159C51.6292 68.3769 52.9942 68.3013 53.7875 67.447L59.8426 60.9258L59.889 60.8751C60.8447 59.8039 60.8311 58.184 59.8485 57.1282L53.7875 50.6004C52.9942 49.7461 51.6292 49.6705 50.7387 50.4315C49.8482 51.1925 49.7694 52.502 50.5626 53.3562L55.8251 59.0237L50.5626 64.691C49.7694 65.5453 49.8482 66.8549 50.7387 67.6159Z" fill="#FF7B02"/>
<path d="M27.9685 67.447C28.7617 68.3013 30.1268 68.3769 31.0173 67.6159C31.9077 66.8549 31.9866 65.5453 31.1933 64.691L25.9307 59.0237L31.1933 53.3562C31.9865 52.502 31.9077 51.1925 31.0173 50.4315C30.1268 49.6705 28.7617 49.7461 27.9685 50.6004L21.9073 57.128L21.9075 57.1282C20.9111 58.1986 20.911 59.8488 21.9075 60.9192H21.9073L27.9685 67.447Z" fill="#FF7B02"/>
<path d="M90.374 100.934C90.374 101.205 90.1409 101.433 89.8788 101.433H86.1259C85.8634 101.433 85.6305 101.205 85.6305 100.934V98.5483C85.6305 97.5825 84.9605 96.7454 84.0168 96.5323C82.0421 96.0864 80.1808 95.3022 78.5022 94.2536C77.6845 93.7429 76.6219 93.8633 75.9397 94.5439L74.2643 96.2157C74.0696 96.4099 73.7485 96.4036 73.5652 96.2198C73.5638 96.2184 73.5625 96.2171 73.5611 96.2157L70.908 93.5688C70.7254 93.3866 70.7184 93.0639 70.9092 92.8692L72.5869 91.2012C73.2737 90.5184 73.3939 89.4513 72.8763 88.6332C71.8243 86.9704 71.043 85.1206 70.5897 83.1456C70.3741 82.2062 69.5369 81.5402 68.5714 81.5402H66.1914C65.9231 81.5402 65.696 81.3121 65.696 81.0474V77.3033C65.6961 77.0383 65.9232 76.8104 66.1914 76.8104H68.5655L68.6559 76.8084C69.584 76.7683 70.377 76.1135 70.5848 75.2021C71.0328 73.237 71.8041 71.3965 72.8416 69.737C73.3512 68.9219 73.2309 67.8638 72.5513 67.1834L70.864 65.4944C70.8617 65.4922 70.8594 65.4899 70.8572 65.4877C70.6737 65.3056 70.6675 64.987 70.8612 64.7935L73.5086 62.1524C73.7034 61.9582 74.0246 61.9644 74.2076 62.1481L74.2144 62.1548L75.8842 63.8149L75.9496 63.8772C76.6363 64.5033 77.6625 64.5973 78.4542 64.0963C80.122 63.041 81.9781 62.2551 83.9619 61.7917C84.8984 61.5729 85.5608 60.7392 85.5608 59.7792V57.4167C85.5608 57.1424 85.7909 56.918 86.0559 56.9179H89.8032C90.0744 56.918 90.3041 57.1486 90.3041 57.4167V59.7442C90.3041 60.7125 90.9777 61.5511 91.9247 61.7616C93.9319 62.2079 95.8135 62.9973 97.512 64.0608L97.5893 64.1068C98.3947 64.5641 99.4121 64.432 100.074 63.7743L101.755 62.1026L101.762 62.0958C101.945 61.9122 102.266 61.9059 102.461 62.1002L105.108 64.7411L105.126 64.7596C105.302 64.9544 105.29 65.259 105.113 65.4355C105.11 65.4377 105.108 65.4399 105.106 65.4421L103.43 67.1195C102.748 67.8025 102.629 68.8658 103.145 69.6816C104.202 71.3542 104.984 73.215 105.438 75.2029L105.46 75.2902C105.705 76.1843 106.521 76.8104 107.457 76.8104H109.813C110.087 76.8104 110.314 77.0441 110.314 77.3033V81.0474C110.314 81.3063 110.088 81.5402 109.813 81.5402H107.445C106.479 81.5402 105.642 82.2061 105.427 83.1454C104.973 85.1208 104.191 86.9721 103.143 88.6369C102.629 89.4537 102.749 90.5169 103.433 91.1988L105.108 92.8705C105.302 93.064 105.296 93.3826 105.113 93.5647C105.111 93.5666 105.109 93.5685 105.107 93.5704L102.461 96.2156L102.442 96.2333C102.246 96.4093 101.939 96.3978 101.762 96.2199C101.76 96.2177 101.758 96.2154 101.755 96.2132L100.074 94.5413C99.3901 93.8616 98.3267 93.7434 97.5099 94.2562C95.8373 95.3063 93.9769 96.0862 91.9851 96.5388C91.0427 96.7529 90.374 97.5894 90.374 98.5541V100.934ZM94.5155 100.139C95.8252 99.7348 97.0817 99.2131 98.2731 98.5856L98.8327 99.1419C100.612 100.92 103.492 100.94 105.303 99.2227L105.389 99.1395L105.39 99.1379L108.038 96.4909C109.85 94.6873 109.842 91.7481 108.036 89.9467L107.483 89.3948C108.106 88.2146 108.626 86.9701 109.03 85.674H109.813C112.367 85.6739 114.455 83.5974 114.455 81.0474V77.3033C114.455 74.7532 112.367 72.6766 109.813 72.6766H109.044C108.639 71.3679 108.115 70.1105 107.483 68.9172L108.038 68.3609C109.85 66.5572 109.841 63.6188 108.036 61.8176L105.389 59.1762C103.584 57.3759 100.64 57.3674 98.8327 59.1738L98.2726 59.7304C97.0605 59.0918 95.7809 58.5608 94.4456 58.1535V57.4167C94.4456 54.8637 92.3597 52.7842 89.8032 52.7841H86.0559C83.4931 52.7842 81.4193 54.8699 81.4193 57.4167V58.2038C80.1176 58.6123 78.8672 59.1368 77.6808 59.7667L77.137 59.226L77.1369 59.2262C75.3294 57.4198 72.3859 57.4282 70.5812 59.2284L67.9336 61.8697C66.1284 63.6708 66.1201 66.6094 67.9312 68.4132L68.5034 68.9861C67.8886 70.1578 67.3763 71.3917 66.9783 72.6766H66.1914C63.6323 72.6766 61.5547 74.759 61.5547 77.3033V81.0474C61.5547 83.5917 63.6324 85.674 66.1914 85.674H66.9864C67.3899 86.9696 67.9102 88.214 68.5357 89.3943L67.9828 89.9441C67.9806 89.9463 67.9784 89.9485 67.9762 89.9507C66.1797 91.7531 66.1735 94.6903 67.9802 96.4926L70.6333 99.1394C72.4124 100.92 75.2941 100.941 77.1062 99.2227L77.1918 99.1395L77.1921 99.1394L77.7471 98.5855C78.9334 99.2091 80.1851 99.7306 81.489 100.133V100.934C81.489 103.484 83.5718 105.566 86.1259 105.566H89.8788C92.4325 105.566 94.5155 103.484 94.5155 100.934V100.139Z" fill="black"/>
<path d="M96.7424 79.1801C96.7424 83.9892 92.8339 87.8901 88.0111 87.8901C83.1816 87.8901 79.2738 83.9883 79.2738 79.1801C79.2738 74.3654 83.1824 70.4644 88.0111 70.4644C92.8331 70.4644 96.7424 74.3646 96.7424 79.1801ZM100.993 79.1801C100.993 72.0207 95.18 66.2215 88.0111 66.2215C80.8372 66.2215 75.0234 72.0199 75.0234 79.1801C75.0234 86.3354 80.8379 92.1328 88.0111 92.1328C95.1792 92.1328 100.993 86.3346 100.993 79.1801Z" fill="black"/>
<path d="M9.61719 17.7004V74.4342C9.61719 80.1231 13.6396 85.414 19.2835 85.4141H31.3705C32.5083 85.4141 33.4307 84.5053 33.4307 83.3842C33.4307 82.2632 32.5083 81.3544 31.3705 81.3544H19.2835C16.5692 81.3544 13.7373 78.5848 13.7373 74.4342V17.7004C13.7373 13.544 16.5633 10.7803 19.2835 10.7803H97.0958C99.8152 10.7803 102.642 13.5488 102.642 17.7004V61.7786C102.642 62.8997 103.564 63.8084 104.702 63.8085C105.84 63.8085 106.762 62.8997 106.762 61.7786V17.7004C106.762 12.0129 102.747 6.72051 97.0958 6.72051H19.2835C13.6333 6.72053 9.61721 12.0063 9.61719 17.7004ZM66.1955 85.4141C67.3332 85.4141 68.2557 84.5053 68.2557 83.3842C68.2557 82.2632 67.3332 81.3544 66.1955 81.3544H49.6225C48.4847 81.3544 47.5622 82.2632 47.5622 83.3842C47.5622 84.5053 48.4847 85.4141 49.6225 85.4141H66.1955Z" fill="black"/>
<path d="M40.4149 85.4141C41.467 85.4141 42.32 84.7696 42.32 83.9745C42.32 83.1795 41.467 82.535 40.4149 82.535H40.3776C39.3255 82.535 38.4727 83.1795 38.4727 83.9745C38.4727 84.7696 39.3255 85.4141 40.3776 85.4141H40.4149Z" fill="black"/>
</g>
</svg>
