<svg width="110" height="110" viewBox="0 0 110 110" fill="none" xmlns="http://www.w3.org/2000/svg">
<path d="M65.3125 22.3438H60.1562V17.1875C60.1562 16.7317 59.9752 16.2945 59.6528 15.9722C59.3305 15.6498 58.8933 15.4688 58.4375 15.4688H51.5625C51.1067 15.4688 50.6695 15.6498 50.3472 15.9722C50.0248 16.2945 49.8438 16.7317 49.8438 17.1875V22.3438H44.6875C44.2317 22.3438 43.7945 22.5248 43.4722 22.8472C43.1498 23.1695 42.9688 23.6067 42.9688 24.0625V30.9375C42.9688 31.3933 43.1498 31.8305 43.4722 32.1528C43.7945 32.4752 44.2317 32.6562 44.6875 32.6562H49.8438V37.8125C49.8438 38.2683 50.0248 38.7055 50.3472 39.0278C50.6695 39.3502 51.1067 39.5312 51.5625 39.5312H58.4375C58.8933 39.5312 59.3305 39.3502 59.6528 39.0278C59.9752 38.7055 60.1562 38.2683 60.1562 37.8125V32.6562H65.3125C65.7683 32.6562 66.2055 32.4752 66.5278 32.1528C66.8502 31.8305 67.0312 31.3933 67.0312 30.9375V24.0625C67.0312 23.6067 66.8502 23.1695 66.5278 22.8472C66.2055 22.5248 65.7683 22.3438 65.3125 22.3438ZM63.5938 29.2188H58.4375C57.9817 29.2188 57.5445 29.3998 57.2222 29.7222C56.8998 30.0445 56.7188 30.4817 56.7188 30.9375V36.0938H53.2812V30.9375C53.2812 30.4817 53.1002 30.0445 52.7778 29.7222C52.4555 29.3998 52.0183 29.2188 51.5625 29.2188H46.4062V25.7812H51.5625C52.0183 25.7812 52.4555 25.6002 52.7778 25.2778C53.1002 24.9555 53.2812 24.5183 53.2812 24.0625V18.9062H56.7188V24.0625C56.7188 24.5183 56.8998 24.9555 57.2222 25.2778C57.5445 25.6002 57.9817 25.7812 58.4375 25.7812H63.5938V29.2188Z" fill="#FF7B02"/>
<path d="M102.661 31.5594C102.696 31.257 102.713 30.9528 102.713 30.6484C102.704 29.073 102.158 27.5477 101.164 26.3254C100.17 25.1031 98.7876 24.2573 97.2469 23.9281C95.5041 23.5964 93.7004 23.939 92.2007 24.8867C90.701 25.8344 89.6173 27.3164 89.1688 29.0328L81.6063 50.7922C81.4942 50.8367 81.3851 50.8883 81.2797 50.9469L66.0859 59.85C63.761 61.2157 61.8325 63.1643 60.4912 65.5034C59.1498 67.8425 58.442 70.4911 58.4375 73.1875V89.3781C57.9817 89.3781 57.5445 89.5592 57.2222 89.8815C56.8998 90.2039 56.7188 90.641 56.7188 91.0969V104.847C56.7188 105.303 56.8998 105.74 57.2222 106.062C57.5445 106.385 57.9817 106.566 58.4375 106.566H82.5C82.9558 106.566 83.393 106.385 83.7153 106.062C84.0377 105.74 84.2188 105.303 84.2188 104.847V91.0969C84.2188 90.641 84.0377 90.2039 83.7153 89.8815C83.393 89.5592 82.9558 89.3781 82.5 89.3781V85.5969C82.5032 84.8709 82.6577 84.1536 82.9537 83.4907C83.2496 82.8279 83.6805 82.2339 84.2188 81.7469L95.8375 71.4172C97.1084 70.3052 98.0181 68.8388 98.45 67.2062L105.909 39.3109C106.069 38.7284 106.15 38.1273 106.15 37.5234C106.143 36.3105 105.817 35.1207 105.205 34.0738C104.592 33.0269 103.715 32.1596 102.661 31.5594ZM92.4516 30.0469C92.6625 29.158 93.2008 28.3813 93.9589 27.8717C94.7171 27.362 95.6395 27.1567 96.5422 27.2969C97.3126 27.4582 98.0043 27.8791 98.5017 28.4891C98.9991 29.0991 99.272 29.8613 99.275 30.6484V30.6828C97.7397 30.7113 96.2558 31.2405 95.0489 32.1899C93.8421 33.1392 92.9783 34.4568 92.5891 35.9422L87.7938 50.7406C87.0677 50.3962 86.2893 50.1755 85.4906 50.0875L92.4516 30.0469ZM80.7813 103.128H60.1563V92.8156H80.7813V103.128ZM102.592 38.4172L95.1156 66.3297C94.857 67.2996 94.3191 68.1722 93.5687 68.8391L81.9328 79.1687C81.0324 79.9807 80.3119 80.9721 79.8176 82.0791C79.3232 83.1862 79.066 84.3845 79.0625 85.5969V89.3781H61.875V73.1875C61.8835 71.0905 62.436 69.0316 63.4783 67.212C64.5207 65.3924 66.0173 63.8744 67.8219 62.8063L82.9984 53.9203C83.3898 53.6923 83.8223 53.5439 84.2711 53.4836C84.7199 53.4233 85.1763 53.4522 85.6139 53.5688C86.0515 53.6854 86.4618 53.8873 86.8211 54.163C87.1805 54.4386 87.4818 54.7825 87.7078 55.175C88.1542 55.9692 88.2774 56.9049 88.0516 57.7875C87.9322 58.2233 87.728 58.6313 87.4508 58.9882C87.1736 59.3451 86.8287 59.6437 86.4359 59.8672L76.5875 65.5562C76.2134 65.7941 75.9456 66.1672 75.8402 66.5978C75.7347 67.0284 75.7997 67.4831 76.0215 67.8669C76.2434 68.2507 76.6049 68.5339 77.0307 68.6574C77.4564 68.7809 77.9134 68.7352 78.3063 68.5297L88.1547 62.8406C88.9419 62.394 89.6318 61.7944 90.1837 61.0771C90.7357 60.3598 91.1386 59.5394 91.3688 58.6641C91.8366 56.9055 91.5894 55.0332 90.6812 53.4563L90.5781 53.3016L95.8891 36.9219C96.1 36.033 96.6383 35.2563 97.3964 34.7467C98.1546 34.237 99.077 34.0317 99.9797 34.1719C100.75 34.3332 101.442 34.7541 101.939 35.3641C102.437 35.9741 102.71 36.7363 102.713 37.5234C102.718 37.8258 102.678 38.1272 102.592 38.4172Z" fill="black"/>
<path d="M51.5641 89.38V73.1894C51.5596 70.493 50.8517 67.8444 49.5104 65.5053C48.169 63.1662 46.2406 61.2176 43.9156 59.8519L28.7219 50.9316C28.6187 50.88 28.4984 50.8457 28.3953 50.7941L20.8844 29.155C20.4478 27.4136 19.3641 25.9039 17.8538 24.9332C16.3435 23.9625 14.5201 23.6038 12.7547 23.93C11.214 24.2592 9.83205 25.1051 8.83798 26.3273C7.8439 27.5496 7.2974 29.0749 7.28906 30.6503C7.28862 30.9547 7.30583 31.2589 7.34063 31.5613C6.28663 32.1615 5.40927 33.0288 4.79679 34.0757C4.18431 35.1227 3.85831 36.3124 3.85156 37.5253C3.8549 38.1279 3.92991 38.728 4.075 39.3128L11.5516 67.191C11.9788 68.8304 12.889 70.3035 14.1641 71.4191L25.7656 81.7488C26.3093 82.2325 26.7449 82.8253 27.044 83.4887C27.3432 84.1521 27.4991 84.8711 27.5016 85.5988V89.38C27.0457 89.38 26.6086 89.5611 26.2862 89.8834C25.9639 90.2058 25.7828 90.6429 25.7828 91.0988V104.849C25.7828 105.305 25.9639 105.742 26.2862 106.064C26.6086 106.386 27.0457 106.568 27.5016 106.568H51.5641C52.0199 106.568 52.4571 106.386 52.7794 106.064C53.1017 105.742 53.2828 105.305 53.2828 104.849V91.0988C53.2828 90.6429 53.1017 90.2058 52.7794 89.8834C52.4571 89.5611 52.0199 89.38 51.5641 89.38ZM10.7266 30.6503C10.7287 29.8656 10.9992 29.1053 11.4932 28.4956C11.9872 27.8859 12.675 27.4636 13.4422 27.2988C14.3697 27.1641 15.3139 27.3852 16.0853 27.9175C16.8567 28.4498 17.3983 29.2541 17.6016 30.1691L24.5109 50.0894C23.7122 50.1774 22.9338 50.3982 22.2078 50.7425L17.4469 36.03C17.0594 34.53 16.194 33.1969 14.9815 32.2325C13.769 31.268 12.2753 30.7247 10.7266 30.6847V30.6503ZM28.0516 79.1707L16.4328 68.841C15.6784 68.1705 15.14 67.2912 14.8859 66.3144L7.39219 38.4191C7.32104 38.1266 7.2864 37.8264 7.28906 37.5253C7.29118 36.7406 7.56172 35.9803 8.05573 35.3706C8.54974 34.7609 9.23748 34.3386 10.0047 34.1738C10.9257 34.0356 11.8649 34.2512 12.6334 34.7773C13.4018 35.3035 13.9426 36.1011 14.1469 37.0097L19.4234 53.3035L19.3203 53.4582C18.4121 55.0351 18.1649 56.9074 18.6328 58.666C18.8629 59.5413 19.2658 60.3618 19.8178 61.079C20.3698 61.7963 21.0597 62.3959 21.8469 62.8425L31.6953 68.5316C32.0881 68.7371 32.5451 68.7828 32.9709 68.6593C33.3966 68.5358 33.7582 68.2526 33.98 67.8688C34.2019 67.485 34.2669 67.0303 34.1614 66.5997C34.0559 66.1692 33.7882 65.796 33.4141 65.5582L23.5656 59.8691C23.1729 59.6457 22.828 59.347 22.5508 58.9901C22.2735 58.6333 22.0694 58.2252 21.95 57.7894C21.7242 56.9068 21.8473 55.9711 22.2938 55.1769C22.5183 54.7853 22.8178 54.4417 23.1752 54.1659C23.5325 53.89 23.9407 53.6873 24.3764 53.5691C24.8121 53.451 25.2668 53.4199 25.7146 53.4775C26.1623 53.5352 26.5943 53.6804 26.9859 53.905L42.1797 62.8082C43.9843 63.8763 45.4809 65.3943 46.5233 67.2139C47.5656 69.0335 48.118 71.0924 48.1266 73.1894V89.38H30.9391V85.5988C30.9361 84.3846 30.6775 83.1847 30.18 82.0772C29.6825 80.9696 28.9573 79.9793 28.0516 79.1707ZM49.8453 103.13H29.2203V92.8175H49.8453V103.13Z" fill="black"/>
<path d="M79.3162 8.82296C77.7206 7.22458 75.8255 5.95655 73.7393 5.09143C71.6531 4.22631 69.4168 3.78109 67.1583 3.78125C64.8998 3.78141 62.6635 4.22695 60.5775 5.09236C58.4914 5.95777 56.5964 7.22607 55.0011 8.82467C53.4059 7.22603 51.511 5.95772 49.425 5.09235C47.339 4.22698 45.1027 3.78154 42.8443 3.78154C40.586 3.78154 38.3497 4.22698 36.2637 5.09235C34.1777 5.95772 32.2828 7.22603 30.6876 8.82467C27.4707 12.0485 25.6641 16.4168 25.6641 20.9711C25.6641 25.5254 27.4707 29.8937 30.6876 33.1175L53.7876 56.2175C54.1099 56.5397 54.547 56.7207 55.0028 56.7207C55.4585 56.7207 55.8956 56.5397 56.2179 56.2175L79.3179 33.1175C82.5347 29.8931 84.3411 25.5244 84.3408 20.9699C84.3405 16.4153 82.5335 12.0468 79.3162 8.82296ZM55.0011 52.572L33.1162 30.6872C31.1949 28.7632 29.8871 26.3128 29.3582 23.6457C28.8293 20.9786 29.103 18.2146 30.1448 15.703C31.1865 13.1915 32.9495 11.0452 35.2109 9.53543C37.4722 8.02569 40.1305 7.2203 42.8495 7.22108C44.6557 7.21488 46.4451 7.56838 48.1132 8.26096C49.7814 8.95354 51.2949 9.97133 52.5656 11.255L53.7859 12.4753C54.1082 12.7975 54.5453 12.9785 55.0011 12.9785C55.4568 12.9785 55.8939 12.7975 56.2162 12.4753L57.44 11.2516C58.716 9.97324 60.2315 8.95909 61.8999 8.26714C63.5683 7.57519 65.3568 7.21903 67.1629 7.21903C68.9691 7.21903 70.7576 7.57519 72.426 8.26714C74.0943 8.95909 75.6099 9.97324 76.8859 11.2516C79.4605 13.8296 80.9066 17.3242 80.9066 20.9676C80.9066 24.6111 79.4605 28.1057 76.8859 30.6837L55.0011 52.572Z" fill="black"/>
</svg>
