<svg width="97" height="97" viewBox="0 0 97 97" fill="none" xmlns="http://www.w3.org/2000/svg">
<g clip-path="url(#clip0_30_21575)">
<path d="M51.2351 71.1321H54.6446L53.0602 84.1928C52.9081 85.3898 53.5511 86.5465 54.6478 87.0493C55.721 87.544 56.9913 87.2818 57.7809 86.4027L70.3987 72.5385C71.1412 71.7218 71.3314 70.5436 70.8837 69.5348C70.4565 68.5362 69.4721 67.8914 68.386 67.8988H64.9815L66.5658 54.838C66.7187 53.6414 66.0763 52.4843 64.9799 51.9815C63.9061 51.4876 62.6361 51.7496 61.8453 52.6281L49.2357 66.4923C48.494 67.3094 48.3038 68.487 48.7507 69.496C49.176 70.49 50.1539 71.134 51.2351 71.1321ZM63.1707 55.9747L61.5542 69.32C61.4983 69.779 61.6415 70.24 61.9476 70.5863C62.2538 70.9328 62.6939 71.1313 63.1561 71.1321H67.3045L56.4521 83.0563L58.0687 69.711C58.1246 69.252 57.9813 68.7911 57.6752 68.4447C57.3691 68.0982 56.929 67.8997 56.4667 67.8989H52.3184L63.1707 55.9747Z" fill="#FF7B02"/>
<path d="M3.23483 23.9521V32.3328C3.2407 36.6982 5.75714 40.671 9.70127 42.5418V71.1318C9.71283 81.8411 18.3915 90.5197 29.1008 90.5313H30.7173V92.9238C30.719 95.173 32.5421 96.996 34.7912 96.9977H84.842C87.0911 96.996 88.9142 95.173 88.9159 92.9238V59.72L89.3006 60.0191C89.901 60.4861 90.6624 60.6954 91.417 60.6007C92.1717 60.5062 92.8579 60.1154 93.3243 59.5146L96.3959 55.5669C97.3679 54.3169 97.1428 52.5156 95.8931 51.5432L85.6824 43.6023V30.716C85.6824 28.9303 84.2348 27.4827 82.449 27.4827H75.9826C74.1969 27.4827 72.7493 28.9303 72.7493 30.716V33.5435L61.5768 24.8541C60.5416 24.0476 59.0908 24.0476 58.0557 24.8541L23.7417 51.543C22.4919 52.5154 22.2668 54.3167 23.2389 55.5667L26.3104 59.5144C26.7768 60.1152 27.463 60.5058 28.2178 60.6005C28.9725 60.6951 29.7339 60.4859 30.3341 60.0189L30.7171 59.7198V80.8313H29.1006C23.7458 80.826 19.4061 76.4863 19.4008 71.1316V42.5416C23.345 40.6708 25.8614 36.698 25.8673 32.3326V23.952C27.8042 23.2771 29.1021 21.4507 29.1021 19.3995C29.1021 17.3484 27.8042 15.5219 25.8673 14.8471V4.84988C25.8673 2.17146 23.6958 0 21.0174 0C18.339 0 16.1675 2.17146 16.1675 4.84988V14.5496H12.9346V4.84988C12.9346 2.17146 10.7631 0 8.08471 0C5.40629 0 3.23483 2.17146 3.23483 4.84988V14.8471C1.29791 15.5221 0 17.3485 0 19.3997C0 21.4509 1.29791 23.2773 3.23483 23.9521ZM75.983 30.716H82.4494V41.0883L75.983 36.059V30.716ZM28.6368 57.2416L26.0147 53.871L59.8166 27.5814L93.6185 53.871L90.9964 57.2416L60.8091 33.7633C60.2252 33.3092 59.4078 33.3092 58.8239 33.7633L28.6368 57.2416ZM59.8166 37.0872L85.6825 57.2045V92.932C85.6825 93.3963 85.3061 93.7726 84.842 93.7726H34.7912C34.3269 93.7726 33.9507 93.3961 33.9507 92.932V57.2045L59.8166 37.0872ZM29.1008 84.0647H30.7173V87.298H29.1008C20.1764 87.2881 12.9442 80.0561 12.9346 71.1318V43.5197C13.4698 43.6013 14.0099 43.6445 14.5511 43.6491C15.0924 43.6445 15.6327 43.6013 16.1677 43.5197V71.1316C16.1759 78.2709 21.9614 84.0567 29.1008 84.0647ZM22.6343 32.3326C22.6343 36.7967 19.0153 40.4158 14.5511 40.4158C10.087 40.4158 6.46795 36.7967 6.46795 32.3326V24.2494H22.6341L22.6343 32.3326ZM19.401 4.85007C19.401 3.9572 20.1249 3.2335 21.0176 3.2335C21.9105 3.2335 22.6341 3.95739 22.6341 4.85007V14.5498H19.4008L19.401 4.85007ZM6.46795 4.85007C6.46795 3.9572 7.19184 3.2335 8.08452 3.2335C8.9772 3.2335 9.70108 3.95739 9.70108 4.85007V14.5498H6.46795V4.85007ZM4.85139 17.7829H24.2509C25.1438 17.7829 25.8675 18.5068 25.8675 19.3995C25.8675 20.2924 25.1436 21.0161 24.2509 21.0161H4.85139C3.95852 21.0161 3.23483 20.2922 3.23483 19.3995C3.23483 18.5068 3.95852 17.7829 4.85139 17.7829Z" fill="black"/>
</g>
<defs>
<clipPath id="clip0_30_21575">
<rect width="97" height="97" fill="white"/>
</clipPath>
</defs>
</svg>
