<svg width="100" height="100" viewBox="0 0 100 100" fill="none" xmlns="http://www.w3.org/2000/svg">
<g clip-path="url(#clip0_30_21432)">
<path d="M26.7503 62.9373C27.6841 62.3987 28.0038 61.2031 27.4651 60.2693C26.9257 59.3362 25.731 59.0158 24.7971 59.5544C23.8633 60.0938 23.5429 61.2893 24.0823 62.2224C24.6209 63.1563 25.8164 63.4767 26.7503 62.9373Z" fill="#FF7B02"/>
<path d="M18.7469 76.4177L28.5827 93.4549C30.7052 97.1353 35.4797 98.4979 39.2555 96.3151C42.9916 94.156 44.2756 89.3823 42.1142 85.6431L36.2548 75.493L41.3292 72.5633C42.263 72.0231 42.5834 70.8291 42.044 69.8953L39.5042 65.4962C39.8071 65.4374 41.7984 65.0468 76.9142 58.1582C81.2553 57.9225 83.8562 53.1747 81.6635 49.3791L75.1724 38.1364L79.3205 31.8536C79.7279 31.2356 79.7523 30.4414 79.3823 29.8005L75.476 23.0348C75.106 22.3939 74.4033 22.0186 73.6671 22.062L66.1529 22.5129L58.947 10.0313C57.9033 8.22308 56.0333 7.12827 53.9459 7.10233C53.9207 7.10156 53.8963 7.10156 53.8711 7.10156C51.8539 7.10156 50.0229 8.10559 48.938 9.80313L23.4237 42.3059L6.83667 51.8823C0.312774 55.6474 -1.94705 64.0168 1.83255 70.5583C5.28561 76.5397 12.5656 78.8926 18.7469 76.4177ZM38.7321 87.597C39.8109 89.4632 39.1723 91.8512 37.3008 92.9323C35.4232 94.0179 33.0322 93.3511 31.9656 91.5025L22.2 74.5859L28.9657 70.6796C40.2679 90.2582 38.5505 87.2835 38.7321 87.597ZM34.3017 72.1094L32.3486 68.7265L35.7315 66.7733L37.6846 70.1562L34.3017 72.1094ZM72.6966 26.0331L75.3959 30.7084L72.9889 34.3538L68.3364 26.2948L72.6966 26.0331ZM52.2049 11.9447C52.729 11.0872 53.5606 10.9987 53.8978 11.0078C54.2312 11.0116 55.0621 11.1154 55.5633 11.9836L78.2806 51.3322C79.0207 52.6132 78.1211 54.2238 76.6372 54.2604C76.371 54.2665 76.2481 54.3145 75.5661 54.442L51.5358 12.8198C52.0401 12.1713 52.1049 12.1087 52.2049 11.9447ZM48.9364 16.131L71.5141 55.2369L37.4397 61.9203L27.079 43.9752L48.9364 16.131ZM5.21542 68.6052C4.35788 67.1213 3.90469 65.4367 3.90469 63.7323C3.90469 60.2487 5.77695 57.0047 8.78979 55.2652L24.0127 46.4761L33.7784 63.3905L18.5554 72.1803C13.8916 74.872 7.90784 73.2683 5.21542 68.6052Z" fill="black"/>
<path d="M20.6996 64.1721C20.1602 63.2383 18.9655 62.9179 18.0316 63.4573L14.6488 65.4104C13.7165 65.949 12.5194 65.6278 11.9808 64.6955C11.4414 63.7617 10.2466 63.4412 9.31277 63.9806C8.37893 64.52 8.05849 65.7148 8.59789 66.6486C10.2054 69.4334 13.7912 70.4153 16.6019 68.7933L19.9848 66.8401C20.9186 66.3007 21.239 65.1067 20.6996 64.1721Z" fill="#FF7B02"/>
<path d="M97.098 11.2783L86.2147 17.3346C85.2725 17.8595 84.933 19.0489 85.4579 19.9911C85.9813 20.9326 87.1699 21.2736 88.1144 20.7479L98.997 14.6917C99.94 14.1668 100.279 12.9774 99.7538 12.0352C99.2297 11.0922 98.0403 10.7534 97.098 11.2783Z" fill="#FF7B02"/>
<path d="M95.9551 31.5068L88.4088 29.485C87.3666 29.2058 86.2955 29.8238 86.0162 30.866C85.737 31.9081 86.3558 32.9785 87.3979 33.2578L94.9449 35.2796C95.9932 35.5611 97.059 34.9332 97.3367 33.8987C97.616 32.8565 96.9972 31.7853 95.9551 31.5068Z" fill="#FF7B02"/>
<path d="M76.9935 4.18238L74.9694 11.7294C74.6902 12.7715 75.3082 13.842 76.3503 14.122C77.3918 14.4004 78.4629 13.784 78.7429 12.741L80.7662 5.19403C81.0455 4.15186 80.4275 3.08069 79.3853 2.80146C78.3439 2.52222 77.2727 3.1402 76.9935 4.18238Z" fill="#FF7B02"/>
</g>
<defs>
<clipPath id="clip0_30_21432">
<rect width="100" height="100" fill="white"/>
</clipPath>
</defs>
</svg>
