<svg width="88" height="88" viewBox="0 0 88 88" fill="none" xmlns="http://www.w3.org/2000/svg">
<g clip-path="url(#clip0_30_21485)">
<path d="M15.6328 44.2266C15.2681 44.2266 14.9184 44.3714 14.6605 44.6293C14.4027 44.8872 14.2578 45.2369 14.2578 45.6016V65.2806C14.2578 65.6452 14.4027 65.995 14.6605 66.2528C14.9184 66.5107 15.2681 66.6556 15.6328 66.6556H47.6996C48.0643 66.6556 48.4141 66.5107 48.6719 66.2528C48.9298 65.995 49.0746 65.6452 49.0746 65.2806V45.6016C49.0746 45.2369 48.9298 44.8872 48.6719 44.6293C48.4141 44.3714 48.0643 44.2266 47.6996 44.2266H15.6328ZM46.3246 63.9056H17.0078V46.9766H46.3246V63.9056Z" fill="#FF7B02"/>
<path d="M8.78821 36.5622C10.599 36.746 12.425 36.4157 14.0566 35.6092C15.6883 34.8028 17.0597 33.5528 18.0135 32.0027C18.8292 33.582 20.0556 34.9122 21.5637 35.8531C23.0717 36.7941 24.8056 37.311 26.5827 37.3495C28.3598 37.388 30.1144 36.9466 31.6618 36.0717C33.2091 35.1969 34.492 33.9211 35.3752 32.3785C35.7645 33.0487 36.2289 33.6724 36.7594 34.2375C37.6915 35.2215 38.8144 36.0051 40.0594 36.5407C41.3045 37.0763 42.6457 37.3525 44.001 37.3525C45.3564 37.3525 46.6976 37.0763 47.9426 36.5407C49.1877 36.0051 50.3106 35.2215 51.2427 34.2375C51.7732 33.6724 52.2376 33.0487 52.6269 32.3785C53.5135 33.9169 54.7976 35.1885 56.3445 36.0601C57.8915 36.9318 59.6444 37.3713 61.4196 37.3327C63.1948 37.2941 64.9269 36.7787 66.4345 35.8407C67.9421 34.9026 69.1696 33.5763 69.9885 32.0008C71.2224 33.9891 73.1309 35.4666 75.3648 36.1631C77.5987 36.8596 80.0088 36.7284 82.1539 35.7936C84.2991 34.8588 86.0359 33.1829 87.0467 31.0724C88.0574 28.962 88.2745 26.5582 87.6582 24.3008L83.051 7.30583V1.375C83.051 1.01033 82.9062 0.660591 82.6483 0.402728C82.3904 0.144866 82.0407 0 81.676 0L6.32054 0C5.95682 0.00145489 5.6085 0.146963 5.35182 0.404668C5.09515 0.662373 4.95104 1.01128 4.95104 1.375V7.31867L0.343876 24.3063C-0.0268902 25.6735 -0.0953618 27.1049 0.143224 28.5012C0.38181 29.8975 0.921724 31.225 1.72541 32.3915C2.52909 33.5579 3.57725 34.5353 4.79697 35.2555C6.01669 35.9758 7.37869 36.4217 8.78821 36.5622ZM26.819 34.6023C25.779 34.6026 24.7514 34.3767 23.8073 33.9405C22.8632 33.5042 22.0253 32.8679 21.3515 32.0757C20.6777 31.2835 20.1841 30.3543 19.905 29.3524C19.6259 28.3505 19.5679 27.3 19.735 26.2735L22.5639 8.866H35.0177L34.0442 26.8327L33.991 27.8062C33.8925 29.6416 33.0939 31.3694 31.7596 32.6338C30.4254 33.8981 28.6572 34.6026 26.819 34.6023ZM49.2462 32.3473C48.2295 33.4237 46.9067 34.1618 45.4567 34.4616C44.0068 34.7614 42.4997 34.6085 41.1395 34.0236C39.7793 33.4388 38.6316 32.4501 37.8518 31.1915C37.072 29.9328 36.6977 28.465 36.7795 26.9867L36.8364 25.9288L37.753 8.866H50.2197L51.1364 25.9288L51.1932 26.9867C51.2533 27.9659 51.1115 28.9471 50.7766 29.8693C50.4416 30.7914 49.9207 31.6349 49.2462 32.3473ZM66.65 32.076C65.7193 33.1692 64.4822 33.9583 63.0985 34.3412C61.7148 34.7242 60.2481 34.6835 58.8877 34.2244C57.5274 33.7653 56.3359 32.9089 55.4673 31.7657C54.5986 30.6226 54.0926 29.2453 54.0147 27.8117L53.9615 26.8382L52.988 8.8715H65.4382L68.267 26.279C68.4352 27.3059 68.3776 28.357 68.0984 29.3594C67.8191 30.3618 67.3249 31.2913 66.65 32.0833V32.076ZM84.0099 30.8312C83.2168 31.982 82.0975 32.8692 80.7961 33.3787C79.4946 33.8881 78.0705 33.9965 76.7069 33.6899C75.3434 33.3834 74.1027 32.6758 73.1446 31.6583C72.1865 30.6408 71.5547 29.3599 71.3305 27.9803L68.223 8.866H80.6274L85.0035 25.025C85.2704 26.0068 85.3198 27.035 85.1481 28.0379C84.9765 29.0407 84.5881 29.994 84.0099 30.8312ZM7.70104 2.75H80.301V6.116H7.70104V2.75ZM2.99854 25.025L7.37471 8.866H19.779L17.8632 20.6507L17.0199 25.8317L16.6715 27.9785C16.5187 28.916 16.1768 29.8125 15.6666 30.6137C15.1563 31.4149 14.4885 32.1038 13.7036 32.6388C12.9187 33.1737 12.0332 33.5434 11.101 33.7253C10.1687 33.9073 9.2092 33.8977 8.28077 33.6971C7.35235 33.4966 6.47443 33.1093 5.7004 32.5587C4.92637 32.0082 4.27241 31.306 3.77831 30.4948C3.2842 29.6836 2.96027 28.7804 2.82622 27.8401C2.69217 26.8997 2.7508 25.942 2.99854 25.025Z" fill="black"/>
<path d="M86.625 79.0724H83.05V39.6172C83.05 39.2525 82.9051 38.9028 82.6473 38.6449C82.3894 38.3871 82.0397 38.2422 81.675 38.2422C81.3103 38.2422 80.9606 38.3871 80.7027 38.6449C80.4449 38.9028 80.3 39.2525 80.3 39.6172V79.0724H75.6892V45.603C75.6892 45.2384 75.5443 44.8886 75.2864 44.6308C75.0286 44.3729 74.6788 44.228 74.3142 44.228H56.4923C56.1277 44.228 55.7779 44.3729 55.5201 44.6308C55.2622 44.8886 55.1173 45.2384 55.1173 45.603V79.0724H7.7V39.6319C7.7 39.2672 7.55513 38.9174 7.29727 38.6596C7.03941 38.4017 6.68967 38.2569 6.325 38.2569C5.96033 38.2569 5.61059 38.4017 5.35273 38.6596C5.09487 38.9174 4.95 39.2672 4.95 39.6319V79.0724H1.375C1.01033 79.0724 0.660591 79.2172 0.402728 79.4751C0.144866 79.7329 0 80.0827 0 80.4474L0 86.6257C0 86.9904 0.144866 87.3401 0.402728 87.598C0.660591 87.8558 1.01033 88.0007 1.375 88.0007H86.625C86.9897 88.0007 87.3394 87.8558 87.5973 87.598C87.8551 87.3401 88 86.9904 88 86.6257V80.4474C88 80.0827 87.8551 79.7329 87.5973 79.4751C87.3394 79.2172 86.9897 79.0724 86.625 79.0724ZM57.8673 46.978H72.9392V79.0724H57.8673V46.978ZM85.25 85.2507H2.75V81.8224H85.25V85.2507Z" fill="black"/>
</g>
<defs>
<clipPath id="clip0_30_21485">
<rect width="88" height="88" fill="white"/>
</clipPath>
</defs>
</svg>
