<svg width="54" height="54" viewBox="0 0 54 54" fill="none" xmlns="http://www.w3.org/2000/svg">
<g clip-path="url(#clip0_85_6008)">
<path d="M10.9688 52.3125C16.0946 52.3125 20.25 48.1571 20.25 43.0312C20.25 37.9054 16.0946 33.75 10.9688 33.75C5.84286 33.75 1.6875 37.9054 1.6875 43.0312C1.6875 48.1571 5.84286 52.3125 10.9688 52.3125Z" fill="#4C4743"/>
<path d="M13.5 39.6562H8.4375C7.97151 39.6562 7.59375 40.034 7.59375 40.5V45.5625C7.59375 46.0285 7.97151 46.4062 8.4375 46.4062H13.5C13.966 46.4062 14.3438 46.0285 14.3438 45.5625V40.5C14.3438 40.034 13.966 39.6562 13.5 39.6562Z" fill="#FF7B02"/>
<path d="M14.0991 39.9009L7.83844 46.1616C7.68159 46.0016 7.59374 45.7865 7.59375 45.5625V40.5C7.59375 40.2762 7.68264 40.0616 7.84088 39.9034C7.99911 39.7451 8.21372 39.6563 8.4375 39.6563H13.5C13.724 39.6562 13.9391 39.7441 14.0991 39.9009Z" fill="#FF7B02"/>
<path d="M43.0312 52.3125C48.1571 52.3125 52.3125 48.1571 52.3125 43.0312C52.3125 37.9054 48.1571 33.75 43.0312 33.75C37.9054 33.75 33.75 37.9054 33.75 43.0312C33.75 48.1571 37.9054 52.3125 43.0312 52.3125Z" fill="#4C4743"/>
<path d="M43.0312 40.9219C44.0797 40.9219 44.9297 40.0719 44.9297 39.0234C44.9297 37.975 44.0797 37.125 43.0312 37.125C41.9828 37.125 41.1328 37.975 41.1328 39.0234C41.1328 40.0719 41.9828 40.9219 43.0312 40.9219Z" fill="#FF7B02"/>
<path d="M39.6562 47.6744V43.8438C39.6578 43.2848 39.8805 42.7492 40.2758 42.3539C40.671 41.9587 41.2067 41.7359 41.7656 41.7344H44.2969C44.8558 41.7359 45.3915 41.9587 45.7867 42.3539C46.182 42.7492 46.4047 43.2848 46.4062 43.8438V47.6744H39.6562Z" fill="#FF7B02"/>
<path d="M43.4766 3.65681L47.6017 6.59222L47.9856 1.6875L43.4766 3.65681Z" fill="#FF7B02"/>
<path d="M33.413 11.2108L33.0206 10.994C32.9066 10.9359 32.8132 10.8442 32.7528 10.7314C32.6925 10.6186 32.6682 10.4899 32.6831 10.3629C32.754 9.87068 32.754 9.37088 32.6831 8.8787C32.6683 8.75176 32.6927 8.62332 32.7531 8.51065C32.8134 8.39798 32.9068 8.30647 33.0206 8.24842L33.413 8.03158C33.4891 7.9915 33.5563 7.93631 33.6103 7.8694C33.6644 7.80249 33.7043 7.72526 33.7275 7.64242C33.7507 7.55958 33.7568 7.47287 33.7454 7.3876C33.7339 7.30233 33.7053 7.22029 33.6611 7.14648L32.5692 5.34592C32.4743 5.1951 32.3251 5.08645 32.1524 5.04234C31.9798 4.99823 31.7968 5.02202 31.6411 5.10883L31.2437 5.3282C31.1224 5.39246 30.9853 5.42066 30.8484 5.40944C30.7116 5.39823 30.5809 5.34808 30.4717 5.26492C30.0808 4.97819 29.6557 4.7415 29.206 4.56039C29.0798 4.51557 28.9701 4.43368 28.8912 4.32543C28.8123 4.21718 28.7679 4.08762 28.7639 3.95373V3.5192C28.7599 3.3439 28.6867 3.1773 28.5602 3.05587C28.4337 2.93443 28.2642 2.86803 28.0889 2.8712H25.9129C25.7376 2.86803 25.5681 2.93443 25.4416 3.05587C25.3151 3.1773 25.2419 3.3439 25.2379 3.5192V3.95373C25.2339 4.08762 25.1895 4.21718 25.1106 4.32543C25.0317 4.43368 24.922 4.51557 24.7958 4.56039C24.3461 4.7415 23.921 4.97819 23.5301 5.26492C23.4209 5.34808 23.2902 5.39823 23.1534 5.40944C23.0166 5.42066 22.8794 5.39246 22.7581 5.3282L22.3607 5.10883C22.2051 5.02202 22.022 4.99823 21.8494 5.04234C21.6767 5.08645 21.5275 5.1951 21.4326 5.34592L20.3416 7.14648C20.2973 7.22019 20.2686 7.30214 20.257 7.38733C20.2455 7.47253 20.2514 7.55919 20.2745 7.64201C20.2975 7.72484 20.3372 7.8021 20.3911 7.86908C20.445 7.93606 20.512 7.99135 20.588 8.03158L20.9803 8.24842C21.0942 8.30647 21.1876 8.39798 21.2479 8.51065C21.3082 8.62332 21.3326 8.75176 21.3178 8.8787C21.247 9.37088 21.247 9.87068 21.3178 10.3629C21.3328 10.4899 21.3085 10.6186 21.2482 10.7314C21.1878 10.8442 21.0943 10.9359 20.9803 10.994L20.588 11.2108C20.5119 11.2509 20.4447 11.3061 20.3906 11.373C20.3366 11.4399 20.2967 11.5172 20.2735 11.6C20.2503 11.6828 20.2442 11.7695 20.2556 11.8548C20.267 11.9401 20.2957 12.0221 20.3399 12.0959L21.4317 13.8965C21.5267 14.0473 21.6759 14.156 21.8485 14.2001C22.0212 14.2442 22.2042 14.2204 22.3599 14.1336L22.7573 13.9142C22.8786 13.8499 23.0157 13.8218 23.1525 13.833C23.2893 13.8442 23.4201 13.8943 23.5293 13.9775C23.9201 14.2642 24.3453 14.5009 24.7949 14.682C24.9212 14.7268 25.0309 14.8087 25.1098 14.917C25.1887 15.0252 25.233 15.1548 25.2371 15.2887V15.7232C25.241 15.8985 25.3143 16.0651 25.4408 16.1865C25.5673 16.308 25.7367 16.3744 25.9121 16.3712H28.0872C28.2626 16.3744 28.432 16.308 28.5585 16.1865C28.685 16.0651 28.7583 15.8985 28.7622 15.7232V15.2887C28.7662 15.1548 28.8106 15.0252 28.8895 14.917C28.9684 14.8087 29.0781 14.7268 29.2044 14.682C29.654 14.5009 30.0792 14.2642 30.47 13.9775C30.5792 13.8943 30.7099 13.8442 30.8468 13.833C30.9836 13.8218 31.1207 13.8499 31.242 13.9142L31.6394 14.1336C31.7951 14.2204 31.9781 14.2442 32.1508 14.2001C32.3234 14.156 32.4726 14.0473 32.5676 13.8965L33.6543 12.0959C33.6988 12.0225 33.7278 11.9409 33.7397 11.8559C33.7517 11.7709 33.7462 11.6844 33.7236 11.6016C33.701 11.5188 33.6618 11.4415 33.6084 11.3743C33.555 11.3071 33.4885 11.2515 33.413 11.2108ZM27.0005 12.1491C26.4999 12.1491 26.0105 12.0006 25.5942 11.7225C25.1779 11.4443 24.8535 11.049 24.6619 10.5865C24.4703 10.124 24.4202 9.61502 24.5179 9.124C24.6155 8.63299 24.8566 8.18197 25.2106 7.82796C25.5646 7.47396 26.0157 7.23288 26.5067 7.13521C26.9977 7.03755 27.5066 7.08767 27.9692 7.27926C28.4317 7.47084 28.827 7.79528 29.1051 8.21154C29.3833 8.6278 29.5317 9.11719 29.5317 9.61783C29.5317 10.2892 29.2651 10.933 28.7904 11.4077C28.3156 11.8824 27.6718 12.1491 27.0005 12.1491Z" fill="#FF7B02"/>
<path d="M8.4375 47.25V48.9375H10.125V47.25H11.8125V48.9375H13.5V47.25C13.9476 47.25 14.3768 47.0722 14.6932 46.7557C15.0097 46.4393 15.1875 46.0101 15.1875 45.5625H16.875V43.875H15.1875V42.1875H16.875V40.5H15.1875C15.1875 40.0524 15.0097 39.6232 14.6932 39.3068C14.3768 38.9903 13.9476 38.8125 13.5 38.8125V37.125H11.8125V38.8125H10.125V37.125H8.4375V38.8125C7.98995 38.8125 7.56073 38.9903 7.24426 39.3068C6.92779 39.6232 6.75 40.0524 6.75 40.5H5.0625V42.1875H6.75V43.875H5.0625V45.5625H6.75C6.75 46.0101 6.92779 46.4393 7.24426 46.7557C7.56073 47.0722 7.98995 47.25 8.4375 47.25ZM8.4375 40.5H13.5V45.5625H8.4375V40.5Z" fill="white"/>
<path d="M10.9688 53.1563C12.9713 53.1563 14.9289 52.5624 16.5939 51.4499C18.2589 50.3373 19.5567 48.756 20.323 46.9059C21.0894 45.0558 21.2899 43.02 20.8992 41.056C20.5085 39.0919 19.5442 37.2878 18.1282 35.8718C16.7122 34.4558 14.9081 33.4915 12.944 33.1008C10.98 32.7101 8.94418 32.9106 7.09408 33.677C5.24398 34.4433 3.66267 35.7411 2.55012 37.4061C1.43757 39.0712 0.84375 41.0287 0.84375 43.0313C0.846653 45.7157 1.91432 48.2893 3.8125 50.1875C5.71068 52.0857 8.28432 53.1534 10.9688 53.1563ZM10.9688 34.5938C12.6375 34.5938 14.2688 35.0886 15.6564 36.0157C17.0439 36.9429 18.1254 38.2606 18.764 39.8024C19.4026 41.3441 19.5697 43.0406 19.2441 44.6773C18.9186 46.314 18.115 47.8175 16.935 48.9975C15.755 50.1775 14.2515 50.9811 12.6148 51.3066C10.9781 51.6322 9.28161 51.4651 7.73986 50.8265C6.19811 50.1879 4.88035 49.1064 3.95322 47.7189C3.0261 46.3313 2.53125 44.7 2.53125 43.0313C2.53371 40.7942 3.42344 38.6496 5.00525 37.0678C6.58706 35.4859 8.73174 34.5962 10.9688 34.5938Z" fill="white"/>
<path d="M43.0313 32.9062C41.0287 32.9062 39.0712 33.5001 37.4061 34.6126C35.7411 35.7252 34.4433 37.3065 33.677 39.1566C32.9106 41.0067 32.7101 43.0425 33.1008 45.0065C33.4915 46.9706 34.4558 48.7747 35.8718 50.1907C37.2878 51.6067 39.0919 52.571 41.056 52.9617C43.02 53.3524 45.0558 53.1519 46.9059 52.3855C48.756 51.6192 50.3373 50.3214 51.4499 48.6564C52.5624 46.9914 53.1563 45.0338 53.1563 43.0312C53.1534 40.3468 52.0857 37.7732 50.1875 35.875C48.2893 33.9768 45.7157 32.9092 43.0313 32.9062ZM43.0313 51.4687C41.3625 51.4687 39.7312 50.9739 38.3436 50.0468C36.9561 49.1196 35.8746 47.8019 35.236 46.2601C34.5974 44.7184 34.4303 43.0219 34.7559 41.3852C35.0814 39.7485 35.885 38.245 37.065 37.065C38.245 35.885 39.7485 35.0814 41.3852 34.7559C43.0219 34.4303 44.7184 34.5974 46.2601 35.236C47.8019 35.8746 49.1197 36.9561 50.0468 38.3436C50.9739 39.7312 51.4688 41.3625 51.4688 43.0312C51.4663 45.2683 50.5766 47.4129 48.9948 48.9947C47.4129 50.5766 45.2683 51.4663 43.0313 51.4687Z" fill="white"/>
<path d="M44.9601 40.9648C45.3464 40.5825 45.6105 40.0939 45.7186 39.5612C45.8268 39.0285 45.7741 38.4756 45.5674 37.9729C45.3607 37.4701 45.0093 37.0402 44.5577 36.7376C44.1061 36.435 43.5748 36.2734 43.0312 36.2734C42.4877 36.2734 41.9564 36.435 41.5048 36.7376C41.0532 37.0402 40.7018 37.4701 40.4951 37.9729C40.2884 38.4756 40.2357 39.0285 40.3439 39.5612C40.452 40.0939 40.7161 40.5825 41.1024 40.9648C40.4525 41.1146 39.8724 41.48 39.4566 42.0015C39.0408 42.523 38.8138 43.1699 38.8125 43.8369V47.6675C38.8125 47.8913 38.9014 48.1059 39.0596 48.2642C39.2179 48.4224 39.4325 48.5113 39.6562 48.5113H46.4062C46.63 48.5113 46.8446 48.4224 47.0029 48.2642C47.1611 48.1059 47.25 47.8913 47.25 47.6675V43.8369C47.2487 43.1699 47.0217 42.523 46.6059 42.0015C46.1901 41.48 45.61 41.1146 44.9601 40.9648ZM43.0312 37.9644C43.2398 37.9644 43.4438 38.0263 43.6172 38.1422C43.7906 38.2581 43.9258 38.4228 44.0057 38.6155C44.0855 38.8082 44.1064 39.0203 44.0657 39.2249C44.025 39.4295 43.9245 39.6174 43.777 39.7649C43.6295 39.9124 43.4416 40.0128 43.237 40.0535C43.0324 40.0942 42.8204 40.0733 42.6276 39.9935C42.4349 39.9137 42.2702 39.7785 42.1543 39.6051C42.0384 39.4316 41.9766 39.2277 41.9766 39.0191C41.977 38.7395 42.0883 38.4715 42.286 38.2738C42.4837 38.0761 42.7517 37.9649 43.0312 37.9644ZM45.5625 46.8238H40.5V43.8369C40.5 43.5013 40.6333 43.1793 40.8707 42.942C41.108 42.7046 41.43 42.5713 41.7656 42.5713H44.2969C44.6325 42.5713 44.9545 42.7046 45.1918 42.942C45.4292 43.1793 45.5625 43.5013 45.5625 43.8369V46.8238Z" fill="white"/>
<path d="M27.8438 46.4062V43.875H30.375V42.1875H27.8438V39.6562H26.1562V42.1875H23.625V43.875H26.1562V46.4062H27.8438Z" fill="white"/>
<path d="M36.4508 11.1517L36.1133 12.8063L39.4883 13.4813C39.5438 13.4927 39.6004 13.4981 39.657 13.4974C39.7855 13.4973 39.9122 13.468 40.0276 13.4115C40.1429 13.3551 40.2439 13.2731 40.3228 13.1717L45.6966 6.26897L47.1124 7.28147C47.2341 7.36832 47.3766 7.42128 47.5255 7.43493C47.6744 7.44859 47.8242 7.42245 47.9596 7.35919C48.0951 7.29593 48.2113 7.19783 48.2964 7.07491C48.3815 6.95199 48.4323 6.80867 48.4438 6.65962L48.8278 1.7549C48.8394 1.60931 48.8131 1.46318 48.7513 1.33081C48.6896 1.19844 48.5945 1.08437 48.4755 0.999753C48.3564 0.915138 48.2174 0.862878 48.0721 0.848087C47.9268 0.833297 47.7802 0.856481 47.6465 0.915373L43.14 2.88047C43.003 2.94013 42.8843 3.03512 42.796 3.15572C42.7078 3.27631 42.6531 3.41819 42.6377 3.56684C42.6222 3.71548 42.6465 3.86557 42.7081 4.00174C42.7697 4.13791 42.8663 4.25528 42.9882 4.34184L44.3204 5.29022L39.3111 11.7255L36.4508 11.1517ZM47.0356 3.02053L46.8778 5.03794L45.1811 3.83053L47.0356 3.02053Z" fill="white"/>
<path d="M4.49414 15.4035L5.62983 16.6522L14.5964 8.50157L17.5495 9.0922L17.887 7.43761L14.512 6.76261C14.3824 6.7366 14.2486 6.74137 14.1213 6.77654C13.9939 6.81171 13.8766 6.8763 13.7788 6.96511L4.49414 15.4035Z" fill="white"/>
<path d="M34.5447 7.84197C34.5964 7.65115 34.6086 7.45179 34.5806 7.25608C34.5526 7.06037 34.485 6.87243 34.3819 6.70375L33.2943 4.90572C33.0855 4.57015 32.7563 4.32722 32.374 4.2268C31.9918 4.12638 31.5856 4.17609 31.2389 4.36572L30.9208 4.54122C30.5131 4.24808 30.0732 4.00264 29.6096 3.80969V3.51522C29.6052 3.11628 29.4429 2.73535 29.1583 2.45578C28.8736 2.17621 28.4898 2.02077 28.0909 2.02347H25.9132C25.5142 2.02077 25.1304 2.17621 24.8458 2.45578C24.5612 2.73535 24.3989 3.11628 24.3944 3.51522V3.80969C23.9308 4.00264 23.4909 4.24808 23.0832 4.54122L22.766 4.36657C22.4193 4.1766 22.013 4.12662 21.6306 4.22689C21.2481 4.32716 20.9187 4.57007 20.7098 4.90572L19.6196 6.70544C19.5165 6.87429 19.4489 7.06237 19.4209 7.25821C19.3929 7.45405 19.4051 7.65353 19.4568 7.8445C19.5099 8.03896 19.6015 8.22078 19.7261 8.37919C19.8507 8.5376 20.0059 8.66938 20.1824 8.76672L20.4609 8.91944C20.4057 9.38271 20.4057 9.85089 20.4609 10.3142L20.1816 10.4686C20.0051 10.5656 19.85 10.6972 19.7255 10.8555C19.6009 11.0138 19.5096 11.1956 19.4568 11.3899C19.4051 11.5808 19.3929 11.7801 19.4209 11.9758C19.4489 12.1715 19.5165 12.3595 19.6196 12.5282L20.7072 14.3279C20.9161 14.6635 21.2456 14.9065 21.6279 15.0069C22.0103 15.1073 22.4166 15.0576 22.7634 14.8679L23.0807 14.6932C23.4885 14.9861 23.9285 15.2315 24.3919 15.4248V15.7192C24.3963 16.1182 24.5586 16.4991 24.8433 16.7787C25.1279 17.0582 25.5117 17.2137 25.9106 17.211H28.0858C28.4848 17.2137 28.8686 17.0582 29.1532 16.7787C29.4378 16.4991 29.6001 16.1182 29.6046 15.7192V15.4248C30.068 15.2315 30.5079 14.9861 30.9158 14.6932L31.2339 14.8679C31.5804 15.0578 31.9866 15.1077 32.3689 15.0075C32.7511 14.9072 33.0805 14.6643 33.2892 14.3287L34.3768 12.5282C34.4799 12.3595 34.5476 12.1715 34.5756 11.9758C34.6036 11.7801 34.5913 11.5808 34.5397 11.3899C34.4868 11.1954 34.3953 11.0135 34.2706 10.8551C34.1459 10.6966 33.9907 10.5649 33.814 10.4677L33.5356 10.3142C33.5907 9.85089 33.5907 9.38271 33.5356 8.91944L33.814 8.76672C33.9917 8.66962 34.1481 8.53768 34.2736 8.37879C34.3991 8.2199 34.4914 8.03732 34.5447 7.84197ZM31.8945 9.61385C31.8941 9.82192 31.8792 10.0297 31.8498 10.2357C31.8115 10.5315 31.8636 10.832 31.9991 11.0978C32.1346 11.3635 32.3472 11.5821 32.6092 11.7249L32.8209 11.8422L31.9308 13.3263L31.6574 13.1753C31.3948 13.0339 31.0974 12.9701 30.7999 12.9915C30.5024 13.0129 30.2172 13.1185 29.9775 13.296C29.6435 13.5414 29.2798 13.7435 28.895 13.8976C28.6119 14.0048 28.3677 14.1948 28.1942 14.4429C28.0207 14.6909 27.9259 14.9854 27.9221 15.2881V15.5201H26.0794V15.2813C26.0756 14.9786 25.9808 14.6841 25.8073 14.4361C25.6338 14.1881 25.3896 13.9981 25.1065 13.8908C24.7217 13.7368 24.358 13.5346 24.024 13.2892C23.7843 13.1117 23.4991 13.0061 23.2016 12.9848C22.9041 12.9634 22.6067 13.0271 22.3441 13.1686L22.0707 13.3196L21.1789 11.8456L21.3915 11.7283C21.6535 11.5854 21.8662 11.3666 22.0017 11.1007C22.1372 10.8348 22.1892 10.5342 22.1509 10.2382C22.0913 9.82609 22.0913 9.40751 22.1509 8.99538C22.1892 8.69941 22.1372 8.39878 22.0017 8.13288C21.8662 7.86698 21.6535 7.64824 21.3915 7.50532L21.1789 7.38888L22.0707 5.91147L22.3441 6.06166C22.6063 6.20383 22.9036 6.26808 23.2011 6.24686C23.4986 6.22563 23.7838 6.1198 24.0232 5.94185C24.3576 5.69662 24.7216 5.49449 25.1065 5.34025C25.3896 5.233 25.6338 5.04298 25.8073 4.79496C25.9808 4.54695 26.0756 4.25242 26.0794 3.94975V3.7076H27.9221V3.94638C27.9258 4.24896 28.0206 4.5434 28.1942 4.7913C28.3677 5.03919 28.6119 5.22903 28.895 5.33603C29.2794 5.49076 29.6431 5.69286 29.9775 5.93763C30.2167 6.11575 30.5018 6.22182 30.7993 6.24334C31.0968 6.26487 31.3942 6.20096 31.6566 6.05913L31.9308 5.9081L32.8226 7.38888L32.61 7.50616C32.3481 7.64894 32.1354 7.86753 31.9999 8.13329C31.8644 8.39904 31.8124 8.69954 31.8506 8.99538C31.8796 9.20026 31.8943 9.40692 31.8945 9.61385Z" fill="white"/>
<path d="M27 6.24219C26.3325 6.24219 25.68 6.44013 25.125 6.81098C24.5699 7.18183 24.1374 7.70893 23.8819 8.32563C23.6265 8.94233 23.5596 9.62093 23.6899 10.2756C23.8201 10.9303 24.1415 11.5317 24.6135 12.0037C25.0855 12.4757 25.6869 12.7971 26.3416 12.9273C26.9963 13.0576 27.6749 12.9907 28.2916 12.7353C28.9083 12.4798 29.4354 12.0473 29.8062 11.4922C30.1771 10.9372 30.375 10.2847 30.375 9.61719C30.375 8.72208 30.0194 7.86364 29.3865 7.2307C28.7536 6.59777 27.8951 6.24219 27 6.24219ZM27 11.3047C26.6662 11.3047 26.34 11.2057 26.0625 11.0203C25.785 10.8349 25.5687 10.5713 25.441 10.263C25.3132 9.95462 25.2798 9.61532 25.3449 9.28797C25.41 8.96063 25.5708 8.65995 25.8068 8.42394C26.0428 8.18794 26.3434 8.02723 26.6708 7.96211C26.9981 7.897 27.3374 7.93042 27.6458 8.05814C27.9541 8.18586 28.2177 8.40215 28.4031 8.67966C28.5885 8.95717 28.6875 9.28343 28.6875 9.61719C28.6875 10.0647 28.5097 10.494 28.1932 10.8104C27.8768 11.1269 27.4476 11.3047 27 11.3047Z" fill="white"/>
<path d="M26.1562 21.9375H27.8438V27H26.1562V21.9375Z" fill="white"/>
<path d="M21.9375 19.4062H23.625V24.4688H21.9375V19.4062Z" fill="white"/>
<path d="M30.375 19.4062H32.0625V24.4688H30.375V19.4062Z" fill="white"/>
</g>
<defs>
<clipPath id="clip0_85_6008">
<rect width="54" height="54" fill="white"/>
</clipPath>
</defs>
</svg>
