<svg width="51" height="51" viewBox="0 0 51 51" fill="none" xmlns="http://www.w3.org/2000/svg">
<g clip-path="url(#clip0_85_6050)">
<path d="M33.3979 17.8294C33.3979 14.6335 35.7378 11.9847 38.7979 11.5014C38.4697 11.4495 38.1333 11.4219 37.7904 11.4219C34.2516 11.4219 31.3828 14.2906 31.3828 17.8294V20.4203C31.811 20.0233 32.4203 19.8076 33.015 19.8871V19.5678C33.015 19.3433 33.1846 19.1612 33.3977 19.1352V17.8295H33.3979V17.8294Z" fill="#5B5D6E"/>
<path d="M47.6077 32.0361L40.5248 29.293L37.8474 32.5978L35.1699 29.293L28.0943 32.0361C28.0943 32.0361 25.4746 33.1131 25.4746 36.0995C25.4746 38.8018 25.4746 45.6324 25.4746 47.8154C25.4746 48.2974 25.8655 48.6884 26.3476 48.6884C26.7149 48.6884 48.9815 48.6884 49.3545 48.6884C49.8366 48.6884 50.2275 48.2975 50.2275 47.8154C50.2275 45.6324 50.2275 38.8018 50.2275 36.0995C50.2274 33.1132 47.6077 32.0361 47.6077 32.0361Z" fill="#FF7B02"/>
<path d="M27.467 47.8128C27.467 45.6298 27.467 37.803 27.467 35.1007C27.467 33.3299 28.388 32.2305 29.1378 31.6289L28.0944 32.0334C28.0944 32.0334 25.4746 33.1104 25.4746 36.0968C25.4746 38.7991 25.4746 45.6298 25.4746 47.8127C25.4746 48.2947 25.8655 48.6857 26.3476 48.6857C26.4122 48.6857 27.1564 48.6857 28.3399 48.6857C27.8579 48.6857 27.467 48.2948 27.467 47.8128Z" fill="#FF7B02"/>
<path d="M41.0805 34.292L43.0826 30.2796L40.5251 29.2891L37.8477 32.5939L40.4581 34.4478C40.6694 34.5979 40.9647 34.524 41.0805 34.292Z" fill="#FF7B02"/>
<path d="M34.6193 34.292L32.6172 30.2796L35.1748 29.2891L37.8521 32.5939L35.2417 34.4478C35.0304 34.5979 34.7351 34.524 34.6193 34.292Z" fill="#FF7B02"/>
<path d="M37.2272 45.7968C37.1453 45.7066 37.1069 45.5735 37.1249 45.4425L38.8433 35.2734H37.8521H37.8489H36.8477L35.1294 45.4425C35.1113 45.5735 35.1497 45.7066 35.2317 45.7968L37.6041 48.411C37.7362 48.5566 37.9649 48.5566 38.097 48.411L38.8483 47.5831L37.2272 45.7968Z" fill="#FF7B02"/>
<path d="M37.853 32.596V32.5938L37.8513 32.5948L37.8497 32.5938V32.596L35.9512 33.9445L36.8486 35.2952H37.8497H37.853H38.8542L39.7516 33.9445L37.853 32.596Z" fill="#FF7B02"/>
<path d="M38.8456 33.3025L37.851 32.596V32.5938L37.8494 32.5948L37.8478 32.5938V32.596L35.9492 33.9445L36.8467 35.2952H37.8479H37.851H38.8389L38.0685 34.1356C37.9977 34.029 38.0244 33.8856 38.1287 33.8115L38.8456 33.3025Z" fill="#FF7B02"/>
<path d="M22.8557 32.0361L15.7728 29.293L13.0954 32.5978L10.4179 29.293L3.34238 32.0361C3.34238 32.0361 0.722656 33.1131 0.722656 36.0995C0.722656 38.8018 0.722656 45.6324 0.722656 47.8154C0.722656 48.2974 1.11352 48.6884 1.59563 48.6884C1.96299 48.6884 24.2295 48.6884 24.6026 48.6884C25.0847 48.6884 25.4755 48.2975 25.4755 47.8154C25.4755 45.6324 25.4755 38.8018 25.4755 36.0995C25.4754 33.1132 22.8557 32.0361 22.8557 32.0361Z" fill="#FF7B02"/>
<path d="M2.71504 47.8167C2.71504 45.6337 2.71504 37.8069 2.71504 35.1046C2.71504 33.3338 3.63603 32.2345 4.38588 31.6328L3.34248 32.0373C3.34248 32.0373 0.722656 33.1143 0.722656 36.1007C0.722656 38.803 0.722656 45.6337 0.722656 47.8166C0.722656 48.2986 1.11352 48.6896 1.59563 48.6896C1.66028 48.6896 2.40446 48.6896 3.58791 48.6896C3.10581 48.6896 2.71504 48.2987 2.71504 47.8167Z" fill="#FF7B02"/>
<path d="M16.3266 34.292L18.3287 30.2796L15.7711 29.2891L13.0938 32.5939L15.7042 34.4478C15.9155 34.5979 16.2108 34.524 16.3266 34.292Z" fill="#FF7B02"/>
<path d="M9.86543 34.292L7.86328 30.2796L10.4208 29.2891L13.0982 32.5939L10.4878 34.4478C10.2765 34.5979 9.98117 34.524 9.86543 34.292Z" fill="#FF7B02"/>
<path d="M12.4733 45.7968C12.3914 45.7066 12.353 45.5735 12.371 45.4425L14.0894 35.2734H13.0982H13.095H12.0938L10.3755 45.4425C10.3574 45.5735 10.3958 45.7066 10.4778 45.7968L12.8502 48.411C12.9823 48.5566 13.2109 48.5566 13.3431 48.411L14.0944 47.5831L12.4733 45.7968Z" fill="#FF7B02"/>
<path d="M13.099 32.596V32.5938L13.0974 32.5948L13.0958 32.5938V32.596L11.1973 33.9445L12.0946 35.2952H13.0958H13.099H14.1003L14.9977 33.9445L13.099 32.596Z" fill="#FF7B02"/>
<path d="M14.0936 33.3024L13.099 32.596V32.5938L13.0974 32.5948L13.0958 32.5938V32.596L11.1973 33.9445L12.0947 35.2952H13.0959H13.0991H14.087L13.3167 34.1356C13.2458 34.029 13.2725 33.8856 13.3768 33.8115L14.0936 33.3024Z" fill="#FF7B02"/>
<path d="M50.2528 40.034C50.6655 40.034 50.9999 39.6995 50.9999 39.2869V36.0492C50.9999 32.6017 48.043 31.3465 47.9172 31.2948C47.9124 31.2928 47.9077 31.2909 47.9029 31.2891L41.2972 28.7307V27.37C42.3283 26.5404 43.0525 25.3449 43.2699 23.9819C43.7842 23.9174 44.2613 23.7115 44.6573 23.3709C45.2251 22.8827 45.5509 22.1721 45.5509 21.4218C45.5509 20.8228 45.343 20.2497 44.9708 19.7945V17.7786C44.9708 13.8335 41.7611 10.624 37.8162 10.624C36.0451 10.624 34.4234 11.2722 33.1726 12.3422C33.1565 11.7698 32.9516 11.2243 32.5945 10.7876V8.77182C32.5945 4.8267 29.3849 1.61719 25.44 1.61719C21.4949 1.61719 18.2854 4.8268 18.2854 8.77182V10.8402C17.9263 11.2693 17.7254 11.7867 17.7076 12.3358C16.9097 11.6538 15.9544 11.1403 14.8899 10.86C14.4902 10.7548 14.0822 10.9932 13.9771 11.3922C13.872 11.7913 14.1102 12.1999 14.5093 12.3051C16.9908 12.9585 18.724 15.2094 18.724 17.7785V18.8958C18.6918 18.8891 18.5882 18.8713 18.5842 18.8707C18.574 18.6598 18.5206 18.531 18.4057 18.3657C18.2144 18.0909 17.871 17.7485 16.7663 16.5612C16.3727 16.1383 15.736 16.0607 15.2527 16.3767C13.3606 17.6126 11.0619 18.2426 8.92867 18.1173C8.23379 18.0766 7.7998 18.3819 7.61482 18.8822C7.59829 18.8849 7.41351 18.9222 7.40325 18.9247V17.7785C7.40325 15.3013 9.05856 13.0727 11.4286 12.3588C11.8236 12.2399 12.0474 11.8231 11.9285 11.428C11.8095 11.0328 11.3921 10.809 10.9976 10.9282C9.5562 11.3623 8.26059 12.2661 7.34966 13.473C6.40706 14.7215 5.90892 16.2103 5.90892 17.7786V19.8471C5.53259 20.2967 5.32909 20.8432 5.32909 21.4218C5.32909 22.7008 6.27139 23.8162 7.61393 23.9825C7.83386 25.3136 8.55603 26.5901 9.69576 27.458V28.7311L3.09735 31.2893C3.09267 31.2911 3.08798 31.293 3.0833 31.2948C2.957 31.3465 0 32.6016 0 36.0491V47.765C0 48.6584 0.726748 49.3851 1.62014 49.3851H24.627C24.9485 49.3851 25.2476 49.2897 25.5 49.1276C25.7523 49.2897 26.0515 49.3851 26.3731 49.3851H49.3801C50.2733 49.3851 51.0001 48.6584 51.0001 47.765V42.7733C51.0001 42.3607 50.6657 42.0262 50.253 42.0262C49.8403 42.0262 49.506 42.3607 49.506 42.7733V47.765C49.506 47.8344 49.4496 47.8908 49.3802 47.8908H46.5414V36.976C46.5414 36.5634 46.207 36.2289 45.7943 36.2289C45.3816 36.2289 45.0473 36.5634 45.0473 36.976V47.8909H39.5618L41.0465 46.2576C41.2758 46.0053 41.3838 45.647 41.3357 45.2991C41.3346 45.2916 41.3335 45.2843 41.3322 45.2768L39.6633 35.4159L39.9704 34.9536L40.0504 35.0104C40.3242 35.2049 40.6734 35.2758 41.0113 35.1915C41.3431 35.1085 41.6211 34.8853 41.7739 34.5793V34.5792L43.4721 31.1754L47.3514 32.6778C47.5045 32.7444 49.5055 33.6619 49.5055 36.0491V39.2868C49.5057 39.6995 49.84 40.034 50.2528 40.034ZM35.1427 33.5725L33.6762 30.6335L34.9582 30.137L36.7922 32.4007C35.9904 32.9705 35.1842 33.543 35.1427 33.5725ZM17.3199 30.6335L15.8535 33.5725L15.4557 33.29C15.4553 33.2897 15.4549 33.2893 15.4545 33.289L14.2015 32.3991L16.035 30.1359L17.3199 30.6335ZM10.3899 33.5725L8.92339 30.6335L10.2055 30.137L12.0395 32.4007L10.7888 33.289C10.7881 33.2895 10.7876 33.29 10.7869 33.2905L10.3899 33.5725ZM19.2989 21.3566C19.3323 21.8386 19.0362 22.2743 18.5859 22.4379V20.4066C19.0038 20.5587 19.2723 20.9233 19.2989 21.3566ZM28.2247 8.76166C28.8983 9.48402 29.2991 9.90368 29.468 10.0985C29.468 11.9585 29.468 12.6768 29.468 14.113C29.468 16.2997 27.6842 18.073 25.5078 18.073C23.0525 18.073 21.4114 16.17 21.4114 14.113V10.6135C23.7703 10.7079 26.221 10.0088 28.2247 8.76166ZM31.68 12.4149C31.68 12.7295 31.5438 13.027 31.3065 13.2312C31.2046 13.3189 31.0884 13.3862 30.9622 13.4321V11.3998C31.409 11.5619 31.68 11.9726 31.68 12.4149ZM34.4481 27.4579V28.7309L28.0967 31.1933L27.2869 26.4091L27.594 25.9468L27.674 26.0036C27.9533 26.202 28.3038 26.2676 28.6349 26.1847C28.9667 26.1017 29.2448 25.8785 29.3976 25.5725V25.5724L30.6584 23.0453C31.0916 23.5792 31.7181 23.9039 32.3634 23.9845C32.5913 25.4129 33.3633 26.6319 34.4481 27.4579ZM25.4998 33.3343C25.1904 32.8357 24.7784 32.3743 24.2817 31.9806L25.1265 26.9892H25.8695L26.7148 31.9832C26.2049 32.3881 25.7983 32.8536 25.4998 33.3343ZM16.5444 27.3706C17.6024 26.5173 18.3042 25.3119 18.5165 23.9844C19.2212 23.8963 19.8679 23.5249 20.2921 22.9537L21.5988 25.5724C21.5988 25.5724 21.5988 25.5724 21.5989 25.5725C21.7516 25.8786 22.0296 26.1017 22.3614 26.1847C22.6894 26.2667 23.0403 26.2039 23.3223 26.0036L23.4023 25.9468L23.7094 26.4091L22.8999 31.1921L16.5444 28.7307V27.3706ZM25.5073 19.5674C25.5074 19.5674 25.5076 19.5674 25.5077 19.5674H25.5078C26.165 19.5674 26.8315 19.4428 27.4265 19.2189V19.9711L25.4981 22.3514L23.5659 19.9665V19.2498C24.1915 19.4661 24.8672 19.5672 25.5073 19.5674ZM32.2935 22.4379C31.8542 22.2795 31.5757 21.8733 31.5757 21.4216C31.5757 20.982 31.8943 20.621 32.2935 20.4494V22.4379ZM28.2299 24.5658L27.8321 24.2833C27.8317 24.283 27.8313 24.2826 27.8309 24.2823L26.5779 23.3923L27.2174 22.6029L28.4114 21.129L29.6963 21.6266L28.2299 24.5658ZM26.1003 25.495H24.8959L24.6211 25.0813L25.4982 24.4585L26.3752 25.0813L26.1003 25.495ZM22.7664 24.5658L21.2998 21.6268L22.5819 21.1302L24.4159 23.3939L23.1652 24.2823C23.1645 24.2828 23.164 24.2833 23.1633 24.2838L22.7664 24.5658ZM30.6613 17.7785V19.8469C30.5464 19.984 30.4476 20.1302 30.3659 20.2835L28.9207 19.7238V18.3632C29.9519 17.5335 30.676 16.338 30.8935 14.9751C31.0202 14.9591 31.1451 14.9364 31.2665 14.9033C30.8784 15.7838 30.6613 16.7561 30.6613 17.7785ZM19.917 11.4426V13.4321C19.479 13.2732 19.1992 12.868 19.1992 12.4148C19.1992 11.9777 19.5154 11.6153 19.917 11.4426ZM19.9899 14.9757C20.2098 16.3068 20.932 17.5832 22.0717 18.4511V19.7242L20.5476 20.315C20.4592 20.1295 20.3488 19.9546 20.2177 19.7944V17.7786C20.2177 16.7648 20.0041 15.7903 19.6148 14.9041C19.737 14.9373 19.8625 14.9599 19.9899 14.9757ZM12.7502 35.9959H13.4932L15.0799 45.3712L13.1217 47.5255L11.1635 45.3712L12.7502 35.9959ZM13.7239 34.5017H12.5195L12.2447 34.088L13.1217 33.4651L13.9988 34.088L13.7239 34.5017ZM39.8028 28.2257V28.9779L37.8744 31.3583L35.9423 28.9734V28.2567C36.5703 28.4738 37.2469 28.574 37.8837 28.5742C37.8838 28.5742 37.884 28.5742 37.8841 28.5742H37.8842C38.5426 28.5741 39.2092 28.4491 39.8028 28.2257ZM37.8842 27.0799C35.3448 27.0799 33.7877 25.0911 33.7877 23.1198V19.6204C36.1299 19.7139 38.5838 19.024 40.601 17.7685C41.2747 18.4909 41.6755 18.9105 41.8443 19.1054C41.8443 20.9654 41.8443 21.6837 41.8443 23.1198C41.8444 25.2532 40.1119 27.0799 37.8842 27.0799ZM43.3387 22.4388V20.4065C43.7905 20.5711 44.0564 20.984 44.0564 21.4217C44.0565 21.8757 43.7758 22.2799 43.3387 22.4388ZM37.8159 12.1181C40.9371 12.1181 43.4762 14.6574 43.4762 17.7785V18.8958C43.4422 18.8887 43.3488 18.8726 43.3364 18.8707C43.3262 18.6596 43.2725 18.5305 43.1579 18.3657C42.9615 18.0837 42.6219 17.7472 41.5185 16.5612C41.1332 16.1476 40.4979 16.0544 40.0048 16.3767C38.1641 17.5792 35.8383 18.2584 33.6254 18.1147C33.0037 18.0739 32.5534 18.3783 32.367 18.8823C32.3504 18.885 32.1659 18.9223 32.1554 18.9248V17.7785C32.1555 14.6573 34.6948 12.1181 37.8159 12.1181ZM19.7791 8.77182C19.7791 5.65056 22.3184 3.11142 25.4395 3.11142C28.5605 3.11142 31.0998 5.65066 31.0998 8.77182V9.88913C31.066 9.88216 30.9724 9.86592 30.9599 9.86403C30.9489 9.63523 30.8829 9.49458 30.7484 9.3126C30.5483 9.04186 30.1796 8.66962 29.1421 7.55439C28.7503 7.13374 28.114 7.05256 27.6284 7.36992C25.6844 8.63993 23.3262 9.25801 21.1887 9.10491C20.6657 9.06536 20.1733 9.38133 19.9907 9.87549C19.974 9.87818 19.7895 9.91543 19.7791 9.91792V8.77182ZM6.82273 21.4217C6.82273 20.9821 7.14148 20.6209 7.54051 20.4495V22.4389C7.10253 22.2799 6.82273 21.8748 6.82273 21.4217ZM9.03485 23.1198V19.6204C11.4064 19.7151 13.8587 19.0067 15.8481 17.7685C16.5154 18.4841 16.9224 18.9103 17.0914 19.1054C17.0914 20.9654 17.0914 21.6837 17.0914 23.1198C17.0914 25.2926 15.3199 27.0799 13.1313 27.0799C10.6945 27.0799 9.03485 25.1986 9.03485 23.1198ZM13.1309 28.5741C13.131 28.5741 13.1312 28.5741 13.1313 28.5741C13.7993 28.5741 14.4646 28.4458 15.0499 28.2257V28.9779L13.1215 31.3583L11.1894 28.9734V28.2567C11.8149 28.4729 12.4909 28.574 13.1309 28.5741ZM1.49424 47.7651V36.0491C1.49424 33.6496 3.516 32.735 3.64689 32.6784L7.52378 31.1754L9.22222 34.5792C9.22222 34.5792 9.22222 34.5792 9.22231 34.5793C9.37502 34.8854 9.65303 35.1085 9.98482 35.1915C10.3128 35.2734 10.6638 35.2107 10.9458 35.0104L11.0257 34.9536L11.3328 35.4159L9.66388 45.2768C9.66259 45.2842 9.66149 45.2916 9.6604 45.2991C9.61238 45.6468 9.72046 46.0051 9.94986 46.2578L11.4343 47.8909H5.95284V36.976C5.95284 36.5634 5.61846 36.2289 5.20577 36.2289C4.79309 36.2289 4.45871 36.5634 4.45871 36.976V47.8909H1.62014C1.55062 47.8909 1.49424 47.8345 1.49424 47.7651ZM24.627 47.8909H21.7885V36.976C21.7885 36.5634 21.4541 36.2289 21.0414 36.2289C20.6288 36.2289 20.2944 36.5634 20.2944 36.976V47.8909H14.8089L16.2936 46.2576C16.5229 46.0053 16.6309 45.647 16.5828 45.2991C16.5817 45.2916 16.5806 45.2843 16.5793 45.2768L14.9104 35.4159L15.2175 34.9536L15.2975 35.0104C15.4974 35.1524 15.7341 35.2265 15.9742 35.2265C16.4124 35.2265 16.8205 34.981 17.0211 34.5793V34.5792L18.7194 31.1755L22.5986 32.6779C23.7294 33.1698 24.7527 34.4383 24.7527 36.0491V47.765C24.7528 47.8345 24.6964 47.8909 24.627 47.8909ZM30.7057 47.8909V36.976C30.7057 36.5634 30.3713 36.2289 29.9587 36.2289C29.546 36.2289 29.2116 36.5634 29.2116 36.976V47.8909H26.373C26.3036 47.8909 26.2471 47.8345 26.2471 47.7651V36.0491C26.2471 35.161 26.5256 34.343 27.1189 33.6558C27.5144 33.2021 28.0391 32.8347 28.3999 32.6784L29.4273 32.2801L32.2769 31.1753L33.9753 34.5792C33.9753 34.5792 33.9753 34.5792 33.9754 34.5793C34.1281 34.8854 34.4061 35.1085 34.7379 35.1915C35.0659 35.2734 35.4168 35.2107 35.6988 35.0104L35.7788 34.9536L36.0859 35.4159L34.417 45.2768C34.4157 45.2842 34.4146 45.2916 34.4135 45.2991C34.3655 45.6468 34.4735 46.0051 34.7029 46.2578L36.1874 47.8909H30.7059H30.7057ZM37.8745 47.5256L35.9163 45.3713L37.5031 35.996H38.246L39.8328 45.3713L37.8745 47.5256ZM38.4766 34.5017H37.2723L36.9974 34.088L37.8745 33.4651L38.7516 34.088L38.4766 34.5017ZM40.6064 33.5725C40.6062 33.5723 38.9775 32.4156 38.9544 32.3991C39.657 31.5317 39.3269 31.9392 40.788 30.1359L42.0728 30.6334L40.6064 33.5725Z" fill="white"/>
</g>
<defs>
<clipPath id="clip0_85_6050">
<rect width="51" height="51" fill="white"/>
</clipPath>
</defs>
</svg>
