<svg width="54" height="54" viewBox="0 0 54 54" fill="none" xmlns="http://www.w3.org/2000/svg">
<g clip-path="url(#clip0_85_5949)">
<path fill-rule="evenodd" clip-rule="evenodd" d="M29.4932 10.8642C28.8367 10.8642 28.4733 10.1121 28.8749 9.60213L34.9176 1.93402C35.23 1.53241 35.8292 1.53241 36.1415 1.93402L42.1842 9.60213C42.5857 10.1121 42.2225 10.8642 41.5659 10.8642H39.0608V27.0096C39.0608 27.3021 38.8239 27.539 38.5314 27.539H32.5277C32.2353 27.539 31.9983 27.3021 31.9983 27.0096V10.8642H29.4932Z" fill="#FF7B02"/>
<path fill-rule="evenodd" clip-rule="evenodd" d="M34.7363 2.16516L34.9185 1.93402C35.2309 1.53241 35.8301 1.53241 36.1424 1.93402L42.1851 9.60213C42.5867 10.1121 42.2234 10.8642 41.5668 10.8642H39.9786C40.6351 10.8642 40.9984 10.1121 40.5969 9.60213L34.7363 2.16516ZM39.0617 10.8642V27.0096C39.0617 27.3021 38.8248 27.539 38.5323 27.539H36.9441C37.2365 27.539 37.4735 27.3021 37.4735 27.0096V10.8642H39.0617Z" fill="#FF7B02"/>
<path fill-rule="evenodd" clip-rule="evenodd" d="M39.5264 21.8838C38.8699 21.8838 38.5066 21.1316 38.9081 20.6217L44.9508 12.9536C45.2632 12.5519 45.8623 12.5519 46.1747 12.9536L52.2174 20.6217C52.619 21.1316 52.2556 21.8838 51.5992 21.8838H49.0941V38.0291C49.0941 38.3216 48.857 38.5586 48.5647 38.5586H42.5608C42.2685 38.5586 42.0315 38.3216 42.0315 38.0291V21.8838H39.5264Z" fill="#FF7B02"/>
<path fill-rule="evenodd" clip-rule="evenodd" d="M44.7695 13.1847L44.9516 12.9536C45.264 12.5519 45.8632 12.5519 46.1755 12.9536L52.2182 20.6217C52.6199 21.1316 52.2565 21.8838 51.6 21.8838H50.0118C50.6682 21.8838 51.0316 21.1316 50.63 20.6217L44.7695 13.1847ZM49.0949 21.8838V38.0291C49.0949 38.3216 48.8579 38.5586 48.5655 38.5586H46.9773C47.2696 38.5586 47.5067 38.3216 47.5067 38.0291V21.8838H49.0949Z" fill="#FF7B02"/>
<path fill-rule="evenodd" clip-rule="evenodd" d="M16.5786 40.9239L11.9266 50.8196C11.8517 50.9791 11.6944 51.0838 11.5184 51.0915C11.3423 51.0991 11.1766 51.0085 11.0881 50.8561L8.8984 47.0879L4.60837 47.8394C4.43461 47.8699 4.25821 47.8012 4.15074 47.6612C4.04327 47.5212 4.02252 47.3332 4.09674 47.1731L8.7381 37.1719L16.5786 40.9239Z" fill="#FF7B02"/>
<path fill-rule="evenodd" clip-rule="evenodd" d="M15.0542 40.1953L16.5786 40.9247L11.9266 50.8204C11.8517 50.98 11.6944 51.0846 11.5184 51.0923C11.3423 51.0999 11.1766 51.0093 11.0881 50.8569L10.5099 49.8621L15.0542 40.1953ZM8.8984 47.0887L4.60837 47.8402C4.43461 47.8707 4.25821 47.802 4.15074 47.662C4.04327 47.5221 4.02252 47.334 4.09674 47.1739L4.31952 46.6939L8.26713 46.0024L8.8984 47.0887Z" fill="#FF7B02"/>
<path fill-rule="evenodd" clip-rule="evenodd" d="M21.5527 39.0619L29.0766 34.6016L33.4979 45.4476C33.5646 45.6111 33.5358 45.798 33.423 45.9338C33.3102 46.0697 33.1318 46.1324 32.9588 46.097L28.6304 45.2115L26.3261 48.9212C26.2309 49.0745 26.0576 49.1611 25.8779 49.1455C25.6982 49.1297 25.5426 49.0143 25.4755 48.8468L21.5527 39.0619Z" fill="#FF7B02"/>
<path fill-rule="evenodd" clip-rule="evenodd" d="M27.92 35.2869L29.0762 34.6016L33.4974 45.4476C33.5641 45.6111 33.5353 45.798 33.4225 45.9338C33.3098 46.0697 33.1314 46.1324 32.9584 46.097L32.0105 45.9031C32.1035 45.7707 32.1236 45.599 32.0618 45.4476L27.92 35.2869ZM28.63 45.2115L26.3257 48.9212C26.2305 49.0745 26.0572 49.1611 25.8775 49.1455C25.6978 49.1297 25.5421 49.0143 25.475 48.8468L25.2637 48.3198L27.3563 44.9509L28.63 45.2115Z" fill="#FF7B02"/>
<path fill-rule="evenodd" clip-rule="evenodd" d="M22.3048 12.874C23.8578 13.2436 25.3402 13.8582 26.6982 14.6948L29.5529 13.4284L32.9165 16.7919L31.6501 19.6467C32.4867 21.0047 33.1013 22.4871 33.4709 24.0401L36.3839 25.1613V29.9201L33.4709 31.0413C33.1013 32.5922 32.4867 34.0747 31.6501 35.4326L32.9165 38.2874L29.5529 41.6531L26.6982 40.3845C25.3402 41.2212 23.8578 41.8379 22.3048 42.2074L21.1836 45.1183H16.4248L15.3036 42.2054C13.7527 41.8358 12.2702 41.2212 10.9123 40.3845L8.05746 41.6531L4.69177 38.2874L5.96035 35.4346C5.12367 34.0747 4.50701 32.5922 4.13748 31.0413L1.22656 29.9201V25.1613L4.13748 24.0401C4.50701 22.4871 5.12367 21.0047 5.96035 19.6467L4.69177 16.7919L8.05746 13.4284L10.9102 14.6948C12.2702 13.8582 13.7527 13.2436 15.3036 12.874L16.4248 9.96094H21.1836L22.3048 12.874Z" fill="#FF7B02"/>
<path fill-rule="evenodd" clip-rule="evenodd" d="M28.5928 13.854L29.552 13.4284L32.9156 16.7919L31.6491 19.6467C32.4858 21.0047 33.1003 22.4871 33.47 24.0401L36.383 25.1613V29.9201L33.47 31.0413C33.1003 32.5922 32.4858 34.0747 31.6491 35.4326L32.9156 38.2874L29.552 41.6531L28.5928 41.2275L31.5328 38.2874L30.2642 35.4326C31.101 34.0747 31.7155 32.5922 32.0851 31.0413L34.9981 29.9201V25.1613L32.0851 24.0401C31.7155 22.4871 31.101 21.0047 30.2642 19.6467L31.5328 16.7919L28.5928 13.854ZM7.63086 13.854L8.05651 13.4284L10.9093 14.6948C10.7079 14.807 10.5085 14.9232 10.3134 15.0457L7.63086 13.854ZM22.3038 12.874C23.8568 13.2436 25.3393 13.8582 26.6972 14.6948L25.9103 15.0457C24.5524 14.209 22.472 13.2436 20.9189 12.874L19.7978 9.96094H21.1826L22.3038 12.874ZM10.9113 40.3845L8.05651 41.6531L7.63086 41.2275L10.3134 40.0357C10.5085 40.1561 10.7079 40.2724 10.9113 40.3845ZM26.6972 40.3845C25.3393 41.2212 23.8568 41.8379 22.3038 42.2074L21.1826 45.1183H19.7978L20.9189 42.2074C22.472 41.8379 24.5524 40.8724 25.9124 40.0357L26.6972 40.3845Z" fill="#FF7B02"/>
<path d="M18.8049 37.4418C24.2739 37.4418 28.7074 33.0083 28.7074 27.5393C28.7074 22.0702 24.2739 17.6367 18.8049 17.6367C13.3359 17.6367 8.90234 22.0702 8.90234 27.5393C8.90234 33.0083 13.3359 37.4418 18.8049 37.4418Z" fill="#FF7B02"/>
<path fill-rule="evenodd" clip-rule="evenodd" d="M19.599 37.4102C19.3369 37.4311 19.0721 37.4417 18.8049 37.4417C13.3395 37.4417 8.90234 33.0046 8.90234 27.5392C8.90234 22.0738 13.3395 17.6367 18.8049 17.6367C19.0721 17.6367 19.3369 17.6473 19.599 17.6682C14.5044 18.0732 10.4906 22.3412 10.4906 27.5392C10.4906 32.7372 14.5044 37.0052 19.599 37.4102Z" fill="#FF7B02"/>
<path fill-rule="evenodd" clip-rule="evenodd" d="M17.4635 28.4383L22.4352 23.4147C23.0242 22.8227 23.9856 22.8196 24.5777 23.4086C25.1698 23.9976 25.1729 24.956 24.5838 25.5511C22.5665 27.5868 20.5643 29.6347 18.5377 31.6612C17.9456 32.2533 16.9843 32.2533 16.3922 31.6612L13.032 28.2979C12.4399 27.7058 12.4399 26.7475 13.032 26.1523C13.6241 25.5602 14.5855 25.5602 15.1776 26.1523L17.4635 28.4383Z" fill="#FF7B02"/>
<path fill-rule="evenodd" clip-rule="evenodd" d="M5.98656 40.7304L4.28821 39.0319C4.04034 38.784 3.97067 38.4091 4.11308 38.0888C4.11308 38.0888 5.20377 35.6357 5.20388 35.6358C4.51141 34.4397 3.9803 33.1554 3.61914 31.8194L1.11502 30.8557C0.787948 30.7298 0.572266 30.4155 0.572266 30.065V25.3088C0.572266 24.9583 0.787948 24.6441 1.11502 24.5183L3.61882 23.5546C3.97998 22.2152 4.5113 20.9332 5.20409 19.7339L4.11308 17.2803C3.97067 16.96 4.04034 16.585 4.28821 16.3372L7.65061 12.9747C7.89848 12.7269 8.27341 12.6572 8.5937 12.7996C8.5937 12.7996 11.0474 13.8907 11.0473 13.8907C12.2465 13.1979 13.5282 12.667 14.8641 12.3091L15.8319 9.80084C15.958 9.47419 16.2721 9.25883 16.6222 9.25883H21.3786C21.7291 9.25883 22.0435 9.47472 22.1692 9.80201L23.1326 12.3093C24.4682 12.6672 25.7496 13.1981 26.9486 13.8907L29.4022 12.7996C29.7225 12.6572 30.0975 12.7269 30.3453 12.9747L31.3414 13.9707C31.3414 12.9207 31.3414 11.86 31.3414 11.86H29.6866C28.3153 11.86 27.5615 10.2866 28.4003 9.22145L28.4005 9.22124L34.4421 1.5544C35.097 0.71624 36.3491 0.71624 37.0038 1.5544L43.0457 9.22145C43.8845 10.2866 43.1307 11.86 41.7593 11.86H40.1047V18.1175C41.8927 15.8484 44.4737 12.5733 44.4737 12.5733C45.1285 11.7351 46.3806 11.7351 47.0354 12.5733L53.0773 20.2403C53.9161 21.3054 53.1622 22.8789 51.7909 22.8789H50.1362V38.7033C50.1362 39.173 49.7555 39.5538 49.2859 39.5538H42.2233C41.7536 39.5538 41.3729 39.173 41.3729 38.7033C41.3729 38.7033 41.3729 26.2777 41.3729 22.8789H40.1047V27.6846C40.1047 28.1542 39.724 28.5349 39.2543 28.5349H37.4238V30.065C37.4238 30.4155 37.208 30.7298 36.8809 30.8557C36.8809 30.8557 34.378 31.819 34.378 31.8189C34.0195 33.1545 33.4857 34.4359 32.7958 35.6348L33.8833 38.0899C34.0251 38.4099 33.9554 38.7843 33.7078 39.0319L32.6471 40.0925L35.3329 46.3628C35.457 46.6525 35.41 46.9872 35.2108 47.2314C35.0117 47.4758 34.6933 47.5893 34.3844 47.5261L29.3003 46.4859L26.5623 50.8938C26.3952 51.1626 26.0922 51.3159 25.7767 51.2913C25.4612 51.2666 25.1857 51.0681 25.0624 50.7766L22.4988 44.7106L22.1691 45.5675C22.0432 45.8946 21.7289 46.1103 21.3786 46.1103H16.6222C16.3737 46.1103 16.1434 46.0018 15.9856 45.822L12.8069 52.5838C12.6728 52.8688 12.3918 53.056 12.0771 53.0697C11.7624 53.0833 11.4662 52.9213 11.3079 52.649C11.3079 52.649 8.70075 48.1623 8.70085 48.1623L3.58917 49.0578C3.27851 49.1122 2.9633 48.9896 2.77112 48.7394C2.57905 48.4892 2.54189 48.153 2.67467 47.8669L5.98656 40.7304ZM33.0421 15.6715L33.7078 16.3372C33.9554 16.5847 34.0251 16.9591 33.8833 17.2792L32.7963 19.7332C33.4893 20.9329 34.0205 22.2153 34.3784 23.5551L36.8809 24.5183C37.208 24.6441 37.4238 24.9583 37.4238 25.3088V26.8341H38.4039V22.2205C38.0038 21.6768 37.9417 20.8964 38.4039 20.2767V11.0097C38.4039 10.54 38.7847 10.1593 39.2543 10.1593H41.6194L35.723 2.67686L29.8266 10.1593H32.1917C32.6614 10.1593 33.0421 10.54 33.0421 11.0097V15.6715ZM31.3568 41.3828L30.3453 42.3944C30.0978 42.6419 29.7234 42.7116 29.4033 42.5698C29.4033 42.5698 26.9498 41.4831 26.9499 41.4831C25.89 42.0967 24.7609 42.5835 23.5878 42.9354L25.9861 48.6104L28.1724 45.0908C28.3595 44.7897 28.7144 44.6369 29.0618 44.7079L33.1383 45.542L31.3568 41.3828ZM15.1121 43.6979C14.9725 43.3351 14.8685 43.0648 14.8685 43.0648C13.5291 42.7064 12.247 42.1725 11.0477 41.4823L8.59264 42.5698C8.27256 42.7116 7.89816 42.6419 7.65061 42.3944L7.26223 42.006L4.89385 47.1093L8.99023 46.3918C9.33985 46.3305 9.69054 46.4936 9.86884 46.8005L11.961 50.401L15.1121 43.6979ZM21.7086 13.3266L20.7965 10.9529H17.2033L16.2869 13.3278C16.1864 13.5883 15.9641 13.7824 15.6925 13.8469C14.2283 14.1949 12.8321 14.7733 11.5487 15.5641C11.3106 15.7108 11.0157 15.7306 10.7602 15.617L8.4371 14.5841L5.89751 17.1237L6.93039 19.4467C7.04401 19.7022 7.02421 19.9972 6.87756 20.2352C6.08641 21.5193 5.50776 22.9163 5.15517 24.3856C5.09016 24.6567 4.89587 24.8784 4.63571 24.9784L2.26638 25.8904V29.4834L4.63571 30.3954C4.89565 30.4954 5.08984 30.7168 5.15507 30.9877C5.50755 32.4521 6.08588 33.8535 6.87682 35.1327C7.0241 35.3709 7.04422 35.6664 6.93039 35.9223L5.89751 38.2454L8.43774 40.7856L10.7612 39.7564C11.0158 39.6437 11.3095 39.6632 11.5469 39.8086C12.8307 40.5951 14.2275 41.1787 15.6967 41.5268C15.9687 41.5913 16.1915 41.7858 16.2919 42.0468L17.2038 44.4162H20.7969L21.7088 42.0468C21.8092 41.786 22.0317 41.5915 22.3035 41.5269C23.7672 41.1791 25.1677 40.601 26.4461 39.8104C26.6839 39.6634 26.979 39.6432 27.2347 39.7564L29.5582 40.7856L32.0991 38.2448L31.0699 35.9213C30.9571 35.6667 30.9766 35.373 31.1221 35.1356C31.9087 33.8517 32.4922 32.4549 32.8403 30.99C32.9049 30.7182 33.0994 30.4958 33.3602 30.3954L35.7297 29.4834V25.8904L33.3602 24.9784C33.0992 24.8781 32.9047 24.6553 32.8402 24.3833C32.4923 22.9147 31.9139 21.5185 31.1231 20.2352C30.9767 19.9976 30.9568 19.7031 31.0699 19.4478L32.0991 17.1243L29.5588 14.5841L27.2358 15.617C26.9803 15.7306 26.6853 15.7108 26.4473 15.5641C25.1639 14.7733 23.7676 14.1949 22.3035 13.8469C22.0315 13.7823 21.8089 13.5876 21.7086 13.3266ZM18.998 16.935C24.9308 16.935 29.7475 21.7517 29.7475 27.6846C29.7475 33.6174 24.9308 38.4341 18.998 38.4341C13.0651 38.4341 8.24842 33.6174 8.24842 27.6846C8.24842 21.7517 13.0651 16.935 18.998 16.935ZM18.998 18.6291C14.0002 18.6291 9.94254 22.6867 9.94254 27.6846C9.94254 32.6823 14.0002 36.74 18.998 36.74C23.9958 36.74 28.0534 32.6823 28.0534 27.6846C28.0534 22.6867 23.9958 18.6291 18.998 18.6291ZM17.6526 27.3848L22.0253 22.9664L22.0269 22.9648C22.9452 22.0417 24.4442 22.0372 25.3673 22.9557C26.29 23.8736 26.296 25.367 25.3781 26.2945L25.3776 26.2949C23.3594 28.3315 21.3563 30.3802 19.3289 32.4077C18.4062 33.3303 16.9081 33.3303 15.9855 32.4077L12.6252 29.0444C11.7029 28.1222 11.7013 26.6295 12.6237 25.7025L12.6252 25.7009C13.5478 24.7782 15.046 24.7782 15.9686 25.7009L17.6526 27.3848ZM17.0567 29.1848L14.7708 26.8988C14.5095 26.6376 14.0854 26.6373 13.8239 26.8981C13.5627 27.1614 13.5614 27.5848 13.8231 27.8465L17.1834 31.2098C17.4449 31.4713 17.8695 31.4713 18.1311 31.2098C20.1565 29.1843 22.1577 27.1374 24.174 25.1027C24.434 24.8399 24.4339 24.4167 24.1725 24.1566C23.9116 23.8971 23.488 23.8985 23.2282 24.1593L18.2577 29.1817C18.0992 29.3419 17.8833 29.4323 17.6579 29.4329C17.4324 29.4334 17.2161 29.3442 17.0567 29.1848ZM39.8582 21.1781H42.2233C42.6929 21.1781 43.0737 21.5589 43.0737 22.0286V37.853H48.4354V22.0286C48.4354 21.5589 48.8162 21.1781 49.2859 21.1781H51.6509L45.7546 13.6957L39.8582 21.1781Z" fill="white"/>
</g>
<defs>
<clipPath id="clip0_85_5949">
<rect width="54" height="54" fill="white"/>
</clipPath>
</defs>
</svg>
