<svg width="54" height="54" viewBox="0 0 54 54" fill="none" xmlns="http://www.w3.org/2000/svg">
<g clip-path="url(#clip0_85_5978)">
<path d="M37.2815 35.1471C36.1439 36.2958 35.2458 37.659 34.6394 39.1577C34.033 40.6563 33.7303 42.2605 33.749 43.8771H20.249C20.2184 40.5348 18.882 37.3371 16.5252 34.9671C14.9033 33.305 13.7004 31.2805 13.0162 29.0612C12.3321 26.8419 12.1862 24.4916 12.5908 22.2047C12.9954 19.9179 13.9388 17.7603 15.3429 15.9104C16.747 14.0606 18.5714 12.5717 20.6652 11.5671C23.7903 10.047 27.3544 9.68941 30.7192 10.5583C34.0839 11.4272 37.0293 13.4659 39.0275 16.309C41.0258 19.152 41.9464 22.6138 41.6244 26.0739C41.3024 29.5341 39.7588 32.7665 37.2702 35.1921L37.2815 35.1471Z" fill="#FF7B02"/>
<path d="M19.1244 31.0494C19.0909 31.3221 19.0909 31.5979 19.1244 31.8706C18.7434 31.4228 18.3939 30.9491 18.0781 30.4531C18.4037 30.69 18.7546 30.89 19.1244 31.0494Z" fill="#FF7B02"/>
<path d="M37.282 35.1438C35.5122 36.9015 34.3328 39.1661 33.907 41.6238H29.5645C24.4345 41.6238 22.747 36.9213 22.6345 36.8088C21.3745 33.8951 20.9133 34.8738 22.4995 34.8738C23.3306 34.8719 24.1317 34.5635 24.7495 34.0076C25.2619 34.4783 25.9073 34.7792 26.5973 34.869C27.2873 34.9588 27.9882 34.8332 28.604 34.5092C29.2199 34.1853 29.7205 33.6789 30.0375 33.0595C30.3544 32.44 30.4721 31.7378 30.3745 31.0488C31.3892 30.6166 32.2544 29.8955 32.8626 28.9754C33.4707 28.0553 33.795 26.9767 33.795 25.8738C33.795 24.7709 33.4707 23.6923 32.8626 22.7722C32.2544 21.8521 31.3892 21.1311 30.3745 20.6988C30.4721 20.0099 30.3544 19.3076 30.0375 18.6881C29.7205 18.0687 29.2199 17.5623 28.604 17.2384C27.9882 16.9145 27.2873 16.7888 26.5973 16.8786C25.9073 16.9684 25.2619 17.2693 24.7495 17.7401C24.2371 17.2693 23.5917 16.9684 22.9017 16.8786C22.2117 16.7888 21.5108 16.9145 20.895 17.2384C20.2792 17.5623 19.7785 18.0687 19.4616 18.6881C19.1446 19.3076 19.0269 20.0099 19.1245 20.6988C18.307 21.0518 17.5849 21.5938 17.0177 22.2803C16.4505 22.9668 16.0544 23.7781 15.862 24.6476C15.5068 22.2421 15.7569 19.786 16.5897 17.5015C17.4226 15.217 18.8119 13.1762 20.632 11.5638C23.1195 10.3492 25.9053 9.88039 28.6533 10.2138C31.3939 10.5259 33.9905 11.6068 36.1431 13.3315C38.2957 15.0563 39.9167 17.3547 40.819 19.9613C41.7212 22.568 41.8678 25.3767 41.242 28.0631C40.6161 30.7496 39.2433 33.2042 37.282 35.1438Z" fill="#FF7B02"/>
<path d="M33.75 43.875C33.75 46.3163 33.9637 48.375 32.2425 50.355C31.3651 51.4369 30.1744 52.2208 28.8338 52.5993C27.4932 52.9777 26.0683 52.9321 24.7547 52.4688C23.441 52.0054 22.3029 51.147 21.4964 50.0112C20.6899 48.8754 20.2545 47.518 20.25 46.125V43.875H33.75Z" fill="#FF7B02"/>
<path d="M33.75 43.875C33.75 46.3162 33.9637 48.375 32.2425 50.355C31.2379 50.6442 30.1799 50.6962 29.1518 50.5067C28.1238 50.3173 27.1538 49.8917 26.3182 49.2634C25.4827 48.6351 24.8046 47.8214 24.3372 46.8863C23.8698 45.9512 23.626 44.9204 23.625 43.875H33.75Z" fill="#FF7B02"/>
<path d="M27.0005 16.6162V32.8837C26.4881 33.3545 25.8428 33.6554 25.1527 33.7452C24.4627 33.835 23.7618 33.7093 23.146 33.3854C22.5302 33.0615 22.0295 32.5551 21.7126 31.9357C21.3957 31.3162 21.2779 30.6139 21.3755 29.925C20.3608 29.4927 19.4956 28.7717 18.8875 27.8516C18.2793 26.9315 17.9551 25.8529 17.9551 24.75C17.9551 23.6471 18.2793 22.5685 18.8875 21.6484C19.4956 20.7283 20.3608 20.0072 21.3755 19.575C21.2779 18.886 21.3957 18.1838 21.7126 17.5643C22.0295 16.9449 22.5302 16.4385 23.146 16.1146C23.7618 15.7907 24.4627 15.665 25.1527 15.7548C25.8428 15.8446 26.4881 16.1455 27.0005 16.6162Z" fill="#FF7B02"/>
<path d="M26.9993 16.6162V30.6337C26.4869 31.1045 25.8415 31.4054 25.1515 31.4952C24.4615 31.585 23.7606 31.4593 23.1448 31.1354C22.5289 30.8115 22.0283 30.3051 21.7114 29.6857C21.3944 29.0662 21.2767 28.3639 21.3743 27.675C20.5468 27.3109 19.8192 26.7527 19.2533 26.0477C18.6873 25.3427 18.2996 24.5116 18.123 23.625C18.2996 22.7383 18.6873 21.9073 19.2533 21.2023C19.8192 20.4973 20.5468 19.9391 21.3743 19.575C21.2767 18.886 21.3944 18.1838 21.7114 17.5643C22.0283 16.9449 22.5289 16.4385 23.1448 16.1146C23.7606 15.7907 24.4615 15.665 25.1515 15.7548C25.8415 15.8446 26.4869 16.1455 26.9993 16.6162Z" fill="#FF7B02"/>
<path d="M32.625 29.925C32.7226 30.6139 32.6049 31.3162 32.2879 31.9357C31.971 32.5551 31.4704 33.0615 30.8545 33.3854C30.2387 33.7093 29.5378 33.835 28.8478 33.7452C28.1578 33.6554 27.5124 33.3545 27 32.8837V16.6162C27.5124 16.1455 28.1578 15.8446 28.8478 15.7548C29.5378 15.665 30.2387 15.7907 30.8545 16.1146C31.4704 16.4385 31.971 16.9449 32.2879 17.5643C32.6049 18.1838 32.7226 18.886 32.625 19.575C33.6397 20.0072 34.5049 20.7283 35.1131 21.6484C35.7212 22.5685 36.0455 23.6471 36.0455 24.75C36.0455 25.8529 35.7212 26.9315 35.1131 27.8516C34.5049 28.7717 33.6397 29.4927 32.625 29.925Z" fill="#FF7B02"/>
<path d="M32.625 27.675C32.7226 28.3639 32.6049 29.0662 32.2879 29.6857C31.971 30.3051 31.4704 30.8115 30.8545 31.1354C30.2387 31.4593 29.5378 31.585 28.8478 31.4952C28.1578 31.4054 27.5124 31.1045 27 30.6337V16.6162C27.5124 16.1455 28.1578 15.8446 28.8478 15.7548C29.5378 15.665 30.2387 15.7907 30.8545 16.1146C31.4704 16.4385 31.971 16.9449 32.2879 17.5643C32.6049 18.1838 32.7226 18.886 32.625 19.575C33.4525 19.9391 34.1801 20.4973 34.746 21.2023C35.312 21.9073 35.6997 22.7383 35.8762 23.625C35.6997 24.5116 35.312 25.3427 34.746 26.0477C34.1801 26.7527 33.4525 27.3109 32.625 27.675Z" fill="#FF7B02"/>
<path d="M29.25 3.37812C29.2508 3.78293 29.1425 4.18046 28.9363 4.52883C28.7301 4.87719 28.4337 5.16348 28.0785 5.35751C27.7232 5.55154 27.3221 5.64613 26.9176 5.6313C26.5131 5.61648 26.12 5.49279 25.7799 5.27328C25.4398 5.05377 25.1652 4.74657 24.9851 4.38405C24.8049 4.02153 24.7259 3.61713 24.7564 3.21347C24.7869 2.80981 24.9257 2.42185 25.1582 2.09047C25.3907 1.7591 25.7083 1.49659 26.0775 1.33062C26.4198 1.17676 26.7951 1.11095 27.1693 1.13919C27.5436 1.16744 27.9048 1.28884 28.2201 1.49234C28.5354 1.69584 28.7948 1.97498 28.9747 2.30435C29.1546 2.63371 29.2492 3.00284 29.25 3.37812Z" fill="#FF7B02"/>
<path d="M29.0468 4.29683C28.6312 4.48159 28.1694 4.53606 27.7222 4.45305C27.275 4.37004 26.8634 4.15345 26.5418 3.83183C26.2202 3.51022 26.0036 3.09868 25.9206 2.65149C25.8376 2.20429 25.8921 1.74244 26.0768 1.32683C26.4924 1.14206 26.9543 1.08759 27.4015 1.1706C27.8487 1.25362 28.2602 1.47021 28.5818 1.79182C28.9034 2.11344 29.12 2.52498 29.2031 2.97217C29.2861 3.41936 29.2316 3.88121 29.0468 4.29683Z" fill="#FF7B02"/>
<path d="M49.5 7.8761C49.5005 8.46532 49.3467 9.04442 49.0539 9.55577C48.7612 10.0671 48.3397 10.4929 47.8313 10.7908C47.3229 11.0887 46.7454 11.2483 46.1562 11.2538C45.567 11.2592 44.9866 11.1103 44.4728 10.8219C43.959 10.5334 43.5297 10.1155 43.2275 9.60961C42.9254 9.10375 42.7609 8.5276 42.7505 7.93846C42.7401 7.34933 42.8841 6.76773 43.1683 6.25153C43.4524 5.73532 43.8667 5.3025 44.37 4.9961C44.8815 4.68469 45.4667 4.515 46.0654 4.50443C46.6642 4.49386 47.255 4.6428 47.7772 4.93596C48.2994 5.22912 48.7342 5.65594 49.0369 6.17262C49.3397 6.68931 49.4995 7.27724 49.5 7.8761Z" fill="#FF7B02"/>
<path d="M49.0057 9.63066C48.3598 10.0216 47.6016 10.1848 46.8521 10.094C46.1026 10.0033 45.4052 9.66383 44.8713 9.12999C44.3375 8.59616 43.9981 7.89874 43.9073 7.14926C43.8165 6.39977 43.9797 5.6415 44.3707 4.99566C45.0165 4.60468 45.7748 4.44153 46.5243 4.5323C47.2737 4.62306 47.9712 4.96249 48.505 5.49633C49.0388 6.03017 49.3783 6.72758 49.469 7.47707C49.5598 8.22655 49.3966 8.98483 49.0057 9.63066Z" fill="#FF7B02"/>
<path d="M52.875 27.0031C52.8758 27.4079 52.7675 27.8055 52.5613 28.1538C52.3551 28.5022 52.0587 28.7885 51.7035 28.9825C51.3482 29.1765 50.9471 29.2711 50.5426 29.2563C50.1381 29.2415 49.745 29.1178 49.4049 28.8983C49.0648 28.6788 48.7902 28.3716 48.61 28.009C48.4299 27.6465 48.3509 27.2421 48.3814 26.8385C48.4119 26.4348 48.5507 26.0468 48.7832 25.7155C49.0157 25.3841 49.3333 25.1216 49.7025 24.9556C50.0448 24.8018 50.4201 24.7359 50.7943 24.7642C51.1686 24.7924 51.5298 24.9138 51.8451 25.1173C52.1604 25.3208 52.4198 25.6 52.5997 25.9293C52.7796 26.2587 52.8742 26.6278 52.875 27.0031Z" fill="#FF7B02"/>
<path d="M52.6718 27.9218C52.2562 28.1066 51.7944 28.1611 51.3472 28.0781C50.9 27.995 50.4884 27.7784 50.1668 27.4568C49.8452 27.1352 49.6286 26.7237 49.5456 26.2765C49.4626 25.8293 49.5171 25.3674 49.7018 24.9518C50.1174 24.7671 50.5793 24.7126 51.0265 24.7956C51.4737 24.8786 51.8852 25.0952 52.2068 25.4168C52.5284 25.7384 52.745 26.15 52.8281 26.5972C52.9111 27.0444 52.8566 27.5062 52.6718 27.9218Z" fill="#FF7B02"/>
<path d="M11.25 7.8761C11.2505 8.46532 11.0967 9.04442 10.804 9.55577C10.5112 10.0671 10.0897 10.4929 9.58128 10.7908C9.0729 11.0887 8.49539 11.2483 7.90618 11.2538C7.31698 11.2592 6.73662 11.1103 6.22282 10.8219C5.70902 10.5334 5.27969 10.1155 4.97754 9.60961C4.67538 9.10375 4.51092 8.5276 4.50053 7.93846C4.49013 7.34933 4.63415 6.76773 4.91827 6.25153C5.20239 5.73532 5.6167 5.3025 6.12 4.9961C6.63152 4.68469 7.21668 4.515 7.81544 4.50443C8.4142 4.49386 9.00499 4.6428 9.52718 4.93596C10.0494 5.22912 10.4842 5.65594 10.7869 6.17262C11.0897 6.68931 11.2495 7.27724 11.25 7.8761Z" fill="#FF7B02"/>
<path d="M10.7557 9.63066C10.1098 10.0216 9.35155 10.1848 8.60207 10.094C7.85258 10.0033 7.15517 9.66383 6.62133 9.12999C6.08749 8.59616 5.74806 7.89874 5.6573 7.14926C5.56653 6.39977 5.72968 5.6415 6.12066 4.99566C6.7665 4.60468 7.52477 4.44153 8.27426 4.5323C9.02374 4.62306 9.72116 4.96249 10.255 5.49633C10.7888 6.03017 11.1283 6.72758 11.219 7.47707C11.3098 8.22655 11.1466 8.98483 10.7557 9.63066Z" fill="#FF7B02"/>
<path d="M49.5 46.1261C49.5005 46.7153 49.3467 47.2944 49.0539 47.8058C48.7612 48.3171 48.3397 48.7429 47.8313 49.0408C47.3229 49.3387 46.7454 49.4983 46.1562 49.5038C45.567 49.5092 44.9866 49.3603 44.4728 49.0719C43.959 48.7834 43.5297 48.3655 43.2275 47.8596C42.9254 47.3538 42.7609 46.7776 42.7505 46.1885C42.7401 45.5993 42.8841 45.0177 43.1683 44.5015C43.4524 43.9853 43.8667 43.5525 44.37 43.2461C44.8815 42.9347 45.4667 42.765 46.0654 42.7544C46.6642 42.7439 47.255 42.8928 47.7772 43.186C48.2994 43.4791 48.7342 43.9059 49.0369 44.4226C49.3397 44.9393 49.4995 45.5272 49.5 46.1261Z" fill="#FF7B02"/>
<path d="M49.0057 47.8807C48.3598 48.2716 47.6016 48.4348 46.8521 48.344C46.1026 48.2533 45.4052 47.9138 44.8713 47.38C44.3375 46.8462 43.9981 46.1487 43.9073 45.3993C43.8165 44.6498 43.9797 43.8915 44.3707 43.2457C45.0165 42.8547 45.7748 42.6915 46.5243 42.7823C47.2737 42.8731 47.9712 43.2125 48.505 43.7463C49.0388 44.2802 49.3783 44.9776 49.469 45.7271C49.5598 46.4766 49.3966 47.2348 49.0057 47.8807Z" fill="#FF7B02"/>
<path d="M11.25 46.1261C11.2505 46.7153 11.0967 47.2944 10.804 47.8058C10.5112 48.3171 10.0897 48.7429 9.58128 49.0408C9.0729 49.3387 8.49539 49.4983 7.90618 49.5038C7.31698 49.5092 6.73662 49.3603 6.22282 49.0719C5.70902 48.7834 5.27969 48.3655 4.97754 47.8596C4.67538 47.3538 4.51092 46.7776 4.50053 46.1885C4.49013 45.5993 4.63415 45.0177 4.91827 44.5015C5.20239 43.9853 5.6167 43.5525 6.12 43.2461C6.63152 42.9347 7.21668 42.765 7.81544 42.7544C8.4142 42.7439 9.00499 42.8928 9.52718 43.186C10.0494 43.4791 10.4842 43.9059 10.7869 44.4226C11.0897 44.9393 11.2495 45.5272 11.25 46.1261Z" fill="#FF7B02"/>
<path d="M10.7557 47.8807C10.1098 48.2716 9.35155 48.4348 8.60207 48.344C7.85258 48.2533 7.15517 47.9138 6.62133 47.38C6.08749 46.8462 5.74806 46.1487 5.6573 45.3993C5.56653 44.6498 5.72968 43.8915 6.12066 43.2457C6.7665 42.8547 7.52477 42.6915 8.27426 42.7823C9.02374 42.8731 9.72116 43.2125 10.255 43.7463C10.7888 44.2802 11.1283 44.9776 11.219 45.7271C11.3098 46.4766 11.1466 47.2348 10.7557 47.8807Z" fill="#FF7B02"/>
<path d="M5.625 27.0031C5.62584 27.4079 5.51746 27.8055 5.31127 28.1538C5.10509 28.5022 4.80874 28.7885 4.45346 28.9825C4.09819 29.1765 3.69715 29.2711 3.29261 29.2563C2.88808 29.2415 2.49503 29.1178 2.15491 28.8983C1.81479 28.6788 1.54019 28.3716 1.36005 28.009C1.17991 27.6465 1.10092 27.2421 1.13138 26.8385C1.16185 26.4348 1.30065 26.0468 1.53316 25.7155C1.76567 25.3841 2.08328 25.1216 2.4525 24.9556C2.79479 24.8018 3.17013 24.7359 3.54435 24.7642C3.91856 24.7924 4.27977 24.9138 4.59509 25.1173C4.91041 25.3208 5.16981 25.6 5.34969 25.9293C5.52957 26.2587 5.62421 26.6278 5.625 27.0031Z" fill="#FF7B02"/>
<path d="M5.42183 27.9218C5.00621 28.1066 4.54436 28.1611 4.09717 28.0781C3.64998 27.995 3.23844 27.7784 2.91682 27.4568C2.59521 27.1352 2.37862 26.7237 2.2956 26.2765C2.21259 25.8293 2.26706 25.3674 2.45183 24.9518C2.86744 24.7671 3.32929 24.7126 3.77649 24.7956C4.22368 24.8786 4.63522 25.0952 4.95683 25.4168C5.27845 25.7384 5.49504 26.15 5.57805 26.5972C5.66106 27.0444 5.60659 27.5062 5.42183 27.9218Z" fill="#FF7B02"/>
<path d="M47.4522 25.8767H42.6822C42.975 22.2783 41.9868 18.6922 39.8922 15.7517L43.8747 11.7354C44.8188 12.2884 45.9321 12.4784 47.0062 12.27C48.0803 12.0616 49.0417 11.4689 49.7105 10.603C50.3793 9.73699 50.7096 8.65702 50.6398 7.5651C50.5699 6.47318 50.1046 5.44411 49.331 4.67043C48.5573 3.89675 47.5282 3.43145 46.4363 3.36159C45.3444 3.29173 44.2644 3.6221 43.3984 4.29088C42.5325 4.95966 41.9398 5.92104 41.7314 6.99515C41.5229 8.06927 41.713 9.18253 42.266 10.1267L38.4522 13.9404C35.7581 11.0558 32.0638 9.30925 28.1247 9.05792V6.54917C28.8753 6.28379 29.508 5.76159 29.9108 5.07488C30.3136 4.38817 30.4607 3.58115 30.3261 2.79647C30.1915 2.01179 29.7838 1.29996 29.1751 0.7868C28.5664 0.27364 27.7959 -0.0078125 26.9997 -0.0078125C26.2036 -0.0078125 25.433 0.27364 24.8243 0.7868C24.2156 1.29996 23.808 2.01179 23.6733 2.79647C23.5387 3.58115 23.6858 4.38817 24.0886 5.07488C24.4915 5.76159 25.1241 6.28379 25.8747 6.54917V9.05792C21.9376 9.3351 18.2498 11.0866 15.5472 13.9629L11.7335 10.1267C12.2864 9.18253 12.4765 8.06927 12.268 6.99515C12.0596 5.92104 11.467 4.95966 10.601 4.29088C9.73503 3.6221 8.65506 3.29173 7.56314 3.36159C6.47122 3.43145 5.44216 3.89675 4.66848 4.67043C3.89479 5.44411 3.4295 6.47318 3.35964 7.5651C3.28978 8.65702 3.62014 9.73699 4.28893 10.603C4.95771 11.4689 5.91909 12.0616 6.9932 12.27C8.06732 12.4784 9.18058 12.2884 10.1247 11.7354L14.1185 15.7517C12.0394 18.7004 11.0456 22.2781 11.306 25.8767H6.54721C6.28183 25.1261 5.75964 24.4934 5.07293 24.0906C4.38621 23.6877 3.5792 23.5406 2.79452 23.6753C2.00983 23.8099 1.29801 24.2176 0.784847 24.8263C0.271687 25.435 -0.00976562 26.2055 -0.00976562 27.0017C-0.00976562 27.7978 0.271687 28.5683 0.784847 29.177C1.29801 29.7857 2.00983 30.1934 2.79452 30.3281C3.5792 30.4627 4.38621 30.3156 5.07293 29.9128C5.75964 29.5099 6.28183 28.8773 6.54721 28.1267H11.621C12.3073 31.2111 13.8699 34.0316 16.121 36.2492L10.1247 42.2679C9.18058 41.7149 8.06732 41.5249 6.9932 41.7333C5.91909 41.9418 4.95771 42.5344 4.28893 43.4004C3.62014 44.2663 3.28978 45.3463 3.35964 46.4382C3.4295 47.5302 3.89479 48.5592 4.66848 49.3329C5.44216 50.1066 6.47122 50.5719 7.56314 50.6417C8.65506 50.7116 9.73503 50.3812 10.601 49.7125C11.467 49.0437 12.0596 48.0823 12.268 47.0082C12.4765 45.9341 12.2864 44.8208 11.7335 43.8767L17.5047 38.1054C19.3385 41.1767 19.1247 43.5617 19.1247 46.1267C19.1247 48.2152 19.9544 50.2183 21.4312 51.6951C22.9081 53.172 24.9111 54.0017 26.9997 54.0017C29.0883 54.0017 31.0913 53.172 32.5682 51.6951C34.045 50.2183 34.8747 48.2152 34.8747 46.1267C34.8747 43.4379 34.6835 41.0417 36.461 38.0492L42.266 43.8767C41.713 44.8208 41.5229 45.9341 41.7314 47.0082C41.9398 48.0823 42.5325 49.0437 43.3984 49.7125C44.2644 50.3812 45.3444 50.7116 46.4363 50.6417C47.5282 50.5719 48.5573 50.1066 49.331 49.3329C50.1046 48.5592 50.5699 47.5302 50.6398 46.4382C50.7096 45.3463 50.3793 44.2663 49.7105 43.4004C49.0417 42.5344 48.0803 41.9418 47.0062 41.7333C45.9321 41.5249 44.8188 41.7149 43.8747 42.2679L37.8222 36.2267C40.0922 34.0326 41.6586 31.2132 42.3222 28.1267H47.4072C47.6726 28.8773 48.1948 29.5099 48.8815 29.9128C49.5682 30.3156 50.3752 30.4627 51.1599 30.3281C51.9446 30.1934 52.6564 29.7857 53.1696 29.177C53.6827 28.5683 53.9642 27.7978 53.9642 27.0017C53.9642 26.2055 53.6827 25.435 53.1696 24.8263C52.6564 24.2176 51.9446 23.8099 51.1599 23.6753C50.3752 23.5406 49.5682 23.6877 48.8815 24.0906C48.1948 24.4934 47.6726 25.1261 47.4072 25.8767H47.4522ZM46.1247 5.62667C46.4741 5.62501 46.8192 5.70476 47.1324 5.8596C47.4457 6.01444 47.7185 6.24011 47.9294 6.51873C48.1403 6.79734 48.2834 7.12125 48.3474 7.46478C48.4113 7.80831 48.3944 8.16201 48.2979 8.49786C48.2015 8.83371 48.0281 9.14247 47.7916 9.39968C47.555 9.65688 47.2618 9.85546 46.9352 9.97968C46.6086 10.1039 46.2576 10.1503 45.9099 10.1153C45.5622 10.0803 45.2275 9.96478 44.9322 9.77792C44.8847 9.60893 44.7946 9.45499 44.6705 9.33087C44.5464 9.20675 44.3925 9.11664 44.2235 9.06917C44.0109 8.72907 43.8931 8.33833 43.8823 7.93741C43.8714 7.53649 43.968 7.13996 44.1619 6.78888C44.3558 6.4378 44.64 6.14493 44.9851 5.94059C45.3302 5.73625 45.7237 5.62787 46.1247 5.62667ZM3.37471 28.1267C3.07635 28.1267 2.7902 28.0081 2.57922 27.7972C2.36824 27.5862 2.24971 27.3 2.24971 27.0017C2.24971 26.7033 2.36824 26.4172 2.57922 26.2062C2.7902 25.9952 3.07635 25.8767 3.37471 25.8767C3.67308 25.8767 3.95923 25.9952 4.17021 26.2062C4.38119 26.4172 4.49971 26.7033 4.49971 27.0017C4.49971 27.3 4.38119 27.5862 4.17021 27.7972C3.95923 28.0081 3.67308 28.1267 3.37471 28.1267ZM7.87471 48.3767C7.52529 48.3783 7.18028 48.2986 6.86702 48.1437C6.55377 47.9889 6.28089 47.7632 6.07 47.4846C5.85911 47.206 5.71601 46.8821 5.65205 46.5386C5.58808 46.195 5.60501 45.8413 5.70149 45.5055C5.79797 45.1696 5.97134 44.8609 6.20787 44.6037C6.4444 44.3465 6.73759 44.1479 7.0642 44.0237C7.39081 43.8994 7.74186 43.853 8.08953 43.888C8.4372 43.923 8.77194 44.0386 9.06721 44.2254C9.11468 44.3944 9.2048 44.5483 9.32892 44.6725C9.45303 44.7966 9.60698 44.8867 9.77596 44.9342C9.98853 45.2743 10.1063 45.665 10.1172 46.0659C10.128 46.4668 10.0315 46.8634 9.83756 47.2145C9.64366 47.5655 9.35944 47.8584 9.01434 48.0627C8.66923 48.2671 8.27578 48.3755 7.87471 48.3767ZM48.3747 46.1267C48.3764 46.4761 48.2966 46.8211 48.1418 47.1344C47.9869 47.4476 47.7613 47.7205 47.4827 47.9314C47.204 48.1423 46.8801 48.2854 46.5366 48.3493C46.1931 48.4133 45.8394 48.3964 45.5035 48.2999C45.1677 48.2034 44.8589 48.03 44.6017 47.7935C44.3445 47.557 44.1459 47.2638 44.0217 46.9372C43.8975 46.6106 43.851 46.2595 43.8861 45.9118C43.9211 45.5642 44.0366 45.2294 44.2235 44.9342C44.3925 44.8867 44.5464 44.7966 44.6705 44.6725C44.7946 44.5483 44.8847 44.3944 44.9322 44.2254C45.2723 44.0129 45.6631 43.8951 46.064 43.8842C46.4649 43.8734 46.8614 43.9699 47.2125 44.1638C47.5636 44.3577 47.8565 44.6419 48.0608 44.987C48.2651 45.3322 48.3735 45.7256 48.3747 46.1267ZM40.4322 25.8767H37.0572C37.2223 24.8751 37.1593 23.8491 36.873 22.8752C36.5866 21.9013 36.0843 21.0046 35.4035 20.2517L38.2497 17.3267C39.9376 19.8414 40.7083 22.8606 40.4322 25.8767ZM32.141 28.8917C31.286 29.2517 31.4997 30.1404 31.4997 30.3767C31.4993 30.7714 31.3951 31.1591 31.1974 31.5009C30.9998 31.8426 30.7157 32.1263 30.3737 32.3235C30.0317 32.5207 29.6439 32.6245 29.2491 32.6244C28.8544 32.6243 28.4666 32.5203 28.1247 32.3229V17.1804C28.4894 16.9643 28.9077 16.8556 29.3314 16.8669C29.7552 16.8781 30.1672 17.0088 30.5199 17.244C30.8726 17.4791 31.1517 17.8091 31.325 18.1959C31.4984 18.5827 31.5589 19.0107 31.4997 19.4304C31.4617 19.6762 31.5063 19.9277 31.6264 20.1455C31.7465 20.3633 31.9353 20.5351 32.1635 20.6342C32.9676 20.9854 33.6515 21.564 34.1311 22.2989C34.6106 23.0338 34.8648 23.8928 34.8624 24.7703C34.86 25.6478 34.6011 26.5054 34.1176 27.2377C33.6341 27.9699 32.947 28.5449 32.141 28.8917ZM21.8585 28.8917C21.0467 28.5459 20.3545 27.969 19.868 27.233C19.3815 26.4969 19.1221 25.634 19.1221 24.7517C19.1221 23.8693 19.3815 23.0065 19.868 22.2704C20.3545 21.5343 21.0467 20.9575 21.8585 20.6117C22.7135 20.2517 22.4997 19.3404 22.4997 19.1267C22.5001 18.7319 22.6044 18.3442 22.802 18.0025C22.9997 17.6608 23.2837 17.377 23.6257 17.1798C23.9677 16.9826 24.3555 16.8789 24.7503 16.879C25.1451 16.8791 25.5328 16.983 25.8747 17.1804V32.3229C25.51 32.539 25.0917 32.6477 24.668 32.6365C24.2442 32.6252 23.8323 32.4945 23.4796 32.2594C23.1269 32.0242 22.8478 31.6943 22.6744 31.3074C22.501 30.9206 22.4405 30.4927 22.4997 30.0729C22.5342 29.8332 22.4904 29.5888 22.3749 29.376C22.2594 29.1632 22.0782 28.9933 21.8585 28.8917ZM36.866 15.5492L33.7497 18.6992C33.6865 18.0505 33.4831 17.4233 33.1537 16.861C32.8242 16.2986 32.3765 15.8146 31.8416 15.4423C31.3067 15.07 30.6973 14.8183 30.0555 14.7047C29.4137 14.591 28.755 14.6182 28.1247 14.7842V11.3079C31.4682 11.5718 34.5895 13.0862 36.866 15.5492ZM26.9997 2.25167C27.2981 2.25167 27.5842 2.37019 27.7952 2.58117C28.0062 2.79215 28.1247 3.0783 28.1247 3.37667C28.1247 3.67504 28.0062 3.96118 27.7952 4.17216C27.5842 4.38314 27.2981 4.50167 26.9997 4.50167C26.7013 4.50167 26.4152 4.38314 26.2042 4.17216C25.9932 3.96118 25.8747 3.67504 25.8747 3.37667C25.8747 3.0783 25.9932 2.79215 26.2042 2.58117C26.4152 2.37019 26.7013 2.25167 26.9997 2.25167ZM25.8747 11.3079V14.7842C25.2445 14.6182 24.5857 14.591 23.9439 14.7047C23.3022 14.8183 22.6928 15.07 22.1578 15.4423C21.6229 15.8146 21.1752 16.2986 20.8458 16.861C20.5163 17.4233 20.3129 18.0505 20.2497 18.6992L17.0997 15.5492C19.3819 13.0749 22.5181 11.5591 25.8747 11.3079ZM5.62471 7.87667C5.62306 7.52724 5.70281 7.18223 5.85764 6.86898C6.01248 6.55572 6.23815 6.28284 6.51677 6.07195C6.79539 5.86106 7.1193 5.71796 7.46283 5.654C7.80635 5.59004 8.16006 5.60697 8.49591 5.70344C8.83176 5.79992 9.14052 5.97329 9.39773 6.20983C9.65493 6.44636 9.85351 6.73955 9.97773 7.06615C10.1019 7.39276 10.1484 7.74381 10.1134 8.09149C10.0783 8.43916 9.96282 8.77389 9.77596 9.06917C9.60698 9.11664 9.45303 9.20675 9.32892 9.33087C9.2048 9.45499 9.11468 9.60893 9.06721 9.77792C8.72711 9.99048 8.33638 10.1083 7.93546 10.1191C7.53454 10.1299 7.13801 10.0334 6.78693 9.83951C6.43585 9.64561 6.14298 9.3614 5.93864 9.01629C5.7343 8.67118 5.62592 8.27773 5.62471 7.87667ZM15.7497 17.3379L18.6297 20.2517C17.9446 21.0019 17.4396 21.8984 17.153 22.8731C16.8664 23.8478 16.8059 24.875 16.976 25.8767H13.601C13.3349 22.8696 14.092 19.8608 15.7497 17.3379ZM13.9385 28.1267H17.7747C18.3719 29.1517 19.2247 30.0045 20.2497 30.6017C20.351 32.4692 21.4422 30.9617 17.7635 34.6517C15.9219 32.8625 14.6 30.6075 13.9385 28.1267ZM22.4997 49.5017H25.8747C26.1731 49.5017 26.4592 49.3831 26.6702 49.1722C26.8812 48.9612 26.9997 48.675 26.9997 48.3767C26.9997 48.0783 26.8812 47.7921 26.6702 47.5812C26.4592 47.3702 26.1731 47.2517 25.8747 47.2517H21.4872C21.3661 46.5082 21.3284 45.7535 21.3747 45.0017H32.6247C32.67 45.7535 32.6323 46.5081 32.5122 47.2517H30.3747C30.0763 47.2517 29.7902 47.3702 29.5792 47.5812C29.3682 47.7921 29.2497 48.0783 29.2497 48.3767C29.2497 48.675 29.3682 48.9612 29.5792 49.1722C29.7902 49.3831 30.0763 49.5017 30.3747 49.5017H31.4997C30.9844 50.2127 30.3079 50.7915 29.5257 51.1907C28.7435 51.5898 27.8779 51.7979 26.9997 51.7979C26.1216 51.7979 25.2559 51.5898 24.4737 51.1907C23.6915 50.7915 23.015 50.2127 22.4997 49.5017ZM32.6247 42.7517H21.3747C21.1554 40.4983 20.3824 38.3342 19.1247 36.4517L21.8247 33.7517C22.5249 34.37 23.4033 34.75 24.3334 34.8369C25.2634 34.9239 26.1971 34.7133 26.9997 34.2354C27.8034 34.7099 28.7363 34.9185 29.6656 34.8316C30.5948 34.7448 31.4729 34.3668 32.1747 33.7517L34.8747 36.4179C33.6079 38.3083 32.8344 40.4857 32.6247 42.7517ZM36.1797 34.6404C32.501 30.9504 33.6035 32.5029 33.7047 30.6017C34.7463 30.0107 35.6151 29.1574 36.2247 28.1267H40.061C39.416 30.6137 38.087 32.8703 36.2247 34.6404H36.1797ZM50.6247 28.1267C50.3263 28.1267 50.0402 28.0081 49.8292 27.7972C49.6182 27.5862 49.4997 27.3 49.4997 27.0017C49.4997 26.7033 49.6182 26.4172 49.8292 26.2062C50.0402 25.9952 50.3263 25.8767 50.6247 25.8767C50.9231 25.8767 51.2092 25.9952 51.4202 26.2062C51.6312 26.4172 51.7497 26.7033 51.7497 27.0017C51.7497 27.3 51.6312 27.5862 51.4202 27.7972C51.2092 28.0081 50.9231 28.1267 50.6247 28.1267Z" fill="white"/>
</g>
<defs>
<clipPath id="clip0_85_5978">
<rect width="54" height="54" fill="white"/>
</clipPath>
</defs>
</svg>
