<svg width="25" height="49" viewBox="0 0 25 49" fill="none" xmlns="http://www.w3.org/2000/svg">
<path d="M11.0254 23.8017V44.5793C11.0254 45.8638 11.5357 47.0956 12.4439 48.0039C13.3521 47.0956 13.8624 45.8638 13.8624 44.5793V23.8017" stroke="white" stroke-width="2" stroke-miterlimit="10" stroke-linecap="round" stroke-linejoin="round"/>
<path d="M13.4434 22.8389C18.7414 22.3355 22.8856 17.8742 22.8857 12.4443C22.8857 7.01444 18.7414 2.55424 13.4434 2.05078V22.8389Z" fill="#FF7B02" stroke="white" stroke-width="2"/>
<path d="M12.4424 22.8867C14.4345 22.8867 16.3138 21.8156 17.7285 19.9346C19.1435 18.0531 20.0478 15.4079 20.0479 12.4443C20.0479 9.48069 19.1435 6.83566 17.7285 4.9541C16.3138 3.07294 14.4346 2.00098 12.4424 2.00098C6.67523 2.00112 2 6.67715 2 12.4443C2.00014 18.2114 6.67532 22.8866 12.4424 22.8867Z" fill="#FF7B02" stroke="white" stroke-width="2"/>
<path d="M3.41081 5.41828C1.90019 7.35748 1 9.79552 1 12.4441C1 18.7636 6.12309 23.8867 12.4426 23.8867C18.7622 23.8867 23.8853 18.7636 23.8853 12.4441C23.8853 6.12451 18.7622 1.00142 12.4426 1.00142C9.7941 1.00142 7.35606 1.90161 5.41686 3.41223" stroke="white" stroke-width="2" stroke-miterlimit="10" stroke-linecap="round" stroke-linejoin="round"/>
</svg>
