<svg width="58" height="55" viewBox="0 0 58 55" fill="none" xmlns="http://www.w3.org/2000/svg">
<path d="M12.5664 0.964844H45.4331V41.5648H12.5664V0.964844Z" fill="#FF7B02"/>
<path d="M29.0008 22.2359C33.8057 22.2359 37.7008 18.3408 37.7008 13.5359C37.7008 8.73106 33.8057 4.83594 29.0008 4.83594C24.1959 4.83594 20.3008 8.73106 20.3008 13.5359C20.3008 18.3408 24.1959 22.2359 29.0008 22.2359Z" fill="#FF7B02"/>
<path d="M28.0326 17.3983C27.8234 17.3983 27.6199 17.3305 27.4526 17.205L23.5859 14.305L24.7459 12.7583L27.9456 15.1556L33.1463 9.94531L34.5189 11.318L28.7189 17.118C28.6286 17.2076 28.5215 17.2785 28.4037 17.3266C28.2859 17.3747 28.1598 17.399 28.0326 17.3983Z" fill="#C5453B"/>
<path d="M29.0007 23.2005C30.9125 23.2005 32.7815 22.6336 34.3712 21.5714C35.9608 20.5092 37.1998 18.9995 37.9315 17.2331C38.6631 15.4668 38.8546 13.5231 38.4816 11.648C38.1086 9.77284 37.1879 8.0504 35.836 6.69849C34.4841 5.34659 32.7617 4.42592 30.8865 4.05293C29.0114 3.67994 27.0677 3.87138 25.3014 4.60302C23.535 5.33467 22.0253 6.57367 20.9631 8.16335C19.9009 9.75302 19.334 11.622 19.334 13.5339C19.334 16.0976 20.3524 18.5564 22.1653 20.3692C23.9781 22.1821 26.4369 23.2005 29.0007 23.2005ZM29.0007 5.80053C30.5302 5.80053 32.0253 6.25408 33.2971 7.10383C34.5688 7.95358 35.56 9.16136 36.1453 10.5744C36.7306 11.9875 36.8838 13.5424 36.5854 15.0426C36.287 16.5427 35.5505 17.9206 34.4689 19.0022C33.3874 20.0837 32.0095 20.8202 30.5093 21.1186C29.0092 21.417 27.4543 21.2638 26.0412 20.6785C24.6281 20.0932 23.4204 19.102 22.5706 17.8303C21.7209 16.5585 21.2673 15.0634 21.2673 13.5339C21.2673 11.4829 22.0821 9.51585 23.5324 8.06557C24.9826 6.61528 26.9496 5.80053 29.0007 5.80053Z" fill="white"/>
<path d="M28.0326 17.3983C28.1598 17.399 28.2859 17.3747 28.4037 17.3266C28.5215 17.2785 28.6286 17.2076 28.7189 17.118L34.5189 11.318L33.1463 9.94531L27.9456 15.1556L24.7459 12.7583L23.5859 14.305L27.4526 17.205C27.6199 17.3305 27.8234 17.3983 28.0326 17.3983Z" fill="white"/>
<path d="M57.0333 26.1H49.3C49.0436 26.1 48.7977 26.2018 48.6165 26.3831C48.4352 26.5644 48.3333 26.8103 48.3333 27.0667V28.0333H46.4V0.966667C46.4 0.710291 46.2982 0.464415 46.1169 0.28313C45.9356 0.101845 45.6897 0 45.4333 0H12.5667C12.3103 0 12.0644 0.101845 11.8831 0.28313C11.7018 0.464415 11.6 0.710291 11.6 0.966667V27.0667H9.66667V26.1C9.66667 25.8436 9.56482 25.5977 9.38354 25.4165C9.20225 25.2352 8.95638 25.1333 8.7 25.1333H0.966667C0.710291 25.1333 0.464415 25.2352 0.28313 25.4165C0.101845 25.5977 0 25.8436 0 26.1V43.5C0 43.7564 0.101845 44.0023 0.28313 44.1835C0.464415 44.3648 0.710291 44.4667 0.966667 44.4667H8.7C8.95638 44.4667 9.20225 44.3648 9.38354 44.1835C9.56482 44.0023 9.66667 43.7564 9.66667 43.5V42.5333H10.8267C10.7042 42.8412 10.6387 43.1687 10.6333 43.5C10.6333 44.2691 10.9389 45.0068 11.4827 45.5506C12.0266 46.0945 12.7642 46.4 13.5333 46.4C13.5333 47.1691 13.8389 47.9068 14.3827 48.4506C14.9266 48.9945 15.6642 49.3 16.4333 49.3H16.7523C17.0204 49.2953 17.2868 49.2563 17.545 49.184C17.7262 49.7744 18.0911 50.2916 18.5866 50.6602C19.0821 51.0288 19.6824 51.2296 20.3 51.2333H20.619C20.841 51.2336 21.062 51.2043 21.2763 51.1463L21.2667 51.2333C21.2667 52.0025 21.5722 52.7401 22.1161 53.2839C22.6599 53.8278 23.3975 54.1333 24.1667 54.1333H24.4857C25.1139 54.1383 25.726 53.9343 26.2257 53.5533L28.449 51.8907C28.8451 52.09 29.2816 52.1958 29.725 52.2H29.9667C30.5871 52.1977 31.1905 51.9965 31.6881 51.6259C32.1858 51.2553 32.5514 50.7348 32.7313 50.141C33.0067 50.2265 33.2937 50.2689 33.582 50.2667H33.8333C34.455 50.2637 35.0593 50.0611 35.5571 49.6886C36.0549 49.3162 36.4198 48.7936 36.598 48.198C36.8763 48.2862 37.1664 48.3318 37.4583 48.3333H37.7C38.4641 48.3327 39.1971 48.0304 39.7397 47.4923C39.8684 47.365 39.9849 47.2258 40.0877 47.0767C40.4782 47.27 40.9086 47.3693 41.3443 47.3667H41.5667C42.3358 47.3667 43.0734 47.0611 43.6173 46.5173C44.1611 45.9734 44.4667 45.2358 44.4667 44.4667V44.3313C44.481 44.1609 44.481 43.9895 44.4667 43.819L45.066 42.5333H48.3333V44.4667C48.3333 44.723 48.4352 44.9689 48.6165 45.1502C48.7977 45.3315 49.0436 45.4333 49.3 45.4333H57.0333C57.2897 45.4333 57.5356 45.3315 57.7169 45.1502C57.8982 44.9689 58 44.723 58 44.4667V27.0667C58 26.8103 57.8982 26.5644 57.7169 26.3831C57.5356 26.2018 57.2897 26.1 57.0333 26.1ZM13.5333 1.93333H44.4667V27.463C43.7679 26.7273 42.9269 26.1413 41.9946 25.7408C41.0623 25.3403 40.0583 25.1336 39.0437 25.1333H35.0417C33.4202 25.1305 31.8421 25.6566 30.5467 26.6317L28.13 28.449L27.9753 28.3137C26.3988 26.8946 24.3545 26.1065 22.2333 26.1H19.4493C18.5861 26.0964 17.7345 26.2985 16.965 26.6897C16.464 26.9404 15.9109 27.0695 15.3507 27.0667H13.5333V1.93333ZM7.73333 42.5333H1.93333V27.0667H7.73333V42.5333ZM12.5667 43.5C12.5667 43.3499 12.6016 43.2019 12.6687 43.0677C12.7358 42.9335 12.8333 42.8167 12.9533 42.7267L15.544 40.7933C15.7099 40.6733 15.9096 40.6089 16.1143 40.6097H16.4333C16.6897 40.6097 16.9356 40.7115 17.1169 40.8928C17.2982 41.0741 17.4 41.32 17.4 41.5763C17.4 41.7264 17.3651 41.8744 17.2979 42.0086C17.2308 42.1429 17.1334 42.2596 17.0133 42.3497L14.4227 44.283C14.2568 44.4031 14.0571 44.4674 13.8523 44.4667H13.5333C13.277 44.4667 13.0311 44.3648 12.8498 44.1835C12.6685 44.0023 12.5667 43.7564 12.5667 43.5ZM16.7523 47.3667H16.4333C16.177 47.3667 15.9311 47.2648 15.7498 47.0835C15.5685 46.9023 15.4667 46.6564 15.4667 46.4C15.4667 46.2499 15.5016 46.1019 15.5687 45.9677C15.6358 45.8335 15.7333 45.7167 15.8533 45.6267L18.444 43.6933C18.6099 43.5733 18.8096 43.5089 19.0143 43.5097H19.3333C19.5897 43.5097 19.8356 43.6115 20.0169 43.7928C20.1982 43.9741 20.3 44.22 20.3 44.4763C20.2989 44.5718 20.2826 44.6664 20.2517 44.7567L18.56 46.0133C18.2928 46.2201 18.0638 46.472 17.8833 46.7577L17.3227 47.183C17.1568 47.3031 16.9571 47.3674 16.7523 47.3667ZM20.619 49.3H20.3C20.0436 49.3 19.7977 49.1982 19.6165 49.0169C19.4352 48.8356 19.3333 48.5897 19.3333 48.3333C19.3355 48.238 19.3518 48.1436 19.3817 48.053L21.0733 46.7867C21.3395 46.5816 21.5656 46.3293 21.7403 46.0423L22.2913 45.6363C22.4512 45.5199 22.6446 45.4588 22.8423 45.4623H23.2C23.4564 45.4623 23.7023 45.5642 23.8835 45.7455C24.0648 45.9268 24.1667 46.1726 24.1667 46.429C24.1662 46.6261 24.1055 46.8184 23.9927 46.98C23.9341 47.065 23.8623 47.1401 23.78 47.2023L21.1893 49.1357C21.0212 49.2489 20.8216 49.3064 20.619 49.3ZM27.6467 50.0733L25.056 52.0067C24.8901 52.1268 24.6904 52.1911 24.4857 52.1903H24.1667C23.9103 52.1903 23.6644 52.0885 23.4831 51.9072C23.3018 51.7259 23.2 51.48 23.2 51.2237C23.2 51.0736 23.2349 50.9256 23.3021 50.7914C23.3692 50.6571 23.4666 50.5404 23.5867 50.4503L26.1773 48.517C26.3432 48.3969 26.5429 48.3326 26.7477 48.3333H27.0667C27.2624 48.3319 27.4539 48.3899 27.616 48.4997C27.778 48.6094 27.903 48.7658 27.9742 48.9481C28.0454 49.1304 28.0597 49.3301 28.015 49.5206C27.9703 49.7112 27.8688 49.8837 27.724 50.0153L27.6467 50.0733ZM29.9667 50.2667H29.7927C29.9523 49.8309 30.0031 49.3627 29.9408 48.9029C29.8785 48.443 29.7049 48.0052 29.435 47.6277L30.856 48.8553C30.9109 48.997 30.9372 49.1481 30.9333 49.3C30.9333 49.5564 30.8315 49.8023 30.6502 49.9835C30.4689 50.1648 30.223 50.2667 29.9667 50.2667ZM42.5333 44.4667C42.5333 44.723 42.4315 44.9689 42.2502 45.1502C42.0689 45.3315 41.823 45.4333 41.5667 45.4333H41.3443C41.106 45.4354 40.8754 45.3493 40.6967 45.1917L40.5033 45.0177C40.4459 44.901 40.3673 44.7961 40.2713 44.7083L31.5713 36.975C31.4782 36.8826 31.3672 36.8102 31.2451 36.7621C31.123 36.7139 30.9924 36.6912 30.8613 36.6952C30.7301 36.6992 30.6011 36.7298 30.4822 36.7853C30.3633 36.8407 30.2569 36.9198 30.1695 37.0177C30.0821 37.1156 30.0156 37.2302 29.974 37.3547C29.9323 37.4791 29.9165 37.6107 29.9273 37.7415C29.9382 37.8722 29.9756 37.9994 30.0372 38.1153C30.0988 38.2311 30.1833 38.3332 30.2857 38.4153L38.5603 45.8683C38.5102 45.9622 38.4448 46.0471 38.367 46.1197C38.2813 46.21 38.1778 46.2816 38.0629 46.3299C37.9481 46.3782 37.8245 46.402 37.7 46.4H37.4583C37.22 46.402 36.9894 46.316 36.8107 46.1583L36.2017 45.6363C36.0676 45.4306 35.9048 45.2451 35.7183 45.0853L29.6283 39.8653C29.4336 39.7066 29.1847 39.63 28.9344 39.6516C28.6841 39.6732 28.4521 39.7915 28.2875 39.9812C28.1229 40.171 28.0386 40.4174 28.0525 40.6682C28.0664 40.919 28.1774 41.1546 28.362 41.325L34.7033 46.893C34.7752 47.0402 34.8084 47.2031 34.8 47.3667C34.8 47.623 34.6982 47.8689 34.5169 48.0502C34.3356 48.2315 34.0897 48.3333 33.8333 48.3333H33.582C33.3516 48.3334 33.1288 48.2511 32.9537 48.1013L32.3543 47.589C32.203 47.3734 32.0243 47.1785 31.8227 47.009L26.7187 42.7557C26.5225 42.5903 26.2688 42.5096 26.0131 42.5314C25.7575 42.5531 25.521 42.6755 25.3557 42.8717C25.1903 43.0678 25.1096 43.3216 25.1314 43.5772C25.1531 43.8328 25.2755 44.0693 25.4717 44.2347L28.3717 46.7287C27.9685 46.5183 27.5214 46.4057 27.0667 46.4H26.7477C26.5264 46.4013 26.3059 46.4272 26.0903 46.4773C26.0903 46.4773 26.0903 46.4773 26.0903 46.4C26.0903 45.6309 25.7848 44.8932 25.2409 44.3494C24.6971 43.8055 23.9595 43.5 23.1903 43.5H22.8713C22.6032 43.5047 22.3369 43.5437 22.0787 43.616C21.898 43.0271 21.5346 42.5111 21.041 42.1426C20.5474 41.7742 19.9493 41.5724 19.3333 41.5667C19.3333 40.7975 19.0278 40.0599 18.4839 39.5161C17.9401 38.9722 17.2025 38.6667 16.4333 38.6667H16.1143C15.4861 38.6617 14.8739 38.8657 14.3743 39.2467L12.5667 40.6H9.66667V29H15.3507C16.2139 29.0036 17.0655 28.8015 17.835 28.4103C18.336 28.1596 18.8891 28.0305 19.4493 28.0333H22.2333C23.8304 28.037 25.3747 28.6054 26.593 29.638L25.3653 30.5467C25.0013 30.8159 24.7039 31.165 24.4961 31.5672C24.2883 31.9695 24.1756 32.414 24.1667 32.8667C24.1667 33.6358 24.4722 34.3734 25.0161 34.9173C25.5599 35.4611 26.2975 35.7667 27.0667 35.7667H27.579C28.0289 35.7654 28.4724 35.6595 28.8743 35.4573L31.5713 34.1137L40.716 42.2917L41.6827 43.152L42.253 43.6837C42.395 43.855 42.4735 44.0701 42.4753 44.2927L42.5333 44.4667ZM44.4667 40.6C44.2882 40.6005 44.1133 40.6505 43.9614 40.7443C43.8096 40.8382 43.6867 40.9722 43.6063 41.1317L43.21 41.9147L43.1423 41.8567L32.509 32.19C32.3474 32.0233 32.1312 31.9204 31.9 31.9C31.7484 31.8982 31.5987 31.9348 31.465 32.0063L28.0333 33.7367C27.8998 33.7982 27.755 33.8311 27.608 33.8333H27.0667C26.8103 33.8333 26.5644 33.7315 26.3831 33.5502C26.2018 33.3689 26.1 33.123 26.1 32.8667C26.1 32.7166 26.1349 32.5686 26.2021 32.4344C26.2692 32.3001 26.3666 32.1834 26.4867 32.0933L31.7067 28.1783C32.6671 27.4536 33.8384 27.0631 35.0417 27.0667H39.0437C39.958 27.0673 40.858 27.2935 41.664 27.7251C42.47 28.1568 43.1571 28.7806 43.6643 29.5413C43.753 29.6725 43.8725 29.7799 44.0124 29.8541C44.1523 29.9282 44.3083 29.9669 44.4667 29.9667H48.3333V40.6H44.4667ZM56.0667 43.5H50.2667V28.0333H56.0667V43.5Z" fill="white"/>
</svg>
