<svg width="55" height="55" viewBox="0 0 55 55" fill="none" xmlns="http://www.w3.org/2000/svg">
<g clip-path="url(#clip0_85_5876)">
<mask id="mask0_85_5876" style="mask-type:luminance" maskUnits="userSpaceOnUse" x="0" y="0" width="55" height="55">
<path d="M0 7.62939e-06H55V55H0V7.62939e-06Z" fill="white"/>
</mask>
<g mask="url(#mask0_85_5876)">
<path fill-rule="evenodd" clip-rule="evenodd" d="M-6.56174 88.3029C5.75074 66.977 -16.891 52.8048 -29.4336 65.3474C-41.9762 52.8048 -64.618 66.977 -52.3054 88.3029C-46.6388 98.1177 -35.21 107.116 -29.4336 108.664C-23.6572 107.116 -12.2284 98.1177 -6.56174 88.3029Z" fill="#FF5D7D"/>
<path d="M-54.302 69.3514C-56.6393 74.2261 -56.6236 80.8238 -52.3054 88.3029C-46.6388 98.1177 -35.21 107.116 -29.4336 108.664C-23.6572 107.116 -12.2284 98.1177 -6.56174 88.3029C5.75074 66.977 -16.891 52.8048 -29.4336 65.3474C-34.846 59.9348 -42.1377 59.5003 -47.691 62.4655" stroke="black" stroke-width="26.6667" stroke-miterlimit="22.926" stroke-linecap="round" stroke-linejoin="round"/>
</g>
<mask id="mask1_85_5876" style="mask-type:luminance" maskUnits="userSpaceOnUse" x="0" y="0" width="55" height="55">
<path d="M0 7.62939e-06H55V55H0V7.62939e-06Z" fill="white"/>
</mask>
<g mask="url(#mask1_85_5876)">
<path d="M26.168 52.5596C26.9482 53.0216 27.9434 53.0634 28.7852 52.5869V52.5859L33.2803 50.0234L33.5078 49.8936L33.7695 49.8916L38.6113 49.8662H38.6533L38.6963 49.8691C39.6095 49.9424 40.5237 49.5325 41.0654 48.7422L41.1689 48.5791L43.7695 44.1289L43.9023 43.9023L44.1289 43.7705L48.5781 41.1699V41.1689C49.3443 40.7208 49.8604 39.88 49.8643 38.9189V38.917L49.8916 33.7705L49.8936 33.5078L50.0234 33.2803L52.5518 28.8467L52.5557 28.8398L52.5596 28.832C53.0217 28.0517 53.0627 27.0565 52.5859 26.2148L50.0234 21.7197L49.8936 21.4922L49.8916 21.2295L49.8662 16.3887V16.3467L49.8691 16.3037C49.9424 15.3905 49.5325 14.4764 48.7422 13.9346L48.5791 13.8311L44.1289 11.2305L43.9023 11.0977L43.7705 10.8711L41.1689 6.42188C40.7207 5.65563 39.8798 5.1395 38.9189 5.13574H38.917L33.7705 5.1084L33.5078 5.10645L33.2803 4.97656L28.8467 2.44824L28.8389 2.44434L28.832 2.44043C28.0509 1.97789 27.0542 1.93711 26.2119 2.41504L21.7197 4.97656L21.4922 5.10645L21.2295 5.1084L16.3887 5.13379H16.3467L16.3037 5.13086C15.3296 5.05276 14.3544 5.52439 13.8311 6.4209L11.2305 10.8711L11.0977 11.0977L10.8711 11.2305L6.4209 13.8311H6.42188C5.62823 14.2953 5.13931 15.1519 5.13574 16.0811V16.083L5.1084 21.2295L5.10645 21.4922L4.97656 21.7197L2.44824 26.1533L2.44434 26.1602L2.44043 26.168L2.3584 26.3164C1.97437 27.0728 1.96597 27.9986 2.41406 28.7881L4.97656 33.2803L5.10645 33.5078L5.1084 33.7705L5.13379 38.6113V38.6543L5.13086 38.6963C5.05757 39.6095 5.46746 40.5236 6.25781 41.0654L6.4209 41.1689L10.8711 43.7705L11.0977 43.9023L11.2295 44.1289L13.8301 48.5791L13.8311 48.5781C14.2793 49.3444 15.1201 49.8604 16.0811 49.8643H16.083L21.2295 49.8916L21.4922 49.8936L21.7197 50.0234L26.1533 52.5518L26.1602 52.5557L26.168 52.5596Z" fill="#FF7B02" stroke="white" stroke-width="2"/>
<path d="M42.5332 25.1797H38.7734V16.5859H42.5332" stroke="white" stroke-width="2" stroke-miterlimit="22.926" stroke-linecap="round" stroke-linejoin="round"/>
<path d="M39.3633 20.8828H41.4175" stroke="white" stroke-width="2" stroke-miterlimit="22.926" stroke-linecap="round" stroke-linejoin="round"/>
<path d="M35.5508 23.0313C35.5508 24.2129 34.584 25.1797 33.4023 25.1797C32.2207 25.1797 31.2539 24.2129 31.2539 23.0313V18.7344C31.2539 17.5527 32.2207 16.5859 33.4023 16.5859C34.584 16.5859 35.5508 17.5527 35.5508 18.7344" stroke="white" stroke-width="2" stroke-miterlimit="22.926" stroke-linecap="round" stroke-linejoin="round"/>
<path d="M19.4375 16.5859V25.1797" stroke="white" stroke-width="2" stroke-miterlimit="22.926" stroke-linecap="round" stroke-linejoin="round"/>
<path d="M23.1973 25.1797V16.5859L27.4941 25.1797V16.5859" stroke="white" stroke-width="2" stroke-miterlimit="22.926" stroke-linecap="round" stroke-linejoin="round"/>
<path d="M15.9558 16.9824L15.3847 16.7459C14.312 16.3017 13.071 16.8156 12.6267 17.8883C12.1824 18.9609 12.6964 20.202 13.769 20.6462L14.3402 20.8829L14.9114 21.1194C15.9839 21.5637 16.4979 22.8048 16.0537 23.8774C15.6095 24.9502 14.3684 25.4641 13.2957 25.0198L12.7245 24.7833" stroke="white" stroke-width="2" stroke-miterlimit="22.926" stroke-linecap="round" stroke-linejoin="round"/>
<path d="M12.4668 31.3945C13.4926 27.4625 18.8637 30.3162 16.1191 33.366C14.9447 34.6709 12.8744 36.8942 12.4668 38.4141H16.9353" stroke="white" stroke-width="2" stroke-miterlimit="22.926" stroke-linecap="round" stroke-linejoin="round"/>
<path d="M23.037 29.4771C24.2658 29.4771 25.2712 30.4825 25.2712 31.7113V36.1798C25.2712 37.4087 24.2658 38.4141 23.037 38.4141C21.8081 38.4141 20.8027 37.4087 20.8027 36.1798V31.7113C20.8027 30.4825 21.8081 29.4771 23.037 29.4771Z" stroke="white" stroke-width="2" stroke-miterlimit="22.926" stroke-linecap="round" stroke-linejoin="round"/>
<path d="M12.9675 5.9166C13.6918 4.67566 15.0412 4.02619 16.3836 4.13382L21.2246 4.10815L25.7188 1.54507C26.8854 0.883024 28.2647 0.941891 29.3418 1.57976L33.7754 4.10815L38.9224 4.13554C40.2455 4.14059 41.4096 4.85183 42.0323 5.9166L44.6333 10.3668L49.0834 12.9677C50.3243 13.6919 50.9739 15.0412 50.8661 16.3837L50.8919 21.2246L53.4548 25.7191C54.1169 26.8857 54.0581 28.265 53.4202 29.342L50.8919 33.7756L50.8644 38.9226C50.8592 40.2455 50.1481 41.4096 49.0834 42.0325L44.6332 44.6335L42.0323 49.0835C41.3081 50.3244 39.9589 50.9739 38.6164 50.8662L33.7753 50.892L29.2809 53.4551C28.1143 54.1171 26.735 54.0581 25.658 53.4204L21.2244 50.892L16.0774 50.8646C14.7546 50.8593 13.5903 50.1483 12.9675 49.0835L10.3666 44.6334L5.91643 42.0325C4.6756 41.3082 4.02602 39.9589 4.13377 38.6165L4.10799 33.7754L1.54501 29.2812C0.882861 28.1146 0.941835 26.7353 1.57971 25.6582L4.10799 21.2244L4.13538 16.0774C4.14032 14.8003 4.81225 13.6136 5.91643 12.9677" stroke="white" stroke-width="2" stroke-miterlimit="22.926" stroke-linecap="round" stroke-linejoin="round"/>
<path d="M16.2266 43.0586H38.7718" stroke="white" stroke-width="2" stroke-miterlimit="22.926" stroke-linecap="round" stroke-linejoin="round"/>
<path d="M16.2266 11.9375H38.7718" stroke="white" stroke-width="2" stroke-miterlimit="22.926" stroke-linecap="round" stroke-linejoin="round"/>
<path d="M10.3652 10.3672H10.3667" stroke="white" stroke-width="2" stroke-miterlimit="2.613" stroke-linecap="round" stroke-linejoin="round"/>
</g>
<path d="M39.1144 28.7969C39.5723 28.7969 39.9901 28.8636 40.368 28.9969C40.7459 29.1303 41.0682 29.3215 41.3349 29.5704C41.6061 29.8149 41.8151 30.1106 41.9618 30.4573C42.1129 30.8041 42.1885 31.1886 42.1885 31.611C42.1885 31.9755 42.1352 32.3134 42.0285 32.6246C41.9218 32.9313 41.7773 33.2269 41.595 33.5115C41.4172 33.7915 41.2082 34.0649 40.9682 34.3317C40.7281 34.594 40.4747 34.8607 40.208 35.1319L37.9807 37.4058C38.203 37.3436 38.4186 37.2947 38.6276 37.2591C38.8365 37.2236 39.0366 37.2058 39.2277 37.2058H41.7617C41.944 37.2058 42.0885 37.2591 42.1952 37.3658C42.3019 37.4681 42.3552 37.6014 42.3552 37.7659V38.7795H35.5801V38.2194C35.5801 38.1038 35.6045 37.986 35.6534 37.866C35.7023 37.7415 35.7779 37.6281 35.8802 37.5259L38.881 34.5184C39.1299 34.265 39.3522 34.0227 39.5478 33.7915C39.7479 33.5559 39.9146 33.3247 40.0479 33.098C40.1813 32.8713 40.2836 32.6401 40.3547 32.4045C40.4258 32.1689 40.4614 31.9222 40.4614 31.6643C40.4614 31.4287 40.4258 31.222 40.3547 31.0441C40.288 30.8619 40.1902 30.7107 40.0613 30.5907C39.9368 30.4662 39.7856 30.3729 39.6078 30.3106C39.4344 30.2484 39.2388 30.2173 39.021 30.2173C38.6164 30.2173 38.283 30.3195 38.0207 30.524C37.7584 30.7285 37.5762 31.0041 37.4739 31.3509C37.4206 31.5243 37.3428 31.6487 37.2405 31.7243C37.1427 31.7999 37.0182 31.8377 36.8671 31.8377C36.796 31.8377 36.7204 31.831 36.6404 31.8177L35.7535 31.6576C35.8201 31.182 35.9513 30.7663 36.1469 30.4106C36.3425 30.055 36.587 29.7571 36.8804 29.5171C37.1738 29.277 37.5095 29.097 37.8874 28.9769C38.2697 28.8569 38.6787 28.7969 39.1144 28.7969Z" fill="white"/>
<path d="M28.9119 37.5196H30.9191V31.7581C30.9191 31.5358 30.9258 31.3024 30.9391 31.0579L29.5188 32.2449C29.4565 32.2938 29.3943 32.3271 29.332 32.3449C29.2743 32.3627 29.2142 32.3716 29.152 32.3716C29.0631 32.3716 28.9808 32.3538 28.9053 32.3182C28.8297 32.2782 28.7741 32.2337 28.7386 32.1848L28.2051 31.4513L31.2192 28.8906H32.5996V37.5196H34.3801V38.7799H28.9119V37.5196Z" fill="white"/>
</g>
<defs>
<clipPath id="clip0_85_5876">
<rect width="55" height="55" fill="white"/>
</clipPath>
</defs>
</svg>
