<svg width="48" height="48" viewBox="0 0 48 48" fill="none" xmlns="http://www.w3.org/2000/svg">
<g clip-path="url(#clip0_85_6034)">
<path d="M43.0004 8H24.0004C23.8931 8 23.7865 8.01687 23.6844 8.04997L23.4444 8.12994C22.9203 8.30431 22.6368 8.87047 22.8112 9.39444C22.8122 9.39763 22.8133 9.40072 22.8144 9.40391L32.8663 38.7779L26.2464 46.342C25.883 46.7578 25.9255 47.3896 26.3413 47.753C26.5238 47.9125 26.758 48.0002 27.0003 47.9999H43.0003C45.7618 48 48.0004 45.7615 48.0004 43.0001V13.0001C48.0004 10.2386 45.7618 8 43.0004 8Z" fill="#FF7B02"/>
<path d="M34.91 38.586C34.7477 38.2292 34.3919 38.0001 34 38H24C23.4478 38 23 38.4477 23 39C23 39.1202 23.0217 39.2395 23.064 39.3521L26.064 47.352C26.1879 47.6814 26.4758 47.9214 26.822 47.984C26.8808 47.9941 26.9403 47.9995 27 48C27.2883 47.9997 27.5623 47.8751 27.752 47.658L34.752 39.6581C35.0105 39.3627 35.0723 38.9434 34.91 38.586Z" fill="#FF7B02"/>
<path d="M34.946 38.676L21.946 0.676031C21.8076 0.271687 21.4274 0 21 0H4.99997C2.23856 0 0 2.23856 0 4.99997V35C0 37.7614 2.23856 39.9999 4.99997 39.9999H33.9999C34.5522 39.9999 34.9999 39.5522 34.9999 38.9999C35 38.8897 34.9817 38.7803 34.946 38.676Z" fill="#FF7B02"/>
<path d="M18.9993 27.9998C18.5765 27.9999 18.1993 27.734 18.0573 27.3358L13.9993 15.9718L9.94137 27.3358C9.73484 27.848 9.15218 28.0958 8.63993 27.8893C8.15665 27.6944 7.90399 27.1611 8.05934 26.6638L13.0593 12.6638C13.3039 12.1441 13.9235 11.9211 14.4432 12.1656C14.6621 12.2686 14.8382 12.4448 14.9413 12.6638L19.9413 26.6638C20.1275 27.1823 19.8592 27.7538 19.3413 27.9418C19.2314 27.9807 19.1157 28.0003 18.9993 27.9998Z" fill="#FAFAFA"/>
<path d="M16.0001 22.0001H12C11.4478 22.0001 11 21.5523 11 21C11 20.4478 11.4478 20 12 20H16.0001C16.5523 20 17.0001 20.4478 17.0001 21C17 21.5523 16.5523 22.0001 16.0001 22.0001Z" fill="#FAFAFA"/>
<path d="M34 40H4.99997C2.23856 40 0 37.7615 0 35V4.99997C0 2.23856 2.23856 0 4.99997 0H21C21.4274 0 21.8076 0.271687 21.946 0.676031L34.9461 38.676C35.125 39.1985 34.8465 39.7672 34.324 39.946C34.2197 39.9818 34.1102 40 34 40ZM4.99997 1.99997C3.34312 1.99997 1.99997 3.34312 1.99997 4.99997V35C1.99997 36.6568 3.34312 38 4.99997 38H32.6L20.286 1.99997H4.99997Z" fill="white"/>
<path d="M43.0003 48H27.0002C26.5837 48 26.2108 47.7418 26.0642 47.352L23.0642 39.3521C22.8698 38.8346 23.1317 38.2574 23.6492 38.0631C24.1667 37.8687 24.7438 38.1306 24.9382 38.6481L27.6942 46.0001H43.0002C44.657 46.0001 46.0002 44.6569 46.0002 43.0001V13.0001C46.0002 11.3432 44.657 10.0001 43.0002 10.0001H24.0002C23.4479 10.0001 23.0002 9.55231 23.0002 9.00003C23.0002 8.44775 23.4479 8 24.0002 8H43.0003C45.7617 8 48.0002 10.2386 48.0002 13V43C48.0002 45.7615 45.7617 48 43.0003 48Z" fill="white"/>
<path d="M27.001 47.9999C26.4487 47.9993 26.0014 47.5512 26.002 46.9989C26.0022 46.7572 26.0899 46.5239 26.2489 46.3419L33.2489 38.3419C33.6145 37.928 34.2465 37.8888 34.6604 38.2544C35.0713 38.6173 35.1134 39.2433 34.7549 39.6579L27.7549 47.6579C27.5649 47.8755 27.2899 48.0002 27.001 47.9999Z" fill="white"/>
<path d="M18.9993 27.9998C18.5765 27.9999 18.1993 27.734 18.0573 27.3358L13.9993 15.9718L9.94137 27.3358C9.73484 27.848 9.15218 28.0958 8.63993 27.8893C8.15665 27.6944 7.90399 27.1611 8.05934 26.6638L13.0593 12.6638C13.3039 12.1441 13.9235 11.9211 14.4432 12.1656C14.6621 12.2686 14.8382 12.4448 14.9413 12.6638L19.9413 26.6638C20.1275 27.1823 19.8592 27.7538 19.3413 27.9418C19.2314 27.9807 19.1157 28.0003 18.9993 27.9998Z" fill="white"/>
<path d="M16.0001 22.0001H12C11.4478 22.0001 11 21.5523 11 21C11 20.4478 11.4478 20 12 20H16.0001C16.5523 20 17.0001 20.4478 17.0001 21C17 21.5523 16.5523 22.0001 16.0001 22.0001Z" fill="white"/>
</g>
<defs>
<clipPath id="clip0_85_6034">
<rect width="48" height="48" fill="white"/>
</clipPath>
</defs>
</svg>
