<svg width="22" height="22" viewBox="0 0 22 22" fill="none" xmlns="http://www.w3.org/2000/svg">
<g clip-path="url(#clip0_30_15732)">
<path d="M3.4375 8.42188H8.59375V10.1406H3.4375V8.42188Z" fill="white"/>
<path d="M3.4375 11.8594H8.59375V13.5781H3.4375V11.8594Z" fill="white"/>
<path d="M3.4375 15.2969H8.59375V17.0156H3.4375V15.2969Z" fill="white"/>
<path d="M19.4219 6.53125H12.5469C11.1253 6.53125 9.96875 7.6878 9.96875 9.10938V19.4219C9.96875 20.8435 11.1253 22 12.5469 22H19.4219C20.8435 22 22 20.8435 22 19.4219V9.10938C22 7.6878 20.8435 6.53125 19.4219 6.53125ZM20.2812 19.4219C20.2812 19.8957 19.8957 20.2812 19.4219 20.2812H12.5469C12.073 20.2812 11.6875 19.8957 11.6875 19.4219V9.10938C11.6875 8.63552 12.073 8.25 12.5469 8.25H19.4219C19.8957 8.25 20.2812 8.63552 20.2812 9.10938V19.4219Z" fill="#FF7B02"/>
<path d="M13.4062 9.96875H18.5625V11.6875H13.4062V9.96875Z" fill="#FF7B02"/>
<path d="M14.2656 15.125C14.7402 15.125 15.125 14.7402 15.125 14.2656C15.125 13.791 14.7402 13.4062 14.2656 13.4062C13.791 13.4062 13.4062 13.791 13.4062 14.2656C13.4062 14.7402 13.791 15.125 14.2656 15.125Z" fill="#FF7B02"/>
<path d="M17.7031 15.125C18.1777 15.125 18.5625 14.7402 18.5625 14.2656C18.5625 13.791 18.1777 13.4062 17.7031 13.4062C17.2285 13.4062 16.8438 13.791 16.8438 14.2656C16.8438 14.7402 17.2285 15.125 17.7031 15.125Z" fill="#FF7B02"/>
<path d="M17.7031 18.5625C18.1777 18.5625 18.5625 18.1777 18.5625 17.7031C18.5625 17.2285 18.1777 16.8438 17.7031 16.8438C17.2285 16.8438 16.8438 17.2285 16.8438 17.7031C16.8438 18.1777 17.2285 18.5625 17.7031 18.5625Z" fill="#FF7B02"/>
<path d="M14.2656 18.5625C14.7402 18.5625 15.125 18.1777 15.125 17.7031C15.125 17.2285 14.7402 16.8438 14.2656 16.8438C13.791 16.8438 13.4062 17.2285 13.4062 17.7031C13.4062 18.1777 13.791 18.5625 14.2656 18.5625Z" fill="#FF7B02"/>
<path d="M1.71875 19.4219V5.15625H5.15625V1.71875H14.2656C14.7395 1.71875 15.125 2.10427 15.125 2.57812V5.15625H16.8438V2.57812C16.8438 1.15655 15.6872 0 14.2656 0H4.29688C1.92754 0 0 1.92758 0 4.29688V19.4219C0 20.8435 1.15655 22 2.57812 22H8.59375V20.2812H2.57812C2.10427 20.2812 1.71875 19.8957 1.71875 19.4219ZM3.4375 1.86656V3.4375H1.86656C2.12592 2.70626 2.70626 2.12592 3.4375 1.86656Z" fill="white"/>
</g>
<defs>
<clipPath id="clip0_30_15732">
<rect width="22" height="22" fill="white"/>
</clipPath>
</defs>
</svg>
