<svg width="23" height="23" viewBox="0 0 23 23" fill="none" xmlns="http://www.w3.org/2000/svg">
<g clip-path="url(#clip0_30_16097)">
<path d="M20.3047 6.82812H13.1172C11.631 6.82812 10.4219 8.03724 10.4219 9.52344V20.3047C10.4219 21.7909 11.631 23 13.1172 23H20.3047C21.7909 23 23 21.7909 23 20.3047V9.52344C23 8.03724 21.7909 6.82812 20.3047 6.82812ZM21.2031 20.3047C21.2031 20.8001 20.8001 21.2031 20.3047 21.2031H13.1172C12.6218 21.2031 12.2188 20.8001 12.2188 20.3047V9.52344C12.2188 9.02804 12.6218 8.625 13.1172 8.625H20.3047C20.8001 8.625 21.2031 9.02804 21.2031 9.52344V20.3047Z" fill="#FF7B02"/>
<path d="M7.90625 19.4062H1.79688V1.79688H14.1953V4.13281C14.1953 4.62902 14.5975 5.03125 15.0938 5.03125C15.59 5.03125 15.9922 4.62902 15.9922 4.13281V0.898438C15.9922 0.402231 15.59 0 15.0938 0H0.898438C0.402231 0 0 0.402231 0 0.898438V20.3047C0 20.8009 0.402231 21.2031 0.898438 21.2031H7.90625C8.40246 21.2031 8.80469 20.8009 8.80469 20.3047C8.80469 19.8085 8.40246 19.4062 7.90625 19.4062Z" fill="white"/>
<path d="M18.5078 10.4219H14.9141C14.4179 10.4219 14.0156 10.8242 14.0156 11.3203C14.0156 11.8165 14.4179 12.2188 14.9141 12.2188H18.5078C19.004 12.2188 19.4062 11.8165 19.4062 11.3203C19.4062 10.8241 19.004 10.4219 18.5078 10.4219Z" fill="#FF7B02"/>
<path d="M14.9141 15.8125C15.4103 15.8125 15.8125 15.4103 15.8125 14.9141C15.8125 14.4179 15.4103 14.0156 14.9141 14.0156C14.4179 14.0156 14.0156 14.4179 14.0156 14.9141C14.0156 15.4103 14.4179 15.8125 14.9141 15.8125Z" fill="#FF7B02"/>
<path d="M14.9141 19.4062C15.4103 19.4062 15.8125 19.004 15.8125 18.5078C15.8125 18.0116 15.4103 17.6094 14.9141 17.6094C14.4179 17.6094 14.0156 18.0116 14.0156 18.5078C14.0156 19.004 14.4179 19.4062 14.9141 19.4062Z" fill="#FF7B02"/>
<path d="M18.5078 19.4062C19.004 19.4062 19.4062 19.004 19.4062 18.5078C19.4062 18.0116 19.004 17.6094 18.5078 17.6094C18.0116 17.6094 17.6094 18.0116 17.6094 18.5078C17.6094 19.004 18.0116 19.4062 18.5078 19.4062Z" fill="#FF7B02"/>
<path d="M18.5078 15.8125C19.004 15.8125 19.4062 15.4103 19.4062 14.9141C19.4062 14.4179 19.004 14.0156 18.5078 14.0156C18.0116 14.0156 17.6094 14.4179 17.6094 14.9141C17.6094 15.4103 18.0116 15.8125 18.5078 15.8125Z" fill="#FF7B02"/>
<path d="M7.90625 5.03125C7.41004 5.03125 7.00781 5.43348 7.00781 5.92969V12.2188H5.21094V9.52344C5.21094 9.02723 4.80871 8.625 4.3125 8.625C3.81629 8.625 3.41406 9.02723 3.41406 9.52344V13.1172C3.41406 13.6134 3.81629 14.0156 4.3125 14.0156H7.90625C8.40246 14.0156 8.80469 13.6134 8.80469 13.1172V5.92969C8.80469 5.43348 8.40246 5.03125 7.90625 5.03125Z" fill="white"/>
<path d="M7.90625 15.8125H4.3125C3.81629 15.8125 3.41406 16.2147 3.41406 16.7109C3.41406 17.2071 3.81629 17.6094 4.3125 17.6094H7.90625C8.40246 17.6094 8.80469 17.2071 8.80469 16.7109C8.80469 16.2147 8.40246 15.8125 7.90625 15.8125Z" fill="white"/>
</g>
<defs>
<clipPath id="clip0_30_16097">
<rect width="23" height="23" fill="white"/>
</clipPath>
</defs>
</svg>
