<svg width="23" height="23" viewBox="0 0 23 23" fill="none" xmlns="http://www.w3.org/2000/svg">
<g clip-path="url(#clip0_30_16162)">
<path d="M11.5007 3.85547C10.7057 3.85547 9.957 4.24301 9.49799 4.89218L4.682 11.703C4.15058 12.4546 4.08328 13.4293 4.50645 14.2468C4.92961 15.0642 5.76431 15.572 6.68475 15.572H16.3167C17.2372 15.572 18.0719 15.0642 18.495 14.2468C18.9182 13.4293 18.8509 12.4546 18.3195 11.703L13.5035 4.89218C13.0445 4.24301 12.2958 3.85547 11.5007 3.85547ZM16.8993 13.4207C16.8441 13.5273 16.677 13.7752 16.3167 13.7752H6.68475C6.32453 13.7752 6.15737 13.5273 6.10216 13.4207C6.047 13.3141 5.94116 13.0345 6.14915 12.7404L10.9651 5.92956C11.0897 5.75337 11.2849 5.6523 11.5007 5.6523C11.7165 5.6523 11.9117 5.75337 12.0363 5.92956L16.8523 12.7404C17.0603 13.0345 16.9544 13.3142 16.8993 13.4207Z" fill="#FF7B02"/>
<path d="M10.6016 8.15234V8.9418C10.6016 9.43801 11.0038 9.84024 11.5 9.84024C11.9962 9.84024 12.3984 9.43801 12.3984 8.9418V8.15234C12.3984 7.65614 11.9962 7.25391 11.5 7.25391C11.0038 7.25391 10.6016 7.65614 10.6016 8.15234Z" fill="#FF7B02"/>
<path d="M12.3803 11.8749C12.3076 11.5166 12.0202 11.2335 11.6606 11.1668C11.2931 11.0986 10.9067 11.2764 10.7215 11.6016C10.5329 11.9328 10.5729 12.355 10.8239 12.6427C11.0657 12.92 11.466 13.02 11.8104 12.8929C12.2183 12.7423 12.4678 12.3027 12.3803 11.8749Z" fill="#FF7B02"/>
<path d="M22.1016 11.9568C22.5978 11.9568 23 11.5545 23 11.0584V4.05859C23 2.077 21.3878 0.464844 19.4062 0.464844H3.59375C1.61216 0.464844 0 2.077 0 4.05859V15.5549C0 17.5365 1.61216 19.1486 3.59375 19.1486H8.69809V20.7401H5.04271C4.5465 20.7401 4.14427 21.1423 4.14427 21.6385C4.14427 22.1347 4.5465 22.5369 5.04271 22.5369H17.9573C18.4535 22.5369 18.8557 22.1347 18.8557 21.6385C18.8557 21.1423 18.4535 20.7401 17.9573 20.7401H14.3019V19.1486H19.4062C21.3878 19.1486 23 17.5365 23 15.5506C23 15.0543 22.5978 14.6543 22.1016 14.6543C21.6054 14.6543 21.2031 15.0587 21.2031 15.5549C21.2031 16.5457 20.397 17.3517 19.4062 17.3517H3.59375C2.60295 17.3517 1.79688 16.5457 1.79688 15.5549V4.05859C1.79688 3.0678 2.60295 2.26172 3.59375 2.26172H19.4062C20.397 2.26172 21.2031 3.0678 21.2031 4.05859V11.0584C21.2031 11.5545 21.6054 11.9568 22.1016 11.9568ZM12.505 19.1486V20.7401H10.495V19.1486H12.505Z" fill="white"/>
</g>
<defs>
<clipPath id="clip0_30_16162">
<rect width="23" height="23" fill="white"/>
</clipPath>
</defs>
</svg>
