<svg width="24" height="24" viewBox="0 0 24 24" fill="none" xmlns="http://www.w3.org/2000/svg">
<path d="M4.22164 4.22266H2.81445V5.62891H4.22164V4.22266Z" fill="white"/>
<path d="M7.03609 4.22266H5.62891V5.62891H7.03609V4.22266Z" fill="white"/>
<path d="M9.85055 4.22266H8.44336V5.62891H9.85055V4.22266Z" fill="white"/>
<path d="M0 1.40625V22.5915H24V1.40625H0ZM22.5938 21.1852H1.40625V8.442H22.5938V21.1852ZM22.5938 7.03575H1.40625V2.8125H22.5938V7.03575Z" fill="white"/>
<path d="M2.85156 9.84766V19.7784H8.01081V9.84766H2.85156ZM6.60456 18.3722H4.25781V16.9637H6.60456V18.3722ZM6.60456 15.5574H4.25781V11.2539H6.60456V15.5574Z" fill="white"/>
<path d="M9.42188 9.84766V19.7784H14.5811V9.84766H9.42188ZM13.1749 18.3722H10.8281V15.5162H13.1749V18.3722ZM13.1749 14.1099H10.8281V11.2539H13.1749V14.1099Z" fill="#FF7B02"/>
<path d="M15.9883 9.84766V19.7784H21.1475V9.84766H15.9883ZM19.7413 18.3722H17.3945V14.0687H19.7413V18.3722ZM19.7413 12.6624H17.3945V11.2539H19.7413V12.6624Z" fill="white"/>
</svg>
