<svg width="28" height="28" viewBox="0 0 28 28" fill="none" xmlns="http://www.w3.org/2000/svg">
<g clip-path="url(#clip0_30_15927)">
<path d="M27.1646 20.2974L26.1821 19.317V2.44683C26.1821 1.9938 25.8148 1.62652 25.3617 1.62652H19.7242V0.820312C19.7242 0.367281 19.3569 0 18.9039 0H5.81206C5.63974 0.00486719 5.42083 0.055125 5.24626 0.226352L0.256469 4.97908C0.118273 5.11957 0.00233594 5.30912 0.00195312 5.57304V23.7682C0.00195312 24.2213 0.369234 24.5885 0.822266 24.5885H7.16886V27.1797C7.16886 27.6327 7.53614 28 7.98917 28H25.3617C25.8148 28 26.1821 27.6327 26.1821 27.1797V24.9716C26.5402 24.8329 26.876 24.6203 27.1646 24.3322C28.2736 23.2705 28.2736 21.3591 27.1646 20.2974ZM19.7242 3.26714H24.5414V17.6799L21.7686 14.9131C22.9986 12.1334 22.3498 8.66573 20.157 6.53652C20.0168 6.39658 19.8723 6.2633 19.7242 6.13659V3.26714ZM22.2842 17.7452L20.5659 19.4598L19.1939 18.0908C19.5316 17.8503 19.8541 17.5795 20.157 17.2773C20.4372 16.9976 20.6926 16.6998 20.9228 16.3867L22.2842 17.7452ZM18.9982 7.69787C20.8342 9.47259 21.274 12.4465 20.063 14.6772C20.0546 14.692 20.0467 14.7068 20.0392 14.722C19.7661 15.2284 19.4172 15.6978 18.9981 16.116C16.3715 18.8012 11.7334 18.2878 9.74475 15.1101L13.273 12.7632L14.4932 14.4512C14.6226 14.6302 14.8187 14.7495 15.0372 14.782C15.2556 14.8144 15.478 14.7576 15.654 14.624L18.7201 12.2966C19.5618 11.6071 18.6177 10.3649 17.7281 10.9898L15.3308 12.8095L14.1403 11.1626C13.8821 10.8056 13.3881 10.7162 13.0212 10.9602L9.05312 13.5996C7.38263 7.64717 14.5633 3.40189 18.9982 7.69787ZM4.99175 2.73454V4.75273H2.87288L4.99175 2.73454ZM1.64258 22.9479V6.39335H5.81206C6.26509 6.39335 6.63237 6.02607 6.63237 5.57304V1.64062H18.0836V5.06729C13.509 2.76396 7.61713 5.95093 7.20331 11.18L3.93212 13.3129C3.55265 13.5603 3.44557 14.0685 3.69298 14.448C3.94202 14.8306 4.4539 14.9326 4.82818 14.6871L7.26216 13.1002C7.50984 14.6756 8.24637 16.1283 9.39798 17.2774C11.6256 19.4924 14.8887 20.0722 17.7 18.9179L18.0835 19.3005V22.9479H1.64258ZM24.5414 26.3594H8.80948V24.5885H18.9039C19.3569 24.5885 19.7242 24.2213 19.7242 23.7682V20.9376L19.9751 21.188C19.9785 21.1915 19.9813 21.1952 19.9847 21.1986C19.9883 21.2023 19.9924 21.2054 19.9961 21.209L23.1261 24.3322C23.5286 24.7338 24.0224 24.9895 24.5414 25.1007L24.5414 26.3594ZM26.0057 23.1709C25.5314 23.6443 24.7595 23.6443 24.285 23.1709L21.7272 20.6187L23.4456 18.9041L26.0058 21.4588C26.235 21.6876 26.3613 21.9916 26.3613 22.3149C26.3613 22.6381 26.235 22.9421 26.0057 23.1709Z" fill="white"/>
<path d="M19 11L15 14L13.5 11.5L9 14.5" stroke="#FF7B02" stroke-width="2"/>
</g>
<defs>
<clipPath id="clip0_30_15927">
<rect width="28" height="28" fill="white"/>
</clipPath>
</defs>
</svg>
