<svg width="25" height="25" viewBox="0 0 25 25" fill="none" xmlns="http://www.w3.org/2000/svg">
<g clip-path="url(#clip0_30_15751)">
<path d="M24.1555 11.306C23.608 10.7865 22.8639 10.5107 22.1166 10.5506C21.5832 10.5787 21.0702 10.7655 20.6304 11.0928L14.8755 15.4057C14.8733 15.4073 14.8711 15.409 14.8689 15.4106C13.4742 16.4745 11.5258 16.4745 10.1311 15.4106C10.1289 15.409 10.1267 15.4073 10.1245 15.4057L4.36699 11.0909C3.92979 10.7655 3.4168 10.5787 2.8834 10.5506C2.13608 10.5112 1.39204 10.7865 0.844482 11.306C0.299902 11.8226 0 12.5252 0 13.2844V19.1406C0 22.3715 2.62852 25 5.85938 25H19.1406C22.3715 25 25 22.3715 25 19.1406V13.2844C25 12.5252 24.7001 11.8226 24.1555 11.306ZM23.0469 19.1406C23.0469 21.2945 21.2945 23.0469 19.1406 23.0469H5.85938C3.70547 23.0469 1.95312 21.2945 1.95312 19.1406V13.2844C1.95312 13.005 2.08125 12.8249 2.18872 12.7229C2.33745 12.5818 2.54189 12.5 2.74233 12.5C2.75513 12.5 2.76792 12.5004 2.78066 12.5011C2.93032 12.509 3.07173 12.5617 3.19824 12.6558L8.9499 16.9662C11.0407 18.5583 13.9593 18.5583 16.0501 16.9662L21.7992 12.6578C21.9283 12.5617 22.0696 12.509 22.2193 12.5011C22.4329 12.4903 22.653 12.5729 22.8112 12.7229C22.9187 12.8249 23.0468 13.0051 23.0468 13.2845V19.1406H23.0469ZM2.44141 7.66602V5.85938C2.44141 2.62852 5.06992 0 8.30078 0H16.7969C20.0277 0 22.6562 2.62852 22.6562 5.85938V7.66602C22.6562 8.20537 22.219 8.64258 21.6797 8.64258C21.1403 8.64258 20.7031 8.20537 20.7031 7.66602V5.85938C20.7031 3.70547 18.9508 1.95312 16.7969 1.95312H8.30078C6.14687 1.95312 4.39453 3.70547 4.39453 5.85938V7.66602C4.39453 8.20537 3.95732 8.64258 3.41797 8.64258C2.87861 8.64258 2.44141 8.20537 2.44141 7.66602ZM11.5967 12.8418V12.7145C11.1986 12.6338 10.7551 12.5109 10.3082 12.3333C9.80698 12.1341 9.56221 11.5663 9.76143 11.0651C9.96069 10.5639 10.5286 10.3192 11.0297 10.5183C11.7941 10.8221 12.4912 10.8887 12.6953 10.8887C12.9646 10.8887 13.1836 10.6696 13.1836 10.4004C13.1836 10.1266 12.894 9.91211 12.5244 9.91211C10.9377 9.91211 9.74121 8.86255 9.74121 7.4707C9.74121 6.32646 10.5326 5.36401 11.5967 5.10088V5.0293C11.5967 4.48994 12.0339 4.05273 12.5732 4.05273C13.1126 4.05273 13.5498 4.48994 13.5498 5.0293V5.20898C13.8007 5.27515 14.0791 5.36465 14.392 5.48633C14.8947 5.68179 15.1438 6.24775 14.9482 6.75044C14.7527 7.25312 14.1866 7.50215 13.6841 7.30664C12.9514 7.02168 12.5295 6.98242 12.1826 6.98242C11.9134 6.98242 11.6943 7.20146 11.6943 7.4707C11.6943 7.74907 12.0512 7.95898 12.5244 7.95898C13.9893 7.95898 15.1367 9.03135 15.1367 10.4004C15.1367 11.446 14.4757 12.34 13.5498 12.6871V12.8418C13.5498 13.3812 13.1126 13.8184 12.5732 13.8184C12.0339 13.8184 11.5967 13.3812 11.5967 12.8418Z" fill="white"/>
<path d="M11.5967 12.8438V12.7165C11.1986 12.6357 10.7551 12.5129 10.3082 12.3353C9.80698 12.136 9.56221 11.5683 9.76143 11.067C9.96069 10.5659 10.5286 10.3211 11.0297 10.5203C11.7941 10.8241 12.4912 10.8906 12.6953 10.8906C12.9646 10.8906 13.1836 10.6716 13.1836 10.4023C13.1836 10.1286 12.894 9.91406 12.5244 9.91406C10.9377 9.91406 9.74121 8.8645 9.74121 7.47266C9.74121 6.32842 10.5326 5.36597 11.5967 5.10283V5.03125C11.5967 4.49189 12.0339 4.05469 12.5732 4.05469C13.1126 4.05469 13.5498 4.49189 13.5498 5.03125V5.21094C13.8007 5.2771 14.0791 5.3666 14.392 5.48828C14.8947 5.68374 15.1438 6.24971 14.9482 6.75239C14.7527 7.25508 14.1866 7.5041 13.6841 7.30859C12.9514 7.02363 12.5295 6.98438 12.1826 6.98438C11.9134 6.98438 11.6943 7.20342 11.6943 7.47266C11.6943 7.75103 12.0512 7.96094 12.5244 7.96094C13.9893 7.96094 15.1367 9.0333 15.1367 10.4023C15.1367 11.448 14.4757 12.3419 13.5498 12.6891V12.8438C13.5498 13.3831 13.1126 13.8203 12.5732 13.8203C12.0339 13.8203 11.5967 13.3831 11.5967 12.8438Z" fill="#FF7B02"/>
</g>
<defs>
<clipPath id="clip0_30_15751">
<rect width="25" height="25" fill="white"/>
</clipPath>
</defs>
</svg>
