<svg width="26" height="26" viewBox="0 0 26 26" fill="none" xmlns="http://www.w3.org/2000/svg">
<g clip-path="url(#clip0_30_16041)">
<path d="M14.8288 13.633H12.2496V12.1693L15.2164 10.0079C15.5586 9.75869 15.6337 9.27911 15.3845 8.93746C15.1357 8.59529 14.6561 8.52019 14.3145 8.76942L11.3661 10.9175C8.63573 9.89453 7.97283 9.57024 7.78438 9.76326C7.76854 9.7689 7.7532 9.77448 7.73791 9.78114H7.73741C7.61177 9.8373 7.766 9.76225 5.06733 11.3521V7.81687C5.06733 7.39401 4.7241 7.05078 4.30124 7.05078C3.87839 7.05078 3.53516 7.39401 3.53516 7.81687V14.3991C3.53516 14.822 3.87839 15.1652 4.30124 15.1652H14.8288C15.2517 15.1652 15.5949 14.8219 15.5949 14.3991C15.5949 13.9762 15.2517 13.633 14.8288 13.633ZM7.26956 13.633H5.06733V13.1315L7.26956 11.8297V13.633ZM10.7175 13.633H8.80178V11.5927L10.7175 12.3108V13.633Z" fill="#FF7B02"/>
<path d="M22.4253 10.5897L20.6853 8.84971C20.5471 8.71153 20.3566 8.625 20.1434 8.625C19.9319 8.625 19.7351 8.7127 19.6015 8.84971L17.8104 10.6408C17.5111 10.9401 17.5111 11.4253 17.8104 11.7241C18.1097 12.0234 18.5938 12.024 18.8937 11.7241L19.3773 11.2404V13.5678C19.3773 13.9907 19.72 14.3339 20.1434 14.3339C20.5663 14.3339 20.9095 13.9906 20.9095 13.5678V11.2409L21.3421 11.6736C21.6414 11.9729 22.1266 11.9729 22.4254 11.6736C22.7246 11.3742 22.7246 10.889 22.4253 10.5897Z" fill="white"/>
<path d="M22.3058 17.3281H4.30124C3.87834 17.3281 3.53516 17.6708 3.53516 18.0942C3.53516 18.5171 3.87839 18.8603 4.30124 18.8603H22.3058C22.7287 18.8603 23.0719 18.5171 23.0719 18.0942C23.0719 17.6708 22.7287 17.3281 22.3058 17.3281Z" fill="white"/>
<path d="M22.3058 20.4375H4.30124C3.87834 20.4375 3.53516 20.7802 3.53516 21.2036C3.53516 21.6265 3.87839 21.9697 4.30124 21.9697H22.3058C22.7287 21.9697 23.0719 21.6264 23.0719 21.2036C23.0719 20.7802 22.7287 20.4375 22.3058 20.4375Z" fill="white"/>
<path d="M24.165 0.0625H1.83503C0.823266 0.0625 0 0.885766 0 1.89804V24.1034C0 25.1156 0.823266 25.9389 1.83503 25.9389H24.165C25.1767 25.9389 26 25.1156 26 24.1034V1.89804C26 0.885766 25.1767 0.0625 24.165 0.0625ZM24.4678 24.1034C24.4678 24.2709 24.332 24.4067 24.165 24.4067H1.83503C1.66801 24.4067 1.53217 24.2709 1.53217 24.1034V5.64524H24.4678V24.1034ZM24.4678 4.11307H1.53217V1.89804C1.53217 1.73051 1.66801 1.59467 1.83503 1.59467H24.165C24.332 1.59467 24.4678 1.73051 24.4678 1.89804V4.11307Z" fill="white"/>
<path d="M19.8742 3.68203C20.3678 3.68203 20.768 3.28189 20.768 2.78828C20.768 2.29468 20.3678 1.89453 19.8742 1.89453C19.3806 1.89453 18.9805 2.29468 18.9805 2.78828C18.9805 3.28189 19.3806 3.68203 19.8742 3.68203Z" fill="white"/>
<path d="M22.9641 3.68203C23.4577 3.68203 23.8578 3.28189 23.8578 2.78828C23.8578 2.29468 23.4577 1.89453 22.9641 1.89453C22.4705 1.89453 22.0703 2.29468 22.0703 2.78828C22.0703 3.28189 22.4705 3.68203 22.9641 3.68203Z" fill="white"/>
</g>
<defs>
<clipPath id="clip0_30_16041">
<rect width="26" height="26" fill="white"/>
</clipPath>
</defs>
</svg>
