<svg width="32" height="32" viewBox="0 0 32 32" fill="none" xmlns="http://www.w3.org/2000/svg">
<path d="M22 13C18.024 13 14 14.31 14 16.813V26.188C14 28.69 18.024 30 22 30C25.976 30 30 28.69 30 26.187V16.812C30 14.31 25.976 13 22 13ZM28 26.188C28 26.714 25.897 28 22 28C18.103 28 16 26.714 16 26.187V24.104C17.541 24.902 19.778 25.312 22 25.312C24.222 25.312 26.459 24.902 28 24.104V26.188ZM28 21.5C28 22.026 25.897 23.313 22 23.313C18.103 23.313 16 22.027 16 21.5V19.417C17.541 20.215 19.778 20.625 22 20.625C24.222 20.625 26.459 20.215 28 19.417V21.5ZM22 18.625C18.103 18.625 16 17.339 16 16.812C16 16.285 18.103 15 22 15C25.897 15 28 16.286 28 16.813C28 17.34 25.897 18.625 22 18.625Z" fill="#FF7B02"/>
<path d="M5 24H12C12.552 24 13 23.553 13 23C13 22.447 12.552 22 12 22H5C4.449 22 4 21.552 4 21V7C4 6.448 4.449 6 5 6H6V7C6 7.553 6.448 8 7 8C7.552 8 8 7.553 8 7V6H13V7C13 7.553 13.448 8 14 8C14.552 8 15 7.553 15 7V6H20V7C20 7.553 20.448 8 21 8C21.552 8 22 7.553 22 7V6H23C23.551 6 24 6.448 24 7V11C24 11.553 24.448 12 25 12C25.552 12 26 11.553 26 11V7C26 5.346 24.654 4 23 4H22V3C22 2.447 21.552 2 21 2C20.448 2 20 2.447 20 3V4H15V3C15 2.447 14.552 2 14 2C13.448 2 13 2.447 13 3V4H8V3C8 2.447 7.552 2 7 2C6.448 2 6 2.447 6 3V4H5C3.346 4 2 5.346 2 7V21C2 22.654 3.346 24 5 24Z" fill="white"/>
</svg>
