<svg width="26" height="26" viewBox="0 0 26 26" fill="none" xmlns="http://www.w3.org/2000/svg">
<g clip-path="url(#clip0_30_16207)">
<path d="M22.9531 8.9375H22.0839C21.577 4.37359 17.6969 0.8125 13 0.8125C8.30314 0.8125 4.423 4.37359 3.9161 8.9375H3.04688C1.36683 8.9375 0 10.3043 0 11.9844V16.0469C0 17.7269 1.36683 19.0938 3.04688 19.0938H4.875C5.43593 19.0938 5.89062 18.6391 5.89062 18.0781V9.95312C5.89062 6.03302 9.07989 2.84375 13 2.84375C16.9201 2.84375 20.1094 6.03302 20.1094 9.95312V18.0781C20.1094 19.7582 18.7425 21.125 17.0625 21.125H15.8722C15.4529 19.9429 14.324 19.0938 13 19.0938C11.32 19.0938 9.95312 20.4606 9.95312 22.1406C9.95312 23.8207 11.32 25.1875 13 25.1875C14.324 25.1875 15.4529 24.3383 15.8722 23.1562H17.0625C19.5149 23.1562 21.5667 21.4088 22.0385 19.0938H22.9531C24.6332 19.0938 26 17.7269 26 16.0469V11.9844C26 10.3043 24.6332 8.9375 22.9531 8.9375ZM3.85938 17.0625H3.04688C2.48686 17.0625 2.03125 16.6069 2.03125 16.0469V11.9844C2.03125 11.4244 2.48686 10.9688 3.04688 10.9688H3.85938V17.0625ZM13 23.1562C12.44 23.1562 11.9844 22.7006 11.9844 22.1406C11.9844 21.5806 12.44 21.125 13 21.125C13.56 21.125 14.0156 21.5806 14.0156 22.1406C14.0156 22.7006 13.56 23.1562 13 23.1562ZM23.9688 16.0469C23.9688 16.6069 23.5131 17.0625 22.9531 17.0625H22.1406V10.9688H22.9531C23.5131 10.9688 23.9688 11.4244 23.9688 11.9844V16.0469Z" fill="white"/>
<circle cx="13" cy="22" r="3" fill="#FF7B02"/>
</g>
<defs>
<clipPath id="clip0_30_16207">
<rect width="26" height="26" fill="white"/>
</clipPath>
</defs>
</svg>
