<svg width="25" height="25" viewBox="0 0 25 25" fill="none" xmlns="http://www.w3.org/2000/svg">
<g clip-path="url(#clip0_30_15862)">
<path d="M8.09853 4.97351L6.34765 6.72439L5.57333 5.95007C5.19194 5.56868 4.57363 5.56868 4.19228 5.95007C3.81093 6.33147 3.81088 6.94978 4.19228 7.33113L5.65712 8.79597C5.8478 8.98669 6.0977 9.08201 6.34765 9.08201C6.5976 9.08201 6.8475 8.98664 7.03818 8.79597L9.47958 6.35457C9.86098 5.97317 9.86098 5.35486 9.47958 4.97351C9.09819 4.59216 8.47988 4.59216 8.09853 4.97351Z" fill="#FF7B02"/>
<path d="M8.09853 10.8329L6.34765 12.5838L5.57333 11.8094C5.19194 11.4281 4.57363 11.4281 4.19228 11.8094C3.81093 12.1908 3.81088 12.8092 4.19228 13.1905L5.65712 14.6553C5.8478 14.8461 6.0977 14.9414 6.34765 14.9414C6.5976 14.9414 6.8475 14.846 7.03818 14.6553L9.47958 12.2139C9.86098 11.8325 9.86098 11.2142 9.47958 10.8329C9.09819 10.4515 8.47988 10.4515 8.09853 10.8329Z" fill="#FF7B02"/>
<path d="M8.09853 16.6923L6.34765 18.4431L5.57333 17.6688C5.19194 17.2874 4.57363 17.2874 4.19228 17.6688C3.81093 18.0502 3.81088 18.6685 4.19228 19.0499L5.65712 20.5147C5.8478 20.7054 6.0977 20.8008 6.34765 20.8008C6.5976 20.8008 6.8475 20.7054 7.03818 20.5147L9.47958 18.0733C9.86098 17.6919 9.86098 17.0736 9.47958 16.6923C9.09819 16.3109 8.47988 16.3109 8.09853 16.6923Z" fill="white"/>
<path d="M4.8828 24.9999H14.2578C16.9502 24.9999 19.1406 22.8095 19.1406 20.1171V19.1961C19.4254 19.0951 19.7002 18.9729 19.9629 18.831L23.2525 23.0604C23.5836 23.4861 24.1973 23.5628 24.6229 23.2317C25.0487 22.9006 25.1254 22.2871 24.7942 21.8613L21.5035 17.6303C22.4613 16.5869 23.0468 15.1966 23.0468 13.6718C23.0468 10.441 20.4183 7.81248 17.1875 7.81248C13.9566 7.81248 11.3281 10.441 11.3281 13.6718C11.3281 16.9027 13.9566 19.5312 17.1875 19.5312V20.1171C17.1875 21.7326 15.8732 23.0468 14.2578 23.0468H4.8828C3.26738 23.0468 1.95312 21.7326 1.95312 20.1171V4.8828C1.95312 3.26738 3.26738 1.95312 4.8828 1.95312H14.2578C15.8732 1.95312 17.1875 3.26738 17.1875 4.8828V4.93671C17.1875 5.47606 17.6247 5.91327 18.164 5.91327C18.7034 5.91327 19.1406 5.47606 19.1406 4.93671V4.8828C19.1406 2.19043 16.9502 0 14.2578 0H4.8828C2.19043 0 0 2.19043 0 4.8828V20.1171C0 22.8096 2.19043 24.9999 4.8828 24.9999ZM13.2812 13.6718C13.2812 11.5179 15.0336 9.7656 17.1875 9.7656C19.3414 9.7656 21.0937 11.5179 21.0937 13.6718C21.0937 15.8257 19.3414 17.5781 17.1875 17.5781C15.0336 17.5781 13.2812 15.8258 13.2812 13.6718Z" fill="white"/>
</g>
<defs>
<clipPath id="clip0_30_15862">
<rect width="25" height="25" fill="white"/>
</clipPath>
</defs>
</svg>
