<svg width="30" height="30" viewBox="0 0 30 30" fill="none" xmlns="http://www.w3.org/2000/svg">
<path d="M15.9375 16.875C15.42 16.875 15 17.295 15 17.8125V23.4375H3.75V6.5625H12.6562L15 9.68719V12.1875C15 12.705 15.42 13.125 15.9375 13.125C16.455 13.125 16.875 12.705 16.875 12.1875V9.375C16.875 9.1725 16.8094 8.97469 16.6875 8.8125L13.875 5.0625C13.6978 4.82625 13.4203 4.6875 13.125 4.6875H2.8125C2.295 4.6875 1.875 5.1075 1.875 5.625V24.375C1.875 24.8925 2.295 25.3125 2.8125 25.3125H15.9375C16.455 25.3125 16.875 24.8925 16.875 24.375V17.8125C16.875 17.295 16.455 16.875 15.9375 16.875Z" fill="white"/>
<path d="M21.5625 9.375H27.1875C27.705 9.375 28.125 8.955 28.125 8.4375V2.8125C28.125 2.295 27.705 1.875 27.1875 1.875H21.5625C21.045 1.875 20.625 2.295 20.625 2.8125V4.6875H18.75C18.2325 4.6875 17.8125 5.1075 17.8125 5.625V14.0625H6.5625C6.045 14.0625 5.625 14.4825 5.625 15C5.625 15.5175 6.045 15.9375 6.5625 15.9375H17.8125V24.375C17.8125 24.8925 18.2325 25.3125 18.75 25.3125H20.625V27.1875C20.625 27.705 21.045 28.125 21.5625 28.125H27.1875C27.705 28.125 28.125 27.705 28.125 27.1875V21.5625C28.125 21.045 27.705 20.625 27.1875 20.625H21.5625C21.045 20.625 20.625 21.045 20.625 21.5625V23.4375H19.6875V15.9375H20.625V17.8125C20.625 18.33 21.045 18.75 21.5625 18.75H27.1875C27.705 18.75 28.125 18.33 28.125 17.8125V12.1875C28.125 11.67 27.705 11.25 27.1875 11.25H21.5625C21.045 11.25 20.625 11.67 20.625 12.1875V14.0625H19.6875V6.5625H20.625V8.4375C20.625 8.955 21.045 9.375 21.5625 9.375ZM22.5 3.75H26.25V7.5H22.5V3.75ZM22.5 22.5H26.25V26.25H22.5V22.5ZM22.5 13.125H26.25V16.875H22.5V13.125Z" fill="#FF7B02"/>
<path d="M6.5625 10.3125H11.25C11.7675 10.3125 12.1875 9.8925 12.1875 9.375C12.1875 8.8575 11.7675 8.4375 11.25 8.4375H6.5625C6.045 8.4375 5.625 8.8575 5.625 9.375C5.625 9.8925 6.045 10.3125 6.5625 10.3125Z" fill="white"/>
<path d="M6.5625 13.125H12.1875C12.705 13.125 13.125 12.705 13.125 12.1875C13.125 11.67 12.705 11.25 12.1875 11.25H6.5625C6.045 11.25 5.625 11.67 5.625 12.1875C5.625 12.705 6.045 13.125 6.5625 13.125Z" fill="white"/>
<path d="M12.1875 16.875H6.5625C6.045 16.875 5.625 17.295 5.625 17.8125C5.625 18.33 6.045 18.75 6.5625 18.75H12.1875C12.705 18.75 13.125 18.33 13.125 17.8125C13.125 17.295 12.705 16.875 12.1875 16.875Z" fill="white"/>
<path d="M12.1875 19.6875H6.5625C6.045 19.6875 5.625 20.1075 5.625 20.625C5.625 21.1425 6.045 21.5625 6.5625 21.5625H12.1875C12.705 21.5625 13.125 21.1425 13.125 20.625C13.125 20.1075 12.705 19.6875 12.1875 19.6875Z" fill="white"/>
</svg>
