<svg width="25" height="25" viewBox="0 0 25 25" fill="none" xmlns="http://www.w3.org/2000/svg">
<path d="M23.2086 8.04138L20.0836 4.91638C19.9371 4.7699 19.7384 4.6875 19.5312 4.6875H16.7297L13.8336 1.79138C13.6871 1.6449 13.4884 1.5625 13.2812 1.5625H2.34375C1.91231 1.5625 1.5625 1.91231 1.5625 2.34375V20.3125C1.5625 20.7439 1.91231 21.0938 2.34375 21.0938H7.8125V22.6562C7.8125 23.0877 8.16231 23.4375 8.59375 23.4375H22.6562C23.0877 23.4375 23.4375 23.0877 23.4375 22.6562V8.59375C23.4375 8.38661 23.3551 8.18787 23.2086 8.04138ZM21.5515 8.59375H19.5312V6.57349L21.5515 8.59375ZM14.5203 4.6875H13.2812V3.44849L14.5203 4.6875ZM5.46875 12.5H7.8125V14.0625H5.46875V12.5ZM7.8125 10.9375H5.46875V9.375H7.8125V10.9375ZM5.46875 15.625H7.8125V17.1875H5.46875V15.625ZM7.8125 5.46875V7.8125H4.6875C4.25606 7.8125 3.90625 8.16231 3.90625 8.59375V17.9688C3.90625 18.4002 4.25606 18.75 4.6875 18.75H7.8125V19.5312H3.125V3.125H11.7188V4.6875H8.59375C8.16231 4.6875 7.8125 5.03731 7.8125 5.46875ZM21.875 21.875H9.375V6.25H17.9688V9.375C17.9688 9.80644 18.3186 10.1562 18.75 10.1562H21.875V21.875Z" fill="white"/>
<path d="M10.1562 11.7188V20.3125C10.1562 20.7439 10.5061 21.0938 10.9375 21.0938H20.3125C20.7439 21.0938 21.0938 20.7439 21.0938 20.3125V11.7188C21.0938 11.2873 20.7439 10.9375 20.3125 10.9375H10.9375C10.5061 10.9375 10.1562 11.2873 10.1562 11.7188ZM11.7188 19.5312V14.8438H13.2812V19.5312H11.7188ZM14.8438 19.5312V14.8438H16.4062V19.5312H14.8438ZM19.5312 19.5312H17.9688V14.8438H19.5312V19.5312ZM19.5312 12.5V13.2812H17.9688V12.5H19.5312ZM16.4062 12.5V13.2812H14.8438V12.5H16.4062ZM11.7188 12.5H13.2812V13.2812H11.7188V12.5Z" fill="#FF7B02"/>
</svg>
