<svg width="26" height="26" viewBox="0 0 26 26" fill="none" xmlns="http://www.w3.org/2000/svg">
<g clip-path="url(#clip0_30_16228)">
<path d="M18.6875 14.625V12.5938C18.6875 12.3783 18.6019 12.1716 18.4495 12.0192C18.2972 11.8669 18.0905 11.7812 17.875 11.7812C17.6595 11.7812 17.4528 11.8669 17.3005 12.0192C17.1481 12.1716 17.0625 12.3783 17.0625 12.5938V14.625H15.4375V13.8125C15.4375 13.597 15.3519 13.3903 15.1995 13.238C15.0472 13.0856 14.8405 13 14.625 13C14.4095 13 14.2028 13.0856 14.0505 13.238C13.8981 13.3903 13.8125 13.597 13.8125 13.8125V14.625H13.4062C13.1908 14.625 12.9841 14.7106 12.8317 14.863C12.6794 15.0153 12.5938 15.222 12.5938 15.4375C12.5938 15.653 12.6794 15.8597 12.8317 16.012C12.9841 16.1644 13.1908 16.25 13.4062 16.25H21.9375C22.153 16.25 22.3597 16.1644 22.512 16.012C22.6644 15.8597 22.75 15.653 22.75 15.4375C22.75 15.222 22.6644 15.0153 22.512 14.863C22.3597 14.7106 22.153 14.625 21.9375 14.625V10.5625C21.9375 10.347 21.8519 10.1403 21.6995 9.98798C21.5472 9.8356 21.3405 9.75 21.125 9.75C20.9095 9.75 20.7028 9.8356 20.5505 9.98798C20.3981 10.1403 20.3125 10.347 20.3125 10.5625V14.625H18.6875Z" fill="#FF7B02"/>
<path d="M24.375 6.5H20.3125C20.3089 6.36008 20.3228 4.97809 20.3004 4.87693C20.2031 4.07822 19.5186 3.40628 18.2605 2.87125C18.6709 0.0402918 10.9996 0.0162744 10.1562 0C9.31307 0.01625 1.64152 0.0402513 2.05197 2.87127C0.689735 3.45069 0 4.19055 0 5.07812V8.73438C0.0165651 9.06532 0.114948 9.387 0.286338 9.6706C0.457729 9.95419 0.696777 10.1909 0.982077 10.3594C0.69678 10.5279 0.457734 10.7646 0.286343 11.0482C0.114952 11.3318 0.016568 11.6534 0 11.9844L0 15.6406C0.0165651 15.9716 0.114948 16.2932 0.286338 16.5768C0.457729 16.8604 0.696777 17.0971 0.982077 17.2656C0.69678 17.4342 0.457734 17.6708 0.286343 17.9544C0.114952 18.238 0.016568 18.5597 0 18.8906L0 22.5469C0 24.9193 5.26478 26 10.1562 26C15.0477 26 20.3125 24.9193 20.3125 22.5469V19.5H24.375C24.8058 19.4995 25.2189 19.3281 25.5235 19.0235C25.8281 18.7189 25.9995 18.3058 26 17.875V8.125C25.9995 7.69417 25.8281 7.28114 25.5235 6.9765C25.2189 6.67186 24.8058 6.50049 24.375 6.5ZM16.5135 2.63839C16.5048 2.64499 16.4957 2.65072 16.4872 2.65766C15.8028 3.06869 13.6297 3.65625 10.1562 3.65625C6.68245 3.65625 4.50934 3.0686 3.82506 2.65754C3.8167 2.65063 3.80765 2.64496 3.79906 2.63839C4.45596 2.22681 6.64168 1.625 10.1562 1.625C13.6708 1.625 15.8566 2.22681 16.5135 2.63839ZM3.23249 4.15962C5.33894 5.23935 9.53723 5.28125 10.1562 5.28125C10.7753 5.28125 14.9735 5.23935 17.08 4.15965C17.6116 4.24504 18.8809 5.08428 18.686 5.07518C18.6362 5.2447 17.8572 5.99168 15.0556 6.5H10.9688C10.5786 6.50153 10.2024 6.64458 9.90976 6.90259C4.47373 6.86341 1.74337 5.5682 1.62421 5.08605C1.62532 5.08159 1.79177 4.64709 3.23249 4.15962ZM7.26807 13.676L7.28093 13.6846C3.58853 13.3398 1.72237 12.3895 1.62421 11.9925C1.62513 11.989 1.75418 11.6439 2.8138 11.2201C4.37738 11.6955 5.99115 11.9867 7.62229 12.0878C7.28997 12.2885 6.88044 12.5583 6.90625 13C6.90623 13.1338 6.93924 13.2655 7.00236 13.3834C7.06548 13.5013 7.15675 13.6019 7.26807 13.676ZM9.34375 17.4556C6.87897 17.3923 4.57564 17.0474 3.06671 16.5013C1.77953 16.0372 1.62678 15.6406 1.625 15.6406L1.62463 13.9747C3.39816 14.8863 6.382 15.3548 9.34375 15.427V17.4556ZM9.90034 19.0896C10.1943 19.3525 10.5744 19.4986 10.9688 19.5H17.8511C16.6334 20.0653 14.0848 20.7188 10.1562 20.7188C4.55206 20.7188 1.74521 19.3881 1.62421 18.8988C1.62513 18.8953 1.75418 18.5501 2.8138 18.1263C5.11593 18.7933 7.50369 19.1179 9.90034 19.0896ZM3.06671 9.59508C1.77953 9.1309 1.62678 8.73438 1.625 8.73438L1.62463 7.06846C3.39816 7.98005 6.382 8.44851 9.34375 8.52076V10.5493C6.87897 10.4861 4.57564 10.1411 3.06671 9.59508ZM10.1562 24.375C4.55206 24.375 1.74521 23.0444 1.625 22.5469L1.62463 20.881C3.56061 21.8761 6.93896 22.3438 10.1562 22.3438C13.3735 22.3438 16.7519 21.876 18.6879 20.8809L18.6883 22.5385C18.5673 23.0444 15.7604 24.375 10.1562 24.375ZM24.375 17.875H10.9688V14.625C10.9664 14.4917 10.9324 14.3608 10.8695 14.2433C10.8066 14.1257 10.7166 14.0249 10.6069 13.949L9.18347 13L10.6069 12.051C10.7166 11.9752 10.8066 11.8743 10.8695 11.7567C10.9324 11.6392 10.9664 11.5083 10.9688 11.375V8.125H24.375V17.875Z" fill="white"/>
<path d="M14.625 11.375C15.0737 11.375 15.4375 11.0112 15.4375 10.5625C15.4375 10.1138 15.0737 9.75 14.625 9.75C14.1763 9.75 13.8125 10.1138 13.8125 10.5625C13.8125 11.0112 14.1763 11.375 14.625 11.375Z" fill="white"/>
</g>
<defs>
<clipPath id="clip0_30_16228">
<rect width="26" height="26" fill="white"/>
</clipPath>
</defs>
</svg>
