<svg width="28" height="28" viewBox="0 0 28 28" fill="none" xmlns="http://www.w3.org/2000/svg">
<path d="M14.0936 25.0489C9.34336 25.0489 5.20236 22.0169 3.70178 17.643L4.9244 18.1765L5.582 16.6693L2.17676 15.1836L0 18.4495L1.36831 19.3615L2.15028 18.1883C3.87878 23.2119 8.6366 26.6933 14.0937 26.6933C20.1908 26.6933 25.4152 22.3481 26.5162 16.3612L24.8989 16.0638C23.9414 21.2701 19.3972 25.0489 14.0936 25.0489Z" fill="white"/>
<path d="M14.0932 2.953C18.7963 2.953 22.9262 5.95284 24.4522 10.279L23.0007 9.68242L22.3756 11.2034L26.0059 12.6954L27.9996 9.56045L26.612 8.67796L25.9812 9.66986C24.209 4.72896 19.4776 1.30859 14.0932 1.30859C8.05826 1.30859 2.84335 5.60154 1.69336 11.5163L3.30751 11.8302C4.30764 6.68641 8.84369 2.953 14.0932 2.953Z" fill="white"/>
<path d="M8.33203 21.7551H19.8501V8.25595L17.8861 6.32031H8.33203V21.7551ZM9.97644 7.96472H17.2119L18.2057 8.94413V20.1107H9.97644V7.96472Z" fill="#FF7B02"/>
<path d="M12.2129 9.74219H15.9753V11.3866H12.2129V9.74219Z" fill="#FF7B02"/>
<path d="M12.2129 13.2148H15.9753V14.8593H12.2129V13.2148Z" fill="#FF7B02"/>
<path d="M12.2129 16.6875H15.9753V18.3319H12.2129V16.6875Z" fill="#FF7B02"/>
</svg>
