<svg width="28" height="28" viewBox="0 0 28 28" fill="none" xmlns="http://www.w3.org/2000/svg">
<g clip-path="url(#clip0_30_15915)">
<path d="M25.5407 23.0709C25.4463 23.0709 25.3534 23.0767 25.2618 23.0871L23.147 20.5538C23.7531 20.1054 24.147 19.3858 24.147 18.5757C24.147 17.2196 23.0437 16.1163 21.6877 16.1163C21.5995 16.1163 21.5125 16.1212 21.4267 16.1303L20.1857 13.5291C20.6025 13.0882 20.8588 12.4943 20.8588 11.8412C20.8588 10.4852 19.7556 9.38192 18.3995 9.38192C18.336 9.38192 18.2732 9.38514 18.2109 9.38989L16.3004 5.38517L23.2233 10.9921C23.1256 11.2569 23.0722 11.5429 23.0722 11.8412C23.0722 13.1973 24.1755 14.3005 25.5315 14.3005C26.8876 14.3005 27.9909 13.1973 27.9909 11.8412C27.9909 10.4851 26.8876 9.38186 25.5315 9.38186C25.0709 9.38186 24.6397 9.50942 24.2707 9.73065L16.3175 3.28922C16.4091 3.03197 16.4593 2.75538 16.4593 2.46715C16.4593 1.11107 15.356 0.0078125 14 0.0078125C12.6439 0.0078125 11.5407 1.11107 11.5407 2.46715C11.5407 2.75538 11.5909 3.03197 11.6824 3.28922L3.72928 9.73059C3.36032 9.50936 2.92907 9.38181 2.46846 9.38181C1.11238 9.38181 0.00912686 10.4851 0.00912686 11.8411C0.00912686 13.1972 1.11238 14.3005 2.46846 14.3005C3.82454 14.3005 4.92779 13.1972 4.92779 11.8411C4.92779 11.5428 4.87434 11.2569 4.77663 10.9921L11.6995 5.38523L9.78902 9.38979C9.72672 9.38503 9.66398 9.38181 9.60047 9.38181C8.2444 9.38181 7.14114 10.4851 7.14114 11.8411C7.14114 12.4942 7.39751 13.0882 7.81429 13.529L6.57325 16.1303C6.48745 16.1212 6.40044 16.1163 6.31229 16.1163C4.95621 16.1163 3.85296 17.2195 3.85296 18.5756C3.85296 19.3857 4.24683 20.1054 4.85297 20.5537L2.73811 23.0871C2.64652 23.0767 2.55361 23.0708 2.45933 23.0708C1.10326 23.0708 0 24.1741 0 25.5302C0 26.8862 1.10326 27.9895 2.45933 27.9895C3.81541 27.9895 4.91867 26.8862 4.91867 25.5302C4.91867 24.8765 4.66186 24.2821 4.24443 23.8412L6.31229 21.3641L8.38015 23.8412C7.96277 24.2821 7.70591 24.8765 7.70591 25.5302C7.70591 26.8863 8.80917 27.9896 10.1652 27.9896C11.5213 27.9896 12.6246 26.8863 12.6246 25.5302C12.6246 24.1741 11.5213 23.0709 10.1652 23.0709C10.0709 23.0709 9.97801 23.0767 9.88641 23.0871L7.7716 20.5538C8.37775 20.1054 8.77162 19.3858 8.77162 18.5757C8.77162 17.8984 8.49634 17.2841 8.0518 16.8389L9.27349 14.2782C9.38055 14.2925 9.48958 14.3006 9.60053 14.3006C10.9566 14.3006 12.0599 13.1973 12.0599 11.8412C12.0599 11.1382 11.7629 10.5036 11.2883 10.055L13.7415 4.91292C13.8265 4.92183 13.9127 4.92659 14 4.92659C14.0873 4.92659 14.1735 4.92183 14.2585 4.91292L16.7117 10.055C16.2371 10.5036 15.9401 11.1382 15.9401 11.8412C15.9401 13.1973 17.0434 14.3006 18.3995 14.3006C18.5104 14.3006 18.6194 14.2925 18.7265 14.2782L19.9482 16.8389C19.5037 17.2841 19.2283 17.8984 19.2283 18.5758C19.2283 19.3859 19.6223 20.1055 20.2284 20.5539L18.1136 23.0872C18.022 23.0768 17.9291 23.071 17.8348 23.071C16.4787 23.071 15.3754 24.1743 15.3754 25.5303C15.3754 26.8864 16.4787 27.9897 17.8348 27.9897C19.1909 27.9897 20.2941 26.8864 20.2941 25.5303C20.2941 24.8766 20.0373 24.2822 19.6199 23.8413L21.6877 21.3642L23.7556 23.8413C23.3381 24.2822 23.0813 24.8766 23.0813 25.5303C23.0813 26.8864 24.1846 27.9897 25.5407 27.9897C26.8967 27.9897 28 26.8864 28 25.5303C28 24.1741 26.8967 23.0709 25.5407 23.0709ZM6.31229 17.7559C6.76431 17.7559 7.13207 18.1236 7.13207 18.5757C7.13207 19.0277 6.76431 19.3954 6.31229 19.3954C5.86026 19.3954 5.49251 19.0277 5.49251 18.5757C5.49251 18.1236 5.86026 17.7559 6.31229 17.7559ZM2.45933 26.35C2.00731 26.35 1.63956 25.9823 1.63956 25.5302C1.63956 25.0782 2.00731 24.7104 2.45933 24.7104C2.91136 24.7104 3.27911 25.0782 3.27911 25.5302C3.27911 25.9823 2.91136 26.35 2.45933 26.35ZM10.985 25.5302C10.985 25.9823 10.6173 26.35 10.1652 26.35C9.71322 26.35 9.34547 25.9823 9.34547 25.5302C9.34547 25.0782 9.71322 24.7104 10.1652 24.7104C10.6173 24.7104 10.985 25.0782 10.985 25.5302ZM9.60053 12.6609C9.1485 12.6609 8.78075 12.2932 8.78075 11.8411C8.78075 11.3891 9.1485 11.0214 9.60053 11.0214C10.0526 11.0214 10.4203 11.3891 10.4203 11.8411C10.4203 12.2932 10.0526 12.6609 9.60053 12.6609ZM26.3513 11.8411C26.3513 12.2932 25.9836 12.6609 25.5315 12.6609C25.0795 12.6609 24.7117 12.2932 24.7117 11.8411C24.7117 11.3891 25.0795 11.0214 25.5315 11.0214C25.9836 11.0214 26.3513 11.3891 26.3513 11.8411ZM14 1.64737C14.452 1.64737 14.8198 2.01512 14.8198 2.46715C14.8198 2.91917 14.452 3.28692 14 3.28692C13.548 3.28692 13.1802 2.91917 13.1802 2.46715C13.1802 2.01512 13.548 1.64737 14 1.64737ZM2.46846 12.6609C2.01643 12.6609 1.64868 12.2932 1.64868 11.8411C1.64868 11.3891 2.01643 11.0214 2.46846 11.0214C2.92049 11.0214 3.28824 11.3891 3.28824 11.8411C3.28824 12.2932 2.92049 12.6609 2.46846 12.6609ZM22.5075 18.5757C22.5075 19.0277 22.1397 19.3954 21.6877 19.3954C21.2356 19.3954 20.8679 19.0277 20.8679 18.5757C20.8679 18.1236 21.2356 17.7559 21.6877 17.7559C22.1397 17.7559 22.5075 18.1236 22.5075 18.5757ZM17.5796 11.8411C17.5796 11.3891 17.9474 11.0214 18.3995 11.0214C18.8516 11.0214 19.2193 11.3891 19.2193 11.8411C19.2193 12.2932 18.8515 12.6609 18.3995 12.6609C17.9474 12.6609 17.5796 12.2932 17.5796 11.8411ZM17.8348 26.35C17.3827 26.35 17.0149 25.9823 17.0149 25.5302C17.0149 25.0782 17.3827 24.7104 17.8348 24.7104C18.2868 24.7104 18.6545 25.0782 18.6545 25.5302C18.6545 25.9823 18.2868 26.35 17.8348 26.35ZM25.5407 26.35C25.0886 26.35 24.7208 25.9823 24.7208 25.5302C24.7208 25.0782 25.0886 24.7104 25.5407 24.7104C25.9927 24.7104 26.3604 25.0782 26.3604 25.5302C26.3604 25.9823 25.9927 26.35 25.5407 26.35Z" fill="white"/>
<circle cx="10.5" cy="25.5" r="2.5" fill="#FF7B02"/>
<circle cx="18.5" cy="11.5" r="2.5" fill="#FF7B02"/>
</g>
<defs>
<clipPath id="clip0_30_15915">
<rect width="28" height="28" fill="white"/>
</clipPath>
</defs>
</svg>
