<svg width="28" height="28" viewBox="0 0 28 28" fill="none" xmlns="http://www.w3.org/2000/svg">
<g clip-path="url(#clip0_30_15772)">
<path d="M15.1553 10.7279H2.41309C1.53344 10.7279 0.820312 10.0148 0.820312 9.13511V5.74902C0.820312 4.86938 1.53344 4.15625 2.41309 4.15625H15.1553C16.0349 4.15625 16.748 4.86938 16.748 5.74902V9.13511C16.748 10.0148 16.0349 10.7279 15.1553 10.7279Z" stroke="white" stroke-width="2" stroke-miterlimit="10" stroke-linejoin="round"/>
<path d="M15.1553 17.2982H2.41309C1.53344 17.2982 0.820312 16.5851 0.820312 15.7054V12.3193C0.820312 11.4397 1.53344 10.7266 2.41309 10.7266H15.1553C16.0349 10.7266 16.748 11.4397 16.748 12.3193V15.7054C16.748 16.5851 16.0349 17.2982 15.1553 17.2982Z" stroke="white" stroke-width="2" stroke-miterlimit="10" stroke-linejoin="round"/>
<path d="M15.1553 23.8724H2.41309C1.53344 23.8724 0.820312 23.1593 0.820312 22.2796V18.8936C0.820312 18.0139 1.53344 17.3008 2.41309 17.3008H15.1553C16.0349 17.3008 16.748 18.0139 16.748 18.8936V22.2796C16.748 23.1593 16.0349 23.8724 15.1553 23.8724Z" stroke="white" stroke-width="2" stroke-miterlimit="10" stroke-linejoin="round"/>
<path d="M16.748 9.35156C19.3077 9.35156 21.3828 11.4266 21.3828 13.9863C21.3828 16.546 19.3077 18.6211 16.748 18.6211" stroke="white" stroke-width="2" stroke-miterlimit="10" stroke-linejoin="round"/>
<path d="M16.7481 22.224C17.3752 22.224 17.9859 22.1538 18.5728 22.021C19.0548 21.9119 19.5509 22.1362 19.798 22.5641L20.5372 23.8445L23.3907 22.1971L22.653 20.9193C22.4043 20.4886 22.4586 19.9432 22.7964 19.5781C23.6165 18.6914 24.2442 17.6242 24.6129 16.4426C24.7623 15.9639 25.2003 15.6342 25.7018 15.6342H27.1797V12.3392H25.7017C25.2002 12.3392 24.7623 12.0095 24.6129 11.5308C24.2442 10.3492 23.6165 9.282 22.7963 8.39535C22.4586 8.0302 22.4043 7.48486 22.6529 7.05409L23.3906 5.77637L20.5371 4.12891L19.7979 5.4093C19.5508 5.83723 19.0547 6.06156 18.5727 5.95246C17.9858 5.81962 17.3751 5.74941 16.748 5.74941" stroke="white" stroke-width="2" stroke-miterlimit="10" stroke-linejoin="round"/>
<path d="M14 7.39844H10.7051" stroke="white" stroke-width="2" stroke-miterlimit="10" stroke-linecap="round" stroke-linejoin="round"/>
<path d="M14 13.9883H10.7051" stroke="white" stroke-width="2" stroke-miterlimit="10" stroke-linecap="round" stroke-linejoin="round"/>
<path d="M14 20.5781H10.7051" stroke="white" stroke-width="2" stroke-miterlimit="10" stroke-linecap="round" stroke-linejoin="round"/>
<path d="M4.1543 7.22266C4.16763 7.22546 4.18139 7.23029 4.19531 7.23633C4.22259 7.2482 4.24416 7.26422 4.25879 7.2793C4.27243 7.29345 4.28071 7.30759 4.28613 7.32031L4.29492 7.35352L4.28906 7.42676C4.27647 7.49089 4.24583 7.52792 4.23438 7.53906C4.2222 7.55086 4.18907 7.57805 4.11621 7.57812C4.09298 7.57812 4.06436 7.57283 4.03613 7.56055C4.00891 7.54868 3.98824 7.53263 3.97363 7.51758C3.94615 7.48919 3.93837 7.46186 3.9375 7.44336C3.93258 7.33363 3.98173 7.27277 3.99707 7.25781C4.00914 7.24607 4.04286 7.21875 4.11621 7.21875L4.1543 7.22266Z" fill="#FF7B02" stroke="white" stroke-width="2"/>
<path d="M7.44922 7.22266C7.46255 7.22546 7.47631 7.23029 7.49023 7.23633C7.51751 7.2482 7.53908 7.26422 7.55371 7.2793C7.56735 7.29345 7.57563 7.30759 7.58105 7.32031L7.58984 7.35352L7.58398 7.42676C7.57139 7.49089 7.54076 7.52792 7.5293 7.53906C7.51712 7.55086 7.48399 7.57805 7.41113 7.57812C7.3879 7.57812 7.35928 7.57283 7.33105 7.56055C7.30383 7.54868 7.28316 7.53263 7.26855 7.51758C7.24107 7.48919 7.23329 7.46186 7.23242 7.44336C7.22751 7.33363 7.27665 7.27277 7.29199 7.25781C7.30406 7.24607 7.33779 7.21875 7.41113 7.21875L7.44922 7.22266Z" fill="#FF7B02" stroke="white" stroke-width="2"/>
<path d="M4.1543 13.8125C4.16763 13.8153 4.18139 13.8201 4.19531 13.8262C4.22259 13.838 4.24416 13.8541 4.25879 13.8691C4.27243 13.8833 4.28071 13.8974 4.28613 13.9102L4.29492 13.9434L4.28906 14.0166C4.27647 14.0807 4.24583 14.1178 4.23438 14.1289C4.2222 14.1407 4.18907 14.1679 4.11621 14.168C4.09298 14.168 4.06436 14.1627 4.03613 14.1504C4.00891 14.1385 3.98824 14.1225 3.97363 14.1074C3.94615 14.079 3.93837 14.0517 3.9375 14.0332C3.93258 13.9235 3.98172 13.8626 3.99707 13.8477C4.00914 13.8359 4.04286 13.8086 4.11621 13.8086L4.1543 13.8125Z" fill="#FF7B02" stroke="white" stroke-width="2"/>
<path d="M7.44922 13.8125C7.46255 13.8153 7.47631 13.8201 7.49023 13.8262C7.51751 13.838 7.53908 13.8541 7.55371 13.8691C7.56735 13.8833 7.57563 13.8974 7.58105 13.9102L7.58984 13.9434L7.58398 14.0166C7.57139 14.0807 7.54076 14.1178 7.5293 14.1289C7.51712 14.1407 7.48399 14.1679 7.41113 14.168C7.3879 14.168 7.35928 14.1627 7.33105 14.1504C7.30383 14.1385 7.28316 14.1225 7.26855 14.1074C7.24107 14.079 7.23329 14.0517 7.23242 14.0332C7.22751 13.9235 7.27665 13.8626 7.29199 13.8477C7.30406 13.8359 7.33779 13.8086 7.41113 13.8086L7.44922 13.8125Z" fill="#FF7B02" stroke="white" stroke-width="2"/>
<path d="M4.1543 20.4023C4.16763 20.4052 4.18139 20.41 4.19531 20.416C4.22259 20.4279 4.24416 20.4439 4.25879 20.459C4.27243 20.4731 4.28071 20.4873 4.28613 20.5L4.29492 20.5332L4.28906 20.6064C4.27647 20.6706 4.24583 20.7076 4.23438 20.7188C4.2222 20.7306 4.18907 20.7577 4.11621 20.7578C4.09298 20.7578 4.06436 20.7525 4.03613 20.7402C4.00891 20.7284 3.98824 20.7123 3.97363 20.6973C3.94615 20.6689 3.93837 20.6416 3.9375 20.623C3.93258 20.5133 3.98173 20.4525 3.99707 20.4375C4.00914 20.4258 4.04286 20.3984 4.11621 20.3984L4.1543 20.4023Z" fill="#FF7B02" stroke="white" stroke-width="2"/>
<path d="M7.44922 20.4023C7.46255 20.4052 7.47631 20.41 7.49023 20.416C7.51751 20.4279 7.53908 20.4439 7.55371 20.459C7.56735 20.4731 7.57563 20.4873 7.58105 20.5L7.58984 20.5332L7.58398 20.6064C7.57139 20.6706 7.54076 20.7076 7.5293 20.7188C7.51712 20.7306 7.48399 20.7577 7.41113 20.7578C7.3879 20.7578 7.35928 20.7525 7.33105 20.7402C7.30383 20.7284 7.28316 20.7123 7.26855 20.6973C7.24107 20.6689 7.23329 20.6416 7.23242 20.623C7.22751 20.5133 7.27665 20.4525 7.29199 20.4375C7.30406 20.4258 7.33779 20.3984 7.41113 20.3984L7.44922 20.4023Z" fill="#FF7B02" stroke="white" stroke-width="2"/>
</g>
<defs>
<clipPath id="clip0_30_15772">
<rect width="28" height="28" fill="white"/>
</clipPath>
</defs>
</svg>
