<svg width="27" height="27" viewBox="0 0 27 27" fill="none" xmlns="http://www.w3.org/2000/svg">
<g clip-path="url(#clip0_30_16239)">
<path d="M5.80225 14.0032L1.70085 9.90176C0.605321 8.80622 0.00195312 7.34966 0.00195312 5.8003C0.00195312 2.60203 2.60398 0 5.80225 0C9.00058 0 11.6026 2.60203 11.6026 5.8003C11.6026 7.34966 10.9992 8.80622 9.90366 9.90176L5.80225 14.0032ZM5.80225 1.58184C3.47621 1.58184 1.5838 3.47425 1.5838 5.8003C1.5838 6.9271 2.0226 7.98646 2.81937 8.78324L5.80225 11.7661L8.78519 8.78324C9.58196 7.98646 10.0208 6.9271 10.0208 5.8003C10.0208 3.47425 8.12835 1.58184 5.80225 1.58184Z" fill="#FF7B02"/>
<path d="M5.80253 8.43708C4.34876 8.43708 3.16602 7.25434 3.16602 5.80057C3.16602 4.34681 4.34876 3.16406 5.80253 3.16406C7.25629 3.16406 8.43904 4.34681 8.43904 5.80057C8.43904 7.25434 7.25629 8.43708 5.80253 8.43708ZM5.80253 4.74591C5.22099 4.74591 4.74786 5.21903 4.74786 5.80057C4.74786 6.38211 5.22099 6.85524 5.80253 6.85524C6.38406 6.85524 6.85719 6.38211 6.85719 5.80057C6.85719 5.21903 6.38406 4.74591 5.80253 4.74591Z" fill="#FF7B02"/>
<path d="M22.781 27.0007L19.798 24.0178C19.0013 23.221 18.5625 22.1617 18.5625 21.0349C18.5625 18.7088 20.4549 16.8164 22.781 16.8164C25.107 16.8164 26.9994 18.7088 26.9994 21.0349C26.9994 22.1616 26.5607 23.221 25.7639 24.0178L22.781 27.0007ZM20.9165 22.8992L22.781 24.7636L24.6453 22.8992C25.1433 22.4012 25.4176 21.739 25.4176 21.0348C25.4176 19.581 24.2348 18.3982 22.781 18.3982C21.3271 18.3982 20.1443 19.581 20.1443 21.0348C20.1443 21.7391 20.4186 22.4013 20.9165 22.8992Z" fill="#FF7B02"/>
<path d="M18.9317 26.9968H10.1022C7.29532 26.9968 5.01172 24.7132 5.01172 21.9062C5.01172 19.0993 7.29532 16.8157 10.1022 16.8157H13.0373C13.903 16.8157 14.6073 16.1114 14.6073 15.2456C14.6073 14.3799 13.903 13.6756 13.0373 13.6756H9.96842V12.0938H13.0373C14.7753 12.0938 16.1892 13.5077 16.1892 15.2456C16.1892 16.9836 14.7753 18.3975 13.0373 18.3975H10.1022C8.16755 18.3975 6.59356 19.9715 6.59356 21.9062C6.59356 23.8409 8.16749 25.4149 10.1022 25.4149H18.9318V26.9968H18.9317Z" fill="white"/>
</g>
<defs>
<clipPath id="clip0_30_16239">
<rect width="27" height="27" fill="white"/>
</clipPath>
</defs>
</svg>
