<svg width="29" height="29" viewBox="0 0 29 29" fill="none" xmlns="http://www.w3.org/2000/svg">
<path d="M7.11498 8.78878H7.88529C7.70404 9.10597 7.52279 9.46847 7.34154 9.78566C7.11498 10.1935 7.2056 10.7825 7.65873 11.0091C8.06654 11.2357 8.65561 11.145 8.88217 10.6919C9.28998 9.92159 9.7431 9.10597 10.1509 8.33566C10.4681 7.74659 10.0603 6.97628 9.38061 6.97628C9.06342 6.97628 8.74623 6.97628 8.47436 6.97628C8.65561 6.56847 8.83685 6.11534 9.0181 5.70753C9.19935 5.25441 8.83686 4.71066 8.38373 4.57472C7.83998 4.43878 7.47748 4.75597 7.25092 5.20909C6.93373 6.02472 6.57123 6.79503 6.25404 7.61066C5.98217 8.19972 6.57123 8.78878 7.11498 8.78878Z" fill="white"/>
<path d="M25.6465 24.9648C25.3746 24.9648 25.0574 24.9648 24.7855 24.9648C24.7855 21.3852 24.7855 17.7602 24.7855 14.1805C24.7855 13.6367 24.7855 13.093 24.7855 12.5039C24.7855 12.0055 24.3777 11.5977 23.8793 11.5977C23.0184 11.5977 22.1121 11.5977 21.2512 11.5977C20.7527 11.5977 20.3449 12.0055 20.3449 12.5039V24.1945V24.9648C20.073 24.9648 19.8012 24.9648 19.5293 24.9648C19.5293 22.1102 19.5293 19.3008 19.5293 16.4461C19.5293 15.993 19.5293 15.5398 19.5293 15.132C19.5293 14.6336 19.1215 14.2258 18.623 14.2258C17.7621 14.2258 16.8559 14.2258 15.9949 14.2258C15.4965 14.2258 15.0887 14.6336 15.0887 15.132V24.557V24.9648C14.8168 24.9648 14.5449 24.9648 14.273 24.9648C14.273 23.0164 14.273 21.068 14.273 19.1195C14.273 18.8023 14.273 18.4852 14.273 18.168C14.273 17.6695 13.8652 17.2617 13.3668 17.2617C12.5059 17.2617 11.5996 17.2617 10.7387 17.2617C10.2402 17.2617 9.83242 17.6695 9.83242 18.168V24.9195V24.9648C9.56055 24.9648 9.28867 24.9648 9.0168 24.9648C9.0168 23.6961 9.0168 22.382 9.0168 21.1133C9.0168 20.8867 9.0168 20.6602 9.0168 20.4336C9.0168 19.9352 8.60898 19.5273 8.11055 19.5273C7.24961 19.5273 6.34336 19.5273 5.48242 19.5273C4.98398 19.5273 4.57617 19.9352 4.57617 20.4336V24.9648C4.3043 24.9648 4.03242 24.9648 3.76055 24.9648C2.58242 24.9648 2.58242 26.7773 3.76055 26.7773H11.1465H22.9277H25.6465C26.8246 26.7773 26.8246 24.9648 25.6465 24.9648ZM6.43398 24.9648C6.38867 24.9648 6.38867 24.9648 6.34336 24.9648C6.34336 23.7414 6.34336 22.5633 6.34336 21.3398H7.15898V24.9648C6.93242 24.9648 6.70586 24.9648 6.43398 24.9648ZM11.5996 24.9648C11.5996 23.0164 11.5996 21.068 11.5996 19.1195V19.0742H12.4152V24.9195V24.9648C12.1887 24.9648 11.9168 24.9648 11.5996 24.9648ZM16.8559 24.9648C16.8559 22.1102 16.8559 19.3008 16.8559 16.4461C16.8559 16.3102 16.8559 16.1742 16.8559 16.0383H17.6715V24.557V24.9648C17.4449 24.9648 17.1277 24.9648 16.8559 24.9648ZM22.1121 24.9648C22.1121 21.3852 22.1121 17.7602 22.1121 14.1805C22.1121 13.9086 22.1121 13.682 22.1121 13.4102H22.9277V24.1945V24.9648C22.7012 24.9648 22.384 24.9648 22.1121 24.9648Z" fill="white"/>
<path d="M6.11788 16.1742C5.30226 16.582 4.53195 17.0352 3.71632 17.443C2.71945 17.9867 3.6257 19.5727 4.66788 19.0289C6.84288 17.8508 9.01789 16.718 11.1476 15.5398C14.5913 13.682 18.0351 11.8242 21.5241 9.96641C22.0679 9.64922 22.6569 9.37734 23.2007 9.06016C23.1554 9.15078 23.1101 9.28672 23.0648 9.37734C23.0194 9.51328 22.9741 9.64922 22.8835 9.78516C22.7929 10.0117 22.8835 10.2836 22.9741 10.4648C23.0648 10.6461 23.2913 10.8273 23.5179 10.8727C24.0616 11.0086 24.4241 10.6914 24.6507 10.2383C25.0132 9.28672 25.421 8.33516 25.7835 7.33828C25.9194 6.97578 26.1007 6.61328 25.8288 6.20547C25.4663 5.61641 24.7413 5.75234 24.1523 5.75234C23.4273 5.75234 22.7023 5.70703 21.9319 5.70703C21.796 5.70703 21.6148 5.70703 21.4788 5.70703C21.0257 5.70703 20.5726 6.11484 20.5726 6.61328C20.5726 7.11172 20.9804 7.51953 21.4788 7.51953H22.0679C20.2101 8.51641 18.3069 9.51328 16.4491 10.5555C13.0507 12.4586 9.60695 14.3164 6.11788 16.1742Z" fill="white"/>
<path d="M8.11133 13.5469C11.2379 13.5469 13.7754 11.0094 13.7754 7.88281C13.7754 4.75625 11.2379 2.21875 8.11133 2.21875C4.98477 2.21875 2.44727 4.75625 2.44727 7.88281C2.44727 11.0094 4.98477 13.5469 8.11133 13.5469ZM8.11133 4.03125C10.241 4.03125 11.9629 5.75313 11.9629 7.88281C11.9629 10.0125 10.241 11.7344 8.11133 11.7344C5.98164 11.7344 4.25977 10.0125 4.25977 7.88281C4.25977 5.75313 5.98164 4.03125 8.11133 4.03125Z" fill="white"/>
</svg>
