<svg width="25" height="25" viewBox="0 0 25 25" fill="none" xmlns="http://www.w3.org/2000/svg">
<g clip-path="url(#clip0_30_16013)">
<path d="M10.2539 5.17578H2.92969V9.57031H10.2539V5.17578ZM8.78906 8.10547H4.39453V6.64062H8.78906V8.10547Z" fill="white"/>
<path d="M25 2.24609H13.1836V0.78125H0V24.2188H14.6484V22.7539H25V2.24609ZM13.1836 22.7539H1.46484V2.24609H11.7188V13.4053L13.1836 16.335V22.7539ZM23.5352 21.2891H14.6484V15.9892L13.1836 13.0595V3.71094H23.5352V21.2891Z" fill="white"/>
<path d="M16.2109 15.4297H22.0703V16.8945H16.2109V15.4297Z" fill="white"/>
<path d="M16.2109 18.3594H22.0703V19.8242H16.2109V18.3594Z" fill="white"/>
<path d="M10.2539 16.8945H11.7188V21.2891H10.2539V16.8945Z" fill="white"/>
<path d="M20.6055 7.37305C20.6055 6.16147 19.6198 5.17578 18.4082 5.17578C17.1966 5.17578 16.2109 6.16147 16.2109 7.37305C16.2109 8.58462 17.1966 9.57031 18.4082 9.57031C19.6198 9.57031 20.6055 8.58462 20.6055 7.37305ZM18.4082 8.10547C18.0043 8.10547 17.6758 7.7769 17.6758 7.37305C17.6758 6.96919 18.0043 6.64062 18.4082 6.64062C18.8121 6.64062 19.1406 6.96919 19.1406 7.37305C19.1406 7.7769 18.8121 8.10547 18.4082 8.10547Z" fill="#FF7B02"/>
<path d="M22.0703 13.2324C22.0703 11.2131 20.4275 9.57031 18.4082 9.57031C16.3889 9.57031 14.7461 11.2131 14.7461 13.2324V13.9648H22.0703V13.2324ZM16.3364 12.5C16.6387 11.6474 17.4533 11.0352 18.4082 11.0352C19.3631 11.0352 20.1777 11.6474 20.48 12.5H16.3364Z" fill="#FF7B02"/>
</g>
<defs>
<clipPath id="clip0_30_16013">
<rect width="25" height="25" fill="white"/>
</clipPath>
</defs>
</svg>
