<svg width="28" height="28" viewBox="0 0 28 28" fill="none" xmlns="http://www.w3.org/2000/svg">
<path d="M11.1945 8.25781H10.8945C10.5197 8.25781 10.2148 7.95293 10.2148 7.57816C10.2148 7.20333 10.5197 6.89845 10.8945 6.89845H13.433V5.25782H11.8674V3.82812H10.2268V5.35626C9.27192 5.6438 8.57422 6.53084 8.57422 7.57821C8.57422 8.85763 9.61509 9.89849 10.8945 9.89849H11.1945C11.5693 9.89849 11.8742 10.2034 11.8742 10.5782C11.8742 10.953 11.5693 11.2579 11.1945 11.2579H8.66106V12.8985H10.2268V14.3281H11.8674V12.7986C12.8197 12.5095 13.5149 11.6236 13.5149 10.5781C13.5149 9.29868 12.4739 8.25781 11.1945 8.25781Z" fill="#FF7B02"/>
<path d="M20.4805 16.5156C20.4256 16.5156 16.246 16.5156 16.246 16.5156C18.5896 14.8724 20.125 12.1513 20.125 9.07812C20.125 4.07247 16.0525 0 11.0469 0C6.04116 0 1.96875 4.07247 1.96875 9.07812C1.96875 12.1513 3.5041 14.8724 5.84773 16.5156H1.77734V24.7188H15.2931C16.2163 26.657 18.1944 28 20.4805 28C23.6467 28 26.2227 25.4241 26.2227 22.2578C26.2227 19.0916 23.6467 16.5156 20.4805 16.5156ZM3.60938 9.07812C3.60938 4.97711 6.9458 1.64062 11.0469 1.64062C15.1479 1.64062 18.4844 4.97711 18.4844 9.07812C18.4844 13.1791 15.1479 16.5156 11.0469 16.5156C6.9458 16.5156 3.60938 13.1791 3.60938 9.07812ZM3.41797 18.1562H16.4662C15.9849 18.6274 15.5859 19.1821 15.2931 19.7969H3.41797V18.1562ZM3.41797 23.0781V21.4375H14.7971C14.7586 21.7055 14.7383 21.9793 14.7383 22.2578C14.7383 22.5363 14.7586 22.8101 14.7971 23.0781H3.41797ZM20.4805 26.3594C18.2189 26.3594 16.3789 24.5194 16.3789 22.2578C16.3789 19.9962 18.2189 18.1562 20.4805 18.1562C22.7421 18.1562 24.582 19.9962 24.582 22.2578C24.582 24.5194 22.7421 26.3594 20.4805 26.3594Z" fill="white"/>
<path d="M19.972 22.1934L19.3807 21.6022L18.2207 22.7622L19.972 24.5135L22.7395 21.746L21.5795 20.5859L19.972 22.1934Z" fill="#FF7B02"/>
</svg>
