<svg width="25" height="25" viewBox="0 0 25 25" fill="none" xmlns="http://www.w3.org/2000/svg">
<path d="M8.14705 21.5411H6.47275C6.26555 21.5411 6.06683 21.4588 5.92032 21.3123C5.77381 21.1658 5.6915 20.9671 5.6915 20.7599C5.6915 20.5527 5.77381 20.354 5.92032 20.2075C6.06683 20.0609 6.26555 19.9786 6.47275 19.9786H8.14705C8.1767 19.9792 8.20617 19.9738 8.23374 19.9629C8.2613 19.9519 8.2864 19.9355 8.30757 19.9148C8.32874 19.894 8.34555 19.8692 8.35703 19.8418C8.36851 19.8145 8.37442 19.7851 8.37442 19.7555C8.37442 19.7258 8.36851 19.6964 8.35703 19.6691C8.34555 19.6417 8.32874 19.6169 8.30757 19.5962C8.2864 19.5754 8.2613 19.559 8.23374 19.5481C8.20617 19.5371 8.1767 19.5317 8.14705 19.5323H7.4772C7.24171 19.5339 7.00824 19.4888 6.79022 19.3998C6.57221 19.3107 6.37396 19.1795 6.20689 19.0135C6.03982 18.8475 5.90723 18.6501 5.81675 18.4327C5.72627 18.2153 5.67969 17.9821 5.67969 17.7466C5.67969 17.5111 5.72627 17.278 5.81675 17.0606C5.90723 16.8431 6.03982 16.6458 6.20689 16.4798C6.37396 16.3138 6.57221 16.1825 6.79022 16.0935C7.00824 16.0045 7.24171 15.9594 7.4772 15.961H9.1515C9.3587 15.961 9.55741 16.0433 9.70393 16.1898C9.85044 16.3363 9.93275 16.535 9.93275 16.7422C9.93275 16.9494 9.85044 17.1481 9.70393 17.2947C9.55741 17.4412 9.3587 17.5235 9.1515 17.5235H7.4772C7.44754 17.5229 7.41807 17.5283 7.39051 17.5392C7.36295 17.5502 7.33785 17.5666 7.31668 17.5873C7.29551 17.6081 7.27869 17.6329 7.26722 17.6603C7.25574 17.6876 7.24982 17.717 7.24982 17.7466C7.24982 17.7763 7.25574 17.8057 7.26722 17.833C7.27869 17.8604 7.29551 17.8852 7.31668 17.9059C7.33785 17.9267 7.36295 17.9431 7.39051 17.954C7.41807 17.965 7.44754 17.9704 7.4772 17.9698H8.14705C8.38254 17.9682 8.61601 18.0133 8.83402 18.1023C9.05204 18.1914 9.25029 18.3226 9.41736 18.4886C9.58443 18.6546 9.71702 18.852 9.8075 19.0694C9.89798 19.2868 9.94456 19.52 9.94456 19.7555C9.94456 19.991 9.89798 20.2241 9.8075 20.4416C9.71702 20.659 9.58443 20.8564 9.41736 21.0223C9.25029 21.1883 9.05204 21.3196 8.83402 21.4086C8.61601 21.4977 8.38254 21.5427 8.14705 21.5411Z" fill="white"/>
<path d="M7.8125 17.5214C7.6053 17.5214 7.40659 17.4391 7.26007 17.2926C7.11356 17.1461 7.03125 16.9474 7.03125 16.7402V16.0703C7.03125 15.8631 7.11356 15.6644 7.26007 15.5179C7.40659 15.3714 7.6053 15.2891 7.8125 15.2891C8.0197 15.2891 8.21841 15.3714 8.36493 15.5179C8.51144 15.6644 8.59375 15.8631 8.59375 16.0703V16.7402C8.59375 16.9474 8.51144 17.1461 8.36493 17.2926C8.21841 17.4391 8.0197 17.5214 7.8125 17.5214Z" fill="white"/>
<path d="M7.8125 22.2089C7.6053 22.2089 7.40659 22.1266 7.26007 21.9801C7.11356 21.8336 7.03125 21.6349 7.03125 21.4277V20.7578C7.03125 20.5506 7.11356 20.3519 7.26007 20.2054C7.40659 20.0589 7.6053 19.9766 7.8125 19.9766C8.0197 19.9766 8.21841 20.0589 8.36493 20.2054C8.51144 20.3519 8.59375 20.5506 8.59375 20.7578V21.4277C8.59375 21.6349 8.51144 21.8336 8.36493 21.9801C8.21841 22.1266 8.0197 22.2089 7.8125 22.2089Z" fill="white"/>
<path d="M7.8125 25C6.57637 25 5.368 24.6334 4.34019 23.9467C3.31238 23.2599 2.5113 22.2838 2.03826 21.1418C1.56521 19.9997 1.44144 18.7431 1.68259 17.5307C1.92375 16.3183 2.51901 15.2047 3.39309 14.3306C4.26716 13.4565 5.38081 12.8613 6.59319 12.6201C7.80557 12.3789 9.06224 12.5027 10.2043 12.9758C11.3463 13.4488 12.3224 14.2499 13.0092 15.2777C13.6959 16.3055 14.0625 17.5139 14.0625 18.75C14.0606 20.407 13.4015 21.9956 12.2298 23.1673C11.0581 24.339 9.46952 24.9981 7.8125 25ZM7.8125 14.0625C6.8854 14.0625 5.97912 14.3374 5.20827 14.8525C4.43741 15.3676 3.8366 16.0996 3.48182 16.9562C3.12703 17.8127 3.0342 18.7552 3.21507 19.6645C3.39594 20.5738 3.84238 21.409 4.49794 22.0646C5.1535 22.7201 5.98873 23.1666 6.89802 23.3474C7.8073 23.5283 8.7498 23.4355 9.60633 23.0807C10.4629 22.7259 11.1949 22.1251 11.71 21.3542C12.2251 20.5834 12.5 19.6771 12.5 18.75C12.4986 17.5072 12.0043 16.3157 11.1256 15.4369C10.2468 14.5582 9.05529 14.0639 7.8125 14.0625Z" fill="white"/>
<path d="M21.0938 25H7.03125C6.82405 25 6.62534 24.9177 6.47882 24.7712C6.33231 24.6247 6.25 24.426 6.25 24.2188C6.25 24.0115 6.33231 23.8128 6.47882 23.6663C6.62534 23.5198 6.82405 23.4375 7.03125 23.4375H21.0938C21.3009 23.4372 21.4994 23.3548 21.6459 23.2084C21.7923 23.0619 21.8747 22.8634 21.875 22.6562V2.34375C21.8747 2.13663 21.7923 1.93807 21.6459 1.79162C21.4994 1.64517 21.3009 1.56277 21.0938 1.5625H7.03125C6.82413 1.56277 6.62557 1.64517 6.47912 1.79162C6.33266 1.93807 6.25027 2.13663 6.25 2.34375V13.8125C6.25 14.0197 6.16769 14.2184 6.02118 14.3649C5.87466 14.5114 5.67595 14.5938 5.46875 14.5938C5.26155 14.5938 5.06284 14.5114 4.91632 14.3649C4.76981 14.2184 4.6875 14.0197 4.6875 13.8125V2.34375C4.68818 1.72236 4.93533 1.12661 5.37472 0.687222C5.81411 0.247832 6.40986 0.000682406 7.03125 0L21.0938 0C21.7151 0.000682406 22.3109 0.247832 22.7503 0.687222C23.1897 1.12661 23.4368 1.72236 23.4375 2.34375V22.6562C23.4368 23.2776 23.1897 23.8734 22.7503 24.3128C22.3109 24.7522 21.7151 24.9993 21.0938 25Z" fill="white"/>
<path d="M17.9341 9.375H10.1562C9.94905 9.375 9.75034 9.29269 9.60382 9.14618C9.45731 8.99966 9.375 8.80095 9.375 8.59375C9.375 8.38655 9.45731 8.18784 9.60382 8.04132C9.75034 7.89481 9.94905 7.8125 10.1562 7.8125H17.1585L17.1875 3.90055C17.1962 3.6957 17.2823 3.50179 17.4283 3.35787C17.5744 3.21396 17.7695 3.13074 17.9745 3.125C18.077 3.12575 18.1785 3.14669 18.273 3.18665C18.3675 3.2266 18.4532 3.28477 18.5252 3.35785C18.5972 3.43093 18.6542 3.51747 18.6927 3.61254C18.7313 3.70762 18.7508 3.80936 18.75 3.91195L18.7153 8.59945C18.7138 8.80566 18.6308 9.00292 18.4845 9.1482C18.3381 9.29348 18.1403 9.37501 17.9341 9.375Z" fill="#FF7B02"/>
<path d="M10.9375 9.375C10.7303 9.375 10.5316 9.29269 10.3851 9.14618C10.2386 8.99966 10.1562 8.80095 10.1562 8.59375V6.25C10.1562 6.0428 10.2386 5.84409 10.3851 5.69757C10.5316 5.55106 10.7303 5.46875 10.9375 5.46875C11.1447 5.46875 11.3434 5.55106 11.4899 5.69757C11.6364 5.84409 11.7188 6.0428 11.7188 6.25V8.59375C11.7188 8.80095 11.6364 8.99966 11.4899 9.14618C11.3434 9.29269 11.1447 9.375 10.9375 9.375Z" fill="#FF7B02"/>
<path d="M13.2812 9.375C13.074 9.375 12.8753 9.29269 12.7288 9.14618C12.5823 8.99966 12.5 8.80095 12.5 8.59375V5.46875C12.5 5.26155 12.5823 5.06284 12.7288 4.91632C12.8753 4.76981 13.074 4.6875 13.2812 4.6875C13.4885 4.6875 13.6872 4.76981 13.8337 4.91632C13.9802 5.06284 14.0625 5.26155 14.0625 5.46875V8.59375C14.0625 8.80095 13.9802 8.99966 13.8337 9.14618C13.6872 9.29269 13.4885 9.375 13.2812 9.375Z" fill="#FF7B02"/>
<path d="M15.625 9.375C15.4178 9.375 15.2191 9.29269 15.0726 9.14618C14.9261 8.99966 14.8438 8.80095 14.8438 8.59375V4.6875C14.8438 4.4803 14.9261 4.28159 15.0726 4.13507C15.2191 3.98856 15.4178 3.90625 15.625 3.90625C15.8322 3.90625 16.0309 3.98856 16.1774 4.13507C16.3239 4.28159 16.4062 4.4803 16.4062 4.6875V8.59375C16.4062 8.80095 16.3239 8.99966 16.1774 9.14618C16.0309 9.29269 15.8322 9.375 15.625 9.375Z" fill="#FF7B02"/>
<path d="M19.5312 12.5H11.7188C11.5115 12.5 11.3128 12.4177 11.1663 12.2712C11.0198 12.1247 10.9375 11.926 10.9375 11.7188C10.9375 11.5115 11.0198 11.3128 11.1663 11.1663C11.3128 11.0198 11.5115 10.9375 11.7188 10.9375H19.5312C19.7385 10.9375 19.9372 11.0198 20.0837 11.1663C20.2302 11.3128 20.3125 11.5115 20.3125 11.7188C20.3125 11.926 20.2302 12.1247 20.0837 12.2712C19.9372 12.4177 19.7385 12.5 19.5312 12.5Z" fill="white"/>
<path d="M19.5312 15.625H14.8438C14.6365 15.625 14.4378 15.5427 14.2913 15.3962C14.1448 15.2497 14.0625 15.051 14.0625 14.8438C14.0625 14.6365 14.1448 14.4378 14.2913 14.2913C14.4378 14.1448 14.6365 14.0625 14.8438 14.0625H19.5312C19.7385 14.0625 19.9372 14.1448 20.0837 14.2913C20.2302 14.4378 20.3125 14.6365 20.3125 14.8438C20.3125 15.051 20.2302 15.2497 20.0837 15.3962C19.9372 15.5427 19.7385 15.625 19.5312 15.625Z" fill="white"/>
<path d="M19.5312 18.75H16.4062C16.199 18.75 16.0003 18.6677 15.8538 18.5212C15.7073 18.3747 15.625 18.176 15.625 17.9688C15.625 17.7615 15.7073 17.5628 15.8538 17.4163C16.0003 17.2698 16.199 17.1875 16.4062 17.1875H19.5312C19.7385 17.1875 19.9372 17.2698 20.0837 17.4163C20.2302 17.5628 20.3125 17.7615 20.3125 17.9688C20.3125 18.176 20.2302 18.3747 20.0837 18.5212C19.9372 18.6677 19.7385 18.75 19.5312 18.75Z" fill="white"/>
<path d="M19.5312 21.875H16.4062C16.199 21.875 16.0003 21.7927 15.8538 21.6462C15.7073 21.4997 15.625 21.301 15.625 21.0938C15.625 20.8865 15.7073 20.6878 15.8538 20.5413C16.0003 20.3948 16.199 20.3125 16.4062 20.3125H19.5312C19.7385 20.3125 19.9372 20.3948 20.0837 20.5413C20.2302 20.6878 20.3125 20.8865 20.3125 21.0938C20.3125 21.301 20.2302 21.4997 20.0837 21.6462C19.9372 21.7927 19.7385 21.875 19.5312 21.875Z" fill="white"/>
</svg>
