<svg width="27" height="27" viewBox="0 0 27 27" fill="none" xmlns="http://www.w3.org/2000/svg">
<path d="M17.7188 9.28125H21.9375C22.4035 9.28125 22.7812 8.90346 22.7812 8.4375C22.7812 7.97154 22.4035 7.59375 21.9375 7.59375H17.7188C17.2528 7.59375 16.875 7.97154 16.875 8.4375C16.875 8.90346 17.2528 9.28125 17.7188 9.28125Z" fill="white"/>
<path d="M17.7188 11.8125H21.9375C22.4035 11.8125 22.7812 11.4347 22.7812 10.9688C22.7812 10.5028 22.4035 10.125 21.9375 10.125H17.7188C17.2528 10.125 16.875 10.5028 16.875 10.9688C16.875 11.4347 17.2528 11.8125 17.7188 11.8125Z" fill="white"/>
<path d="M5.0625 7.59375C4.59654 7.59375 4.21875 7.97154 4.21875 8.4375C4.21875 8.90346 4.59654 9.28125 5.0625 9.28125H9.28125C9.74721 9.28125 10.125 8.90346 10.125 8.4375C10.125 7.97154 9.74721 7.59375 9.28125 7.59375H5.0625Z" fill="white"/>
<path d="M3.375 6.75H5.90625C6.37221 6.75 6.75 6.37221 6.75 5.90625V3.375H10.9688V9.4513C11.5562 9.57098 12.1197 9.75534 12.6562 9.99059V2.53125C12.6562 2.06529 12.2785 1.6875 11.8125 1.6875H5.0625C4.83879 1.6875 4.62415 1.77649 4.46594 1.93469L1.93469 4.46594C1.77649 4.62415 1.6875 4.83879 1.6875 5.0625V14.0651C2.11391 13.1827 2.68312 12.3827 3.375 11.7033V6.75ZM5.0625 3.72437V5.0625H3.72437L5.0625 3.72437Z" fill="white"/>
<path d="M25.0653 4.46594L22.5341 1.93469C22.3759 1.77649 22.1612 1.6875 21.9375 1.6875H15.1875C14.7215 1.6875 14.3438 2.06529 14.3438 2.53125V10.9848C14.9835 11.4669 15.5511 12.0363 16.0312 12.6776V3.375H20.25V5.90625C20.25 6.37221 20.6278 6.75 21.0938 6.75H23.625V13.2285C24.2903 13.4628 24.8729 13.7773 25.3125 14.1813V5.0625C25.3125 4.83879 25.2235 4.62415 25.0653 4.46594ZM21.9375 5.0625V3.72437L23.2756 5.0625H21.9375Z" fill="white"/>
<path d="M14.1489 14.3806C14.5024 13.9902 14.979 13.6732 15.538 13.4248C14.1675 11.4342 11.8752 10.125 9.28125 10.125C5.09422 10.125 1.6875 13.5317 1.6875 17.7188C1.6875 21.9058 5.09422 25.3125 9.28125 25.3125C10.9526 25.3125 12.4945 24.7632 13.7502 23.8445C13.594 23.5272 13.5 23.1767 13.5 22.7812V21.8444C12.427 22.9414 10.9333 23.625 9.28125 23.625C6.02449 23.625 3.375 20.9755 3.375 17.7188C3.375 14.462 6.02449 11.8125 9.28125 11.8125C11.2996 11.8125 13.0831 12.8314 14.1489 14.3806Z" fill="white"/>
<path d="M9.28125 15.1875C9.74638 15.1875 10.125 15.5661 10.125 16.0312C10.125 16.4972 10.5028 16.875 10.9688 16.875C11.4347 16.875 11.8125 16.4972 11.8125 16.0312C11.8125 14.9327 11.105 14.0049 10.125 13.6555V13.5C10.125 13.034 9.74721 12.6562 9.28125 12.6562C8.81529 12.6562 8.4375 13.034 8.4375 13.5V13.6555C7.45749 14.0049 6.75 14.9327 6.75 16.0312C6.75 17.4271 7.88544 18.5625 9.28125 18.5625C9.74638 18.5625 10.125 18.9411 10.125 19.4062C10.125 19.8714 9.74638 20.25 9.28125 20.25C8.81612 20.25 8.4375 19.8714 8.4375 19.4062C8.4375 18.9403 8.05971 18.5625 7.59375 18.5625C7.12779 18.5625 6.75 18.9403 6.75 19.4062C6.75 20.5048 7.45749 21.4326 8.4375 21.782V21.9375C8.4375 22.4035 8.81529 22.7812 9.28125 22.7812C9.74721 22.7812 10.125 22.4035 10.125 21.9375V21.782C11.105 21.4326 11.8125 20.5048 11.8125 19.4062C11.8125 18.0104 10.6771 16.875 9.28125 16.875C8.81612 16.875 8.4375 16.4964 8.4375 16.0312C8.4375 15.5661 8.81612 15.1875 9.28125 15.1875Z" fill="white"/>
<path d="M19.8281 13.5C17.1869 13.5 14.3438 14.2923 14.3438 16.0312V22.7812C14.3438 24.5202 17.1869 25.3125 19.8281 25.3125C22.4694 25.3125 25.3125 24.5202 25.3125 22.7812V16.0312C25.3125 14.2923 22.4694 13.5 19.8281 13.5ZM19.8281 15.1875C21.9972 15.1875 23.2723 15.7326 23.5797 16.0312C23.2723 16.3299 21.9972 16.875 19.8281 16.875C17.659 16.875 16.3839 16.3299 16.0766 16.0312C16.3839 15.7326 17.659 15.1875 19.8281 15.1875ZM16.0312 17.9205C17.0799 18.3544 18.4792 18.5625 19.8281 18.5625C21.1789 18.5625 22.58 18.3537 23.6291 17.9187L23.6322 19.3403C23.4692 19.6141 22.1723 20.25 19.8281 20.25C17.4641 20.25 16.1618 19.6024 16.0312 19.4062V17.9205ZM19.8281 23.625C17.4641 23.625 16.1618 22.9774 16.0312 22.7812V21.2955C17.0799 21.7294 18.4792 21.9375 19.8281 21.9375C21.1821 21.9375 22.5865 21.7276 23.6364 21.2905L23.6394 22.7075C23.4944 22.9774 22.1921 23.625 19.8281 23.625Z" fill="#FF7B02"/>
</svg>
