<svg width="26" height="26" viewBox="0 0 26 26" fill="none" xmlns="http://www.w3.org/2000/svg">
<g clip-path="url(#clip0_30_16070)">
<path d="M15.335 6.16648C15.4951 4.78934 14.3864 3.5498 12.9991 3.55864C11.6119 3.5498 10.5029 4.78939 10.6632 6.16648H2.97266V10.3285L9.88661 16.1531V20.1044H16.1115V16.1531L23.0255 10.3285V6.16648H15.335ZM12.1737 5.90873C12.1737 5.45367 12.544 5.08344 12.999 5.08344C13.5506 5.07175 13.963 5.65159 13.7837 6.16648H12.2143C12.1897 6.09141 12.1737 6.00551 12.1737 5.90873ZM21.5006 7.69133V9.21145H4.4975V7.69133H21.5006ZM14.5866 15.4439V18.5795H11.4115V15.4439L5.82346 10.7363H20.1747L14.5866 15.4439Z" fill="white"/>
<path d="M12.9986 21.3125C11.7027 21.3125 10.6484 22.3668 10.6484 23.6626C10.7775 26.7805 15.2201 26.7796 15.3488 23.6626C15.3488 22.3668 14.2945 21.3125 12.9986 21.3125ZM12.9986 24.488C12.5435 24.488 12.1733 24.1178 12.1733 23.6627C12.2186 22.5678 13.7787 22.5681 13.8239 23.6627C13.8239 24.1178 13.4537 24.488 12.9986 24.488Z" fill="#FF7B02"/>
<path d="M7.3873 4.68815C8.68317 4.68815 9.73745 3.63387 9.73745 2.33801C9.60834 -0.779794 5.16576 -0.778879 5.03711 2.33801C5.03711 3.63382 6.09144 4.68815 7.3873 4.68815ZM7.3873 1.51266C7.84237 1.51266 8.2126 1.88289 8.2126 2.33796C8.16726 3.43285 6.60714 3.43254 6.56196 2.33796C6.56196 1.88289 6.93224 1.51266 7.3873 1.51266Z" fill="#FF7B02"/>
<path d="M18.61 4.68815C19.9058 4.68815 20.9601 3.63387 20.9601 2.33801C20.831 -0.779794 16.3884 -0.778879 16.2598 2.33801C16.2598 3.63382 17.3141 4.68815 18.61 4.68815ZM18.61 1.51266C19.065 1.51266 19.4353 1.88289 19.4353 2.33796C19.3899 3.43285 17.8298 3.43254 17.7846 2.33796C17.7847 1.88289 18.1549 1.51266 18.61 1.51266Z" fill="#FF7B02"/>
</g>
<defs>
<clipPath id="clip0_30_16070">
<rect width="26" height="26" fill="white"/>
</clipPath>
</defs>
</svg>
