<svg width="28" height="28" viewBox="0 0 28 28" fill="none" xmlns="http://www.w3.org/2000/svg">
<path d="M18.3766 8.48047C18.6266 8.14742 18.8284 7.77259 18.9697 7.36479C19.1411 6.87052 19.0613 6.31971 18.7565 5.8914C18.448 5.458 17.9467 5.19922 17.4154 5.19922H12.4921C11.8348 5.19922 11.2168 5.45521 10.752 5.92L8.43177 8.24023C8.27684 8.39516 8.07084 8.48047 7.85176 8.48047H0V19.9648H8.94545C9.16453 19.9648 9.37054 20.0502 9.52547 20.2051L10.9199 21.5996C11.7028 22.3825 12.7452 22.8025 13.815 22.8024C14.2222 22.8024 14.6336 22.7415 15.0359 22.6166L21.9063 20.7032C22.3662 20.5752 22.7652 20.3142 23.0634 19.965H28V8.48047H18.3766ZM4.375 18.3242H1.64062V10.1211H4.375V18.3242ZM21.9844 18.4912C21.9811 18.5316 21.9752 18.5664 21.9694 18.5925C21.9415 18.7175 21.8367 19.0195 21.4662 19.1227L14.5835 21.0395L14.5577 21.0472C13.68 21.3229 12.7306 21.09 12.08 20.4395L10.6856 19.045C10.2207 18.5802 9.60274 18.3242 8.9454 18.3242H6.01562V10.1211H7.8517C8.50905 10.1211 9.12702 9.8651 9.5918 9.40031L11.912 7.08009C12.067 6.92516 12.273 6.83984 12.492 6.83984L17.4153 6.83957C17.0692 7.82159 16.1379 8.48047 15.0938 8.48047H14.3981C13.7407 8.48047 13.1227 8.73646 12.6579 9.20125L9.17662 12.6825C8.80091 13.0583 8.62941 13.5957 8.71773 14.1203C8.80502 14.6387 9.13817 15.0846 9.60876 15.313C11.1786 16.0746 13.0632 15.7565 14.2955 14.5243L15.595 13.2383H16.3207L21.7391 17.8988C21.9157 18.0508 21.9728 18.2271 21.9844 18.3705V18.4912ZM21.9844 15.9457L16.9292 11.5977H14.9206L13.1385 13.3611C12.4002 14.0993 11.2763 14.2919 10.3368 13.8426L13.8181 10.3613C13.973 10.2064 14.179 10.1211 14.3981 10.1211H15.0938H18.3589H21.9844V15.9457ZM26.3594 18.3242H23.625V10.1211H26.3594V18.3242Z" fill="white"/>
<path d="M22.5 9H27V19.5H22.5" stroke="#FF7B02" stroke-width="2"/>
<path d="M5.5 9H1V19.5H5.5" stroke="#FF7B02" stroke-width="2"/>
</svg>
