<svg width="26" height="26" viewBox="0 0 26 26" fill="none" xmlns="http://www.w3.org/2000/svg">
<path d="M23.3205 17.81H18.501C18.0519 17.81 17.6885 18.1738 17.6885 18.6225V20.2194H16.9038V17.0253H19.8388C21.2432 17.0253 22.5984 16.3616 23.4633 15.2495C24.279 14.2022 24.5646 12.8842 24.2473 11.6302C24.2012 11.4521 24.1457 11.2759 24.0782 11.1013C23.3094 9.10818 21.3186 7.9053 19.2239 8.04614C18.6566 4.50534 15.62 1.75284 12.0772 1.74609H12.0645C10.1166 1.74609 8.20831 2.60422 6.82611 4.10226C5.53119 5.5047 4.81628 7.3483 4.81549 9.23831C3.3833 9.91672 2.42798 11.383 2.42798 13.0001C2.42798 13.302 2.4613 13.6051 2.52716 13.9003C2.93024 15.7109 4.64331 17.0253 6.60156 17.0253H8.85339V20.2194H8.06946V18.6225C8.06946 18.1738 7.70605 17.81 7.25696 17.81H2.4375C1.9884 17.81 1.625 18.1738 1.625 18.6225V23.4416C1.625 23.8903 1.9884 24.2541 2.4375 24.2541H7.25696C7.70605 24.2541 8.06946 23.8903 8.06946 23.4416V21.8444H9.66589C10.115 21.8444 10.4784 21.4806 10.4784 21.0319V17.0253H12.0661V23.4416C12.0661 23.8903 12.4295 24.2541 12.8786 24.2541C13.3277 24.2541 13.6911 23.8903 13.6911 23.4416V17.0253H15.2788V21.0319C15.2788 21.4806 15.6422 21.8444 16.0913 21.8444H17.6885V23.4416C17.6885 23.8903 18.0519 24.2541 18.501 24.2541H23.3205C23.7696 24.2541 24.133 23.8903 24.133 23.4416V18.6225C24.133 18.1738 23.7696 17.81 23.3205 17.81ZM6.44446 22.6291H3.25V19.435H6.44446V22.6291ZM4.11328 13.5472C4.07361 13.3671 4.05298 13.183 4.05298 13.0001C4.05298 11.8813 4.80359 10.8808 5.87793 10.5674C6.24847 10.459 6.49127 10.1056 6.46033 9.72073C6.32385 8.07193 6.89276 6.4259 8.02026 5.20398C9.0954 4.03879 10.5688 3.37109 12.0645 3.37109H12.074C15.0527 3.37665 17.5719 5.90857 17.6893 9.01456C17.6981 9.26093 17.8187 9.48944 18.017 9.63623C18.2146 9.78302 18.4669 9.83301 18.7065 9.76993C20.2974 9.35654 21.9875 10.1976 22.562 11.6853C22.6064 11.8004 22.6429 11.917 22.6722 12.0321C22.8682 12.8049 22.6937 13.5932 22.1811 14.2514C21.6209 14.971 20.7457 15.4003 19.8388 15.4003H6.60156C5.39868 15.4003 4.35211 14.6211 4.11328 13.5472ZM22.508 22.6291H19.3135V19.435H22.508V22.6291Z" fill="white"/>
<rect x="18.5" y="18.5" width="5" height="5" rx="0.5" stroke="#FF7B02"/>
<rect x="2.5" y="18.5" width="5" height="5" rx="0.5" stroke="#FF7B02"/>
</svg>
