<svg width="24" height="24" viewBox="0 0 24 24" fill="none" xmlns="http://www.w3.org/2000/svg">
<g clip-path="url(#clip0_30_15960)">
<path d="M11.9993 7.96748C13.2525 7.96748 14.2721 6.94791 14.2721 5.6947C14.2721 4.44145 13.2525 3.42188 11.9993 3.42188C10.7461 3.42188 9.72656 4.44145 9.72656 5.6947C9.72656 6.94791 10.7461 7.96748 11.9993 7.96748ZM11.9993 4.82808C12.4771 4.82808 12.8659 5.21681 12.8659 5.69466C12.8659 6.17245 12.4771 6.56119 11.9993 6.56119C11.5215 6.56119 11.1328 6.17245 11.1328 5.69466C11.1328 5.21681 11.5215 4.82808 11.9993 4.82808Z" fill="#FF7B02"/>
<path d="M8.08169 10.2951L9.03212 9.74639C9.32645 9.96272 9.64164 10.1449 9.97544 10.2917V11.3885H14.0255V10.2917C14.3593 10.1449 14.6745 9.96272 14.9688 9.74639L15.9193 10.2951L17.9443 6.78764L16.9934 6.23859C17.013 6.05789 17.0229 5.87597 17.0229 5.69428C17.0229 5.51255 17.013 5.33067 16.9934 5.14997L17.9443 4.60097L15.9193 1.09341L14.9688 1.64213C14.6745 1.4258 14.3593 1.24364 14.0255 1.09687V0H9.97544V1.09683C9.64164 1.24359 9.32645 1.42575 9.03212 1.64208L8.08169 1.09336L6.05664 4.60092L7.00759 5.14992C6.988 5.33063 6.97811 5.5125 6.97811 5.69423C6.97811 5.87592 6.988 6.05784 7.00759 6.23855L6.05664 6.78759L8.08169 10.2951ZM8.46536 6.45802C8.41164 6.2078 8.38436 5.95083 8.38436 5.69423C8.38436 5.43759 8.41159 5.18062 8.46536 4.93041L8.57289 4.42978L7.97762 4.08609L8.59642 3.0143L9.19286 3.35864L9.57273 3.0143C9.95725 2.66564 10.4017 2.40877 10.8937 2.25075L11.3818 2.094V1.40625H12.6194V2.09405L13.1075 2.2508C13.5994 2.40881 14.0439 2.66569 14.4284 3.01434L14.8083 3.35869L15.4047 3.01434L16.0235 4.08614L15.4283 4.42983L15.5358 4.93045C15.5895 5.18067 15.6168 5.43764 15.6168 5.69428C15.6168 5.95087 15.5896 6.20784 15.5358 6.45806L15.4283 6.95864L16.0235 7.30237L15.4047 8.37417L14.8083 8.02983L14.4284 8.37417C14.0438 8.72287 13.5994 8.9798 13.1075 9.13777L12.6194 9.29452V9.98227H11.3818V9.29452L10.8937 9.13777C10.4018 8.9798 9.95734 8.72287 9.57273 8.37417L9.19286 8.02983L8.59642 8.37417L7.97762 7.30237L8.57289 6.95864L8.46536 6.45802Z" fill="#FF7B02"/>
<path d="M3.43094 15.7482H11.257V17.2193H12.6626V15.7482H20.569V17.2193H21.9745V14.3427H12.6626V12.832H11.257V14.3427H2.02539V17.2193H3.43094V15.7482Z" fill="white"/>
<path d="M0 23.9994H5.45644V18.543H0V23.9994ZM1.40555 19.9485H4.05094V22.5939H1.40555V19.9485Z" fill="white"/>
<path d="M11.9607 18.543C10.4563 18.543 9.23242 19.7668 9.23242 21.2712C9.23242 22.7755 10.4563 23.9995 11.9607 23.9995C13.465 23.9995 14.689 22.7755 14.689 21.2712C14.6889 19.7668 13.465 18.543 11.9607 18.543ZM11.9607 22.5939C11.2314 22.5939 10.638 22.0005 10.638 21.2711C10.638 20.5419 11.2314 19.9485 11.9607 19.9485C12.69 19.9485 13.2834 20.5419 13.2834 21.2711C13.2834 22.0005 12.69 22.5939 11.9607 22.5939Z" fill="white"/>
<path d="M22.3697 18.543H20.1726L18.543 20.1726V22.3697L20.1726 23.9994H22.3697L23.9994 22.3697V20.1726L22.3697 18.543ZM22.5939 21.7876L21.7876 22.5939H20.7547L19.9484 21.7876V20.7547L20.7547 19.9485H21.7876L22.5939 20.7547V21.7876Z" fill="white"/>
</g>
<defs>
<clipPath id="clip0_30_15960">
<rect width="24" height="24" fill="white"/>
</clipPath>
</defs>
</svg>
