<svg width="29" height="29" viewBox="0 0 29 29" fill="none" xmlns="http://www.w3.org/2000/svg">
<path fill-rule="evenodd" clip-rule="evenodd" d="M5.72835 0.910156C4.23549 0.910156 3 2.13679 3 3.62964V25.4139C3 26.9068 4.23551 28.1405 5.72835 28.1405H23.8783C25.3712 28.1405 26.6067 26.9068 26.6067 25.4139V3.62964C26.6067 2.13679 25.3712 0.910156 23.8783 0.910156H5.72835ZM5.72835 2.71842H23.8783C24.3969 2.71842 24.7913 3.11111 24.7913 3.62964V25.4139C24.7913 25.9325 24.3969 26.3251 23.8783 26.3251H5.72835C5.20979 26.3251 4.81713 25.9325 4.81713 25.4139V3.62964C4.81713 3.11111 5.20981 2.71842 5.72835 2.71842ZM14.7874 4.52136C14.668 4.52345 14.5503 4.54906 14.4408 4.59672C14.3314 4.64438 14.2324 4.71315 14.1496 4.79911C14.0668 4.88507 14.0017 4.98652 13.9581 5.09765C13.9146 5.20879 13.8933 5.32742 13.8957 5.44677V6.3509H12.9915C11.4987 6.3509 10.2632 7.58462 10.2632 9.07748C10.2632 10.5703 11.4987 11.7987 12.9915 11.7987H13.8957V13.6141H12.9915C12.473 13.6141 12.0803 13.2285 12.0803 12.71C12.0803 12.469 11.9846 12.2379 11.8142 12.0675C11.6438 11.8971 11.4127 11.8014 11.1718 11.8014C10.9308 11.8014 10.6997 11.8971 10.5293 12.0675C10.3589 12.2379 10.2632 12.469 10.2632 12.71C10.2632 14.2028 11.4987 15.4294 12.9915 15.4294H13.8957V16.3336C13.893 16.4545 13.9145 16.5747 13.9589 16.6872C14.0033 16.7996 14.0697 16.9021 14.1543 16.9885C14.2388 17.075 14.3398 17.1437 14.4513 17.1906C14.5627 17.2375 14.6824 17.2616 14.8033 17.2616C14.9243 17.2616 15.044 17.2375 15.1554 17.1906C15.2669 17.1437 15.3679 17.075 15.4524 16.9885C15.537 16.9021 15.6034 16.7996 15.6478 16.6872C15.6922 16.5747 15.7137 16.4545 15.711 16.3336V15.4294H16.6152C18.108 15.4294 19.3435 14.2028 19.3435 12.71C19.3435 11.2171 18.108 9.98161 16.6152 9.98161H15.711V8.16626H16.6152C17.1337 8.16626 17.5282 8.55891 17.5282 9.07748C17.5255 9.19837 17.547 9.31858 17.5914 9.43105C17.6358 9.54352 17.7022 9.64599 17.7868 9.73243C17.8713 9.81888 17.9723 9.88757 18.0837 9.93446C18.1952 9.98135 18.3149 10.0055 18.4358 10.0055C18.5568 10.0055 18.6765 9.98135 18.7879 9.93446C18.8994 9.88757 19.0003 9.81888 19.0849 9.73243C19.1694 9.64599 19.2359 9.54352 19.2803 9.43105C19.3247 9.31858 19.3462 9.19837 19.3435 9.07748C19.3435 7.58462 18.108 6.3509 16.6152 6.3509H15.711V5.44677C15.7134 5.32474 15.6912 5.20348 15.6456 5.09024C15.6001 4.977 15.5322 4.87411 15.4459 4.78772C15.3597 4.70133 15.257 4.63321 15.1438 4.58745C15.0306 4.54168 14.9094 4.51921 14.7874 4.52136ZM12.9915 8.16626H13.8957V9.98161H12.9915C12.473 9.98161 12.0803 9.59605 12.0803 9.07748C12.0803 8.55891 12.473 8.16626 12.9915 8.16626ZM15.711 11.7987H16.6152C17.1337 11.7987 17.5282 12.1914 17.5282 12.71C17.5282 13.2285 17.1337 13.6141 16.6152 13.6141H15.711V11.7987ZM9.26865 19.0602C9.26746 19.0607 9.26628 19.0613 9.2651 19.0619C9.02813 19.0795 8.80746 19.1891 8.65032 19.3673C8.49318 19.5456 8.41207 19.7783 8.42435 20.0156C8.43663 20.2528 8.54133 20.4759 8.71603 20.637C8.89073 20.798 9.12155 20.8843 9.35906 20.8773H20.2476C20.3686 20.88 20.4888 20.8585 20.6013 20.8141C20.7138 20.7697 20.8163 20.7033 20.9028 20.6188C20.9892 20.5342 21.0579 20.4332 21.1049 20.3217C21.1518 20.2103 21.1759 20.0905 21.1759 19.9696C21.1759 19.8487 21.1518 19.7289 21.1049 19.6175C21.0579 19.506 20.9892 19.405 20.9028 19.3205C20.8163 19.2359 20.7138 19.1695 20.6013 19.1251C20.4888 19.0807 20.3686 19.0592 20.2476 19.0619H9.35906C9.32897 19.0598 9.29879 19.0592 9.26865 19.0602ZM20.2494 22.6909C20.1302 22.6909 20.0122 22.7143 19.9021 22.76C19.7919 22.8056 19.6919 22.8724 19.6076 22.9567C19.5233 23.041 19.4564 23.1411 19.4108 23.2512C19.3652 23.3613 19.3417 23.4793 19.3417 23.5985C19.3417 23.7177 19.3652 23.8358 19.4108 23.9459C19.4564 24.056 19.5233 24.1561 19.6076 24.2404C19.6919 24.3247 19.7919 24.3915 19.9021 24.4371C20.0122 24.4827 20.1302 24.5062 20.2494 24.5062C20.3686 24.5062 20.4866 24.4827 20.5968 24.4371C20.7069 24.3915 20.807 24.3247 20.8912 24.2404C20.9755 24.1561 21.0424 24.056 21.088 23.9459C21.1336 23.8358 21.1571 23.7177 21.1571 23.5985C21.1571 23.4793 21.1336 23.3613 21.088 23.2512C21.0424 23.1411 20.9755 23.041 20.8912 22.9567C20.807 22.8724 20.7069 22.8056 20.5968 22.76C20.4866 22.7143 20.3686 22.6909 20.2494 22.6909ZM9.2651 22.6926C9.02799 22.71 8.80711 22.8195 8.64981 22.9978C8.49251 23.1761 8.4113 23.4089 8.42359 23.6463C8.43587 23.8837 8.54068 24.1069 8.71555 24.268C8.89042 24.429 9.12142 24.5152 9.35906 24.508H16.6152C16.8525 24.5029 17.0784 24.405 17.2444 24.2353C17.4105 24.0657 17.5034 23.8377 17.5034 23.6003C17.5034 23.3629 17.4105 23.135 17.2444 22.9653C17.0784 22.7956 16.8525 22.6978 16.6152 22.6926H9.35906C9.32776 22.691 9.2964 22.691 9.2651 22.6926Z" fill="white"/>
<path fill-rule="evenodd" clip-rule="evenodd" d="M14.7874 4.61121C14.668 4.6133 14.5503 4.6389 14.4408 4.68656C14.3314 4.73422 14.2324 4.803 14.1496 4.88895C14.0668 4.97491 14.0017 5.07636 13.9581 5.1875C13.9146 5.29863 13.8933 5.41727 13.8957 5.53661V6.44074H12.9915C11.4987 6.44074 10.2632 7.67447 10.2632 9.16732C10.2632 10.6602 11.4987 11.8886 12.9915 11.8886H13.8957V13.7039H12.9915C12.473 13.7039 12.0803 13.3184 12.0803 12.7998C12.0803 12.5588 11.9846 12.3277 11.8142 12.1574C11.6438 11.987 11.4127 11.8912 11.1718 11.8912C10.9308 11.8912 10.6997 11.987 10.5293 12.1574C10.3589 12.3277 10.2632 12.5588 10.2632 12.7998C10.2632 14.2927 11.4987 15.5193 12.9915 15.5193H13.8957V16.4234C13.893 16.5443 13.9145 16.6645 13.9589 16.777C14.0033 16.8895 14.0697 16.9919 14.1543 17.0784C14.2388 17.1648 14.3398 17.2335 14.4513 17.2804C14.5627 17.3273 14.6824 17.3515 14.8033 17.3515C14.9243 17.3515 15.044 17.3273 15.1554 17.2804C15.2669 17.2335 15.3679 17.1648 15.4524 17.0784C15.537 16.9919 15.6034 16.8895 15.6478 16.777C15.6922 16.6645 15.7137 16.5443 15.711 16.4234V15.5193H16.6152C18.108 15.5193 19.3435 14.2927 19.3435 12.7998C19.3435 11.3069 18.108 10.0715 16.6152 10.0715H15.711V8.2561H16.6152C17.1337 8.2561 17.5282 8.64875 17.5282 9.16732C17.5255 9.28821 17.547 9.40842 17.5914 9.52089C17.6358 9.63336 17.7022 9.73583 17.7868 9.82228C17.8713 9.90872 17.9723 9.97741 18.0837 10.0243C18.1952 10.0712 18.3149 10.0954 18.4358 10.0954C18.5568 10.0954 18.6765 10.0712 18.7879 10.0243C18.8994 9.97741 19.0003 9.90872 19.0849 9.82228C19.1694 9.73583 19.2359 9.63336 19.2803 9.52089C19.3247 9.40842 19.3462 9.28821 19.3435 9.16732C19.3435 7.67447 18.108 6.44074 16.6152 6.44074H15.711V5.53661C15.7134 5.41458 15.6912 5.29332 15.6456 5.18008C15.6001 5.06684 15.5322 4.96395 15.4459 4.87756C15.3597 4.79117 15.257 4.72306 15.1438 4.67729C15.0306 4.63153 14.9094 4.60905 14.7874 4.61121ZM12.9915 8.2561H13.8957V10.0715H12.9915C12.473 10.0715 12.0803 9.68589 12.0803 9.16732C12.0803 8.64875 12.473 8.2561 12.9915 8.2561ZM15.711 11.8886H16.6152C17.1337 11.8886 17.5282 12.2812 17.5282 12.7998C17.5282 13.3184 17.1337 13.7039 16.6152 13.7039H15.711V11.8886Z" fill="#FF7B02"/>
</svg>
