<svg width="28" height="28" viewBox="0 0 28 28" fill="none" xmlns="http://www.w3.org/2000/svg">
<g clip-path="url(#clip0_30_16218)">
<path d="M26.1625 18.3736C26.3967 19.2177 26.2873 20.1023 25.8546 20.8644C24.9621 22.4362 22.9533 22.9921 21.3765 22.1036C20.8499 21.807 20.6635 21.1395 20.9603 20.6129C21.2569 20.0863 21.9243 19.8999 22.451 20.1967C23.2909 20.674 24.3148 19.8918 24.0534 18.9588C23.9754 18.6778 23.7918 18.4438 23.5364 18.2999L23.4655 18.2596C22.346 17.6238 21.7348 16.3938 21.9084 15.1259C22.015 14.3497 22.0123 13.5459 21.8997 12.7704C21.6295 11.1705 22.8201 9.95315 23.533 9.57607C23.7917 9.43024 23.9753 9.19625 24.0533 8.91521C24.1308 8.63581 24.0946 8.34289 23.9512 8.09035C23.6527 7.5647 22.9797 7.37931 22.4509 7.67732C22.4509 7.67732 21.576 8.13818 20.8646 8.13818C20.1488 8.13818 19.4334 7.91245 18.8417 7.43868C18.1957 6.92157 17.4802 6.50455 16.715 6.1992C15.5127 5.71947 14.7359 4.57696 14.7359 3.2885V3.26645C14.6757 1.81471 12.6072 1.81477 12.5471 3.26645C12.5471 4.56202 11.7644 5.70688 10.553 6.18306C9.77938 6.4872 9.05591 6.90527 8.4026 7.42571C7.23705 8.39153 5.63702 8.2109 4.82885 7.6754C4.30321 7.37931 3.63031 7.56459 3.33181 8.09024C3.02378 8.61238 3.2396 9.29995 3.76722 9.58576C4.88691 10.2217 5.515 11.4963 5.33042 12.7575C5.27171 13.1588 5.24189 13.5695 5.24189 13.978C5.24189 14.3697 5.26925 14.7634 5.32309 15.1483C5.50082 16.418 4.88987 17.6505 3.76678 18.2883L3.74998 18.2978C3.49121 18.4437 3.30767 18.6776 3.2297 18.9587C3.15216 19.2381 3.18844 19.531 3.33181 19.7835C3.63031 20.3092 4.30332 20.4945 4.83208 20.1966C5.35866 19.8999 6.02609 20.0863 6.32278 20.6128C6.61948 21.1394 6.43315 21.8068 5.90658 22.1035C5.39724 22.3905 4.8427 22.5267 4.29544 22.5268C3.14838 22.5269 2.03263 21.9284 1.42846 20.8643C0.995728 20.1022 0.886341 19.2176 1.12055 18.3735C1.35519 17.5278 1.90622 16.8243 2.6722 16.3927C3.00485 16.2038 3.2071 15.8211 3.15544 15.4516C3.01618 14.4588 3.01919 13.4325 3.16469 12.4405C3.21963 12.0651 3.01021 11.6729 2.66925 11.4793C1.11562 10.6459 0.524693 8.52554 1.42846 7.0094C2.3209 5.43766 4.32969 4.88175 5.90652 5.77019C6.15167 5.92763 6.65373 6.0427 7.03869 5.71361C7.86262 5.05724 8.77558 4.52979 9.75212 4.14587C10.1203 4.00108 10.3583 3.65584 10.3583 3.26629C10.5388 -1.0898 16.7452 -1.08772 16.9247 3.26629C16.9247 3.65371 17.1608 4.02023 17.5262 4.166C18.4922 4.55146 19.3949 5.0776 20.2096 5.72976C20.6045 6.05934 21.1227 5.95685 21.3732 5.77195C22.9533 4.8817 24.9621 5.43766 25.8546 7.00934C26.7586 8.52757 26.1677 10.6458 24.6109 11.4809L24.5359 11.5235C24.2015 11.7134 24.0127 12.0884 24.0661 12.4567C24.1385 12.9574 24.1753 13.4692 24.1753 13.9779C24.1753 14.4611 24.1422 14.9473 24.0771 15.4229C24.0264 15.7928 24.215 16.1679 24.5465 16.3561L24.6141 16.3945C25.3767 16.8245 25.9278 17.5279 26.1625 18.3736ZM18.621 13.937C18.621 16.6525 16.4117 18.8618 13.6962 18.8618C7.16269 18.5913 7.1646 9.28167 13.6962 9.01212C16.4117 9.01212 18.621 11.2214 18.621 13.937ZM16.4322 13.937C16.4322 12.4283 15.2048 11.2009 13.6962 11.2009C10.0664 11.3513 10.0675 16.5232 13.6962 16.673C15.2048 16.673 16.4322 15.4456 16.4322 13.937ZM20.9193 26.9058C20.9193 23.2247 17.9345 20.2298 14.2656 20.2298H13.2362C9.56733 20.2298 6.58254 23.2247 6.58254 26.9058C6.58254 27.5102 7.07251 28.0002 7.67695 28.0002C8.2814 28.0002 8.77137 27.5102 8.77137 26.9058C8.77137 24.4316 10.7743 22.4187 13.2362 22.4187H14.2656C16.7276 22.4187 18.7305 24.4316 18.7305 26.9058C18.7305 27.5102 19.2204 28.0002 19.8249 28.0002C20.4293 28.0002 20.9193 27.5102 20.9193 26.9058Z" fill="white"/>
<path d="M26.1625 18.3736C26.3967 19.2177 26.2873 20.1023 25.8546 20.8644C24.9621 22.4362 22.9533 22.9921 21.3765 22.1036C20.8499 21.807 20.6635 21.1395 20.9603 20.6129C21.2569 20.0863 21.9243 19.8999 22.451 20.1967C23.2909 20.674 24.3148 19.8918 24.0534 18.9588C23.9754 18.6778 23.7918 18.4438 23.5364 18.2999L23.4655 18.2596C22.346 17.6238 21.7348 16.3938 21.9084 15.1259C22.015 14.3497 22.0123 13.5459 21.8997 12.7704C21.6295 11.1705 22.8201 9.95315 23.533 9.57607C23.7917 9.43024 23.9753 9.19625 24.0533 8.91521C24.1308 8.63581 24.0946 8.34289 23.9512 8.09035C23.6527 7.5647 22.9797 7.37931 22.4509 7.67732C22.4509 7.67732 21.576 8.13818 20.8646 8.13818C20.1488 8.13818 19.4334 7.91245 18.8417 7.43868C18.1957 6.92157 17.4802 6.50455 16.715 6.1992C15.5127 5.71947 14.7359 4.57696 14.7359 3.2885V3.26645C14.6757 1.81471 12.6072 1.81477 12.5471 3.26645C12.5471 4.56202 11.7644 5.70688 10.553 6.18306C9.77938 6.4872 9.05591 6.90527 8.4026 7.42571C7.23705 8.39153 5.63702 8.2109 4.82885 7.6754C4.30321 7.37931 3.63031 7.56459 3.33181 8.09024C3.02378 8.61238 3.2396 9.29995 3.76722 9.58576C4.88691 10.2217 5.515 11.4963 5.33042 12.7575C5.27171 13.1588 5.24189 13.5695 5.24189 13.978C5.24189 14.3697 5.26925 14.7634 5.32309 15.1483C5.50082 16.418 4.88987 17.6505 3.76678 18.2883L3.74998 18.2978C3.49121 18.4437 3.30767 18.6776 3.2297 18.9587C3.15216 19.2381 3.18844 19.531 3.33181 19.7835C3.63031 20.3092 4.30332 20.4945 4.83208 20.1966C5.35866 19.8999 6.02609 20.0863 6.32278 20.6128C6.61948 21.1394 6.43315 21.8068 5.90658 22.1035C5.39724 22.3905 4.8427 22.5267 4.29544 22.5268C3.14838 22.5269 2.03263 21.9284 1.42846 20.8643C0.995728 20.1022 0.886341 19.2176 1.12055 18.3735C1.35519 17.5278 1.90622 16.8243 2.6722 16.3927C3.00485 16.2038 3.2071 15.8211 3.15544 15.4516C3.01618 14.4588 3.01919 13.4325 3.16469 12.4405C3.21963 12.0651 3.01021 11.6729 2.66925 11.4793C1.11562 10.6459 0.524693 8.52554 1.42846 7.0094C2.3209 5.43766 4.32969 4.88175 5.90652 5.77019C6.15167 5.92763 6.65373 6.0427 7.03869 5.71361C7.86262 5.05724 8.77558 4.52979 9.75212 4.14587C10.1203 4.00108 10.3583 3.65584 10.3583 3.26629C10.5388 -1.0898 16.7452 -1.08772 16.9247 3.26629C16.9247 3.65371 17.1608 4.02023 17.5262 4.166C18.4922 4.55146 19.3949 5.0776 20.2096 5.72976C20.6045 6.05934 21.1227 5.95685 21.3732 5.77195C22.9533 4.8817 24.9621 5.43766 25.8546 7.00934C26.7586 8.52757 26.1677 10.6458 24.6109 11.4809L24.5359 11.5235C24.2015 11.7134 24.0127 12.0884 24.0661 12.4567C24.1385 12.9574 24.1753 13.4692 24.1753 13.9779C24.1753 14.4611 24.1422 14.9473 24.0771 15.4229C24.0264 15.7928 24.215 16.1679 24.5465 16.3561L24.6141 16.3945C25.3767 16.8245 25.9278 17.5279 26.1625 18.3736Z" fill="#FF7B02"/>
</g>
<defs>
<clipPath id="clip0_30_16218">
<rect width="28" height="28" fill="white"/>
</clipPath>
</defs>
</svg>
