<svg width="27" height="27" viewBox="0 0 27 27" fill="none" xmlns="http://www.w3.org/2000/svg">
<path d="M19.8281 27H7.17188C4.2641 27 1.89844 24.6343 1.89844 21.7266V5.27344C1.89844 2.36566 4.2641 0 7.17188 0H18.0807C19.4893 0 20.8135 0.548543 21.8096 1.54459L23.557 3.29205C24.5531 4.2881 25.1016 5.61236 25.1016 7.02095V7.38281C25.1016 7.96532 24.6294 8.4375 24.0469 8.4375H19.8282C18.0835 8.4375 16.6641 7.0181 16.6641 5.27344V2.10938H7.17188C5.42721 2.10938 4.00781 3.52877 4.00781 5.27344V21.7266C4.00781 23.4712 5.42721 24.8906 7.17188 24.8906H19.8281C21.5728 24.8906 22.9922 23.4712 22.9922 21.7266V11.6016C22.9922 11.0191 23.4644 10.5469 24.0469 10.5469C24.6294 10.5469 25.1016 11.0191 25.1016 11.6016V21.7266C25.1016 24.6343 22.7359 27 19.8281 27ZM18.7734 2.185V5.27344C18.7734 5.85499 19.2466 6.32812 19.8281 6.32812H22.9166C22.7875 5.74752 22.4962 5.21438 22.0654 4.78359L20.318 3.03613C19.8872 2.60534 19.354 2.31404 18.7734 2.185Z" fill="white"/>
<path d="M19.8281 18.5625H18.7734V11.6016C18.7734 11.0191 18.3013 10.5469 17.7188 10.5469C17.1362 10.5469 16.6641 11.0191 16.6641 11.6016V18.5625H14.5547V13.7109C14.5547 13.1284 14.0825 12.6562 13.5 12.6562C12.9175 12.6562 12.4453 13.1284 12.4453 13.7109V18.5625H10.3359V15.8203C10.3359 15.2378 9.86375 14.7656 9.28125 14.7656C8.69875 14.7656 8.22656 15.2378 8.22656 15.8203V18.5625H7.17188C6.58937 18.5625 6.11719 19.0347 6.11719 19.6172C6.11719 20.1997 6.58937 20.6719 7.17188 20.6719H19.8281C20.4106 20.6719 20.8828 20.1997 20.8828 19.6172C20.8828 19.0347 20.4106 18.5625 19.8281 18.5625Z" fill="#FF7B02"/>
<path d="M11.3906 8.4375H7.17188C6.58937 8.4375 6.11719 7.96532 6.11719 7.38281C6.11719 6.80031 6.58937 6.32812 7.17188 6.32812H11.3906C11.9731 6.32812 12.4453 6.80031 12.4453 7.38281C12.4453 7.96532 11.9731 8.4375 11.3906 8.4375Z" fill="white"/>
</svg>
