<svg width="24" height="24" viewBox="0 0 24 24" fill="none" xmlns="http://www.w3.org/2000/svg">
<path d="M21.3516 0.9375H12.007L11.2951 0.210984C11.1629 0.0760313 10.9819 0 10.793 0H2.64844C2.26013 0 1.94531 0.314812 1.94531 0.703125V15.1594C1.94531 15.5477 2.26013 15.8625 2.64844 15.8625H4.5375V17.9161C4.5375 18.2301 4.74572 18.5061 5.04769 18.5922L6.17034 18.9126L5.53364 20.1287C5.39077 20.4016 5.44219 20.7358 5.66053 20.9531L7.61475 22.8984C7.83853 23.1212 8.18339 23.1675 8.45798 23.0115L9.59691 22.3648L9.94964 23.5047C10.0408 23.7991 10.3131 24 10.6214 24H13.3785C13.6868 24 13.9591 23.7991 14.0503 23.5047L14.403 22.3648L15.5419 23.0115C15.8166 23.1675 16.1614 23.1212 16.3852 22.8984L18.3394 20.9531C18.5577 20.7358 18.6091 20.4016 18.4663 20.1287L17.8296 18.9126L18.9522 18.5922C19.2541 18.5061 19.4624 18.2301 19.4624 17.9161V15.8625H21.3515C21.7398 15.8625 22.0546 15.5477 22.0546 15.1594V4.45312V1.64062C22.0547 1.25231 21.7399 0.9375 21.3516 0.9375ZM20.6484 2.34375V3.75H14.7625L13.3847 2.34375H20.6484ZM10.4976 1.40625L13.9648 4.94517C14.0955 5.07797 14.2763 5.15691 14.467 5.15625H20.6484V14.4562H18.8702L17.8199 14.1165L18.475 12.998C18.6364 12.7225 18.5918 12.3729 18.3667 12.1466L16.4213 10.1924C16.2011 9.97111 15.8612 9.92161 15.5869 10.0709L14.3985 10.7176L14.0515 9.57436C13.9615 9.27806 13.6883 9.07542 13.3786 9.07542H10.6215C10.3118 9.07542 10.0386 9.27802 9.94861 9.57436L9.60164 10.7176L8.41317 10.0709C8.13886 9.92152 7.79906 9.97116 7.57875 10.1924L5.63344 12.1466C5.4082 12.3729 5.36367 12.7225 5.52506 12.998L6.18019 14.1165L5.12986 14.4562H3.35156V1.40625H10.4976ZM18.0563 17.3856L16.6132 17.7973C16.1943 17.9057 15.9731 18.4214 16.1832 18.7995L16.9802 20.322L15.7718 21.5249L14.3371 20.7101C13.9635 20.4855 13.4366 20.6941 13.3182 21.1137L12.8602 22.5938H11.1398L10.6818 21.1137C10.5634 20.6942 10.0365 20.4855 9.66291 20.7102L8.22816 21.525L7.01972 20.322L7.81678 18.7996C8.02688 18.4214 7.80558 17.9057 7.3868 17.7974L5.9437 17.3856V15.671L7.44539 15.1853C7.86356 15.0616 8.06545 14.5316 7.83572 14.161L7.01217 12.7548L8.20359 11.5579L9.68756 12.3655C10.0622 12.5816 10.5811 12.3688 10.6965 11.9521L11.1427 10.4818H12.8571L13.3034 11.9521C13.4187 12.3689 13.9376 12.5815 14.3123 12.3655L15.7962 11.5579L16.9877 12.7548L16.1641 14.161C15.9344 14.5317 16.1363 15.0616 16.5545 15.1853L18.0562 15.671V17.3856H18.0563Z" fill="white"/>
<path d="M12 13.5C10.32 13.5 8.95312 14.8668 8.95312 16.5469C8.95312 18.2269 10.32 19.5938 12 19.5938C13.68 19.5938 15.0469 18.2269 15.0469 16.5469C15.0469 14.8668 13.68 13.5 12 13.5ZM12 18.1875C11.0954 18.1875 10.3594 17.4515 10.3594 16.5469C10.3594 15.6422 11.0954 14.9062 12 14.9062C12.9046 14.9062 13.6406 15.6422 13.6406 16.5469C13.6406 17.4515 12.9046 18.1875 12 18.1875Z" fill="#FF7B02"/>
</svg>
