<svg width="24" height="24" viewBox="0 0 24 24" fill="none" xmlns="http://www.w3.org/2000/svg">
<g clip-path="url(#clip0_30_15901)">
<path d="M11.8288 20.1787C11.4784 20.0335 11.25 19.6917 11.25 19.3125V11.8125C11.25 10.2617 12.5117 9 14.0625 9H21.1875C22.7383 9 24 10.2617 24 11.8125V15.5625C24 17.1133 22.7383 18.375 21.1875 18.375H16.7141C15.2546 18.375 13.8825 18.9434 12.8504 19.9754C12.5823 20.2435 12.1791 20.3238 11.8288 20.1787ZM14.0625 10.875C13.5456 10.875 13.125 11.2956 13.125 11.8125V17.4337C14.2089 16.8242 15.4366 16.5 16.7141 16.5H21.1875C21.7044 16.5 22.125 16.0794 22.125 15.5625V11.8125C22.125 11.2956 21.7044 10.875 21.1875 10.875H14.0625Z" fill="#FF7B02"/>
<path d="M14.0625 0H10.3125C6.69394 0 3.75 2.94394 3.75 6.5625V9.09427C1.61297 9.52978 0 11.4238 0 13.6875V15.5625C0 17.8262 1.61297 19.7202 3.75 20.1557V20.25C3.75 22.3177 5.43225 24 7.5 24H12.1875C12.7053 24 13.125 23.5803 13.125 23.0625C13.125 22.5447 12.7053 22.125 12.1875 22.125H7.5C6.46613 22.125 5.625 21.2839 5.625 20.25V20.0887C6.71616 19.7017 7.5 18.6597 7.5 17.4375V11.8125C7.5 10.5903 6.71616 9.5483 5.625 9.16125V6.5625C5.625 3.97781 7.72777 1.875 10.3125 1.875H14.0625C16.6472 1.875 18.75 3.97781 18.75 6.5625C18.75 7.08028 19.1697 7.5 19.6875 7.5C20.2053 7.5 20.625 7.08028 20.625 6.5625C20.625 2.94394 17.6811 0 14.0625 0ZM5.625 17.4375C5.625 17.9544 5.20444 18.375 4.6875 18.375C3.13669 18.375 1.875 17.1133 1.875 15.5625V13.6875C1.875 12.1369 3.13627 10.8754 4.68675 10.875C4.68698 10.875 4.68727 10.875 4.6875 10.875C4.68769 10.875 4.68788 10.875 4.68806 10.875C5.20477 10.8753 5.625 11.2957 5.625 11.8125V17.4375Z" fill="white"/>
<path d="M19.3125 14.625H15.9375C15.4197 14.625 15 14.2053 15 13.6875C15 13.1697 15.4197 12.75 15.9375 12.75H19.3125C19.8303 12.75 20.25 13.1697 20.25 13.6875C20.25 14.2053 19.8303 14.625 19.3125 14.625Z" fill="#FF7B02"/>
</g>
<defs>
<clipPath id="clip0_30_15901">
<rect width="24" height="24" fill="white"/>
</clipPath>
</defs>
</svg>
