<svg width="29" height="29" viewBox="0 0 29 29" fill="none" xmlns="http://www.w3.org/2000/svg">
<path d="M25.8513 17.5736C25.7769 17.4993 25.4057 17.1356 25.3198 17.0617C24.4352 16.2948 23.3989 15.9222 22.151 15.9222C21.763 15.9222 21.3457 15.9567 20.8757 16.028C20.1925 16.132 19.5186 15.905 19.0385 15.4244L16.3112 12.6969C16.3112 12.6936 16.3131 12.6908 16.3131 12.6875V3.625H21.7506V6.34375C21.7506 6.84422 22.1563 7.25 22.6568 7.25H25.3756V15.4062C25.3756 15.9067 25.7813 16.3125 26.2818 16.3125C26.7823 16.3125 27.1881 15.9067 27.1881 15.4062V5.4375C27.1881 5.19722 27.0925 4.96667 26.9226 4.79675L24.2038 2.078C24.0339 1.90808 23.8034 1.8125 23.5631 1.8125H15.4068C14.9064 1.8125 14.5006 2.21828 14.5006 2.71875V10.8861L13.5762 9.96167C13.0965 9.48244 12.8708 8.79567 12.9726 8.12483C13.1677 6.83582 13.227 5.16624 11.9407 3.68297C11.865 3.59491 11.5013 3.22365 11.415 3.13736C10.5605 2.28288 9.42416 1.8125 8.21523 1.8125C7.5174 1.8125 6.81825 1.97755 6.19343 2.28996C5.93279 2.42006 5.75092 2.66786 5.70402 2.95549C5.65756 3.24312 5.75181 3.53561 5.95802 3.74138L7.92893 5.7123C7.58334 6.86635 6.86692 7.58276 5.71287 7.92836L3.74195 5.95744C3.53574 5.75124 3.24281 5.65787 2.95606 5.70345C2.66843 5.75035 2.42063 5.93222 2.29054 6.19286C1.4188 7.93721 1.75909 10.0351 3.14988 11.4264C3.22422 11.5007 3.59548 11.8644 3.68133 11.9383C4.5659 12.7052 5.60224 13.0778 6.85011 13.0778C6.97816 13.0778 7.11533 13.0681 7.25057 13.0605V13.3013C6.93064 13.4499 6.62443 13.623 6.33857 13.8168L4.99822 13.0499C4.56722 12.8043 4.01586 12.9503 3.76496 13.3805L1.93609 16.5196C1.81484 16.7285 1.78166 16.9771 1.84405 17.2103C1.90644 17.4435 2.05955 17.6422 2.2693 17.7621L3.59814 18.5233C3.58353 18.6936 3.57645 18.8627 3.57645 19.0312C3.57645 19.1998 3.58353 19.3689 3.59814 19.5392L2.2693 20.3004C2.05955 20.4203 1.90644 20.619 1.84405 20.8522C1.78166 21.0854 1.81484 21.334 1.93609 21.5429L3.76496 24.682C4.01586 25.1126 4.56634 25.2582 4.99822 25.0126L6.33857 24.2453C6.62443 24.4391 6.93064 24.6126 7.25057 24.7612V26.2812C7.25057 26.7817 7.65635 27.1875 8.15682 27.1875H11.7818C12.2823 27.1875 12.6881 26.7817 12.6881 26.2812V24.7612C13.008 24.6126 13.3142 24.4391 13.6001 24.2453L14.9404 25.0126C15.3732 25.2591 15.9223 25.1126 16.1737 24.682L16.3954 24.3015C16.5619 24.6449 16.7733 24.9859 17.0605 25.317C17.1361 25.4051 17.4999 25.7764 17.5862 25.8626C18.4406 26.7171 19.577 27.1875 20.7859 27.1875C21.4833 27.1875 22.1829 27.0224 22.8077 26.71C23.0684 26.5799 23.2502 26.3321 23.2971 26.0445C23.3436 25.7569 23.2493 25.4644 23.0431 25.2586L21.0722 23.2877C21.4178 22.1337 22.1342 21.4172 23.2883 21.0716L25.2592 23.0426C25.465 23.2479 25.7561 23.3386 26.0451 23.2966C26.3327 23.2496 26.5805 23.0678 26.7106 22.8071C27.5823 21.0628 27.2421 18.9649 25.8513 17.5736ZM25.0003 5.4375H23.5631V4.00024L25.0003 5.4375ZM15.0599 22.9926L13.9815 22.3753C13.6505 22.1863 13.2363 22.2239 12.9456 22.4708C12.5328 22.8204 12.027 23.1063 11.4818 23.2974C11.1185 23.4249 10.8756 23.7678 10.8756 24.1528V25.375H9.06307V24.1528C9.06307 23.7678 8.82014 23.4249 8.45684 23.2974C7.91168 23.1063 7.40589 22.8204 6.99304 22.4708C6.70275 22.2239 6.28768 22.1863 5.95713 22.3753L4.87875 22.9926L3.96188 21.4194L5.02787 20.8092C5.3624 20.6181 5.53941 20.2362 5.46905 19.8574C5.41506 19.568 5.38895 19.2976 5.38895 19.0312C5.38895 18.7649 5.41506 18.4945 5.46905 18.2051C5.53941 17.8263 5.3624 17.4444 5.02787 17.2533L3.96188 16.6431L4.87875 15.0699L5.95713 15.6868C6.28768 15.8753 6.70187 15.8386 6.99304 15.5917C7.40589 15.2421 7.91212 14.9562 8.45684 14.7651C8.82014 14.6376 9.06307 14.2947 9.06307 13.9097V13.0431C9.39849 13.1439 9.70841 13.3213 9.96269 13.5756L15.425 19.0383C15.9046 19.5176 16.1303 20.2043 16.0285 20.8752C16.0007 21.0589 15.9777 21.2519 15.9588 21.4494L15.0599 22.9926ZM24.2087 19.4291C23.9945 19.2144 23.6874 19.1215 23.3901 19.1813C21.0957 19.6401 19.6407 21.0951 19.1818 23.3895C19.1225 23.6868 19.2155 23.9939 19.4296 24.2081L20.5894 25.3679C19.9385 25.3215 19.3323 25.0453 18.8557 24.5692C18.7955 24.5086 18.5048 24.2148 18.4313 24.1316C17.7804 23.3806 17.6092 22.5439 17.8207 21.1469C18.0083 19.9083 17.5915 18.641 16.7065 17.7564L11.2446 12.2941C10.4977 11.5467 9.50381 11.1352 8.44666 11.1352C8.24975 11.1352 8.05151 11.1498 7.85371 11.1799C6.43415 11.3958 5.62702 11.2263 4.86857 10.5688C4.78582 10.4958 4.492 10.205 4.41943 10.1329C3.94683 9.65988 3.67779 9.04568 3.63177 8.41069L4.79246 9.57094C5.00707 9.78555 5.31506 9.87848 5.61109 9.81874C7.90548 9.35986 9.36044 7.90491 9.81931 5.61052C9.87861 5.31316 9.78568 5.00606 9.57151 4.79189L8.41171 3.63208C9.06263 3.67854 9.66886 3.95467 10.1454 4.4308C10.2056 4.49142 10.4963 4.78525 10.5698 4.86844C11.2207 5.61937 11.392 6.45615 11.1805 7.85313C10.9928 9.09171 11.4097 10.359 12.2947 11.2436L17.7565 16.7059C18.6424 17.5922 19.8876 18.0113 21.1474 17.8201C22.5701 17.6051 23.375 17.7737 24.1326 18.4312C24.2153 18.5042 24.5091 18.795 24.5817 18.8671C25.0543 19.3401 25.3234 19.9543 25.3694 20.5893L24.2087 19.4291Z" fill="white"/>
<path d="M23.5625 8.15625H18.125C17.6245 8.15625 17.2188 8.56203 17.2188 9.0625C17.2188 9.56297 17.6245 9.96875 18.125 9.96875H23.5625C24.063 9.96875 24.4688 9.56297 24.4688 9.0625C24.4688 8.56203 24.063 8.15625 23.5625 8.15625Z" fill="#FF7B02"/>
<path d="M23.5625 10.875H18.125C17.6245 10.875 17.2188 11.2808 17.2188 11.7812C17.2188 12.2817 17.6245 12.6875 18.125 12.6875H23.5625C24.063 12.6875 24.4688 12.2817 24.4688 11.7812C24.4688 11.2808 24.063 10.875 23.5625 10.875Z" fill="#FF7B02"/>
<path d="M23.5625 13.5938H20.8438C20.3433 13.5938 19.9375 13.9995 19.9375 14.5C19.9375 15.0005 20.3433 15.4062 20.8438 15.4062H23.5625C24.063 15.4062 24.4688 15.0005 24.4688 14.5C24.4688 13.9995 24.063 13.5938 23.5625 13.5938Z" fill="#FF7B02"/>
<path d="M9.96875 16.3125C8.46954 16.3125 7.25 17.532 7.25 19.0312C7.25 20.5305 8.46954 21.75 9.96875 21.75C11.468 21.75 12.6875 20.5305 12.6875 19.0312C12.6875 17.532 11.468 16.3125 9.96875 16.3125ZM9.96875 19.9375C9.46916 19.9375 9.0625 19.5308 9.0625 19.0312C9.0625 18.5317 9.46916 18.125 9.96875 18.125C10.4683 18.125 10.875 18.5317 10.875 19.0312C10.875 19.5308 10.4683 19.9375 9.96875 19.9375Z" fill="#FF7B02"/>
</svg>
