<svg width="30" height="30" viewBox="0 0 30 30" fill="none" xmlns="http://www.w3.org/2000/svg">
<path d="M15 14.0625C14.4816 14.0625 14.0625 14.4825 14.0625 15V16.875C14.0625 17.3925 14.4816 17.8125 15 17.8125C15.5184 17.8125 15.9375 17.3925 15.9375 16.875V15C15.9375 14.4825 15.5184 14.0625 15 14.0625Z" fill="#FF7B02"/>
<path d="M17.8125 14.0625C17.2941 14.0625 16.875 14.4825 16.875 15V16.875C16.875 17.3925 17.2941 17.8125 17.8125 17.8125C18.3309 17.8125 18.75 17.3925 18.75 16.875V15C18.75 14.4825 18.3309 14.0625 17.8125 14.0625Z" fill="#FF7B02"/>
<path d="M20.625 14.0625C20.1066 14.0625 19.6875 14.4825 19.6875 15V16.875C19.6875 17.3925 20.1066 17.8125 20.625 17.8125C21.1434 17.8125 21.5625 17.3925 21.5625 16.875V15C21.5625 14.4825 21.1434 14.0625 20.625 14.0625Z" fill="#FF7B02"/>
<path d="M15 25.3125C15.5184 25.3125 15.9375 24.8925 15.9375 24.375V22.5C15.9375 21.9825 15.5184 21.5625 15 21.5625C14.4816 21.5625 14.0625 21.9825 14.0625 22.5V24.375C14.0625 24.8925 14.4816 25.3125 15 25.3125Z" fill="white"/>
<path d="M17.8125 25.3125C18.3309 25.3125 18.75 24.8925 18.75 24.375V22.5C18.75 21.9825 18.3309 21.5625 17.8125 21.5625C17.2941 21.5625 16.875 21.9825 16.875 22.5V24.375C16.875 24.8925 17.2941 25.3125 17.8125 25.3125Z" fill="white"/>
<path d="M20.625 25.3125C21.1434 25.3125 21.5625 24.8925 21.5625 24.375V22.5C21.5625 21.9825 21.1434 21.5625 20.625 21.5625C20.1066 21.5625 19.6875 21.9825 19.6875 22.5V24.375C19.6875 24.8925 20.1066 25.3125 20.625 25.3125Z" fill="white"/>
<path d="M21.5625 11.25H8.4375C6.88687 11.25 5.625 12.5119 5.625 14.0625V25.3125C5.625 26.8631 6.88687 28.125 8.4375 28.125H21.5625C23.1131 28.125 24.375 26.8631 24.375 25.3125V14.0625C24.375 12.5119 23.1131 11.25 21.5625 11.25ZM7.5 14.0625C7.5 13.5459 7.92 13.125 8.4375 13.125H21.5625C22.08 13.125 22.5 13.5459 22.5 14.0625V18.75H7.5V14.0625ZM22.5 25.3125C22.5 25.8291 22.08 26.25 21.5625 26.25H8.4375C7.92 26.25 7.5 25.8291 7.5 25.3125V20.625H22.5V25.3125Z" fill="white"/>
<path d="M7.50036 5.62468C7.50036 5.32936 7.36161 5.05186 7.12536 4.87468L3.37536 2.06218C2.96192 1.75186 2.37317 1.83624 2.06286 2.24968C1.75161 2.66405 1.83598 3.25186 2.25036 3.56218L5.00004 5.62468L2.25036 7.68718C1.83598 7.99749 1.75161 8.5853 2.06286 8.99968C2.24661 9.2453 2.52786 9.37468 2.81379 9.37468C3.00973 9.37468 3.20661 9.31374 3.37536 9.18718L7.12536 6.37468C7.36161 6.19749 7.50036 5.91999 7.50036 5.62468Z" fill="white"/>
<path d="M8.62536 8.99968C8.80911 9.2453 9.09036 9.37468 9.37629 9.37468C9.57223 9.37468 9.76911 9.31374 9.93786 9.18718L13.6879 6.37468C13.9241 6.19749 14.0629 5.91999 14.0629 5.62468C14.0629 5.32936 13.9241 5.05186 13.6879 4.87468L9.93786 2.06218C9.52348 1.75186 8.93567 1.83624 8.62536 2.24968C8.31411 2.66405 8.39848 3.25186 8.81286 3.56218L11.5625 5.62468L8.81286 7.68718C8.39848 7.99749 8.31411 8.5853 8.62536 8.99968Z" fill="white"/>
<path d="M16.1254 9.00008C16.3091 9.24571 16.5904 9.37508 16.8763 9.37508C17.0722 9.37508 17.2691 9.31414 17.4379 9.18758L21.1879 6.37508C21.4241 6.19789 21.5629 5.92039 21.5629 5.62508C21.5629 5.32977 21.4241 5.05227 21.1879 4.87508L17.4379 2.06258C17.0254 1.75133 16.4366 1.83664 16.1263 2.25008C15.815 2.66445 15.8994 3.25227 16.3138 3.56258L19.0625 5.62508L16.3129 7.68758C15.8985 7.99789 15.8141 8.5857 16.1254 9.00008Z" fill="#FF7B02"/>
<path d="M27.7504 4.87508L24.0004 2.06258C23.5869 1.75133 22.9991 1.83664 22.6888 2.25008C22.3775 2.66445 22.4619 3.25227 22.8763 3.56258L25.625 5.62508L22.8754 7.68758C22.461 7.99789 22.3766 8.5857 22.6879 9.00008C22.8716 9.24571 23.1529 9.37508 23.4388 9.37508C23.6347 9.37508 23.8316 9.31414 24.0004 9.18758L27.7504 6.37508C27.9866 6.19789 28.1254 5.92039 28.1254 5.62508C28.1254 5.32977 27.9866 5.05227 27.7504 4.87508Z" fill="#FF7B02"/>
</svg>
