<svg width="33" height="33" viewBox="0 0 33 33" fill="none" xmlns="http://www.w3.org/2000/svg">
<path d="M12.9414 11.5477C12.9414 13.5586 14.5914 15.2086 16.6023 15.2086C18.6133 15.2086 20.2633 13.5586 20.2633 11.5477C20.2633 9.53672 18.6133 7.88672 16.6023 7.88672C14.5914 7.93828 12.9414 9.58828 12.9414 11.5477ZM18.407 11.5477C18.407 12.5789 17.582 13.4039 16.5508 13.4039C15.5195 13.4039 14.6945 12.5789 14.6945 11.5477C14.6945 10.5164 15.5195 9.69141 16.5508 9.69141C17.582 9.69141 18.407 10.568 18.407 11.5477Z" fill="#FF7B02"/>
<path d="M32.0711 21.1383L29.6477 18.7148C29.3899 18.457 28.9774 18.3539 28.6165 18.5086L25.9352 19.6945C25.4711 19.9008 25.2649 20.4164 25.4711 20.8805C25.6774 21.3445 26.193 21.5508 26.6571 21.3445L27.7399 20.8805C26.7602 23.407 24.9555 25.4695 22.6868 26.8102V21.6539C22.6868 19.0242 20.779 16.9102 18.3555 16.9102H14.4368C12.0649 16.9102 10.1055 19.0242 10.1055 21.6539V26.6555C7.78521 25.2117 5.98052 22.943 5.10396 20.2102C4.94927 19.7461 4.43364 19.4883 3.96958 19.643C3.50552 19.7977 3.24771 20.3133 3.40239 20.7773C5.25865 26.5008 10.5696 30.3164 16.5508 30.3164C22.429 30.3164 27.5852 26.6555 29.5961 21.1383L30.7821 22.3242C30.9368 22.4789 31.1946 22.582 31.4008 22.582C31.6071 22.582 31.8649 22.4789 32.0196 22.3242C32.4321 22.0664 32.4321 21.4992 32.0711 21.1383ZM11.9618 27.6352V21.7055C11.9618 20.107 13.0961 18.7664 14.4883 18.7664H16.1899L15.3133 21.2414C15.2102 21.5508 15.2102 21.8602 15.3133 22.118L16.0352 24.4898C16.1899 24.9539 16.8086 24.9539 16.9633 24.4898L17.6852 22.118C17.7883 21.8086 17.7883 21.4992 17.6852 21.2414L16.8086 18.7664H18.5102C19.9024 18.7664 21.0368 20.0555 21.0368 21.7055V27.7383C19.6446 28.2539 18.1493 28.5633 16.6024 28.5633C14.9524 28.5633 13.4055 28.2539 11.9618 27.6352Z" fill="white"/>
<path d="M4.38242 15.7766L7.26993 14.2297C7.73399 13.9719 7.88868 13.4562 7.63087 12.9922C7.37305 12.5797 6.85743 12.3734 6.39336 12.6312L4.94961 13.4047C6.3418 8.14531 11.0856 4.43281 16.6027 4.43281C22.1715 4.43281 26.9668 8.19687 28.359 13.6109C28.4621 14.075 28.9777 14.3844 29.4418 14.2812C29.9059 14.1781 30.2152 13.6625 30.1121 13.1984C28.5652 7.01093 22.9965 2.67969 16.6027 2.67969C10.3121 2.67969 4.84649 6.90781 3.19649 12.9922L2.16524 11.9609C1.8043 11.6 1.23711 11.6 0.876173 11.9609C0.515234 12.3219 0.515234 12.8891 0.876173 13.25L3.29961 15.6734C3.4543 15.8281 3.71211 15.9312 3.91836 15.9312C4.12461 15.8797 4.22774 15.8281 4.38242 15.7766Z" fill="#FF7B02"/>
</svg>
