<svg width="27" height="27" viewBox="0 0 27 27" fill="none" xmlns="http://www.w3.org/2000/svg">
<path d="M5.90625 13.4117V7.59375H6.75V12.1123C7.23161 11.5162 7.79949 10.9931 8.4375 10.5652V3.375H9.28125V10.0824C9.81215 9.8175 10.3765 9.61187 10.9688 9.47679V5.90625H11.8125V9.331C12.0899 9.30015 12.3708 9.28125 12.6562 9.28125C12.9417 9.28125 13.2226 9.30015 13.5 9.331V5.0625C13.5 4.59613 13.1226 4.21875 12.6562 4.21875H10.9688V2.53125C10.9688 2.06488 10.5914 1.6875 10.125 1.6875H7.59375C7.12738 1.6875 6.75 2.06488 6.75 2.53125V5.90625H5.0625C4.59613 5.90625 4.21875 6.28363 4.21875 6.75V9.28125H2.53125C2.06488 9.28125 1.6875 9.65863 1.6875 10.125V14.3438C1.6875 14.8101 2.06488 15.1875 2.53125 15.1875H5.25804C5.40054 14.5627 5.61982 13.9678 5.90625 13.4117ZM4.21875 13.5H3.375V10.9688H4.21875V13.5Z" fill="white"/>
<path d="M19.3697 16.1753C19.0185 12.781 16.1419 10.125 12.6562 10.125C9.17063 10.125 6.29403 12.781 5.94276 16.1753C4.944 16.5144 4.21875 17.4505 4.21875 18.5625V19.4062C4.21875 20.8021 5.35419 21.9375 6.75 21.9375H7.59375C8.06012 21.9375 8.4375 21.5601 8.4375 21.0938V16.875C8.4375 16.4348 8.09756 16.0854 7.6677 16.0461C8.06511 13.6484 10.1475 11.8125 12.6562 11.8125C15.165 11.8125 17.2474 13.6484 17.6448 16.0461C17.2149 16.0854 16.875 16.4348 16.875 16.875V21.0938C16.875 21.5601 17.2524 21.9375 17.7188 21.9375C17.7188 22.8678 16.9615 23.625 16.0312 23.625H14.3438C14.3438 23.1586 13.9664 22.7812 13.5 22.7812H11.8125C11.3461 22.7812 10.9688 23.1586 10.9688 23.625V24.4688C10.9688 24.9351 11.3461 25.3125 11.8125 25.3125H16.0312C17.8926 25.3125 19.4062 23.7989 19.4062 21.9375V21.782C20.3863 21.4326 21.0938 20.5048 21.0938 19.4062V18.5625C21.0938 17.4505 20.3685 16.5144 19.3697 16.1753ZM6.75 20.25C6.28445 20.25 5.90625 19.8718 5.90625 19.4062V18.5625C5.90625 18.097 6.28445 17.7188 6.75 17.7188V20.25ZM19.4062 19.4062C19.4062 19.8718 19.028 20.25 18.5625 20.25V17.7188C19.028 17.7188 19.4062 18.097 19.4062 18.5625V19.4062Z" fill="white"/>
<path d="M20.25 1.6875C17.4584 1.6875 15.1875 3.95837 15.1875 6.75C15.1875 9.54163 17.4584 11.8125 20.25 11.8125C23.0416 11.8125 25.3125 9.54163 25.3125 6.75C25.3125 3.95837 23.0416 1.6875 20.25 1.6875ZM21.0938 3.49479C22.2741 3.80151 23.1985 4.72585 23.5052 5.90625H21.0938V3.49479ZM20.25 10.125C18.3886 10.125 16.875 8.61136 16.875 6.75C16.875 5.18172 17.9546 3.87201 19.4062 3.49479V6.75C19.4062 7.21637 19.7836 7.59375 20.25 7.59375H23.5052C23.128 9.04544 21.8183 10.125 20.25 10.125Z" fill="#FF7B02"/>
</svg>
