<svg width="31" height="31" viewBox="0 0 31 31" fill="none" xmlns="http://www.w3.org/2000/svg">
<path fill-rule="evenodd" clip-rule="evenodd" d="M6.84809 11.1406H4.84375C3.23853 11.1406 1.9375 12.4417 1.9375 14.0469V16.9531C1.9375 18.5583 3.23853 19.8594 4.84375 19.8594H6.84809C8.44459 23.0194 11.7209 25.1875 15.5 25.1875C19.2791 25.1875 22.5554 23.0194 24.1519 19.8594H26.1562C26.3878 19.8594 26.6125 19.8322 26.8286 19.7809C26.4508 21.2214 25.7222 22.5583 24.6925 23.6666C22.8102 25.6234 20.242 26.9254 17.3736 27.1521C17.0752 27.1763 16.7729 27.188 16.4688 27.188C15.934 27.188 15.5 27.622 15.5 28.1567C15.5 28.6915 15.934 29.1255 16.4688 29.1255C16.8252 29.1255 17.1779 29.1119 17.5266 29.0838C20.8853 28.8174 23.8932 27.2955 26.0952 25.0025C26.0991 24.9996 26.102 24.9957 26.1059 24.9918C28.0056 22.9516 29.0625 20.2662 29.0625 17.4782C29.0625 17.3987 29.0547 17.3406 29.0422 17.3009C29.0557 17.1866 29.0625 17.0703 29.0625 16.9531C29.0625 16.0415 29.0625 14.9585 29.0625 14.0469C29.0625 12.4417 27.7615 11.1406 26.1562 11.1406H24.1519C22.5554 7.98056 19.2791 5.8125 15.5 5.8125C11.7209 5.8125 8.44459 7.98056 6.84809 11.1406ZM13.5625 27.125H12.1094C11.5746 27.125 11.1406 27.559 11.1406 28.0937C11.1406 28.6285 11.5746 29.0625 12.1094 29.0625H13.5625C14.0972 29.0625 14.5312 28.6285 14.5312 28.0937C14.5312 27.559 14.0972 27.125 13.5625 27.125ZM15.5 7.75C19.777 7.75 23.25 11.223 23.25 15.5C23.25 19.777 19.777 23.25 15.5 23.25C11.223 23.25 7.75 19.777 7.75 15.5C7.75 11.223 11.223 7.75 15.5 7.75ZM10.9973 19.6278C12.2382 20.6857 13.8027 21.3125 15.5 21.3125C17.1973 21.3125 18.7618 20.6857 20.0027 19.6278C20.4106 19.281 20.459 18.6698 20.1122 18.2629C19.7654 17.855 19.1541 17.8066 18.7473 18.1534C17.8512 18.9158 16.7245 19.375 15.5 19.375C14.2755 19.375 13.1488 18.9158 12.2527 18.1534C11.8459 17.8066 11.2346 17.855 10.8878 18.2629C10.541 18.6698 10.5894 19.281 10.9973 19.6278ZM6.11863 13.0781H4.84375C4.309 13.0781 3.875 13.5121 3.875 14.0469V16.9531C3.875 17.4879 4.309 17.9219 4.84375 17.9219H6.11863C5.91906 17.1478 5.8125 16.336 5.8125 15.5C5.8125 14.664 5.91906 13.8522 6.11863 13.0781ZM24.8814 13.0781C25.0809 13.8522 25.1875 14.664 25.1875 15.5C25.1875 16.336 25.0809 17.1478 24.8814 17.9219H26.1562C26.691 17.9219 27.125 17.4879 27.125 16.9531V14.0469C27.125 13.5121 26.691 13.0781 26.1562 13.0781H24.8814Z" fill="white"/>
<path fill-rule="evenodd" clip-rule="evenodd" d="M11.0598 19.6278C12.3007 20.6857 13.8652 21.3125 15.5625 21.3125C17.2598 21.3125 18.8243 20.6857 20.0652 19.6278C20.4731 19.281 20.5215 18.6698 20.1747 18.2629C19.8279 17.855 19.2166 17.8066 18.8098 18.1534C17.9137 18.9158 16.787 19.375 15.5625 19.375C14.338 19.375 13.2113 18.9158 12.3152 18.1534C11.9084 17.8066 11.2971 17.855 10.9503 18.2629C10.6035 18.6698 10.6519 19.281 11.0598 19.6278ZM6.18113 13.0781H4.90625C4.3715 13.0781 3.9375 13.5121 3.9375 14.0469V16.9531C3.9375 17.4879 4.3715 17.9219 4.90625 17.9219H6.18113C5.98156 17.1478 5.875 16.336 5.875 15.5C5.875 14.664 5.98156 13.8522 6.18113 13.0781ZM24.9439 13.0781C25.1434 13.8522 25.25 14.664 25.25 15.5C25.25 16.336 25.1434 17.1478 24.9439 17.9219H26.2188C26.7535 17.9219 27.1875 17.4879 27.1875 16.9531V14.0469C27.1875 13.5121 26.7535 13.0781 26.2188 13.0781H24.9439Z" fill="#FF7B02"/>
</svg>
