<svg width="25" height="25" viewBox="0 0 25 25" fill="none" xmlns="http://www.w3.org/2000/svg">
<g clip-path="url(#clip0_30_15067)">
<path d="M18.4748 9.40615L16.0915 6.76912C16.2592 6.44055 16.3584 6.07957 16.3584 5.70701C16.288 2.70733 11.9096 2.57529 11.6798 5.57861C11.6798 5.57854 9.21619 6.37199 9.21619 6.37199C7.91559 4.64325 4.99548 5.64456 5.04173 7.83275C5.04169 8.74702 5.58149 9.54744 6.36228 9.92662L6.18691 11.9651C5.20256 12.2452 4.47528 13.1424 4.47528 14.2153C4.43301 15.9223 6.39757 17.1205 7.89038 16.2897C7.89034 16.2898 9.0907 17.3687 9.0907 17.3687C8.98816 17.6323 8.93369 17.9158 8.93369 18.207C8.94717 20.9423 12.8616 21.4223 13.5347 18.7907C13.5347 18.7908 15.4222 18.5723 15.4222 18.5723C15.8076 19.3358 16.5931 19.8492 17.5002 19.8492C18.7913 19.8492 19.8419 18.7946 19.8419 17.499C19.8419 16.7502 19.4917 16.079 18.9416 15.6547L19.4796 13.9165C23.0282 13.493 21.8749 8.29842 18.4748 9.40615ZM14.0086 5.03237C15.0779 5.07525 14.779 6.71095 13.7586 6.30143C13.075 6.05828 13.2859 5.02272 14.0086 5.03237ZM7.3834 7.14907C8.26493 7.16071 8.27511 8.47705 7.40776 8.50567C6.50619 8.51496 6.48758 7.16447 7.3834 7.14907ZM6.14194 14.2153C6.14691 13.3428 7.49263 13.3185 7.50018 14.2153C7.48984 15.0866 6.14958 15.1045 6.14194 14.2153ZM9.08669 14.7874C9.39301 13.7463 8.80871 12.5754 7.84726 12.1076C7.84726 12.1076 8.02101 10.0861 8.02101 10.0861C8.9652 9.82201 9.68066 8.9395 9.73039 7.95797C9.7304 7.95798 12.1771 7.16941 12.1771 7.16941C12.7954 7.9529 13.9174 8.27577 14.8639 7.89691C14.8639 7.89694 17.2361 10.5215 17.2361 10.5215C16.9923 11.0391 16.8909 11.6366 17.0621 12.1936C17.1888 12.6858 17.4838 13.1268 17.8834 13.4373L17.3492 15.1626C16.8119 15.2034 16.2977 15.4225 15.9065 15.7937C15.5797 16.0949 15.3463 16.4876 15.2317 16.9171C15.2317 16.9171 13.3559 17.1336 13.3559 17.1336C12.9605 16.3649 12.1412 15.8645 11.2754 15.8657C10.8986 15.8609 10.5417 15.9782 10.2036 16.1277C10.2036 16.1277 9.01019 15.0551 9.01019 15.0551C9.04386 14.9689 9.06369 14.8775 9.08669 14.7874ZM11.2754 18.8906C10.397 18.8848 10.3922 17.5508 11.2755 17.5324C12.1605 17.5354 12.15 18.889 11.2754 18.8906ZM11.95 18.1793C11.9593 18.1801 11.9589 18.1986 11.9631 18.207C11.9455 18.2129 11.9517 18.1794 11.95 18.1793ZM17.5002 18.1826C16.6221 18.1785 16.6172 16.8253 17.5002 16.8244C18.3866 16.8452 18.3804 18.1703 17.5002 18.1826ZM20.0002 11.5908C19.9999 12.4706 18.6527 12.4707 18.6419 11.5908C18.6506 10.727 19.993 10.6936 20.0002 11.5908Z" fill="#FF7B02"/>
<path d="M12.5 0.03125C5.6075 0.03125 0 5.63834 0 12.5312C0.686344 29.1142 24.3162 29.1094 25 12.5311C25 5.63834 19.3925 0.03125 12.5 0.03125ZM12.5 23.3646C6.52627 23.3646 1.66666 18.5045 1.66666 12.5312C2.26178 -1.84065 22.7404 -1.83646 23.3333 12.5313C23.3333 18.5045 18.4737 23.3646 12.5 23.3646Z" fill="white"/>
</g>
<defs>
<clipPath id="clip0_30_15067">
<rect width="25" height="25" fill="white"/>
</clipPath>
</defs>
</svg>
