<svg width="28" height="28" viewBox="0 0 28 28" fill="none" xmlns="http://www.w3.org/2000/svg">
<g clip-path="url(#clip0_30_15044)">
<path d="M27.9672 9.06419C27.7807 7.75145 26.4493 6.79247 25.1451 7.03243C24.4951 7.13825 23.9261 7.4895 23.5432 8.02154L18.9956 14.3381C18.6188 14.254 18.2311 14.2418 17.8523 14.3006L17.8502 5.50739C17.8502 5.50034 17.8542 5.38888 17.8542 5.33972C17.6322 1.99105 12.1669 1.06581 8.92718 1.05859C5.68887 1.06395 0.221043 1.99324 0 5.33956C5.46864e-05 5.39818 0.00142185 16.8112 0.00142185 16.8112C0.00142185 16.909 0.0188121 17.0059 0.0529365 17.0975C1.04391 19.8351 7.44518 20.6677 11.1374 20.2096C11.4323 20.576 11.7218 20.9193 12.011 21.2444C12.1949 21.4512 12.4706 21.5514 12.7449 21.5106L13.2878 21.4296C12.9756 21.7437 12.9899 22.2969 13.319 22.594C14.2651 23.4833 15.2576 24.2292 16.3535 24.8745C16.6752 25.0659 17.0849 25.0086 17.3514 24.7491C17.2814 25.1141 17.466 25.4823 17.8034 25.6436C18.7316 26.0872 19.7661 26.4977 20.9657 26.8986C21.2193 26.9836 21.5014 26.9391 21.7173 26.7772C21.9328 26.616 22.0554 26.3592 22.0454 26.0903C21.9853 24.465 22.1581 23.0646 22.5735 21.8091C22.7855 21.1699 23.0036 20.4769 23.2155 19.942C23.5836 19.007 23.4843 18.0109 22.9936 17.2084L27.5374 10.8971C27.9205 10.3652 28.0731 9.71425 27.9672 9.06419ZM1.64415 7.88335C5.31913 10.216 12.5336 10.2168 16.2103 7.88335L16.211 10.8461C16.2412 12.2189 13.5247 13.5445 8.91039 13.6218C6.8783 13.6217 4.97379 13.3002 3.54751 12.7164C2.40019 12.2468 1.67253 11.6325 1.64333 11.1105L1.64415 7.88335ZM3.52142 3.64887C6.32903 2.39196 11.5254 2.3919 14.3329 3.64893C16.817 4.7432 16.8188 5.93548 14.3329 7.03041C12.8983 7.64284 10.9786 7.98009 8.92723 7.98009C6.87589 7.98009 4.95607 7.64284 3.52142 7.03041C1.03751 5.93608 1.03565 4.74375 3.52142 3.64887ZM3.81449 17.946C2.5176 17.5116 1.8565 17.0022 1.64201 16.6328L1.64273 13.5722C5.2925 15.8465 12.5774 15.8446 16.2116 13.5508L16.212 15.0956C14.5742 16.4928 12.7797 17.4872 10.8759 18.0501C10.6011 18.1312 10.3814 18.3549 10.315 18.6348C8.16775 18.8 5.57167 18.551 3.81449 17.946ZM21.689 19.3411C21.0155 21.1308 20.4309 22.9018 20.4009 24.9598C19.9423 24.7884 19.5118 24.6143 19.1048 24.4355L19.5056 22.6737C19.5842 22.328 19.4318 21.9708 19.1278 21.7884C18.8237 21.606 18.4369 21.6395 18.1689 21.8715L16.6871 23.1543C16.1253 22.794 15.592 22.4001 15.0772 21.9647L16.219 20.8314C16.4706 20.5816 16.5332 20.1984 16.3743 19.8814C16.2153 19.5644 15.8707 19.3858 15.5201 19.4379L12.9467 19.8218C12.7872 19.6357 12.6269 19.443 12.4647 19.2425C14.2096 18.5736 15.8568 17.574 17.3743 16.2614C17.8939 15.8118 18.6178 15.7795 19.1755 16.181L21.1854 17.6281C21.7344 18.0233 21.9368 18.7118 21.689 19.3411ZM26.206 9.93863L21.8046 16.0523L20.4731 15.0937L24.8746 8.98009C25.5424 8.12239 26.8077 9.03242 26.206 9.93863Z" fill="white"/>
<path d="M22 20.5C21.2 21.7 21 24.6667 21 26L18.5 25V22.5L16 24L14 22.5L15.5 20L12.5 21L11 18.5C11.5 18.5 12.6205 18.1265 13 18C14.5 17.5 18 15 18.5 15C19 15 20.5 16 21.5 17C22.5 18 23 19 22 20.5Z" stroke="#FF7B02" stroke-width="2"/>
</g>
<defs>
<clipPath id="clip0_30_15044">
<rect width="28" height="28" fill="white"/>
</clipPath>
</defs>
</svg>
