<svg width="25" height="25" viewBox="0 0 25 25" fill="none" xmlns="http://www.w3.org/2000/svg">
<path d="M18.9464 0.895654C17.2137 0.318066 14.9243 0 12.5 0C10.0757 0 7.78633 0.318066 6.05361 0.895654C3.51201 1.74287 2.97852 2.86768 2.97852 3.66211V21.3379C2.97852 22.1323 3.51201 23.2571 6.05361 24.1043C7.78633 24.6819 10.0757 25 12.5 25C14.9243 25 17.2137 24.6819 18.9464 24.1043C21.488 23.2571 22.0215 22.1323 22.0215 21.3379C22.0215 16.2083 22.0215 9.29175 22.0215 3.66211C22.0215 2.86768 21.488 1.74287 18.9464 0.895654ZM6.5168 2.28535C8.10415 1.75625 10.229 1.46484 12.5 1.46484C14.771 1.46484 16.8959 1.75625 18.4832 2.28535C20.1233 2.83203 20.5566 3.42495 20.5566 3.66211C20.5566 3.89927 20.1233 4.49219 18.4832 5.03887C16.8959 5.56797 14.771 5.85938 12.5 5.85938C10.229 5.85938 8.10415 5.56797 6.5168 5.03887C4.87671 4.49219 4.44336 3.89927 4.44336 3.66211C4.44336 3.42495 4.87671 2.83203 6.5168 2.28535ZM18.4832 22.7146C16.8959 23.2438 14.771 23.5352 12.5 23.5352C10.229 23.5352 8.10415 23.2438 6.5168 22.7146C4.87671 22.168 4.44336 21.575 4.44336 21.3379V17.4841C4.86006 17.7332 5.38784 17.9742 6.05361 18.1961C7.78633 18.7737 10.0757 19.0918 12.5 19.0918C14.9243 19.0918 17.2137 18.7737 18.9464 18.1961C19.6122 17.9742 20.1399 17.7333 20.5566 17.4841V21.3379C20.5566 21.575 20.1233 22.168 18.4832 22.7146ZM20.5566 15.4297C20.5566 15.6668 20.1233 16.2598 18.4832 16.8064C16.8959 17.3355 14.771 17.627 12.5 17.627C10.229 17.627 8.10415 17.3355 6.5168 16.8064C4.87671 16.2598 4.44336 15.6668 4.44336 15.4297C4.44336 15.0627 4.44336 12.0719 4.44336 11.6248C4.86006 11.8738 5.38784 12.1148 6.05361 12.3368C7.78633 12.9144 10.0757 13.2324 12.5 13.2324C14.9243 13.2324 17.2137 12.9144 18.9464 12.3368C19.6122 12.1148 20.1399 11.8739 20.5566 11.6248V15.4297ZM20.5566 9.57031C20.5566 9.80747 20.1233 10.4004 18.4832 10.9471C16.8959 11.4762 14.771 11.7676 12.5 11.7676C10.229 11.7676 8.10415 11.4762 6.5168 10.9471C4.87671 10.4004 4.44336 9.80747 4.44336 9.57031C4.44336 7.74209 4.44336 7.348 4.44336 5.71655C4.86006 5.96562 5.38784 6.20664 6.05361 6.42856C7.78633 7.00615 10.0757 7.32422 12.5 7.32422C14.9243 7.32422 17.2137 7.00615 18.9464 6.42856C19.6122 6.20664 20.1399 5.96567 20.5566 5.71655V9.57031Z" fill="white"/>
</svg>
