<svg width="32" height="32" viewBox="0 0 32 32" fill="none" xmlns="http://www.w3.org/2000/svg">
<path d="M25 15H23V13C23 11.3457 21.6543 10 20 10H19.9744C20.609 9.16174 21 8.12994 21 7C21 4.24316 18.7568 2 16 2C13.2432 2 11 4.24316 11 7C11 8.12994 11.391 9.16174 12.0256 10H12C10.3457 10 9 11.3457 9 13V15H7C6.44775 15 6 15.4478 6 16V21C6 21.5522 6.44775 22 7 22H8V29C8 29.5522 8.44775 30 9 30H23C23.5522 30 24 29.5522 24 29V22H25C25.5522 22 26 21.5522 26 21V16C26 15.4478 25.5522 15 25 15ZM16 4C17.6543 4 19 5.3457 19 7C19 8.6543 17.6543 10 16 10C14.3457 10 13 8.6543 13 7C13 5.3457 14.3457 4 16 4ZM11 13C11 12.4487 11.4487 12 12 12H20C20.5513 12 21 12.4487 21 13V15H11V13ZM22 28H10V22H22V28ZM24 20H23H9H8V17H10H22H24V20Z" fill="white"/>
<line x1="12" y1="24.5" x2="20" y2="24.5" stroke="#FF7B02"/>
</svg>
