<svg width="27" height="27" viewBox="0 0 27 27" fill="none" xmlns="http://www.w3.org/2000/svg">
<path d="M21.9375 1.6875H5.0625C3.20114 1.6875 1.6875 3.20114 1.6875 5.0625V16.0312C1.6875 17.8926 3.20114 19.4062 5.0625 19.4062H10.9688V20.25H9.80283C9.15848 20.25 8.58005 20.6076 8.2933 21.1827L6.83899 24.0914C6.70798 24.3526 6.72198 24.6632 6.87607 24.912C7.03015 25.1609 7.30124 25.3125 7.59375 25.3125H19.4062C19.6988 25.3125 19.9698 25.1609 20.1239 24.912C20.278 24.6632 20.292 24.3526 20.161 24.0914L18.7067 21.1836C18.42 20.6076 17.8415 20.25 17.1972 20.25H16.0312V19.4062H21.9375C23.7989 19.4062 25.3125 17.8926 25.3125 16.0312V5.0625C25.3125 3.20114 23.7989 1.6875 21.9375 1.6875ZM15.1875 22.7812C15.6539 22.7812 16.0312 22.4039 16.0312 21.9375H17.1972L18.0409 23.625H8.95908L9.80283 21.9375H10.9688C10.9688 22.4039 11.3461 22.7812 11.8125 22.7812C12.2789 22.7812 12.6562 22.4039 12.6562 21.9375V19.4062H14.3438V21.9375C14.3438 22.4039 14.7211 22.7812 15.1875 22.7812ZM23.625 16.0312C23.625 16.9615 22.8678 17.7188 21.9375 17.7188H5.0625C4.13223 17.7188 3.375 16.9615 3.375 16.0312V5.0625C3.375 4.13223 4.13223 3.375 5.0625 3.375H21.9375C22.8678 3.375 23.625 4.13223 23.625 5.0625V16.0312Z" fill="white"/>
<path d="M20.8466 4.46594C20.517 4.13635 19.983 4.13635 19.6534 4.46594C19.3239 4.79553 19.3239 5.32947 19.6534 5.65906L19.9006 5.90625H5.0625C4.59613 5.90625 4.21875 6.28363 4.21875 6.75V16.0312C4.21875 16.4976 4.59613 16.875 5.0625 16.875C5.52887 16.875 5.90625 16.4976 5.90625 16.0312V7.59375H19.9006L19.6534 7.84094C19.3239 8.17053 19.3239 8.70447 19.6534 9.03406C19.8182 9.19885 20.0341 9.28125 20.25 9.28125C20.4659 9.28125 20.6818 9.19885 20.8466 9.03406L22.5341 7.34656C22.8636 7.01697 22.8636 6.48303 22.5341 6.15344L20.8466 4.46594Z" fill="white"/>
<path d="M10.125 15.1875C9.65945 15.1875 9.28125 14.8093 9.28125 14.3438V14.1987C9.28125 13.6335 9.0975 13.0963 8.7572 12.6562C9.0975 12.2162 9.28125 11.679 9.28125 11.1138V10.9688C9.28125 10.5032 9.65945 10.125 10.125 10.125C10.5914 10.125 10.9688 9.74762 10.9688 9.28125C10.9688 8.81488 10.5914 8.4375 10.125 8.4375C8.72919 8.4375 7.59375 9.57294 7.59375 10.9688V11.1138C7.59375 11.3354 7.50394 11.5529 7.34656 11.7103L6.99719 12.0597C6.6676 12.3893 6.6676 12.9232 6.99719 13.2528L7.34656 13.6022C7.50394 13.7596 7.59375 13.9771 7.59375 14.1987V14.3438C7.59375 15.7396 8.72919 16.875 10.125 16.875C10.5914 16.875 10.9688 16.4976 10.9688 16.0312C10.9688 15.5649 10.5914 15.1875 10.125 15.1875Z" fill="#FF7B02"/>
<path d="M19.6534 11.7103C19.4961 11.5529 19.4062 11.3354 19.4062 11.1138V10.9688C19.4062 9.57294 18.2708 8.4375 16.875 8.4375C16.4086 8.4375 16.0312 8.81488 16.0312 9.28125C16.0312 9.74762 16.4086 10.125 16.875 10.125C17.3405 10.125 17.7188 10.5032 17.7188 10.9688V11.1138C17.7188 11.679 17.9025 12.2162 18.2428 12.6562C17.9025 13.0963 17.7188 13.6335 17.7188 14.1987V14.3438C17.7188 14.8093 17.3405 15.1875 16.875 15.1875C16.4086 15.1875 16.0312 15.5649 16.0312 16.0312C16.0312 16.4976 16.4086 16.875 16.875 16.875C18.2708 16.875 19.4062 15.7396 19.4062 14.3438V14.1987C19.4062 13.9771 19.4961 13.7596 19.6534 13.6022L20.0028 13.2528C20.3324 12.9232 20.3324 12.3893 20.0028 12.0597L19.6534 11.7103Z" fill="#FF7B02"/>
<path d="M12.4091 10.3722C12.0795 10.0426 11.5455 10.0426 11.2159 10.3722L9.52844 12.0597C9.19885 12.3893 9.19885 12.9232 9.52844 13.2528L11.2159 14.9403C11.3807 15.1051 11.5966 15.1875 11.8125 15.1875C12.0284 15.1875 12.2443 15.1051 12.4091 14.9403C12.7386 14.6107 12.7386 14.0768 12.4091 13.7472L11.3181 12.6562L12.4091 11.5653C12.7386 11.2357 12.7386 10.7018 12.4091 10.3722Z" fill="#FF7B02"/>
<path d="M17.4716 12.0597L15.7841 10.3722C15.4545 10.0426 14.9205 10.0426 14.5909 10.3722C14.2614 10.7018 14.2614 11.2357 14.5909 11.5653L15.6819 12.6562L14.5909 13.7472C14.2614 14.0768 14.2614 14.6107 14.5909 14.9403C14.7557 15.1051 14.9716 15.1875 15.1875 15.1875C15.4034 15.1875 15.6193 15.1051 15.7841 14.9403L17.4716 13.2528C17.8011 12.9232 17.8011 12.3893 17.4716 12.0597Z" fill="#FF7B02"/>
</svg>
