<svg width="28" height="28" viewBox="0 0 28 28" fill="none" xmlns="http://www.w3.org/2000/svg">
<path d="M24.1172 11.5439H21.9052V0H10.6326L6.09481 4.6935V11.5439H3.88281V16.4658H5.52344V18.7132L11.5391 24.8929V28H16.4609V24.8929L22.4766 18.7132V16.4658H24.1172V11.5439ZM10.5546 2.44103V4.61284H8.45485L10.5546 2.44103ZM7.73544 6.25346H12.1953V1.64062H20.2646V11.5439H7.73544V6.25346ZM20.8359 18.0465L14.8203 24.2261V26.3594H13.1797V24.2261L7.16406 18.0465V16.4658H20.8359V18.0465ZM22.4766 14.8252H5.52344V13.1846H22.4766V14.8252Z" fill="white"/>
<path d="M9.37695 7.89453H18.6248V9.53516H9.37695V7.89453Z" fill="#FF7B02"/>
<path d="M13.8359 4.61328H18.624V6.25391H13.8359V4.61328Z" fill="#FF7B02"/>
</svg>
