<svg width="28" height="28" viewBox="0 0 28 28" fill="none" xmlns="http://www.w3.org/2000/svg">
<g clip-path="url(#clip0_30_14958)">
<path d="M14.2797 7.78333C13.96 7.77772 13.6413 7.821 13.3347 7.91166C12.991 8.00814 12.6585 8.14112 12.343 8.30833L11.748 6.73333C12.1456 6.48113 12.5837 6.29957 13.043 6.19666C13.5149 6.06936 14.001 6.00271 14.4897 5.99833C14.995 5.98102 15.4986 6.0643 15.9714 6.24333C16.3163 6.37608 16.6301 6.57864 16.893 6.83833C17.105 7.06977 17.2642 7.34441 17.3597 7.64333C17.4405 7.91221 17.4837 8.19096 17.488 8.47166C17.493 8.71402 17.4534 8.95523 17.3714 9.18333C17.2964 9.40128 17.1945 9.609 17.068 9.80166C16.9484 9.99203 16.8075 10.1682 16.648 10.3267C16.4964 10.5017 16.333 10.6533 16.193 10.805L15.843 11.1667C15.718 11.2879 15.6047 11.4207 15.5047 11.5633C15.4094 11.7031 15.3273 11.8516 15.2597 12.0067C15.1998 12.155 15.1681 12.3133 15.1664 12.4733V12.6367C15.1598 12.7026 15.1598 12.769 15.1664 12.835H13.3347C13.322 12.7304 13.322 12.6246 13.3347 12.52C13.3295 12.419 13.3295 12.3177 13.3347 12.2167C13.3318 11.9792 13.3672 11.7428 13.4397 11.5167C13.501 11.3087 13.5872 11.109 13.6964 10.9217C13.784 10.7429 13.8854 10.5713 13.9997 10.4083L14.4314 9.95333C14.6414 9.73166 14.8397 9.52166 15.0147 9.31166C15.1898 9.11157 15.2852 8.85417 15.283 8.58833C15.2842 8.48014 15.2619 8.37298 15.2176 8.27427C15.1733 8.17556 15.108 8.08766 15.0264 8.01666C14.8118 7.85528 14.548 7.77286 14.2797 7.78333ZM15.5864 14.7833C15.5984 14.9626 15.5688 15.1422 15.5 15.3081C15.4312 15.474 15.325 15.6218 15.1897 15.74C14.9391 15.9583 14.6179 16.0785 14.2855 16.0785C13.9532 16.0785 13.632 15.9583 13.3814 15.74C13.2461 15.6218 13.1399 15.474 13.0711 15.3081C13.0023 15.1422 12.9727 14.9626 12.9847 14.7833C12.9745 14.606 13.005 14.4287 13.0737 14.2649C13.1425 14.1012 13.2477 13.9553 13.3814 13.8383C13.632 13.62 13.9532 13.4998 14.2855 13.4998C14.6179 13.4998 14.9391 13.62 15.1897 13.8383C15.3283 13.9589 15.4365 14.1105 15.5054 14.2808C15.5744 14.4511 15.6021 14.6353 15.5864 14.8183V14.7833Z" fill="#FF7B02"/>
<path d="M21 23.3333H18.6667C18.3572 23.3333 18.0605 23.2104 17.8417 22.9916C17.6229 22.7728 17.5 22.4761 17.5 22.1667C17.5 21.8572 17.6229 21.5605 17.8417 21.3417C18.0605 21.1229 18.3572 21 18.6667 21H21C21.3094 21 21.6062 20.8771 21.825 20.6583C22.0438 20.4395 22.1667 20.1428 22.1667 19.8333V3.5C22.1667 3.19058 22.0438 2.89383 21.825 2.67504C21.6062 2.45625 21.3094 2.33333 21 2.33333H7C6.69058 2.33333 6.39383 2.45625 6.17504 2.67504C5.95625 2.89383 5.83333 3.19058 5.83333 3.5V19.8333C5.83333 20.1428 5.95625 20.4395 6.17504 20.6583C6.39383 20.8771 6.69058 21 7 21H14C14.3094 21 14.6062 21.1229 14.825 21.3417C15.0437 21.5605 15.1667 21.8572 15.1667 22.1667C15.1667 22.4761 15.0437 22.7728 14.825 22.9916C14.6062 23.2104 14.3094 23.3333 14 23.3333H7C6.07174 23.3333 5.1815 22.9646 4.52513 22.3082C3.86875 21.6518 3.5 20.7616 3.5 19.8333V3.5C3.5 2.57174 3.86875 1.6815 4.52513 1.02513C5.1815 0.368749 6.07174 0 7 0L21 0C21.9283 0 22.8185 0.368749 23.4749 1.02513C24.1313 1.6815 24.5 2.57174 24.5 3.5V19.8333C24.5 20.7616 24.1313 21.6518 23.4749 22.3082C22.8185 22.9646 21.9283 23.3333 21 23.3333Z" fill="white"/>
<path d="M14.0007 28C13.6912 28 13.3945 27.8771 13.1757 27.6583C12.9569 27.4395 12.834 27.1428 12.834 26.8333V22.1667C12.834 21.8572 12.9569 21.5605 13.1757 21.3417C13.3945 21.1229 13.6912 21 14.0007 21C14.3101 21 14.6068 21.1229 14.8256 21.3417C15.0444 21.5605 15.1673 21.8572 15.1673 22.1667V26.8333C15.1673 27.1428 15.0444 27.4395 14.8256 27.6583C14.6068 27.8771 14.3101 28 14.0007 28Z" fill="white"/>
<path d="M13.9996 28.0009C13.8461 28.0018 13.6939 27.9723 13.5517 27.9143C13.4096 27.8562 13.2803 27.7707 13.1713 27.6625C13.0619 27.5541 12.9751 27.425 12.9159 27.2829C12.8567 27.1407 12.8262 26.9882 12.8262 26.8342C12.8262 26.6802 12.8567 26.5277 12.9159 26.3855C12.9751 26.2434 13.0619 26.1143 13.1713 26.0059L17.8379 21.3392C18.0576 21.1195 18.3556 20.9961 18.6663 20.9961C18.977 20.9961 19.2749 21.1195 19.4946 21.3392C19.7143 21.5589 19.8377 21.8568 19.8377 22.1675C19.8377 22.4782 19.7143 22.7762 19.4946 22.9959L14.8279 27.6625C14.7189 27.7707 14.5896 27.8562 14.4475 27.9143C14.3054 27.9723 14.1531 28.0018 13.9996 28.0009Z" fill="white"/>
</g>
<defs>
<clipPath id="clip0_30_14958">
<rect width="28" height="28" fill="white"/>
</clipPath>
</defs>
</svg>
