<svg width="29" height="29" viewBox="0 0 29 29" fill="none" xmlns="http://www.w3.org/2000/svg">
<g clip-path="url(#clip0_30_14978)">
<path d="M23.8457 0H18.748V11.9512H17.0488V3.39844H11.9512V11.9512H10.252V8.55273H5.1543V11.9512H0V16.9511L2.94769 17.3121C3.23645 18.509 3.7035 19.6392 4.34139 20.6846L2.55517 22.9811L6.01886 26.4448L8.31541 24.6586C9.36083 25.2966 10.491 25.7636 11.6878 26.0523L12.0489 29H16.9511L17.3121 26.0523C18.509 25.7636 19.6392 25.2965 20.6846 24.6586L22.9811 26.4448L26.4448 22.9811L24.6586 20.6846C25.2966 19.6392 25.7636 18.509 26.0523 17.3121L29 16.9511V11.9512H23.8457V0ZM20.4473 1.69922H22.1465V11.9512H20.4473V1.69922ZM13.6504 5.09766H15.3496V11.9512H13.6504V5.09766ZM20.3863 13.6504C19.9728 16.5287 17.4909 18.748 14.5 18.748C11.5091 18.748 9.02721 16.5287 8.61368 13.6504H20.3863ZM6.85352 10.252H8.55273V11.9512H6.85352V10.252ZM27.3008 13.6504V15.4473L24.6279 15.7747C24.532 16.1222 24.3946 18.0916 22.9166 20.25L22.5661 20.762L24.1827 22.8403L22.8403 24.1826L20.762 22.5661C20.4367 22.7503 18.9724 24.0292 16.3861 24.5134L15.7748 24.6279L15.4473 27.3008H13.5527L13.2253 24.6279L12.614 24.5134C10.0271 24.029 8.56185 22.7494 8.23804 22.5661L6.15972 24.1826L4.81734 22.8403L6.43387 20.762L6.08337 20.2501C4.6089 18.0967 4.47098 16.1331 4.37215 15.7748L1.69922 15.4473V13.6504H6.90098C7.32499 17.4683 10.5709 20.4473 14.5 20.4473C18.4291 20.4473 21.675 17.4683 22.099 13.6504H27.3008Z" fill="white"/>
<path d="M13 13V4H16V13" stroke="#FF7B02" stroke-width="2"/>
</g>
<defs>
<clipPath id="clip0_30_14978">
<rect width="29" height="29" fill="white"/>
</clipPath>
</defs>
</svg>
