<svg width="33" height="33" viewBox="0 0 33 33" fill="none" xmlns="http://www.w3.org/2000/svg">
<path d="M17.0046 19.6551L17.6027 20.8823C17.6438 20.9636 17.7035 21.0339 17.777 21.0877C17.8505 21.1415 17.9356 21.1771 18.0255 21.1917L19.3765 21.3876C19.4791 21.4026 19.5756 21.446 19.6549 21.5128C19.7342 21.5797 19.7933 21.6674 19.8255 21.766C19.8576 21.8647 19.8616 21.9703 19.8369 22.0711C19.8123 22.1719 19.7599 22.2637 19.6858 22.3364L18.7061 23.2851C18.6421 23.3489 18.5946 23.4273 18.5677 23.5135C18.5407 23.5998 18.5352 23.6912 18.5515 23.7801L18.7783 25.1311C18.797 25.2344 18.786 25.341 18.7467 25.4384C18.7074 25.5358 18.6413 25.6201 18.5562 25.6816C18.471 25.7431 18.3701 25.7792 18.2653 25.7858C18.1604 25.7924 18.0559 25.7692 17.9636 25.7189L16.7571 25.0795C16.6773 25.0388 16.5889 25.0175 16.4993 25.0175C16.4096 25.0175 16.3213 25.0388 16.2415 25.0795L15.0349 25.7189C14.9427 25.7692 14.8381 25.7924 14.7333 25.7858C14.6284 25.7792 14.5276 25.7431 14.4424 25.6816C14.3572 25.6201 14.2911 25.5358 14.2518 25.4384C14.2125 25.341 14.2015 25.2344 14.2202 25.1311L14.4368 23.7801C14.4509 23.6904 14.4433 23.5987 14.4146 23.5125C14.3859 23.4264 14.3369 23.3484 14.2718 23.2851L13.2921 22.3364C13.218 22.2637 13.1657 22.1719 13.141 22.0711C13.1163 21.9703 13.1203 21.8647 13.1524 21.766C13.1846 21.6674 13.2437 21.5797 13.323 21.5128C13.4024 21.446 13.4988 21.4026 13.6015 21.3876L14.9524 21.1917C15.0423 21.1771 15.1274 21.1415 15.2009 21.0877C15.2744 21.0339 15.3341 20.9636 15.3752 20.8823L15.9733 19.6551C16.0186 19.5564 16.0912 19.4727 16.1826 19.4141C16.274 19.3554 16.3804 19.3242 16.489 19.3242C16.5976 19.3242 16.7039 19.3554 16.7953 19.4141C16.8867 19.4727 16.9593 19.5564 17.0046 19.6551Z" fill="#FF7B02"/>
<path d="M22.4503 18.4078L21.3675 16.6547L23.5228 15.3347C23.8958 15.1041 24.2041 14.7825 24.4188 14.4001C24.6334 14.0176 24.7474 13.587 24.75 13.1484V4.125H8.25V13.1381C8.25194 13.5794 8.36665 14.0128 8.58324 14.3973C8.79983 14.7817 9.1111 15.1044 9.4875 15.3347L11.4778 16.5L10.4466 18.2634L8.42531 17.0981C7.74445 16.6849 7.18112 16.1037 6.78928 15.4104C6.39744 14.717 6.19023 13.9346 6.1875 13.1381V2.0625H26.8125V13.1484C26.8102 13.9412 26.6053 14.7202 26.2172 15.4114C25.8292 16.1027 25.2709 16.6833 24.5953 17.0981L22.4503 18.4078Z" fill="white"/>
<path d="M16.5001 30.8634C14.8827 30.8634 13.3016 30.3838 11.9567 29.4852C10.6119 28.5866 9.56373 27.3094 8.94477 25.8151C8.32581 24.3208 8.16386 22.6766 8.4794 21.0902C8.79495 19.5039 9.57381 18.0467 10.7175 16.903C11.8612 15.7594 13.3183 14.9805 14.9047 14.665C16.491 14.3494 18.1353 14.5114 19.6296 15.1303C21.1239 15.7493 22.4011 16.7974 23.2997 18.1423C24.1983 19.4871 24.6779 21.0682 24.6779 22.6856C24.6752 24.8537 23.8127 26.9322 22.2797 28.4652C20.7466 29.9982 18.6681 30.8607 16.5001 30.8634ZM16.5001 16.5703C15.2906 16.5703 14.1083 16.929 13.1026 17.6009C12.0969 18.2729 11.3131 19.228 10.8503 20.3454C10.3874 21.4628 10.2663 22.6924 10.5023 23.8787C10.7382 25.0649 11.3207 26.1546 12.1759 27.0098C13.0311 27.865 14.1208 28.4475 15.307 28.6834C16.4933 28.9194 17.7229 28.7983 18.8403 28.3354C19.9577 27.8726 20.9128 27.0888 21.5848 26.0831C22.2567 25.0775 22.6154 23.8951 22.6154 22.6856C22.6127 21.0646 21.9675 19.5107 20.8212 18.3645C19.675 17.2182 18.1211 16.573 16.5001 16.5703Z" fill="white"/>
<path d="M15.4688 2.0625H17.5312V15.0872H15.4688V2.0625Z" fill="white"/>
</svg>
