<svg width="27" height="27" viewBox="0 0 27 27" fill="none" xmlns="http://www.w3.org/2000/svg">
<g clip-path="url(#clip0_30_14920)">
<path d="M26.1565 15.7733C26.1548 13.7323 22.8414 12.6641 19.5685 12.6641C16.2956 12.6641 12.9822 13.7314 12.9805 15.7733V19.4048V23.0354C12.9805 25.0765 16.2947 26.1447 19.5693 26.1447C22.8439 26.1447 26.1565 25.0756 26.1565 23.0346V19.4039V15.7733ZM24.469 19.4039C24.469 19.7701 22.784 20.8265 19.5676 20.8265C16.3513 20.8265 14.6663 19.7701 14.6663 19.4039V17.9189C15.9344 18.5577 17.7552 18.8859 19.5676 18.8859C21.38 18.8859 23.2008 18.5568 24.469 17.9189V19.4039ZM19.5676 14.3516C22.784 14.3516 24.469 15.4088 24.469 15.775C24.469 16.1412 22.784 17.1992 19.5676 17.1992C16.3513 17.1992 14.6663 16.1412 14.6663 15.775C14.6663 15.4088 16.3521 14.3516 19.5676 14.3516ZM19.5676 24.4563C16.3513 24.4563 14.6663 23.3999 14.6663 23.0346V21.5479C15.9344 22.1858 17.7552 22.514 19.5676 22.514C21.38 22.514 23.2008 22.1858 24.469 21.5479V23.0346C24.469 23.3999 22.784 24.4563 19.5676 24.4563Z" fill="white"/>
<path d="M14.0206 11.2299V7.59925V3.96944C14.0198 1.92756 10.7055 0.859375 7.43259 0.859375C4.15969 0.859375 0.844594 1.92756 0.84375 3.96859V7.59841V11.2291C0.84375 13.2701 4.158 14.3383 7.43259 14.3383C10.7072 14.3383 14.0206 13.2709 14.0206 11.2299ZM2.53125 6.11341C3.79941 6.75213 5.62022 7.08034 7.43259 7.08034C9.24497 7.08034 11.0658 6.75128 12.3339 6.11341V7.59925C12.3339 7.96459 10.649 9.02097 7.43259 9.02097C4.21622 9.02097 2.53125 7.96459 2.53125 7.59925V6.11341ZM7.43259 2.54603C10.649 2.54603 12.3339 3.60325 12.3339 3.96944C12.3339 4.33563 10.6481 5.39284 7.43259 5.39284C4.21706 5.39284 2.53125 4.33563 2.53125 3.96944C2.53125 3.60325 4.21622 2.54603 7.43259 2.54603ZM2.53125 11.2299V9.74237C3.79941 10.3802 5.62022 10.7085 7.43259 10.7085C9.24497 10.7085 11.0658 10.3802 12.3339 9.74237V11.2299C12.3339 11.5952 10.649 12.6516 7.43259 12.6516C4.21622 12.6516 2.53125 11.5952 2.53125 11.2299Z" fill="white"/>
<path d="M9.20738 22.714H6.60273C6.13782 22.714 5.75898 22.336 5.75898 21.8702V20.3051L6.26691 20.813C6.43145 20.9776 6.64745 21.0602 6.86345 21.0602C7.07945 21.0602 7.29544 20.9776 7.45998 20.813C7.78988 20.4831 7.78988 19.9499 7.45998 19.62L5.51176 17.6709C5.19535 17.3545 4.6351 17.3545 4.3187 17.6709L2.37048 19.62C2.04057 19.9499 2.04057 20.4831 2.37048 20.813C2.70038 21.1429 3.23363 21.1429 3.56354 20.813L4.07148 20.3051V21.8702C4.07148 23.2658 5.20716 24.4015 6.60273 24.4015H9.20654C9.67229 24.4015 10.0503 24.0243 10.0503 23.5577C10.0503 23.0911 9.67313 22.714 9.20738 22.714Z" fill="#FF7B02"/>
<path d="M17.793 4.28906H20.3976C20.8634 4.28906 21.2414 4.66791 21.2414 5.13281V6.69712L20.7334 6.18919C20.4035 5.85928 19.8703 5.85928 19.5404 6.18919C19.2105 6.51825 19.2105 7.05234 19.5404 7.38225L21.4886 9.33047C21.6472 9.48909 21.8607 9.57769 22.0851 9.57769C22.3096 9.57769 22.5239 9.48909 22.6817 9.33047L24.6299 7.38225C24.9598 7.05234 24.9598 6.51825 24.6299 6.18919C24.3 5.85928 23.7667 5.85928 23.4368 6.18919L22.9289 6.69712V5.13281C22.9289 3.73725 21.7932 2.60156 20.3976 2.60156H17.793C17.3264 2.60156 16.9492 2.97956 16.9492 3.44531C16.9492 3.91106 17.3264 4.28906 17.793 4.28906Z" fill="#FF7B02"/>
</g>
<defs>
<clipPath id="clip0_30_14920">
<rect width="27" height="27" fill="white"/>
</clipPath>
</defs>
</svg>
