<svg width="26" height="26" viewBox="0 0 26 26" fill="none" xmlns="http://www.w3.org/2000/svg">
<g clip-path="url(#clip0_30_15078)">
<path d="M20.9219 0H5.07812C2.27805 0 0 2.27805 0 5.07812V16.8594C0 19.6595 2.27805 21.9375 5.07812 21.9375H11.9844V23.9688H8.9375C8.37657 23.9688 7.92188 24.4234 7.92188 24.9844C7.92188 25.5453 8.37657 26 8.9375 26H17.0625C17.6234 26 18.0781 25.5453 18.0781 24.9844C18.0781 24.4234 17.6234 23.9688 17.0625 23.9688H14.0156V20.9219C14.0156 20.3609 13.5609 19.9062 13 19.9062H5.07812C3.39808 19.9062 2.03125 18.5394 2.03125 16.8594V5.07812C2.03125 3.39808 3.39808 2.03125 5.07812 2.03125H20.9219C22.6019 2.03125 23.9688 3.39808 23.9688 5.07812V16.8594C23.9688 18.5394 22.6019 19.9062 20.9219 19.9062H17.0625C16.5016 19.9062 16.0469 20.3609 16.0469 20.9219C16.0469 21.4828 16.5016 21.9375 17.0625 21.9375H20.9219C23.722 21.9375 26 19.6595 26 16.8594V5.07812C26 2.27805 23.722 0 20.9219 0Z" fill="white"/>
<path d="M10.9688 13.8125C11.5297 13.8125 11.9844 13.3578 11.9844 12.7969C11.9844 12.236 11.5297 11.7812 10.9688 11.7812C10.4078 11.7812 9.95312 12.236 9.95312 12.7969C9.95312 13.3578 10.4078 13.8125 10.9688 13.8125Z" fill="#FF7B02"/>
<path d="M15.0312 13.8125C15.5922 13.8125 16.0469 13.3578 16.0469 12.7969C16.0469 12.236 15.5922 11.7812 15.0312 11.7812C14.4703 11.7812 14.0156 12.236 14.0156 12.7969C14.0156 13.3578 14.4703 13.8125 15.0312 13.8125Z" fill="#FF7B02"/>
<path d="M20.9219 11.7812H20.1094V10.7656C20.1094 9.08558 18.7425 7.71875 17.0625 7.71875H14.0156V5.07812C14.0156 4.5172 13.5609 4.0625 13 4.0625C12.4391 4.0625 11.9844 4.5172 11.9844 5.07812V7.71875H8.9375C7.25745 7.71875 5.89062 9.08558 5.89062 10.7656V11.7812H5.07812C4.5172 11.7812 4.0625 12.2359 4.0625 12.7969C4.0625 13.3578 4.5172 13.8125 5.07812 13.8125H5.89062V14.8281C5.89062 16.5082 7.25745 17.875 8.9375 17.875H17.0625C18.7425 17.875 20.1094 16.5082 20.1094 14.8281V13.8125H20.9219C21.4828 13.8125 21.9375 13.3578 21.9375 12.7969C21.9375 12.2359 21.4828 11.7812 20.9219 11.7812ZM18.0781 14.8281C18.0781 15.3881 17.6225 15.8438 17.0625 15.8438H8.9375C8.37748 15.8438 7.92188 15.3881 7.92188 14.8281V10.7656C7.92188 10.2056 8.37748 9.75 8.9375 9.75H17.0625C17.6225 9.75 18.0781 10.2056 18.0781 10.7656V14.8281Z" fill="#FF7B02"/>
</g>
<defs>
<clipPath id="clip0_30_15078">
<rect width="26" height="26" fill="white"/>
</clipPath>
</defs>
</svg>
