<svg width="37" height="37" viewBox="0 0 37 37" fill="none" xmlns="http://www.w3.org/2000/svg">
<path d="M23.1131 31.2305C23.1131 31.8664 22.5928 32.3867 21.9569 32.3867H20.7891C20.9394 32.3867 21.1013 32.352 21.24 32.2942C21.8297 32.0398 22.1072 31.3577 21.8528 30.7795L21.5522 30.0742H21.9569C22.5928 30.0742 23.1131 30.583 23.1131 31.2305Z" fill="white"/>
<path d="M30.6645 14.5807C32.9192 12.326 32.9192 8.6607 30.6645 6.41758C28.4098 4.16289 24.7445 4.16289 22.4898 6.41758C20.2352 8.6607 20.2352 12.326 22.4898 14.5807C23.2761 15.367 24.2473 15.8757 25.2533 16.107V17.587C24.9411 17.7257 24.6405 17.9223 24.3861 18.1766C23.8427 18.7316 23.5536 19.4601 23.5652 20.2463L23.5998 22.5588C23.5998 23.322 23.9005 24.0504 24.4439 24.5937C24.9873 25.1371 25.7158 25.4262 26.4789 25.4262H26.4904C28.0745 25.4262 29.3579 24.1312 29.3579 22.5356L29.3116 20.1768C29.3002 19.009 28.5832 18.0031 27.5658 17.5637V16.1762C28.6989 15.9913 29.7858 15.4479 30.6645 14.5807ZM24.1317 12.9504C22.7789 11.5976 22.7789 9.4007 24.1317 8.04777C24.8023 7.37715 25.6927 7.03027 26.583 7.03027C27.4617 7.03027 28.352 7.37715 29.0227 8.04777C30.3755 9.40059 30.3755 11.5975 29.0227 12.9504C28.352 13.621 27.4733 13.9563 26.583 13.9563C26.5252 13.9448 26.4673 13.9448 26.4095 13.9448H26.3633C25.5539 13.8985 24.7561 13.5632 24.1317 12.9504ZM26.4789 23.1138C26.2707 23.1138 26.1436 23.0098 26.0742 22.952C26.0164 22.8941 25.9123 22.7554 25.9123 22.5357L25.8777 20.2116C25.8661 20.0035 25.9702 19.8648 26.0395 19.807C26.0973 19.7491 26.2361 19.6451 26.4327 19.6451C26.7448 19.6451 26.9992 19.8879 26.9992 20.2001L27.0455 22.5473C27.0455 22.8595 26.7911 23.1138 26.4789 23.1138Z" fill="#FF7B02"/>
<path d="M17.2894 22.5712C16.6504 22.5667 16.1369 22.0453 16.1414 21.4067L16.1499 20.1986C16.1543 19.586 16.6354 19.0836 17.2466 19.0518C17.4929 19.0394 17.7084 18.9021 17.8206 18.6849C17.9054 18.5229 17.9213 18.3378 17.8672 18.1642C17.8119 17.9899 17.6921 17.8473 17.5302 17.7632C17.3704 17.679 17.1854 17.663 17.01 17.7177C16.8357 17.7724 16.6937 17.8911 16.6101 18.0525C16.3159 18.6195 15.6176 18.8403 15.0506 18.5456C14.4847 18.2513 14.2639 17.5531 14.558 16.9866C14.9266 16.2761 15.5515 15.7527 16.3142 15.512C17.0793 15.2695 17.8895 15.3424 18.5995 15.7122C19.3082 16.082 19.8322 16.7057 20.073 17.4689C20.3126 18.2323 20.2413 19.043 19.8727 19.753C19.5602 20.352 19.0555 20.8198 18.4562 21.094L18.4539 21.4232C18.4494 22.0616 17.9286 22.5757 17.2894 22.5712Z" fill="white"/>
<path d="M26.8246 26.5936H7.41117C7.21461 26.5936 7.05273 26.4317 7.05273 26.2352V14.2217C7.05273 14.0252 7.21461 13.8633 7.41117 13.8633H18.5805C19.2165 13.8633 19.7368 13.3545 19.7368 12.707C19.7368 12.0711 19.2165 11.5508 18.5805 11.5508H7.41117C5.94273 11.5508 4.74023 12.7533 4.74023 14.2217V26.2352C4.74023 27.7036 5.94273 28.9061 7.41117 28.9061H13.574L13.0884 30.0739H12.7762C12.1402 30.0739 11.6199 30.5827 11.6199 31.2302C11.6199 31.8661 12.1402 32.3864 12.7762 32.3864H20.789C20.9393 32.3864 21.1012 32.3517 21.2399 32.2939C21.8296 32.0395 22.1071 31.3573 21.8527 30.7792L21.5521 30.0739L21.0665 28.9061H26.8246C27.4605 28.9061 27.9809 28.3858 27.9809 27.7498C27.9809 27.1139 27.4605 26.5936 26.8246 26.5936ZM18.569 28.9408L19.043 30.0739H15.5974L16.0715 28.9408C16.0715 28.9292 16.0829 28.9177 16.0829 28.9061H18.5573C18.5574 28.9177 18.569 28.9292 18.569 28.9408Z" fill="white"/>
<path d="M17.324 25.4258C16.6855 25.4258 16.1621 24.908 16.1621 24.2695C16.1621 23.631 16.6736 23.1133 17.3121 23.1133H17.324C17.9625 23.1133 18.4803 23.631 18.4803 24.2695C18.4803 24.908 17.9626 25.4258 17.324 25.4258Z" fill="white"/>
</svg>
