<svg width="28" height="28" viewBox="0 0 28 28" fill="none" xmlns="http://www.w3.org/2000/svg">
<path d="M20.5625 28H7.4375C4.42203 28 1.96875 25.5467 1.96875 22.5312V5.46875C1.96875 2.45328 4.42203 0 7.4375 0H18.7503C20.2111 0 21.5844 0.568859 22.6173 1.6018L24.4295 3.41398C25.4624 4.44691 26.0313 5.82023 26.0313 7.28098V7.65625C26.0313 8.26033 25.5416 8.75 24.9376 8.75H20.5626C18.7533 8.75 17.2813 7.27803 17.2813 5.46875V2.1875H7.4375C5.62822 2.1875 4.15625 3.65947 4.15625 5.46875V22.5312C4.15625 24.3405 5.62822 25.8125 7.4375 25.8125H20.5625C22.3718 25.8125 23.8438 24.3405 23.8438 22.5312V12.0312C23.8438 11.4272 24.3334 10.9375 24.9375 10.9375C25.5416 10.9375 26.0312 11.4272 26.0312 12.0312V22.5312C26.0312 25.5467 23.578 28 20.5625 28ZM19.4688 2.26592V5.46875C19.4688 6.07184 19.9594 6.5625 20.5625 6.5625H23.7653C23.6315 5.96039 23.3294 5.4075 22.8827 4.96076L21.0705 3.14858C20.6238 2.70184 20.0709 2.39974 19.4688 2.26592Z" fill="white"/>
<path d="M20.5625 19.25H19.4688V12.0312C19.4688 11.4272 18.9791 10.9375 18.375 10.9375C17.7709 10.9375 17.2812 11.4272 17.2812 12.0312V19.25H15.0938V14.2188C15.0938 13.6147 14.6041 13.125 14 13.125C13.3959 13.125 12.9062 13.6147 12.9062 14.2188V19.25H10.7188V16.4062C10.7188 15.8022 10.2291 15.3125 9.625 15.3125C9.02092 15.3125 8.53125 15.8022 8.53125 16.4062V19.25H7.4375C6.83342 19.25 6.34375 19.7397 6.34375 20.3438C6.34375 20.9478 6.83342 21.4375 7.4375 21.4375H20.5625C21.1666 21.4375 21.6562 20.9478 21.6562 20.3438C21.6562 19.7397 21.1666 19.25 20.5625 19.25Z" fill="#FF7B02"/>
<path d="M11.8125 8.75H7.4375C6.83342 8.75 6.34375 8.26033 6.34375 7.65625C6.34375 7.05217 6.83342 6.5625 7.4375 6.5625H11.8125C12.4166 6.5625 12.9062 7.05217 12.9062 7.65625C12.9062 8.26033 12.4166 8.75 11.8125 8.75Z" fill="white"/>
</svg>
