<svg width="30" height="30" viewBox="0 0 30 30" fill="none" xmlns="http://www.w3.org/2000/svg">
<path d="M14.5658 2.02157C14.2587 1.82614 13.8663 1.82614 13.5592 2.02157L11.4734 3.34884C9.58181 4.55261 7.42976 5.28661 5.1968 5.4896L3.66512 5.62885C3.18224 5.67274 2.8125 6.07762 2.8125 6.5625V15.4786C2.8125 19.0044 4.61385 22.286 7.58847 24.1789L13.5592 27.9785C13.8663 28.1738 14.2587 28.1738 14.5658 27.9785L16.2525 26.9051C15.6823 26.5589 15.1564 26.1471 14.6852 25.68L14.0625 26.0763L8.59512 22.597C6.16133 21.0483 4.6875 18.3634 4.6875 15.4786V7.41863L5.36655 7.35691C7.89725 7.12684 10.3362 6.29498 12.4801 4.93071L14.0625 3.92373L15.6449 4.93071C17.7888 6.29498 20.2278 7.12684 22.7585 7.35691L23.4375 7.41863V11.7301C24.1051 11.9661 24.7341 12.2836 25.3125 12.6708V6.5625C25.3125 6.07762 24.9427 5.67274 24.4598 5.62885L22.9282 5.4896C20.6952 5.28661 18.5432 4.55261 16.6515 3.34884L14.5658 2.02157Z" fill="white"/>
<path d="M23.7488 18.3326C24.036 17.9019 23.9195 17.3198 23.4888 17.0325C23.058 16.7454 22.4759 16.8618 22.1886 17.2926L20.0105 20.5598L18.9441 19.4934C18.578 19.1274 17.9844 19.1274 17.6183 19.4934C17.2522 19.8595 17.2522 20.4532 17.6183 20.8193L19.4933 22.6943C19.6919 22.8928 19.9691 22.9919 20.2486 22.9643C20.5281 22.9366 20.7805 22.7851 20.9363 22.5514L23.7488 18.3326Z" fill="#FF7B02"/>
<path fill-rule="evenodd" clip-rule="evenodd" d="M14.0625 19.6875C14.0625 16.0631 17.0006 13.125 20.625 13.125C24.2494 13.125 27.1875 16.0631 27.1875 19.6875C27.1875 23.3119 24.2494 26.25 20.625 26.25C17.0006 26.25 14.0625 23.3119 14.0625 19.6875ZM20.625 15C18.0362 15 15.9375 17.0987 15.9375 19.6875C15.9375 22.2763 18.0362 24.375 20.625 24.375C23.2138 24.375 25.3125 22.2763 25.3125 19.6875C25.3125 17.0987 23.2138 15 20.625 15Z" fill="#FF7B02"/>
</svg>
