<svg width="29" height="29" viewBox="0 0 29 29" fill="none" xmlns="http://www.w3.org/2000/svg">
<path d="M26.3819 17.9746C27.0422 15.7173 27.0414 13.2954 26.3798 11.0272C27.4771 10.1198 27.7945 8.52339 27.0593 7.25C26.3246 5.97746 24.785 5.45398 23.451 5.94896C21.8264 4.2485 19.7285 3.03815 17.4333 2.47706C17.1961 1.07306 15.9723 0 14.5019 0C13.0324 0 11.8092 1.07164 11.571 2.47429C9.28612 3.03107 7.18917 4.24255 5.55566 5.94953C4.98076 5.73447 4.35493 5.70241 3.75013 5.86446C2.98287 6.07006 2.34164 6.5621 1.94454 7.25C1.20979 8.5226 1.5263 10.1177 2.6219 11.0254C1.96164 13.2826 1.96238 15.7045 2.62405 17.9728C1.5267 18.8802 1.20928 20.4765 1.94448 21.75C2.34164 22.4379 2.98287 22.9299 3.75007 23.1355C4.00625 23.2041 4.26624 23.2381 4.52452 23.2381C4.87495 23.2381 5.22193 23.1741 5.55243 23.0509C7.17717 24.7514 9.27514 25.9619 11.5704 26.523C11.8077 27.9269 13.0314 29 14.5019 29C15.9713 29 17.1945 27.9284 17.4327 26.5257C19.7175 25.9689 21.8144 24.7576 23.4478 23.0507C23.7837 23.1758 24.1328 23.2362 24.479 23.2362C25.5074 23.2361 26.5091 22.7028 27.0592 21.7499C27.794 20.4775 27.4775 18.8823 26.3819 17.9746ZM25.5877 8.09961C25.939 8.70816 25.7298 9.48912 25.1213 9.84052C24.5128 10.1919 23.7318 9.98268 23.3804 9.37408C23.0291 8.76548 23.2383 7.98452 23.8468 7.63317C24.047 7.51757 24.2658 7.46269 24.4819 7.46269C24.9226 7.46263 25.3519 7.69129 25.5877 8.09961ZM14.5019 1.69922C15.2046 1.69922 15.7763 2.27089 15.7763 2.97363C15.7763 3.67637 15.2046 4.24805 14.5019 4.24805C13.7991 4.24805 13.2275 3.67637 13.2275 2.97363C13.2275 2.27089 13.7991 1.69922 14.5019 1.69922ZM3.41612 8.09961C3.58626 7.80479 3.86108 7.59392 4.18994 7.50585C4.29971 7.47639 4.41112 7.46189 4.52185 7.46189C4.74264 7.46189 4.96065 7.51978 5.15697 7.63317C5.76557 7.98457 5.9748 8.76553 5.62346 9.37408C5.27206 9.98263 4.4911 10.1918 3.88255 9.84057C3.274 9.48912 3.06472 8.70821 3.41612 8.09961ZM4.18994 21.4942C3.86114 21.406 3.58632 21.1952 3.41612 20.9004C3.06477 20.2918 3.274 19.5109 3.88255 19.1595C4.49121 18.8081 5.27212 19.0174 5.62346 19.6259C5.9748 20.2345 5.76557 21.0154 5.15697 21.3668C4.86221 21.5371 4.51874 21.5823 4.18994 21.4942ZM14.5019 27.3008C13.7991 27.3008 13.2275 26.7291 13.2275 26.0264C13.2275 25.3236 13.7991 24.752 14.5019 24.752C15.2046 24.752 15.7763 25.3236 15.7763 26.0264C15.7763 26.7291 15.2046 27.3008 14.5019 27.3008ZM17.2217 24.8264C16.7595 23.7829 15.7147 23.0527 14.5019 23.0527C13.29 23.0527 12.2459 23.7818 11.7831 24.8239C9.941 24.3376 8.25509 23.3654 6.91996 22.0198C7.13429 21.7267 7.29526 21.394 7.39206 21.0328C7.59761 20.2656 7.49215 19.4643 7.09498 18.7764C6.48904 17.7269 5.33567 17.1873 4.20172 17.3076C3.7017 15.4687 3.70073 13.5221 4.19889 11.6927C4.30413 11.704 4.40959 11.7099 4.51472 11.7099C5.54314 11.7099 6.54483 11.1765 7.09498 10.2236C7.49215 9.53573 7.59767 8.73444 7.39206 7.96718C7.29549 7.60689 7.13508 7.27492 6.92155 6.98243C8.26399 5.63047 9.94899 4.65671 11.782 4.17362C12.2442 5.21711 13.2891 5.94727 14.5019 5.94727C15.7137 5.94727 16.7578 5.21824 17.2206 4.17606C19.0633 4.66254 20.7497 5.63512 22.0849 6.98135C21.4124 7.90335 21.3024 9.17329 21.9088 10.2236C22.4589 11.1766 23.4605 11.7098 24.489 11.7098C24.5933 11.7098 24.6978 11.704 24.8022 11.6929C25.3022 13.5318 25.303 15.4784 24.8048 17.3078C23.67 17.1864 22.5152 17.726 21.9088 18.7764C21.3029 19.8259 21.4122 21.0946 22.0833 22.0164C20.7407 23.369 19.0553 24.3432 17.2217 24.8264ZM25.5877 20.9004C25.2364 21.509 24.4554 21.7182 23.8468 21.3669C23.2383 21.0155 23.0291 20.2346 23.3804 19.626C23.6161 19.2176 24.0454 18.989 24.4862 18.989C24.7022 18.989 24.9211 19.0439 25.1213 19.1595C25.7298 19.5109 25.939 20.2918 25.5877 20.9004Z" fill="white"/>
<path d="M8.5 11.0345V17.9627L14.5001 21.4269L20.5002 17.9627V11.0345L14.5001 7.57031L8.5 11.0345ZM17.9514 11.525L14.5001 13.5176L11.0488 11.525L14.5001 9.53234L17.9514 11.525ZM10.1992 12.9965L13.6505 14.9891V18.9743L10.1992 16.9817V12.9965ZM15.3497 18.9743V14.9891L18.801 12.9965V16.9817L15.3497 18.9743Z" fill="#FF7B02"/>
</svg>
