<svg width="28" height="28" viewBox="0 0 28 28" fill="none" xmlns="http://www.w3.org/2000/svg">
<g clip-path="url(#clip0_30_15054)">
<path d="M22.7175 11.5316C22.7738 11.3214 22.7443 11.0975 22.6355 10.9091L20.9949 8.06745C20.8861 7.87905 20.7069 7.74156 20.4968 7.68523C20.2868 7.62896 20.0628 7.65838 19.8744 7.76721L18.7895 8.39355C18.1096 7.81687 17.3202 7.36597 16.4616 7.06393V5.79688C16.4616 5.34384 16.0944 4.97656 15.6413 4.97656H12.3601C11.907 4.97656 11.5398 5.34384 11.5398 5.79688V7.06393C10.6812 7.36597 9.89176 7.81687 9.21194 8.39355L8.12705 7.76721C7.93865 7.65838 7.71448 7.62891 7.50459 7.68523C7.29443 7.74151 7.11527 7.87899 7.0065 8.06745L5.36587 10.9091C5.2571 11.0975 5.22762 11.3215 5.2839 11.5316C5.34023 11.7417 5.47771 11.9209 5.66611 12.0297L6.7609 12.6617C6.66394 13.1333 6.61784 13.5688 6.61784 14C6.61784 14.4312 6.66394 14.8667 6.76079 15.3383L5.666 15.9703C5.4776 16.0791 5.34012 16.2583 5.28379 16.4684C5.22752 16.6786 5.25699 16.9025 5.36577 17.0909L7.00639 19.9326C7.11516 20.121 7.29437 20.2584 7.50448 20.3148C7.7147 20.3711 7.93859 20.3416 8.12694 20.2328L9.21183 19.6065C9.8917 20.1831 10.6811 20.634 11.5397 20.9361V22.2031C11.5397 22.6562 11.9069 23.0234 12.36 23.0234H15.6412C16.0942 23.0234 16.4615 22.6562 16.4615 22.2031V20.9361C17.3201 20.634 18.1095 20.1831 18.7894 19.6065L19.8743 20.2328C20.0626 20.3416 20.2867 20.371 20.4967 20.3148C20.7069 20.2585 20.886 20.121 20.9948 19.9326L22.6354 17.0909C22.7442 16.9025 22.7737 16.6785 22.7174 16.4684C22.6611 16.2583 22.5236 16.0791 22.3352 15.9703L21.2404 15.3383C21.3374 14.8667 21.3835 14.4312 21.3835 14C21.3835 13.5688 21.3374 13.1333 21.2405 12.6617L22.3353 12.0297C22.5237 11.9209 22.6611 11.7417 22.7175 11.5316ZM19.5082 12.4776C19.6683 13.0543 19.7428 13.5381 19.7428 14C19.7428 14.4619 19.6683 14.9457 19.5082 15.5224C19.4083 15.8828 19.5646 16.2652 19.8885 16.4522L20.8045 16.981L19.9842 18.4017L19.0858 17.8831C18.762 17.6961 18.3526 17.7518 18.0906 18.0185C17.3769 18.7448 16.4586 19.2694 15.4348 19.5355C15.0733 19.6295 14.8209 19.9559 14.8209 20.3295V21.3828H13.1803V20.3295C13.1803 19.9559 12.9279 19.6295 12.5664 19.5355C11.5426 19.2694 10.6243 18.7449 9.91062 18.0185C9.64851 17.7517 9.23901 17.6961 8.91537 17.8831L8.01696 18.4017L7.19665 16.981L8.11266 16.4522C8.43658 16.2652 8.59293 15.8828 8.49296 15.5224C8.333 14.9457 8.25846 14.4619 8.25846 14C8.25846 13.5381 8.333 13.0543 8.49307 12.4776C8.59304 12.1172 8.43669 11.7348 8.11277 11.5478L7.19676 11.019L8.01707 9.59826L8.91548 10.1169C9.23934 10.3038 9.64862 10.2482 9.91073 9.98145C10.6244 9.2552 11.5427 8.73064 12.5665 8.46448C12.928 8.37047 13.1804 8.04409 13.1804 7.67052V6.61719H14.821V7.67052C14.821 8.04409 15.0734 8.37047 15.4349 8.46448C16.4587 8.73064 17.377 9.25515 18.0907 9.98145C18.3527 10.2482 18.7622 10.3038 19.0859 10.1169L19.9843 9.59826L20.8046 11.019L19.8886 11.5478C19.5646 11.7348 19.4083 12.1172 19.5082 12.4776Z" fill="#FF7B02"/>
<path d="M14 9.89844C11.7384 9.89844 9.89844 11.7384 9.89844 14C9.89844 16.2616 11.7384 18.1016 14 18.1016C16.2616 18.1016 18.1016 16.2616 18.1016 14C18.1016 11.7384 16.2616 9.89844 14 9.89844ZM14 16.4609C12.643 16.4609 11.5391 15.357 11.5391 14C11.5391 12.643 12.643 11.5391 14 11.5391C15.357 11.5391 16.4609 12.643 16.4609 14C16.4609 15.357 15.357 16.4609 14 16.4609Z" fill="#FF7B02"/>
<path d="M25.0208 6.45941C25.3544 6.12582 25.219 5.61985 25.219 5.61985L24.0589 2.13954C23.9156 1.7097 23.451 1.47738 23.0212 1.62072C22.5915 1.764 22.3592 2.22857 22.5024 2.65836L22.601 2.95416C21.8649 2.39389 21.0717 1.90012 20.2366 1.48591C18.2768 0.513844 16.1202 0 14 0C10.2807 0 6.77064 1.46185 4.11627 4.11622C1.4618 6.77064 0 10.2808 0 14C0 15.7178 0.360883 17.4775 1.07248 19.2305C1.20187 19.5492 1.50883 19.7424 1.8328 19.7424C1.93555 19.7424 2.04006 19.723 2.14112 19.682C2.56091 19.5115 2.76303 19.0331 2.59263 18.6133C1.96088 17.0574 1.64062 15.5052 1.64062 14C1.64062 7.18501 7.18501 1.64062 14 1.64062C16.5015 1.64062 19.0266 2.47275 21.1246 3.91595C20.7236 3.83354 20.3151 4.0617 20.1824 4.45977C20.0391 4.88955 20.2714 5.35412 20.7012 5.49741L24.1815 6.65749C24.1815 6.65749 24.6719 6.80827 25.0208 6.45941Z" fill="white"/>
<path d="M2.78157 22.3803L3.94165 25.8606C4.05628 26.2044 4.37625 26.4218 4.7198 26.4218C4.80577 26.4218 4.89327 26.4082 4.97929 26.3795C5.40908 26.2362 5.64134 25.7717 5.49811 25.3419L5.39951 25.0461C6.13561 25.6063 6.92885 26.1001 7.76393 26.5144C9.72393 27.4864 11.8805 28.0002 14.0008 28.0002C17.7201 28.0002 21.2301 26.5384 23.8845 23.884C26.539 21.2296 28.0008 17.7195 28.0008 14.0002C28.0008 12.2824 27.6399 10.5227 26.9283 8.76975C26.7579 8.34997 26.2794 8.1479 25.8596 8.31825C25.4399 8.48871 25.2377 8.96712 25.4081 9.3869C26.0399 10.9429 26.3601 12.495 26.3601 14.0002C26.3601 20.8152 20.8158 26.3596 14.0008 26.3596C11.4994 26.3596 8.97416 25.5275 6.87618 24.0842C7.27721 24.1666 7.68567 23.9385 7.81839 23.5404C7.96162 23.1106 7.72936 22.646 7.29957 22.5028L3.81926 21.3427C3.33298 21.1806 2.9797 21.5409 2.9797 21.5409C2.63894 21.8816 2.78157 22.3803 2.78157 22.3803Z" fill="white"/>
</g>
<defs>
<clipPath id="clip0_30_15054">
<rect width="28" height="28" fill="white"/>
</clipPath>
</defs>
</svg>
