<svg width="27" height="27" viewBox="0 0 27 27" fill="none" xmlns="http://www.w3.org/2000/svg">
<g clip-path="url(#clip0_30_14898)">
<path d="M24.4688 12.6562H23.625V10.125C23.625 5.00723 19.4615 0.84375 14.3438 0.84375H12.6562C7.53848 0.84375 3.375 5.00723 3.375 10.125V12.6562H2.53125C1.13548 12.6562 0 13.7917 0 15.1875V16.875C0 18.2708 1.13548 19.4062 2.53125 19.4062H3.53046C3.87977 20.3863 4.80769 21.0938 5.90625 21.0938H7.59375C8.52441 21.0938 9.28125 20.3365 9.28125 19.4062V12.6562C9.28125 11.726 8.52441 10.9688 7.59375 10.9688H5.90625C5.60904 10.9688 5.32765 11.0297 5.0625 11.1242V10.125C5.0625 5.93747 8.46914 2.53125 12.6562 2.53125H14.3438C18.5313 2.53125 21.9375 5.93747 21.9375 10.125V11.1242C21.6724 11.0297 21.391 10.9688 21.0938 10.9688H19.4062C18.476 10.9688 17.7188 11.726 17.7188 12.6562V19.4062C17.7188 20.3365 18.476 21.0938 19.4062 21.0938V21.9375C19.4062 22.403 19.028 22.7812 18.5625 22.7812H16.7195C16.3702 21.8012 15.4423 21.0938 14.3438 21.0938H13.5C12.1042 21.0938 10.9688 22.2292 10.9688 23.625C10.9688 25.0208 12.1042 26.1562 13.5 26.1562H14.3438C15.4423 26.1562 16.37 25.4488 16.7195 24.4688H18.5625C19.9583 24.4688 21.0938 23.3333 21.0938 21.9375V21.0938C22.1923 21.0938 23.12 20.3863 23.4695 19.4062H24.4688C25.8645 19.4062 27 18.2708 27 16.875V15.1875C27 13.7917 25.8645 12.6562 24.4688 12.6562ZM1.6875 16.875V15.1875C1.6875 14.722 2.06613 14.3438 2.53125 14.3438H3.375V17.7188H2.53125C2.06613 17.7188 1.6875 17.3405 1.6875 16.875ZM5.90625 12.6562H7.59375L7.59502 19.4062H5.90625C5.44113 19.4062 5.0625 19.028 5.0625 18.5625V13.5C5.0625 13.0345 5.44113 12.6562 5.90625 12.6562ZM14.3438 24.4688H13.5C13.0349 24.4688 12.6562 24.0905 12.6562 23.625C12.6562 23.1595 13.0349 22.7812 13.5 22.7812H14.3438C14.8093 22.7812 15.1875 23.1595 15.1875 23.625C15.1875 24.0905 14.8093 24.4688 14.3438 24.4688ZM21.9375 18.5625C21.9375 19.028 21.5593 19.4062 21.0938 19.4062H19.4062V12.6562H21.0938C21.5593 12.6562 21.9375 13.0345 21.9375 13.5V18.5625ZM25.3125 16.875C25.3125 17.3405 24.9343 17.7188 24.4688 17.7188H23.625V14.3438H24.4688C24.9343 14.3438 25.3125 14.722 25.3125 15.1875V16.875Z" fill="white"/>
</g>
<defs>
<clipPath id="clip0_30_14898">
<rect width="27" height="27" fill="white"/>
</clipPath>
</defs>
</svg>
