<svg width="32" height="32" viewBox="0 0 32 32" fill="none" xmlns="http://www.w3.org/2000/svg">
<path d="M21 27C21.5523 27 22 26.5523 22 26C22 25.4477 21.5523 25 21 25C20.4477 25 20 25.4477 20 26C20 26.5523 20.4477 27 21 27Z" fill="white"/>
<path d="M18 27C18.5523 27 19 26.5523 19 26C19 25.4477 18.5523 25 18 25C17.4477 25 17 25.4477 17 26C17 26.5523 17.4477 27 18 27Z" fill="white"/>
<path d="M14 25H11C10.4473 25 10 25.4473 10 26C10 26.5527 10.4473 27 11 27H14C14.5527 27 15 26.5527 15 26C15 25.4473 14.5527 25 14 25Z" fill="white"/>
<path d="M21 21C21.5523 21 22 20.5523 22 20C22 19.4477 21.5523 19 21 19C20.4477 19 20 19.4477 20 20C20 20.5523 20.4477 21 21 21Z" fill="white"/>
<path d="M18 21C18.5523 21 19 20.5523 19 20C19 19.4477 18.5523 19 18 19C17.4477 19 17 19.4477 17 20C17 20.5523 17.4477 21 18 21Z" fill="white"/>
<path d="M11 21H14C14.5527 21 15 20.5527 15 20C15 19.4473 14.5527 19 14 19H11C10.4473 19 10 19.4473 10 20C10 20.5527 10.4473 21 11 21Z" fill="white"/>
<path d="M22 16H10C8.3457 16 7 17.3457 7 19V21C7 21.7711 7.30054 22.468 7.78027 23C7.30054 23.532 7 24.2289 7 25V27C7 28.6543 8.3457 30 10 30H22C23.6543 30 25 28.6543 25 27V25C25 24.2289 24.6995 23.532 24.2197 23C24.6995 22.468 25 21.7711 25 21V19C25 17.3457 23.6543 16 22 16ZM9 19C9 18.4482 9.44824 18 10 18H22C22.5518 18 23 18.4482 23 19V21C23 21.5518 22.5518 22 22 22H10C9.44824 22 9 21.5518 9 21V19ZM23 27C23 27.5518 22.5518 28 22 28H10C9.44824 28 9 27.5518 9 27V25C9 24.4482 9.44824 24 10 24H22C22.5518 24 23 24.4482 23 25V27Z" fill="white"/>
<path d="M27 9C26.8177 9 26.6412 9.02252 26.4678 9.05377L24.3076 6.89355C24.7336 6.37549 25 5.72156 25 5C25 3.3457 23.6543 2 22 2C20.3457 2 19 3.3457 19 5C19 5.72156 19.2664 6.37549 19.6924 6.89355L17.293 9.29297C17.2904 9.29553 17.2897 9.29901 17.2872 9.30157C16.8956 9.11389 16.4625 9 16 9C15.5375 9 15.1044 9.11389 14.7128 9.30164C14.7103 9.29907 14.7096 9.29553 14.707 9.29297L12.3076 6.89355C12.7336 6.37549 13 5.72156 13 5C13 3.3457 11.6543 2 10 2C8.3457 2 7 3.3457 7 5C7 5.72156 7.26642 6.37549 7.69238 6.89355L5.53217 9.05377C5.35883 9.02252 5.18225 9 5 9C3.3457 9 2 10.3457 2 12C2 13.6543 3.3457 15 5 15C6.6543 15 8 13.6543 8 12C8 11.2784 7.73358 10.6245 7.30762 10.1064L9.46783 7.94623C9.64117 7.97748 9.81775 8 10 8C10.1823 8 10.3588 7.97748 10.5322 7.94623L13.293 10.707C13.2955 10.7096 13.2991 10.7103 13.3016 10.7128C13.114 11.1044 13 11.5375 13 12C13 13.6543 14.3457 15 16 15C17.6543 15 19 13.6543 19 12C19 11.5375 18.8861 11.1044 18.6984 10.7128C18.701 10.7103 18.7045 10.7096 18.707 10.707L21.4678 7.94623C21.6412 7.97748 21.8177 8 22 8C22.1823 8 22.3588 7.97748 22.5322 7.94623L24.6924 10.1064C24.2664 10.6245 24 11.2784 24 12C24 13.6543 25.3457 15 27 15C28.6543 15 30 13.6543 30 12C30 10.3457 28.6543 9 27 9ZM10 4C10.5518 4 11 4.44824 11 5C11 5.55176 10.5518 6 10 6C9.44824 6 9 5.55176 9 5C9 4.44824 9.44824 4 10 4ZM5 13C4.44824 13 4 12.5518 4 12C4 11.4482 4.44824 11 5 11C5.55176 11 6 11.4482 6 12C6 12.5518 5.55176 13 5 13ZM16 13C15.4482 13 15 12.5518 15 12C15 11.4482 15.4482 11 16 11C16.5518 11 17 11.4482 17 12C17 12.5518 16.5518 13 16 13ZM22 4C22.5518 4 23 4.44824 23 5C23 5.55176 22.5518 6 22 6C21.4482 6 21 5.55176 21 5C21 4.44824 21.4482 4 22 4ZM27 13C26.4482 13 26 12.5518 26 12C26 11.4482 26.4482 11 27 11C27.5518 11 28 11.4482 28 12C28 12.5518 27.5518 13 27 13Z" fill="#FF7B02"/>
</svg>
