<svg width="148" height="59" viewBox="0 0 148 59" fill="none" xmlns="http://www.w3.org/2000/svg">
<g clip-path="url(#clip0_85_6349)">
<mask id="mask0_85_6349" style="mask-type:luminance" maskUnits="userSpaceOnUse" x="0" y="0" width="148" height="59">
<path d="M148 0H0V58.2022H148V0Z" fill="white"/>
</mask>
<g mask="url(#mask0_85_6349)">
<path d="M53.5523 28.0477C53.2833 22.0012 50.7481 16.2741 46.4461 11.9945C42.1441 7.71479 36.3871 5.1928 30.309 4.92527L29.25 0L28.1944 4.92527C22.1159 5.19275 16.3585 7.71461 12.0559 11.9942C7.7533 16.2738 5.21741 22.0009 4.94765 28.0477L0 29.1011L4.94765 30.1546C5.21818 36.201 7.75429 41.9277 12.0568 46.2072C16.3592 50.4866 22.1162 53.0087 28.1944 53.277L29.25 58.2022L30.309 53.277C36.3868 53.0087 42.1433 50.4865 46.4452 46.2069C50.7471 41.9274 53.2826 36.2008 53.5523 30.1546L58.5033 29.1011L53.5523 28.0477ZM28.5996 52.4369L28.545 52.1896L28.4702 51.8509L26.8902 44.4969L26.6961 43.5958L25.5452 38.2471C26.5444 38.647 27.6026 38.8815 28.6779 38.9415V52.4539L28.5996 52.4369ZM29.9037 5.76873L29.9582 6.01601L30.0297 6.37169L31.6131 13.7223L31.8072 14.6234L32.9581 19.9754C31.959 19.575 30.9008 19.3393 29.8254 19.2777V5.76196L29.9037 5.76873ZM37.8342 29.677C37.7584 30.8597 37.4347 32.0135 36.8842 33.0644C36.8842 33.0881 36.8604 33.1118 36.8468 33.1321C36.7245 33.3646 36.5904 33.5907 36.445 33.8096C36.1225 34.2978 35.7505 34.7518 35.3349 35.1646C35.1987 35.3001 35.0591 35.4322 34.9127 35.5541C34.6153 35.8153 34.2988 36.0541 33.966 36.2688C33.9076 36.3126 33.8462 36.3523 33.7822 36.3874C33.6017 36.4992 33.4144 36.6075 33.2271 36.7058C32.0012 37.3446 30.6373 37.6771 29.2534 37.6746C29.0627 37.6746 28.872 37.6678 28.6813 37.6543C27.4922 37.5776 26.3324 37.2546 25.2762 36.7058L25.2081 36.6686C24.9737 36.5482 24.7463 36.4147 24.5271 36.2688C24.0355 35.949 23.5791 35.5789 23.165 35.1646C23.0288 35.0324 22.8994 34.8902 22.7735 34.7445C22.5101 34.4493 22.2699 34.1345 22.0549 33.8028C22.012 33.7458 21.9733 33.6859 21.9392 33.6233C21.8234 33.4438 21.7178 33.2574 21.5987 33.0678C20.9596 31.8429 20.6311 30.4811 20.6418 29.1011C20.6418 28.9081 20.6418 28.7183 20.6623 28.5287C20.739 27.3462 21.0626 26.1925 21.6122 25.1412C21.6122 25.1209 21.6361 25.0972 21.6497 25.0735C21.7715 24.8407 21.9056 24.6146 22.0515 24.3961C22.3739 23.9077 22.7459 23.4537 23.1616 23.0411C23.2978 22.909 23.4374 22.7769 23.5838 22.6549C23.8797 22.392 24.1963 22.1529 24.5305 21.9402C24.5883 21.8956 24.6498 21.8559 24.7143 21.8216C24.8948 21.7064 25.0787 21.6014 25.2693 21.5032C26.4941 20.8643 27.8568 20.5317 29.2397 20.5344C29.4338 20.5344 29.6245 20.5344 29.8152 20.5547C31.0042 20.6319 32.1639 20.9549 33.2203 21.5032C33.244 21.5137 33.2668 21.5262 33.2884 21.5405C33.5224 21.6615 33.7497 21.795 33.9694 21.9402C34.4609 22.2588 34.9174 22.6278 35.3315 23.0411C35.4643 23.1765 35.5971 23.3154 35.7197 23.4611C35.9843 23.7561 36.2257 24.0709 36.4416 24.4028C36.4824 24.4637 36.5232 24.5248 36.5573 24.5857C36.6731 24.7652 36.7787 24.9516 36.8978 25.1379C37.5373 26.3583 37.8703 27.7147 37.8683 29.091C37.8547 29.2908 37.8478 29.4839 37.8342 29.677ZM18.3911 39.0668L21.1764 34.792C21.3852 35.0915 21.6127 35.3777 21.8574 35.649L18.4046 39.0838L18.3911 39.0668ZM40.1123 19.149L37.3269 23.4137C37.1162 23.1166 36.8888 22.8317 36.6459 22.56L40.0987 19.1253C40.0987 19.1253 40.1055 19.1354 40.1123 19.1421V19.149ZM38.1373 24.7754C37.9959 24.4901 37.8402 24.212 37.6708 23.9421L40.5039 19.5893C42.0742 21.4197 43.1666 23.607 43.6843 25.9576L38.1373 24.7754ZM34.4462 20.7309C34.1738 20.5623 33.893 20.4075 33.6051 20.2668L32.4167 14.7487C34.7799 15.2629 36.9789 16.3497 38.8183 17.9126L34.4462 20.7309ZM24.9118 20.2668C24.6239 20.4075 24.3432 20.5623 24.0708 20.7309L19.6986 17.9126C21.5381 16.3497 23.737 15.2629 26.1002 14.7487L24.9118 20.2668ZM19.2526 18.3021L23.5498 21.073C23.2495 21.2817 22.9618 21.508 22.6883 21.7504L19.2355 18.3157L19.2526 18.3021ZM20.8461 23.9421C20.6756 24.2119 20.5188 24.49 20.3762 24.7754L14.8156 25.9508C15.3348 23.6008 16.427 21.4138 17.9961 19.5826L20.8461 23.9421ZM20.0868 25.4224C19.691 26.4163 19.461 27.4678 19.4058 28.5354H5.82274C5.82105 28.5106 5.82105 28.4857 5.82274 28.4609L6.07131 28.4067L6.41182 28.3322L13.8043 26.7604L14.7101 26.5639L20.0868 25.4224ZM20.3762 33.437C20.5192 33.7249 20.6758 34.0027 20.8461 34.2736L18.0097 38.6265C16.4412 36.7949 15.3491 34.6081 14.8293 32.2582L20.3762 33.437ZM24.0469 37.4679C24.3193 37.634 24.5985 37.8067 24.8879 37.9321L26.0764 43.4501C23.7132 42.936 21.5142 41.8492 19.6748 40.2863L24.0469 37.4679ZM33.5813 37.9321C33.8707 37.7898 34.1499 37.634 34.4223 37.4679L38.7945 40.2863C36.955 41.8492 34.7561 42.936 32.3929 43.4501L33.5813 37.9321ZM39.2405 39.8934L34.9672 37.1292C35.2674 36.9204 35.5551 36.6942 35.8286 36.4517L39.2814 39.8866L39.2405 39.8934ZM37.6674 34.2669C37.8369 33.9959 37.9925 33.7166 38.1339 33.4302L43.6809 32.2514C43.1625 34.6017 42.0702 36.789 40.5005 38.6197L37.6674 34.2669ZM38.4267 32.7866C38.8216 31.7912 39.0515 30.7388 39.1078 29.6702H52.6907C52.6925 29.6961 52.6925 29.7221 52.6907 29.7481L52.4422 29.8023L52.1017 29.8768L44.7126 31.4486L43.8068 31.6417L38.4267 32.7866ZM30.5167 5.78906C31.7166 5.85245 32.9097 6.00873 34.0852 6.25651L34.9228 8.03151L36.537 6.91029C37.6815 7.28102 38.795 7.74087 39.8671 8.28557L40.2076 10.2096L42.0532 9.53211C43.0613 10.188 44.0175 10.9195 44.9135 11.7204L44.7466 13.6647L46.6977 13.4988C47.5042 14.3898 48.2407 15.3411 48.9009 16.3442L48.2198 18.1801L50.154 18.5189C50.703 19.5847 51.1653 20.6926 51.5364 21.8317L50.4094 23.4374L52.1936 24.2707C52.4441 25.4399 52.6013 26.6269 52.6636 27.8207V27.8444H52.6499L44.5968 26.1304C44.0679 23.4237 42.8232 20.9062 40.9908 18.8373L43.6093 14.8232L39.5709 17.4248C37.4869 15.5938 34.9487 14.3505 32.2192 13.8239L30.5167 5.81277V5.78906ZM8.32209 18.5358L10.2596 18.1971L9.57859 16.3612C10.2377 15.3572 10.9743 14.4059 11.7817 13.5157L13.7294 13.6817L13.5625 11.7407C14.4588 10.9377 15.4163 10.2049 16.4263 9.54908L18.2718 10.2266L18.6124 8.3025C19.6835 7.75841 20.7959 7.29857 21.9392 6.92721L23.5566 8.04845L24.3942 6.27345C25.5687 6.02593 26.7606 5.86964 27.9594 5.80599H27.9866V5.8297L26.2841 13.8409C23.5589 14.362 21.0231 15.5981 18.9393 17.4213L14.9008 14.8199L17.5091 18.8373C15.6713 20.91 14.4239 23.4338 13.8963 26.1473L5.84319 27.8613H5.81593V27.8376C5.881 26.6439 6.03926 25.457 6.28924 24.2876L8.07011 23.4543L6.94304 21.8487C7.31718 20.7105 7.77937 19.6029 8.3255 18.5358H8.32209ZM27.9765 52.4098C26.7779 52.3445 25.586 52.1882 24.4113 51.9423L23.5737 50.1673L21.9562 51.2886C20.8135 50.9157 19.7012 50.4559 18.6294 49.9132L18.2889 47.9858L16.4433 48.6633C15.4341 48.0064 14.4767 47.2737 13.5796 46.4717L13.7465 44.5307L11.7954 44.6967C10.9892 43.8051 10.2537 42.8526 9.59564 41.8479L10.2767 40.0153L8.33914 39.6766C7.79419 38.6089 7.33204 37.5014 6.95667 36.3637L8.08374 34.758L6.30287 33.9248C6.05312 32.7554 5.89487 31.5685 5.82956 30.3748V30.3545H5.85678L13.9099 32.0482C14.4369 34.7619 15.6843 37.2859 17.5227 39.3581L14.9076 43.3756L18.9461 40.7741C21.0284 42.6041 23.5659 43.8452 26.2943 44.3681L27.9969 52.3793V52.4064L27.9765 52.4098ZM50.171 39.663L48.2369 40.0017L48.9179 41.8344C48.2587 42.8383 47.5233 43.7906 46.7182 44.6831L44.7637 44.5172L44.9305 46.4615C44.0337 47.2614 43.0776 47.9928 42.0702 48.6498L40.2247 47.9723L39.8842 49.8997C38.8114 50.4431 37.698 50.9029 36.5539 51.275L34.9433 50.1707L34.1057 51.9457C32.9298 52.1919 31.7369 52.3481 30.5371 52.4132H30.5133V52.3861L32.2158 44.3749C34.944 43.8514 37.4813 42.6104 39.5641 40.7808L43.6025 43.3824L40.9839 39.3649C42.827 37.2918 44.0781 34.7653 44.607 32.0482L52.6601 30.3545H52.6839C52.6215 31.5483 52.4643 32.7353 52.2141 33.9045L50.4298 34.7378L51.5569 36.3434C51.185 37.4857 50.7227 38.5967 50.1744 39.6664L50.171 39.663Z" fill="white"/>
<path d="M26.9352 22.9041C26.8065 22.8973 26.6779 22.9204 26.5598 22.9715C26.4415 23.0227 26.3369 23.1005 26.2541 23.1988C26.1001 23.3908 26.0192 23.6307 26.0261 23.8762C26.0172 24.1221 26.0981 24.3628 26.2541 24.5537C26.3395 24.648 26.4449 24.7222 26.5628 24.7708C26.6806 24.8195 26.8078 24.8413 26.9352 24.8349C27.0658 24.8432 27.1966 24.8223 27.318 24.7736C27.4394 24.7249 27.5483 24.6498 27.6367 24.5537C27.7868 24.3595 27.8683 24.1214 27.8683 23.8762C27.8683 23.6312 27.7868 23.393 27.6367 23.1988C27.5508 23.0988 27.4426 23.0202 27.3209 22.969C27.1991 22.9179 27.067 22.8956 26.9352 22.9041Z" fill="white"/>
<path d="M27.756 25.957H26.0977V34.5882H27.756V25.957Z" fill="white"/>
<path d="M32.2826 33.2469C32.1996 33.256 32.1157 33.2433 32.0392 33.21C31.9627 33.1767 31.8964 33.124 31.8468 33.0572C31.7396 32.848 31.6914 32.614 31.7072 32.3797V27.3427H32.9704V25.9505H31.7072V23.918H30.0557V25.9505H28.7754V27.3359H30.0557V32.3865C30.0208 32.9922 30.1793 33.5933 30.5086 34.1039C30.6649 34.3139 30.8712 34.482 31.1089 34.5932C31.3466 34.7043 31.6083 34.7551 31.8706 34.7408C32.2107 34.7405 32.5486 34.6868 32.8717 34.5815L32.967 34.5477L32.9875 33.0979L32.7967 33.1588C32.6315 33.2164 32.4578 33.2461 32.2826 33.2469Z" fill="white"/>
<path d="M75.3753 23.9188C75.2913 25.8858 74.7352 27.3763 73.7068 28.3903C72.6785 29.4042 71.2324 29.91 69.3687 29.9078C67.4051 29.9078 65.9011 29.2653 64.8569 27.9804C63.8127 26.6954 63.2894 24.8628 63.2871 22.4827V19.5796C63.2871 17.2085 63.8286 15.3804 64.9114 14.0955C65.9942 12.8104 67.4959 12.168 69.4164 12.168C71.3073 12.168 72.7432 12.693 73.7239 13.7432C74.7045 14.7932 75.263 16.304 75.3992 18.2755H71.8851C71.851 17.056 71.6637 16.2159 71.3164 15.7552C70.9691 15.2946 70.3391 15.0609 69.4164 15.0609C68.4936 15.0609 67.8126 15.3996 67.4244 16.0397C67.0362 16.68 66.8285 17.7639 66.8046 19.2578V22.5199C66.8046 24.2339 66.9976 25.4116 67.3835 26.0529C67.7694 26.6943 68.4311 27.0149 69.3687 27.0149C70.2914 27.0149 70.9248 26.7914 71.2755 26.3375C71.6262 25.8836 71.8237 25.0807 71.8714 23.9121L75.3753 23.9188Z" fill="white"/>
<path d="M89.7661 22.5636C89.7661 24.8806 89.2157 26.6794 88.1149 27.9597C87.014 29.2402 85.4858 29.8804 83.5319 29.8804C81.5837 29.8804 80.0549 29.2458 78.9448 27.9767C77.8347 26.7076 77.2672 24.9303 77.2422 22.645V19.6945C77.2422 17.3234 77.7949 15.4715 78.9005 14.1392C80.006 12.8068 81.5395 12.1406 83.5011 12.1406C85.4326 12.1406 86.955 12.7944 88.0675 14.102C89.1791 15.4094 89.747 17.2455 89.7695 19.6099L89.7661 22.5636ZM86.2524 19.6708C86.2524 18.1126 86.0254 16.9541 85.5714 16.1953C85.3511 15.8499 85.0476 15.5647 84.6893 15.3657C84.3301 15.1667 83.926 15.0604 83.5152 15.0564C83.1044 15.0523 82.6989 15.1507 82.3359 15.3426C81.9729 15.5344 81.664 15.8136 81.4373 16.1547C80.9833 16.8864 80.7564 17.9986 80.7564 19.4913V22.5636C80.7564 24.0744 80.9833 25.1867 81.4373 25.9002C81.6571 26.2508 81.968 26.5357 82.3374 26.7248C82.7066 26.9138 83.1204 26.9999 83.5352 26.9741C83.9393 26.9987 84.3425 26.914 84.7017 26.7292C85.0617 26.5443 85.3644 26.2661 85.5781 25.924C86.0237 25.2262 86.259 24.1422 86.259 22.6687L86.2524 19.6708Z" fill="white"/>
<path d="M96.8439 12.4023L100.123 24.8883L103.385 12.4023H107.965V29.6781H104.448V24.9866L104.768 17.7883L101.301 29.6443H98.9176L95.4512 17.7883L95.7714 24.9866V29.6578H92.2676V12.4023H96.8439Z" fill="white"/>
<path d="M114.283 23.5808V29.651H110.779V12.4023H116.691C118.407 12.4023 119.776 12.9319 120.798 13.9911C121.819 15.0502 122.33 16.4255 122.33 18.1169C122.33 19.8106 121.826 21.1464 120.818 22.1242C119.81 23.102 118.411 23.5876 116.623 23.5808H114.283ZM114.283 20.6744H116.691C116.982 20.6911 117.274 20.6409 117.542 20.5275C117.811 20.414 118.05 20.2407 118.24 20.0206C118.642 19.4726 118.837 18.8006 118.789 18.1237C118.826 17.3968 118.631 16.6767 118.23 16.0675C118.063 15.8251 117.839 15.6273 117.577 15.4915C117.315 15.3556 117.024 15.2859 116.728 15.2884H114.283V20.6744Z" fill="white"/>
<path d="M130.83 26.1255H126.064L125.134 29.6586H121.426L126.85 12.3828H130.058L135.506 29.6586H131.76L130.83 26.1255ZM126.813 23.2191H130.058L128.433 17.0642L126.813 23.2191Z" fill="white"/>
<path d="M144.458 25.1284C144.48 24.8397 144.443 24.5498 144.349 24.2757C144.255 24.0017 144.107 23.7491 143.914 23.5329C143.332 23.0419 142.663 22.6619 141.942 22.4117C140.201 21.7545 138.952 20.9856 138.197 20.1049C137.44 19.2404 137.033 18.1277 137.053 16.9817C137.028 16.3182 137.155 15.6576 137.424 15.0503C137.694 14.4428 138.098 13.9044 138.609 13.4757C139.569 12.745 140.717 12.2967 141.92 12.1818C143.124 12.0668 144.336 12.2898 145.419 12.8254C146.235 13.2523 146.905 13.91 147.346 14.7155C147.807 15.5678 148.04 16.5225 148.027 17.4898H144.537C144.582 16.8342 144.398 16.1833 144.016 15.6471C143.834 15.4326 143.604 15.2634 143.344 15.1528C143.085 15.0422 142.803 14.9934 142.521 15.0103C142.257 14.9953 141.994 15.0359 141.748 15.1293C141.502 15.2227 141.277 15.3668 141.091 15.5522C140.734 15.9507 140.55 16.4726 140.577 17.0054C140.58 17.2468 140.632 17.485 140.73 17.7058C140.829 17.9265 140.971 18.1249 141.149 18.2892C141.751 18.8076 142.444 19.2117 143.192 19.4816C144.883 20.0913 146.112 20.8388 146.88 21.7241C147.67 22.6733 148.08 23.8797 148.03 25.1114C148.03 26.6109 147.55 27.7841 146.587 28.6309C145.624 29.4778 144.317 29.9012 142.664 29.9012C141.603 29.918 140.553 29.686 139.599 29.2238C138.702 28.7891 137.95 28.1056 137.434 27.2557C136.897 26.3388 136.627 25.2915 136.654 24.2308H140.171C140.171 25.2266 140.366 25.9504 140.754 26.402C141.146 26.8526 141.775 27.0795 142.661 27.0795C143.86 27.066 144.458 26.4156 144.458 25.1284Z" fill="white"/>
<path d="M67.8133 42.6275C67.7031 42.3323 67.6422 42.0211 67.6328 41.7062C67.4378 42.0328 67.1614 42.3038 66.8303 42.4931C66.4993 42.6823 66.1248 42.7835 65.743 42.7868C65.4138 42.8057 65.0842 42.7582 64.7741 42.647C64.4638 42.5357 64.1796 42.3632 63.9383 42.1398C63.7121 41.8958 63.5379 41.609 63.4262 41.2964C63.3143 40.9837 63.2674 40.6519 63.2879 40.3207C63.2714 39.9353 63.342 39.551 63.4946 39.1963C63.6473 38.8416 63.878 38.5255 64.1698 38.2713C64.854 37.7312 65.7115 37.4557 66.5841 37.4957H67.6056V36.5946C67.6428 36.4068 67.6337 36.2129 67.5791 36.0294C67.5245 35.8459 67.4262 35.6782 67.2923 35.5407C67.1584 35.4033 66.9932 35.3001 66.8105 35.24C66.6279 35.1799 66.4334 35.1647 66.2436 35.1956C65.8674 35.1801 65.5004 35.3128 65.222 35.5649C65.0935 35.686 64.9921 35.8328 64.9246 35.9957C64.8571 36.1586 64.825 36.3338 64.8304 36.5099H63.4377C63.4408 36.0681 63.5746 35.6368 63.8225 35.2701C64.0751 34.8768 64.4275 34.5567 64.8441 34.3419C65.294 34.1137 65.7929 33.9975 66.298 34.0032C67.0198 33.9516 67.7335 34.1826 68.2866 34.6468C68.5228 34.8983 68.7049 35.195 68.822 35.5188C68.9391 35.8426 68.9886 36.1868 68.9676 36.5303V40.8017C68.9616 41.3773 69.0525 41.9497 69.2366 42.4954V42.6208L67.8133 42.6275ZM65.9575 41.5267C66.302 41.5247 66.6393 41.4273 66.9314 41.2455C67.2206 41.0793 67.4567 40.835 67.6123 40.5409V38.5085H66.8258C66.27 38.4869 65.7217 38.6411 65.2595 38.9488C65.0725 39.0853 64.9223 39.2655 64.8219 39.4735C64.7216 39.6814 64.6742 39.9107 64.684 40.1412C64.6516 40.5138 64.7556 40.8855 64.9768 41.1879C65.1062 41.3115 65.2606 41.4062 65.4297 41.4657C65.5989 41.5253 65.7787 41.5484 65.9575 41.5334V41.5267Z" fill="white"/>
<path d="M70.8711 38.0109C70.8711 36.6932 71.1129 35.694 71.5964 35.0198C71.8337 34.6863 72.1521 34.4182 72.522 34.2405C72.8918 34.0627 73.3009 33.9813 73.711 34.0036C74.1101 33.9884 74.5058 34.0832 74.8543 34.2774C75.2028 34.4717 75.4906 34.7579 75.6859 35.1046L75.7574 34.1594H77.0173V42.7059C77.0173 43.7526 76.745 44.5588 76.2069 45.1177C75.9105 45.407 75.5565 45.6315 75.1678 45.7768C74.779 45.922 74.364 45.9849 73.9493 45.9612C73.4628 45.9467 72.9833 45.841 72.5363 45.6495C72.0894 45.4919 71.6866 45.2307 71.3614 44.8874L71.9267 43.9321C72.1712 44.1942 72.4665 44.4044 72.7948 44.5499C73.1231 44.6955 73.4776 44.7734 73.837 44.7789C74.9992 44.7789 75.5951 44.15 75.6246 42.8922V41.7879C75.4191 42.1055 75.1338 42.3645 74.7971 42.5391C74.4603 42.7137 74.0836 42.7981 73.7041 42.7838C73.3079 42.7974 72.9144 42.714 72.5582 42.541C72.202 42.3679 71.894 42.1104 71.6611 41.7912C71.1673 41.1341 70.912 40.1856 70.8881 38.9492L70.8711 38.0109ZM72.2638 38.7968C72.2638 39.7453 72.4068 40.4431 72.686 40.8902C72.8332 41.1164 73.039 41.2987 73.2817 41.4179C73.5245 41.5372 73.7952 41.589 74.0651 41.5677C74.4021 41.5692 74.7315 41.469 75.0099 41.2802C75.2884 41.0916 75.5027 40.8233 75.6246 40.5108V36.2732C75.2603 35.5957 74.7495 35.2333 74.0821 35.2333C73.8113 35.2122 73.5398 35.264 73.296 35.3832C73.0521 35.5024 72.845 35.6846 72.6962 35.9107C72.4148 36.3624 72.2706 37.0455 72.2638 37.9601V38.7968Z" fill="white"/>
<path d="M82.1272 42.7846C81.0693 42.7846 80.2567 42.4696 79.6892 41.8395C79.1239 41.2129 78.8344 40.2881 78.8242 39.0754V38.0592C78.8242 36.7946 79.1012 35.8043 79.6551 35.0884C79.9252 34.7367 80.2769 34.4554 80.6801 34.2684C81.0834 34.0814 81.5261 33.9943 81.9706 34.0146C82.9683 34.0146 83.711 34.3296 84.204 34.9597C84.6979 35.5898 84.9498 36.5755 84.9606 37.9102V38.8214H80.1931V39.0178C80.1931 39.9211 80.3657 40.5806 80.7107 40.996C80.8931 41.2056 81.1217 41.3705 81.3786 41.478C81.6355 41.5855 81.9138 41.6327 82.1919 41.616C82.5659 41.623 82.9364 41.5441 83.2744 41.3856C83.6162 41.2056 83.9155 40.9563 84.1533 40.6539L84.875 41.5278C84.2755 42.3657 83.3601 42.7846 82.1272 42.7846ZM81.9706 35.1934C81.724 35.1762 81.4771 35.2212 81.2527 35.3242C81.0283 35.4273 80.8336 35.585 80.6869 35.7829C80.3653 36.3409 80.2028 36.9757 80.2169 37.6188H83.568V37.4292C83.5846 36.8265 83.4341 36.2309 83.1318 35.7084C82.9948 35.535 82.8176 35.3976 82.6153 35.3079C82.4129 35.2181 82.1916 35.1789 81.9706 35.1934Z" fill="white"/>
<path d="M87.9408 34.1598L87.9815 35.0745C88.2118 34.7409 88.5212 34.4688 88.882 34.2822C89.2429 34.0955 89.6445 34 90.0519 34.004C91.5535 34.004 92.3193 35.0202 92.34 36.9985V42.6249H90.954V37.0628C90.9956 36.5678 90.8767 36.0725 90.6131 35.6503C90.4892 35.5047 90.3312 35.3907 90.1533 35.3177C89.9762 35.2447 89.7833 35.2147 89.5921 35.2303C89.2512 35.2276 88.9211 35.348 88.6625 35.569C88.374 35.8146 88.147 36.1229 87.9982 36.4701V42.6181H86.6055V34.1497L87.9408 34.1598Z" fill="white"/>
<path d="M97.3836 41.6056C97.5882 41.6148 97.7919 41.5816 97.9823 41.5081C98.1727 41.4346 98.3464 41.3224 98.4903 41.1788C98.7896 40.8442 98.9526 40.4104 98.9468 39.9627H100.261C100.258 40.3417 100.18 40.7163 100.031 41.0651C99.8822 41.4139 99.6651 41.7299 99.3933 41.9951C99.1297 42.2567 98.8162 42.4625 98.4712 42.6006C98.1253 42.7385 97.7561 42.8056 97.3836 42.798C96.3285 42.798 95.5245 42.467 94.9732 41.8054C94.4211 41.1438 94.1442 40.1625 94.1426 38.8617V37.9303C94.1426 36.6498 94.417 35.6776 94.9666 35.0137C95.2642 34.675 95.6359 34.409 96.0533 34.2363C96.4707 34.0636 96.9222 33.9888 97.3736 34.0178C97.7586 33.9986 98.1427 34.0619 98.5003 34.2033C98.8578 34.3447 99.1812 34.5611 99.4473 34.8376C99.9869 35.461 100.277 36.2606 100.261 37.0834H98.9609C98.9709 36.5767 98.8112 36.081 98.5077 35.6743C98.3681 35.5176 98.1951 35.3942 98.0014 35.3132C97.8068 35.2323 97.5973 35.1959 97.3869 35.2067C97.1275 35.1896 96.8681 35.2358 96.6303 35.3415C96.3933 35.4473 96.1855 35.6091 96.025 35.8131C95.7257 36.2174 95.571 36.8813 95.5619 37.8049V38.8854C95.5619 39.8814 95.7099 40.5849 96.005 40.9959C96.1672 41.2018 96.3775 41.365 96.6178 41.4713C96.859 41.5776 97.1217 41.6237 97.3836 41.6056Z" fill="white"/>
<path d="M104.193 40.3252L105.743 34.1602H107.224L104.438 43.8244C104.287 44.4412 103.982 45.0099 103.549 45.4774C103.381 45.6554 103.179 45.7976 102.955 45.8955C102.73 45.9933 102.488 46.0446 102.242 46.0465C101.997 46.0376 101.754 45.9954 101.52 45.9212V44.7457L101.827 44.7797C102.167 44.8 102.503 44.6978 102.773 44.4917C103.049 44.221 103.241 43.8779 103.328 43.5026L103.604 42.5575L101.102 34.1602H102.62L104.193 40.3252Z" fill="white"/>
</g>
</g>
<defs>
<clipPath id="clip0_85_6349">
<rect width="148" height="58.2022" fill="white"/>
</clipPath>
</defs>
</svg>
