<svg width="97" height="97" viewBox="0 0 97 97" fill="none" xmlns="http://www.w3.org/2000/svg">
<path d="M33.62 47.4616L18.6685 47.7109C18.4497 46.7545 18.0232 45.8544 17.3579 45.0964C15.1792 42.6167 11.3884 42.3702 8.90845 44.5476C6.42131 46.7324 6.17635 50.5106 8.36037 52.9981C10.5417 55.483 14.3223 55.7284 16.809 53.5457C17.7847 52.6886 18.4215 51.5589 18.6897 50.3128L33.7147 50.0624C34.2457 54.7275 36.5811 58.8509 40.0115 61.7111L35.5255 70.4494C34.4914 70.1213 33.3752 69.9982 32.2284 70.1397C27.9544 70.6628 24.9188 74.5494 25.4434 78.824C25.9715 83.1178 29.8858 86.1413 34.1285 85.608C38.3932 85.0845 41.437 81.1882 40.9135 76.9236C40.6441 74.732 39.4822 72.867 37.8402 71.6386L42.158 63.2279C44.8545 64.8734 48.0089 65.8395 51.3924 65.8395C58.1881 65.8395 64.1015 62.0083 67.0999 56.3952L73.1884 59.5201C72.8991 60.3851 72.7362 61.3074 72.7362 62.2685C72.7362 67.0641 76.6368 70.9655 81.4321 70.9655C86.2271 70.9655 90.1285 67.0641 90.1285 62.2685C90.1285 57.474 86.2271 53.5726 81.4321 53.5726C78.5266 53.5726 75.9563 55.01 74.3764 57.2053L68.1423 54.0058C68.8103 52.1371 69.1932 50.1342 69.1932 48.0386C69.1932 42.8867 66.9796 38.253 63.4696 34.9995L72.5018 24.5072C73.422 24.9574 74.4418 25.2327 75.5333 25.2327C79.3666 25.2327 82.4854 22.1139 82.4854 18.2811C82.4854 14.4471 79.3666 11.3281 75.5333 11.3281C71.6999 11.3281 68.5811 14.4469 68.5811 18.2811C68.5811 20.0814 69.2868 21.709 70.414 22.945L61.4459 33.3628C58.5827 31.3952 55.1216 30.238 51.3927 30.238C46.9643 30.238 42.9178 31.8737 39.7995 34.5592L31.7696 22.7455C32.4493 22.0381 32.9682 21.1878 33.2371 20.2159C34.1169 17.0337 32.2443 13.7293 29.0627 12.8489C25.884 11.9732 22.5819 13.8217 21.6964 17.0233C20.816 20.2067 22.6756 23.5037 25.8702 24.389C27.0973 24.7297 28.3799 24.6796 29.6136 24.203L37.9259 36.4318C35.35 39.4149 33.7558 43.2538 33.62 47.4616ZM33.8106 83.0265C30.9051 83.3677 28.3702 81.311 28.0258 78.5065C27.6762 75.6596 29.6975 73.0707 32.5458 72.7212C35.426 72.3783 37.985 74.4285 38.3305 77.2411C38.6793 80.0818 36.6518 82.6771 33.8106 83.0265ZM81.4317 56.1743C84.7926 56.1743 87.5264 58.9081 87.5264 62.2685C87.5264 65.6299 84.7926 68.3637 81.4317 68.3637C78.0715 68.3637 75.3375 65.6299 75.3375 62.2685C75.3375 58.9081 78.0715 56.1743 81.4317 56.1743ZM75.5327 13.9301C77.9317 13.9301 79.8831 15.8814 79.8831 18.2812C79.8831 20.6797 77.9317 22.6311 75.5327 22.6311C73.1336 22.6311 71.1823 20.6797 71.1823 18.2812C71.1821 15.8814 73.1334 13.9301 75.5327 13.9301ZM15.092 51.5907C13.6717 52.8384 11.5379 52.674 10.3153 51.2808C9.08142 49.8761 9.21821 47.7384 10.6247 46.5027C12.032 45.2683 14.173 45.4138 15.4027 46.814C16.623 48.2023 16.5133 50.3433 15.092 51.5907ZM66.5909 48.0388C66.5909 56.4197 59.7726 63.2377 51.392 63.2377C43.0106 63.2377 36.1924 56.4195 36.1924 48.0388C36.1924 39.748 42.9765 32.84 51.392 32.84C59.7728 32.8398 66.5909 39.658 66.5909 48.0388ZM26.5636 21.8814C24.7573 21.3811 23.7047 19.5169 24.2032 17.7171C24.6935 15.9424 26.5335 14.8514 28.3681 15.3567C30.167 15.8547 31.2258 17.7233 30.7285 19.5224C30.2308 21.3239 28.3649 22.3852 26.5636 21.8814Z" fill="black"/>
<path d="M51.3921 47.7917C54.3349 47.7917 56.6178 44.373 56.6178 41.4321C56.6178 38.5509 54.2733 36.207 51.3921 36.207C48.5109 36.207 46.167 38.5509 46.167 41.4321C46.167 44.373 48.4491 47.7917 51.3921 47.7917ZM51.3921 38.8088C52.8392 38.8088 54.016 39.9851 54.016 41.4321C54.016 43.0037 52.6937 45.1899 51.3921 45.1899C50.0906 45.1899 48.7688 43.0037 48.7688 41.4321C48.7688 39.9851 49.9458 38.8088 51.3921 38.8088Z" fill="#FF7B02"/>
<path d="M48.1898 59.8712H54.5931C57.5202 59.8712 59.482 56.8472 58.2759 54.1963C57.0786 51.5654 54.6413 48.7539 51.391 48.7539C48.1413 48.7539 45.7042 51.5652 44.5068 54.1963C43.2998 56.8498 45.266 59.8712 48.1898 59.8712ZM46.875 55.2737C47.9579 52.8942 49.7308 51.3559 51.3912 51.3559C53.0516 51.3559 54.825 52.8942 55.9081 55.2737C56.3336 56.2091 55.6245 57.2695 54.5933 57.2695H48.19C47.1577 57.2695 46.4497 56.2083 46.875 55.2737Z" fill="#FF7B02"/>
</svg>
