<svg width="93" height="82" viewBox="0 0 93 82" fill="none" xmlns="http://www.w3.org/2000/svg">
<path d="M59.4193 13.8897C56.3967 16.9123 56.3967 21.8145 59.4193 24.8564C60.8725 26.3096 62.8488 27.1234 64.9027 27.1234C69.1848 27.1234 72.6532 23.6551 72.6532 19.3729C72.6532 17.319 71.8394 15.3427 70.3862 13.8895C67.4602 10.9639 62.345 10.9639 59.4193 13.8897ZM67.7508 22.0276C67.7121 22.0663 67.6927 22.0857 67.654 22.1244C66.1233 23.597 63.7013 23.597 62.1706 22.1244C60.6398 20.5936 60.6398 18.1523 62.1706 16.641C63.6625 15.1102 66.1038 15.0521 67.654 16.5441C69.2042 18.0362 69.2429 20.4776 67.7508 22.0276Z" fill="#FF7B02"/>
<path d="M79.6931 22.3632L72.9448 2.46011V1.70846C72.9448 0.768785 72.1762 0 71.2365 0H48.8392C48.3779 0 47.9508 0.187872 47.6263 0.495386L4.55718 43.5986C2.35333 45.905 2.35333 49.5267 4.55718 51.8331L21.2313 68.4047C21.8635 69.0198 22.6151 69.481 23.4523 69.7544C23.5377 70.2841 23.8623 70.7454 24.3408 70.9845L45.4396 81.4228C48.2072 82.7895 51.5727 81.645 52.9396 78.8774C52.9567 78.8602 52.9567 78.8432 52.9737 78.809L53.059 78.6381L71.2365 80.2953C73.8162 80.2953 76.3617 77.8523 76.3617 75.3409V30.7514C76.3446 30.666 76.3276 30.5805 76.3105 30.478L79.6078 23.6443C79.8128 23.2514 79.8297 22.7732 79.6931 22.3632ZM23.64 65.9789L6.96605 49.4073C6.09476 48.4506 6.09476 46.9813 6.96605 46.0246L49.5396 3.41677H69.528V23.6614L26.8689 65.9789C25.9635 66.8502 24.5456 66.8502 23.64 65.9789ZM72.9448 75.3409C72.9448 75.8706 72.0394 76.8785 71.3901 76.8785L54.6306 75.3581L72.9448 37.4485V75.3409ZM49.8984 77.3226C49.6421 77.8693 49.1808 78.2793 48.6171 78.4673C48.0704 78.6552 47.4724 78.6211 46.9598 78.3648L28.3553 69.1394C28.6969 68.9173 29.0044 68.6781 29.2778 68.3878L72.4323 25.5749C72.7569 25.2503 72.9448 24.8233 72.9448 24.362V13.1035L76.2249 22.7902L49.8984 77.3226Z" fill="black"/>
</svg>
