<svg width="104" height="73" viewBox="0 0 104 73" fill="none" xmlns="http://www.w3.org/2000/svg">
<path d="M91.5235 29.5625C94.6143 27.2052 96.6182 23.4971 96.6182 19.3238C96.6182 12.2206 90.839 6.44141 83.7359 6.44141C76.6327 6.44141 70.8535 12.2206 70.8535 19.3238C70.8535 23.515 72.8753 27.232 75.9797 29.5849C75.6531 29.7325 75.3132 29.8532 74.9956 30.0188C73.9444 30.5645 73.533 31.8617 74.0786 32.9128C74.6243 33.9684 75.926 34.3754 76.9726 33.8297C79.0258 32.7651 81.3651 32.2015 83.7358 32.2015C92.0199 32.2015 98.7652 38.9424 98.7652 47.2309V55.8192C98.7652 59.3708 95.8757 62.2603 92.3241 62.2603H81.459C80.2736 62.2603 79.312 63.222 79.312 64.4074C79.312 65.5928 80.2737 66.5545 81.459 66.5545H92.3241C98.2419 66.5545 103.059 61.737 103.059 55.8192V47.2309C103.059 39.345 98.309 32.5599 91.5236 29.5575L91.5235 29.5625ZM75.1474 19.3238C75.1474 14.5868 78.9987 10.7355 83.7356 10.7355C88.4726 10.7355 92.3239 14.5868 92.3239 19.3238C92.3239 24.0607 88.4726 27.912 83.7356 27.912C78.9987 27.912 75.1474 24.0607 75.1474 19.3238Z" fill="black"/>
<path d="M28.9805 32.9167C29.5263 31.8655 29.1147 30.5683 28.0636 30.0227C27.746 29.8572 27.406 29.7319 27.0795 29.5888C30.1882 27.2359 32.2057 23.5188 32.2057 19.3277C32.2057 12.2245 26.4265 6.44531 19.3233 6.44531C12.2201 6.44531 6.44095 12.2245 6.44095 19.3277C6.44095 23.5054 8.44933 27.2136 11.5357 29.5664C4.7501 32.5679 0 39.3535 0 47.2399V55.8281C0 61.746 4.81743 66.5634 10.7353 66.5634H21.6003C22.7857 66.5634 23.7474 65.6017 23.7474 64.4164C23.7474 63.231 22.7857 62.2693 21.6003 62.2693H10.7353C7.18366 62.2693 4.29412 59.3798 4.29412 55.8281V47.2399C4.29412 38.9513 11.0394 32.2105 19.3235 32.2105C21.6942 32.2105 24.0337 32.7741 26.0867 33.8387C27.1334 34.3799 28.4351 33.9729 28.9807 32.9217L28.9805 32.9167ZM10.7345 19.3232C10.7345 14.5863 14.5859 10.735 19.3228 10.735C24.0597 10.735 27.911 14.5863 27.911 19.3232C27.911 24.0601 24.0597 27.9114 19.3228 27.9114C14.5859 27.9114 10.7345 24.0601 10.7345 19.3232Z" fill="black"/>
<path d="M60.0644 27.3839C63.9828 24.6687 66.5593 20.1465 66.5593 15.0294C66.5593 6.74085 59.814 0 51.5299 0C43.2458 0 36.5005 6.74085 36.5005 15.0294C36.5005 20.1466 39.0769 24.6688 42.9953 27.3839C34.1835 30.8147 27.9121 39.3719 27.9121 49.3824V62.2647C27.9121 68.1826 32.7295 73 38.6474 73H64.4121C70.33 73 75.1474 68.1826 75.1474 62.2647V49.3824C75.1474 39.3717 68.8764 30.8146 60.0644 27.3839ZM40.7947 15.0294C40.7947 9.11155 45.6121 4.29412 51.53 4.29412C57.4479 4.29412 62.2653 9.11155 62.2653 15.0294C62.2653 20.9473 57.4479 25.7647 51.53 25.7647C45.6121 25.7647 40.7947 20.9473 40.7947 15.0294ZM70.8535 62.2647C70.8535 65.8163 67.964 68.7059 64.4123 68.7059H38.6476C35.096 68.7059 32.2065 65.8163 32.2065 62.2647V49.3824C32.2065 38.7276 40.8752 30.0588 51.53 30.0588C62.1848 30.0588 70.8535 38.7276 70.8535 49.3824V62.2647Z" fill="#FF7B02"/>
</svg>
