<svg width="38" height="38" viewBox="0 0 38 38" fill="none" xmlns="http://www.w3.org/2000/svg">
<g clip-path="url(#clip0_30_17973)">
<path d="M8.15302 19.0001C8.15302 16.7492 6.32183 14.918 4.07099 14.918C-1.33688 15.1232 -1.33547 22.8777 4.07107 23.0821C6.32183 23.0821 8.15302 21.2509 8.15302 19.0001ZM4.07099 21.5977C2.63865 21.5977 1.47334 20.4324 1.47334 19.0001C1.60396 15.5586 6.53854 15.5595 6.66865 19.0001C6.66865 20.4324 5.50334 21.5977 4.07099 21.5977Z" fill="white"/>
<path d="M16.0234 7.42188H21.9609C22.3708 7.42188 22.7031 7.08952 22.7031 6.67969V4.93562C25.8693 5.77318 28.6868 7.68223 30.6448 10.2952L30.3111 10.2312C29.9081 10.1542 29.5196 10.4179 29.4424 10.8204C29.3652 11.223 29.629 11.6119 30.0316 11.6891L32.0932 12.0844C32.486 12.1628 32.8866 11.9004 32.9619 11.4953L33.3573 9.43365C33.4345 9.03101 33.1707 8.64211 32.7682 8.56492C32.3651 8.48795 31.9766 8.75165 31.8994 9.15407L31.8479 9.42259C30.8704 8.10832 29.7025 6.95749 28.3611 5.99146C26.6525 4.76091 24.7493 3.89188 22.7031 3.40538V0.742188C22.7031 0.332352 22.3708 0 21.9609 0H16.0234C15.6135 0 15.2812 0.332352 15.2812 0.742188V6.67969C15.2812 7.08952 15.6135 7.42188 16.0234 7.42188ZM16.7656 1.48438H21.2188V5.9375H16.7656V1.48438Z" fill="white"/>
<path d="M21.9565 30.5782H16.019C15.6091 30.5782 15.2768 30.9106 15.2768 31.3204V33.0644C12.1082 32.2261 9.29427 30.3208 7.33519 27.7049L7.66888 27.7689C8.07114 27.8457 8.46034 27.5822 8.53761 27.1798C8.61479 26.7771 8.35102 26.3882 7.94846 26.311L5.88681 25.9157C5.69362 25.8785 5.49338 25.9199 5.33047 26.0303C5.16756 26.1408 5.05519 26.3115 5.01815 26.5048L4.62279 28.5665C4.5456 28.9691 4.80938 29.358 5.21194 29.4352C5.60463 29.5136 6.00526 29.2511 6.08067 28.846L6.1327 28.5748C8.36987 31.5708 11.6235 33.7242 15.277 34.5947V37.2579C15.277 37.6677 15.6092 38 16.0192 38H21.9567C22.3665 38 22.6988 37.6677 22.6988 37.2579V31.3204C22.6987 30.9105 22.3663 30.5782 21.9565 30.5782ZM21.2143 36.5157H16.7612V32.0626H21.2143V36.5157Z" fill="white"/>
<path d="M37.9883 19.0001C37.9883 16.7492 36.1571 14.918 33.9063 14.918C29.0477 15.0355 28.3205 21.7902 32.9808 22.975C32.1032 26.0728 30.2564 28.748 27.6925 30.6563L27.7572 30.319C27.8344 29.9164 27.5706 29.5275 27.1681 29.4503C26.765 29.3732 26.3765 29.637 26.2993 30.0394L25.9039 32.101C25.8669 32.2944 25.9081 32.4945 26.0186 32.6574C26.129 32.8203 26.2997 32.9326 26.493 32.9697L28.5547 33.3651C28.9474 33.4435 29.3481 33.1811 29.4234 32.776C29.5006 32.3733 29.2368 31.9844 28.8343 31.9072L28.566 31.8558C31.4664 29.7087 33.6035 26.5381 34.5014 23.0382C36.4711 22.7492 37.9883 21.0487 37.9883 19.0001ZM33.9063 21.5977C32.474 21.5977 31.3086 20.4324 31.3086 19.0001C31.4393 15.5586 36.3739 15.5595 36.504 19.0001C36.504 20.4324 35.3386 21.5977 33.9063 21.5977Z" fill="white"/>
<path d="M6.39298 10.3024C6.71583 10.55 7.18311 10.4911 7.43337 10.1637C8.25438 9.08993 9.2101 8.14535 10.2848 7.34357L10.2201 7.68067C10.143 8.0833 10.4067 8.47221 10.8093 8.5494C11.202 8.62777 11.6026 8.36534 11.678 7.96025L12.0734 5.8986C12.1506 5.49597 11.8868 5.10706 11.4842 5.02987L9.42258 4.63451C9.0201 4.55732 8.63112 4.82109 8.55385 5.22366C8.47667 5.62629 8.74044 6.0152 9.143 6.09239L9.41049 6.14367C8.22039 7.02947 7.16247 8.0741 6.25411 9.26205C6.00526 9.58772 6.06738 10.0534 6.39298 10.3024Z" fill="white"/>
<path d="M25.9548 20.4567L24.8877 19.6716C24.9381 19.226 24.9381 18.7742 24.8877 18.3286L25.9548 17.5435C26.2594 17.3194 26.3469 16.9021 26.1578 16.5746L24.6735 14.0037C24.4844 13.6761 24.0793 13.5431 23.7329 13.695L22.5194 14.2265C22.1574 13.9579 21.7685 13.733 21.3562 13.5539L21.21 12.2384C21.1683 11.8625 20.8505 11.5781 20.4724 11.5781H17.5037C17.1255 11.5781 16.8078 11.8625 16.766 12.2384L16.6198 13.5539C16.2076 13.733 15.8186 13.9579 15.4566 14.2265L14.2433 13.695C13.8969 13.5433 13.4918 13.6761 13.3027 14.0037L11.8183 16.5746C11.6292 16.9021 11.7166 17.3194 12.0212 17.5435L13.0884 18.3286C13.038 18.7744 13.0379 19.2255 13.0884 19.6715L12.0212 20.4567C11.7166 20.6808 11.6291 21.0981 11.8183 21.4256L13.3026 23.9966C13.4917 24.3242 13.8969 24.4572 14.2432 24.3053L15.4565 23.7738C15.8184 24.0423 16.2075 24.2673 16.6198 24.4465L16.766 25.7618C16.8078 26.1377 17.1254 26.4221 17.5036 26.4221H20.4723C20.8505 26.4221 21.1682 26.1378 21.2099 25.7618L21.3561 24.4464C21.7684 24.2673 22.1573 24.0423 22.5193 23.7737L23.7327 24.3053C24.0791 24.4571 24.4843 24.3242 24.6734 23.9966L26.1577 21.4256C26.3469 21.0981 26.2594 20.6808 25.9548 20.4567ZM23.358 18.1394C23.4688 18.7037 23.4688 19.2964 23.358 19.8607C23.3028 20.1426 23.4152 20.431 23.6466 20.6012L24.5402 21.2586L23.7201 22.679L22.7031 22.2334C22.4396 22.1179 22.1334 22.1651 21.9168 22.3543C21.4775 22.7383 20.9767 23.0279 20.4284 23.2153C20.1563 23.3082 19.9624 23.5499 19.9307 23.8356L19.8082 24.9376H18.168L18.0457 23.8357C18.0139 23.5499 17.82 23.3083 17.5479 23.2153C16.9992 23.0279 16.4983 22.7382 16.0594 22.3545C15.8429 22.1651 15.5365 22.1179 15.2731 22.2335L14.2561 22.6791L13.4361 21.2586L14.3298 20.6011C14.5612 20.431 14.6735 20.1427 14.6184 19.8608C14.5074 19.2954 14.5074 18.7042 14.6183 18.1394C14.6735 17.8576 14.5611 17.5691 14.3297 17.399L13.4361 16.7415L14.2561 15.3211L15.2732 15.7667C15.5367 15.8823 15.843 15.8351 16.0595 15.6458C16.4987 15.262 16.9995 14.9724 17.5479 14.785C17.82 14.692 18.0139 14.4503 18.0457 14.1646L18.1681 13.0625H19.8083L19.9307 14.1646C19.9625 14.4504 20.1564 14.692 20.4284 14.785C20.9769 14.9723 21.4777 15.262 21.9169 15.6458C22.1333 15.835 22.4396 15.8824 22.7031 15.7667L23.7202 15.3211L24.5402 16.7415L23.6466 17.399C23.4152 17.5692 23.3028 17.8576 23.358 18.1394Z" fill="#FF7B02"/>
<path d="M18.9883 16.4023C17.5559 16.4023 16.3906 17.5677 16.3906 19.0001C16.5212 22.4415 21.4558 22.4406 21.5859 19.0001C21.5859 17.5677 20.4206 16.4023 18.9883 16.4023ZM18.9883 20.1134C18.3744 20.1134 17.875 19.6139 17.875 19.0001C17.931 17.5251 20.0458 17.5255 20.1016 19.0001C20.1016 19.6139 19.6021 20.1134 18.9883 20.1134Z" fill="#FF7B02"/>
<path d="M5.11275 13.3125C6.09645 13.276 6.09571 11.8643 5.11275 11.8281H5.11223C4.12846 11.8647 4.12987 13.2764 5.11275 13.3125Z" fill="white"/>
</g>
<defs>
<clipPath id="clip0_30_17973">
<rect width="38" height="38" fill="white"/>
</clipPath>
</defs>
</svg>
