<svg width="37" height="37" viewBox="0 0 37 37" fill="none" xmlns="http://www.w3.org/2000/svg">
<g clip-path="url(#clip0_30_17962)">
<path d="M18.4991 0.574219C10.8431 0.574219 4.625 6.79654 4.625 14.4526C4.625 22.1087 10.8431 28.3268 18.4991 28.3268C26.1552 28.3268 32.3733 22.1087 32.3733 14.4526C32.3733 6.79654 26.1552 0.574219 18.4991 0.574219ZM18.4991 1.73075C25.5304 1.73075 31.2168 7.42142 31.2168 14.4526C31.2168 21.4838 25.5304 27.1702 18.4991 27.1702C11.4679 27.1702 5.78153 21.4838 5.78153 14.4526C5.78153 7.42142 11.4679 1.73075 18.4991 1.73075Z" fill="white"/>
<path d="M18.4983 4.04297C12.7579 4.04297 8.09375 8.71142 8.09375 14.4518C8.09375 20.1921 12.7579 24.8563 18.4983 24.8563C24.2387 24.8563 28.9028 20.1921 28.9028 14.4518C28.9028 8.71142 24.2387 4.04297 18.4983 4.04297ZM18.4983 5.1995C23.6138 5.1995 27.7463 9.3363 27.7463 14.4518C27.7463 19.5673 23.6138 23.6998 18.4983 23.6998C13.3828 23.6998 9.24602 19.5673 9.24602 14.4518C9.24602 9.3363 13.3828 5.1995 18.4983 5.1995Z" fill="white"/>
<path d="M7.56684 22.3984L2.13839 31.8001C2.08351 31.8964 2.05745 32.0064 2.06331 32.117C2.06918 32.2277 2.10672 32.3343 2.17147 32.4243C2.23622 32.5142 2.32545 32.5836 2.42854 32.6243C2.53162 32.6649 2.64422 32.6751 2.75293 32.6536L8.28381 31.5611L10.1018 36.8999C10.1374 37.0055 10.2028 37.0986 10.29 37.168C10.3773 37.2373 10.4827 37.28 10.5936 37.2908C10.7045 37.3016 10.8162 37.2801 10.9152 37.229C11.0142 37.1778 11.0964 37.0991 11.1517 37.0023L16.4692 27.7928L15.4663 27.2124L10.7847 35.3166L9.21416 30.7076C9.16886 30.5756 9.07739 30.4645 8.95661 30.3947C8.83583 30.3249 8.69388 30.3011 8.55694 30.3277L3.77717 31.2709L8.56548 22.9788L7.56684 22.3984Z" fill="white"/>
<path d="M29.4258 22.3984L28.4271 22.9788L33.2154 31.2709L28.4357 30.3277C28.2987 30.3011 28.1568 30.3249 28.036 30.3947C27.9152 30.4645 27.8237 30.5756 27.7785 30.7076L26.208 35.3166L21.5263 27.2124L20.5234 27.7928L25.8409 37.0024C25.8963 37.0991 25.9784 37.1778 26.0774 37.229C26.1764 37.2802 26.2881 37.3016 26.399 37.2908C26.5099 37.28 26.6153 37.2373 26.7026 37.168C26.7898 37.0986 26.8552 37.0056 26.8908 36.8999L28.7088 31.5611L34.2397 32.6536C34.3484 32.6751 34.461 32.665 34.5641 32.6243C34.6672 32.5836 34.7564 32.5142 34.8211 32.4243C34.8859 32.3343 34.9234 32.2277 34.9293 32.117C34.9352 32.0064 34.9091 31.8964 34.8542 31.8001L29.4258 22.3984Z" fill="white"/>
<path d="M18.4951 8.01172C18.0849 8.01172 18.0149 8.19124 17.9062 8.30192C17.2744 9.03221 16.4245 10.5358 16.1095 11.0332C15.0465 11.2991 13.9176 11.5188 12.96 11.8953C12.8211 11.9645 12.6301 11.9789 12.5033 12.369C12.3766 12.7591 12.5213 12.88 12.5929 13.0177C13.0587 13.7978 14.3823 15.2635 14.6372 15.5697C14.5725 16.7338 14.4121 17.7827 14.4835 18.8302C14.5065 18.9837 14.4589 19.1695 14.7908 19.4106C15.1226 19.6517 15.2864 19.5515 15.4395 19.5258C16.3497 19.3055 17.9841 18.5769 18.4951 18.3736C19.5206 18.7634 20.5402 19.2655 21.5508 19.5258C21.7038 19.5515 21.8676 19.6517 22.1994 19.4106C22.5313 19.1695 22.4838 18.9837 22.5067 18.8302C22.5841 17.9282 22.3796 15.9658 22.353 15.5697C22.9439 14.8788 23.5764 14.1382 24.1326 13.4274C24.4505 13.0824 24.5798 12.7158 24.4869 12.369C24.3939 12.022 24.1691 11.9645 24.0303 11.8953C23.0094 11.4907 21.9274 11.2974 20.8807 11.0332C20.2788 10.1144 19.7502 9.10664 19.084 8.30192C18.9753 8.19124 18.9053 8.01172 18.4951 8.01172ZM18.4951 9.41578C19.0029 10.157 19.4287 10.9106 19.912 11.6478C19.99 11.7577 20.0172 11.8334 20.2022 11.9678C20.3872 12.1022 20.4619 12.1026 20.5905 12.1428C21.455 12.3736 22.2986 12.5613 23.1511 12.8C22.6094 13.5167 22.0192 14.151 21.4697 14.84C21.3892 14.9481 21.3269 14.9938 21.2563 15.2113C21.1856 15.4287 21.2078 15.5033 21.2093 15.638C21.2523 16.5335 21.3354 17.3938 21.3758 18.2797C20.4158 17.9475 19.3905 17.4089 18.4951 17.2171C18.2665 17.217 18.2046 17.2636 18.0769 17.3067C17.2385 17.6233 16.4442 17.9681 15.6144 18.2797C15.6427 17.3801 15.74 16.5203 15.7809 15.638C15.7824 15.5033 15.8046 15.4287 15.7339 15.2113C15.6633 14.9938 15.601 14.9481 15.5206 14.84C14.9721 14.1491 14.3225 13.4155 13.8391 12.8C14.7005 12.5453 15.5489 12.3719 16.3997 12.1428C16.5283 12.1026 16.6031 12.1022 16.7881 11.9678C16.973 11.8334 17.0003 11.7577 17.0783 11.6478C17.3831 11.1984 17.6806 10.695 17.9403 10.2693C18.1393 9.94562 18.3331 9.64411 18.4951 9.41578Z" fill="#FF7B02"/>
</g>
<defs>
<clipPath id="clip0_30_17962">
<rect width="37" height="37" fill="white"/>
</clipPath>
</defs>
</svg>
