<svg width="39" height="39" viewBox="0 0 39 39" fill="none" xmlns="http://www.w3.org/2000/svg">
<g clip-path="url(#clip0_30_17988)">
<path d="M12.1375 28.7166V27.718C12.1375 27.6994 12.1525 27.6844 12.1711 27.6844H13.3963C14.849 27.6844 16.0309 26.5023 16.0309 25.0494V22.6961C16.5866 22.6933 17.1035 22.4173 17.4152 21.9568C17.7285 21.4939 17.7915 20.9079 17.5837 20.3891C17.5837 20.3891 17.5837 20.3891 17.5837 20.389L16.7172 18.225L15.8649 14.3794C15.8623 14.3675 15.8594 14.3557 15.8562 14.344C14.9394 10.9785 12.1601 9.125 8.03019 9.125C6.4948 9.125 4.99291 9.5441 3.68702 10.337C3.67979 10.3414 3.6727 10.3458 3.66562 10.3505C1.16832 11.9821 0.00350391 14.1494 0 17.172C0 20.1872 1.18013 22.6505 3.32254 24.1077C3.44663 24.1922 3.52066 24.3278 3.52066 24.4707V28.7166C3.52066 29.357 4.04168 29.8781 4.68213 29.8781H10.9756C11.6162 29.878 12.1375 29.357 12.1375 28.7166ZM10.611 28.3516H5.04707V24.4707C5.04707 23.8224 4.72357 23.215 4.18138 22.8458C2.46926 21.6812 1.52641 19.6663 1.52641 17.1729C1.5293 14.6846 2.44329 12.9762 4.48988 11.6352C5.55445 10.9915 6.77838 10.6513 8.03012 10.6513C9.74238 10.6513 11.154 11.0004 12.2259 11.6887C13.2868 12.37 14.0111 13.3925 14.3786 14.7278L15.2403 18.6159C15.2493 18.6563 15.2615 18.6961 15.277 18.7345L16.1666 20.9563C16.1919 21.0195 16.1721 21.07 16.151 21.1011C16.1299 21.1323 16.0905 21.1694 16.0223 21.1694H15.2677C14.8461 21.1694 14.5044 21.5112 14.5044 21.9327V25.0493C14.5044 25.6605 14.0073 26.1579 13.3963 26.1579H12.171C11.3108 26.1579 10.611 26.8577 10.611 27.7179V28.3516H10.611Z" fill="white"/>
<path d="M38.3555 13.7633C38.1876 13.3765 37.7379 13.1991 37.3515 13.367C36.9649 13.5349 36.7875 13.9844 36.9553 14.371C37.3038 15.174 37.4738 16.0905 37.4751 17.1719C37.4751 19.6663 36.5322 21.6812 34.8197 22.846C34.2779 23.215 33.9545 23.8224 33.9545 24.4706V28.3515H28.3906V27.7179C28.3906 26.8577 27.6907 26.1579 26.8305 26.1579H25.6052C24.9942 26.1579 24.4971 25.6607 24.4971 25.0493V21.9328C24.4971 21.5113 24.1553 21.1695 23.7338 21.1695H22.9793C22.9111 21.1695 22.8715 21.1324 22.8504 21.1012C22.8293 21.07 22.8095 21.0196 22.8349 20.9564L23.7246 18.7346C23.7401 18.6961 23.7522 18.6565 23.7612 18.616L24.6229 14.7279C24.9905 13.3925 25.7147 12.3701 26.7755 11.6888C27.8474 11.0004 29.2591 10.6514 30.9713 10.6514C31.3909 10.6514 31.811 10.6895 32.22 10.7647C32.6345 10.8405 33.0324 10.5667 33.1086 10.152C33.1848 9.7375 32.9105 9.33965 32.4959 9.26348C31.9961 9.17162 31.4832 9.125 30.9712 9.125C26.8414 9.125 24.0621 10.9785 23.1453 14.344C23.1421 14.3557 23.1392 14.3675 23.1366 14.3794L22.2842 18.225L21.4177 20.389C21.2099 20.9078 21.2729 21.4939 21.5861 21.9568C21.8978 22.4173 22.4147 22.6931 22.9703 22.6961V25.0494C22.9703 26.5023 24.1522 27.6844 25.6049 27.6844H26.8301C26.8487 27.6844 26.8638 27.6995 26.8638 27.718V28.7166C26.8638 29.357 27.385 29.8781 28.0256 29.8781H34.319C34.9594 29.8781 35.4805 29.357 35.4805 28.7166V24.4707C35.4805 24.3278 35.5546 24.1921 35.6782 24.1079C37.8214 22.6505 39.0016 20.1872 39.0016 17.171C39 15.876 38.7887 14.7613 38.3555 13.7633Z" fill="white"/>
<path d="M11.6016 6.8654C13.8037 5.09045 16.5827 4.13487 19.4287 4.17593C21.8099 4.20998 24.1251 4.94595 26.0847 6.27149C25.7899 6.42612 25.6205 6.76204 25.6924 7.1039C25.768 7.46343 26.0852 7.71015 26.4385 7.71015C26.4906 7.71015 26.5435 7.70482 26.5964 7.6937L28.0285 7.39236C28.4058 7.31291 28.6647 6.96466 28.6318 6.58045L28.5071 5.12145C28.471 4.70136 28.1008 4.3902 27.6815 4.42608C27.332 4.45594 27.0586 4.7172 26.997 5.04604C24.7801 3.53029 22.1531 2.68829 19.4504 2.64967C16.2504 2.60686 13.1222 3.67913 10.6436 5.67712C10.3155 5.94167 10.2639 6.42208 10.5284 6.75023C10.793 7.0783 11.2734 7.12995 11.6016 6.8654Z" fill="#FF7B02"/>
<path d="M27.3924 32.1339C25.1903 33.9088 22.4097 34.8637 19.5654 34.8233C17.1841 34.7893 14.8689 34.0533 12.9093 32.7278C13.2041 32.5731 13.3736 32.2372 13.3017 31.8954C13.2149 31.4828 12.8104 31.2188 12.3977 31.3056L10.9655 31.6069C10.5881 31.6863 10.3293 32.0346 10.3622 32.4188L10.487 33.8778C10.5211 34.2757 10.8545 34.576 11.2466 34.576C11.2684 34.576 11.2904 34.575 11.3125 34.5732C11.662 34.5433 11.9355 34.2821 11.997 33.9533C14.2138 35.469 16.8408 36.311 19.5436 36.3496C19.6091 36.3505 19.6744 36.351 19.7397 36.351C22.8717 36.351 25.9225 35.2794 28.3503 33.3222C28.6785 33.0577 28.7301 32.5773 28.4656 32.2491C28.201 31.921 27.7205 31.8694 27.3924 32.1339Z" fill="#FF7B02"/>
<path d="M35.4976 12.1593C35.9191 12.1593 36.2609 11.8176 36.2609 11.3961C36.2609 10.9745 35.9191 10.6328 35.4976 10.6328C35.0761 10.6328 34.7344 10.9745 34.7344 11.3961C34.7344 11.8176 35.0761 12.1593 35.4976 12.1593Z" fill="white"/>
</g>
<defs>
<clipPath id="clip0_30_17988">
<rect width="39" height="39" fill="white"/>
</clipPath>
</defs>
</svg>
