<svg width="38" height="38" viewBox="0 0 38 38" fill="none" xmlns="http://www.w3.org/2000/svg">
<g clip-path="url(#clip0_4236_3173)">
<path d="M0.939216 24.4381L3.55617 25.669C3.78237 25.7755 4.02931 25.8308 4.27936 25.8308C4.51403 25.8306 4.74616 25.7822 4.96138 25.6886C5.1766 25.5951 5.37034 25.4584 5.53061 25.287L6.54436 26.0152C6.8163 26.3292 6.98485 26.8841 7.16283 27.4703C7.33012 28.0212 7.50223 28.5869 7.79183 29.077L7.46735 29.6313C7.25959 29.9855 7.16215 30.3937 7.18748 30.8036C7.21281 31.2135 7.35976 31.6066 7.60955 31.9326C7.85935 32.2585 8.20065 32.5027 8.58986 32.6338C8.97907 32.7648 9.39852 32.7769 9.79463 32.6685C9.90646 33.1138 10.1635 33.5091 10.5251 33.7921C10.8867 34.075 11.3323 34.2294 11.7915 34.2308C11.9702 34.2306 12.1481 34.2075 12.321 34.1621C12.3268 34.1606 12.3326 34.1586 12.3385 34.1571C12.4495 34.603 12.7065 34.999 13.0686 35.2819C13.4308 35.5648 13.8771 35.7185 14.3367 35.7183C14.7898 35.7181 15.2306 35.5704 15.5923 35.2974C15.7709 35.6153 16.031 35.8799 16.3457 36.0639C16.6605 36.248 17.0186 36.3448 17.3832 36.3446C17.862 36.3442 18.3261 36.1793 18.6979 35.8777L20.3692 36.8701C20.7119 37.0743 21.1034 37.1822 21.5023 37.1822C21.6915 37.1821 21.8799 37.1582 22.0631 37.1111C22.5402 36.9903 22.9638 36.715 23.268 36.3283C23.5722 35.9415 23.74 35.4649 23.745 34.9729C24.1085 35.083 24.494 35.0986 24.8652 35.018C25.2363 34.9374 25.5808 34.7634 25.8659 34.5125C26.1509 34.2616 26.3672 33.942 26.4942 33.584C26.6212 33.2261 26.6547 32.8417 26.5916 32.4672C26.9121 32.4479 27.2247 32.3595 27.5079 32.2082C27.7912 32.0569 28.0384 31.8462 28.2326 31.5905C28.4269 31.3348 28.5636 31.0401 28.6334 30.7267C28.7032 30.4132 28.7044 30.0884 28.6371 29.7745C28.7346 29.7627 28.8313 29.7447 28.9265 29.7204C29.211 29.6482 29.4785 29.5206 29.7136 29.3448C29.9486 29.1691 30.1467 28.9486 30.2964 28.6961C30.4461 28.4436 30.5444 28.1641 30.5858 27.8735C30.6272 27.5829 30.6109 27.287 30.5377 27.0028C30.5061 26.8796 30.4644 26.7592 30.4128 26.6429C31.3316 26.3778 32.1026 26.0057 32.7446 25.5185C33.0325 25.7219 33.3763 25.8312 33.7288 25.8314C33.979 25.8312 34.2262 25.7757 34.4525 25.6688L37.0689 24.4381C37.1399 24.4053 37.2038 24.3587 37.2568 24.301C37.3097 24.2434 37.3508 24.1758 37.3775 24.1023C37.4043 24.0287 37.4163 23.9506 37.4127 23.8724C37.4092 23.7942 37.3902 23.7175 37.3569 23.6466C37.3236 23.5758 37.2766 23.5122 37.2186 23.4596C37.1607 23.407 37.0929 23.3664 37.0191 23.3401C36.9454 23.3137 36.8672 23.3023 36.789 23.3063C36.7109 23.3103 36.6343 23.3298 36.5636 23.3635L33.9467 24.5941C33.822 24.6522 33.6793 24.6586 33.5498 24.6119C33.4204 24.5652 33.3146 24.4692 33.2557 24.3448L29.204 15.7299C29.1455 15.6053 29.1387 15.4627 29.1851 15.3332C29.2315 15.2036 29.3273 15.0977 29.4515 15.0386L32.0686 13.8078C32.2101 13.7402 32.3191 13.6194 32.3718 13.4717C32.4245 13.324 32.4167 13.1614 32.3499 13.0194C32.2832 12.8775 32.163 12.7678 32.0156 12.7141C31.8682 12.6605 31.7056 12.6674 31.5633 12.7332L28.9457 13.9642C28.651 14.1037 28.4023 14.3245 28.2291 14.6007C28.0558 14.8769 27.9652 15.1968 27.9678 15.5228C27.2677 15.7761 26.5313 15.9961 25.7858 16.0668C25.0313 16.1404 24.0126 16.0083 22.9341 15.8685C20.9792 15.6151 18.9579 15.3532 17.6047 16.1506L16.8615 16.5879C15.6181 15.6899 14.4416 15.8309 13.2025 15.9805C12.4019 16.077 11.5739 16.1771 10.59 16.0308C10.3953 16.0018 10.1972 15.9622 9.99286 15.9115C10.0849 15.5294 10.0426 15.1272 9.87305 14.7726C9.70348 14.418 9.41697 14.1326 9.06172 13.9644L6.44484 12.7332C6.3025 12.6674 6.13988 12.6605 5.99249 12.7141C5.84511 12.7678 5.72492 12.8775 5.65819 13.0194C5.59145 13.1614 5.58358 13.324 5.6363 13.4717C5.68902 13.6194 5.79804 13.7402 5.93956 13.8078L8.55599 15.0383C8.68036 15.0973 8.77629 15.2032 8.82281 15.3327C8.86932 15.4623 8.86262 15.605 8.80418 15.7296L4.75228 24.3448C4.69358 24.4694 4.58786 24.5656 4.45832 24.6124C4.32877 24.6592 4.18597 24.6526 4.06123 24.5943L1.4439 23.3635C1.30198 23.3005 1.14105 23.2957 0.995581 23.35C0.850116 23.4042 0.731695 23.5133 0.665694 23.6538C0.599694 23.7944 0.591365 23.9552 0.642492 24.1018C0.69362 24.2484 0.800136 24.3691 0.939216 24.4381ZM8.80826 31.4351C8.60719 31.3166 8.46117 31.1234 8.4021 30.8976C8.34304 30.6719 8.37574 30.4319 8.49305 30.2302L8.99462 29.3734C9.00338 29.3596 9.01177 29.3456 9.01926 29.3312L9.97832 27.6931C10.097 27.4934 10.2898 27.3487 10.5146 27.2905C10.7395 27.2323 10.9783 27.2654 11.1789 27.3825C11.3795 27.4996 11.5257 27.6912 11.5857 27.9156C11.6456 28.14 11.6145 28.379 11.499 28.5806L10.0139 31.1195C9.89542 31.3208 9.70204 31.467 9.47606 31.5261C9.25008 31.5852 9.01018 31.5525 8.80826 31.4351ZM11.354 32.9224C11.1529 32.8045 11.0068 32.6116 10.9477 32.3861C10.8886 32.1606 10.9214 31.9208 11.0388 31.7194L12.5242 29.18C12.6422 28.9787 12.8354 28.8325 13.0612 28.7735C13.173 28.7443 13.2895 28.7375 13.404 28.7533C13.5184 28.7691 13.6287 28.8074 13.7284 28.8658C13.8281 28.9242 13.9153 29.0017 13.985 29.0939C14.0548 29.186 14.1057 29.291 14.1349 29.4028C14.1641 29.5146 14.1709 29.6311 14.1551 29.7455C14.1393 29.86 14.101 29.9702 14.0426 30.0699L12.5568 32.6082C12.4384 32.8088 12.2455 32.9545 12.0202 33.0134C11.7948 33.0723 11.5553 33.0395 11.354 32.9224ZM13.8974 34.4119C13.6963 34.2934 13.5503 34.1002 13.4912 33.8744C13.4322 33.6487 13.4649 33.4087 13.5822 33.207L15.0674 30.6699C15.1856 30.4684 15.379 30.322 15.605 30.2628C15.831 30.2037 16.0713 30.2366 16.273 30.3545C16.4731 30.4734 16.6183 30.6662 16.6772 30.8913C16.7362 31.1164 16.7042 31.3557 16.5881 31.5574L15.8444 32.8287L15.6062 33.2332C15.595 33.252 15.5849 33.2713 15.5744 33.2904L15.1033 34.0957C14.9847 34.297 14.7913 34.4432 14.5653 34.5024C14.3393 34.5616 14.0995 34.5291 13.8974 34.4119ZM16.9469 35.0395C16.847 34.9808 16.7597 34.9029 16.69 34.8103C16.6203 34.7178 16.5695 34.6123 16.5407 34.5001C16.4832 34.286 16.5098 34.058 16.615 33.8628L16.8673 33.4314L17.6158 32.161C17.7034 32.01 17.834 31.8885 17.9909 31.8121C18.1479 31.7356 18.324 31.7076 18.4969 31.7317C18.6698 31.7557 18.8316 31.8307 18.9617 31.947C19.0918 32.0634 19.1843 32.2159 19.2275 32.385C19.257 32.496 19.2641 32.6118 19.2484 32.7256C19.2327 32.8394 19.1945 32.949 19.136 33.0479L18.152 34.7216C18.0333 34.9226 17.8402 35.0687 17.6145 35.1283C17.3889 35.1879 17.1492 35.1558 16.9469 35.0395ZM18.2077 17.1734C19.2096 16.583 21.1076 16.8289 22.7819 17.0459C23.9292 17.1944 25.0128 17.3354 25.8999 17.2487C26.7525 17.1678 27.5644 16.9296 28.3275 16.6555L32.0443 24.5592C31.3969 25.0547 30.5699 25.4116 29.533 25.6428C29.5266 25.639 29.5206 25.6348 29.5143 25.6311L26.0222 23.5581C25.9176 23.4961 25.7966 23.4676 25.6754 23.4765C23.2002 23.6598 20.5865 23.4171 18.2405 20.4266C18.1631 20.3279 18.0564 20.2563 17.9358 20.222C17.8152 20.1877 17.6868 20.1925 17.569 20.2356L16.1515 20.7552C16.0421 20.7953 15.9469 20.8666 15.8777 20.9605L14.916 22.266C14.3771 22.9794 13.6421 23.2133 12.9497 22.8913C12.8534 22.8462 12.7682 22.7806 12.7001 22.699C12.6319 22.6175 12.5825 22.522 12.5552 22.4192C12.528 22.3165 12.5235 22.209 12.5423 22.1044C12.561 21.9998 12.6025 21.9006 12.6637 21.8137L14.3039 19.4706L17.1094 17.8196L17.1103 17.819L18.2077 17.1734ZM13.345 17.159C14.2889 17.0451 14.9942 16.9603 15.6946 17.2746L13.5911 18.5126C13.5178 18.5558 13.4545 18.6141 13.4056 18.6838L11.6926 21.1303C11.5314 21.3593 11.4224 21.6208 11.3732 21.8965C11.3241 22.1721 11.336 22.4552 11.4081 22.7258C11.4802 22.9963 11.6107 23.2478 11.7906 23.4624C11.9704 23.6771 12.1951 23.8496 12.4488 23.968C13.6493 24.5261 14.9896 24.1387 15.8679 22.976L16.7275 21.8092L17.5801 21.4968C20.1473 24.5398 23.0413 24.8391 25.5756 24.6743L28.9089 26.6522C29.1442 26.7962 29.3133 27.027 29.3797 27.2947C29.446 27.5624 29.4042 27.8455 29.2633 28.0827C29.1225 28.3198 28.8939 28.4919 28.627 28.5617C28.3602 28.6316 28.0766 28.5935 27.8377 28.4557L25.1406 26.8568C25.0735 26.8165 24.9991 26.7898 24.9217 26.7783C24.8442 26.7668 24.7653 26.7708 24.6894 26.7899C24.6134 26.8091 24.5421 26.843 24.4793 26.8899C24.4166 26.9367 24.3637 26.9955 24.3238 27.0628C24.2839 27.1302 24.2577 27.2048 24.2467 27.2823C24.2357 27.3598 24.2402 27.4387 24.2598 27.5145C24.2794 27.5903 24.3138 27.6615 24.3611 27.7239C24.4083 27.7863 24.4675 27.8388 24.5351 27.8783L26.9654 29.3191C26.9728 29.3241 26.9802 29.3295 26.9882 29.334C27.2257 29.4774 27.3973 29.7086 27.4659 29.9774C27.5344 30.2463 27.4944 30.5314 27.3546 30.7711C27.2122 31.0098 26.981 31.1825 26.7116 31.2512C26.4423 31.32 26.1566 31.2793 25.9172 31.1379L23.2345 29.5459C23.1675 29.5051 23.093 29.4781 23.0154 29.4662C22.9377 29.4544 22.8586 29.4581 22.7824 29.4771C22.7062 29.4961 22.6346 29.53 22.5716 29.5769C22.5086 29.6237 22.4555 29.6826 22.4155 29.7501C22.3754 29.8176 22.3491 29.8924 22.3381 29.9701C22.3271 30.0478 22.3317 30.127 22.3514 30.2029C22.3712 30.2789 22.4059 30.3502 22.4534 30.4127C22.5009 30.4752 22.5604 30.5276 22.6283 30.567L24.9165 31.9255C24.9191 31.9271 24.9214 31.9289 24.924 31.9305C25.1615 32.0739 25.3331 32.3051 25.4017 32.574C25.4703 32.8429 25.4303 33.128 25.2904 33.3677C25.148 33.6064 24.9168 33.7791 24.6474 33.8478C24.3781 33.9165 24.0924 33.8758 23.8531 33.7344L22.6547 33.023L22.6524 33.0216L21.5498 32.367C21.4143 32.2866 21.2525 32.2633 21.1 32.3022C20.9474 32.3411 20.8165 32.4391 20.7361 32.5745C20.6557 32.7099 20.6324 32.8717 20.6713 33.0243C20.7103 33.1769 20.8082 33.3078 20.9436 33.3882L22.0465 34.0428C22.2824 34.1878 22.4526 34.4191 22.5209 34.6874C22.5892 34.9558 22.5503 35.2403 22.4125 35.4805C22.2698 35.7189 22.0388 35.8913 21.7697 35.9603C21.5006 36.0292 21.2152 35.9891 20.9755 35.8487L19.4123 34.921L20.1589 33.651C20.3677 33.2967 20.466 32.8881 20.441 32.4777C20.4161 32.0672 20.2691 31.6735 20.019 31.3471C19.7688 31.0208 19.4269 30.7765 19.037 30.6458C18.6471 30.515 18.227 30.5037 17.8307 30.6133C17.8288 30.6059 17.8273 30.5984 17.8253 30.5906C17.7567 30.3263 17.6363 30.0782 17.471 29.8608C17.3057 29.6435 17.0989 29.4611 16.8626 29.3243C16.6262 29.1875 16.3651 29.0991 16.0943 29.064C15.8235 29.029 15.5484 29.0481 15.285 29.1203C15.2834 29.1139 15.2821 29.1074 15.2804 29.1011C15.2118 28.837 15.0914 28.5891 14.9263 28.3719C14.7612 28.1547 14.5546 27.9724 14.3184 27.8357C14.0823 27.6989 13.8214 27.6104 13.5508 27.5752C13.2802 27.54 13.0054 27.5589 12.7421 27.6308C12.6418 27.2328 12.4252 26.8736 12.1199 26.5992C11.8147 26.3247 11.4347 26.1473 11.0282 26.0897C10.6218 26.032 10.2074 26.0967 9.83791 26.2755C9.46838 26.4542 9.16045 26.739 8.95336 27.0934L8.52437 27.8257C8.44333 27.5995 8.37059 27.361 8.29912 27.1254C8.08181 26.4099 7.85715 25.6701 7.37138 25.1597L7.33301 25.1194L6.11226 24.2429L9.51297 17.0128C9.8097 17.0948 10.1111 17.1589 10.4155 17.205C11.5571 17.3747 12.5072 17.2601 13.345 17.159ZM18.7795 13.9468C18.9235 14.0056 19.0847 14.0056 19.2286 13.9468C21.9771 12.8239 24.9137 9.41001 24.9137 3.19597C24.9137 3.0396 24.8521 2.88954 24.7421 2.77837C24.6321 2.6672 24.4827 2.6039 24.3264 2.60222C22.3447 2.58085 20.7256 2.04113 19.3769 0.952118C19.2712 0.866831 19.1396 0.820313 19.0038 0.820312C18.8681 0.820312 18.7364 0.866831 18.6308 0.952118C17.2822 2.04091 15.6633 2.58063 13.6815 2.602C13.5251 2.60368 13.3757 2.66698 13.2657 2.77815C13.1558 2.88931 13.0941 3.03938 13.0941 3.19575C13.0941 9.40972 16.031 12.8236 18.7795 13.9468ZM19.0041 2.1601C20.3336 3.11559 21.915 3.65487 23.7175 3.76775C23.5561 8.85894 21.2455 11.7152 19.0041 12.7495C16.7627 11.7152 14.4519 8.85894 14.2906 3.76775C16.0931 3.65487 17.6744 3.11559 19.0041 2.1601ZM18.1442 9.04701L17.1386 8.07927C17.026 7.96989 16.9613 7.82036 16.9586 7.66337C16.956 7.50639 17.0156 7.35475 17.1245 7.24162C17.2333 7.12849 17.3826 7.06308 17.5395 7.0597C17.6965 7.05632 17.8484 7.11526 17.962 7.2236L18.5282 7.76852L20.0191 6.13422C20.0716 6.0766 20.135 6.02989 20.2056 5.99677C20.2762 5.96364 20.3526 5.94474 20.4305 5.94116C20.5084 5.93757 20.5863 5.94936 20.6596 5.97586C20.733 6.00236 20.8004 6.04304 20.858 6.09559C20.9156 6.14814 20.9623 6.21152 20.9955 6.28212C21.0286 6.35272 21.0475 6.42915 21.0511 6.50705C21.0547 6.58496 21.0429 6.6628 21.0164 6.73615C20.9899 6.80949 20.9492 6.8769 20.8966 6.93452L18.9949 9.01933C18.9414 9.07785 18.8767 9.12507 18.8047 9.15821C18.7327 9.19136 18.6548 9.20974 18.5756 9.21229C18.5691 9.21229 18.5627 9.21229 18.5562 9.21229C18.4027 9.21254 18.255 9.1533 18.1442 9.04701Z" fill="white"/>
</g>
<path d="M18.7795 13.9468C18.9235 14.0056 19.0847 14.0056 19.2286 13.9468C21.9771 12.8239 24.9137 9.41001 24.9137 3.19597C24.9137 3.0396 24.8521 2.88954 24.7421 2.77837C24.6321 2.6672 24.4827 2.6039 24.3264 2.60222C22.3447 2.58085 20.7256 2.04113 19.3769 0.952118C19.2712 0.866831 19.1396 0.820313 19.0038 0.820312C18.8681 0.820312 18.7364 0.866831 18.6308 0.952118C17.2822 2.04091 15.6633 2.58063 13.6815 2.602C13.5251 2.60368 13.3757 2.66698 13.2657 2.77815C13.1558 2.88931 13.0941 3.03938 13.0941 3.19575C13.0941 9.40972 16.031 12.8236 18.7795 13.9468ZM19.0041 2.1601C20.3336 3.11559 21.915 3.65487 23.7175 3.76775C23.5561 8.85894 21.2455 11.7152 19.0041 12.7495C16.7627 11.7152 14.4519 8.85894 14.2906 3.76775C16.0931 3.65487 17.6744 3.11559 19.0041 2.1601ZM18.1442 9.04701L17.1386 8.07927C17.026 7.96989 16.9613 7.82036 16.9586 7.66337C16.956 7.50639 17.0156 7.35475 17.1245 7.24162C17.2333 7.12849 17.3826 7.06308 17.5395 7.0597C17.6965 7.05632 17.8484 7.11526 17.962 7.2236L18.5282 7.76852L20.0191 6.13422C20.0716 6.0766 20.135 6.02989 20.2056 5.99677C20.2762 5.96364 20.3526 5.94474 20.4305 5.94116C20.5084 5.93757 20.5863 5.94936 20.6596 5.97586C20.733 6.00236 20.8004 6.04304 20.858 6.09559C20.9156 6.14814 20.9623 6.21152 20.9955 6.28212C21.0286 6.35272 21.0475 6.42915 21.0511 6.50705C21.0547 6.58496 21.0429 6.6628 21.0164 6.73615C20.9899 6.80949 20.9492 6.8769 20.8966 6.93452L18.9949 9.01933C18.9414 9.07785 18.8767 9.12507 18.8047 9.15821C18.7327 9.19136 18.6548 9.20974 18.5756 9.21229C18.5691 9.21229 18.5627 9.21229 18.5562 9.21229C18.4027 9.21254 18.255 9.1533 18.1442 9.04701Z" fill="#FF7B02"/>
<defs>
<clipPath id="clip0_4236_3173">
<rect width="38" height="38" fill="white"/>
</clipPath>
</defs>
</svg>
