<svg width="30" height="30" viewBox="0 0 30 30" fill="none" xmlns="http://www.w3.org/2000/svg">
<g clip-path="url(#clip0_30_12954)">
<path fill-rule="evenodd" clip-rule="evenodd" d="M13.0882 24.3516H2.02163C1.16581 24.3516 0.46875 23.6571 0.46875 22.8012V11.2868C0.46875 10.4345 1.16581 9.73636 2.02163 9.73636H2.8764V6.80224C2.8764 3.289 5.75134 0.414062 9.26451 0.414062C12.7778 0.414062 15.6502 3.28894 15.6502 6.80224C15.6502 7.06212 15.4395 7.27283 15.1796 7.27283H12.4713C12.2115 7.27283 12.0007 7.06212 12.0007 6.80224C12.0007 5.29936 10.7653 4.06347 9.26451 4.06347C7.76381 4.06347 6.52834 5.29936 6.52834 6.80224V9.73636H16.5075C17.3636 9.73636 18.0578 10.4342 18.0578 11.2868V12.9937C18.9684 12.6629 19.9509 12.4825 20.9752 12.4825C25.6963 12.4825 29.5292 16.3154 29.5292 21.0365C29.5292 25.7576 25.6963 29.5905 20.9752 29.5905C17.4293 29.5905 14.3845 27.4284 13.0882 24.3516ZM3.81757 9.73636H5.58716V6.80224C5.58716 4.78265 7.24781 3.1223 9.26451 3.1223C11.1222 3.1223 12.6777 4.531 12.9116 6.33165H14.6887C14.4484 3.55412 12.1016 1.35524 9.26451 1.35524C6.26893 1.35524 3.81757 3.80659 3.81757 6.80224V9.73636ZM17.1166 13.4014V11.2868C17.1166 10.9518 16.8439 10.6775 16.5075 10.6775H2.02163C1.68493 10.6775 1.40993 10.9515 1.40993 11.2868V22.8012C1.40993 23.1379 1.68493 23.4104 2.02163 23.4104H12.7554C12.5377 22.6566 12.4212 21.8601 12.4212 21.0365C12.4212 17.7032 14.3318 14.8128 17.1166 13.4014ZM20.9752 13.4237C16.7735 13.4237 13.3623 16.8348 13.3623 21.0365C13.3623 25.2381 16.7735 28.6494 20.9752 28.6494C25.1768 28.6494 28.588 25.2381 28.588 21.0365C28.588 16.8348 25.1768 13.4237 20.9752 13.4237Z" fill="#FF7B02"/>
</g>
<defs>
<clipPath id="clip0_30_12954">
<rect width="30" height="30" fill="white"/>
</clipPath>
</defs>
</svg>
