<svg width="32" height="32" viewBox="0 0 32 32" fill="none" xmlns="http://www.w3.org/2000/svg">
<g clip-path="url(#clip0_30_12941)">
<path d="M26.9749 20.1953L21.5349 22.4935C21.5446 22.4256 21.5543 22.3578 21.5543 22.285C21.5543 21.2281 20.6961 20.3699 19.6391 20.3699H15.7216C15.5616 20.3699 15.4064 20.3359 15.261 20.2681L11.9397 18.765C11.421 18.5323 10.844 18.4062 10.2767 18.4062H7.57125V19.3759H10.2767C10.7082 19.3759 11.1446 19.4681 11.5422 19.6475L14.8634 21.1505C15.1349 21.2717 15.4258 21.3347 15.7264 21.3347H19.644C20.1676 21.3347 20.5894 21.7614 20.5894 22.2802C20.5894 22.799 20.1628 23.2256 19.644 23.2256H14.5676V24.1953H19.6391C19.9737 24.1953 20.284 24.1032 20.5555 23.9529V23.9578L27.3482 21.0826C27.9106 20.845 28.5264 20.8499 29.084 21.0923C29.5107 21.2814 29.8597 21.5869 30.0925 21.9844L18.1022 28.3456C17.1858 28.8305 16.0949 28.9275 15.1058 28.6123L9.23913 26.7263L7.56641 26.702V27.6717H9.0161L14.81 29.5335C15.29 29.6887 15.7846 29.7614 16.284 29.7614C17.0694 29.7614 17.8549 29.5723 18.5531 29.199L31.3288 22.4305L31.1882 22.0329C30.8925 21.2087 30.2816 20.559 29.4767 20.205C28.6719 19.8608 27.7846 19.8511 26.9749 20.1953Z" fill="white"/>
<path d="M6.52009 28.431V18.1377C6.52009 17.6043 6.08373 17.168 5.55039 17.168H0.667969V18.1377H5.55039V28.4358H0.667969V29.4055H5.55039C6.08373 29.4007 6.52009 28.9643 6.52009 28.431Z" fill="white"/>
<path d="M4.27649 26.9258C4.27649 27.2992 3.97103 27.6046 3.5977 27.6046C3.21952 27.6046 2.91406 27.2992 2.91406 26.9258C2.91406 26.5476 3.21952 26.2422 3.5977 26.2422C3.97103 26.2422 4.27649 26.5476 4.27649 26.9258Z" fill="white"/>
<path d="M12.1377 13.7855L12.6613 14.1734L16.2686 12.1758L19.5316 14.1394L19.8128 14.3043L20.3364 13.9261L19.551 9.88246L22.4358 7.38064L22.6686 7.15761L22.4649 6.5564L18.3825 6.05215L16.8989 2.54185L16.7631 2.25094L16.4528 2.24609H16.1231L14.3825 5.98428L10.5813 6.30428L10.2564 6.34306L10.0625 6.94912L13.0734 9.7564L12.1377 13.7855ZM11.7255 7.18185L14.7413 6.92003L15.0273 6.88609L16.4189 3.89943L17.597 6.67761L17.7183 6.94428L20.9958 7.3467L18.7267 9.31518L18.4989 9.50912L19.1292 12.7576L16.5304 11.1915L16.2831 11.0606L13.408 12.6558L14.0819 9.7467L14.1643 9.44609L11.7255 7.18185Z" fill="#FF7B02"/>
<path d="M5.76232 11.9964L5.05929 15.017L4.96232 15.3661L5.5102 15.7686L8.53081 14.0958L11.1975 15.6958L11.4981 15.8849L12.0363 15.4922L11.3769 12.1031L12.0799 11.497L11.4447 10.7649L10.509 11.5746L10.3684 11.7395V11.9334L10.8241 14.3431L8.85565 13.1552L8.75384 13.0583L8.34171 13.0486L8.24474 13.1455L6.23262 14.2607L6.77565 11.9043V11.6183L4.88959 9.86311L7.19747 9.65947L7.4205 9.65462L7.62414 9.45098L8.65687 7.23038L9.58778 9.42674L9.73808 9.7128H10.0096L11.1781 9.85826L11.2993 8.89341L10.3635 8.78189L9.13202 5.8728L8.96717 5.5625L8.29808 5.61583L8.20596 5.90189L6.89687 8.71886L3.81323 8.98553L3.4302 9.00492L3.22656 9.7128L3.49323 9.88735L5.76232 11.9964Z" fill="#FF7B02"/>
<path d="M21.6997 8.78203L21.787 9.74688L22.7227 9.65961L22.9409 9.64991L23.1446 9.44627L24.1773 7.22567L25.0646 9.31536L25.0743 9.70809H25.53L27.8427 9.99415L26.044 11.5554L25.884 11.7251V11.9335L26.3446 14.3384L24.3712 13.1554L24.2694 13.0535L23.8427 13.0584L23.7555 13.1505L21.753 14.2608L22.3009 11.9045L22.2961 11.6184L21.0549 10.4596L20.3906 11.1675L21.2779 11.9966L20.5797 15.0172L20.4827 15.342L21.0112 15.7784L24.0512 14.096L26.7227 15.7008L27.0234 15.8851L27.5518 15.4875L26.8924 12.1032L29.2246 10.0814C29.3846 9.95537 29.4524 9.74203 29.3991 9.54809L29.2876 9.20385L25.884 8.78688L24.6427 5.86809L24.4973 5.60143L23.9203 5.58203L23.77 5.81961L22.4124 8.719L21.6997 8.78203Z" fill="#FF7B02"/>
</g>
<defs>
<clipPath id="clip0_30_12941">
<rect width="32" height="32" fill="white"/>
</clipPath>
</defs>
</svg>
