<svg width="33" height="33" viewBox="0 0 33 33" fill="none" xmlns="http://www.w3.org/2000/svg">
<path d="M20.9271 16.5951L15.0835 22.4387L12.0729 19.428C11.67 19.0252 11.0175 19.0252 10.6146 19.428C10.2118 19.8308 10.2118 20.4834 10.6146 20.8863L14.3544 24.6261C14.5558 24.8275 14.8197 24.9282 15.0835 24.9282C15.3474 24.9282 15.6113 24.8275 15.8127 24.6261L22.3854 18.0533C22.7882 17.6505 22.7882 16.9979 22.3854 16.5951C21.9825 16.1923 21.33 16.1923 20.9271 16.5951Z" fill="#FF7B02"/>
<path d="M25.7812 4.08371H24.2344V3.09375C24.2344 2.52425 23.7726 2.0625 23.2031 2.0625C22.6336 2.0625 22.1719 2.52425 22.1719 3.09375V4.08371H10.8281V3.09375C10.8281 2.52425 10.3664 2.0625 9.79688 2.0625C9.22737 2.0625 8.76562 2.52425 8.76562 3.09375V4.08371H7.21875C4.37576 4.08371 2.0625 6.39697 2.0625 9.23996V25.7812C2.0625 28.6242 4.37576 30.9375 7.21875 30.9375H25.7812C28.6242 30.9375 30.9375 28.6242 30.9375 25.7812V9.23996C30.9375 6.39697 28.6242 4.08371 25.7812 4.08371ZM4.125 9.23996C4.125 7.53397 5.51276 6.14621 7.21875 6.14621H8.76562V7.13567C8.76562 7.70517 9.22737 8.16692 9.79688 8.16692C10.3664 8.16692 10.8281 7.70517 10.8281 7.13567V6.14621H22.1719V7.13567C22.1719 7.70517 22.6336 8.16692 23.2031 8.16692C23.7726 8.16692 24.2344 7.70517 24.2344 7.13567V6.14621H25.7812C27.4872 6.14621 28.875 7.53397 28.875 9.23996V10.2813H4.125V9.23996ZM25.7812 28.875H7.21875C5.51276 28.875 4.125 27.4872 4.125 25.7812V12.3438H28.875V25.7812C28.875 27.4872 27.4872 28.875 25.7812 28.875Z" fill="white"/>
</svg>
