<svg width="34" height="34" viewBox="0 0 34 34" fill="none" xmlns="http://www.w3.org/2000/svg">
<path d="M22.2163 5.77469H21.3982V3.91531C21.3982 3.44049 21.2096 2.98512 20.8738 2.64937C20.5381 2.31362 20.0827 2.125 19.6079 2.125C19.1331 2.125 18.6777 2.31362 18.3419 2.64937C18.0062 2.98512 17.8176 3.44049 17.8176 3.91531V5.77469H15.1613V3.91531C15.1613 3.44049 14.9727 2.98512 14.637 2.64937C14.3012 2.31362 13.8458 2.125 13.371 2.125C12.8962 2.125 12.4408 2.31362 12.1051 2.64937C11.7693 2.98512 11.5807 3.44049 11.5807 3.91531V5.77469H8.92445V3.91531C8.89948 3.45666 8.69969 3.02503 8.36618 2.70919C8.03268 2.39334 7.59081 2.21732 7.13148 2.21732C6.67216 2.21732 6.23029 2.39334 5.89679 2.70919C5.56328 3.02503 5.36349 3.45666 5.33852 3.91531V5.77469H4.4832C3.92423 5.78168 3.39053 6.00864 2.99774 6.4064C2.60496 6.80416 2.38472 7.34067 2.38477 7.89969V29.7766C2.38472 30.3356 2.60496 30.8721 2.99774 31.2699C3.39053 31.6676 3.92423 31.8946 4.4832 31.9016H22.2163C22.7744 31.8932 23.3067 31.6656 23.6984 31.268C24.09 30.8704 24.3095 30.3347 24.3095 29.7766V7.87313C24.3026 7.31963 24.08 6.79066 23.6891 6.39875C23.2982 6.00685 22.7698 5.78295 22.2163 5.77469ZM18.8801 3.91531C18.8801 3.72228 18.9568 3.53716 19.0933 3.40067C19.2297 3.26418 19.4149 3.1875 19.6079 3.1875C19.8009 3.1875 19.986 3.26418 20.1225 3.40067C20.259 3.53716 20.3357 3.72228 20.3357 3.91531V5.77469H18.8801V3.91531ZM12.622 3.91531C12.622 3.72228 12.6986 3.53716 12.8351 3.40067C12.9716 3.26418 13.1567 3.1875 13.3498 3.1875C13.5428 3.1875 13.7279 3.26418 13.8644 3.40067C14.0009 3.53716 14.0776 3.72228 14.0776 3.91531V5.77469H12.622V3.91531ZM6.37445 3.91531C6.39007 3.73233 6.47379 3.56188 6.60906 3.43767C6.74432 3.31346 6.92128 3.24454 7.10492 3.24454C7.28857 3.24454 7.46552 3.31346 7.60079 3.43767C7.73605 3.56188 7.81977 3.73233 7.83539 3.91531V5.77469H6.37445V3.91531ZM4.49914 6.83719H22.2163C22.4926 6.84548 22.7547 6.96107 22.9471 7.15943C23.1395 7.3578 23.2471 7.62333 23.247 7.89969V8.65406H3.44727V7.87313C3.454 7.6005 3.56531 7.3409 3.75814 7.14806C3.95098 6.95523 4.21058 6.84392 4.4832 6.83719H4.49914ZM22.2163 30.8125H4.4832C4.20604 30.8056 3.94256 30.6906 3.74902 30.4921C3.55547 30.2936 3.44718 30.0273 3.44727 29.75V9.69H23.247V29.7766C23.2477 29.9124 23.2215 30.0469 23.17 30.1726C23.1186 30.2983 23.0427 30.4125 22.947 30.5088C22.8512 30.605 22.7374 30.6814 22.612 30.7335C22.4866 30.7857 22.3521 30.8125 22.2163 30.8125Z" fill="white"/>
<path d="M8.28703 11.375H6.19922C5.91743 11.375 5.64718 11.4869 5.44792 11.6862C5.24866 11.8855 5.13672 12.1557 5.13672 12.4375V14.5253C5.13672 14.8071 5.24866 15.0774 5.44792 15.2766C5.64718 15.4759 5.91743 15.5878 6.19922 15.5878H8.28703C8.42656 15.5878 8.56472 15.5603 8.69363 15.5069C8.82254 15.4535 8.93967 15.3753 9.03833 15.2766C9.13699 15.178 9.21526 15.0608 9.26865 14.9319C9.32205 14.803 9.34953 14.6648 9.34953 14.5253V12.4269C9.34673 12.1469 9.23355 11.8794 9.0346 11.6824C8.83564 11.4855 8.56699 11.375 8.28703 11.375ZM6.20984 14.5147V12.4375H8.27641V14.5147H6.20984Z" fill="white"/>
<path d="M21.021 11.7188H11.416C11.2751 11.7188 11.14 11.7747 11.0404 11.8744C10.9407 11.974 10.8848 12.1091 10.8848 12.25C10.8848 12.3909 10.9407 12.526 11.0404 12.6257C11.14 12.7253 11.2751 12.7812 11.416 12.7812H21.021C21.1619 12.7812 21.297 12.7253 21.3967 12.6257C21.4963 12.526 21.5523 12.3909 21.5523 12.25C21.5523 12.1091 21.4963 11.974 21.3967 11.8744C21.297 11.7747 21.1619 11.7188 21.021 11.7188Z" fill="white"/>
<path d="M11.416 15.2188H17.5307C17.6716 15.2188 17.8067 15.1628 17.9064 15.0632C18.006 14.9635 18.062 14.8284 18.062 14.6875C18.062 14.5466 18.006 14.4115 17.9064 14.3119C17.8067 14.2122 17.6716 14.1562 17.5307 14.1562H11.416C11.2751 14.1562 11.14 14.2122 11.0404 14.3119C10.9407 14.4115 10.8848 14.5466 10.8848 14.6875C10.8848 14.8284 10.9407 14.9635 11.0404 15.0632C11.14 15.1628 11.2751 15.2188 11.416 15.2188Z" fill="white"/>
<path d="M8.28703 18.1523H6.19922C5.91743 18.1523 5.64718 18.2643 5.44792 18.4635C5.24866 18.6628 5.13672 18.9331 5.13672 19.2148V21.2973C5.13672 21.5791 5.24866 21.8494 5.44792 22.0486C5.64718 22.2479 5.91743 22.3598 6.19922 22.3598H8.28703C8.42656 22.3598 8.56472 22.3324 8.69363 22.279C8.82254 22.2256 8.93967 22.1473 9.03833 22.0486C9.13699 21.95 9.21526 21.8329 9.26865 21.7039C9.32205 21.575 9.34953 21.4369 9.34953 21.2973V19.2095C9.34813 18.9287 9.23557 18.6598 9.03646 18.4617C8.83735 18.2636 8.56791 18.1523 8.28703 18.1523ZM6.20984 21.292V19.2148H8.27641V21.292H6.20984Z" fill="white"/>
<path d="M11.416 19.5625H15.4323C15.5732 19.5625 15.7083 19.5065 15.8079 19.4069C15.9075 19.3073 15.9635 19.1721 15.9635 19.0312C15.9635 18.8904 15.9075 18.7552 15.8079 18.6556C15.7083 18.556 15.5732 18.5 15.4323 18.5H11.416C11.2751 18.5 11.14 18.556 11.0404 18.6556C10.9407 18.7552 10.8848 18.8904 10.8848 19.0312C10.8848 19.1721 10.9407 19.3073 11.0404 19.4069C11.14 19.5065 11.2751 19.5625 11.416 19.5625Z" fill="white"/>
<path d="M21.021 20.9414H11.416C11.2751 20.9414 11.14 20.9974 11.0404 21.097C10.9407 21.1966 10.8848 21.3318 10.8848 21.4727C10.8848 21.6136 10.9407 21.7487 11.0404 21.8483C11.14 21.9479 11.2751 22.0039 11.416 22.0039H21.021C21.1619 22.0039 21.297 21.9479 21.3967 21.8483C21.4963 21.7487 21.5523 21.6136 21.5523 21.4727C21.5523 21.3318 21.4963 21.1966 21.3967 21.097C21.297 20.9974 21.1619 20.9414 21.021 20.9414Z" fill="white"/>
<path d="M8.28703 24.9375H6.19922C5.91743 24.9375 5.64718 25.0494 5.44792 25.2487C5.24866 25.448 5.13672 25.7182 5.13672 26V28.0878C5.13672 28.3696 5.24866 28.6399 5.44792 28.8391C5.64718 29.0384 5.91743 29.1503 6.19922 29.1503H8.28703C8.42656 29.1503 8.56472 29.1228 8.69363 29.0694C8.82254 29.016 8.93967 28.9378 9.03833 28.8391C9.13699 28.7405 9.21526 28.6233 9.26865 28.4944C9.32205 28.3655 9.34953 28.2273 9.34953 28.0878V25.9894C9.34673 25.7094 9.23355 25.4419 9.0346 25.2449C8.83564 25.048 8.56699 24.9375 8.28703 24.9375ZM6.20984 28.0772V26H8.27641V28.0772H6.20984Z" fill="white"/>
<path d="M11.416 26.3438H18.8535C18.9944 26.3438 19.1295 26.2878 19.2292 26.1882C19.3288 26.0885 19.3848 25.9534 19.3848 25.8125C19.3848 25.6716 19.3288 25.5365 19.2292 25.4368C19.1295 25.3372 18.9944 25.2812 18.8535 25.2812H11.416C11.2751 25.2812 11.14 25.3372 11.0404 25.4368C10.9407 25.5365 10.8848 25.6716 10.8848 25.8125C10.8848 25.9534 10.9407 26.0885 11.0404 26.1882C11.14 26.2878 11.2751 26.3438 11.416 26.3438Z" fill="white"/>
<path d="M21.021 27.7188H11.416C11.2751 27.7188 11.14 27.7747 11.0404 27.8743C10.9407 27.974 10.8848 28.1091 10.8848 28.25C10.8848 28.3909 10.9407 28.526 11.0404 28.6257C11.14 28.7253 11.2751 28.7812 11.416 28.7812H21.021C21.1619 28.7812 21.297 28.7253 21.3967 28.6257C21.4963 28.526 21.5523 28.3909 21.5523 28.25C21.5523 28.1091 21.4963 27.974 21.3967 27.8743C21.297 27.7747 21.1619 27.7188 21.021 27.7188Z" fill="white"/>
<path d="M29.0266 3.1875C28.3409 3.1889 27.6837 3.46193 27.1988 3.94682C26.7139 4.43171 26.4409 5.08895 26.4395 5.77469V25.8931C26.4472 26.2472 26.5211 26.5968 26.6573 26.9237L28.0704 30.1856C28.1568 30.3667 28.2927 30.5196 28.4624 30.6267C28.6321 30.7337 28.8287 30.7905 29.0293 30.7905C29.2299 30.7905 29.4265 30.7337 29.5962 30.6267C29.7659 30.5196 29.9018 30.3667 29.9882 30.1856L31.4013 26.9237C31.5328 26.5956 31.6048 26.2466 31.6138 25.8931V5.77469C31.6138 5.08852 31.3413 4.43046 30.8561 3.94527C30.3709 3.46008 29.7128 3.1875 29.0266 3.1875ZM29.8607 24.4906C29.6098 24.3365 29.3211 24.255 29.0266 24.255C28.7322 24.255 28.4435 24.3365 28.1926 24.4906L27.502 24.9262V22.7428H30.5513V24.9262L29.8607 24.4906ZM27.502 9.82281V8.36188H30.5513V9.82281H27.502ZM30.5513 10.8853V21.6803H27.502V10.8853H30.5513ZM29.0266 4.25C29.4306 4.2514 29.8176 4.41249 30.1032 4.69812C30.3888 4.98375 30.5499 5.37075 30.5513 5.77469V7.29938H27.502V5.77469C27.5034 5.37075 27.6644 4.98375 27.9501 4.69812C28.2357 4.41249 28.6227 4.2514 29.0266 4.25ZM29.0266 29.75C28.9735 29.5853 27.4648 26.2384 27.5179 26.1588L28.7451 25.3778C28.8258 25.3312 28.9174 25.3066 29.0107 25.3066C29.104 25.3066 29.1956 25.3312 29.2763 25.3778L30.5088 26.1588C30.5779 26.2438 29.0957 29.6066 29.0426 29.75H29.0266Z" fill="#FF7B02"/>
</svg>
