<svg width="40" height="40" viewBox="0 0 40 40" fill="none" xmlns="http://www.w3.org/2000/svg">
<g clip-path="url(#clip0_33_6796)">
<path d="M13.6311 5.78826C13.7462 5.98763 13.9558 6.10084 14.1727 6.10084C14.2632 6.10084 14.3549 6.08115 14.4415 6.03982C15.8956 5.34591 17.4577 4.93138 19.0843 4.80771C19.4102 4.78295 19.662 4.5113 19.662 4.18451V1.25045C19.662 1.07779 19.5905 0.912789 19.4647 0.794664C19.3388 0.676539 19.1698 0.615602 18.9972 0.626774C16.6996 0.773493 14.4912 1.3649 12.4335 2.38459C12.2788 2.46123 12.1627 2.59849 12.1127 2.76373C12.0627 2.92896 12.0834 3.10755 12.1697 3.25709L13.6311 5.78826ZM18.412 1.93029V3.61662C17.0315 3.77654 15.6966 4.13068 14.4305 4.67295L13.5921 3.22068C15.1243 2.53857 16.7403 2.10591 18.412 1.93029ZM4.57012 25.6103C4.64661 25.7652 4.78387 25.8815 4.94927 25.9317C5.00856 25.9497 5.06966 25.9586 5.13044 25.9586C5.23911 25.9586 5.347 25.9302 5.44294 25.8748L7.98606 24.4066C8.26848 24.2436 8.37809 23.8908 8.2377 23.5963C7.542 22.1374 7.12544 20.5767 6.99934 18.9576C6.97395 18.6322 6.70255 18.3811 6.37622 18.3811H3.4413C3.26864 18.3811 3.10356 18.4526 2.98544 18.5786C2.86731 18.7045 2.80653 18.8738 2.81762 19.0462C2.96512 21.346 3.55481 23.5544 4.57012 25.6103ZM5.8095 19.6311C5.97145 21.006 6.32731 22.339 6.87083 23.6071L5.40747 24.4519C4.72833 22.9208 4.29708 21.3044 4.1213 19.6311H5.8095ZM3.44138 17.4736H6.38778C6.712 17.4736 6.98247 17.2257 7.01044 16.9026C7.15114 15.2797 7.57098 13.7204 8.25833 12.2683C8.39755 11.9742 8.2877 11.6224 8.00591 11.4597L5.44755 9.98263C5.29802 9.89631 5.11934 9.8756 4.95411 9.92568C4.7888 9.97568 4.65153 10.0918 4.57489 10.2465C3.55638 12.3035 2.9652 14.5113 2.81762 16.8086C2.80653 16.9809 2.86731 17.1502 2.98544 17.2761C3.10364 17.4022 3.26864 17.4736 3.44138 17.4736ZM5.41145 11.4051L6.89192 12.2599C6.35458 13.5209 5.99708 14.8497 5.82552 16.2236H4.12138C4.29755 14.5524 4.73005 12.9368 5.41145 11.4051ZM38.9047 19.5583C38.7425 19.2241 38.4108 19.0165 38.0389 19.0165H37.4233C37.4458 18.6539 37.4571 18.2897 37.4571 17.9274C37.4571 13.4908 35.7824 9.26982 32.7415 6.04216C29.714 2.82865 25.6273 0.905289 21.234 0.626227C21.062 0.615446 20.8925 0.676071 20.7668 0.794196C20.6409 0.912321 20.5695 1.07732 20.5695 1.2499V4.18474C20.5695 4.51131 20.8208 4.78279 21.1465 4.80787C27.9494 5.33271 33.2785 11.0954 33.2785 17.9273C33.2785 18.2898 33.2636 18.6543 33.2338 19.0163H32.8341C32.4623 19.0163 32.1305 19.2239 31.9683 19.5581C31.8061 19.8922 31.8482 20.2813 32.0783 20.5733L34.6808 23.879C34.8645 24.1122 35.14 24.2458 35.4368 24.2458C35.7335 24.2458 36.0089 24.112 36.1924 23.8789L38.7948 20.5733C39.0247 20.2815 39.0669 19.8925 38.9047 19.5583ZM35.4365 22.8185L33.4273 20.2665H33.7975C34.1129 20.2665 34.3788 20.0316 34.4177 19.7186C34.4911 19.1276 34.5284 18.525 34.5284 17.9275C34.5284 14.2746 33.1592 10.7905 30.6729 8.11717C28.3322 5.60029 25.2065 4.0163 21.8194 3.61795V1.92974C29.9396 2.78341 36.2072 9.68513 36.2072 17.9275C36.2072 18.4779 36.179 19.0333 36.1235 19.5781C36.1056 19.754 36.1629 19.9293 36.2815 20.0604C36.4 20.1916 36.5685 20.2665 36.7453 20.2665H37.4458L35.4365 22.8185ZM5.90255 9.19756L8.45208 10.6695C8.55028 10.7262 8.65778 10.7533 8.76411 10.7533C8.96473 10.7533 9.16098 10.6567 9.2813 10.4798C10.1958 9.13552 11.3329 7.98873 12.6607 7.07123C12.9285 6.88615 13.0094 6.52646 12.8466 6.24451L11.3847 3.7124C11.2982 3.56263 11.1536 3.45545 10.9852 3.41615C10.8167 3.37701 10.6397 3.4092 10.496 3.50529C8.58708 4.78177 6.97192 6.39795 5.6952 8.30904C5.59919 8.45279 5.567 8.62982 5.60622 8.79818C5.64567 8.96662 5.75286 9.11115 5.90255 9.19756ZM10.6429 4.92732L11.4818 6.38052C10.3801 7.20904 9.4088 8.18873 8.58442 9.30256L7.11716 8.45545C8.10567 7.09873 9.2877 5.91591 10.6429 4.92732ZM28.8276 26.1031L22.8018 29.6128C22.5726 29.7462 22.3403 29.8492 22.101 29.9222C22.1743 29.7746 22.2345 29.6149 22.2804 29.4439C22.6008 28.2477 21.8914 26.9994 20.6653 26.602C20.6385 26.5933 20.6111 26.5865 20.5835 26.5815C18.8591 26.2704 17.1538 25.6539 15.7835 25.1585C15.3057 24.9858 14.8543 24.8226 14.4697 24.6979C12.8933 24.1864 11.4765 24.8147 10.2986 25.4968L5.89442 28.0467L5.51669 27.3792C5.31825 27.0286 4.99419 26.7759 4.60427 26.6678C4.21442 26.5599 3.80653 26.6096 3.45583 26.8079L1.76512 27.7648C1.0395 28.1755 0.78325 29.1 1.19387 29.8257L6.16442 38.6083C6.36286 38.959 6.68692 39.2116 7.07684 39.3197C7.21169 39.357 7.34864 39.3755 7.48466 39.3755C7.74192 39.3755 7.99591 39.3093 8.22528 39.1795L9.91598 38.2226C10.2666 38.0241 10.5193 37.7001 10.6274 37.3102C10.7354 36.9203 10.6857 36.5124 10.4872 36.1617L10.0189 35.3341L10.9308 34.8076L18.6124 36.8658C19.0461 36.9821 19.4778 37.0399 19.9022 37.0399C20.761 37.0399 21.5906 36.8035 22.349 36.3365L33.2843 29.603C34.321 28.9648 34.6515 27.3592 33.9779 26.2345C33.6518 25.69 32.3165 24.0713 28.8276 26.1031ZM9.42286 36.9764C9.41192 37.0158 9.38145 37.0889 9.30036 37.1348L7.60966 38.0917C7.52864 38.1377 7.4502 38.1261 7.41075 38.1151C7.3713 38.1042 7.29825 38.0737 7.25231 37.9926L2.28184 29.2101C2.21184 29.0864 2.25716 28.9227 2.38091 28.8527L4.07169 27.8958C4.11677 27.8704 4.16091 27.8626 4.19809 27.8626C4.22778 27.8626 4.25302 27.8675 4.27059 27.8724C4.31005 27.8833 4.38309 27.9138 4.42895 27.9948L9.3995 36.7774C9.44528 36.8586 9.4338 36.9369 9.42286 36.9764ZM32.629 28.5387L21.6938 35.2722C20.8486 35.7924 19.9207 35.9226 18.936 35.6585L11.0043 33.5332C10.844 33.4904 10.6736 33.5128 10.53 33.5956L9.40317 34.2461L6.51013 29.1344L10.9248 26.5783C11.9116 26.007 12.9773 25.5276 14.084 25.8867C14.4489 26.0051 14.8704 26.1574 15.3584 26.3339C16.7611 26.841 18.5038 27.4711 20.3157 27.8031C20.8961 28.0093 21.2206 28.5691 21.0729 29.1202C20.8783 29.8461 20.2679 29.9365 19.7806 29.881C18.8984 29.6994 18.0583 29.4596 17.1696 29.2058C16.746 29.0849 16.308 28.9598 15.8575 28.839C15.524 28.7499 15.1814 28.9476 15.092 29.281C15.0027 29.6144 15.2006 29.9571 15.534 30.0465C15.9746 30.1645 16.4076 30.2882 16.8263 30.4078C17.7477 30.6709 19.5776 31.1153 19.5818 31.1159L20.3313 31.2379C21.4734 31.4204 22.4873 31.2423 23.4308 30.6929L29.4566 27.1832C31.1429 26.2011 32.4322 26.0864 32.9055 26.8768C33.229 27.4166 33.0894 28.2553 32.629 28.5387ZM4.51763 29.5134C4.56583 29.8433 4.33755 30.1498 4.0077 30.198C3.67786 30.2462 3.3713 30.0179 3.32309 29.688C3.27489 29.3582 3.50317 29.0516 3.83302 29.0034C4.16286 28.9553 4.46934 29.1836 4.51763 29.5134ZM25.4307 12.0708C25.4307 9.57771 23.4023 7.54935 20.9092 7.54935C18.4161 7.54935 16.3877 9.57771 16.3877 12.0708C16.3877 13.5915 17.143 14.9381 18.2974 15.7582C15.2626 16.754 12.9824 19.4433 12.6255 22.7781C12.6066 22.9544 12.6636 23.1304 12.7821 23.2623C12.9006 23.3942 13.0696 23.4696 13.2469 23.4696H28.5712C28.7486 23.4696 28.9175 23.3943 29.0361 23.2623C29.1546 23.1304 29.2115 22.9544 29.1926 22.778C28.8357 19.4433 26.5555 16.754 23.5208 15.7582C24.6753 14.9382 25.4307 13.5915 25.4307 12.0708ZM27.8415 22.2196H13.9767C14.6503 18.9672 17.516 16.593 20.9075 16.5922C20.9081 16.5922 20.9086 16.5923 20.9092 16.5923H20.9107C24.3022 16.5931 27.1679 18.9672 27.8415 22.2196ZM20.9091 15.3422C20.9084 15.3422 20.9078 15.3422 20.9071 15.3422C19.1042 15.3411 17.6377 13.874 17.6377 12.0708C17.6377 10.2669 19.1053 8.79935 20.9092 8.79935C22.7131 8.79935 24.1807 10.2669 24.1807 12.0708C24.1807 13.874 22.7142 15.3411 20.9112 15.3422C20.9105 15.3423 20.9098 15.3422 20.9091 15.3422Z" fill="#FF7B02"/>
<path d="M13.6311 5.78826C13.7462 5.98763 13.9558 6.10084 14.1727 6.10084C14.2632 6.10084 14.3549 6.08115 14.4415 6.03982C15.8956 5.34591 17.4577 4.93138 19.0843 4.80771C19.4102 4.78295 19.662 4.5113 19.662 4.18451V1.25045C19.662 1.07779 19.5905 0.912789 19.4647 0.794664C19.3388 0.676539 19.1698 0.615602 18.9972 0.626774C16.6996 0.773493 14.4912 1.3649 12.4335 2.38459C12.2788 2.46123 12.1627 2.59849 12.1127 2.76373C12.0627 2.92896 12.0834 3.10755 12.1697 3.25709L13.6311 5.78826ZM18.412 1.93029V3.61662C17.0315 3.77654 15.6966 4.13068 14.4305 4.67295L13.5921 3.22068C15.1243 2.53857 16.7403 2.10591 18.412 1.93029ZM4.57012 25.6103C4.64661 25.7652 4.78387 25.8815 4.94927 25.9317C5.00856 25.9497 5.06966 25.9586 5.13044 25.9586C5.23911 25.9586 5.347 25.9302 5.44294 25.8748L7.98606 24.4066C8.26848 24.2436 8.37809 23.8908 8.2377 23.5963C7.542 22.1374 7.12544 20.5767 6.99934 18.9576C6.97395 18.6322 6.70255 18.3811 6.37622 18.3811H3.4413C3.26864 18.3811 3.10356 18.4526 2.98544 18.5786C2.86731 18.7045 2.80653 18.8738 2.81762 19.0461C2.96512 21.346 3.55481 23.5544 4.57012 25.6103ZM5.8095 19.6311C5.97145 21.006 6.32731 22.339 6.87083 23.6071L5.40747 24.4519C4.72833 22.9208 4.29708 21.3044 4.1213 19.6311H5.8095ZM3.44138 17.4736H6.38778C6.712 17.4736 6.98247 17.2257 7.01044 16.9026C7.15114 15.2797 7.57098 13.7204 8.25833 12.2683C8.39755 11.9742 8.2877 11.6224 8.00591 11.4597L5.44755 9.98263C5.29802 9.89631 5.11934 9.8756 4.95411 9.92568C4.7888 9.97568 4.65153 10.0918 4.57489 10.2465C3.55638 12.3035 2.9652 14.5113 2.81762 16.8086C2.80653 16.9809 2.86731 17.1502 2.98544 17.2761C3.10364 17.4022 3.26864 17.4736 3.44138 17.4736ZM5.41145 11.4051L6.89192 12.2599C6.35458 13.5209 5.99708 14.8497 5.82552 16.2236H4.12137C4.29755 14.5524 4.73005 12.9368 5.41145 11.4051ZM38.9047 19.5583C38.7425 19.2241 38.4108 19.0165 38.0389 19.0165H37.4233C37.4458 18.6539 37.4571 18.2897 37.4571 17.9274C37.4571 13.4908 35.7824 9.26982 32.7415 6.04216C29.714 2.82865 25.6273 0.905289 21.234 0.626227C21.062 0.615446 20.8925 0.676071 20.7668 0.794196C20.6409 0.912321 20.5695 1.07732 20.5695 1.2499V4.18474C20.5695 4.5113 20.8208 4.78279 21.1465 4.80787C27.9494 5.33271 33.2785 11.0954 33.2785 17.9273C33.2785 18.2898 33.2636 18.6543 33.2338 19.0163H32.8341C32.4623 19.0163 32.1305 19.2239 31.9683 19.5581C31.8061 19.8922 31.8482 20.2813 32.0782 20.5733L34.6808 23.879C34.8645 24.1122 35.14 24.2458 35.4368 24.2458C35.7335 24.2458 36.0089 24.112 36.1924 23.8789L38.7948 20.5733C39.0247 20.2815 39.0669 19.8925 38.9047 19.5583ZM35.4365 22.8185L33.4273 20.2665H33.7975C34.1129 20.2665 34.3788 20.0316 34.4177 19.7186C34.4911 19.1276 34.5284 18.525 34.5284 17.9275C34.5284 14.2746 33.1592 10.7905 30.6729 8.11717C28.3322 5.60029 25.2065 4.0163 21.8194 3.61795V1.92974C29.9396 2.78341 36.2072 9.68513 36.2072 17.9275C36.2072 18.4779 36.179 19.0333 36.1235 19.5781C36.1056 19.754 36.1629 19.9293 36.2815 20.0604C36.4 20.1916 36.5685 20.2665 36.7453 20.2665H37.4458L35.4365 22.8185ZM5.90255 9.19756L8.45208 10.6695C8.55028 10.7262 8.65778 10.7533 8.76411 10.7533C8.96473 10.7533 9.16098 10.6567 9.2813 10.4798C10.1958 9.13552 11.3329 7.98873 12.6607 7.07123C12.9285 6.88615 13.0094 6.52646 12.8466 6.24451L11.3847 3.7124C11.2982 3.56263 11.1536 3.45545 10.9852 3.41615C10.8167 3.37701 10.6397 3.4092 10.496 3.50529C8.58708 4.78177 6.97192 6.39795 5.6952 8.30904C5.59919 8.45279 5.567 8.62982 5.60622 8.79818C5.64567 8.96662 5.75286 9.11115 5.90255 9.19756ZM10.6429 4.92732L11.4818 6.38052C10.3801 7.20904 9.4088 8.18873 8.58442 9.30256L7.11716 8.45545C8.10567 7.09873 9.2877 5.91591 10.6429 4.92732ZM28.8276 26.1031L22.8018 29.6128C22.5726 29.7462 22.3403 29.8492 22.101 29.9222C22.1743 29.7746 22.2345 29.6149 22.2804 29.4439C22.6008 28.2477 21.8914 26.9994 20.6653 26.602C20.6385 26.5933 20.6111 26.5865 20.5835 26.5815C18.8591 26.2704 17.1538 25.6539 15.7835 25.1585C15.3057 24.9858 14.8543 24.8226 14.4697 24.6979C12.8933 24.1864 11.4765 24.8147 10.2986 25.4968L5.89442 28.0467L5.51669 27.3792C5.31825 27.0286 4.99419 26.7759 4.60427 26.6678C4.21442 26.5599 3.80653 26.6096 3.45583 26.8079L1.76512 27.7648C1.0395 28.1755 0.78325 29.1 1.19387 29.8257L6.16442 38.6083C6.36286 38.959 6.68692 39.2116 7.07684 39.3197C7.21169 39.357 7.34864 39.3755 7.48466 39.3755C7.74192 39.3755 7.99591 39.3093 8.22528 39.1795L9.91598 38.2226C10.2666 38.0241 10.5193 37.7001 10.6274 37.3102C10.7354 36.9203 10.6857 36.5124 10.4872 36.1617L10.0189 35.3341L10.9308 34.8076L18.6124 36.8658C19.0461 36.9821 19.4778 37.0399 19.9022 37.0399C20.761 37.0399 21.5906 36.8035 22.349 36.3365L33.2843 29.603C34.321 28.9648 34.6515 27.3592 33.9779 26.2345C33.6518 25.69 32.3165 24.0713 28.8276 26.1031ZM9.42286 36.9764C9.41192 37.0158 9.38145 37.0889 9.30036 37.1348L7.60966 38.0917C7.52864 38.1377 7.4502 38.1261 7.41075 38.1151C7.3713 38.1042 7.29825 38.0737 7.25231 37.9926L2.28184 29.2101C2.21184 29.0864 2.25716 28.9227 2.38091 28.8527L4.07169 27.8958C4.11677 27.8704 4.16091 27.8626 4.19809 27.8626C4.22778 27.8626 4.25302 27.8675 4.27059 27.8724C4.31005 27.8833 4.38309 27.9138 4.42895 27.9948L9.3995 36.7774C9.44528 36.8586 9.4338 36.9369 9.42286 36.9764ZM32.629 28.5387L21.6938 35.2722C20.8486 35.7924 19.9208 35.9226 18.936 35.6585L11.0043 33.5332C10.844 33.4904 10.6736 33.5128 10.53 33.5956L9.40317 34.2461L6.51013 29.1344L10.9248 26.5783C11.9116 26.007 12.9773 25.5276 14.084 25.8867C14.4489 26.0051 14.8704 26.1574 15.3584 26.3339C16.7611 26.841 18.5038 27.4711 20.3157 27.8031C20.8961 28.0093 21.2206 28.5691 21.0729 29.1202C20.8783 29.8461 20.2679 29.9365 19.7806 29.881C18.8984 29.6994 18.0583 29.4596 17.1696 29.2058C16.746 29.0849 16.308 28.9598 15.8575 28.839C15.524 28.7499 15.1814 28.9476 15.092 29.281C15.0027 29.6144 15.2006 29.9571 15.534 30.0465C15.9746 30.1645 16.4076 30.2882 16.8263 30.4078C17.7477 30.6709 19.5776 31.1153 19.5818 31.1159L20.3313 31.2379C21.4734 31.4204 22.4873 31.2423 23.4308 30.6929L29.4566 27.1832C31.1429 26.2011 32.4322 26.0864 32.9055 26.8768C33.229 27.4166 33.0894 28.2553 32.629 28.5387ZM4.51763 29.5134C4.56583 29.8433 4.33755 30.1498 4.0077 30.198C3.67786 30.2462 3.3713 30.0179 3.32309 29.688C3.27489 29.3582 3.50317 29.0516 3.83302 29.0034C4.16286 28.9553 4.46934 29.1836 4.51763 29.5134Z" fill="white"/>
</g>
<defs>
<clipPath id="clip0_33_6796">
<rect width="40" height="40" fill="white"/>
</clipPath>
</defs>
</svg>
