<svg width="41" height="41" viewBox="0 0 41 41" fill="none" xmlns="http://www.w3.org/2000/svg">
<path d="M7.48732 30.1395C8.37619 30.1234 9.27307 30.0994 10.1539 30.0994C10.6264 30.0994 11.0428 30.3957 11.219 30.8201C12.2279 29.8752 13.1008 29.0023 14.358 28.5939C14.7985 28.4498 15.2469 28.1135 15.7514 27.7371C16.2559 27.3607 16.8084 26.9443 17.5131 26.592C18.9625 25.8553 20.1076 25.9113 20.8283 26.3438C21.461 26.7201 21.7893 27.3928 21.7332 28.1135C21.6692 28.9383 21.1006 29.8352 19.9555 30.3877C18.9865 30.9242 18.1057 31.4367 17.4731 31.8531C17.2729 31.9812 17.1047 32.0773 16.9766 32.1494C17.457 32.1574 18.3619 32.1654 19.459 32.2535C20.3559 32.3256 21.3328 32.3896 22.2537 32.4217C22.3498 32.4137 22.7502 32.3096 22.8143 32.2615L27.8832 28.9463C28.7481 28.3777 29.685 28.2496 30.3576 28.4098C30.9102 28.5379 31.4067 28.8982 31.5188 29.4748C32.5518 29.0984 33.817 29.1865 34.4016 29.9312C34.5858 30.1635 34.6738 30.4357 34.6658 30.74C34.6418 31.1885 34.3615 31.677 33.7289 32.1174C33.3045 32.4137 32.7119 32.8381 32.0233 33.3426C29.1805 35.3926 24.7442 38.5797 23.0865 39.0762C22.566 39.2363 13.4612 39.2523 11.243 39.3004C11.0508 39.6768 10.6584 39.917 10.218 39.925C9.32912 39.941 8.43225 39.965 7.55139 39.965C6.91076 39.965 6.39826 39.4285 6.39826 38.8039C6.39826 36.3055 6.36623 33.799 6.35822 31.2926C6.3342 30.6439 6.85471 30.1555 7.48732 30.1395ZM10.1619 31.1564L7.50334 31.1965C7.44728 31.1965 7.39924 31.2285 7.39924 31.2846C7.41525 33.767 7.37521 36.3055 7.43928 38.7799C7.43928 38.8359 7.49533 38.9 7.53537 38.9L10.202 38.86C10.3221 38.86 10.3061 38.7639 10.3061 38.6918L10.266 31.9332C10.266 31.9012 10.266 31.8691 10.274 31.8371C10.266 31.6449 10.266 31.4607 10.258 31.2766C10.258 31.2205 10.21 31.1564 10.1619 31.1564ZM24.4639 32.4537C24.9604 32.4457 25.5369 32.4057 25.6891 32.3336L30.3176 30.0434C30.3576 30.0113 30.5738 29.715 30.4297 29.5869C30.3576 29.5148 30.2535 29.4748 30.1174 29.4428C29.685 29.3387 29.0684 29.4428 28.4678 29.8352L24.4639 32.4537ZM11.6834 31.8371C11.5713 31.9332 11.4512 32.0453 11.3151 32.1654L11.3471 38.2273C13.5252 38.1873 22.2778 38.1473 22.8143 38.0352C24.3438 37.5387 28.636 34.4637 31.3906 32.4777C32.0713 31.9813 32.6639 31.5648 33.1123 31.2445C33.4406 31.0203 33.6969 30.748 33.5608 30.5719C33.5127 30.5158 33.4326 30.4598 33.3205 30.4117C32.9121 30.2355 32.2635 30.2516 31.5828 30.5879L26.1535 33.2785C25.2166 33.743 20.6362 33.4066 19.3789 33.3025C18.0897 33.1984 16.9445 33.0383 16.2719 32.8541C16.0397 32.9102 15.7914 32.8061 15.6713 32.5898C15.6713 32.5818 15.6633 32.5818 15.6633 32.5738C15.4151 32.0693 16.0637 31.5088 16.8965 30.9643C17.5531 30.5318 18.458 30.0033 19.443 29.4588C19.459 29.4508 19.475 29.4428 19.491 29.4348C20.2678 29.0664 20.6442 28.5139 20.6842 28.0334C20.7082 27.7051 20.5801 27.4248 20.2998 27.2486C19.8594 26.9844 19.0826 26.9924 18.0016 27.5369C16.7043 28.1936 15.7754 29.2426 14.6944 29.5949C13.5252 29.9793 12.6123 30.9803 11.6834 31.8371ZM30.4457 13.1148L31.3666 14.9646L33.4086 15.2689C33.857 15.333 34.0172 15.8855 33.6809 16.1898L32.2235 17.6152L32.5678 19.6572C32.6399 20.0736 32.1994 20.442 31.775 20.1938L29.9733 19.2488L28.1395 20.2098C27.7551 20.41 27.2987 20.0816 27.3707 19.6572L27.7151 17.6152L26.2336 16.1658C25.9213 15.8615 26.0975 15.325 26.5299 15.2609L28.5719 14.9566L29.4928 13.1068C29.693 12.7145 30.2535 12.7225 30.4457 13.1148ZM30.5418 15.6773L29.9733 14.5322L29.4207 15.6533C29.3486 15.8135 29.2045 15.9416 29.0123 15.9656L27.7471 16.1498L28.644 17.0307C28.7721 17.1428 28.8442 17.327 28.8121 17.5111L28.5959 18.7764L29.725 18.1838C29.8772 18.1037 30.0533 18.0957 30.2215 18.1838L31.3586 18.7764L31.1424 17.5111C31.1184 17.351 31.1664 17.1748 31.2945 17.0467L32.2074 16.1498L30.9422 15.9656C30.766 15.9496 30.6139 15.8455 30.5418 15.6773ZM22.2938 7.64551L23.2147 9.49531L25.2647 9.79961C25.7131 9.87168 25.8653 10.4162 25.5369 10.7205L24.0795 12.1459L24.4238 14.1879C24.4959 14.6043 24.0555 14.9646 23.6311 14.7244L21.8293 13.7795L19.9955 14.7404C19.6112 14.9486 19.1627 14.6123 19.2268 14.1879L19.5711 12.1459L18.0897 10.6965C17.7774 10.3922 17.9535 9.85566 18.386 9.79961L20.4279 9.49531L21.3488 7.64551C21.541 7.25313 22.1016 7.26113 22.2938 7.64551ZM22.3899 10.216L21.8213 9.0709L21.2688 10.192C21.1967 10.3521 21.0445 10.4803 20.8604 10.5043L19.5951 10.6885L20.492 11.5693C20.6201 11.6895 20.6922 11.8656 20.6602 12.0498L20.444 13.315L21.5731 12.7225C21.7172 12.6424 21.9014 12.6344 22.0615 12.7225L23.1987 13.315L22.9824 12.0498C22.9584 11.8896 23.0065 11.7135 23.1346 11.5854L24.0475 10.6885L22.7822 10.5043C22.6221 10.4803 22.4699 10.3762 22.3899 10.216ZM14.1418 12.3541L15.0627 14.2039L17.1047 14.5082C17.5531 14.5723 17.7133 15.1248 17.377 15.4291L15.9195 16.8545L16.2639 18.8965C16.336 19.3129 15.8955 19.6812 15.4711 19.433L13.6694 18.4961L11.8356 19.457C11.4512 19.6572 10.9947 19.3289 11.0668 18.9045L11.4112 16.8625L9.92971 15.4131C9.6174 15.1088 9.79357 14.5723 10.226 14.5082L12.276 14.2039L13.1969 12.3541C13.3891 11.9617 13.9496 11.9697 14.1418 12.3541ZM14.2379 14.9246L13.6694 13.7795L13.1168 14.9006C13.0447 15.0607 12.9006 15.1889 12.7084 15.2129L11.4432 15.3971L12.3401 16.2779C12.4682 16.39 12.5403 16.5742 12.5082 16.7584L12.292 18.0236L13.4211 17.4311C13.5653 17.351 13.7494 17.343 13.9176 17.4311L15.0547 18.0236L14.8385 16.7584C14.8145 16.5982 14.8625 16.4221 14.9906 16.2939L15.9035 15.3971L14.6383 15.2129C14.4701 15.1889 14.318 15.0848 14.2379 14.9246ZM21.2848 1.56758C21.2848 1.27129 21.525 1.03906 21.8133 1.03906C22.1016 1.03906 22.3418 1.2793 22.3418 1.56758V5.20312C22.3418 5.49941 22.1096 5.73164 21.8133 5.73164C21.517 5.73164 21.2848 5.49141 21.2848 5.20312V1.56758ZM33.5447 5.74766C33.7369 5.53145 34.0733 5.49941 34.2895 5.6916C34.5057 5.88379 34.5377 6.22012 34.3455 6.43633L31.9672 9.18301C31.775 9.39922 31.4467 9.43125 31.2225 9.23906C30.9983 9.04688 30.9742 8.71855 31.1664 8.49434L33.5447 5.74766ZM27.7951 2.55254C27.8992 2.28027 28.2035 2.13613 28.4758 2.24023C28.7481 2.34434 28.8922 2.64863 28.7881 2.9209L27.5149 6.32422C27.4108 6.59648 27.1065 6.74062 26.8342 6.63652C26.5619 6.53242 26.4178 6.22813 26.5219 5.95586L27.7951 2.55254ZM9.28908 6.43633C9.09689 6.22012 9.12092 5.88379 9.34514 5.6916C9.56135 5.49941 9.89767 5.52344 10.0899 5.74766L12.4682 8.49434C12.6604 8.71855 12.6363 9.04688 12.4121 9.23906C12.1879 9.43125 11.8596 9.40723 11.6674 9.18301L9.28908 6.43633ZM14.8545 2.9209C14.7504 2.64863 14.8945 2.34434 15.1668 2.24023C15.4391 2.13613 15.7434 2.28027 15.8475 2.55254L17.1207 5.95586C17.2168 6.22813 17.0807 6.53242 16.8084 6.63652C16.5362 6.74062 16.2319 6.59648 16.1278 6.32422L14.8545 2.9209ZM22.2938 16.8465L23.4149 19.1047L25.9053 19.473C26.3537 19.5371 26.5139 20.0896 26.1776 20.3939L24.3998 22.1396L24.8242 24.6301C24.8963 25.0465 24.4559 25.4068 24.0315 25.1666L21.8293 24.0135L19.5951 25.1826C19.2108 25.3828 18.7543 25.0545 18.8264 24.6301L19.2508 22.1396L17.449 20.3779C17.1367 20.0736 17.3129 19.5371 17.7453 19.4811L20.2438 19.1127L21.3649 16.8545C21.541 16.4541 22.1016 16.4621 22.2938 16.8465ZM22.5901 19.8254L21.8213 18.2719L21.0606 19.8014C20.9885 19.9615 20.8444 20.0896 20.6522 20.1137L18.9385 20.3619L20.1557 21.5551C20.2838 21.6672 20.3559 21.8514 20.3238 22.0355L20.0356 23.7412L21.5651 22.9404C21.7092 22.8604 21.8934 22.8604 22.0535 22.9404L23.591 23.7412L23.3028 22.0355C23.2787 21.8754 23.3268 21.6992 23.4549 21.5711L24.6881 20.3619L22.9744 20.1137C22.8223 20.0896 22.6701 19.9855 22.5901 19.8254Z" fill="white"/>
</svg>
