<svg width="40" height="40" viewBox="0 0 40 40" fill="none" xmlns="http://www.w3.org/2000/svg">
<path fill-rule="evenodd" clip-rule="evenodd" d="M11.4834 35.7833L11.8712 36.4686C11.8715 36.4691 11.8718 36.4696 11.8721 36.4701C12.2563 37.1534 12.0126 38.0254 11.3332 38.4091L9.81594 39.2691C9.81531 39.2694 9.81469 39.2698 9.81406 39.2701C9.13069 39.6542 8.25884 39.4105 7.87492 38.7309L3.41312 30.8469C3.02543 30.163 3.2692 29.2902 3.94943 28.906L5.46849 28.046L5.46904 28.0457C6.14896 27.6617 7.0212 27.9029 7.40841 28.5829L7.40928 28.5843L7.71524 29.125L11.6102 26.8699C12.8276 26.1658 14.0728 25.7124 15.4099 26.1466C16.6846 26.56 18.7656 27.4516 20.8894 27.8353C20.9171 27.8403 20.9444 27.8472 20.9712 27.8559C22.091 28.2185 22.7698 29.3518 22.464 30.4889C22.4363 30.5925 22.4031 30.6917 22.3649 30.7864C22.5239 30.7285 22.6808 30.6549 22.8357 30.5647L28.2458 27.4137C30.2459 26.2485 31.5811 26.3894 32.3359 26.8957C32.9969 27.3392 33.3049 28.0954 33.2851 28.8385C33.2651 29.5903 32.9043 30.3069 32.3147 30.67L22.4978 36.7142C21.4433 37.365 20.2883 37.5181 19.0918 37.1989L19.0911 37.1987L12.221 35.3574L11.4834 35.7833ZM8.33335 30.2172L10.8653 34.6912L11.8185 34.1407C11.9627 34.0575 12.134 34.0349 12.2947 34.078L19.4154 35.9864C20.2665 36.2134 21.0886 36.1092 21.8387 35.6463L21.8393 35.6459L31.6566 29.6014C31.9069 29.4474 32.0221 29.1243 32.0306 28.8052C32.0558 27.8602 31.1046 27.2006 28.8775 28.498L23.4675 31.6488C22.5814 32.1653 21.6526 32.3087 20.6404 32.1476C20.6397 32.1475 20.639 32.1473 20.6383 32.1473L19.9677 32.0381C19.9674 32.0381 19.9672 32.038 19.9668 32.038C19.9584 32.0366 19.9499 32.035 19.9415 32.0333C19.9412 32.0332 19.941 32.0332 19.9406 32.0331C18.718 31.7822 17.584 31.4129 16.3257 31.0748C15.9912 30.9849 15.7927 30.6404 15.8826 30.306C15.9725 29.9716 16.317 29.773 16.6514 29.8629C17.8755 30.1918 18.979 30.5527 20.1672 30.7985C20.7181 30.8582 21.1253 30.636 21.2521 30.1634L21.2522 30.1631C21.3801 29.6874 21.0803 29.2285 20.6195 29.0618C18.4493 28.6622 16.3256 27.7628 15.0227 27.3403L15.0224 27.3402C14.0367 27.0201 13.1359 27.4372 12.2385 27.9562L8.33335 30.2172ZM6.31782 29.2036L6.3172 29.2026C6.27061 29.1222 6.16716 29.0927 6.08622 29.1383L4.56771 29.998L4.56716 29.9983C4.48669 30.0438 4.459 30.1472 4.50488 30.2281L4.50504 30.2285L8.96708 38.1127L8.96731 38.1132C9.01312 38.1942 9.11727 38.222 9.19869 38.1764L10.7145 37.3173L10.7152 37.3168C10.7963 37.2711 10.824 37.1669 10.7784 37.0854L6.31782 29.2036ZM5.82653 29.9884C6.17084 29.9371 6.49061 30.1749 6.5419 30.5193C6.59108 30.8636 6.35327 31.1855 6.00896 31.2347C5.66457 31.2859 5.3448 31.0461 5.29359 30.7018C5.24433 30.3574 5.48214 30.0376 5.82653 29.9884ZM11.5931 16.4902C11.3272 17.3243 10.5456 17.9292 9.62378 17.9292C8.48324 17.9292 7.55735 17.0033 7.55735 15.8627C7.55735 14.7222 8.48324 13.7963 9.62378 13.7963C10.5456 13.7963 11.3272 14.4011 11.5931 15.2353H13.6121V14.6966C13.6121 14.4371 13.7719 14.2043 14.0141 14.111C14.0141 14.111 15.1436 13.6763 15.1436 13.6763C15.3148 13.0734 15.5548 12.4945 15.8605 11.9484L15.3684 10.8418C15.2629 10.6045 15.3145 10.3268 15.4981 10.1432L15.8802 9.76105L14.4521 8.33298C13.6743 8.73478 12.6939 8.60976 12.0421 7.958C11.2356 7.15149 11.2356 5.842 12.0421 5.03557C12.8486 4.22906 14.1581 4.22906 14.9645 5.03557C15.6163 5.68733 15.7413 6.66772 15.3395 7.4456L16.7675 8.87368L17.1486 8.49266C17.3322 8.30913 17.6099 8.25753 17.8472 8.36302C17.8472 8.36302 18.9538 8.85509 18.9537 8.85517C19.4998 8.54953 20.0785 8.30976 20.6799 8.13988L21.1166 7.00827C21.21 6.76631 21.4426 6.6067 21.702 6.6067H22.2418V4.58655C21.4077 4.32066 20.8028 3.53902 20.8028 2.61721C20.8028 1.47674 21.7288 0.550781 22.8693 0.550781C24.0097 0.550781 24.9357 1.47674 24.9357 2.61721C24.9357 3.53902 24.3308 4.32066 23.4967 4.58655V6.6067H24.0366C24.2963 6.6067 24.5292 6.7667 24.6223 7.00913L25.0568 8.14004C25.658 8.30992 26.2366 8.5496 26.7824 8.85509L27.889 8.36302C28.1263 8.25753 28.404 8.30913 28.5876 8.49266L28.9704 8.87541L30.0134 7.83243C29.8662 7.54827 29.783 7.22568 29.783 6.88372C29.783 5.74325 30.709 4.81729 31.8494 4.81729C32.9899 4.81729 33.9159 5.74325 33.9159 6.88372C33.9159 8.02427 32.9899 8.95023 31.8494 8.95023C31.5075 8.95023 31.185 8.86702 30.9008 8.7198L29.8577 9.76278L30.2381 10.1432C30.4215 10.3265 30.4732 10.6039 30.3682 10.841L29.8778 11.948C30.1836 12.4942 30.4235 13.0736 30.5934 13.6767L31.7221 14.111C31.9643 14.2043 32.1241 14.4371 32.1241 14.6966V15.2364H33.6723C33.9382 14.4023 34.7199 13.7974 35.6416 13.7974C36.7821 13.7974 37.7081 14.7234 37.7081 15.8639C37.7081 17.0044 36.7821 17.9304 35.6416 17.9304C34.7199 17.9304 33.9382 17.3255 33.6723 16.4913H32.1241V17.0313C32.1241 17.2908 31.9643 17.5236 31.7221 17.6168C31.7221 17.6168 30.5931 18.0513 30.5931 18.0513C30.4229 18.6524 30.1821 19.2311 29.8775 19.7768L30.3682 20.8845C30.4732 21.1216 30.4215 21.3989 30.2381 21.5823L28.5876 23.2327C28.4043 23.4162 28.127 23.4678 27.8899 23.3628C27.8899 23.3628 26.7832 22.8726 26.7833 22.8726C26.2383 23.1782 25.6583 23.418 25.0566 23.5879L24.6222 24.7167C24.529 24.9589 24.2962 25.1188 24.0366 25.1188H21.702C21.4424 25.1188 21.2096 24.9589 21.1163 24.7167L20.682 23.588C20.0792 23.4178 19.5 23.1768 18.9541 22.8721L17.8463 23.3628C17.6092 23.4678 17.3319 23.4162 17.1486 23.2327L15.4981 21.5823C15.3145 21.3987 15.2629 21.121 15.3684 20.8837C15.3684 20.8837 15.8603 19.7774 15.8603 19.7774C15.5549 19.2327 15.315 18.6531 15.1439 18.0516L14.0141 17.6168C13.7719 17.5236 13.6121 17.2908 13.6121 17.0313V16.4902H11.5931ZM10.4353 15.8627C10.4353 15.4149 10.0717 15.0512 9.62378 15.0512C9.17586 15.0512 8.81225 15.4149 8.81225 15.8627C8.81225 16.3106 9.17586 16.6743 9.62378 16.6743C10.0717 16.6743 10.4353 16.3106 10.4353 15.8627ZM22.8693 3.42882C23.3172 3.42882 23.6808 3.06513 23.6808 2.61721C23.6808 2.16929 23.3172 1.80568 22.8693 1.80568C22.4214 1.80568 22.0577 2.16929 22.0577 2.61721C22.0577 3.06513 22.4214 3.42882 22.8693 3.42882ZM34.8301 15.8639C34.8301 16.3118 35.1937 16.6755 35.6416 16.6755C36.0895 16.6755 36.4532 16.3118 36.4532 15.8639C36.4532 15.416 36.0895 15.0523 35.6416 15.0523C35.1937 15.0523 34.8301 15.416 34.8301 15.8639ZM31.8494 6.07219C31.4015 6.07219 31.0379 6.43588 31.0379 6.88372C31.0379 7.33164 31.4015 7.69533 31.8494 7.69533C32.2974 7.69533 32.661 7.33164 32.661 6.88372C32.661 6.43588 32.2974 6.07219 31.8494 6.07219ZM24.001 8.89102L23.6055 7.8616H22.1324L21.7348 8.89188C21.6604 9.08482 21.4957 9.22866 21.2945 9.27643C20.5978 9.442 19.9334 9.71729 19.3226 10.0936C19.1463 10.2022 18.9278 10.2169 18.7385 10.1327L17.7312 9.68482L16.6902 10.7258L17.1381 11.7332C17.2222 11.9224 17.2076 12.141 17.0989 12.3173C16.7224 12.9284 16.447 13.5934 16.2792 14.2929C16.2309 14.4936 16.0871 14.6578 15.8944 14.732L14.867 15.1274V16.6004L15.8944 16.9958C16.0869 17.0699 16.2308 17.2339 16.279 17.4345C16.4468 18.1316 16.722 18.7985 17.0984 19.4073C17.2075 19.5838 17.2224 19.8028 17.1381 19.9923L16.6902 20.9997L17.7315 22.0411L18.7394 21.5947C18.9279 21.5112 19.1454 21.5257 19.3213 21.6334C19.9323 22.0078 20.5971 22.2856 21.2964 22.4513C21.498 22.499 21.663 22.6432 21.7374 22.8364L22.1328 23.8639H23.6057L24.0012 22.8364C24.0755 22.6433 24.2403 22.4993 24.4417 22.4514C25.1381 22.2859 25.8044 22.0109 26.4127 21.6348C26.5889 21.5258 26.8075 21.5109 26.9968 21.5947L28.0046 22.0411L29.0464 20.9993L28.6001 19.9915C28.5166 19.8029 28.531 19.5854 28.6388 19.4096C29.0132 18.7984 29.2911 18.1335 29.4567 17.4363C29.5046 17.2349 29.6486 17.0702 29.8418 16.9958L30.8692 16.6004V15.1274L29.8418 14.732C29.6485 14.6576 29.5044 14.4927 29.4566 14.2911C29.2911 13.5923 29.0159 12.9279 28.6396 12.3173C28.5311 12.1412 28.5163 11.9231 28.6001 11.734L29.0464 10.7262L28.005 9.68482L26.9977 10.1327C26.8084 10.2169 26.5899 10.2022 26.4136 10.0936C25.8028 9.71729 25.1384 9.442 24.4417 9.27643C24.2402 9.22858 24.0753 9.08435 24.001 8.89102ZM22.8679 10.2502C25.9687 10.2502 28.483 12.7616 28.483 15.8625C28.483 18.9633 25.9686 21.4776 22.8679 21.4776C19.7669 21.4776 17.2555 18.9634 17.2555 15.8625C17.2555 12.7614 19.7668 10.2502 22.8679 10.2502ZM22.8679 11.5051C20.4603 11.5051 18.5105 13.4549 18.5105 15.8625C18.5105 18.2702 20.4601 20.2227 22.8679 20.2227C25.2756 20.2227 27.2281 18.2703 27.2281 15.8625C27.2281 13.4548 25.2755 11.5051 22.8679 11.5051ZM20.236 16.4694C19.9911 16.2246 19.9911 15.8269 20.236 15.5821C20.4809 15.3372 20.8785 15.3372 21.1233 15.5821L21.9779 16.4367L24.6374 14.0241C24.8938 13.7914 25.2909 13.8108 25.5236 14.0673C25.7563 14.3237 25.737 14.7209 25.4805 14.9535L22.3784 17.7676C22.1305 17.9925 21.7497 17.9832 21.5131 17.7466L20.236 16.4694ZM12.9294 5.92294C12.6127 6.23964 12.6127 6.75392 12.9294 7.07062C13.2461 7.38733 13.7604 7.38733 14.0771 7.07062C14.3939 6.75392 14.3939 6.23964 14.0771 5.92294C13.7604 5.60615 13.2461 5.60615 12.9294 5.92294Z" fill="#FF7B02"/>
<path fill-rule="evenodd" clip-rule="evenodd" d="M11.4834 35.7815L11.8712 36.4668L11.8721 36.4683C12.2563 37.1516 12.0126 38.0236 11.3332 38.4072L9.81594 39.2672L9.81406 39.2683C9.13069 39.6524 8.25884 39.4087 7.87492 38.729L3.41312 30.8451C3.02543 30.1612 3.2692 29.2884 3.94943 28.9042L5.46849 28.0442C6.14841 27.6602 7.0212 27.9011 7.40841 28.581L7.40928 28.5825L7.71524 29.1232L11.6102 26.8681C12.8276 26.164 14.0728 25.7106 15.4099 26.1448C16.6846 26.5581 18.7656 27.4497 20.8894 27.8335C20.9171 27.8385 20.9444 27.8454 20.9712 27.8541C22.091 28.2166 22.7698 29.35 22.464 30.4871C22.4363 30.5907 22.4031 30.6899 22.3649 30.7846C22.5239 30.7267 22.6808 30.653 22.8357 30.5628L28.2458 27.4119C30.2459 26.2467 31.5811 26.3876 32.3359 26.8939C32.9969 27.3374 33.3049 28.0936 33.2851 28.8367C33.2651 29.5885 32.9043 30.3051 32.3147 30.6682L22.4978 36.7123C21.4433 37.3632 20.2883 37.5163 19.0918 37.197L12.221 35.3556L11.4834 35.7815ZM8.33335 30.2154L10.8653 34.6894L11.8185 34.1389C11.9627 34.0557 12.134 34.0331 12.2947 34.0762L19.4154 35.9846C20.2665 36.2116 21.0886 36.1074 21.8387 35.6445L31.6566 29.5996C31.9069 29.4456 32.0221 29.1225 32.0306 28.8034C32.0558 27.8584 31.1046 27.1988 28.8775 28.4962L23.4675 31.647C22.5814 32.1635 21.6526 32.3068 20.6404 32.1457L20.6383 32.1454L19.9677 32.0363C19.9592 32.0348 19.9499 32.0332 19.9415 32.0315C18.7188 31.7805 17.584 31.4111 16.3257 31.073C15.9912 30.9831 15.7927 30.6386 15.8826 30.3042C15.9725 29.9697 16.317 29.7712 16.6514 29.861C17.8755 30.19 18.979 30.5508 20.1672 30.7967C20.7181 30.8563 21.1253 30.6341 21.2521 30.1616C21.38 29.6859 21.0803 29.2267 20.6195 29.0599C18.4493 28.6604 16.3256 27.761 15.0227 27.3385C14.037 27.0184 13.1359 27.4354 12.2385 27.9544L8.33335 30.2154ZM6.31782 29.2018L6.3172 29.2008C6.27061 29.1204 6.16716 29.0908 6.08622 29.1365L4.56771 29.9962C4.48724 30.0417 4.459 30.1454 4.50488 30.2263L8.96708 38.1109C9.01288 38.1919 9.11727 38.2202 9.19869 38.1746L10.7145 37.3155C10.7955 37.2697 10.824 37.165 10.7784 37.0836L6.31782 29.2018ZM5.82653 29.9866C6.17084 29.9353 6.49061 30.1731 6.5419 30.5175C6.59108 30.8618 6.35327 31.1837 6.00896 31.2329C5.66457 31.2841 5.3448 31.0443 5.29359 30.6999C5.24433 30.3555 5.48214 30.0358 5.82653 29.9866Z" fill="white"/>
</svg>
