<svg width="28" height="28" viewBox="0 0 28 28" fill="none" xmlns="http://www.w3.org/2000/svg">
<g clip-path="url(#clip0_30_13651)">
<path d="M6.5625 2.62478C6.5619 2.52272 6.59748 2.42375 6.66291 2.34543C6.72834 2.2671 6.8194 2.21448 6.91994 2.19691L13.9199 0.88222C13.9732 0.872593 14.0277 0.872593 14.0809 0.88222L21.0809 2.19735C21.1814 2.21485 21.2723 2.26741 21.3376 2.34568C21.4029 2.42396 21.4383 2.52286 21.4375 2.62478V3.93728H27.125V22.3123H19.25V23.266L25.4472 24.5059C26.1673 24.6258 27.125 24.9373 27.125 26.2498V26.6873C27.125 26.7508 27.1111 26.8136 27.0844 26.8713C27.0576 26.9289 27.0186 26.98 26.9701 27.0211C26.9216 27.0622 26.8648 27.0922 26.8035 27.109C26.7422 27.1258 26.678 27.1291 26.6153 27.1187L18.7762 25.8123H9.22381L1.38469 27.1187C1.36086 27.1229 1.3367 27.1249 1.3125 27.1248C1.19647 27.1248 1.08519 27.0787 1.00314 26.9966C0.921093 26.9146 0.875 26.8033 0.875 26.6873V26.2498C0.875 24.9412 1.82656 24.6275 2.54581 24.5068L8.75 23.266V22.3123H0.875V3.93728H6.5625V2.62478ZM14 1.75766L9.04837 2.68603L14 3.92372L18.9516 2.68603L14 1.75766ZM7.4375 3.18522V10.1966L13.5625 12.4935V4.71647L7.4375 3.18522ZM20.5625 3.18522L14.4375 4.71647V12.4935L20.5625 10.1966V3.18522ZM21.1536 10.9097L14.1536 13.5347C14.1033 13.5486 14.0519 13.5578 14 13.5623C13.9481 13.5578 13.8967 13.5486 13.8464 13.5347L6.84644 10.9097C6.76299 10.8784 6.69109 10.8224 6.64035 10.7492C6.5896 10.6759 6.56244 10.5889 6.5625 10.4998V6.56228H3.5V19.6873H24.5V6.56228H21.4375V10.4998C21.4376 10.5889 21.4104 10.6759 21.3597 10.7492C21.3089 10.8224 21.237 10.8784 21.1536 10.9097ZM2.7125 25.366L2.69894 25.3687C1.93812 25.4955 1.76969 25.7318 1.75306 26.1706L9.11706 24.9456C9.14025 24.9408 9.16382 24.938 9.1875 24.9373H18.8125C18.8367 24.9371 18.8609 24.9392 18.8847 24.9434L26.25 26.1706C26.2334 25.7331 26.0645 25.4955 25.2906 25.366L18.7688 24.0623H9.23125L2.7125 25.366ZM18.375 23.1873V22.3123H9.625V23.1873H18.375ZM1.75 4.81228V21.4373H26.25V4.81228H21.4375V5.68728H25.375V20.5623H2.625V5.68728H6.5625V4.81228H1.75Z" fill="white"/>
<path d="M20.8079 14.5121C20.8671 14.5522 20.9156 14.6062 20.949 14.6693C20.9825 14.7325 21 14.8029 21 14.8743V17.4993C21.0001 17.5868 20.9739 17.6722 20.925 17.7447C20.876 17.8171 20.8064 17.8732 20.7252 17.9058L18.5377 18.7808C18.4846 18.7963 18.4301 18.8067 18.375 18.8118C18.3199 18.8067 18.2654 18.7963 18.2122 18.7808L16.0248 17.9058C15.9436 17.8732 15.874 17.8171 15.825 17.7447C15.7761 17.6722 15.7499 17.5868 15.75 17.4993V14.8743C15.75 14.8029 15.7675 14.7325 15.801 14.6693C15.8344 14.6062 15.8829 14.5522 15.9421 14.5121C15.9687 14.4959 15.9964 14.4813 16.0248 14.4683L18.2122 13.5933C18.3169 13.5522 18.4331 13.5522 18.5377 13.5933L20.7252 14.4683C20.7536 14.4814 20.7812 14.496 20.8079 14.5121ZM16.625 17.2031L17.9375 17.7281V16.0455L16.625 15.5205V17.2031ZM18.375 14.4705L17.3657 14.8743L18.375 15.2781L19.3843 14.8743L18.375 14.4705ZM20.125 15.5205L18.8125 16.0455V17.7281L20.125 17.2031V15.5205Z" fill="#FF7B02"/>
<path d="M10.6956 16.144L8.94556 17.019C8.88483 17.0493 8.81788 17.0651 8.74999 17.0651C8.68211 17.0651 8.61516 17.0493 8.55443 17.019L6.80443 16.144C6.73137 16.1074 6.66999 16.0512 6.62723 15.9816C6.58447 15.912 6.56205 15.8319 6.56249 15.7502V14.0002C6.56245 13.9256 6.58149 13.8523 6.61778 13.7871C6.65408 13.7219 6.70643 13.6671 6.76987 13.6279C6.78124 13.6209 6.80443 13.6086 6.80443 13.6086L8.55443 12.7336C8.61516 12.7033 8.68211 12.6875 8.74999 12.6875C8.81788 12.6875 8.88483 12.7033 8.94556 12.7336L10.6956 13.6086C10.6956 13.6086 10.7187 13.6209 10.7301 13.6279C10.7936 13.6671 10.8459 13.7219 10.8822 13.7871C10.9185 13.8523 10.9375 13.9256 10.9375 14.0002V15.7502C10.9379 15.8319 10.9155 15.912 10.8728 15.9816C10.83 16.0512 10.7686 16.1074 10.6956 16.144ZM7.43749 15.4798L8.31249 15.9173V15.1456L7.43749 14.7081V15.4798ZM8.74999 13.6143L7.97824 14.0002L8.74999 14.3861L9.52174 14.0002L8.74999 13.6143ZM10.0625 14.7081L9.18749 15.1456V15.9173L10.0625 15.4798V14.7081Z" fill="#FF7B02"/>
<path d="M5.25 17.9375H7V18.8125H4.375V15.3125H5.25V17.9375Z" fill="#FF7B02"/>
<path d="M4.81381 11.6712V9.1875H5.68881V11.0788L7.60156 11.8436L7.27606 12.6564L4.81381 11.6712Z" fill="#FF7B02"/>
<path d="M22.3125 7.4375H23.1875V11.6633L19.8599 13.0896L19.5151 12.2854L22.3125 11.0867V7.4375Z" fill="#FF7B02"/>
<path d="M14.4375 14.875H13.5625V15.75H14.4375V14.875Z" fill="#FF7B02"/>
<path d="M22.75 17.5H21.875V18.375H22.75V17.5Z" fill="#FF7B02"/>
<path d="M13.125 16.625H12.25V17.5H13.125V16.625Z" fill="#FF7B02"/>
</g>
<defs>
<clipPath id="clip0_30_13651">
<rect width="28" height="28" fill="white" transform="matrix(-1 0 0 1 28 0)"/>
</clipPath>
</defs>
</svg>
