<svg width="29" height="29" viewBox="0 0 29 29" fill="none" xmlns="http://www.w3.org/2000/svg">
<g clip-path="url(#clip0_30_13811)">
<path d="M17.0832 20.7704L14.74 21.1631C13.7596 19.6362 11.5572 19.7802 9.98245 19.7831C9.62575 19.7831 9.27656 19.6377 9.02477 19.3846C8.0519 18.2671 6.87024 18.2597 5.50451 18.3037C5.53692 17.6204 5.52907 16.8778 4.65157 16.8242H1.70841C1.23725 16.8242 0.855469 17.2062 0.855469 17.6772V25.8144C0.855469 26.2854 1.23725 26.6673 1.70841 26.6673H4.65157C5.08452 26.6673 5.43815 26.3436 5.49325 25.9258C6.71057 26.6539 8.46183 28.2777 9.98655 28.1468C10.9545 28.2821 15.7494 26.1578 16.7253 25.8729C16.7413 25.8669 19.2642 24.8519 19.2814 24.8451C19.8005 24.6363 20.1935 24.2098 20.3598 23.6752C20.8789 21.8636 18.7138 20.4432 17.083 20.7708L17.0832 20.7704ZM3.79863 24.9613H2.56135V18.5299H3.79863V24.9613ZM18.7309 23.1686C17.1594 24.0038 12.4833 25.5984 10.7532 26.3011C10.1034 26.5464 9.35486 26.4599 8.77656 26.0725L5.50451 23.8796V20.0094C6.36496 20.0408 7.20084 19.8087 7.8153 20.5876C8.38506 21.1604 9.17506 21.489 9.98245 21.489C10.6878 21.5296 13.3668 21.245 13.3642 22.3917C13.3642 22.585 13.2079 22.7421 13.016 22.7421H8.33065C7.85948 22.7421 7.4777 23.124 7.4777 23.595C7.4777 24.066 7.85948 24.448 8.33065 24.448H13.016C13.9925 24.448 14.8104 23.7617 15.0179 22.8462L17.365 22.4528C17.8737 22.3659 18.6137 22.6281 18.7309 23.1686Z" fill="white"/>
<path d="M27.2942 3.81873H25.4841C25.4757 3.00366 25.1542 2.20531 24.5621 1.6364C22.8497 -0.0757986 19.9369 1.31637 18.7883 3.15872C17.6404 1.31415 14.723 -0.0740929 13.0149 1.6364C12.4228 2.20548 12.1013 3.00366 12.0927 3.81873H10.2826C9.81146 3.81873 9.42969 4.20068 9.42969 4.67167V7.44561C9.47268 8.25488 10.1462 8.3458 10.8091 8.29855V18.0792C10.8091 18.5502 11.1908 18.9322 11.662 18.9322H25.4551C25.9263 18.9322 26.308 18.5502 26.308 18.0792V8.29855C27.0347 8.28729 28.0944 8.48875 28.1471 7.44561V4.67167C28.1471 4.20068 27.7654 3.81873 27.2942 3.81873ZM21.7596 2.76637C22.7516 2.23533 23.7608 2.76808 23.7763 3.81873H20.4261C20.7934 3.36855 21.2438 3.00673 21.7596 2.76637ZM14.1969 2.86634C15.0468 2.05638 16.5246 3.01799 17.1507 3.81873H13.8003C13.8083 3.4593 13.9453 3.10789 14.1969 2.86634ZM19.513 8.29872L12.5149 15.3128V13.2758L17.4811 8.29872H19.513ZM17.4658 17.2265L24.6021 10.0732V12.1102L19.4987 17.2265H17.4658ZM15.056 17.2265H13.0153L21.9229 8.29872H23.9628L15.056 17.2265ZM12.5148 10.8606V8.29855H15.0712L12.5148 10.8606ZM21.908 17.2265L24.602 14.5257V17.2265H21.908ZM26.4413 6.59284C22.3843 6.59284 15.1553 6.59284 11.1354 6.59284V5.52478H26.4413V6.59284Z" fill="#FF7B02"/>
</g>
<defs>
<clipPath id="clip0_30_13811">
<rect width="29" height="29" fill="white"/>
</clipPath>
</defs>
</svg>
