<svg width="26" height="26" viewBox="0 0 26 26" fill="none" xmlns="http://www.w3.org/2000/svg">
<path d="M11.375 17.0623V7.31228C11.375 6.86297 11.011 6.49978 10.5625 6.49978V4.87478C10.5625 4.61397 10.4374 4.36859 10.2245 4.21503C10.0116 4.06147 9.73944 4.01922 9.49244 4.10372L8.9375 4.28978V2.43728C8.9375 2.11959 8.75225 1.83197 8.46463 1.69953C8.17619 1.56709 7.83819 1.6134 7.59606 1.82059L1.90856 6.69559L1.90612 6.69884C1.898 6.70615 1.89231 6.7159 1.88419 6.72322C1.84681 6.75897 1.82162 6.80284 1.79075 6.84428C1.76475 6.88003 1.72981 6.90928 1.71031 6.94909C1.70625 6.95722 1.70706 6.96615 1.703 6.97428C1.6835 7.01653 1.67781 7.06365 1.66562 7.10915C1.65262 7.15872 1.6315 7.20584 1.62825 7.25703C1.62744 7.26515 1.6315 7.27328 1.6315 7.28222C1.63069 7.29278 1.625 7.30172 1.625 7.31228V17.0623C1.625 17.5116 1.989 17.8748 2.4375 17.8748H10.5625C11.011 17.8748 11.375 17.5116 11.375 17.0623ZM8.9375 6.00253V6.49978H7.44494L8.9375 6.00253ZM7.3125 4.8309L6.11406 5.23065L7.3125 4.20365V4.8309ZM9.75 16.2498H3.25V8.12478H9.75V16.2498Z" fill="#E67300"/>
<path d="M4.875 13H8.125C8.5735 13 8.9375 12.6368 8.9375 12.1875V9.75C8.9375 9.30069 8.5735 8.9375 8.125 8.9375H4.875C4.4265 8.9375 4.0625 9.30069 4.0625 9.75V12.1875C4.0625 12.6368 4.4265 13 4.875 13ZM5.6875 10.5625H7.3125V11.375H5.6875V10.5625Z" fill="#E67300"/>
<path d="M17.0625 8.125V6.5C17.0625 6.05069 16.6985 5.6875 16.25 5.6875C15.8015 5.6875 15.4375 6.05069 15.4375 6.5V8.125C15.4375 8.57431 15.8015 8.9375 16.25 8.9375C16.6985 8.9375 17.0625 8.57431 17.0625 8.125Z" fill="white"/>
<path d="M19.5 8.125V6.5C19.5 6.05069 19.136 5.6875 18.6875 5.6875C18.239 5.6875 17.875 6.05069 17.875 6.5V8.125C17.875 8.57431 18.239 8.9375 18.6875 8.9375C19.136 8.9375 19.5 8.57431 19.5 8.125Z" fill="white"/>
<path d="M21.9375 8.125V6.5C21.9375 6.05069 21.5735 5.6875 21.125 5.6875C20.6765 5.6875 20.3125 6.05069 20.3125 6.5V8.125C20.3125 8.57431 20.6765 8.9375 21.125 8.9375C21.5735 8.9375 21.9375 8.57431 21.9375 8.125Z" fill="white"/>
<path d="M17.0625 14.625V13C17.0625 12.5507 16.6985 12.1875 16.25 12.1875C15.8015 12.1875 15.4375 12.5507 15.4375 13V14.625C15.4375 15.0743 15.8015 15.4375 16.25 15.4375C16.6985 15.4375 17.0625 15.0743 17.0625 14.625Z" fill="white"/>
<path d="M19.5 14.625V13C19.5 12.5507 19.136 12.1875 18.6875 12.1875C18.239 12.1875 17.875 12.5507 17.875 13V14.625C17.875 15.0743 18.239 15.4375 18.6875 15.4375C19.136 15.4375 19.5 15.0743 19.5 14.625Z" fill="white"/>
<path d="M21.9375 14.625V13C21.9375 12.5507 21.5735 12.1875 21.125 12.1875C20.6765 12.1875 20.3125 12.5507 20.3125 13V14.625C20.3125 15.0743 20.6765 15.4375 21.125 15.4375C21.5735 15.4375 21.9375 15.0743 21.9375 14.625Z" fill="white"/>
<path d="M17.0625 21.125V19.5C17.0625 19.0507 16.6985 18.6875 16.25 18.6875C15.8015 18.6875 15.4375 19.0507 15.4375 19.5V21.125C15.4375 21.5743 15.8015 21.9375 16.25 21.9375C16.6985 21.9375 17.0625 21.5743 17.0625 21.125Z" fill="white"/>
<path d="M19.5 21.125V19.5C19.5 19.0507 19.136 18.6875 18.6875 18.6875C18.239 18.6875 17.875 19.0507 17.875 19.5V21.125C17.875 21.5743 18.239 21.9375 18.6875 21.9375C19.136 21.9375 19.5 21.5743 19.5 21.125Z" fill="white"/>
<path d="M21.9375 21.125V19.5C21.9375 19.0507 21.5735 18.6875 21.125 18.6875C20.6765 18.6875 20.3125 19.0507 20.3125 19.5V21.125C20.3125 21.5743 20.6765 21.9375 21.125 21.9375C21.5735 21.9375 21.9375 21.5743 21.9375 21.125Z" fill="white"/>
<path d="M21.9375 3.25H12.1875C11.739 3.25 11.375 3.61319 11.375 4.0625C11.375 4.51181 11.739 4.875 12.1875 4.875H21.9375C22.3852 4.875 22.75 5.239 22.75 5.6875V9.75H13C12.5515 9.75 12.1875 10.1132 12.1875 10.5625C12.1875 11.0118 12.5515 11.375 13 11.375H22.75V16.25H13C12.5515 16.25 12.1875 16.6132 12.1875 17.0625C12.1875 17.5118 12.5515 17.875 13 17.875H22.75V21.9375C22.75 22.386 22.3852 22.75 21.9375 22.75H10.5625C10.1148 22.75 9.75 22.386 9.75 21.9375V19.5C9.75 19.0507 9.386 18.6875 8.9375 18.6875C8.489 18.6875 8.125 19.0507 8.125 19.5V21.9375C8.125 23.2814 9.21862 24.375 10.5625 24.375H21.9375C23.2814 24.375 24.375 23.2814 24.375 21.9375V5.6875C24.375 4.34362 23.2814 3.25 21.9375 3.25Z" fill="white"/>
</svg>
