<svg width="24" height="24" viewBox="0 0 24 24" fill="none" xmlns="http://www.w3.org/2000/svg">
<g clip-path="url(#clip0_30_13845)">
<path d="M10.125 7.31423L13.875 9.81422V1.875H17.4375C17.9544 1.875 18.375 2.29556 18.375 2.8125V9.18839H20.25V2.8125C20.25 1.26169 18.9883 0 17.4375 0H2.8125C1.26169 0 0 1.26169 0 2.8125V17.4375C0 18.9883 1.26169 20.25 2.8125 20.25H9.18839V18.375H2.8125C2.29556 18.375 1.875 17.9544 1.875 17.4375V2.8125C1.875 2.29556 2.29556 1.875 2.8125 1.875H6.375V9.81422L10.125 7.31423ZM12 6.31078L10.125 5.06077L8.25 6.31078V1.875H12V6.31078Z" fill="white"/>
<path d="M19.5859 14.8984L16.4989 17.9855L15.2868 16.7734L13.9609 18.0992L16.4989 20.6372L20.9118 16.2242L19.5859 14.8984Z" fill="#FF7B02"/>
<path d="M17.4375 10.875C13.8189 10.875 10.875 13.8189 10.875 17.4375C10.875 21.0561 13.8189 24 17.4375 24C21.0561 24 24 21.0561 24 17.4375C24 13.8189 21.0561 10.875 17.4375 10.875ZM17.4375 22.125C14.8528 22.125 12.75 20.0222 12.75 17.4375C12.75 14.8528 14.8528 12.75 17.4375 12.75C20.0222 12.75 22.125 14.8528 22.125 17.4375C22.125 20.0222 20.0222 22.125 17.4375 22.125Z" fill="#FF7B02"/>
</g>
<defs>
<clipPath id="clip0_30_13845">
<rect width="24" height="24" fill="white"/>
</clipPath>
</defs>
</svg>
