<svg width="30" height="30" viewBox="0 0 30 30" fill="none" xmlns="http://www.w3.org/2000/svg">
<path d="M15 28.125C7.76276 28.125 1.875 22.2372 1.875 15C1.875 12.9323 3.55728 11.25 5.625 11.25C7.69272 11.25 9.375 12.9323 9.375 15C9.375 16.4777 8.5318 17.7608 7.26151 18.3678C8.11203 20.3261 9.67392 21.888 11.6322 22.7385C12.2392 21.4682 13.5223 20.625 15 20.625C17.0677 20.625 18.75 22.3073 18.75 24.375C18.75 26.4427 17.0677 28.125 15 28.125ZM5.625 13.125C4.59091 13.125 3.75 13.9659 3.75 15C3.75 21.2032 8.79684 26.25 15 26.25C16.0341 26.25 16.875 25.4091 16.875 24.375C16.875 23.3409 16.0341 22.5 15 22.5C14.0707 22.5 13.2953 23.1715 13.1566 24.0967C13.1163 24.3672 12.9597 24.6062 12.7286 24.7517C12.4969 24.8964 12.2127 24.9335 11.9531 24.8538C8.69659 23.8481 6.15189 21.3034 5.14618 18.0469C5.06561 17.7859 5.10269 17.5026 5.24826 17.2714C5.39383 17.0403 5.63278 16.8837 5.90332 16.8434C6.82846 16.7047 7.5 15.9293 7.5 15C7.5 13.9659 6.65909 13.125 5.625 13.125Z" fill="white"/>
<path d="M20.625 24.375C20.5042 24.375 20.3824 24.3517 20.2661 24.3036C19.9159 24.1585 19.6875 23.8165 19.6875 23.4375V21.5625C18.1366 21.5625 16.875 20.3009 16.875 18.75V15.9375C16.875 14.3866 18.1366 13.125 19.6875 13.125H25.3125C26.8634 13.125 28.125 14.3866 28.125 15.9375V18.75C28.125 20.3009 26.8634 21.5625 25.3125 21.5625H23.8257L21.2878 24.1003C21.1084 24.2798 20.869 24.375 20.625 24.375ZM19.6875 15C19.1707 15 18.75 15.4207 18.75 15.9375V18.75C18.75 19.2668 19.1707 19.6875 19.6875 19.6875H20.625C21.1427 19.6875 21.5625 20.1073 21.5625 20.625V21.1743L22.7747 19.9622C22.9504 19.7864 23.1889 19.6875 23.4375 19.6875H25.3125C25.8293 19.6875 26.25 19.2668 26.25 18.75V15.9375C26.25 15.4207 25.8293 15 25.3125 15H19.6875Z" fill="#FF7B02"/>
<path d="M20.625 1.875H9.375C8.33947 1.875 7.5 2.71447 7.5 3.75V10.3125C7.5 11.348 8.33947 12.1875 9.375 12.1875H20.625C21.6605 12.1875 22.5 11.348 22.5 10.3125V3.75C22.5 2.71447 21.6605 1.875 20.625 1.875ZM18.835 7.19679L17.2441 8.25731L19.2993 10.3125H10.7007L12.7559 8.25731L11.165 7.19679L9.375 8.98682V4.87673L14.48 8.28003C14.6375 8.38486 14.8187 8.4375 15 8.4375C15.1813 8.4375 15.3625 8.38486 15.52 8.28003L20.625 4.87673V8.98682L18.835 7.19679ZM11.065 3.75H18.935L15 6.37344L11.065 3.75Z" fill="white"/>
</svg>
