<svg width="29" height="29" viewBox="0 0 29 29" fill="none" xmlns="http://www.w3.org/2000/svg">
<g clip-path="url(#clip0_30_13670)">
<path d="M26.9653 12.644C26.8542 9.48077 25.5733 6.52277 23.324 4.27345C20.9663 1.91539 17.833 0.617188 14.5016 0.617188C7.77316 0.617188 2.27539 5.97267 2.03841 12.644C1.01162 13.1003 0.292969 14.128 0.292969 15.3225V18.613C0.292969 20.2289 1.60748 21.5439 3.22378 21.5439C4.26959 21.5439 5.12011 20.6933 5.12011 19.6475V14.2875C5.12011 13.3056 4.36702 12.5049 3.40956 12.4098C3.763 6.59753 8.60147 1.97656 14.5016 1.97656C17.4705 1.97656 20.2622 3.13384 22.3633 5.23498C24.2927 7.16439 25.4219 9.67923 25.5918 12.4102C24.6353 12.5063 23.8836 13.3065 23.8836 14.2875V19.6471C23.8836 20.6372 24.6484 21.4428 25.6172 21.5266V22.881C25.6172 24.4063 24.3761 25.6469 22.8509 25.6469H20.8023C20.7017 25.3596 20.544 25.0941 20.3229 24.8739C19.9355 24.4846 19.4189 24.2703 18.8688 24.2703H16.7573C16.4541 24.2703 16.1632 24.3347 15.8968 24.4588C15.17 24.7928 14.7005 25.5259 14.7005 26.3266C14.7005 26.8767 14.9149 27.3933 15.3032 27.7798C15.6915 28.169 16.2081 28.3833 16.7573 28.3833H18.8688C19.7443 28.3833 20.5159 27.8174 20.8037 27.0063H22.8509C25.126 27.0063 26.9766 25.1557 26.9766 22.881V21.2847C27.997 20.8257 28.7102 19.8016 28.7102 18.6121V15.3215C28.7102 14.128 27.9916 13.1003 26.9653 12.644ZM3.76028 14.2875V19.6471C3.76028 19.943 3.51967 20.184 3.22333 20.184C2.35695 20.184 1.65189 19.479 1.65189 18.6126V15.322C1.65189 14.4552 2.35695 13.7506 3.22333 13.7506C3.51967 13.7506 3.76028 13.9916 3.76028 14.2875ZM19.5508 26.4725C19.4833 26.7924 19.196 27.0249 18.8684 27.0249H16.7568C16.571 27.0249 16.3966 26.9524 16.2634 26.8191C16.132 26.6882 16.0595 26.5133 16.0595 26.3275C16.0595 26.0561 16.2185 25.8082 16.4677 25.6936C16.5565 25.6519 16.654 25.6306 16.7568 25.6306H18.8684C19.0542 25.6306 19.2286 25.7026 19.3614 25.8359C19.4928 25.9668 19.5653 26.1417 19.5653 26.3275C19.5657 26.3773 19.5603 26.4272 19.5508 26.4725ZM27.3509 18.6126C27.3509 19.479 26.6458 20.184 25.7794 20.184C25.4835 20.184 25.2425 19.9434 25.2425 19.6471V14.2875C25.2425 13.9916 25.4831 13.7506 25.7794 13.7506C26.6458 13.7506 27.3509 14.4556 27.3509 15.322V18.6126Z" fill="white"/>
<path d="M18.9012 18.8473C20.4894 18.8473 21.7813 17.555 21.7813 15.9672V10.0988C21.7813 9.33122 21.4813 8.60803 20.9367 8.06337C20.392 7.51872 19.6693 7.21875 18.9012 7.21875H10.0988C8.51061 7.21875 7.21875 8.51061 7.21875 10.0988V15.9672C7.21875 17.5554 8.51061 18.8473 10.0988 18.8473H10.1527V20.368C10.1527 20.948 10.4985 21.4627 11.0332 21.6798C11.2058 21.7491 11.3852 21.7835 11.5629 21.7835C11.9331 21.7835 12.2938 21.6367 12.5579 21.3635L15.0877 18.8473H18.9012ZM14.3287 17.6855L11.591 20.4083C11.5787 20.421 11.5697 20.4305 11.5438 20.4192C11.5126 20.4065 11.5126 20.3861 11.5126 20.368V18.1676C11.5126 17.7924 11.2085 17.4879 10.8329 17.4879H10.0993C9.26053 17.4879 8.57858 16.8055 8.57858 15.9672V10.0988C8.57858 9.26008 9.26053 8.57813 10.0993 8.57813H18.9017C19.3068 8.57813 19.6878 8.73672 19.976 9.02445C20.2642 9.31264 20.4224 9.69417 20.4224 10.0988V15.9672C20.4224 16.806 19.74 17.4879 18.9017 17.4879H14.8081C14.6283 17.4879 14.4561 17.5591 14.3287 17.6855Z" fill="#FF7B02"/>
<path d="M11.1981 12.1406C10.6453 12.1406 10.1953 12.591 10.1953 13.1434C10.1953 13.6957 10.6457 14.1462 11.1981 14.1462C11.7513 14.1462 12.2017 13.6957 12.2017 13.1434C12.2017 12.591 11.7518 12.1406 11.1981 12.1406Z" fill="#FF7B02"/>
<path d="M14.5028 12.1406C13.95 12.1406 13.5 12.591 13.5 13.1434C13.5 13.6957 13.9504 14.1462 14.5028 14.1462C15.0565 14.1462 15.5064 13.6957 15.5064 13.1434C15.5064 12.591 15.0565 12.1406 14.5028 12.1406Z" fill="#FF7B02"/>
<path d="M17.8035 12.1406C17.2507 12.1406 16.8008 12.591 16.8008 13.1434C16.8008 13.6957 17.2512 14.1462 17.8035 14.1462C18.3568 14.1462 18.8072 13.6957 18.8072 13.1434C18.8072 12.591 18.3568 12.1406 17.8035 12.1406Z" fill="#FF7B02"/>
</g>
<defs>
<clipPath id="clip0_30_13670">
<rect width="29" height="29" fill="white"/>
</clipPath>
</defs>
</svg>
