<svg width="29" height="29" viewBox="0 0 29 29" fill="none" xmlns="http://www.w3.org/2000/svg">
<path d="M5.66408 18.4809C5.48333 18.4809 5.30671 18.4268 5.15693 18.3257C5.00715 18.2245 4.89104 18.0808 4.82353 17.9132C4.32877 16.6836 4.07569 15.3702 4.07814 14.0448C4.08671 11.541 4.99305 9.12337 6.63252 7.23097C8.27199 5.33857 10.5358 4.09697 13.0129 3.73171C13.1414 3.71341 13.2723 3.72293 13.3968 3.75962C13.5213 3.79631 13.6365 3.85933 13.7346 3.9444C13.8326 4.02947 13.9112 4.13461 13.9651 4.2527C14.019 4.3708 14.0469 4.49909 14.0469 4.6289V9.25077C14.0469 9.44824 13.9824 9.64031 13.8632 9.79776C13.7441 9.95521 13.5767 10.0694 13.3867 10.123C12.5339 10.3666 11.7835 10.8809 11.2487 11.5883C10.7139 12.2958 10.4237 13.158 10.4219 14.0448C10.4198 14.377 10.4612 14.7081 10.5451 15.0295C10.5967 15.2222 10.5831 15.4265 10.5067 15.6108C10.4303 15.795 10.2952 15.9489 10.1224 16.0486L6.11721 18.3595C5.97944 18.439 5.82316 18.4809 5.66408 18.4809ZM12.2344 5.73951C10.416 6.24271 8.81193 7.32659 7.66666 8.82599C6.52139 10.3254 5.89771 12.1581 5.89064 14.0448C5.88952 14.7839 5.98425 15.5201 6.17249 16.2348L8.65742 14.8016C8.49261 13.5198 8.75337 12.2194 9.39963 11.1003C10.0459 9.98113 11.0419 9.10527 12.2344 8.60734V5.73951Z" fill="white"/>
<path d="M23.3359 18.4809C23.1769 18.4809 23.0206 18.439 22.8828 18.3595L18.8776 16.0486C18.7048 15.9489 18.5697 15.795 18.4933 15.6108C18.4169 15.4265 18.4034 15.2222 18.4549 15.0295C18.5388 14.7081 18.5802 14.377 18.5781 14.0448C18.5763 13.158 18.2861 12.2958 17.7513 11.5883C17.2165 10.8809 16.4661 10.3666 15.6133 10.123C15.4233 10.0694 15.2559 9.95521 15.1368 9.79776C15.0176 9.64031 14.9531 9.44824 14.9531 9.25077V4.6289C14.9531 4.49909 14.981 4.3708 15.0349 4.2527C15.0888 4.13461 15.1674 4.02947 15.2655 3.9444C15.3635 3.85933 15.4787 3.79631 15.6032 3.75962C15.7277 3.72293 15.8586 3.71341 15.9872 3.73171C18.4642 4.09697 20.728 5.33857 22.3675 7.23097C24.007 9.12337 24.9133 11.541 24.9219 14.0448C24.9243 15.3702 24.6712 16.6836 24.1765 17.9132C24.109 18.0808 23.9929 18.2245 23.8431 18.3257C23.6933 18.4268 23.5167 18.4809 23.3359 18.4809ZM20.3426 14.8016L22.8275 16.2348C23.0158 15.5201 23.1105 14.7839 23.1094 14.0448C23.1023 12.1581 22.4786 10.3254 21.3334 8.82599C20.1881 7.32659 18.584 6.24271 16.7656 5.73951V8.60734C17.9582 9.10527 18.9541 9.98113 19.6004 11.1003C20.2466 12.2194 20.5074 13.5198 20.3426 14.8016Z" fill="#FF7B02"/>
<path d="M14.5001 24.4671C12.9226 24.4717 11.3648 24.116 9.94566 23.4271C8.5265 22.7382 7.28342 21.7342 6.31125 20.4918C6.23089 20.3897 6.17343 20.2715 6.14277 20.1452C6.11211 20.019 6.10897 19.8876 6.13355 19.76C6.15813 19.6324 6.20987 19.5116 6.28525 19.4057C6.36063 19.2999 6.45789 19.2115 6.57043 19.1465L10.5761 16.8356C10.7469 16.7373 10.9452 16.6974 11.1408 16.7219C11.3364 16.7464 11.5186 16.8341 11.6599 16.9715C12.4203 17.7112 13.4393 18.1251 14.5001 18.1251C15.561 18.1251 16.5799 17.7112 17.3403 16.9715C17.4816 16.8341 17.6639 16.7464 17.8595 16.7219C18.0551 16.6974 18.2533 16.7373 18.4242 16.8356L22.4298 19.1465C22.5424 19.2115 22.6396 19.2999 22.715 19.4057C22.7904 19.5116 22.8421 19.6324 22.8667 19.76C22.8913 19.8876 22.8881 20.019 22.8575 20.1452C22.8268 20.2715 22.7694 20.3897 22.689 20.4918C21.7168 21.7342 20.4737 22.7382 19.0546 23.4271C17.6354 24.116 16.0777 24.4717 14.5001 24.4671ZM8.43867 20.1624C10.0518 21.7595 12.2301 22.6555 14.5001 22.6555C16.7701 22.6555 18.9484 21.7595 20.5616 20.1624L18.0744 18.7274C17.0479 19.5118 15.792 19.9367 14.5001 19.9367C13.2083 19.9367 11.9523 19.5118 10.9259 18.7274L8.43867 20.1624Z" fill="white"/>
<path d="M21.2967 5.4375C21.1175 5.43746 20.9423 5.38429 20.7933 5.28471C20.6443 5.18513 20.5282 5.0436 20.4596 4.87803C20.391 4.71246 20.3731 4.53027 20.408 4.3545C20.443 4.17873 20.5293 4.01727 20.656 3.89053L22.9216 1.62491C23.0915 1.45494 23.322 1.35943 23.5623 1.35938H27.1873C27.4277 1.35938 27.6582 1.45485 27.8281 1.62481C27.9981 1.79476 28.0936 2.02527 28.0936 2.26563C28.0936 2.50598 27.9981 2.73649 27.8281 2.90644C27.6582 3.0764 27.4277 3.17188 27.1873 3.17188H23.9379L21.9374 5.17197C21.8534 5.25633 21.7536 5.32323 21.6436 5.3688C21.5336 5.41437 21.4157 5.43772 21.2967 5.4375Z" fill="#FF7B02"/>
<path d="M27.1875 5.89062H25.375C25.1346 5.89062 24.9041 5.79515 24.7342 5.62519C24.5642 5.45524 24.4688 5.22473 24.4688 4.98438C24.4688 4.74402 24.5642 4.51351 24.7342 4.34356C24.9041 4.1736 25.1346 4.07812 25.375 4.07812H27.1875C27.4279 4.07812 27.6584 4.1736 27.8283 4.34356C27.9983 4.51351 28.0938 4.74402 28.0938 4.98438C28.0938 5.22473 27.9983 5.45524 27.8283 5.62519C27.6584 5.79515 27.4279 5.89062 27.1875 5.89062Z" fill="#FF7B02"/>
<path d="M7.70313 5.4375C7.58409 5.43772 7.46618 5.41437 7.35622 5.3688C7.24625 5.32323 7.14639 5.25633 7.06241 5.17197L5.06186 3.17188H1.8125C1.57215 3.17188 1.34164 3.0764 1.17168 2.90644C1.00173 2.73649 0.90625 2.50598 0.90625 2.26563C0.90625 2.02527 1.00173 1.79476 1.17168 1.62481C1.34164 1.45485 1.57215 1.35938 1.8125 1.35938H5.4375C5.67783 1.35943 5.9083 1.45494 6.07822 1.62491L8.34384 3.89053C8.47055 4.01727 8.55683 4.17873 8.59178 4.3545C8.62673 4.53027 8.60879 4.71246 8.54021 4.87803C8.47163 5.0436 8.35551 5.18513 8.20651 5.28471C8.05751 5.38429 7.88234 5.43746 7.70313 5.4375Z" fill="white"/>
<path d="M3.625 5.89062H1.8125C1.57215 5.89062 1.34164 5.79515 1.17168 5.62519C1.00173 5.45524 0.90625 5.22473 0.90625 4.98438C0.90625 4.74402 1.00173 4.51351 1.17168 4.34356C1.34164 4.1736 1.57215 4.07812 1.8125 4.07812H3.625C3.86535 4.07812 4.09586 4.1736 4.26582 4.34356C4.43577 4.51351 4.53125 4.74402 4.53125 4.98438C4.53125 5.22473 4.43577 5.45524 4.26582 5.62519C4.09586 5.79515 3.86535 5.89062 3.625 5.89062Z" fill="white"/>
<path d="M26.2818 27.6412H22.6568C22.4165 27.6412 22.186 27.5456 22.0161 27.3757L19.7505 25.1101C19.5854 24.9391 19.4941 24.7102 19.4961 24.4726C19.4982 24.235 19.5935 24.0077 19.7615 23.8397C19.9296 23.6716 20.1569 23.5763 20.3945 23.5743C20.6321 23.5722 20.861 23.6635 21.0319 23.8286L23.0325 25.8287H26.2818C26.5222 25.8287 26.7527 25.9242 26.9226 26.0941C27.0926 26.2641 27.1881 26.4946 27.1881 26.735C27.1881 26.9753 27.0926 27.2058 26.9226 27.3758C26.7527 27.5457 26.5222 27.6412 26.2818 27.6412Z" fill="white"/>
<path d="M26.2812 24.9219H24.4688C24.2284 24.9219 23.9979 24.8264 23.8279 24.6564C23.658 24.4865 23.5625 24.256 23.5625 24.0156C23.5625 23.7753 23.658 23.5448 23.8279 23.3748C23.9979 23.2049 24.2284 23.1094 24.4688 23.1094H26.2812C26.5216 23.1094 26.7521 23.2049 26.9221 23.3748C27.092 23.5448 27.1875 23.7753 27.1875 24.0156C27.1875 24.256 27.092 24.4865 26.9221 24.6564C26.7521 24.8264 26.5216 24.9219 26.2812 24.9219Z" fill="white"/>
</svg>
