<svg width="27" height="27" viewBox="0 0 27 27" fill="none" xmlns="http://www.w3.org/2000/svg">
<g clip-path="url(#clip0_30_13713)">
<path d="M26.209 0H23.0449C22.6081 0 22.2539 0.354164 22.2539 0.791016V1.58203H15.737C15.4105 0.661395 14.5312 0 13.5 0C12.4688 0 11.5895 0.661395 11.263 1.58203H4.74609V0.791016C4.74609 0.354164 4.39193 0 3.95508 0H0.791016C0.354164 0 0 0.354164 0 0.791016V3.95508C0 4.39193 0.354164 4.74609 0.791016 4.74609H3.95508C4.39193 4.74609 4.74609 4.39193 4.74609 3.95508V3.15352H8.03551C5.18173 4.96093 3.44698 8.01431 3.23831 11.2557C2.3065 11.5761 1.63477 12.4608 1.63477 13.5C1.63477 14.8085 2.69931 15.873 4.00781 15.873C5.31631 15.873 6.38086 14.8085 6.38086 13.5C6.38086 12.478 5.73144 11.6048 4.82361 11.2714C5.10448 7.54592 7.78718 4.33719 11.3746 3.42679C11.7635 4.20789 12.5698 4.74609 13.5 4.74609C14.4302 4.74609 15.2365 4.20789 15.6254 3.42684C19.2129 4.33724 21.8955 7.54597 22.1764 11.2715C21.2686 11.6048 20.6191 12.478 20.6191 13.5C20.6191 14.8085 21.6837 15.873 22.9922 15.873C24.3007 15.873 25.3652 14.8085 25.3652 13.5C25.3652 12.4608 24.6935 11.5761 23.7617 11.2557C23.5526 8.00782 21.8127 4.96795 18.9645 3.16406H22.2539V3.95508C22.2539 4.39193 22.6081 4.74609 23.0449 4.74609H26.209C26.6458 4.74609 27 4.39193 27 3.95508V0.791016C27 0.354164 26.6458 0 26.209 0ZM3.16406 3.16406H1.58203V1.58203H3.16406V3.16406ZM4.00781 14.291C3.57165 14.291 3.2168 13.9362 3.2168 13.5C3.2168 13.0638 3.57165 12.709 4.00781 12.709C4.44398 12.709 4.79883 13.0638 4.79883 13.5C4.79883 13.9362 4.44398 14.291 4.00781 14.291ZM13.5 3.16406C13.0638 3.16406 12.709 2.80921 12.709 2.37305C12.709 1.93688 13.0638 1.58203 13.5 1.58203C13.9362 1.58203 14.291 1.93688 14.291 2.37305C14.291 2.80921 13.9362 3.16406 13.5 3.16406ZM22.9922 12.709C23.4284 12.709 23.7832 13.0638 23.7832 13.5C23.7832 13.9362 23.4284 14.291 22.9922 14.291C22.556 14.291 22.2012 13.9362 22.2012 13.5C22.2012 13.0638 22.556 12.709 22.9922 12.709ZM25.418 3.16406H23.8359V1.58203H25.418V3.16406Z" fill="#E67300"/>
<path d="M20.4882 16.2267L14.1601 6.73453C14.1599 6.73422 14.1596 6.7339 14.1594 6.73353C14.1571 6.73016 14.1546 6.72694 14.1523 6.72362C14.1415 6.70785 14.13 6.69266 14.1181 6.67784C13.7848 6.26367 13.1501 6.29162 12.8516 6.72362C12.8493 6.72694 12.8468 6.73016 12.8445 6.73353C12.8443 6.7339 12.844 6.73416 12.8438 6.73453L6.5157 16.2267C6.3065 16.5404 6.3479 16.9582 6.61452 17.2248C8.1927 18.803 9.19719 20.866 9.47083 23.0731C9.34801 23.1724 9.22941 23.2787 9.11698 23.3938C8.374 24.1538 7.96484 25.1541 7.96484 26.2104C7.96484 26.6472 8.319 27.0014 8.75585 27.0014H18.248C18.6849 27.0014 19.0391 26.6472 19.0391 26.2104C19.0391 25.1541 18.6299 24.1538 17.887 23.3937C17.7745 23.2787 17.6559 23.1724 17.5331 23.0731C17.8067 20.8658 18.8111 18.8028 20.3893 17.2248C20.656 16.9582 20.6974 16.5404 20.4882 16.2267ZM13.5019 15.8745C13.9381 15.8745 14.293 16.2293 14.293 16.6655C14.293 17.1016 13.9381 17.4565 13.5019 17.4565C13.0658 17.4565 12.7109 17.1016 12.7109 16.6655C12.7109 16.2293 13.0658 15.8745 13.5019 15.8745ZM9.68176 25.4194C10.0109 24.479 10.903 23.7846 11.9199 23.7846H15.084C16.1009 23.7846 16.993 24.479 17.3221 25.4194H9.68176ZM16.0461 22.323C15.735 22.2436 15.4125 22.2026 15.084 22.2026H11.9199C11.5914 22.2026 11.2689 22.2436 10.9578 22.323C10.5876 20.191 9.62618 18.1981 8.18131 16.5803L12.7109 9.78585V14.4285C11.7902 14.7551 11.1289 15.6343 11.1289 16.6655C11.1289 17.974 12.1934 19.0386 13.5019 19.0386C14.8104 19.0386 15.875 17.974 15.875 16.6655C15.875 15.6343 15.2137 14.7551 14.293 14.4285V9.78585L18.8226 16.5803C17.3777 18.1979 16.4163 20.1909 16.0461 22.323Z" fill="white"/>
</g>
<defs>
<clipPath id="clip0_30_13713">
<rect width="27" height="27" fill="white"/>
</clipPath>
</defs>
</svg>
