<svg width="27" height="27" viewBox="0 0 27 27" fill="none" xmlns="http://www.w3.org/2000/svg">
<path d="M18.0343 6.69531H24.0283C24.8923 6.69531 25.5943 7.39731 25.5943 8.26131V20.6273C25.5943 21.4913 24.8923 22.1933 24.0283 22.1933H2.96834C2.10434 22.1933 1.40234 21.4913 1.40234 20.6273V8.26131C1.40234 7.39731 2.10434 6.69531 2.96834 6.69531H13.4443" stroke="white" stroke-miterlimit="10" stroke-linecap="round" stroke-linejoin="round"/>
<path d="M1.45703 19.4922V20.5722C1.45703 21.4362 2.15903 22.1382 3.02303 22.1382H24.083C24.947 22.1382 25.649 21.4362 25.649 20.5722V19.4922H1.45703Z" stroke="white" stroke-miterlimit="10" stroke-linecap="round" stroke-linejoin="round"/>
<path d="M16.8444 25.3266H10.1484L10.9584 22.1406H16.0344L16.8444 25.3266Z" stroke="white" stroke-miterlimit="10" stroke-linecap="round" stroke-linejoin="round"/>
<path d="M10.6919 11.6626L16.1999 2.53665C16.6859 1.67265 17.8199 1.40265 18.6299 1.94265C19.4939 2.42865 19.7639 3.56265 19.2239 4.37265L13.7159 13.4986L10.4219 15.4966L10.6919 11.6626Z" stroke="white" stroke-miterlimit="10" stroke-linecap="round" stroke-linejoin="round"/>
<path d="M18.3593 5.83065L19.2773 4.37265C19.7633 3.50865 19.4932 2.42865 18.6832 1.94265C17.8192 1.40265 16.7393 1.67265 16.1993 2.53665L15.2812 3.99465L18.3593 5.83065Z" stroke="white" stroke-miterlimit="10" stroke-linecap="round" stroke-linejoin="round"/>
<path d="M10.6914 11.6641L13.7154 13.5001" stroke="white" stroke-miterlimit="10" stroke-linecap="round" stroke-linejoin="round"/>
<path d="M12.2031 12.5809L16.7391 5.12891" stroke="white" stroke-miterlimit="10" stroke-linecap="round" stroke-linejoin="round"/>
<path d="M4.48047 19.4912L8.04447 14.1992L11.5005 19.4372" stroke="white" stroke-miterlimit="10" stroke-linecap="round" stroke-linejoin="round"/>
<path d="M12.5273 19.4927L17.6033 10.6367L22.5173 19.3847" stroke="white" stroke-miterlimit="10" stroke-linecap="round" stroke-linejoin="round"/>
<path d="M5.28981 12.3648C6.27398 12.3648 7.07181 11.567 7.07181 10.5828C7.07181 9.59861 6.27398 8.80078 5.28981 8.80078C4.30564 8.80078 3.50781 9.59861 3.50781 10.5828C3.50781 11.567 4.30564 12.3648 5.28981 12.3648Z" stroke="#FF7B02" stroke-miterlimit="10" stroke-linecap="round" stroke-linejoin="round"/>
<path d="M20.0312 8.85547H23.5953" stroke="#FF7B02" stroke-miterlimit="10" stroke-linecap="round" stroke-linejoin="round"/>
<path d="M20.0312 10.6367H21.8133" stroke="#FF7B02" stroke-miterlimit="10" stroke-linecap="round" stroke-linejoin="round"/>
<path d="M8.3125 25.3242H18.6805" stroke="white" stroke-miterlimit="10" stroke-linecap="round" stroke-linejoin="round"/>
</svg>
