<svg width="28" height="28" viewBox="0 0 28 28" fill="none" xmlns="http://www.w3.org/2000/svg">
<path d="M10.4974 12.5417C8.72406 12.5417 7.28906 11.1067 7.28906 9.33333C7.28906 7.56 8.72406 6.125 10.4974 6.125C12.2707 6.125 13.7057 7.56 13.7057 9.33333C13.7057 11.1067 12.2707 12.5417 10.4974 12.5417ZM10.4974 7.875C9.6924 7.875 9.03906 8.52833 9.03906 9.33333C9.03906 10.1383 9.6924 10.7917 10.4974 10.7917C11.3024 10.7917 11.9557 10.1383 11.9557 9.33333C11.9557 8.52833 11.3024 7.875 10.4974 7.875Z" fill="white"/>
<path d="M17.4987 26.5404H10.4987C4.1637 26.5404 1.45703 23.8337 1.45703 17.4987V10.4987C1.45703 4.1637 4.1637 1.45703 10.4987 1.45703H15.1654C15.6437 1.45703 16.0404 1.8537 16.0404 2.33203C16.0404 2.81036 15.6437 3.20703 15.1654 3.20703H10.4987C5.12036 3.20703 3.20703 5.12036 3.20703 10.4987V17.4987C3.20703 22.877 5.12036 24.7904 10.4987 24.7904H17.4987C22.877 24.7904 24.7904 22.877 24.7904 17.4987V11.6654C24.7904 11.187 25.187 10.7904 25.6654 10.7904C26.1437 10.7904 26.5404 11.187 26.5404 11.6654V17.4987C26.5404 23.8337 23.8337 26.5404 17.4987 26.5404Z" fill="white"/>
<path d="M21 10.2079C20.5217 10.2079 20.125 9.81127 20.125 9.33294V2.33294C20.125 1.98294 20.335 1.65627 20.6617 1.52794C20.9883 1.3996 21.3617 1.4696 21.6183 1.7146L23.9517 4.04794C24.29 4.38627 24.29 4.94627 23.9517 5.2846C23.6133 5.62294 23.0533 5.62294 22.715 5.2846L21.875 4.4446V9.33294C21.875 9.81127 21.4783 10.2079 21 10.2079Z" fill="#FF7B02"/>
<path d="M18.6651 5.54135C18.4434 5.54135 18.2217 5.45969 18.0467 5.28469C17.7084 4.94635 17.7084 4.38635 18.0467 4.04802L20.3801 1.71469C20.7184 1.37635 21.2784 1.37635 21.6167 1.71469C21.9551 2.05302 21.9551 2.61302 21.6167 2.95135L19.2834 5.28469C19.1084 5.45969 18.8867 5.54135 18.6651 5.54135Z" fill="#FF7B02"/>
<path d="M3.1142 22.9823C2.8342 22.9823 2.5542 22.8423 2.39087 22.5973C2.12254 22.2007 2.22754 21.6523 2.6242 21.384L8.37587 17.5223C9.63587 16.6823 11.3742 16.7757 12.5175 17.744L12.9025 18.0823C13.4859 18.584 14.4775 18.584 15.0492 18.0823L19.9025 13.9173C21.1392 12.8557 23.0875 12.8557 24.3359 13.9173L26.2375 15.5507C26.5992 15.8657 26.6459 16.414 26.3309 16.7873C26.0159 17.149 25.4559 17.1957 25.0942 16.8807L23.1925 15.2473C22.6092 14.7457 21.6292 14.7457 21.0459 15.2473L16.1925 19.4123C14.9559 20.474 13.0075 20.474 11.7592 19.4123L11.3742 19.074C10.8375 18.619 9.95088 18.5723 9.35588 18.9807L3.61587 22.8423C3.45254 22.9357 3.27754 22.9823 3.1142 22.9823Z" fill="white"/>
</svg>
