<svg width="30" height="30" viewBox="0 0 30 30" fill="none" xmlns="http://www.w3.org/2000/svg">
<path fill-rule="evenodd" clip-rule="evenodd" d="M4.0625 3.75C4.0625 2.54188 5.04188 1.5625 6.25 1.5625H23.75C24.9581 1.5625 25.9375 2.54189 25.9375 3.75V10.2486C25.9375 10.7663 25.5177 11.1861 25 11.1861C24.4823 11.1861 24.0625 10.7663 24.0625 10.2486V3.75C24.0625 3.5774 23.9226 3.4375 23.75 3.4375H6.25C6.07741 3.4375 5.9375 3.57741 5.9375 3.75V26.25C5.9375 26.4226 6.0774 26.5625 6.25 26.5625H12.5C13.0177 26.5625 13.4375 26.9823 13.4375 27.5C13.4375 28.0178 13.0177 28.4375 12.5 28.4375H6.25C5.04189 28.4375 4.0625 27.4581 4.0625 26.25V3.75Z" fill="white"/>
<path fill-rule="evenodd" clip-rule="evenodd" d="M9.0625 8.75C9.0625 8.23224 9.48224 7.8125 10 7.8125H18.125C18.6427 7.8125 19.0625 8.23224 19.0625 8.75C19.0625 9.26776 18.6427 9.6875 18.125 9.6875H10C9.48224 9.6875 9.0625 9.26776 9.0625 8.75Z" fill="white"/>
<path fill-rule="evenodd" clip-rule="evenodd" d="M9.0625 13.125C9.0625 12.6072 9.48224 12.1875 10 12.1875H13.125C13.6427 12.1875 14.0625 12.6072 14.0625 13.125C14.0625 13.6428 13.6427 14.0625 13.125 14.0625H10C9.48224 14.0625 9.0625 13.6428 9.0625 13.125Z" fill="white"/>
<path fill-rule="evenodd" clip-rule="evenodd" d="M26.5625 21.25C26.5625 18.316 24.184 15.9375 21.25 15.9375C18.316 15.9375 15.9375 18.316 15.9375 21.25C15.9375 24.184 18.316 26.5625 21.25 26.5625C24.184 26.5625 26.5625 24.184 26.5625 21.25ZM21.25 14.0625C25.2195 14.0625 28.4375 17.2805 28.4375 21.25C28.4375 25.2195 25.2195 28.4375 21.25 28.4375C17.2805 28.4375 14.0625 25.2195 14.0625 21.25C14.0625 17.2805 17.2805 14.0625 21.25 14.0625Z" fill="#FF7B02"/>
<path fill-rule="evenodd" clip-rule="evenodd" d="M21.25 21.5625C21.7678 21.5625 22.1875 21.9822 22.1875 22.5V24.375C22.1875 24.8928 21.7678 25.3125 21.25 25.3125C20.7322 25.3125 20.3125 24.8928 20.3125 24.375V22.5C20.3125 21.9822 20.7322 21.5625 21.25 21.5625Z" fill="#FF7B02"/>
<path d="M21.25 20C21.9404 20 22.5 19.4404 22.5 18.75C22.5 18.0596 21.9404 17.5 21.25 17.5C20.5596 17.5 20 18.0596 20 18.75C20 19.4404 20.5596 20 21.25 20Z" fill="#FF7B02"/>
</svg>
