<svg width="26" height="26" viewBox="0 0 26 26" fill="none" xmlns="http://www.w3.org/2000/svg">
<g clip-path="url(#clip0_30_13801)">
<path d="M20.494 22.1687C19.9483 22.2985 19.6111 22.846 19.7408 23.3917C19.7863 23.5829 19.705 23.7229 19.6525 23.7893C19.5996 23.8563 19.481 23.9688 19.2823 23.9688H6.8197C6.62094 23.9688 6.50246 23.8563 6.4495 23.7893C6.39699 23.7229 6.31569 23.5829 6.36114 23.3917C7.09798 20.2931 9.8489 18.1289 13.051 18.1289C14.7901 18.1289 16.4465 18.7726 17.715 19.9413C18.1274 20.3213 18.7699 20.2951 19.15 19.8826C19.5301 19.47 19.5038 18.8276 19.0913 18.4475C18.3107 17.7282 17.4171 17.1627 16.4532 16.7666C17.4818 15.8367 18.1291 14.4926 18.1291 13C18.1291 10.1999 15.8511 7.92188 13.051 7.92188C10.2509 7.92188 7.97289 10.1999 7.97289 13C7.97289 14.4955 8.62284 15.8419 9.65496 16.7721C8.88192 17.0902 8.1525 17.516 7.49377 18.0413C5.94357 19.2771 4.83953 21.0104 4.38504 22.9218C4.2072 23.6698 4.37874 24.4449 4.85573 25.0486C5.33343 25.6532 6.04929 26 6.8197 26H19.2823C20.0527 26 20.7686 25.6532 21.2463 25.0486C21.7233 24.4449 21.8948 23.6698 21.717 22.9218C21.5873 22.3761 21.0398 22.039 20.494 22.1687ZM13.051 9.95312C14.7311 9.95312 16.0979 11.32 16.0979 13C16.0979 14.68 14.7311 16.0469 13.051 16.0469C11.371 16.0469 10.0041 14.68 10.0041 13C10.0041 11.32 11.371 9.95312 13.051 9.95312Z" fill="white"/>
<path d="M22.9531 9.44531H22.4416C22.307 9.44531 22.1948 9.3733 22.1406 9.24219C22.0858 9.11031 22.0946 8.93242 22.1898 8.83726L22.5514 8.47564C23.7395 7.28762 23.7395 5.35468 22.5514 4.16665L21.8333 3.44855C21.2578 2.87305 20.4927 2.55612 19.6789 2.55612C18.865 2.55612 18.0999 2.87305 17.5244 3.44855L17.1627 3.81022C17.0675 3.90538 16.9025 3.92387 16.7708 3.86918C16.6394 3.81489 16.5546 3.69296 16.5546 3.55844V3.04687C16.5546 1.36683 15.1878 0 13.5078 0H12.4921C10.8121 0 9.44526 1.36683 9.44526 3.04687V3.55844C9.44526 3.69296 9.36056 3.81489 9.22909 3.86918C9.09741 3.92387 8.93237 3.90538 8.83721 3.81022L8.47554 3.44855C7.90004 2.87305 7.13492 2.55612 6.32105 2.55612C5.50723 2.55612 4.74205 2.87305 4.1666 3.44855L3.44855 4.1667C2.26058 5.35468 2.26058 7.28767 3.44855 8.47569L3.81022 8.83731C3.90538 8.93242 3.91417 9.11031 3.85938 9.24219C3.80524 9.3733 3.69296 9.44531 3.55845 9.44531H3.04688C1.36683 9.44531 0 10.8121 0 12.4922V13.5078C0 15.1879 1.36683 16.5547 3.04688 16.5547H3.55839C3.69291 16.5547 3.81489 16.6394 3.86918 16.7709L3.87608 16.7876C4.09033 17.3059 4.68437 17.5525 5.20264 17.3382C5.72102 17.124 5.96756 16.5301 5.75331 16.0117L5.74656 15.9953C5.37733 15.1012 4.51846 14.5234 3.55839 14.5234H3.04688C2.48686 14.5234 2.03125 14.0678 2.03125 13.5078V12.4922C2.03125 11.9322 2.48686 11.4766 3.04688 11.4766H3.55845C4.51846 11.4766 5.37733 10.8988 5.74641 10.005L5.75265 9.98994C6.12396 9.09599 5.92531 8.0797 5.24652 7.40091L4.88485 7.0393C4.48886 6.6433 4.48886 5.99899 4.88485 5.60295L5.603 4.8848C6.05643 4.43137 6.66316 4.50866 7.0393 4.8848L7.40101 5.24652C8.07975 5.92526 9.09589 6.12386 9.99192 5.75184L10.0048 5.74651C10.8988 5.37733 11.4766 4.51846 11.4766 3.55844V3.04687C11.4766 2.48686 11.9322 2.03125 12.4922 2.03125H13.5078C14.0678 2.03125 14.5234 2.48686 14.5234 3.04687V3.55844C14.5234 4.51846 15.1012 5.37733 15.9953 5.74651L16.0081 5.75184C16.9042 6.12391 17.9203 5.92526 18.599 5.24652L18.9608 4.8848C19.3369 4.50866 19.9436 4.43137 20.3971 4.8848L21.1152 5.60295C21.5112 5.99894 21.5112 6.6433 21.1152 7.0393L20.7535 7.40091C20.0747 8.0797 19.8761 9.09594 20.2474 9.98994L20.2536 10.005C20.6227 10.8988 21.4815 11.4766 22.4416 11.4766H22.9531C23.5131 11.4766 23.9688 11.9322 23.9688 12.4922V13.5078C23.9688 14.0678 23.5131 14.5234 22.9531 14.5234H22.4416C21.4816 14.5234 20.6227 15.1012 20.2535 15.9953L20.2467 16.0117C20.0325 16.5301 20.279 17.124 20.7974 17.3382C21.3157 17.5525 21.9097 17.3059 22.124 16.7876L22.1309 16.7709C22.1852 16.6394 22.3071 16.5547 22.4417 16.5547H22.9531C24.6332 16.5547 26 15.1879 26 13.5078V12.4922C26 10.8121 24.6332 9.44531 22.9531 9.44531Z" fill="#FF7B02"/>
</g>
<defs>
<clipPath id="clip0_30_13801">
<rect width="26" height="26" fill="white"/>
</clipPath>
</defs>
</svg>
