<svg width="28" height="28" viewBox="0 0 28 28" fill="none" xmlns="http://www.w3.org/2000/svg">
<path d="M13.9986 1.46094C10.9536 1.46094 8.09531 2.65094 5.96031 4.7976C4.84031 5.90594 3.98865 7.25927 3.41698 8.7176C2.26198 9.2076 1.44531 10.3509 1.44531 11.6809V17.2809C1.44531 19.0543 2.88031 20.4893 4.65365 20.4893H6.13531L9.53031 23.4293C9.69365 23.5693 9.89198 23.6393 10.102 23.6393C10.2303 23.6393 10.347 23.6159 10.4636 23.5576C10.7786 23.4176 10.977 23.1026 10.977 22.7643V20.4893H11.6653C13.4386 20.4893 14.8736 19.0543 14.8736 17.2809V11.6809C14.8736 9.90761 13.4386 8.47261 11.6653 8.47261H5.44698C5.90198 7.57427 6.48531 6.7576 7.20865 6.04594C9.01698 4.22594 11.432 3.2226 14.0103 3.2226C19.3186 3.2226 23.6353 7.53927 23.6353 12.8476V14.5159C23.052 13.6876 22.0953 13.1393 21.0103 13.1393H19.8436C18.7236 13.1393 17.802 14.0609 17.802 15.1809V21.0143C17.802 22.1343 18.7236 23.0559 19.8436 23.0559H20.1353V23.3476C20.1353 24.1526 19.482 24.8059 18.677 24.8059H14.0103C13.532 24.8059 13.1353 25.2026 13.1353 25.6809C13.1353 26.1593 13.532 26.5559 14.0103 26.5559H18.677C20.4503 26.5559 21.8853 25.1209 21.8853 23.3476V22.9159C23.227 22.5309 24.2186 21.3059 24.2186 19.8476V18.1793C24.907 17.8526 25.3853 17.1526 25.3853 16.3476V12.8476C25.3853 6.57094 20.287 1.4726 14.0103 1.4726L13.9986 1.46094ZM13.1236 11.6693V17.2693C13.1236 18.0743 12.4703 18.7276 11.6653 18.7276H10.102C9.62365 18.7276 9.22698 19.1243 9.22698 19.6026V20.8393L7.03365 18.9376C6.87031 18.7976 6.67198 18.7276 6.46198 18.7276H4.65365C3.84865 18.7276 3.19531 18.0743 3.19531 17.2693V11.6693C3.19531 10.8643 3.84865 10.2109 4.65365 10.2109H11.6536C12.4586 10.2109 13.112 10.8643 13.112 11.6693H13.1236ZM22.457 19.8359C22.457 20.6409 21.8036 21.2943 20.9986 21.2943H19.832C19.6686 21.2943 19.5403 21.1659 19.5403 21.0026V15.1693C19.5403 15.0059 19.6686 14.8776 19.832 14.8776H20.9986C21.8036 14.8776 22.457 15.5309 22.457 16.3359V19.8359Z" fill="white"/>
<path d="M5.83594 13.7109C5.3576 13.7109 4.96094 14.1076 4.96094 14.5859C4.96094 15.0643 5.3576 15.4609 5.83594 15.4609H10.5026C10.9809 15.4609 11.3776 15.0643 11.3776 14.5859C11.3776 14.1076 10.9809 13.7109 10.5026 13.7109H5.83594Z" fill="#FF7B02"/>
</svg>
