<svg width="29" height="29" viewBox="0 0 29 29" fill="none" xmlns="http://www.w3.org/2000/svg">
<path d="M17.2188 11.7812H6.34375C6.10347 11.7812 5.87292 11.8768 5.703 12.0468L2.078 15.6718C1.90808 15.8417 1.8125 16.0722 1.8125 16.3125V26.2812C1.8125 26.7817 2.21828 27.1875 2.71875 27.1875H13.5938C13.834 27.1875 14.0646 27.0919 14.2345 26.922L17.8595 23.297C18.0294 23.1271 18.125 22.8965 18.125 22.6562V12.6875C18.125 12.187 17.7197 11.7812 17.2188 11.7812ZM13.2185 15.4062H12.1565L13.969 13.5938H15.031L13.2185 15.4062ZM7.25 16.6877L10.344 13.5938H11.406L9.328 15.6718C9.15808 15.8417 9.0625 16.0722 9.0625 16.3125V18.656L8.797 18.3905C8.44299 18.0365 7.86951 18.0365 7.5155 18.3905L7.25 18.656V16.6877ZM6.71899 13.5938H7.78101L5.96851 15.4062H4.90649L6.71899 13.5938ZM3.625 25.375V17.2188H5.4375V20.8438C5.4375 21.2101 5.65831 21.5407 5.99683 21.681C6.3349 21.8204 6.7243 21.7438 6.9845 21.4845L8.15625 20.3127L9.328 21.4845C9.50146 21.658 9.73289 21.75 9.96875 21.75C10.0856 21.75 10.2033 21.7274 10.3157 21.681C10.6542 21.5407 10.875 21.2101 10.875 20.8438V17.2188H12.6875V25.375H3.625ZM14.5 24.0935V16.6877L16.3125 14.8752V22.281L14.5 24.0935Z" fill="#FF7B02"/>
<path d="M26.922 4.79675L24.2032 2.078C24.0333 1.90808 23.8032 1.8125 23.5625 1.8125H13.5938C13.0933 1.8125 12.6875 2.21828 12.6875 2.71875V10.875H14.5V3.625H21.75V6.34375C21.75 6.84422 22.1553 7.25 22.6562 7.25H25.375V19.0312H19.0312V20.8438H26.2812C26.7822 20.8438 27.1875 20.438 27.1875 19.9375V5.4375C27.1875 5.19722 27.0919 4.96667 26.922 4.79675ZM23.5625 4.00024L24.9998 5.4375H23.5625V4.00024Z" fill="white"/>
<path d="M22.6562 9.0625H17.2188C16.7178 9.0625 16.3125 9.46828 16.3125 9.96875C16.3125 10.4692 16.7178 10.875 17.2188 10.875H22.6562C23.1572 10.875 23.5625 10.4692 23.5625 9.96875C23.5625 9.46828 23.1572 9.0625 22.6562 9.0625Z" fill="white"/>
<path d="M22.6562 11.7812H19.0312V13.5938H22.6562C23.1567 13.5938 23.5625 13.188 23.5625 12.6875C23.5625 12.187 23.1567 11.7812 22.6562 11.7812Z" fill="white"/>
<path d="M22.6562 14.5H19.0312V16.3125H22.6562C23.1567 16.3125 23.5625 15.9067 23.5625 15.4062C23.5625 14.9058 23.1567 14.5 22.6562 14.5Z" fill="white"/>
</svg>
