<svg width="28" height="28" viewBox="0 0 28 28" fill="none" xmlns="http://www.w3.org/2000/svg">
<path d="M17.5 16.7661V19.25C17.5 20.2147 16.7151 21 15.75 21H13.125C12.9263 21 12.7336 21.0675 12.5786 21.1914L9.625 23.5541V21.875C9.625 21.3914 9.23322 21 8.75 21H5.25C4.28485 21 3.5 20.2147 3.5 19.25V13.125C3.5 12.1603 4.28485 11.375 5.25 11.375H7.875V9.625H5.25C3.32013 9.625 1.75 11.1947 1.75 13.125V19.25C1.75 21.1803 3.32013 22.75 5.25 22.75H7.875V25.375C7.875 25.7117 8.06769 26.0176 8.37103 26.1637C8.49152 26.2218 8.62097 26.25 8.75 26.25C8.94482 26.25 9.13837 26.1851 9.29645 26.0586L13.4318 22.75H15.75C17.6799 22.75 19.25 21.1803 19.25 19.25V18.1661L17.5 16.7661Z" fill="white"/>
<path d="M22.75 1.75H12.25C10.3201 1.75 8.75 3.3197 8.75 5.25V10.9868C9.26691 10.6854 9.85972 10.5 10.5 10.5V5.25C10.5 4.28528 11.2849 3.5 12.25 3.5H22.75C23.7151 3.5 24.5 4.28528 24.5 5.25V10.5C24.5 11.4647 23.7151 12.25 22.75 12.25H20.125C19.6418 12.25 19.25 12.6414 19.25 13.125V14.8041L16.2964 12.4414C16.1414 12.3175 15.9487 12.25 15.75 12.25H13.5132C13.8146 12.7669 14 13.3596 14 14H15.4432L19.5786 17.3086C19.7366 17.4351 19.9302 17.5 20.125 17.5C20.254 17.5 20.3835 17.4718 20.504 17.4137C20.8073 17.2676 21 16.9617 21 16.625V14H22.75C24.6799 14 26.25 12.4303 26.25 10.5V5.25C26.25 3.3197 24.6799 1.75 22.75 1.75Z" fill="white"/>
<path d="M10.5 18.375C10.0168 18.375 9.625 17.9836 9.625 17.5V17.0275C9.625 16.0627 10.1189 15.1989 10.914 14.7716C11.1981 14.6187 11.375 14.323 11.375 14C11.375 13.5172 10.9824 13.125 10.5 13.125C10.0176 13.125 9.625 13.5172 9.625 14C9.625 14.4836 9.23322 14.875 8.75 14.875C8.26678 14.875 7.875 14.4836 7.875 14C7.875 12.5525 9.05249 11.375 10.5 11.375C11.9475 11.375 13.125 12.5525 13.125 14C13.125 14.9673 12.5952 15.8534 11.7429 16.3131C11.519 16.4327 11.375 16.713 11.375 17.0275V17.5C11.375 17.9836 10.9832 18.375 10.5 18.375Z" fill="#FF7B02"/>
<path d="M10.5021 21C10.0197 21 9.625 20.6086 9.625 20.125C9.625 19.6414 10.0111 19.25 10.4928 19.25H10.5021C10.9837 19.25 11.375 19.6414 11.375 20.125C11.375 20.6086 10.9837 21 10.5021 21Z" fill="#FF7B02"/>
<path d="M16.625 10.5C16.4011 10.5 16.1772 10.4146 16.0063 10.2437L14.2563 8.49365C13.9146 8.15186 13.9146 7.59814 14.2563 7.25635C14.5981 6.91455 15.1519 6.91455 15.4937 7.25635L16.625 8.3877L19.5063 5.50635C19.8481 5.16455 20.4019 5.16455 20.7437 5.50635C21.0854 5.84814 21.0854 6.40186 20.7437 6.74365L17.2437 10.2437C17.0728 10.4146 16.8489 10.5 16.625 10.5Z" fill="#FF7B02"/>
</svg>
