<svg width="34" height="34" viewBox="0 0 34 34" fill="none" xmlns="http://www.w3.org/2000/svg">
<g clip-path="url(#clip0_30_22338)">
<path fill-rule="evenodd" clip-rule="evenodd" d="M20.5832 3.20648C21.8598 3.53688 23.0822 4.04335 24.2201 4.71355L26.5646 3.67115C26.7662 3.58148 27.0023 3.62528 27.1584 3.78135L30.2189 6.84188C30.3748 6.99775 30.4187 7.23342 30.3294 7.43495C30.3294 7.43495 29.2908 9.77975 29.2908 9.77968C29.9613 10.9179 30.4679 12.1411 30.7984 13.4216L33.1897 14.3419C33.3956 14.4212 33.5315 14.6191 33.5315 14.8397V19.1688C33.5315 19.3895 33.3956 19.5873 33.1897 19.6665C33.1897 19.6665 30.7981 20.587 30.7982 20.587C30.4673 21.8635 29.9578 23.0859 29.2905 24.2237L30.3294 26.5692C30.4187 26.7707 30.3748 27.0064 30.2189 27.1623L27.1584 30.2228C27.0025 30.3787 26.7668 30.4226 26.5653 30.3333L24.221 29.2949C23.086 29.9651 21.8602 30.4717 20.5831 30.8021L19.6626 33.1936C19.5834 33.3995 19.3856 33.5354 19.1649 33.5354H14.8358C14.6152 33.5354 14.4173 33.3995 14.338 33.1936C14.338 33.1936 13.4176 30.8023 13.4177 30.8023C12.1374 30.4714 10.9145 29.9618 9.77651 29.2944L7.43104 30.3333C7.22951 30.4226 6.99384 30.3787 6.83798 30.2228L3.77744 27.1623C3.62138 27.0062 3.57758 26.7701 3.66724 26.5685C3.66724 26.5685 4.70951 24.2244 4.70951 24.2245C4.03938 23.0897 3.53278 21.8642 3.19898 20.5873L0.806644 19.6665C0.60071 19.5873 0.464844 19.3895 0.464844 19.1688V14.8397C0.464844 14.6191 0.60071 14.4212 0.806644 14.3419L3.19878 13.4213C3.53258 12.141 4.03931 10.9181 4.70964 9.78015L3.66724 7.43568C3.57758 7.23402 3.62138 6.99795 3.77744 6.84188L6.83798 3.78135C6.99404 3.62528 7.23011 3.58148 7.43178 3.67115C7.43178 3.67115 9.77624 4.71355 9.77618 4.71362C10.9142 4.04322 12.1368 3.53675 13.4135 3.20635L14.3382 0.810083C14.4176 0.604417 14.6153 0.46875 14.8358 0.46875H19.1649C19.3857 0.46875 19.5836 0.60475 19.6628 0.810817L20.5832 3.20648ZM19.6872 3.84842L18.7985 1.53542H15.2016L14.3088 3.84915C14.2456 4.01308 14.1056 4.13535 13.9346 4.17602C12.5773 4.49855 11.2829 5.03475 10.0932 5.76788C9.94338 5.86022 9.75758 5.87262 9.59678 5.80115L7.33311 4.79468L4.79078 7.33702L5.79724 9.60068C5.86871 9.76148 5.85631 9.94728 5.76398 10.0971C5.03064 11.2872 4.49431 12.5821 4.16744 13.944C4.12651 14.1146 4.00424 14.2542 3.84044 14.3173L1.53151 15.2059V18.8026L3.84044 19.6913C4.00411 19.7543 4.12631 19.8937 4.16738 20.0641C4.49418 21.4217 5.03031 22.7206 5.76351 23.9063C5.85624 24.0563 5.86884 24.2424 5.79724 24.4035L4.79078 26.6671L7.33351 29.2099L9.59744 28.2071C9.75771 28.1361 9.94258 28.1484 10.092 28.2399C11.282 28.9691 12.5768 29.5098 13.9386 29.8324C14.1099 29.873 14.2501 29.9955 14.3134 30.1598L15.202 32.4687H18.7987L19.6874 30.1598C19.7506 29.9957 19.8906 29.8732 20.0618 29.8325C21.4188 29.51 22.7172 28.9741 23.9024 28.2411C24.0522 28.1485 24.238 28.1358 24.3989 28.2071L26.6628 29.2099L29.206 26.6667L28.2032 24.4028C28.1322 24.2425 28.1445 24.0577 28.236 23.9082C28.9652 22.7181 29.506 21.4233 29.8286 20.0657C29.8693 19.8946 29.9918 19.7545 30.1559 19.6913L32.4648 18.8026V15.2059L30.1559 14.3173C29.9916 14.254 29.8691 14.1138 29.8285 13.9425C29.506 12.5811 28.9698 11.2867 28.2368 10.0971C28.1446 9.94748 28.132 9.76202 28.2032 9.60135L29.206 7.33742L26.6632 4.79468L24.3996 5.80115C24.2388 5.87262 24.053 5.86022 23.9031 5.76788C22.7134 5.03475 21.419 4.49855 20.0618 4.17602C19.8905 4.13528 19.7504 4.01275 19.6872 3.84842ZM22.9649 7.93995L22.8891 7.67422C22.8083 7.39115 22.9725 7.09582 23.2556 7.01502C23.5386 6.93422 23.834 7.09842 23.9148 7.38148L24.4372 9.21148C24.4822 9.36915 24.4521 9.53875 24.3558 9.67135C24.2594 9.80402 24.1073 9.88495 23.9434 9.89082L22.0415 9.95922C21.7474 9.96982 21.5 9.73955 21.4894 9.44542C21.4788 9.15122 21.709 8.90382 22.0032 8.89322L22.4479 8.87722C21.1673 8.01615 19.6638 7.44668 18.0224 7.27415C12.6497 6.70835 7.83598 10.6051 7.27018 15.9778C7.04431 18.1257 7.53171 20.183 8.54024 21.9161C8.68831 22.1705 8.60191 22.4972 8.34751 22.6453C8.09311 22.7934 7.76638 22.707 7.61831 22.4525C6.49971 20.5303 5.95884 18.2485 6.20938 15.8662C6.83684 9.90762 12.1754 5.58588 18.134 6.21335C19.9216 6.40122 21.5616 7.01375 22.9649 7.93995ZM11.5482 25.1269C12.8288 25.9877 14.333 26.5573 15.9739 26.73C21.3466 27.2958 26.1603 23.3991 26.7261 18.0264C26.9519 15.8797 26.4658 13.8213 25.4562 12.0883C25.308 11.8339 25.3942 11.5072 25.6485 11.359C25.9029 11.2108 26.2296 11.297 26.3778 11.5513C27.4977 13.4737 28.0374 15.7568 27.7869 18.138C27.1594 24.0966 21.8208 28.4183 15.8622 27.7908C14.0753 27.6027 12.4347 26.9902 11.0314 26.0643L11.1072 26.3299C11.188 26.613 11.0238 26.9083 10.7407 26.9891C10.4576 27.0699 10.1622 26.9057 10.0815 26.6227L9.55911 24.7927C9.51411 24.635 9.54418 24.4654 9.64051 24.3328C9.73691 24.2001 9.88898 24.1192 10.0528 24.1133L11.9547 24.0449C12.2489 24.0343 12.4963 24.2646 12.5069 24.5587C12.5174 24.8529 12.2872 25.1003 11.993 25.1109L11.5482 25.1269ZM16.9993 25.0659C12.5577 25.0659 8.93431 21.4447 8.93431 17.0032C8.93431 12.5617 12.5578 8.93822 16.9993 8.93822C21.4408 8.93822 25.062 12.5616 25.062 17.0032C25.062 21.4448 21.4409 25.0659 16.9993 25.0659ZM16.9993 23.9993C20.8533 23.9993 23.9954 20.8572 23.9954 17.0032C23.9954 13.1491 20.8534 10.0049 16.9993 10.0049C13.1452 10.0049 10.001 13.1491 10.001 17.0032C10.001 20.8573 13.1452 23.9993 16.9993 23.9993ZM16.0087 16.9098L19.2918 13.5925L19.2928 13.5915C19.9338 12.9472 20.98 12.944 21.6244 13.585C22.2684 14.2257 22.2725 15.2682 21.6318 15.9156C20.146 17.4149 18.6712 18.9234 17.1787 20.4159C16.5346 21.0599 15.4889 21.0599 14.8448 20.4159L12.371 17.9398C11.7272 17.296 11.7262 16.254 12.37 15.6069L12.371 15.6059C13.015 14.9619 14.0608 14.9619 14.7048 15.6059L16.0087 16.9098ZM15.6335 18.0431L13.9506 16.3602C13.723 16.1326 13.3535 16.1325 13.1257 16.3597C12.8982 16.589 12.8974 16.9577 13.1252 17.1856L15.5991 19.6617C15.8269 19.8894 16.1967 19.8894 16.4244 19.6617C17.9158 18.1703 19.3891 16.6633 20.8736 15.1653C21.1002 14.9363 21.0998 14.5677 20.872 14.3412C20.6447 14.115 20.2755 14.1163 20.0492 14.3435L16.3897 18.0412C16.2899 18.1421 16.154 18.199 16.012 18.1994C15.8701 18.1998 15.7339 18.1435 15.6335 18.0431Z" fill="#FF7B02"/>
<path fill-rule="evenodd" clip-rule="evenodd" d="M20.5832 3.20648C21.8598 3.53688 23.0822 4.04335 24.2201 4.71355L26.5646 3.67115C26.7662 3.58148 27.0023 3.62528 27.1584 3.78135L30.2189 6.84188C30.3748 6.99775 30.4187 7.23342 30.3294 7.43495L29.2908 9.77968C29.9613 10.9179 30.4679 12.1411 30.7984 13.4216L33.1897 14.3419C33.3956 14.4212 33.5315 14.6191 33.5315 14.8397V19.1688C33.5315 19.3895 33.3956 19.5873 33.1897 19.6665L30.7982 20.587C30.4673 21.8635 29.9578 23.0859 29.2905 24.2237L30.3294 26.5692C30.4187 26.7707 30.3748 27.0064 30.2189 27.1623L27.1584 30.2228C27.0025 30.3787 26.7668 30.4226 26.5653 30.3333L24.221 29.2949C23.086 29.9651 21.8602 30.4717 20.5831 30.8021L19.6626 33.1936C19.5834 33.3995 19.3856 33.5354 19.1649 33.5354H14.8358C14.6152 33.5354 14.4173 33.3995 14.338 33.1936L13.4177 30.8023C12.1374 30.4714 10.9145 29.9618 9.77651 29.2944L7.43104 30.3333C7.22951 30.4226 6.99384 30.3787 6.83798 30.2228L3.77744 27.1623C3.62138 27.0062 3.57758 26.7701 3.66724 26.5685L4.70951 24.2245C4.03938 23.0897 3.53278 21.8642 3.19898 20.5873L0.806644 19.6665C0.60071 19.5873 0.464844 19.3895 0.464844 19.1688V14.8397C0.464844 14.6191 0.60071 14.4212 0.806644 14.3419L3.19878 13.4213C3.53258 12.141 4.03931 10.9181 4.70964 9.78015L3.66724 7.43568C3.57758 7.23402 3.62138 6.99795 3.77744 6.84188L6.83798 3.78135C6.99404 3.62528 7.23011 3.58148 7.43178 3.67115L9.77618 4.71362C10.9142 4.04322 12.1368 3.53675 13.4135 3.20635L14.3382 0.810083C14.4176 0.604417 14.6153 0.46875 14.8358 0.46875H19.1649C19.3857 0.46875 19.5836 0.60475 19.6628 0.810817L20.5832 3.20648ZM19.6872 3.84842L18.7985 1.53542H15.2016L14.3088 3.84915C14.2456 4.01308 14.1056 4.13535 13.9346 4.17602C12.5773 4.49855 11.2829 5.03475 10.0932 5.76788C9.94338 5.86022 9.75758 5.87262 9.59678 5.80115L7.33311 4.79468L4.79078 7.33702L5.79724 9.60068C5.86871 9.76148 5.85631 9.94728 5.76398 10.0971C5.03064 11.2872 4.49431 12.5821 4.16744 13.944C4.12651 14.1146 4.00424 14.2542 3.84044 14.3173L1.53151 15.2059V18.8026L3.84044 19.6913C4.00411 19.7543 4.12631 19.8937 4.16738 20.0641C4.49418 21.4217 5.03031 22.7206 5.76351 23.9063C5.85624 24.0563 5.86884 24.2424 5.79724 24.4035L4.79078 26.6671L7.33351 29.2099L9.59744 28.2071C9.75771 28.1361 9.94258 28.1484 10.092 28.2399C11.282 28.9691 12.5768 29.5098 13.9386 29.8324C14.1099 29.873 14.2501 29.9955 14.3134 30.1598L15.202 32.4687H18.7987L19.6874 30.1598C19.7506 29.9957 19.8906 29.8732 20.0618 29.8325C21.4188 29.51 22.7172 28.9741 23.9024 28.2411C24.0522 28.1485 24.238 28.1358 24.3989 28.2071L26.6628 29.2099L29.206 26.6667L28.2032 24.4028C28.1322 24.2425 28.1445 24.0577 28.236 23.9082C28.9652 22.7181 29.506 21.4233 29.8286 20.0657C29.8693 19.8946 29.9918 19.7545 30.1559 19.6913L32.4648 18.8026V15.2059L30.1559 14.3173C29.9916 14.254 29.8691 14.1138 29.8285 13.9425C29.506 12.5811 28.9698 11.2867 28.2368 10.0971C28.1446 9.94748 28.132 9.76202 28.2032 9.60135L29.206 7.33742L26.6632 4.79468L24.3996 5.80115C24.2388 5.87262 24.053 5.86022 23.9031 5.76788C22.7134 5.03475 21.419 4.49855 20.0618 4.17602C19.8905 4.13528 19.7504 4.01275 19.6872 3.84842ZM22.9649 7.93995L22.8891 7.67422C22.8083 7.39115 22.9725 7.09582 23.2556 7.01502C23.5386 6.93422 23.834 7.09842 23.9148 7.38148L24.4372 9.21148C24.4822 9.36915 24.4521 9.53875 24.3558 9.67135C24.2594 9.80402 24.1073 9.88495 23.9434 9.89082L22.0415 9.95922C21.7474 9.96982 21.5 9.73955 21.4894 9.44542C21.4788 9.15122 21.709 8.90382 22.0032 8.89322L22.4479 8.87722C21.1673 8.01615 19.6638 7.44668 18.0224 7.27415C12.6497 6.70835 7.83598 10.6051 7.27018 15.9778C7.04431 18.1257 7.53171 20.183 8.54024 21.9161C8.68831 22.1705 8.60191 22.4972 8.34751 22.6453C8.09311 22.7934 7.76638 22.707 7.61831 22.4525C6.49971 20.5303 5.95884 18.2485 6.20938 15.8662C6.83684 9.90762 12.1754 5.58588 18.134 6.21335C19.9216 6.40122 21.5616 7.01375 22.9649 7.93995ZM11.5482 25.1269C12.8288 25.9877 14.333 26.5573 15.9739 26.73C21.3466 27.2958 26.1603 23.3991 26.7261 18.0264C26.9519 15.8797 26.4658 13.8213 25.4562 12.0883C25.308 11.8339 25.3942 11.5072 25.6485 11.359C25.9029 11.2108 26.2296 11.297 26.3778 11.5513C27.4977 13.4737 28.0374 15.7568 27.7869 18.138C27.1594 24.0966 21.8208 28.4183 15.8622 27.7908C14.0753 27.6027 12.4347 26.9902 11.0314 26.0643L11.1072 26.3299C11.188 26.613 11.0238 26.9083 10.7407 26.9891C10.4576 27.0699 10.1622 26.9057 10.0815 26.6227L9.55911 24.7927C9.51411 24.635 9.54418 24.4654 9.64051 24.3328C9.73691 24.2001 9.88898 24.1192 10.0528 24.1133L11.9547 24.0449C12.2489 24.0343 12.4963 24.2646 12.5069 24.5587C12.5174 24.8529 12.2872 25.1003 11.993 25.1109L11.5482 25.1269ZM16.9993 25.0659C12.5577 25.0659 8.93431 21.4447 8.93431 17.0032C8.93431 12.5617 12.5578 8.93822 16.9993 8.93822C21.4408 8.93822 25.062 12.5616 25.062 17.0032C25.062 21.4448 21.4409 25.0659 16.9993 25.0659ZM16.9993 23.9993C20.8533 23.9993 23.9954 20.8572 23.9954 17.0032C23.9954 13.1491 20.8534 10.0049 16.9993 10.0049C13.1452 10.0049 10.001 13.1491 10.001 17.0032C10.001 20.8573 13.1452 23.9993 16.9993 23.9993Z" fill="white"/>
</g>
<defs>
<clipPath id="clip0_30_22338">
<rect width="34" height="34" fill="white"/>
</clipPath>
</defs>
</svg>
