<svg width="34" height="34" viewBox="0 0 34 34" fill="none" xmlns="http://www.w3.org/2000/svg">
<g clip-path="url(#clip0_30_22366)">
<path d="M33.3359 5.64433H16.0703V4.74798C16.0703 4.50673 15.9394 4.28446 15.7285 4.16739L13.7096 3.04685C13.389 2.86882 12.9847 2.9845 12.8067 3.30524C12.6287 3.62591 12.7444 4.03013 13.0651 4.2081L14.037 4.74752L8.03516 8.07281L2.03429 4.74798L8.03555 1.42302L8.97374 1.94165C9.29468 2.11909 9.69877 2.00268 9.8762 1.68174C10.0536 1.3608 9.9373 0.956715 9.61629 0.779277L8.35643 0.0828087C8.15628 -0.0276913 7.91343 -0.0276249 7.71328 0.0831407L0.342191 4.16712C0.131086 4.28407 0 4.50659 0 4.74798V12.9159C0 13.1574 0.131086 13.3798 0.342191 13.4968L7.71328 17.5808C7.81343 17.6362 7.92426 17.6641 8.03516 17.6641C8.14605 17.6641 8.25689 17.6363 8.35703 17.5809L15.7281 13.4969C15.9393 13.3799 16.0703 13.1575 16.0703 12.916V6.97252H32.6719V22.578H4.91406V17.9294C4.91406 17.5627 4.6167 17.2654 4.25 17.2654C3.8833 17.2654 3.58594 17.5627 3.58594 17.9294V27.0938C3.58594 27.4604 3.8833 27.7578 4.25 27.7578H15.4703V30.0154H12.8788C12.5121 30.0154 12.2147 30.3127 12.2147 30.6794V33.3359C12.2147 33.7026 12.5121 34 12.8788 34H24.7024C25.0691 34 25.3665 33.7026 25.3665 33.3359V30.6794C25.3665 30.3127 25.0691 30.0154 24.7024 30.0154H22.111V27.7578H33.3359C33.7026 27.7578 34 27.4604 34 27.0938V6.30839C34 5.94163 33.7026 5.64433 33.3359 5.64433ZM7.37109 15.8728L1.32812 12.5247V5.87516L7.37109 9.2233V15.8728ZM14.7422 12.5246L8.69922 15.8728V9.22316L14.7422 5.87503V12.5246ZM24.0383 31.3434V32.6719H13.5428V31.3435H24.0383V31.3434ZM16.7984 30.0153V27.7578H20.7828V30.0154H16.7984V30.0153ZM32.6719 26.4297H4.91406V23.9061H32.6719V26.4297Z" fill="white"/>
<path d="M19.2 24.6985C19.0771 24.5749 18.9058 24.5039 18.7305 24.5039C18.5558 24.5039 18.3852 24.5749 18.261 24.6985C18.1375 24.8227 18.0664 24.9933 18.0664 25.168C18.0664 25.3433 18.1375 25.5139 18.261 25.6381C18.3852 25.7616 18.5558 25.8327 18.7305 25.8327C18.9058 25.8327 19.0772 25.7616 19.2 25.6381C19.3241 25.5139 19.3945 25.3433 19.3945 25.168C19.3945 24.9933 19.3241 24.8219 19.2 24.6985Z" fill="white"/>
<path d="M11.907 2.08136C11.7828 1.95784 11.6121 1.88672 11.4375 1.88672C11.2629 1.88672 11.0915 1.95777 10.9673 2.08136C10.8438 2.2048 10.7734 2.37554 10.7734 2.55078C10.7734 2.7255 10.8438 2.89676 10.9673 3.02027C11.0915 3.14386 11.2622 3.21484 11.4375 3.21484C11.6121 3.21484 11.7828 3.14386 11.907 3.02027C12.0304 2.89609 12.1016 2.7255 12.1016 2.55078C12.1016 2.37607 12.0305 2.2048 11.907 2.08136Z" fill="white"/>
<path d="M30.4784 17.7969H25.0644C24.8793 16.8886 24.0744 16.2031 23.1124 16.2031C22.1503 16.2031 21.3454 16.8886 21.1603 17.7969H17.9062C17.5396 17.7969 17.2422 18.0942 17.2422 18.4609C17.2422 18.8276 17.5396 19.125 17.9062 19.125H21.1603C21.3454 20.0332 22.1503 20.7188 23.1124 20.7188C24.0745 20.7188 24.8794 20.0332 25.0644 19.125H30.4784C30.8451 19.125 31.1425 18.8276 31.1425 18.4609C31.1425 18.0943 30.8452 17.7969 30.4784 17.7969ZM23.7764 18.7266C23.7764 19.0927 23.4785 19.3906 23.1123 19.3906C22.7461 19.3906 22.4482 19.0927 22.4482 18.7266V18.1953C22.4482 17.8291 22.7461 17.5312 23.1123 17.5312C23.4785 17.5312 23.7764 17.8291 23.7764 18.1953V18.7266Z" fill="#FF7B02"/>
<path d="M30.4785 14.0781H29.8442C29.6591 13.1699 28.8542 12.4844 27.8922 12.4844C26.9301 12.4844 26.1252 13.1699 25.9401 14.0781H17.9062C17.5396 14.0781 17.2422 14.3755 17.2422 14.7422C17.2422 15.1089 17.5396 15.4062 17.9062 15.4062H25.94C26.1252 16.3145 26.9301 17 27.8921 17C28.8541 17 29.6591 16.3145 29.8442 15.4062H30.4784C30.8451 15.4062 31.1425 15.1089 31.1425 14.7422C31.1425 14.3755 30.8452 14.0781 30.4785 14.0781ZM28.5562 15.0078C28.5562 15.374 28.2583 15.6719 27.8922 15.6719C27.526 15.6719 27.2281 15.374 27.2281 15.0078V14.4766C27.2281 14.1104 27.526 13.8125 27.8922 13.8125C28.2583 13.8125 28.5562 14.1104 28.5562 14.4766V15.0078Z" fill="#FF7B02"/>
<path d="M30.4784 10.3594H25.0644C24.8793 9.45114 24.0744 8.76562 23.1124 8.76562C22.1503 8.76562 21.3454 9.45114 21.1603 10.3594H17.9062C17.5396 10.3594 17.2422 10.6567 17.2422 11.0234C17.2422 11.3901 17.5396 11.6875 17.9062 11.6875H21.1603C21.3454 12.5957 22.1503 13.2812 23.1124 13.2812C24.0745 13.2812 24.8794 12.5957 25.0644 11.6875H30.4784C30.8451 11.6875 31.1425 11.3901 31.1425 11.0234C31.1425 10.6567 30.8451 10.3594 30.4784 10.3594ZM23.7764 11.2891C23.7764 11.6552 23.4785 11.9531 23.1124 11.9531C22.7462 11.9531 22.4483 11.6552 22.4483 11.2891V10.7578C22.4483 10.3916 22.7462 10.0938 23.1124 10.0938C23.4785 10.0938 23.7764 10.3916 23.7764 10.7578V11.2891Z" fill="#FF7B02"/>
</g>
<defs>
<clipPath id="clip0_30_22366">
<rect width="34" height="34" fill="white"/>
</clipPath>
</defs>
</svg>
