<svg width="34" height="34" viewBox="0 0 34 34" fill="none" xmlns="http://www.w3.org/2000/svg">
<g clip-path="url(#clip0_30_22411)">
<path d="M11.332 21.25C10.1604 21.25 9.20703 20.2966 9.20703 19.125C9.20703 17.9534 10.1604 17 11.332 17C12.5036 17 13.457 17.9534 13.457 19.125C13.457 20.2966 12.5036 21.25 11.332 21.25ZM11.332 18.4167C10.9424 18.4167 10.6237 18.7354 10.6237 19.125C10.6237 19.5146 10.9424 19.8333 11.332 19.8333C11.7216 19.8333 12.0404 19.5146 12.0404 19.125C12.0404 18.7354 11.7216 18.4167 11.332 18.4167Z" fill="white"/>
<path d="M4.54793 22.2696L3.21484 21.7936L5.76484 14.6395C5.84134 14.4256 6.01701 14.2598 6.23376 14.1961C6.41226 14.1436 10.6382 12.8672 10.6382 9.21081C10.6382 8.83681 10.9286 8.52798 11.3026 8.5039C11.6978 8.46281 12.0024 8.75181 12.0492 9.12156C12.0506 9.13006 12.4898 11.3967 17.2101 12.8701L16.7893 14.223C14.058 13.3701 12.5365 12.2297 11.6908 11.2593C10.7005 13.8801 7.97059 15.0815 6.98318 15.4399L4.54793 22.2696Z" fill="white"/>
<path d="M17.0009 26.9582C15.5049 26.9582 14.0896 26.3661 13.0158 25.2908C12.7395 25.0146 12.7395 24.5655 13.0158 24.2892C13.292 24.013 13.7411 24.013 14.0174 24.2892C14.8249 25.0967 15.8845 25.5416 17.0009 25.5416C17.3919 25.5416 17.7092 25.8589 17.7092 26.2499C17.7092 26.6409 17.3919 26.9582 17.0009 26.9582Z" fill="white"/>
<path d="M3.54167 22.7513C1.58808 22.7513 0 21.1632 0 19.2096C0 17.2561 1.58808 15.668 3.54167 15.668V17.0846C2.37008 17.0846 1.41667 18.0381 1.41667 19.2096C1.41667 20.4025 2.3885 21.3091 3.60542 21.3346C3.66917 21.3346 3.73292 21.3332 3.79667 21.3261L3.96808 22.7315C3.825 22.7499 3.68475 22.7513 3.54167 22.7513Z" fill="white"/>
<path d="M31.1654 19.8307C29.6028 19.8307 28.332 18.56 28.332 16.9974C28.332 15.4348 29.6028 14.1641 31.1654 14.1641C32.7279 14.1641 33.9987 15.4348 33.9987 16.9974C33.9987 18.56 32.7279 19.8307 31.1654 19.8307ZM31.1654 15.5807C30.3834 15.5807 29.7487 16.2154 29.7487 16.9974C29.7487 17.7794 30.3834 18.4141 31.1654 18.4141C31.9474 18.4141 32.582 17.7794 32.582 16.9974C32.582 16.2154 31.9474 15.5807 31.1654 15.5807Z" fill="#FF7B02"/>
<path d="M29.0404 17.7057H20.5404C20.1494 17.7057 19.832 17.3884 19.832 16.9974C19.832 16.6064 20.1494 16.2891 20.5404 16.2891H29.0404C29.4314 16.2891 29.7487 16.6064 29.7487 16.9974C29.7487 17.3884 29.4314 17.7057 29.0404 17.7057Z" fill="#FF7B02"/>
<path d="M20.5407 12.0417C20.3594 12.0417 20.1781 11.9723 20.0392 11.8348C19.763 11.5586 19.763 11.1095 20.0392 10.8333L24.2892 6.58325C24.4224 6.45008 24.6023 6.375 24.7907 6.375H29.0407C29.4317 6.375 29.7491 6.69233 29.7491 7.08333C29.7491 7.47433 29.4317 7.79167 29.0407 7.79167H25.084L21.0408 11.8348C20.9034 11.9723 20.7221 12.0417 20.5407 12.0417Z" fill="#FF7B02"/>
<path d="M31.1654 9.91667C29.6028 9.91667 28.332 8.64592 28.332 7.08333C28.332 5.52075 29.6028 4.25 31.1654 4.25C32.7279 4.25 33.9987 5.52075 33.9987 7.08333C33.9987 8.64592 32.7279 9.91667 31.1654 9.91667ZM31.1654 5.66667C30.3834 5.66667 29.7487 6.30133 29.7487 7.08333C29.7487 7.86533 30.3834 8.5 31.1654 8.5C31.9474 8.5 32.582 7.86533 32.582 7.08333C32.582 6.30133 31.9474 5.66667 31.1654 5.66667Z" fill="#FF7B02"/>
<path d="M29.0407 27.6265H24.7907C24.6023 27.6265 24.4224 27.5515 24.2892 27.4197L20.0392 23.1697C19.763 22.8935 19.763 22.4444 20.0392 22.1681C20.3155 21.8919 20.7646 21.8919 21.0408 22.1681L25.084 26.2113H29.0407C29.4317 26.2113 29.7491 26.5286 29.7491 26.9196C29.7491 27.3106 29.4317 27.6265 29.0407 27.6265Z" fill="#FF7B02"/>
<path d="M31.1654 29.7526C29.6028 29.7526 28.332 28.4819 28.332 26.9193C28.332 25.3567 29.6028 24.0859 31.1654 24.0859C32.7279 24.0859 33.9987 25.3567 33.9987 26.9193C33.9987 28.4819 32.7279 29.7526 31.1654 29.7526ZM31.1654 25.5026C30.3834 25.5026 29.7487 26.1373 29.7487 26.9193C29.7487 27.7013 30.3834 28.3359 31.1654 28.3359C31.9474 28.3359 32.582 27.7013 32.582 26.9193C32.582 26.1373 31.9474 25.5026 31.1654 25.5026Z" fill="#FF7B02"/>
<path d="M15.5721 33.9176C15.4914 33.9176 15.4106 33.9119 15.3284 33.9034C11.1436 33.4161 7.69828 31.0432 5.0902 26.8499C5.0477 26.7762 4.38895 25.6103 4.10986 24.9756C3.71745 24.0704 3.4072 23.1325 3.19045 22.1862C2.95245 21.1308 2.83203 20.0258 2.83203 18.8967V11.3175C2.83203 3.77518 9.60653 0.542352 15.4078 0.0649349C15.9914 0.00401826 16.5822 0.217935 17.0185 0.620268C17.4577 1.0226 17.707 1.59493 17.707 2.18993V31.7841C17.707 32.3918 17.4449 32.9727 16.9902 33.3778C16.5978 33.7278 16.0906 33.9176 15.5721 33.9176ZM15.582 1.47452C15.5622 1.47452 15.5438 1.47452 15.5239 1.47593C10.3219 1.90518 4.2487 4.73852 4.2487 11.3175V18.8967C4.2487 19.9209 4.35778 20.9225 4.5717 21.8717C4.77003 22.7302 5.05195 23.5859 5.41036 24.4089C5.6597 24.9756 6.30428 26.1174 6.31136 26.1288C8.69845 29.9651 11.7074 32.0575 15.4928 32.4967C15.6939 32.5279 15.8937 32.4584 16.0495 32.3196C16.2054 32.1808 16.2918 31.9909 16.2918 31.7841V2.18993C16.2918 1.98593 16.2082 1.80035 16.0594 1.66152C15.9263 1.53968 15.7591 1.47452 15.582 1.47452Z" fill="white"/>
</g>
<defs>
<clipPath id="clip0_30_22411">
<rect width="34" height="34" fill="white"/>
</clipPath>
</defs>
</svg>
