<svg width="39" height="39" viewBox="0 0 39 39" fill="none" xmlns="http://www.w3.org/2000/svg">
<path d="M36.0278 25.0963C35.6999 24.5487 34.3564 22.9216 30.8365 24.9715L24.7237 28.5319C24.4718 28.6786 24.2162 28.7892 23.952 28.8646C24.0377 28.7022 24.1072 28.5246 24.1585 28.3329C24.4802 27.1321 23.7676 25.8789 22.5363 25.4797C22.5103 25.4713 22.4836 25.4646 22.4566 25.4597C20.7053 25.1438 18.9742 24.518 17.5833 24.0152C17.0987 23.84 16.641 23.6745 16.2512 23.5482C14.6613 23.0323 13.23 23.6672 12.0398 24.3564L7.55042 26.9556L7.15493 26.2568C6.95681 25.9068 6.63338 25.6546 6.24415 25.5468C5.85514 25.4389 5.44785 25.4886 5.09784 25.6867L3.38283 26.6573C2.65851 27.0673 2.4028 27.99 2.81268 28.7144L7.85503 37.6239C8.05315 37.9739 8.37658 38.2261 8.76582 38.334C8.90041 38.3713 9.03714 38.3897 9.17288 38.3897C9.42973 38.3897 9.68315 38.3237 9.91213 38.1941L11.6273 37.2234C12.3516 36.8134 12.6074 35.8907 12.1974 35.1663L11.7102 34.3055L12.6654 33.7541L20.4679 35.8447C20.9058 35.9621 21.3413 36.0205 21.7699 36.0204C22.6366 36.0204 23.4739 35.7817 24.2393 35.3105L35.3326 28.4797C36.3732 27.839 36.7046 26.2263 36.0278 25.0963ZM11.0269 36.1627L9.31174 37.1334C9.22178 37.1844 9.13502 37.1716 9.09122 37.1595C9.0475 37.1474 8.96653 37.1136 8.91565 37.0236L3.8733 28.1141C3.79568 27.977 3.84603 27.7956 3.98306 27.718L5.69815 26.7474C5.74819 26.719 5.79732 26.7104 5.83853 26.7104C5.87136 26.7104 5.89924 26.7159 5.91866 26.7213C5.96239 26.7334 6.04328 26.7672 6.09424 26.8571L11.1367 35.7666C11.2143 35.9038 11.1639 36.0851 11.0269 36.1627ZM21.4488 30.0113L22.2091 30.1349C23.3619 30.3192 24.385 30.1394 25.337 29.5851L31.4499 26.0247C33.1736 25.0206 34.4942 24.9076 34.9822 25.7224C35.3164 26.2804 35.1706 27.1481 34.6933 27.4419L23.6001 34.2727C22.7367 34.8042 21.7891 34.9371 20.7832 34.6675L12.7369 32.5115C12.5808 32.4699 12.4145 32.4916 12.2745 32.5724L11.1099 33.2448L8.15073 28.0162L12.6504 25.411C13.6564 24.8285 14.7434 24.34 15.8752 24.7073C16.2457 24.8275 16.6735 24.9821 17.1689 25.1612C18.5914 25.6755 20.3589 26.3145 22.1956 26.6509C22.7978 26.8638 23.1346 27.445 22.9812 28.0173C22.7792 28.7712 22.1467 28.8646 21.6425 28.8071C20.7463 28.6225 19.8932 28.3791 18.9907 28.1214C18.5611 27.9987 18.117 27.8718 17.6602 27.7494C17.3352 27.6625 17.001 27.8553 16.9138 28.1803C16.8267 28.5054 17.0196 28.8395 17.3447 28.9266C17.7919 29.0465 18.2312 29.1719 18.656 29.2932C19.5904 29.56 20.4729 29.8121 21.4244 30.0066M6.16287 28.4098C6.21177 28.7444 5.98021 29.0554 5.64551 29.1043C5.31089 29.1532 4.99995 28.9216 4.95105 28.5869C4.90215 28.2523 5.13371 27.9414 5.46841 27.8925C5.80303 27.8436 6.11397 28.0752 6.16287 28.4098ZM15.151 10.127C15.4329 10.6768 15.5744 10.9527 15.6149 11.1821C15.6553 11.4115 15.6167 11.7191 15.5399 12.3321C15.5206 12.4864 15.499 12.6582 15.4759 12.8512C15.349 13.9128 15.9241 14.9089 16.907 15.3299C17.0857 15.4064 17.2452 15.4736 17.3884 15.534C17.4144 15.545 17.4393 15.5555 17.4642 15.566L15.1993 20.4307C15.1035 20.6365 15.13 20.8784 15.2681 21.0586C15.4062 21.2388 15.6329 21.3274 15.8566 21.2881L18.3461 20.8532L19.6158 23.0383C19.7252 23.2265 19.9263 23.3414 20.1426 23.3414C20.1518 23.3414 20.1611 23.3412 20.1703 23.3408C20.3971 23.3305 20.5993 23.195 20.6952 22.9893L22.9435 18.1601L22.8991 18.1394C23.2841 18.0229 23.5112 17.9644 23.6975 17.9644C23.9304 17.9644 24.2267 18.0558 24.8171 18.238C24.879 18.2571 24.9446 18.2773 25.0127 18.2982L26.6353 22.0654C26.7251 22.2739 26.9233 22.4152 27.1497 22.432C27.1648 22.4331 27.18 22.4337 27.1951 22.4337C27.4047 22.4337 27.6011 22.3256 27.7127 22.1456L29.0453 19.9983L31.521 20.5054C31.7434 20.5509 31.9727 20.4691 32.1159 20.293C32.2592 20.1169 32.2927 19.8758 32.203 19.6673L30.3587 15.3853C30.4007 15.3674 30.4438 15.349 30.4881 15.33C31.4709 14.9091 32.046 13.9129 31.9191 12.8513C31.896 12.6583 31.8745 12.4865 31.8552 12.3324C31.7782 11.7193 31.7397 11.4117 31.7802 11.1823C31.8206 10.9529 31.9621 10.6769 32.244 10.1272C32.3149 9.98887 32.3939 9.83485 32.4816 9.66141C32.964 8.70721 32.7642 7.57445 31.9847 6.84282C31.8429 6.70975 31.7161 6.59207 31.6021 6.48634C31.1492 6.0661 30.9219 5.85525 30.8054 5.65348C30.6889 5.45177 30.6199 5.14945 30.4826 4.54716C30.448 4.39557 30.4095 4.22678 30.3651 4.03749C30.1213 2.99645 29.2401 2.25712 28.1726 2.19779C27.9785 2.18697 27.8057 2.17844 27.6504 2.17067C27.0334 2.13997 26.7236 2.12451 26.5047 2.04483C26.2858 1.96516 26.0386 1.77793 25.5462 1.40484C25.4223 1.31099 25.2844 1.20649 25.1287 1.08994C24.2728 0.449186 23.1226 0.449186 22.2667 1.08994C22.111 1.20649 21.9731 1.31099 21.8492 1.40484C21.3567 1.77793 21.1096 1.96516 20.8907 2.04483C20.6718 2.12451 20.3621 2.13997 19.745 2.17067C19.5898 2.17844 19.4169 2.18697 19.2228 2.19779C18.1553 2.2572 17.2741 2.99653 17.0303 4.03749C16.986 4.22678 16.9475 4.3955 16.9129 4.54708C16.7754 5.14945 16.7065 5.4517 16.59 5.65348C16.4735 5.85518 16.2461 6.0661 15.7933 6.48626C15.6793 6.59199 15.5524 6.70975 15.4107 6.84275C14.631 7.57445 14.4313 8.70713 14.9136 9.66133C15.0011 9.8347 15.0801 9.98872 15.151 10.127ZM20.083 21.4164L19.1865 19.8735C19.0583 19.653 18.8064 19.5356 18.5547 19.5794L16.7969 19.8866L18.5345 16.1545C18.6783 16.3147 18.8388 16.563 19.1036 16.9732C19.188 17.1039 19.2819 17.2493 19.3883 17.4121C19.8404 18.1033 20.5881 18.4953 21.3769 18.4953C21.3992 18.4953 21.4218 18.4935 21.4442 18.4929L20.083 21.4164ZM28.8737 18.719C28.6237 18.6678 28.3682 18.7778 28.2337 18.9947L27.2928 20.5109L26.41 18.4612C27.049 18.3539 27.6304 17.9874 28.0066 17.4121C28.113 17.2493 28.2069 17.104 28.2912 16.9734C28.6263 16.4543 28.7945 16.1938 28.973 16.0441C29.0426 15.9857 29.129 15.9316 29.2419 15.8732L30.6217 19.077L28.8737 18.719ZM16.2444 7.73129C16.3843 7.60005 16.5094 7.48389 16.622 7.37961C17.7036 6.37619 17.7727 6.25645 18.1009 4.81802C18.135 4.6685 18.173 4.50206 18.2168 4.31529C18.338 3.79762 18.7595 3.44403 19.2903 3.41448C19.4818 3.40382 19.6523 3.39536 19.8055 3.38767C21.2791 3.31431 21.409 3.26701 22.585 2.37603C22.7072 2.2834 22.8434 2.18027 22.9969 2.06532C23.2098 1.90597 23.4537 1.82637 23.6976 1.82637C23.9415 1.82637 24.1854 1.90597 24.3983 2.06532C24.5519 2.18019 24.688 2.28333 24.8102 2.37595C25.9862 3.26694 26.1161 3.31416 27.5897 3.38759C27.7429 3.39521 27.9134 3.40366 28.1049 3.4144C28.6358 3.44396 29.0572 3.79755 29.1784 4.31521C29.2222 4.50199 29.2602 4.6685 29.2943 4.81802C29.6224 6.25638 29.6915 6.37612 30.7732 7.37953C30.8857 7.48381 31.0108 7.59997 31.1507 7.73122C31.5384 8.09509 31.6339 8.63682 31.394 9.11137C31.3074 9.28253 31.2295 9.43449 31.1596 9.57092C30.4864 10.8838 30.4624 11.0199 30.646 12.4839C30.665 12.636 30.6862 12.8054 30.709 12.9958C30.7722 13.5238 30.4971 14.0002 30.0083 14.2095C29.8321 14.285 29.6747 14.3513 29.5333 14.4109C28.1737 14.9838 28.0678 15.0727 27.2674 16.3121C27.1842 16.4409 27.0916 16.5844 26.9867 16.7449C26.6957 17.1898 26.1789 17.3779 25.6697 17.2242C25.4861 17.1687 25.323 17.1184 25.1765 17.0732C23.7668 16.6382 23.6285 16.6381 22.2185 17.0732C22.0721 17.1184 21.9089 17.1687 21.7253 17.2242C21.2165 17.378 20.6994 17.1899 20.4084 16.7449C20.3034 16.5844 20.2107 16.4409 20.1275 16.3121C19.3272 15.0727 19.2213 14.9838 17.8617 14.4109C17.7204 14.3513 17.5631 14.285 17.3867 14.2095C16.8979 14.0002 16.6229 13.5238 16.686 12.9958C16.7088 12.8053 16.73 12.6358 16.7492 12.4837C16.9327 11.0198 16.9087 10.8837 16.2355 9.57077C16.1655 9.43434 16.0876 9.28246 16.0011 9.1113C15.7612 8.6369 15.8567 8.09516 16.2444 7.73129ZM23.6974 15.1395C26.7784 15.1395 29.285 12.6329 29.285 9.55188C29.285 6.47088 26.7784 3.96436 23.6974 3.96436C20.6164 3.96436 18.1099 6.47095 18.1099 9.55188C18.1099 12.6329 20.6165 15.1395 23.6974 15.1395ZM23.6974 5.18304C26.1063 5.18304 28.0662 7.14286 28.0662 9.5518C28.0662 11.9607 26.1064 13.9206 23.6974 13.9206C21.2884 13.9206 19.3286 11.9608 19.3286 9.5518C19.3286 7.14279 21.2885 5.18304 23.6974 5.18304ZM22.1462 11.7112L20.5779 10.1429C20.3399 9.90493 20.34 9.51912 20.5779 9.28116C20.816 9.04312 21.2019 9.0432 21.4397 9.28116L22.5974 10.439L25.9765 7.37229C26.2258 7.14606 26.6111 7.1648 26.8374 7.41404C27.0635 7.66327 27.0449 8.0487 26.7956 8.27485L22.9866 11.7316C22.8701 11.8373 22.7235 11.8897 22.5771 11.8897C22.4208 11.8897 22.2648 11.8299 22.1462 11.7112Z" fill="#FF7B02"/>
<path d="M6.16287 28.4098C6.21177 28.7444 5.98021 29.0554 5.64551 29.1043C5.31089 29.1532 4.99995 28.9216 4.95105 28.5869C4.90215 28.2523 5.13371 27.9414 5.46841 27.8925C5.80303 27.8436 6.11397 28.0752 6.16287 28.4098ZM15.151 10.127C15.4329 10.6768 15.5744 10.9527 15.6149 11.1821C15.6553 11.4115 15.6167 11.7191 15.5399 12.3321C15.5206 12.4864 15.499 12.6582 15.4759 12.8512C15.349 13.9128 15.9241 14.9089 16.907 15.3299C17.0857 15.4064 17.2452 15.4736 17.3884 15.534C17.4144 15.545 17.4393 15.5555 17.4642 15.566L15.1993 20.4307C15.1035 20.6365 15.13 20.8784 15.2681 21.0586C15.4062 21.2388 15.6329 21.3274 15.8566 21.2881L18.3461 20.8532L19.6158 23.0383C19.7252 23.2265 19.9263 23.3414 20.1426 23.3414C20.1518 23.3414 20.1611 23.3412 20.1703 23.3408C20.3971 23.3305 20.5993 23.195 20.6952 22.9893L22.9435 18.1601L22.8991 18.1394C23.2841 18.0229 23.5112 17.9644 23.6975 17.9644C23.9304 17.9644 24.2267 18.0558 24.8171 18.238C24.879 18.2571 24.9446 18.2773 25.0127 18.2982L26.6353 22.0654C26.7251 22.2739 26.9233 22.4152 27.1497 22.432C27.1648 22.4331 27.18 22.4337 27.1951 22.4337C27.4047 22.4337 27.6011 22.3256 27.7127 22.1456L29.0453 19.9983L31.521 20.5054C31.7434 20.5509 31.9727 20.4691 32.1159 20.293C32.2592 20.1169 32.2927 19.8758 32.203 19.6673L30.3587 15.3853C30.4007 15.3674 30.4438 15.349 30.4881 15.33C31.4709 14.9091 32.046 13.9129 31.9191 12.8513C31.896 12.6583 31.8745 12.4865 31.8552 12.3324C31.7783 11.7193 31.7397 11.4117 31.7802 11.1823C31.8206 10.9529 31.9621 10.6769 32.244 10.1272C32.3149 9.98887 32.3939 9.83486 32.4816 9.66141C32.964 8.70721 32.7642 7.57445 31.9847 6.84282C31.8429 6.70975 31.7161 6.59207 31.6021 6.48634C31.1492 6.0661 30.9219 5.85526 30.8054 5.65348C30.6889 5.45177 30.6199 5.14945 30.4826 4.54716C30.448 4.39557 30.4095 4.22678 30.3651 4.03749C30.1213 2.99645 29.2401 2.25712 28.1726 2.19779C27.9785 2.18697 27.8057 2.17844 27.6504 2.17067C27.0334 2.13997 26.7236 2.12451 26.5047 2.04483C26.2858 1.96516 26.0386 1.77793 25.5463 1.40484C25.4223 1.31099 25.2844 1.20649 25.1288 1.08994C24.2728 0.449186 23.1226 0.449186 22.2667 1.08994C22.1111 1.20649 21.9731 1.31099 21.8492 1.40484C21.3567 1.77793 21.1096 1.96516 20.8907 2.04483C20.6718 2.12451 20.3621 2.13997 19.745 2.17067C19.5898 2.17844 19.4169 2.18697 19.2228 2.19779C18.1553 2.2572 17.2741 2.99653 17.0303 4.03749C16.986 4.22678 16.9475 4.3955 16.9129 4.54708C16.7754 5.14945 16.7065 5.4517 16.59 5.65348C16.4735 5.85518 16.2461 6.0661 15.7933 6.48626C15.6793 6.59199 15.5524 6.70975 15.4107 6.84275C14.6311 7.57445 14.4313 8.70713 14.9136 9.66133C15.0011 9.8347 15.0801 9.98872 15.151 10.127ZM20.0831 21.4164L19.1865 19.8735C19.0583 19.653 18.8064 19.5356 18.5547 19.5794L16.7969 19.8866L18.5345 16.1545C18.6783 16.3147 18.8388 16.563 19.1036 16.9732C19.188 17.1039 19.2819 17.2493 19.3883 17.4121C19.8404 18.1033 20.5881 18.4953 21.3769 18.4953C21.3992 18.4953 21.4218 18.4935 21.4442 18.4929L20.0831 21.4164ZM28.8737 18.719C28.6237 18.6678 28.3682 18.7778 28.2337 18.9947L27.2928 20.5109L26.41 18.4612C27.049 18.3539 27.6304 17.9874 28.0066 17.4121C28.113 17.2493 28.2069 17.104 28.2912 16.9734C28.6263 16.4543 28.7945 16.1938 28.973 16.0441C29.0426 15.9857 29.129 15.9316 29.2419 15.8732L30.6217 19.077L28.8737 18.719ZM16.2444 7.73129C16.3843 7.60005 16.5094 7.48389 16.622 7.37961C17.7036 6.37619 17.7727 6.25645 18.1009 4.81802C18.135 4.6685 18.173 4.50206 18.2168 4.31529C18.338 3.79762 18.7595 3.44403 19.2903 3.41448C19.4818 3.40382 19.6523 3.39536 19.8055 3.38767C21.2791 3.31431 21.409 3.26701 22.585 2.37603C22.7072 2.2834 22.8434 2.18027 22.9969 2.06532C23.2098 1.90597 23.4537 1.82637 23.6976 1.82637C23.9415 1.82637 24.1854 1.90597 24.3983 2.06532C24.5519 2.18019 24.688 2.28333 24.8102 2.37595C25.9862 3.26694 26.1161 3.31416 27.5897 3.38759C27.7429 3.39521 27.9134 3.40366 28.1049 3.4144C28.6358 3.44396 29.0572 3.79755 29.1784 4.31521C29.2222 4.50199 29.2602 4.6685 29.2943 4.81802C29.6224 6.25638 29.6915 6.37612 30.7732 7.37953C30.8857 7.48381 31.0108 7.59997 31.1507 7.73122C31.5384 8.09509 31.6339 8.63682 31.394 9.11137C31.3074 9.28253 31.2295 9.43449 31.1596 9.57092C30.4864 10.8838 30.4624 11.0199 30.646 12.4839C30.665 12.636 30.6863 12.8054 30.709 12.9958C30.7722 13.5238 30.4971 14.0002 30.0083 14.2095C29.8321 14.285 29.6747 14.3513 29.5333 14.4109C28.1737 14.9838 28.0678 15.0727 27.2674 16.3121C27.1843 16.4409 27.0916 16.5844 26.9867 16.7449C26.6957 17.1898 26.1789 17.3779 25.6697 17.2242C25.4861 17.1687 25.323 17.1184 25.1765 17.0732C23.7668 16.6382 23.6285 16.6381 22.2185 17.0732C22.0721 17.1184 21.9089 17.1687 21.7253 17.2242C21.2165 17.378 20.6994 17.1899 20.4084 16.7449C20.3034 16.5844 20.2107 16.4409 20.1275 16.3121C19.3272 15.0727 19.2213 14.9838 17.8617 14.4109C17.7204 14.3513 17.5631 14.285 17.3867 14.2095C16.8979 14.0002 16.6229 13.5238 16.686 12.9958C16.7088 12.8053 16.73 12.6358 16.7492 12.4837C16.9327 11.0198 16.9087 10.8837 16.2355 9.57077C16.1655 9.43434 16.0876 9.28246 16.0011 9.1113C15.7612 8.6369 15.8567 8.09516 16.2444 7.73129ZM23.6974 15.1395C26.7784 15.1395 29.285 12.6329 29.285 9.55188C29.285 6.47088 26.7784 3.96436 23.6974 3.96436C20.6164 3.96436 18.1099 6.47095 18.1099 9.55188C18.1099 12.6329 20.6165 15.1395 23.6974 15.1395ZM23.6974 5.18304C26.1063 5.18304 28.0662 7.14286 28.0662 9.5518C28.0662 11.9607 26.1064 13.9206 23.6974 13.9206C21.2884 13.9206 19.3286 11.9608 19.3286 9.5518C19.3286 7.14279 21.2885 5.18304 23.6974 5.18304ZM22.1462 11.7112L20.5779 10.1429C20.3399 9.90493 20.34 9.51912 20.5779 9.28116C20.816 9.04312 21.2019 9.0432 21.4397 9.28116L22.5974 10.439L25.9765 7.37229C26.2258 7.14606 26.6111 7.1648 26.8374 7.41404C27.0635 7.66327 27.0449 8.0487 26.7956 8.27485L22.9866 11.7316C22.8701 11.8373 22.7235 11.8897 22.5771 11.8897C22.4208 11.8897 22.2648 11.8299 22.1462 11.7112Z" fill="white"/>
</svg>
