<svg width="34" height="34" viewBox="0 0 34 34" fill="none" xmlns="http://www.w3.org/2000/svg">
<g clip-path="url(#clip0_30_22398)">
<path d="M33.3739 16.2406C33.0237 15.8606 32.5447 15.6245 32.03 15.5782C31.5154 15.5318 31.0019 15.6786 30.5895 15.9898L23.9675 20.9637C23.8075 20.878 23.6367 20.8143 23.4597 20.7742L14.4288 18.7211C13.7124 18.5499 12.9676 18.5347 12.2449 18.6765C11.5221 18.8184 10.8383 19.1141 10.2398 19.5434L5.86367 22.6099L5.53031 22.1081C5.45235 21.9907 5.33097 21.9091 5.19286 21.8813C5.05475 21.8534 4.91123 21.8815 4.79386 21.9595L0.237329 24.9858C0.119964 25.0638 0.0383711 25.1852 0.0105 25.3233C-0.017371 25.4614 0.0107624 25.6049 0.0887115 25.7223L5.37226 33.6771C5.45021 33.7944 5.57159 33.876 5.7097 33.9039C5.84781 33.9318 5.99134 33.9036 6.1087 33.8257L10.6648 30.7993C10.7822 30.7213 10.8638 30.6 10.8917 30.4618C10.9195 30.3237 10.8914 30.1802 10.8135 30.0628L10.4762 29.5551L12.661 27.8894L21.7573 29.1563C22.1999 29.2226 22.6519 29.1834 23.0764 29.0418C23.5009 28.9002 23.8859 28.6602 24.2001 28.3415L33.3841 19.2147C33.7693 18.8345 33.9911 18.3191 34.0024 17.778C34.0136 17.2369 33.8134 16.7127 33.4443 16.3169L33.3739 16.2406ZM5.96327 32.6467L1.26769 25.577L4.93896 23.1385L9.63474 30.2083L5.96327 32.6467ZM32.6354 18.461L23.4515 27.5879C23.2536 27.7913 23.0099 27.9443 22.7406 28.0341C22.4714 28.1239 22.1846 28.1479 21.9042 28.104L12.5887 26.8067C12.5192 26.797 12.4485 26.8012 12.3806 26.819C12.3128 26.8368 12.2491 26.8678 12.1933 26.9103L9.88735 28.6682L6.45143 23.4952L10.8497 20.4134C11.8625 19.7037 12.9875 19.4829 14.1932 19.7571L23.2245 21.8105C23.4714 21.8674 23.6859 22.0198 23.8209 22.2343C23.9559 22.4488 24.0006 22.708 23.9452 22.9553L23.9345 23.0018C23.878 23.2463 23.7279 23.459 23.5165 23.5943C23.3051 23.7296 23.0491 23.7767 22.8034 23.7256L16.3698 22.3612C16.232 22.332 16.0882 22.3587 15.97 22.4355C15.8519 22.5123 15.7691 22.6328 15.7399 22.7707C15.7107 22.9085 15.7374 23.0523 15.8142 23.1704C15.891 23.2886 16.0116 23.3713 16.1494 23.4006L22.5826 24.7649C23.1013 24.8727 23.6415 24.7732 24.0877 24.4878C24.534 24.2024 24.8508 23.7536 24.9703 23.2375L24.9809 23.1911C25.0971 22.6851 25.0124 22.1538 24.7447 21.709L31.2276 16.8394C31.43 16.6867 31.6821 16.6146 31.9347 16.6374C32.1873 16.6602 32.4224 16.7761 32.5942 16.9626L32.665 17.0389C32.8461 17.2332 32.9443 17.4904 32.9388 17.756C32.9332 18.0215 32.8244 18.2744 32.6354 18.461ZM17.3697 7.4221C17.29 7.5919 17.2179 7.76549 17.1541 7.9416L15.6464 8.32602C15.532 8.35518 15.4305 8.42162 15.3581 8.51484C15.2857 8.60806 15.2463 8.72275 15.2463 8.8408V11.1942C15.2463 11.3122 15.2857 11.4269 15.3581 11.5201C15.4305 11.6133 15.5319 11.6798 15.6463 11.709L17.1525 12.0931C17.2155 12.2676 17.2863 12.439 17.365 12.6074L16.5681 13.9496C16.5078 14.0511 16.4831 14.1698 16.4978 14.287C16.5125 14.4041 16.5658 14.513 16.6493 14.5964L18.3134 16.2606C18.3969 16.344 18.5057 16.3973 18.6229 16.412C18.74 16.4267 18.8587 16.402 18.9602 16.3417L20.2967 15.5484C20.4649 15.6281 20.6364 15.6997 20.8112 15.7632L21.1964 17.2741C21.2256 17.3885 21.292 17.49 21.3852 17.5624C21.4784 17.6348 21.5931 17.6742 21.7112 17.6742H24.065C24.183 17.6742 24.2977 17.6348 24.3909 17.5624C24.4841 17.49 24.5506 17.3886 24.5797 17.2742L24.962 15.7751C25.1396 15.7115 25.3141 15.6398 25.4855 15.5598L26.8203 16.3522C26.9218 16.4125 27.0405 16.4372 27.1576 16.4225C27.2747 16.4078 27.3836 16.3545 27.4671 16.271L29.1312 14.6069C29.2146 14.5235 29.2679 14.4146 29.2827 14.2974C29.2974 14.1803 29.2726 14.0616 29.2124 13.9601L28.4267 12.6366C28.5091 12.4629 28.5833 12.2854 28.6488 12.1053L30.1448 11.7238C30.2592 11.6947 30.3606 11.6282 30.433 11.535C30.5054 11.4418 30.5447 11.3272 30.5447 11.2091V8.85555C30.5447 8.7375 30.5054 8.62281 30.433 8.5296C30.3606 8.43638 30.2592 8.36994 30.1448 8.34076L28.6593 7.96225C28.5938 7.77954 28.5198 7.60007 28.4371 7.42383L29.2227 6.10042C29.283 5.99891 29.3077 5.88022 29.293 5.7631C29.2783 5.64598 29.225 5.53709 29.1415 5.45362L27.4776 3.78921C27.3941 3.70574 27.2852 3.65245 27.1681 3.63774C27.051 3.62303 26.9323 3.64775 26.8308 3.708L25.5113 4.49159C25.3361 4.40878 25.1569 4.33428 24.9751 4.26867L24.5944 2.77586C24.5652 2.66147 24.4988 2.56006 24.4056 2.48763C24.3124 2.4152 24.1977 2.37589 24.0796 2.37589H21.7263C21.6082 2.37589 21.4935 2.4152 21.4003 2.48763C21.3071 2.56006 21.2407 2.66147 21.2115 2.77586L20.8308 4.2686C20.6515 4.33332 20.4752 4.40637 20.3019 4.48774L18.9708 3.69751C18.8693 3.63726 18.7506 3.61254 18.6335 3.62725C18.5164 3.64195 18.4075 3.69525 18.324 3.77872L16.6599 5.44286C16.5765 5.52634 16.5232 5.63523 16.5085 5.75235C16.4938 5.86947 16.5185 5.98816 16.5788 6.08966L17.3697 7.4221ZM18.4314 7.12918L17.7031 5.90226L18.7834 4.82196L20.0092 5.54958C20.0877 5.5962 20.1769 5.6218 20.2682 5.62389C20.3595 5.62598 20.4498 5.60451 20.5304 5.56153C20.8171 5.40856 21.118 5.28376 21.4288 5.18886C21.5161 5.16225 21.5951 5.11359 21.6582 5.04757C21.7212 4.98155 21.7662 4.90039 21.7887 4.81194L22.139 3.43812H23.6672L24.0174 4.81194C24.04 4.90039 24.0849 4.98155 24.148 5.04757C24.211 5.11359 24.29 5.16225 24.3773 5.18886C24.6903 5.28445 24.9933 5.4104 25.2818 5.56492C25.3624 5.60806 25.4528 5.62966 25.5443 5.62763C25.6357 5.62559 25.725 5.59999 25.8037 5.5533L27.0182 4.83239L28.0985 5.91269L27.3756 7.13044C27.3291 7.2089 27.3035 7.29802 27.3014 7.38923C27.2992 7.48044 27.3206 7.57066 27.3635 7.6512C27.5174 7.94066 27.6427 8.24447 27.7376 8.55831C27.764 8.64593 27.8126 8.72522 27.8787 8.78852C27.9449 8.85181 28.0262 8.89695 28.1149 8.91956L29.4824 9.26833V10.7961L28.1062 11.147C28.018 11.1695 27.937 11.2143 27.8711 11.2771C27.8052 11.3399 27.7565 11.4186 27.7297 11.5056C27.6337 11.8171 27.5077 12.1186 27.3533 12.4057C27.31 12.4864 27.2882 12.5769 27.2901 12.6685C27.2921 12.7601 27.3177 12.8496 27.3644 12.9284L28.0882 14.1474L27.0079 15.2278L25.7794 14.4985C25.7012 14.452 25.6123 14.4265 25.5213 14.4242C25.4303 14.422 25.3403 14.4432 25.2599 14.4857C24.9743 14.6367 24.6748 14.7598 24.3656 14.8534C24.278 14.8798 24.1987 14.9285 24.1355 14.9945C24.0722 15.0606 24.0271 15.142 24.0045 15.2306L23.6525 16.6119H22.1244L21.7698 15.221C21.7473 15.1328 21.7025 15.052 21.6398 14.9861C21.5771 14.9202 21.4985 14.8715 21.4116 14.8447C21.1054 14.7499 20.8089 14.6261 20.5262 14.4749C20.4456 14.4318 20.3553 14.4102 20.2639 14.4123C20.1725 14.4143 20.0832 14.4399 20.0045 14.4865L18.773 15.2174L17.6927 14.137L18.4265 12.9009C18.473 12.8225 18.4986 12.7336 18.5008 12.6425C18.503 12.5514 18.4817 12.4613 18.439 12.3809C18.289 12.0978 18.1664 11.8012 18.0728 11.4949C18.0462 11.4076 17.9975 11.3287 17.9315 11.2656C17.8655 11.2026 17.7844 11.1577 17.696 11.1351L16.3088 10.7814V9.25358L17.6973 8.89957C17.7857 8.87705 17.8668 8.83215 17.9328 8.76921C17.9988 8.70626 18.0474 8.62739 18.0741 8.54018C18.1684 8.23242 18.2921 7.93444 18.4435 7.65034C18.4864 7.56976 18.5079 7.47947 18.5058 7.38819C18.5037 7.2969 18.4781 7.2077 18.4314 7.12918ZM22.8956 13.2433C23.5321 13.2433 24.1544 13.0545 24.6836 12.7009C25.2129 12.3472 25.6254 11.8446 25.869 11.2565C26.1126 10.6684 26.1763 10.0213 26.0521 9.39702C25.928 8.77271 25.6214 8.19925 25.1713 7.74916C24.7212 7.29906 24.1478 6.99254 23.5235 6.86835C22.8992 6.74417 22.2521 6.80791 21.664 7.0515C21.0759 7.29509 20.5733 7.7076 20.2196 8.23686C19.866 8.76612 19.6772 9.38836 19.6772 10.0249C19.6782 10.8782 20.0176 11.6962 20.6209 12.2996C21.2243 12.9029 22.0423 13.2423 22.8956 13.2433ZM22.8956 7.86901C23.322 7.86901 23.7388 7.99545 24.0934 8.23235C24.4479 8.46924 24.7242 8.80594 24.8874 9.19987C25.0506 9.59381 25.0932 10.0273 25.0101 10.4455C24.9269 10.8637 24.7215 11.2478 24.42 11.5493C24.1185 11.8508 23.7344 12.0562 23.3162 12.1393C22.898 12.2225 22.4645 12.1798 22.0706 12.0167C21.6767 11.8535 21.34 11.5772 21.1031 11.2226C20.8662 10.8681 20.7397 10.4513 20.7397 10.0249C20.7404 9.45334 20.9678 8.90539 21.3719 8.50126C21.7761 8.09714 22.3241 7.86983 22.8956 7.86921V7.86901ZM4.37617 14.5466L5.28002 14.7771C5.30309 14.8368 5.32744 14.8959 5.35307 14.9545L4.87494 15.7603C4.81467 15.8618 4.78993 15.9805 4.80463 16.0977C4.81932 16.2148 4.87261 16.3237 4.95609 16.4072L6.05565 17.5067C6.13912 17.5901 6.24801 17.6434 6.36513 17.6581C6.48226 17.6728 6.60094 17.6481 6.70244 17.5878L7.5039 17.1119C7.56265 17.138 7.6219 17.1627 7.68167 17.1861L7.91303 18.0935C7.94219 18.2078 8.00862 18.3093 8.10184 18.3817C8.19506 18.4542 8.30975 18.4935 8.42781 18.4935H9.98271C10.1008 18.4935 10.2154 18.4542 10.3087 18.3817C10.4019 18.3093 10.4683 18.2079 10.4975 18.0935L10.7267 17.1946C10.7883 17.1709 10.8494 17.1458 10.91 17.1191L11.7112 17.5948C11.8127 17.6551 11.9314 17.6798 12.0486 17.6651C12.1657 17.6504 12.2746 17.5971 12.3581 17.5136L13.4575 16.4141C13.541 16.3306 13.5943 16.2218 13.609 16.1046C13.6237 15.9875 13.5989 15.8688 13.5387 15.7673L13.0679 14.9742C13.0958 14.9119 13.1221 14.8489 13.147 14.7852L14.0443 14.5564C14.1587 14.5272 14.2601 14.4608 14.3325 14.3676C14.405 14.2743 14.4443 14.1597 14.4443 14.0416V12.4866C14.4443 12.3686 14.4049 12.2539 14.3325 12.1607C14.2601 12.0675 14.1587 12.0011 14.0443 11.9719L13.1545 11.7449C13.1294 11.6799 13.1029 11.6154 13.0748 11.5515L13.5456 10.7579C13.6059 10.6564 13.6306 10.5377 13.6159 10.4206C13.6012 10.3035 13.5479 10.1946 13.4645 10.1111L12.3648 9.01187C12.2814 8.92836 12.1724 8.87505 12.0553 8.86034C11.9381 8.84563 11.8194 8.87037 11.7179 8.93065L10.9277 9.39994C10.8642 9.37174 10.8001 9.34518 10.7355 9.32026L10.5073 8.4253C10.4781 8.3109 10.4117 8.20947 10.3184 8.13704C10.2252 8.0646 10.1105 8.02527 9.99247 8.02527H8.43757C8.31952 8.02527 8.20484 8.06458 8.11162 8.13701C8.0184 8.20944 7.95196 8.31085 7.92279 8.42523L7.69455 9.32026C7.6316 9.34461 7.5692 9.37048 7.50735 9.39789L6.70908 8.92394C6.60761 8.86363 6.48893 8.83884 6.3718 8.85347C6.25466 8.86811 6.14574 8.92134 6.06222 9.00476L4.96273 10.1044C4.87927 10.1879 4.82599 10.2968 4.81129 10.4139C4.7966 10.5311 4.82133 10.6497 4.88158 10.7512L5.35606 11.5506C5.32949 11.6103 5.30446 11.6706 5.28095 11.7314L4.37617 11.9622C4.26178 11.9913 4.16037 12.0578 4.08794 12.151C4.01551 12.2442 3.9762 12.3589 3.9762 12.4769V14.0317C3.97617 14.1498 4.01547 14.2645 4.0879 14.3577C4.16033 14.451 4.26176 14.5174 4.37617 14.5466ZM5.0385 12.8895L5.82017 12.6903C5.90852 12.6678 5.98958 12.6229 6.05556 12.56C6.12154 12.497 6.17021 12.4182 6.19689 12.331C6.25584 12.1387 6.33311 11.9524 6.42765 11.7749C6.47057 11.6943 6.49201 11.6041 6.48991 11.5128C6.4878 11.4216 6.46222 11.3324 6.41563 11.2539L6.00591 10.5638L6.52162 10.0481L7.21105 10.4573C7.28957 10.5039 7.37877 10.5295 7.47006 10.5316C7.56135 10.5337 7.65163 10.5122 7.7322 10.4693C7.91135 10.3737 8.09934 10.2957 8.29354 10.2364C8.38087 10.2098 8.45988 10.1611 8.52293 10.0951C8.58599 10.0291 8.63096 9.94794 8.65353 9.85948L8.85035 9.0875H9.57969L9.77652 9.85948C9.79908 9.94793 9.84404 10.0291 9.90709 10.0951C9.97013 10.1611 10.0491 10.2098 10.1364 10.2364C10.332 10.2961 10.5213 10.3748 10.7016 10.4713C10.7823 10.5145 10.8727 10.5361 10.9641 10.5341C11.0555 10.5321 11.1449 10.5065 11.2235 10.4598L11.9056 10.0547L12.4213 10.5704L12.0151 11.2544C11.9686 11.3329 11.943 11.422 11.9409 11.5132C11.9387 11.6044 11.9601 11.6946 12.003 11.7752C12.0992 11.956 12.1775 12.1458 12.2367 12.3419C12.2632 12.4296 12.3118 12.5089 12.3779 12.5721C12.444 12.6354 12.5254 12.6806 12.6141 12.7032L13.3819 12.899V13.6283L12.6083 13.8259C12.5201 13.8484 12.4391 13.8932 12.3732 13.956C12.3073 14.0187 12.2586 14.0974 12.2318 14.1844C12.1718 14.3791 12.0931 14.5674 11.9966 14.7468C11.9533 14.8275 11.9315 14.918 11.9335 15.0096C11.9354 15.1012 11.961 15.1907 12.0078 15.2695L12.4144 15.9545L11.8987 16.4702L11.2074 16.0599C11.1292 16.0134 11.0403 15.9879 10.9493 15.9856C10.8583 15.9834 10.7683 16.0046 10.6879 16.0471C10.5094 16.1415 10.3223 16.2184 10.1291 16.2768C10.0416 16.3033 9.96229 16.3519 9.89902 16.418C9.83576 16.4841 9.79063 16.5654 9.76802 16.6541L9.57 17.431H8.84066L8.64097 16.6478C8.61849 16.5596 8.57375 16.4787 8.51103 16.4128C8.44831 16.3469 8.36972 16.2982 8.28278 16.2714C8.09144 16.2122 7.90621 16.1349 7.72962 16.0404C7.64901 15.9973 7.55866 15.9758 7.46728 15.9778C7.3759 15.9798 7.2866 16.0054 7.20799 16.0521L6.51478 16.4638L5.999 15.9481L6.41238 15.2518C6.4589 15.1734 6.48448 15.0844 6.48666 14.9933C6.48885 14.9023 6.46757 14.8121 6.42486 14.7316C6.33117 14.5548 6.25457 14.3695 6.19609 14.1781C6.16946 14.0909 6.1208 14.0119 6.05479 13.9489C5.98878 13.8859 5.90766 13.841 5.81924 13.8184L5.0385 13.6192V12.8895ZM9.21014 15.5657C9.66636 15.5657 10.1123 15.4304 10.4917 15.1769C10.871 14.9235 11.1667 14.5632 11.3413 14.1417C11.5158 13.7202 11.5615 13.2564 11.4725 12.809C11.3835 12.3615 11.1638 11.9505 10.8412 11.6279C10.5186 11.3053 10.1076 11.0856 9.66011 10.9966C9.21266 10.9076 8.74886 10.9533 8.32736 11.1279C7.90587 11.3025 7.54562 11.5982 7.29217 11.9775C7.03872 12.3569 6.90344 12.8029 6.90345 13.2591C6.90414 13.8706 7.14739 14.4569 7.57983 14.8894C8.01227 15.3218 8.59859 15.565 9.21014 15.5657ZM9.21014 12.0149C9.45622 12.0149 9.69677 12.0879 9.90138 12.2246C10.106 12.3613 10.2655 12.5556 10.3596 12.7829C10.4538 13.0103 10.4784 13.2605 10.4304 13.5018C10.3824 13.7432 10.2639 13.9648 10.0899 14.1388C9.91591 14.3129 9.69422 14.4314 9.45287 14.4794C9.21152 14.5274 8.96136 14.5027 8.73401 14.4086C8.50667 14.3144 8.31235 14.1549 8.17564 13.9503C8.03893 13.7457 7.96595 13.5052 7.96595 13.2591C7.96638 12.9292 8.0976 12.613 8.33085 12.3798C8.56409 12.1466 8.88031 12.0155 9.21014 12.0151V12.0149ZM8.84723 5.03759L9.40504 5.17989L9.10934 5.67794C9.04907 5.77945 9.02433 5.89815 9.03902 6.01528C9.05372 6.13242 9.10701 6.24133 9.19049 6.3248L9.97474 7.10906C10.0582 7.19255 10.1671 7.24585 10.2843 7.26056C10.4014 7.27527 10.5201 7.25054 10.6216 7.19028L11.1169 6.89623L11.26 7.45763C11.2892 7.57203 11.3557 7.67344 11.4489 7.74587C11.5421 7.8183 11.6568 7.85761 11.7749 7.85759H12.8839C13.0019 7.85759 13.1166 7.81827 13.2098 7.74583C13.3031 7.67339 13.3695 7.57196 13.3987 7.45756L13.541 6.89942L14.039 7.19519C14.1405 7.25545 14.2592 7.28018 14.3764 7.26548C14.4935 7.25077 14.6024 7.19746 14.6859 7.11398L15.4702 6.32972C15.5537 6.24624 15.607 6.13733 15.6217 6.0202C15.6364 5.90306 15.6116 5.78437 15.5513 5.68285L15.2573 5.18753L15.8187 5.04443C15.9331 5.01525 16.0345 4.94881 16.1069 4.8556C16.1793 4.76238 16.2187 4.64769 16.2187 4.52964V3.42066C16.2187 3.30261 16.1793 3.18793 16.1069 3.09471C16.0345 3.00149 15.9331 2.93505 15.8187 2.90588L15.2605 2.76357L15.5563 2.26552C15.6165 2.16401 15.6412 2.04533 15.6265 1.9282C15.6118 1.81108 15.5585 1.70219 15.475 1.61873L14.6908 0.834402C14.6073 0.750941 14.4984 0.697658 14.3813 0.682963C14.2642 0.668269 14.1455 0.693 14.044 0.753254L13.5487 1.04723L13.4055 0.485902C13.3763 0.371516 13.3099 0.270105 13.2167 0.197678C13.1234 0.125251 13.0088 0.0859356 12.8907 0.0859375H11.7817C11.6637 0.0859356 11.549 0.125251 11.4558 0.197678C11.3626 0.270105 11.2961 0.371516 11.2669 0.485902L11.1246 1.04405L10.6266 0.74834C10.5251 0.688086 10.4064 0.663355 10.2893 0.678049C10.1722 0.692744 10.0633 0.746027 9.97979 0.829488L9.19573 1.61375C9.11226 1.69721 9.05896 1.8061 9.04426 1.92322C9.02955 2.04035 9.05427 2.15903 9.11452 2.26054L9.40856 2.75587L8.84723 2.89904C8.73283 2.9282 8.63141 2.99463 8.55897 3.08785C8.48653 3.18107 8.4472 3.29576 8.4472 3.41382V4.5228C8.4472 4.64086 8.48653 4.75555 8.55897 4.84877C8.63141 4.94199 8.73283 5.00843 8.84723 5.03759ZM9.5097 3.82647L9.95263 3.71358C10.041 3.69104 10.1221 3.64614 10.188 3.5832C10.254 3.52025 10.3027 3.44139 10.3294 3.35419C10.3686 3.22636 10.42 3.10258 10.4828 2.98457C10.5257 2.90401 10.5472 2.81376 10.545 2.72251C10.5429 2.63126 10.5173 2.5421 10.4707 2.46361L10.2389 2.07308L10.4395 1.87253L10.8295 2.10409C10.908 2.15069 10.9972 2.17627 11.0885 2.17835C11.1798 2.18043 11.27 2.15895 11.3506 2.11598C11.4697 2.05246 11.5947 2.00062 11.7238 1.96118C11.8111 1.93457 11.8901 1.88591 11.9531 1.81989C12.0162 1.75387 12.0611 1.67272 12.0837 1.58426L12.1948 1.1483H12.4785L12.5896 1.58426C12.6122 1.67267 12.6571 1.75378 12.7201 1.81979C12.783 1.88579 12.862 1.93446 12.9492 1.96112C13.0793 2.00084 13.2051 2.05315 13.325 2.1173C13.4056 2.16045 13.496 2.18205 13.5874 2.18003C13.6788 2.17801 13.7682 2.15242 13.8468 2.10575L14.2316 1.87738L14.4321 2.07793L14.2028 2.46421C14.1563 2.54268 14.1307 2.63182 14.1286 2.72304C14.1264 2.81426 14.1479 2.90449 14.1907 2.98503C14.2547 3.10522 14.3067 3.23137 14.3461 3.36169C14.3726 3.44931 14.4212 3.5286 14.4873 3.5919C14.5534 3.65519 14.6348 3.70033 14.7235 3.72294L15.1564 3.83337V4.11726L14.7193 4.22869C14.6311 4.25119 14.5501 4.29598 14.4842 4.35877C14.4183 4.42157 14.3696 4.50026 14.3428 4.58729C14.3029 4.71661 14.2506 4.84176 14.1865 4.96095C14.1431 5.04165 14.1213 5.13219 14.1233 5.22379C14.1252 5.31538 14.1508 5.40492 14.1976 5.4837L14.4273 5.87059L14.2267 6.07113L13.8355 5.83871C13.7572 5.79224 13.6683 5.76665 13.5773 5.76441C13.4863 5.76217 13.3963 5.78334 13.3158 5.82589C13.1972 5.88862 13.0729 5.93976 12.9444 5.97863C12.8568 6.00509 12.7776 6.05373 12.7143 6.11982C12.6511 6.18591 12.6059 6.26723 12.5833 6.35588L12.4713 6.79529H12.1877L12.0744 6.35123C12.052 6.26309 12.0072 6.1822 11.9445 6.11631C11.8818 6.05042 11.8032 6.00173 11.7163 5.97491C11.5892 5.93548 11.4662 5.88402 11.3488 5.82125C11.2682 5.77815 11.1778 5.75658 11.0864 5.75862C10.9951 5.76067 10.9057 5.78627 10.8271 5.83293L10.4344 6.06602L10.2339 5.86554L10.4683 5.47062C10.5149 5.39227 10.5405 5.30328 10.5427 5.21218C10.5449 5.12109 10.5236 5.03096 10.4809 4.95046C10.4186 4.83294 10.3676 4.70973 10.3288 4.5825C10.3021 4.49524 10.2534 4.41631 10.1874 4.35331C10.1214 4.29032 10.0403 4.24539 9.9519 4.22285L9.50963 4.10996L9.5097 3.82647ZM12.3332 5.76938C12.6888 5.76937 13.0363 5.66393 13.332 5.46639C13.6276 5.26885 13.858 4.98808 13.994 4.6596C14.1301 4.33111 14.1657 3.96966 14.0963 3.62095C14.0269 3.27224 13.8557 2.95193 13.6043 2.70052C13.3529 2.44912 13.0326 2.27791 12.6838 2.20855C12.3351 2.13919 11.9737 2.1748 11.6452 2.31086C11.3167 2.44693 11.036 2.67734 10.8384 2.97297C10.6409 3.26859 10.5355 3.61615 10.5355 3.9717C10.536 4.44833 10.7256 4.90529 11.0626 5.24231C11.3996 5.57934 11.8566 5.76889 12.3332 5.76938ZM12.3332 3.23652C12.4786 3.23653 12.6208 3.27966 12.7417 3.36045C12.8625 3.44124 12.9568 3.55606 13.0124 3.6904C13.068 3.82474 13.0826 3.97256 13.0542 4.11517C13.0258 4.25777 12.9558 4.38876 12.853 4.49158C12.7502 4.59439 12.6192 4.6644 12.4766 4.69276C12.334 4.72112 12.1861 4.70656 12.0518 4.65091C11.9175 4.59527 11.8027 4.50104 11.7219 4.38014C11.6411 4.25924 11.598 4.1171 11.598 3.9717C11.5982 3.77677 11.6757 3.5899 11.8136 3.45207C11.9514 3.31425 12.1383 3.23673 12.3332 3.23652Z" fill="#FF7B02"/>
<path d="M33.3739 16.2382C33.0237 15.8583 32.5447 15.6222 32.03 15.5758C31.5154 15.5295 31.0019 15.6762 30.5895 15.9875L23.9675 20.9613C23.8075 20.8756 23.6367 20.8119 23.4597 20.7718L14.4288 18.7188C13.7124 18.5475 12.9676 18.5323 12.2449 18.6742C11.5221 18.8161 10.8383 19.1117 10.2398 19.5411L5.86367 22.6076L5.53031 22.1057C5.45235 21.9884 5.33097 21.9068 5.19286 21.8789C5.05475 21.851 4.91123 21.8792 4.79386 21.9571L0.237329 24.9835C0.119964 25.0614 0.0383711 25.1828 0.0105 25.3209C-0.017371 25.459 0.0107625 25.6025 0.0887115 25.7199L5.37226 33.6747C5.45021 33.7921 5.57159 33.8737 5.7097 33.9015C5.84781 33.9294 5.99134 33.9013 6.1087 33.8233L10.6648 30.7969C10.7822 30.719 10.8638 30.5976 10.8917 30.4595C10.9195 30.3214 10.8914 30.1778 10.8135 30.0605L10.4762 29.5527L12.661 27.8871L21.7573 29.1539C22.1999 29.2202 22.6519 29.181 23.0764 29.0394C23.5009 28.8978 23.8859 28.6579 24.2001 28.3392L33.3841 19.2123C33.7693 18.8321 33.9911 18.3167 34.0024 17.7756C34.0136 17.2345 33.8134 16.7104 33.4443 16.3145L33.3739 16.2382ZM5.96327 32.6443L1.26769 25.5746L4.93896 23.1361L9.63474 30.2059L5.96327 32.6443ZM32.6354 18.4586L23.4515 27.5855C23.2536 27.7889 23.0099 27.942 22.7406 28.0318C22.4714 28.1216 22.1846 28.1455 21.9042 28.1016L12.5887 26.8043C12.5192 26.7946 12.4485 26.7988 12.3806 26.8166C12.3128 26.8344 12.2491 26.8654 12.1933 26.908L9.88735 28.6659L6.45143 23.4928L10.8497 20.411C11.8625 19.7013 12.9875 19.4806 14.1932 19.7547L23.2245 21.8081C23.4714 21.865 23.6859 22.0174 23.8209 22.2319C23.9559 22.4464 24.0006 22.7056 23.9452 22.953L23.9345 22.9994C23.878 23.244 23.7279 23.4566 23.5165 23.5919C23.3051 23.7272 23.0491 23.7743 22.8034 23.7233L16.3698 22.3588C16.232 22.3296 16.0882 22.3563 15.97 22.4331C15.8519 22.5099 15.7691 22.6305 15.7399 22.7683C15.7107 22.9061 15.7374 23.0499 15.8142 23.1681C15.891 23.2862 16.0116 23.369 16.1494 23.3982L22.5826 24.7625C23.1013 24.8703 23.6415 24.7709 24.0877 24.4854C24.534 24.2 24.8508 23.7512 24.9703 23.2352L24.9809 23.1887C25.0971 22.6827 25.0124 22.1514 24.7447 21.7066L31.2276 16.8371C31.43 16.6843 31.6821 16.6123 31.9347 16.635C32.1873 16.6578 32.4224 16.7737 32.5942 16.9602L32.665 17.0366C32.8461 17.2308 32.9443 17.4881 32.9388 17.7536C32.9332 18.0191 32.8244 18.2721 32.6354 18.4586Z" fill="white"/>
</g>
<defs>
<clipPath id="clip0_30_22398">
<rect width="34" height="34" fill="white"/>
</clipPath>
</defs>
</svg>
