<svg width="33" height="33" viewBox="0 0 33 33" fill="none" xmlns="http://www.w3.org/2000/svg">
<path d="M22.1059 5.90919L20.3347 5.32159L19.7472 3.55035C19.7203 3.46897 19.6442 3.41406 19.5586 3.41406C19.4729 3.41406 19.3969 3.46897 19.3698 3.55035L18.7825 5.32159L17.0111 5.90919C16.9298 5.93599 16.875 6.01215 16.875 6.09762C16.875 6.18336 16.9298 6.25932 17.0111 6.28638L18.7825 6.87391L19.3698 8.64522C19.3969 8.72654 19.4729 8.78138 19.5586 8.78138C19.6442 8.78138 19.7203 8.72654 19.7472 8.64522L20.3347 6.87391L22.1059 6.28638C22.1872 6.25932 22.2423 6.18329 22.2423 6.09762C22.2423 6.01209 22.1873 5.93599 22.1059 5.90919Z" fill="#FF7B02"/>
<path d="M27.6629 3.60735L26.6079 3.25735L26.2579 2.20227C26.2419 2.15383 26.1965 2.12109 26.1455 2.12109C26.0944 2.12109 26.0492 2.15383 26.0332 2.20227L25.6832 3.25735L24.628 3.60735C24.5795 3.62332 24.5469 3.66866 24.5469 3.71961C24.5469 3.77063 24.5795 3.81597 24.628 3.83214L25.6832 4.18214L26.0332 5.23709C26.0492 5.28566 26.0944 5.31833 26.1455 5.31833C26.1965 5.31833 26.2419 5.28566 26.2579 5.23709L26.6079 4.18214L27.6629 3.83214C27.7114 3.81597 27.7441 3.77063 27.7441 3.71961C27.7441 3.66866 27.7114 3.62332 27.6629 3.60735Z" fill="#FF7B02"/>
<path d="M13.6665 18.6829L8.80892 13.8253L11.152 11.4821L16.0877 16.4178L17.0522 15.5156L11.8034 10.2667C11.7712 10.1855 11.7224 10.1095 11.6568 10.0438C11.5911 9.97824 11.5151 9.92959 11.434 9.89732L9.90419 8.36751C9.37243 7.83574 8.6655 7.54297 7.9135 7.54297C7.16156 7.54297 6.45463 7.83581 5.923 8.36744L5.69425 8.59613C4.59667 9.69391 4.59673 11.4799 5.69431 12.5774L12.7019 19.5851L13.6665 18.6829ZM6.62768 11.6441C6.04477 11.0612 6.04477 10.1126 6.62768 9.52963L6.85637 9.30094C7.13879 9.01853 7.5142 8.86304 7.91356 8.86304C8.31293 8.86304 8.6884 9.01847 8.97088 9.30101L10.2186 10.5487L7.87555 12.8919L6.62768 11.6441Z" fill="white"/>
<path d="M27.4996 29.1055C27.2375 28.3179 25.8839 24.3432 24.9779 23.4371L24.972 23.4311C24.9398 23.35 24.8911 23.274 24.8254 23.2083C24.7598 23.1427 24.6838 23.0941 24.6026 23.0618L21.3924 19.8516L20.5311 20.8571L23.3872 23.7131L21.044 26.0563L18.369 23.3813L17.5078 24.3868L20.7679 27.647C21.6741 28.553 25.6486 29.9063 26.4362 30.1684C26.5045 30.1912 26.5748 30.2022 26.6445 30.2022C26.8167 30.2022 26.9853 30.1348 27.1111 30.0091L27.3397 29.7807C27.5167 29.6042 27.5786 29.3427 27.4996 29.1055ZM22.0216 26.9458L24.2766 24.6907C24.7312 25.4449 25.4071 27.136 25.9277 28.5967C24.4671 28.0762 22.7759 27.4003 22.0216 26.9458Z" fill="white"/>
<path d="M27.3329 8.2159L27.2036 8.08681C26.8529 7.73615 26.3831 7.54297 25.8812 7.54297C25.3758 7.54297 24.9013 7.73701 24.5434 8.08971L10.086 21.4296C10.0795 21.4356 10.0732 21.4418 10.0669 21.448C9.7677 21.7471 9.60732 22.126 9.60138 22.5448C9.42483 22.5081 9.24049 22.4864 9.04942 22.4864C8.29385 22.4864 7.61273 22.8106 7.02507 23.4498C6.28052 24.2598 5.97316 25.1539 5.7021 25.9428C5.29976 27.1136 4.9819 28.0385 3.41269 28.7082C3.21106 28.7943 3.0654 28.9748 3.02375 29.19C2.9821 29.4052 3.05002 29.627 3.20505 29.7819C3.72196 30.2989 5.10288 30.4824 6.12826 30.4824C7.46978 30.4824 10.0094 30.1932 11.9452 28.2573C12.4975 27.705 12.7767 27.0599 12.7751 26.3397C12.7747 26.1577 12.7551 25.9799 12.7217 25.8078C12.7657 25.8112 12.8099 25.8136 12.8543 25.8136C13.2842 25.8136 13.6729 25.6521 13.9784 25.3467C13.9846 25.3404 13.9908 25.3341 13.9968 25.3275L27.3303 10.8764C28.06 10.1359 28.0624 8.9456 27.3329 8.2159ZM11.0119 27.324C9.41229 28.9236 7.26557 29.1625 6.12832 29.1625C5.81357 29.1625 5.53254 29.1451 5.28729 29.118C6.29042 28.2922 6.63593 27.2871 6.95042 26.3718C7.20175 25.6406 7.43908 24.9499 7.99685 24.3432C8.32883 23.9821 8.67309 23.8065 9.04935 23.8065C9.67272 23.8065 10.2997 24.2945 10.546 24.5354C10.571 24.5619 10.5899 24.5811 10.6002 24.5914L10.6207 24.6119C10.6893 24.683 11.4533 25.4967 11.4552 26.3427C11.456 26.704 11.3109 27.025 11.0119 27.324ZM26.3867 9.95355C26.3804 9.95982 26.3743 9.96616 26.3683 9.97269L13.0377 24.4207C12.9821 24.4738 12.9314 24.4937 12.8544 24.4937C12.5266 24.4937 12.017 24.1372 11.7621 23.8864L11.5595 23.6837C11.5585 23.6828 11.5572 23.6814 11.5564 23.6806C11.5415 23.6648 11.5183 23.6406 11.4875 23.6099C11.2825 23.3892 10.9212 22.9022 10.9208 22.5693C10.9207 22.4937 10.9405 22.4439 10.9929 22.3889L25.4473 9.05186C25.4539 9.04579 25.4603 9.03959 25.4665 9.03338C25.5763 8.92349 25.7236 8.86303 25.8812 8.86303C26.0307 8.86303 26.1689 8.91894 26.2706 9.02058L26.3996 9.14954C26.6141 9.36391 26.6081 9.73219 26.3867 9.95355Z" fill="white"/>
</svg>
