<svg width="30" height="30" viewBox="0 0 30 30" fill="none" xmlns="http://www.w3.org/2000/svg">
<g clip-path="url(#clip0_30_13067)">
<path d="M4.82344 20.4945C5.11875 20.7195 5.38125 20.907 5.625 21.0617C6.2625 21.4695 6.9375 21.8117 7.62656 22.0695C7.725 22.107 7.82812 22.1492 7.93125 22.182C8.775 22.482 9.66094 22.6742 10.5563 22.7586H10.5656H10.5703H10.575C10.65 22.768 10.725 22.7727 10.8141 22.7773C11.0672 22.8008 11.3438 22.8102 11.6344 22.8102C12.0422 22.8102 12.45 22.7867 12.8766 22.7398C13.0969 22.7164 13.3359 22.6836 13.6266 22.632C14.2781 22.5148 14.9109 22.3367 15.5063 22.1117C15.9516 21.9477 16.3969 21.7508 16.8141 21.5258C17.1422 21.357 17.4703 21.1648 17.8125 20.9352C18.0141 20.7992 18.2016 20.6633 18.3797 20.5273L19.9453 22.093L19.5609 22.4773C19.4766 22.5617 19.425 22.6789 19.425 22.8008C19.425 22.9227 19.4719 23.0398 19.5563 23.1242L25.2937 28.8617C25.7391 29.307 26.325 29.532 26.9109 29.532C27.4969 29.532 28.0828 29.307 28.5281 28.8617L28.8375 28.5523C29.7281 27.6617 29.7281 26.2086 28.8375 25.318L23.1 19.5805C23.0156 19.4961 22.8984 19.4492 22.7812 19.4492C22.6641 19.4492 22.5469 19.4961 22.4625 19.5805L22.1297 19.9133L20.55 18.3336C21.9937 16.4164 22.7953 14.0586 22.7953 11.6398C22.7953 5.48047 17.7844 0.464844 11.625 0.464844C5.46562 0.464844 0.46875 5.48047 0.46875 11.6445C0.46875 15.1367 2.05781 18.3617 4.82344 20.4945ZM6.32344 20.4242V15.4414H7.63594V21.0945C7.18594 20.907 6.74531 20.682 6.32344 20.4242ZM11.0766 21.8914V16.6133H12.3891V21.882C11.9391 21.9148 11.5125 21.9195 11.0766 21.8914ZM16.4156 20.7289C16.2234 20.832 16.0219 20.9305 15.8203 21.0195V14.2695H17.1281V20.3211C16.8844 20.4711 16.65 20.607 16.4109 20.7289H16.4156ZM28.2234 25.9648C28.7625 26.5039 28.7625 27.3758 28.2234 27.9148L27.9141 28.2242C27.375 28.7633 26.5031 28.7633 25.9641 28.2242L20.55 22.8102L20.9297 22.4305C20.9297 22.4305 20.9344 22.4305 20.9391 22.4258L22.3266 21.0336L22.8094 20.5508L28.2234 25.9648ZM20.6156 21.4555L19.1109 19.9508C19.1109 19.9508 19.1484 19.9133 19.1672 19.8945C19.3312 19.7445 19.4953 19.5945 19.6453 19.4352C19.7672 19.3086 19.8844 19.182 20.0016 19.0508L21.5063 20.5555L20.6109 21.4508L20.6156 21.4555ZM11.6438 1.37891C17.3016 1.37891 21.9047 5.98203 21.9047 11.6445C21.9047 13.993 21.0938 16.2852 19.6078 18.1086C19.5703 18.1602 19.5328 18.207 19.4766 18.268C19.3219 18.4508 19.1672 18.6289 18.9984 18.8023C18.7687 19.0414 18.525 19.2664 18.2531 19.4914C18.225 19.5148 18.1969 19.543 18.1547 19.5758C18.1172 19.6086 18.0797 19.6367 18.0422 19.6695V14.2086C18.0422 13.7398 17.6625 13.3602 17.1984 13.3602H15.7594C15.2953 13.3602 14.9156 13.7398 14.9156 14.2086V21.3758C14.4563 21.5305 13.9781 21.657 13.4859 21.7461C13.425 21.7555 13.3641 21.7695 13.2984 21.7789V16.5523C13.2984 16.0836 12.9187 15.7039 12.45 15.7039H11.0109C10.5469 15.7039 10.1672 16.0836 10.1672 16.5523V21.8023C9.61875 21.7227 9.075 21.6008 8.54531 21.432V15.3805C8.54531 14.9117 8.16563 14.532 7.70156 14.532H6.2625C5.79375 14.532 5.41406 14.9117 5.41406 15.3805V19.8055C5.41406 19.8055 5.39062 19.7867 5.37656 19.7773C2.83594 17.818 1.37344 14.8555 1.37344 11.6492C1.37813 5.98203 5.98125 1.37891 11.6438 1.37891Z" fill="white"/>
<path d="M6.90625 13.3719C7.55312 13.3719 8.10625 12.9969 8.38281 12.4578L10.0844 12.7906C10.1594 13.6391 10.8625 14.3141 11.7344 14.3141C12.6531 14.3141 13.3984 13.5687 13.3984 12.65C13.3984 12.5281 13.3844 12.4109 13.3609 12.2984L14.8281 11.5203C15.1328 11.8344 15.5547 12.0313 16.0187 12.0313C16.9375 12.0313 17.6828 11.2859 17.6828 10.3672C17.6828 9.44844 16.9375 8.70312 16.0187 8.70312C15.1 8.70312 14.3547 9.44844 14.3547 10.3672C14.3547 10.4891 14.3688 10.6063 14.3922 10.7188L12.925 11.4969C12.6203 11.1828 12.2031 10.9859 11.7344 10.9859C11.0875 10.9859 10.5344 11.3609 10.2578 11.8953L8.55625 11.5625C8.48125 10.7141 7.77812 10.0438 6.90625 10.0438C5.9875 10.0438 5.24219 10.7891 5.24219 11.7078C5.24219 12.6266 5.9875 13.3719 6.90625 13.3719ZM16.0094 9.60781C16.4266 9.60781 16.7641 9.94531 16.7641 10.3625C16.7641 10.7797 16.4266 11.1172 16.0094 11.1172C15.5922 11.1172 15.2547 10.7797 15.2547 10.3625C15.2547 9.94531 15.5922 9.60781 16.0094 9.60781ZM11.7297 11.8953C12.1469 11.8953 12.4844 12.2328 12.4844 12.65C12.4844 13.0672 12.1469 13.4047 11.7297 13.4047C11.3125 13.4047 10.975 13.0672 10.975 12.65C10.975 12.2328 11.3125 11.8953 11.7297 11.8953ZM6.90625 10.9578C7.32344 10.9578 7.66094 11.2953 7.66094 11.7125C7.66094 12.1297 7.32344 12.4672 6.90625 12.4672C6.48906 12.4672 6.15156 12.1297 6.15156 11.7125C6.15156 11.2953 6.48906 10.9578 6.90625 10.9578Z" fill="#FF7B02"/>
</g>
<defs>
<clipPath id="clip0_30_13067">
<rect width="30" height="30" fill="white"/>
</clipPath>
</defs>
</svg>
