<svg width="28" height="31" viewBox="0 0 28 31" fill="none" xmlns="http://www.w3.org/2000/svg">
<mask id="mask0_30_13147" style="mask-type:luminance" maskUnits="userSpaceOnUse" x="0" y="1" width="28" height="30">
<path d="M0.359375 1.96916H27.9678V30.9297H0.359375V1.96916Z" fill="white"/>
</mask>
<g mask="url(#mask0_30_13147)">
<path d="M16.5874 30.9297C17.0335 30.9297 17.3951 30.5492 17.3951 30.0799V26.6808C17.3951 26.2115 17.0335 25.831 16.5874 25.831H11.7413C11.2952 25.831 10.9336 26.2115 10.9336 26.6808V30.0799C10.9336 30.5492 11.2952 30.9297 11.7413 30.9297H16.5874ZM12.549 27.5306H15.7797V29.2301H12.549V27.5306Z" fill="white"/>
</g>
<path d="M11.0206 27.0797C11.2699 27.4706 11.7784 27.5786 12.1564 27.3209C12.5345 27.0631 12.6389 26.5374 12.3896 26.1465L9.36971 21.411L14.1649 11.4483L18.9601 21.411L15.9402 26.1465C15.6909 26.5374 15.7953 27.0631 16.1734 27.3209C16.5514 27.5786 17.06 27.4706 17.3092 27.0797L20.589 21.9369C20.7498 21.6847 20.7686 21.363 20.6385 21.0926L14.899 9.16784C14.7603 8.87986 14.476 8.69778 14.1649 8.69778C13.8538 8.69778 13.5695 8.87986 13.4309 9.16784L7.69134 21.0926C7.56117 21.363 7.58003 21.6847 7.74086 21.9369L11.0206 27.0797Z" fill="white"/>
<mask id="mask1_30_13147" style="mask-type:luminance" maskUnits="userSpaceOnUse" x="0" y="1" width="28" height="30">
<path d="M0.359375 1.96916H27.9678V30.9297H0.359375V1.96916Z" fill="white"/>
</mask>
<g mask="url(#mask1_30_13147)">
<path d="M3.49224 4.51706C3.49224 4.98635 3.14156 5.36684 2.70903 5.36684C2.27648 5.36684 1.92581 4.98639 1.92581 4.51706C1.92581 4.04777 2.27649 3.66728 2.70903 3.66728C3.14157 3.66728 3.49224 4.04774 3.49224 4.51706ZM5.05868 4.51706C5.05868 3.10906 4.00666 1.96772 2.70903 1.96772C1.41138 1.96772 0.359375 3.10913 0.359375 4.51706C0.359375 5.92507 1.41139 7.06641 2.70903 7.06641C4.00667 7.06641 5.05868 5.925 5.05868 4.51706Z" fill="#FF7B02"/>
<path d="M15.7941 7.06641C16.2447 7.06641 16.6099 6.68595 16.6099 6.21663V2.8175C16.6099 2.34818 16.2447 1.96772 15.7941 1.96772H12.5307C12.0801 1.96772 11.7148 2.34818 11.7148 2.8175V6.21663C11.7148 6.68595 12.0801 7.06641 12.5307 7.06641H15.7941ZM13.3465 3.66728H14.9782V5.36684H13.3465V3.66728Z" fill="#FF7B02"/>
<path d="M26.3376 4.51706C26.3376 4.98635 25.9723 5.36684 25.5218 5.36684C25.0712 5.36684 24.7059 4.98639 24.7059 4.51706C24.7059 4.04777 25.0712 3.66728 25.5218 3.66728C25.9723 3.66728 26.3376 4.04774 26.3376 4.51706ZM27.9693 4.51706C27.9693 3.10906 26.8735 1.96772 25.5218 1.96772C24.1701 1.96772 23.0742 3.10913 23.0742 4.51706C23.0742 5.92507 24.1701 7.06641 25.5218 7.06641C26.8735 7.06641 27.9693 5.925 27.9693 4.51706Z" fill="#FF7B02"/>
<path d="M13.2812 9.54929V21.5128C13.2812 21.9825 13.6319 22.3633 14.0645 22.3633C14.497 22.3633 14.8477 21.9825 14.8477 21.5128V9.54929C14.8477 9.07958 14.497 8.69881 14.0645 8.69881C13.6319 8.69881 13.2812 9.07958 13.2812 9.54929Z" fill="white"/>
<path d="M12.4711 5.4375C12.9191 5.4375 13.2824 5.0266 13.2824 4.51974C13.2824 4.01287 12.9191 3.60197 12.4711 3.60197H4.30353C3.85544 3.60197 3.49219 4.01287 3.49219 4.51974C3.49219 5.0266 3.85544 5.4375 4.30353 5.4375H12.4711Z" fill="#FF7B02"/>
<path d="M24.0061 5.4375C24.4632 5.4375 24.8337 5.0266 24.8337 4.51974C24.8337 4.01287 24.4632 3.60197 24.0061 3.60197H15.6752C15.2182 3.60197 14.8477 4.01287 14.8477 4.51974C14.8477 5.0266 15.2182 5.4375 15.6752 5.4375H24.0061Z" fill="#FF7B02"/>
<path d="M1.92578 16.4168C1.92578 16.8856 2.28724 17.2656 2.73312 17.2656C3.179 17.2656 3.54045 16.8856 3.54045 16.4168C3.54045 10.8643 7.49841 6.25988 12.5893 5.49428C13.0307 5.4279 13.3373 4.99788 13.2742 4.53383C13.211 4.06978 12.802 3.74738 12.3607 3.81376C6.49663 4.69563 1.92578 9.99629 1.92578 16.4168Z" fill="#FF7B02"/>
<path d="M24.7576 16.4168C24.7576 16.8856 25.1253 17.2656 25.5788 17.2656C26.0324 17.2656 26.4001 16.8856 26.4001 16.4168C26.4001 9.99628 21.7505 4.69562 15.7853 3.81376C15.3363 3.74738 14.9203 4.06977 14.856 4.53383C14.7918 4.99788 15.1037 5.4279 15.5527 5.49428C20.7314 6.25988 24.7576 10.8643 24.7576 16.4168Z" fill="#FF7B02"/>
</g>
</svg>
