<svg width="32" height="32" viewBox="0 0 32 32" fill="none" xmlns="http://www.w3.org/2000/svg">
<path fill-rule="evenodd" clip-rule="evenodd" d="M10.082 7.99929C9.70818 8.32997 9.26338 8.84718 8.58064 9.64665L5.50612 13.2467C4.79672 14.0774 4.32674 14.6305 4.02306 15.0926C3.73517 15.5306 3.66797 15.7841 3.66797 16.0013C3.66797 16.2186 3.73517 16.4721 4.02306 16.9101C4.32674 17.3721 4.79672 17.9253 5.50612 18.7559L8.58064 22.3559C9.26338 23.1554 9.70818 23.6726 10.082 24.0033C10.4359 24.3163 10.5877 24.3346 10.668 24.3346C10.7483 24.3346 10.9001 24.3163 11.2539 24.0033C11.6278 23.6726 12.0726 23.1554 12.7553 22.3559L15.8298 18.7559C16.5392 17.9253 17.0092 17.3721 17.3129 16.9101C17.6008 16.4721 17.668 16.2186 17.668 16.0013C17.668 15.7841 17.6008 15.5306 17.3129 15.0926C17.0092 14.6305 16.5392 14.0774 15.8298 13.2467L12.7553 9.64665C12.0726 8.84718 11.6278 8.32997 11.2539 7.99929C10.9001 7.68628 10.7483 7.66797 10.668 7.66797C10.5877 7.66797 10.4359 7.68628 10.082 7.99929ZM8.75688 6.50128C9.28074 6.03788 9.88973 5.66797 10.668 5.66797C11.4462 5.66797 12.0552 6.03786 12.5791 6.50128C13.0709 6.93636 13.6065 7.56358 14.2302 8.29396L17.3914 11.9955C18.0493 12.7658 18.6032 13.4143 18.9842 13.9941C19.3889 14.6098 19.668 15.2474 19.668 16.0013C19.668 16.7551 19.3889 17.3927 18.9842 18.0085C18.6032 18.5883 18.0493 19.2367 17.3914 20.0071L14.2301 23.7087C13.6065 24.439 13.0709 25.0662 12.5791 25.5013C12.0552 25.9647 11.4462 26.3346 10.668 26.3346C9.88973 26.3346 9.28074 25.9647 8.75688 25.5013C8.26505 25.0662 7.72945 24.439 7.10577 23.7086L3.94456 20.0071C3.28666 19.2367 2.7328 18.5883 2.35173 18.0085C1.94705 17.3927 1.66797 16.7551 1.66797 16.0013C1.66797 15.2474 1.94705 14.6098 2.35173 13.9941C2.7328 13.4143 3.28666 12.7658 3.94456 11.9955L7.05977 8.34781C7.07516 8.32978 7.09049 8.31184 7.10577 8.29394C7.72945 7.56357 8.26505 6.93634 8.75688 6.50128Z" fill="white"/>
<path fill-rule="evenodd" clip-rule="evenodd" d="M16.7118 5.88665C17.1434 5.54197 17.7726 5.6124 18.1173 6.04393L22.8376 11.9538C23.4668 12.7415 23.9952 13.403 24.3582 13.9929C24.7438 14.6194 25.0026 15.2564 25.0026 16.0013C25.0026 16.7462 24.7438 17.3832 24.3582 18.0097C23.9952 18.5997 23.4668 19.2612 22.8376 20.0489L18.1173 25.9588C17.7726 26.3902 17.1434 26.4608 16.7118 26.1161C16.2804 25.7713 16.21 25.1421 16.5546 24.7106L21.2369 18.8481C21.914 18.0005 22.3638 17.4345 22.6549 16.9614C22.9308 16.5133 23.0026 16.2429 23.0026 16.0013C23.0026 15.7598 22.9308 15.4894 22.6549 15.0412C22.3638 14.5682 21.914 14.0022 21.2369 13.1545L16.5546 7.29209C16.21 6.86054 16.2804 6.23132 16.7118 5.88665Z" fill="#FF7B02"/>
<path fill-rule="evenodd" clip-rule="evenodd" d="M22.0439 5.88665C22.4755 5.54197 23.1047 5.6124 23.4493 6.04393L28.1696 11.9538C28.7988 12.7415 29.3272 13.403 29.6903 13.9929C30.0759 14.6194 30.3347 15.2564 30.3347 16.0013C30.3347 16.7462 30.0759 17.3832 29.6903 18.0097C29.3272 18.5997 28.7988 19.2612 28.1696 20.0489L23.4493 25.9588C23.1047 26.3902 22.4755 26.4608 22.0439 26.1161C21.6124 25.7713 21.542 25.1421 21.8867 24.7106L26.5689 18.8481C27.246 18.0005 27.6959 17.4345 27.9869 16.9614C28.2628 16.5133 28.3347 16.2429 28.3347 16.0013C28.3347 15.7598 28.2628 15.4894 27.9869 15.0412C27.6959 14.5682 27.246 14.0022 26.5689 13.1545L21.8867 7.29209C21.542 6.86054 21.6124 6.23132 22.0439 5.88665Z" fill="#FF7B02"/>
</svg>
