<svg width="30" height="30" viewBox="0 0 30 30" fill="none" xmlns="http://www.w3.org/2000/svg">
<mask id="mask0_30_13033" style="mask-type:luminance" maskUnits="userSpaceOnUse" x="0" y="-1" width="30" height="31">
<path d="M0 1.90735e-06H29.1667V29.1667H0V1.90735e-06Z" fill="white"/>
</mask>
<g mask="url(#mask0_30_13033)">
<path d="M0 3.15558V5.09554C4.228e-06 5.32708 0.191288 5.51479 0.427248 5.51479C0.663208 5.51479 0.854492 5.32708 0.854497 5.09554V3.15558C0.854503 2.36421 1.50821 1.72273 2.31465 1.72273H26.8519C27.6584 1.72273 28.3122 2.36422 28.3122 3.15558V19.825C28.3122 20.6163 27.6584 21.2579 26.8519 21.2579H2.31465C1.50821 21.2579 0.854497 20.6163 0.854497 19.825V6.77253C0.854497 6.54099 0.663211 6.35328 0.427248 6.35328C0.191286 6.35328 0 6.54099 0 6.77253V19.825C0 21.0794 1.03625 22.0963 2.31465 22.0964H26.8519C28.1303 22.0964 29.1667 21.0794 29.1667 19.825V3.15558C29.1667 1.90113 28.1303 0.884233 26.8519 0.884232H2.31465C1.03625 0.884237 6.34146e-06 1.90115 0 3.15558Z" fill="white"/>
<path d="M20.7822 28.2799C21.0194 28.2799 21.2117 28.095 21.2117 27.8668V26.0416C21.2117 25.8134 21.0194 25.6284 20.7822 25.6284H7.49982C7.26261 25.6284 7.07031 25.8134 7.07031 26.0416V27.8668C7.07031 28.095 7.26261 28.2799 7.49982 28.2799H20.7822ZM7.92934 26.4548H20.3527V27.4536H7.92934V26.4548Z" fill="white"/>
<path d="M10.6055 21.6202V25.2236C10.6055 25.4489 10.8033 25.6315 11.0474 25.6315C11.2915 25.6315 11.4893 25.4489 11.4893 25.2236V21.6202C11.4893 21.3949 11.2915 21.2123 11.0474 21.2123C10.8033 21.2123 10.6055 21.3949 10.6055 21.6202Z" fill="white"/>
<path d="M17.6758 21.6202V25.2236C17.6758 25.4489 17.8736 25.6315 18.1177 25.6315C18.3618 25.6315 18.5596 25.4489 18.5596 25.2236V21.6202C18.5596 21.3949 18.3618 21.2123 18.1177 21.2123C17.8736 21.2123 17.6758 21.3949 17.6758 21.6202Z" fill="white"/>
<path d="M13.2578 25.2184C13.2578 25.4465 13.4428 25.6315 13.671 25.6315C13.8991 25.6315 14.0841 25.4465 14.0841 25.2184V23.8063H15.083V25.2184C15.083 25.4465 15.268 25.6315 15.4962 25.6315C15.7243 25.6315 15.9093 25.4465 15.9093 25.2184V23.3931C15.9093 23.165 15.7243 22.98 15.4962 22.98H13.671C13.4428 22.98 13.2578 23.165 13.2578 23.3931V25.2184Z" fill="white"/>
<path d="M28.7394 19.4401C28.9754 19.4401 29.1667 19.2422 29.1667 18.9982C29.1667 18.7541 28.9754 18.5563 28.7394 18.5563H0.427246C0.191285 18.5563 0 18.7541 0 18.9982C0 19.2422 0.191285 19.4401 0.427246 19.4401H28.7394Z" fill="white"/>
<path d="M1.76562 19.0155C1.76562 19.25 1.95871 19.4401 2.1969 19.4401C2.43509 19.4401 2.62818 19.25 2.62818 19.0155V3.49636H26.5344V19.0155C26.5344 19.25 26.7275 19.4401 26.9657 19.4401C27.2038 19.4401 27.3969 19.25 27.3969 19.0155V3.07177C27.3969 2.83728 27.2038 2.64718 26.9657 2.64717H2.1969C1.95872 2.64717 1.76563 2.83727 1.76562 3.07177V19.0155Z" fill="white"/>
<path d="M23.0242 16.8316C23.0242 16.8466 23.0116 16.8588 22.9961 16.8588H5.29212C5.27663 16.8588 5.26403 16.8466 5.26403 16.8316V14.0982C5.26403 14.0831 5.2766 14.071 5.29212 14.071H22.9961C23.0116 14.071 23.0242 14.0831 23.0242 14.0982V16.8316ZM23.8663 14.0982C23.8663 13.6326 23.4766 13.2553 22.9961 13.2553H5.29212C4.81156 13.2553 4.42188 13.6326 4.42188 14.0982V16.8316C4.42188 17.2971 4.81152 17.6745 5.29212 17.6745H22.9961C23.4767 17.6745 23.8663 17.2971 23.8663 16.8316V14.0982Z" fill="#FF7B02"/>
<path d="M18.6377 11.4283C18.6377 11.4451 18.6257 11.4587 18.6108 11.4587H10.5568C10.5419 11.4587 10.5299 11.4451 10.5299 11.4283V5.35665C10.5299 5.33988 10.5419 5.32631 10.5568 5.32631H18.6108C18.6257 5.32632 18.6377 5.33988 18.6377 5.35665V11.4283ZM19.4449 5.35665C19.4449 4.83664 19.0714 4.41525 18.6108 4.41525H10.5568C10.0962 4.41525 9.72266 4.83664 9.72266 5.35665V11.4283C9.72266 11.9484 10.0962 12.3698 10.5568 12.3698H18.6108C19.0714 12.3698 19.4449 11.9484 19.4449 11.4283V5.35665Z" fill="#FF7B02"/>
<path d="M14.5766 15.9049C14.8247 15.9049 15.0259 15.7071 15.0259 15.463C15.0259 15.219 14.8247 15.0211 14.5766 15.0211H6.63681C6.38866 15.0211 6.1875 15.219 6.1875 15.463C6.1875 15.7071 6.38866 15.9049 6.63681 15.9049H14.5766Z" fill="#FF7B02"/>
<path d="M23.4493 12.3698C23.6775 12.3698 23.8625 12.1848 23.8625 11.9566V10.1314C23.8624 9.90326 23.6775 9.71828 23.4493 9.71828H21.6241C21.3959 9.71828 21.2109 9.90326 21.2109 10.1314V11.9566C21.2109 12.1848 21.3959 12.3698 21.6241 12.3698H23.4493ZM22.0372 10.5446H23.0361V11.5435H22.0372V10.5446Z" fill="#FF7B02"/>
<path d="M13.4522 10.5277C13.573 10.621 13.7239 10.6295 13.8509 10.5501L16.5666 8.85274C16.7055 8.76596 16.7932 8.58857 16.7932 8.39455C16.7932 8.20053 16.7055 8.02318 16.5666 7.9364L13.8509 6.23905C13.7239 6.15967 13.573 6.16814 13.4522 6.26146C13.3314 6.3548 13.2578 6.5197 13.2578 6.69724V10.0919C13.2578 10.2694 13.3314 10.4343 13.4522 10.5277ZM14.0774 7.52613L15.467 8.3946L14.0774 9.26306V7.52613Z" fill="#FF7B02"/>
</g>
</svg>
