<svg width="33" height="33" viewBox="0 0 33 33" fill="none" xmlns="http://www.w3.org/2000/svg">
<path d="M16.5 25.2656C15.6842 25.2656 14.8866 25.0237 14.2083 24.5704C13.5299 24.1172 13.0012 23.4729 12.689 22.7192C12.3768 21.9655 12.2951 21.1361 12.4543 20.3359C12.6134 19.5357 13.0063 18.8007 13.5832 18.2238C14.1601 17.6469 14.8951 17.2541 15.6953 17.0949C16.4954 16.9357 17.3248 17.0174 18.0786 17.3296C18.8323 17.6418 19.4766 18.1705 19.9298 18.8489C20.3831 19.5273 20.625 20.3248 20.625 21.1406C20.6238 22.2343 20.1888 23.2828 19.4155 24.0561C18.6421 24.8294 17.5936 25.2644 16.5 25.2656ZM16.5 18.0469C15.8881 18.0469 15.29 18.2283 14.7812 18.5683C14.2724 18.9082 13.8759 19.3914 13.6417 19.9567C13.4076 20.522 13.3463 21.1441 13.4657 21.7442C13.5851 22.3443 13.8797 22.8956 14.3124 23.3282C14.7451 23.7609 15.2963 24.0556 15.8964 24.1749C16.4966 24.2943 17.1186 24.233 17.6839 23.9989C18.2492 23.7647 18.7324 23.3682 19.0724 22.8594C19.4123 22.3507 19.5938 21.7525 19.5938 21.1406C19.5929 20.3204 19.2667 19.5339 18.6867 18.9539C18.1067 18.3739 17.3203 18.0477 16.5 18.0469Z" fill="white"/>
<path d="M22.6875 31.9688C22.5507 31.9688 22.4196 31.9144 22.3229 31.8177C22.2262 31.721 22.1719 31.5899 22.1719 31.4531V28.3594C22.1719 27.8345 20.1697 26.8125 16.5 26.8125C12.8303 26.8125 10.8281 27.8345 10.8281 28.3594V31.4531C10.8281 31.5899 10.7738 31.721 10.6771 31.8177C10.5804 31.9144 10.4493 31.9688 10.3125 31.9688C10.1757 31.9688 10.0446 31.9144 9.9479 31.8177C9.8512 31.721 9.79688 31.5899 9.79688 31.4531V28.3594C9.79688 26.6666 13.1691 25.7812 16.5 25.7812C19.8309 25.7812 23.2031 26.6666 23.2031 28.3594V31.4531C23.2031 31.5899 23.1488 31.721 23.0521 31.8177C22.9554 31.9144 22.8243 31.9688 22.6875 31.9688Z" fill="white"/>
<path d="M25.2656 22.6875C24.4498 22.6875 23.6523 22.4456 22.9739 21.9923C22.2955 21.5391 21.7668 20.8948 21.4546 20.1411C21.1424 19.3873 21.0607 18.5579 21.2199 17.7578C21.3791 16.9576 21.7719 16.2226 22.3488 15.6457C22.9257 15.0688 23.6607 14.6759 24.4609 14.5168C25.2611 14.3576 26.0905 14.4393 26.8442 14.7515C27.5979 15.0637 28.2422 15.5924 28.6954 16.2708C29.1487 16.9491 29.3906 17.7467 29.3906 18.5625C29.3894 19.6561 28.9544 20.7046 28.1811 21.478C27.4078 22.2513 26.3593 22.6863 25.2656 22.6875ZM25.2656 15.4688C24.6537 15.4688 24.0556 15.6502 23.5468 15.9901C23.0381 16.3301 22.6415 16.8133 22.4074 17.3786C22.1732 17.9439 22.1119 18.5659 22.2313 19.1661C22.3507 19.7662 22.6453 20.3174 23.078 20.7501C23.5107 21.1828 24.0619 21.4774 24.6621 21.5968C25.2622 21.7162 25.8842 21.6549 26.4496 21.4208C27.0149 21.1866 27.498 20.7901 27.838 20.2813C28.1779 19.7725 28.3594 19.1744 28.3594 18.5625C28.3586 17.7422 28.0323 16.9558 27.4523 16.3758C26.8723 15.7958 26.0859 15.4696 25.2656 15.4688Z" fill="white"/>
<path d="M31.4553 29.3906C31.3186 29.3906 31.1874 29.3363 31.0907 29.2396C30.994 29.1429 30.9397 29.0118 30.9397 28.875V25.7812C30.9397 25.2563 28.9375 24.2344 25.2678 24.2344C23.1537 24.2344 21.1944 24.603 20.1631 25.1965C20.1045 25.2309 20.0396 25.2534 19.9722 25.2626C19.9048 25.2718 19.8363 25.2676 19.7705 25.2502C19.7048 25.2328 19.6432 25.2026 19.5891 25.1613C19.5351 25.12 19.4898 25.0684 19.4558 25.0095C19.4218 24.9506 19.3998 24.8856 19.391 24.8182C19.3823 24.7507 19.3869 24.6822 19.4047 24.6166C19.4225 24.551 19.4532 24.4895 19.4948 24.4358C19.5365 24.382 19.5884 24.3371 19.6475 24.3035C20.8463 23.6156 22.9475 23.2031 25.2678 23.2031C28.5987 23.2031 31.9709 24.0885 31.9709 25.7812V28.875C31.9709 29.0118 31.9166 29.1429 31.8199 29.2396C31.7232 29.3363 31.5921 29.3906 31.4553 29.3906Z" fill="white"/>
<path d="M7.73438 22.6875C6.91853 22.6875 6.121 22.4456 5.44265 21.9923C4.7643 21.5391 4.23559 20.8948 3.92337 20.1411C3.61116 19.3873 3.52947 18.5579 3.68864 17.7578C3.8478 16.9576 4.24067 16.2226 4.81756 15.6457C5.39445 15.0688 6.12946 14.6759 6.92963 14.5168C7.7298 14.3576 8.5592 14.4393 9.31295 14.7515C10.0667 15.0637 10.7109 15.5924 11.1642 16.2708C11.6174 16.9491 11.8594 17.7467 11.8594 18.5625C11.8581 19.6561 11.4232 20.7046 10.6498 21.478C9.87651 22.2513 8.82802 22.6863 7.73438 22.6875ZM7.73438 15.4688C7.12249 15.4688 6.52435 15.6502 6.01558 15.9901C5.50682 16.3301 5.11028 16.8133 4.87612 17.3786C4.64197 17.9439 4.5807 18.5659 4.70007 19.1661C4.81945 19.7662 5.1141 20.3174 5.54677 20.7501C5.97943 21.1828 6.53069 21.4774 7.13082 21.5968C7.73095 21.7162 8.35299 21.6549 8.9183 21.4208C9.48361 21.1866 9.96679 20.7901 10.3067 20.2813C10.6467 19.7725 10.8281 19.1744 10.8281 18.5625C10.8273 17.7422 10.5011 16.9558 9.92108 16.3758C9.34107 15.7958 8.55464 15.4696 7.73438 15.4688Z" fill="white"/>
<path d="M1.54688 29.3906C1.41012 29.3906 1.27897 29.3363 1.18227 29.2396C1.08557 29.1429 1.03125 29.0118 1.03125 28.875V25.7812C1.03125 24.0885 4.40344 23.2031 7.73438 23.2031C10.0547 23.2031 12.1559 23.6156 13.3516 24.3035C13.4107 24.3371 13.4626 24.382 13.5043 24.4358C13.5459 24.4895 13.5765 24.551 13.5944 24.6166C13.6122 24.6822 13.6168 24.7507 13.6081 24.8182C13.5993 24.8856 13.5773 24.9506 13.5433 25.0095C13.5093 25.0684 13.464 25.12 13.41 25.1613C13.3559 25.2026 13.2943 25.2328 13.2285 25.2502C13.1628 25.2676 13.0943 25.2718 13.0269 25.2626C12.9595 25.2534 12.8946 25.2309 12.836 25.1965C11.8078 24.603 9.85102 24.2344 7.73438 24.2344C4.06467 24.2344 2.0625 25.2563 2.0625 25.7812V28.875C2.0625 29.0118 2.00818 29.1429 1.91148 29.2396C1.81478 29.3363 1.68363 29.3906 1.54688 29.3906Z" fill="white"/>
<path d="M8.29411 13.924C8.18938 13.9239 8.08715 13.892 8.00103 13.8324C7.9149 13.7728 7.84897 13.6884 7.812 13.5904C6.94321 11.2867 7.02516 8.73217 8.03982 6.48886C9.05448 4.24555 10.9187 2.49719 13.2225 1.62841C15.5262 0.75962 18.0807 0.841569 20.324 1.85623C22.5673 2.87088 24.3157 4.73513 25.1844 7.03886C25.2095 7.10246 25.2218 7.17041 25.2204 7.23877C25.219 7.30712 25.204 7.37452 25.1763 7.43703C25.1486 7.49955 25.1087 7.55593 25.0591 7.6029C25.0094 7.64987 24.9508 7.68649 24.8869 7.71063C24.8229 7.73477 24.7548 7.74594 24.6864 7.7435C24.6181 7.74106 24.551 7.72506 24.4889 7.69642C24.4268 7.66778 24.371 7.62708 24.3248 7.57669C24.2786 7.5263 24.2429 7.46722 24.2197 7.40289C23.4475 5.35503 21.8933 3.69781 19.8992 2.7958C17.9051 1.8938 15.6344 1.8209 13.5865 2.59314C11.5386 3.36538 9.8814 4.9195 8.9794 6.91362C8.0774 8.90773 8.0045 11.1785 8.77673 13.2264C8.80066 13.2897 8.81187 13.3572 8.80971 13.4249C8.80755 13.4926 8.79207 13.5592 8.76415 13.621C8.73623 13.6827 8.69643 13.7383 8.64701 13.7846C8.59759 13.831 8.53952 13.8671 8.47613 13.891C8.4179 13.9127 8.35626 13.9239 8.29411 13.924Z" fill="#FF7B02"/>
<path d="M16.5 16.5C15.2762 16.5 14.0799 16.1371 13.0624 15.4572C12.0449 14.7773 11.2518 13.811 10.7835 12.6804C10.3152 11.5497 10.1926 10.3056 10.4314 9.10538C10.6701 7.90512 11.2594 6.80262 12.1248 5.93728C12.9901 5.07194 14.0926 4.48264 15.2929 4.24389C16.4931 4.00515 17.7372 4.12768 18.8679 4.596C19.9985 5.06432 20.9648 5.85738 21.6447 6.87491C22.3246 7.89244 22.6875 9.08873 22.6875 10.3125C22.6857 11.953 22.0333 13.5258 20.8733 14.6858C19.7133 15.8458 18.1405 16.4982 16.5 16.5ZM16.5 5.15625C15.4802 5.15625 14.4833 5.45866 13.6353 6.02524C12.7874 6.59181 12.1265 7.39711 11.7362 8.33929C11.346 9.28147 11.2439 10.3182 11.4428 11.3184C11.6418 12.3187 12.1329 13.2374 12.854 13.9585C13.5751 14.6796 14.4939 15.1707 15.4941 15.3697C16.4943 15.5686 17.531 15.4665 18.4732 15.0763C19.4154 14.686 20.2207 14.0251 20.7873 13.1772C21.3538 12.3292 21.6563 11.3323 21.6563 10.3125C21.6548 8.94544 21.111 7.6348 20.1444 6.66814C19.1777 5.70148 17.8671 5.15775 16.5 5.15625Z" fill="#FF7B02"/>
<path d="M16.5 13.4063C15.8881 13.4063 15.29 13.2248 14.7812 12.8849C14.2724 12.5449 13.8759 12.0617 13.6417 11.4964C13.4076 10.9311 13.3463 10.3091 13.4657 9.70894C13.5851 9.10881 13.8797 8.55756 14.3124 8.12489C14.7451 7.69222 15.2963 7.39757 15.8964 7.2782C16.4966 7.15882 17.1186 7.22009 17.6839 7.45425C18.2492 7.68841 18.7324 8.08494 19.0724 8.59371C19.4123 9.10247 19.5938 9.70062 19.5938 10.3125C19.5929 11.1328 19.2667 11.9192 18.6867 12.4992C18.1067 13.0792 17.3203 13.4054 16.5 13.4063ZM16.5 8.25C16.0921 8.25 15.6933 8.37096 15.3541 8.5976C15.015 8.82423 14.7506 9.14634 14.5945 9.52322C14.4384 9.90009 14.3975 10.3148 14.4771 10.7149C14.5567 11.115 14.7531 11.4825 15.0416 11.7709C15.33 12.0594 15.6975 12.2558 16.0976 12.3354C16.4977 12.415 16.9124 12.3741 17.2893 12.218C17.6662 12.0619 17.9883 11.7975 18.2149 11.4584C18.4415 11.1192 18.5625 10.7204 18.5625 10.3125C18.5625 9.76549 18.3452 9.24089 17.9584 8.85409C17.5716 8.4673 17.047 8.25 16.5 8.25Z" fill="#FF7B02"/>
<path d="M29.9062 12.8906H25.6224C25.4893 12.8904 25.3615 12.8386 25.2656 12.7462L23.2727 10.8281H16.5C16.3632 10.8281 16.2321 10.7738 16.1354 10.6771C16.0387 10.5804 15.9844 10.4493 15.9844 10.3125C15.9844 10.1757 16.0387 10.0446 16.1354 9.9479C16.2321 9.8512 16.3632 9.79688 16.5 9.79688H23.2727L25.2656 7.87875C25.3616 7.78625 25.4897 7.7345 25.623 7.73438H29.9062C30.009 7.73437 30.1095 7.76509 30.1947 7.82259C30.2799 7.88009 30.346 7.96174 30.3844 8.05706C30.4229 8.15239 30.432 8.25703 30.4105 8.35756C30.3891 8.45809 30.3381 8.54992 30.2641 8.62125L28.5079 10.3125L30.2641 12.0038C30.3381 12.0751 30.3891 12.1669 30.4105 12.2674C30.432 12.368 30.4229 12.4726 30.3844 12.5679C30.346 12.6633 30.2799 12.7449 30.1947 12.8024C30.1095 12.8599 30.009 12.8906 29.9062 12.8906ZM25.8328 11.8594H28.6275L27.5565 10.8281H24.7598L25.8328 11.8594ZM24.7619 9.79688H27.5586L28.6296 8.76562H25.8328L24.7619 9.79688Z" fill="#FF7B02"/>
</svg>
