<svg width="26" height="32" viewBox="0 0 26 32" fill="none" xmlns="http://www.w3.org/2000/svg">
<path d="M10.0259 11.1527C10.2369 10.8814 10.5789 10.8814 10.7899 11.1527C11.0009 11.4241 11.0009 11.864 10.7899 12.1354L9.90606 13.272C9.80474 13.4023 9.66733 13.4755 9.52405 13.4755C9.38077 13.4755 9.24332 13.4023 9.142 13.272L8.58012 12.5495C8.36913 12.2781 8.36912 11.8381 8.58012 11.5668C8.79112 11.2955 9.13323 11.2955 9.34423 11.5668L9.52401 11.7981L10.0259 11.1527Z" fill="#FF7B02"/>
<path d="M12.8129 8.42188C13.1777 8.42188 13.4735 8.71765 13.4735 9.0825V15.3402C13.4735 15.705 13.1777 16.0008 12.8129 16.0008H6.55516C6.19031 16.0008 5.89454 15.705 5.89453 15.3402V9.0825C5.89453 8.71765 6.1903 8.42188 6.55516 8.42188H12.8129ZM7.21578 14.6796H12.1522V9.74312H7.21578V14.6796Z" fill="#FF7B02"/>
<path d="M9.93636 20.3845C10.1678 20.1531 10.5431 20.1531 10.7746 20.3845C11.0061 20.616 11.0061 20.9913 10.7746 21.2227L9.43369 22.5637C9.20223 22.7951 8.82693 22.7951 8.59546 22.5637C8.36401 22.3322 8.36402 21.957 8.59546 21.7255L9.93636 20.3845Z" fill="#FF7B02"/>
<path d="M8.59547 20.3845C8.82694 20.1531 9.20224 20.1531 9.4337 20.3845L10.7746 21.7255C11.0061 21.957 11.0061 22.3322 10.7746 22.5637C10.5431 22.7951 10.1678 22.7951 9.93637 22.5637L8.59547 21.2227C8.36401 20.9913 8.36401 20.616 8.59547 20.3845Z" fill="#FF7B02"/>
<path d="M12.8129 17.6836C13.1777 17.6836 13.4735 17.9794 13.4735 18.3442V24.6019C13.4735 24.9668 13.1777 25.2625 12.8129 25.2625H6.55516C6.19031 25.2625 5.89454 24.9668 5.89453 24.6019V18.3442C5.89453 17.9794 6.1903 17.6836 6.55516 17.6836H12.8129ZM7.21578 23.9413H12.1522V19.0048H7.21578V23.9413Z" fill="#FF7B02"/>
<path d="M0 28.7734V4.90963C0 3.12796 1.46024 1.68359 3.26148 1.68359H8.61815V3.07522H3.26148C2.23726 3.07522 1.40691 3.89654 1.40691 4.90963V28.7734C1.40691 29.7864 2.23726 30.6078 3.26148 30.6078H22.0017C23.0259 30.6078 23.8562 29.7864 23.8562 28.7734V4.90963C23.8562 3.89654 23.0259 3.07522 22.0017 3.07522H16.645V1.68359H22.0017C23.8029 1.68359 25.2632 3.12796 25.2632 4.90963V28.7734C25.2632 30.555 23.8029 31.9994 22.0017 31.9994H3.26148C1.46024 31.9994 0 30.555 0 28.7734Z" fill="white"/>
<path d="M8.84363 5.05469V6.42785H4.69462V28.1026H20.5661V6.42785H16.4171V5.05469H21.2298C21.5963 5.05469 21.8935 5.36208 21.8935 5.74127V28.7892C21.8935 29.1683 21.5963 29.4757 21.2298 29.4757H4.03091C3.66434 29.4757 3.36719 29.1683 3.36719 28.7892V5.74127C3.36719 5.36208 3.66434 5.05469 4.03091 5.05469H8.84363Z" fill="white"/>
<path d="M12.6324 0C13.7636 0 14.7073 0.839119 14.9254 1.95461H16.215C16.5618 1.95461 16.8429 2.24862 16.8429 2.6113V5.23805C16.8429 5.60072 16.5618 5.89474 16.215 5.89474H9.04982C8.70302 5.89474 8.42188 5.60072 8.42188 5.23805V2.6113C8.42188 2.24862 8.70302 1.95461 9.04982 1.95461H10.3394C10.5575 0.83912 11.5012 5.16938e-06 12.6324 0ZM12.6324 1.31337C12.0334 1.31338 11.5478 1.82118 11.5478 2.44765V2.6113C11.5478 2.97397 11.2666 3.26799 10.9198 3.26799H9.67776V4.58136H15.587V3.26799H14.345C13.9982 3.26798 13.717 2.97397 13.717 2.6113V2.44765C13.717 1.82118 13.2315 1.31337 12.6324 1.31337Z" fill="white"/>
<path d="M17.9157 19.3672C18.252 19.3672 18.5247 19.7442 18.5247 20.2093C18.5247 20.6744 18.252 21.0514 17.9157 21.0514H15.7652C15.4289 21.0514 15.1562 20.6744 15.1562 20.2093C15.1562 19.7442 15.4289 19.3672 15.7652 19.3672H17.9157Z" fill="white"/>
<path d="M18.713 22.7383C19.0741 22.7383 19.3668 22.9268 19.3668 23.1593C19.3668 23.3919 19.0741 23.5804 18.713 23.5804H15.81C15.4489 23.5804 15.1562 23.3919 15.1562 23.1593C15.1562 22.9268 15.4489 22.7383 15.81 22.7383H18.713Z" fill="white"/>
<path d="M17.9157 10.1055C18.252 10.1055 18.5247 10.4825 18.5247 10.9476C18.5247 11.4127 18.252 11.7897 17.9157 11.7897H15.7652C15.4289 11.7897 15.1562 11.4127 15.1562 10.9476C15.1562 10.4825 15.4289 10.1055 15.7652 10.1055H17.9157Z" fill="white"/>
<path d="M18.713 13.4727C19.0741 13.4727 19.3668 13.6612 19.3668 13.8937C19.3668 14.1262 19.0741 14.3148 18.713 14.3148H15.81C15.4489 14.3148 15.1562 14.1262 15.1562 13.8937C15.1562 13.6612 15.4489 13.4727 15.81 13.4727H18.713Z" fill="white"/>
</svg>
