<svg width="33" height="33" viewBox="0 0 33 33" fill="none" xmlns="http://www.w3.org/2000/svg">
<path d="M26.8125 19.25H24.0625V17.875C24.0625 17.6927 23.9901 17.5178 23.8611 17.3889C23.7322 17.2599 23.5573 17.1875 23.375 17.1875C23.1927 17.1875 23.0178 17.2599 22.8889 17.3889C22.7599 17.5178 22.6875 17.6927 22.6875 17.875V19.25H19.9375C19.7552 19.25 19.5803 19.3224 19.4514 19.4514C19.3224 19.5803 19.25 19.7552 19.25 19.9375C19.25 20.1198 19.3224 20.2947 19.4514 20.4236C19.5803 20.5526 19.7552 20.625 19.9375 20.625H25.0387C24.8704 21.793 24.2764 22.8576 23.3709 23.6142C22.8419 23.1725 22.4145 22.6219 22.1176 22C22.0807 21.9156 22.0273 21.8395 21.9604 21.7761C21.8936 21.7128 21.8147 21.6635 21.7284 21.6312C21.6422 21.599 21.5503 21.5844 21.4583 21.5883C21.3663 21.5922 21.276 21.6146 21.1928 21.654C21.1096 21.6935 21.0352 21.7493 20.9739 21.8181C20.9127 21.8869 20.8659 21.9673 20.8364 22.0545C20.8068 22.1418 20.7951 22.234 20.8019 22.3259C20.8087 22.4177 20.8339 22.5073 20.8759 22.5892C21.1955 23.2517 21.6322 23.851 22.165 24.3581C21.554 24.6183 20.8965 24.7517 20.2324 24.75C20.1434 24.7504 20.0553 24.7687 19.9734 24.8037C19.8916 24.8387 19.8175 24.8897 19.7557 24.9538C19.6938 25.0179 19.6455 25.0937 19.6134 25.1768C19.5813 25.2598 19.5662 25.3485 19.569 25.4375C19.5747 25.6223 19.6524 25.7976 19.7854 25.926C19.9184 26.0544 20.0964 26.1258 20.2812 26.125C21.3739 26.1246 22.4466 25.8327 23.3888 25.2794C24.3396 25.8304 25.4186 26.122 26.5176 26.125C26.6066 26.1246 26.6947 26.1063 26.7766 26.0713C26.8584 26.0363 26.9325 25.9853 26.9943 25.9212C27.0562 25.8571 27.1045 25.7813 27.1366 25.6982C27.1687 25.6152 27.1838 25.5265 27.181 25.4375C27.1753 25.2527 27.0976 25.0774 26.9646 24.949C26.8316 24.8206 26.6536 24.7492 26.4688 24.75C25.8256 24.7475 25.1895 24.6151 24.5987 24.3609C25.6227 23.3649 26.2693 22.0445 26.4282 20.625H26.8125C26.9948 20.625 27.1697 20.5526 27.2986 20.4236C27.4276 20.2947 27.5 20.1198 27.5 19.9375C27.5 19.7552 27.4276 19.5803 27.2986 19.4514C27.1697 19.3224 26.9948 19.25 26.8125 19.25Z" fill="white"/>
<path d="M9.62642 6.53125C9.49447 6.53129 9.36533 6.56929 9.25439 6.64073C9.14346 6.71217 9.05542 6.81402 9.0008 6.93413L5.5633 14.4966C5.49259 14.6618 5.48934 14.8481 5.55425 15.0156C5.61917 15.1831 5.74708 15.3186 5.91062 15.393C6.07415 15.4674 6.26031 15.4748 6.42925 15.4137C6.5982 15.3525 6.73649 15.2277 6.81455 15.0659L8.03761 12.375H11.2152L12.4383 15.0659C12.5163 15.2277 12.6546 15.3525 12.8236 15.4137C12.9925 15.4748 13.1787 15.4674 13.3422 15.393C13.5058 15.3186 13.6337 15.1831 13.6986 15.0156C13.7635 14.8481 13.7603 14.6618 13.6895 14.4966L10.252 6.93413C10.1974 6.81402 10.1094 6.71217 9.99845 6.64073C9.88752 6.56929 9.75837 6.53129 9.62642 6.53125ZM8.66392 11L9.62642 8.88044L10.5889 11H8.66392Z" fill="white"/>
<path d="M28.1875 13.75H18.5625C17.6512 13.7511 16.7774 14.1136 16.133 14.758C15.4886 15.4024 15.1261 16.2762 15.125 17.1875V26.8125C15.1261 27.7238 15.4886 28.5976 16.133 29.242C16.7774 29.8864 17.6512 30.2489 18.5625 30.25H28.1875C29.0988 30.2489 29.9726 29.8864 30.617 29.242C31.2614 28.5976 31.6239 27.7238 31.625 26.8125V17.1875C31.6239 16.2762 31.2614 15.4024 30.617 14.758C29.9726 14.1136 29.0988 13.7511 28.1875 13.75ZM30.25 26.8125C30.25 27.3595 30.0327 27.8841 29.6459 28.2709C29.2591 28.6577 28.7345 28.875 28.1875 28.875H18.5625C18.0155 28.875 17.4909 28.6577 17.1041 28.2709C16.7173 27.8841 16.5 27.3595 16.5 26.8125V17.1875C16.5 16.6405 16.7173 16.1159 17.1041 15.7291C17.4909 15.3423 18.0155 15.125 18.5625 15.125H28.1875C28.7345 15.125 29.2591 15.3423 29.6459 15.7291C30.0327 16.1159 30.25 16.6405 30.25 17.1875V26.8125Z" fill="white"/>
<path d="M16.5 6.1875V11.8594C16.5 12.0417 16.5724 12.2166 16.7014 12.3455C16.8303 12.4744 17.0052 12.5469 17.1875 12.5469C17.3698 12.5469 17.5447 12.4744 17.6736 12.3455C17.8026 12.2166 17.875 12.0417 17.875 11.8594V6.1875C17.8739 5.27615 17.5114 4.40245 16.867 3.75803C16.2226 3.11361 15.3488 2.75109 14.4375 2.75H4.8125C3.90115 2.75109 3.02745 3.11361 2.38303 3.75803C1.73861 4.40245 1.37609 5.27615 1.375 6.1875V15.8125C1.37609 16.7238 1.73861 17.5976 2.38303 18.242C3.02745 18.8864 3.90115 19.2489 4.8125 19.25H13.0625C13.2448 19.25 13.4197 19.1776 13.5486 19.0486C13.6776 18.9197 13.75 18.7448 13.75 18.5625C13.75 18.3802 13.6776 18.2053 13.5486 18.0764C13.4197 17.9474 13.2448 17.875 13.0625 17.875H4.8125C4.26549 17.875 3.74089 17.6577 3.35409 17.2709C2.9673 16.8841 2.75 16.3595 2.75 15.8125V6.1875C2.75 5.64049 2.9673 5.11589 3.35409 4.72909C3.74089 4.3423 4.26549 4.125 4.8125 4.125H14.4375C14.9845 4.125 15.5091 4.3423 15.8959 4.72909C16.2827 5.11589 16.5 5.64049 16.5 6.1875Z" fill="white"/>
<path d="M22.2013 8.7367C22.331 8.86193 22.5046 8.93123 22.6849 8.92966C22.8651 8.92809 23.0376 8.85579 23.165 8.72832C23.2925 8.60086 23.3648 8.42842 23.3664 8.24816C23.3679 8.0679 23.2986 7.89424 23.1734 7.76457L22.972 7.56314H26.1249C26.3072 7.56314 26.4821 7.63557 26.611 7.7645C26.7399 7.89343 26.8124 8.0683 26.8124 8.25064V10.3131C26.8124 10.4955 26.8848 10.6703 27.0137 10.7993C27.1426 10.9282 27.3175 11.0006 27.4999 11.0006C27.6822 11.0006 27.8571 10.9282 27.986 10.7993C28.1149 10.6703 28.1874 10.4955 28.1874 10.3131V8.25064C28.1874 7.70363 27.9701 7.17902 27.5833 6.79223C27.1965 6.40543 26.6719 6.18814 26.1249 6.18814H22.972L23.1734 5.9867C23.2391 5.92328 23.2915 5.84742 23.3275 5.76354C23.3635 5.67966 23.3825 5.58945 23.3833 5.49816C23.3841 5.40688 23.3667 5.31635 23.3321 5.23185C23.2975 5.14736 23.2465 5.0706 23.1819 5.00605C23.1174 4.9415 23.0406 4.89045 22.9561 4.85588C22.8716 4.82131 22.7811 4.80392 22.6898 4.80471C22.5985 4.80551 22.5083 4.82447 22.4245 4.8605C22.3406 4.89653 22.2647 4.94891 22.2013 5.01457L20.8263 6.38957C20.6974 6.5185 20.625 6.69334 20.625 6.87564C20.625 7.05794 20.6974 7.23277 20.8263 7.3617L22.2013 8.7367Z" fill="#FF7B02"/>
<path d="M10.7986 24.2639C10.6689 24.1387 10.4952 24.0694 10.315 24.071C10.1347 24.0725 9.96228 24.1448 9.83481 24.2723C9.70734 24.3998 9.63504 24.5722 9.63347 24.7525C9.63191 24.9327 9.7012 25.1064 9.82644 25.2361L10.0279 25.4375H6.875C6.69266 25.4375 6.5178 25.3651 6.38886 25.2361C6.25993 25.1072 6.1875 24.9323 6.1875 24.75V22.6875C6.1875 22.5052 6.11507 22.3303 5.98614 22.2014C5.8572 22.0724 5.68234 22 5.5 22C5.31766 22 5.1428 22.0724 5.01386 22.2014C4.88493 22.3303 4.8125 22.5052 4.8125 22.6875V24.75C4.8125 25.297 5.0298 25.8216 5.41659 26.2084C5.80339 26.5952 6.32799 26.8125 6.875 26.8125H10.0279L9.82644 27.0139C9.76077 27.0774 9.7084 27.1532 9.67237 27.2371C9.63634 27.321 9.61737 27.4112 9.61658 27.5025C9.61578 27.5938 9.63318 27.6843 9.66775 27.7688C9.70232 27.8533 9.75337 27.93 9.81792 27.9946C9.88247 28.0591 9.95923 28.1102 10.0437 28.1448C10.1282 28.1793 10.2187 28.1967 10.31 28.1959C10.4013 28.1951 10.4915 28.1762 10.5754 28.1401C10.6593 28.1041 10.7351 28.0517 10.7986 27.9861L12.1736 26.6111C12.3024 26.4821 12.3749 26.3073 12.3749 26.125C12.3749 25.9427 12.3024 25.7679 12.1736 25.6389L10.7986 24.2639Z" fill="#FF7B02"/>
</svg>
