<svg width="34" height="34" viewBox="0 0 34 34" fill="none" xmlns="http://www.w3.org/2000/svg">
<path d="M25.753 2.98438H7.92105C5.06718 2.98438 2.83203 5.20181 2.83203 8.03267V18.1671C2.83203 21.0015 5.06718 23.2222 7.92105 23.2222H10.1176C10.5646 23.2222 10.9272 22.8599 10.9272 22.4125C10.9272 21.9656 10.5649 21.6029 10.1176 21.6029H7.92105C5.97526 21.6029 4.45093 20.0938 4.45093 18.1668V8.03267C4.45093 6.10954 5.97526 4.60327 7.92105 4.60327H25.7526C27.8089 4.60327 29.5461 6.17365 29.5461 8.03267V10.2699C29.5461 10.7169 29.9084 11.0796 30.3557 11.0796C30.8031 11.0796 31.1654 10.7173 31.1654 10.2699V8.03267C31.1654 5.29637 28.6866 2.98438 25.753 2.98438Z" fill="white"/>
<path d="M15.8428 17.7381L20.0662 14.4454C20.5245 14.1047 20.7983 13.5699 20.7983 13.0146C20.7983 12.511 20.5691 12.0513 20.176 11.7594L15.8279 8.4501C15.535 8.23229 15.2039 8.11719 14.8702 8.11719C14.0209 8.11719 13.3555 8.85492 13.3555 9.79594V16.4033C13.3555 17.3443 14.0206 18.082 14.8702 18.082C15.2039 18.082 15.535 17.9669 15.8428 17.7381ZM14.9747 9.83525L19.179 13.0125C19.1815 13.033 19.162 13.101 19.0859 13.1577L14.9751 16.3583L14.9747 9.83525Z" fill="white"/>
<path d="M27.9633 23.3031C29.5932 23.3031 30.9192 21.9771 30.9192 20.3469C30.9192 18.7166 29.5932 17.3906 27.9633 17.3906C26.3334 17.3906 25.0074 18.7166 25.0074 20.3469C25.0074 20.5034 25.0301 20.6539 25.0538 20.8041L20.7581 23.3945L15.8997 20.4651C15.5161 20.2339 15.0189 20.3571 14.7883 20.7403C14.5574 21.1228 14.6806 21.6204 15.0635 21.8514L19.1906 24.3401L15.0635 26.8288C14.681 27.0597 14.5574 27.557 14.7883 27.9398C14.9406 28.192 15.208 28.3315 15.4825 28.3315C15.6248 28.3315 15.769 28.294 15.9 28.215L20.7585 25.2857L25.0276 27.8598C25.0234 27.9253 25.0078 27.988 25.0078 28.0542C25.0078 29.6845 26.3338 31.0105 27.9637 31.0105C29.5935 31.0105 30.9195 29.6845 30.9195 28.0542C30.9195 26.4244 29.5935 25.0984 27.9637 25.0984C26.989 25.0984 26.1298 25.5786 25.5911 26.3085L22.3264 24.3401L25.7448 22.2788C26.2863 22.9008 27.0751 23.3031 27.9633 23.3031ZM27.9633 19.0095C28.7003 19.0095 29.3003 19.6095 29.3003 20.3469C29.3003 21.0842 28.7007 21.6842 27.9633 21.6842C27.2263 21.6842 26.6263 21.0842 26.6263 20.3469C26.6263 19.6095 27.2259 19.0095 27.9633 19.0095ZM27.9633 26.7173C28.7003 26.7173 29.3003 27.3169 29.3003 28.0542C29.3003 28.7916 28.7007 29.3916 27.9633 29.3916C27.2263 29.3916 26.6263 28.7916 26.6263 28.0542C26.6263 27.3169 27.2259 26.7173 27.9633 26.7173Z" fill="#FF7B02"/>
</svg>
