<svg width="36" height="36" viewBox="0 0 36 36" fill="none" xmlns="http://www.w3.org/2000/svg">
<g clip-path="url(#clip0_30_12966)">
<path d="M33.6 7.19844C34.9236 7.19844 36 6.12204 36 4.79844C36 3.47484 34.9236 2.39844 33.6 2.39844C32.2764 2.39844 31.2 3.47484 31.2 4.79844C31.2 6.12204 32.2764 7.19844 33.6 7.19844ZM33.6 3.59844C34.2618 3.59844 34.8 4.13664 34.8 4.79844C34.8 5.46024 34.2618 5.99844 33.6 5.99844C32.9382 5.99844 32.4 5.46024 32.4 4.79844C32.4 4.13664 32.9382 3.59844 33.6 3.59844Z" fill="white"/>
<path d="M24.6 4.8C25.9236 4.8 27 3.7236 27 2.4C27 1.0764 25.9236 0 24.6 0C23.2764 0 22.2 1.0764 22.2 2.4C22.2 3.7236 23.2764 4.8 24.6 4.8ZM24.6 1.2C25.2618 1.2 25.8 1.7382 25.8 2.4C25.8 3.0618 25.2618 3.6 24.6 3.6C23.9382 3.6 23.4 3.0618 23.4 2.4C23.4 1.7382 23.9382 1.2 24.6 1.2Z" fill="white"/>
<path d="M2.40078 12.6008C3.72438 12.6008 4.80078 11.5244 4.80078 10.2008C4.80078 8.87718 3.72438 7.80078 2.40078 7.80078C1.07718 7.80078 0.000780582 8.87718 0.000780582 10.2008C0.000780582 11.5244 1.07718 12.6008 2.40078 12.6008ZM2.40078 9.00078C3.06258 9.00078 3.60078 9.53898 3.60078 10.2008C3.60078 10.8626 3.06258 11.4008 2.40078 11.4008C1.73898 11.4008 1.20078 10.8626 1.20078 10.2008C1.20078 9.53898 1.73898 9.00078 2.40078 9.00078Z" fill="white"/>
<path d="M10.2016 35.9992C11.5252 35.9992 12.6016 34.9228 12.6016 33.5992C12.6016 32.2756 11.5252 31.1992 10.2016 31.1992C8.87796 31.1992 7.80156 32.2756 7.80156 33.5992C7.80156 34.9228 8.87796 35.9992 10.2016 35.9992ZM10.2016 32.3992C10.8634 32.3992 11.4016 32.9374 11.4016 33.5992C11.4016 34.261 10.8634 34.7992 10.2016 34.7992C9.53976 34.7992 9.00156 34.261 9.00156 33.5992C9.00156 32.9374 9.53976 32.3992 10.2016 32.3992Z" fill="white"/>
<path d="M2.40078 29.4016C3.72438 29.4016 4.80078 28.3252 4.80078 27.0016C4.80078 25.678 3.72438 24.6016 2.40078 24.6016C1.07718 24.6016 0.000780582 25.678 0.000780582 27.0016C0.000780582 28.3252 1.07718 29.4016 2.40078 29.4016ZM2.40078 25.8016C3.06258 25.8016 3.60078 26.3398 3.60078 27.0016C3.60078 27.6634 3.06258 28.2016 2.40078 28.2016C1.73898 28.2016 1.20078 27.6634 1.20078 27.0016C1.20078 26.3398 1.73898 25.8016 2.40078 25.8016Z" fill="white"/>
<path d="M28.2016 34.1984C29.5252 34.1984 30.6016 33.122 30.6016 31.7984C30.6016 30.4748 29.5252 29.3984 28.2016 29.3984C26.878 29.3984 25.8016 30.4748 25.8016 31.7984C25.8016 33.122 26.878 34.1984 28.2016 34.1984ZM28.2016 30.5984C28.8634 30.5984 29.4016 31.1366 29.4016 31.7984C29.4016 32.4602 28.8634 32.9984 28.2016 32.9984C27.5398 32.9984 27.0016 32.4602 27.0016 31.7984C27.0016 31.1366 27.5398 30.5984 28.2016 30.5984Z" fill="white"/>
<path d="M33.6 26.9992C34.9236 26.9992 36 25.9228 36 24.5992C36 23.2756 34.9236 22.1992 33.6 22.1992C32.2764 22.1992 31.2 23.2756 31.2 24.5992C31.2 25.9228 32.2764 26.9992 33.6 26.9992ZM33.6 23.3992C34.2618 23.3992 34.8 23.9374 34.8 24.5992C34.8 25.261 34.2618 25.7992 33.6 25.7992C32.9382 25.7992 32.4 25.261 32.4 24.5992C32.4 23.9374 32.9382 23.3992 33.6 23.3992Z" fill="white"/>
<path d="M8.40078 4.8C9.72438 4.8 10.8008 3.7236 10.8008 2.4C10.8008 1.0764 9.72438 0 8.40078 0C7.07718 0 6.00078 1.0764 6.00078 2.4C6.00078 3.7236 7.07718 4.8 8.40078 4.8ZM8.40078 1.2C9.06258 1.2 9.60078 1.7382 9.60078 2.4C9.60078 3.0618 9.06258 3.6 8.40078 3.6C7.73898 3.6 7.20078 3.0618 7.20078 2.4C7.20078 1.7382 7.73898 1.2 8.40078 1.2Z" fill="white"/>
<path d="M18.0008 28.7992C23.9558 28.7992 28.8008 23.9542 28.8008 17.9992C28.8008 12.0442 23.9558 7.19922 18.0008 7.19922C12.0458 7.19922 7.20078 12.0442 7.20078 17.9992C7.20078 23.9542 12.0458 28.7992 18.0008 28.7992ZM18.0008 8.39922C23.2946 8.39922 27.6008 12.706 27.6008 17.9992C27.6008 23.2924 23.2946 27.5992 18.0008 27.5992C12.7076 27.5992 8.40078 23.2924 8.40078 17.9992C8.40078 12.706 12.7076 8.39922 18.0008 8.39922Z" fill="white"/>
<path d="M25.7992 12H28.7992C31.777 12 34.1992 9.5772 34.1992 6.6C34.1992 6.2688 33.9304 6 33.5992 6C33.268 6 32.9992 6.2688 32.9992 6.6C32.9992 8.916 31.1152 10.8 28.7992 10.8H25.7992C25.468 10.8 25.1992 11.0688 25.1992 11.4C25.1992 11.7312 25.468 12 25.7992 12Z" fill="white"/>
<path d="M21.6 32.4016H26.4C26.7312 32.4016 27 32.1328 27 31.8016C27 31.4704 26.7312 31.2016 26.4 31.2016H21.6C19.9458 31.2016 18.6 29.8558 18.6 28.2016C18.6 27.8704 18.3312 27.6016 18 27.6016C17.6688 27.6016 17.4 27.8704 17.4 28.2016C17.4 30.5176 19.284 32.4016 21.6 32.4016Z" fill="white"/>
<path d="M25.7984 25.2H31.7984C32.1296 25.2 32.3984 24.9312 32.3984 24.6C32.3984 24.2688 32.1296 24 31.7984 24H25.7984C25.4672 24 25.1984 24.2688 25.1984 24.6C25.1984 24.9312 25.4672 25.2 25.7984 25.2Z" fill="white"/>
<path d="M17.9984 4.80078C18.3296 4.80078 18.5984 4.53198 18.5984 4.20078C18.5984 3.53898 19.1366 3.00078 19.7984 3.00078H22.7984C23.1296 3.00078 23.3984 2.73198 23.3984 2.40078C23.3984 2.06958 23.1296 1.80078 22.7984 1.80078H19.7984C18.4748 1.80078 17.3984 2.87718 17.3984 4.20078C17.3984 4.53198 17.6672 4.80078 17.9984 4.80078Z" fill="white"/>
<path d="M18.0016 8.40156C18.3328 8.40156 18.6016 8.13276 18.6016 7.80156V4.20156C18.6016 3.87036 18.3328 3.60156 18.0016 3.60156C17.6704 3.60156 17.4016 3.87036 17.4016 4.20156V7.80156C17.4016 8.13276 17.6704 8.40156 18.0016 8.40156Z" fill="white"/>
<path d="M13.2008 9.60156C13.532 9.60156 13.8008 9.33276 13.8008 9.00156C13.8008 7.67796 12.7244 6.60156 11.4008 6.60156H9.60078C9.27018 6.60156 9.00078 6.33216 9.00078 6.00156V4.20156C9.00078 3.87036 8.73198 3.60156 8.40078 3.60156C8.06958 3.60156 7.80078 3.87036 7.80078 4.20156V6.00156C7.80078 6.99396 8.60838 7.80156 9.60078 7.80156H11.4008C12.0626 7.80156 12.6008 8.33976 12.6008 9.00156C12.6008 9.33276 12.8696 9.60156 13.2008 9.60156Z" fill="white"/>
<path d="M7.79844 18.5984C8.12964 18.5984 8.39844 18.3296 8.39844 17.9984C8.39844 16.6748 7.32204 15.5984 5.99844 15.5984H3.59844C3.26784 15.5984 2.99844 15.329 2.99844 14.9984V11.9984C2.99844 11.6672 2.72964 11.3984 2.39844 11.3984C2.06724 11.3984 1.79844 11.6672 1.79844 11.9984V14.9984C1.79844 15.9908 2.60604 16.7984 3.59844 16.7984H5.99844C6.66024 16.7984 7.19844 17.3366 7.19844 17.9984C7.19844 18.3296 7.46724 18.5984 7.79844 18.5984Z" fill="white"/>
<path d="M2.39859 25.8008C2.72979 25.8008 2.99859 25.532 2.99859 25.2008V23.4008C2.99859 23.0702 3.26799 22.8008 3.59859 22.8008H6.59859C7.84599 22.8008 8.68359 21.8366 8.68359 20.4008C8.68359 20.0696 8.41479 19.8008 8.08359 19.8008C7.75239 19.8008 7.48359 20.0696 7.48359 20.4008C7.48359 20.762 7.39719 21.6008 6.59859 21.6008H3.59859C2.60619 21.6008 1.79859 22.4084 1.79859 23.4008V25.2008C1.79859 25.532 2.06739 25.8008 2.39859 25.8008Z" fill="white"/>
<path d="M10.2008 30.5984C10.532 30.5984 10.8008 30.3296 10.8008 29.9984C10.8008 29.6678 11.0702 29.3984 11.4008 29.3984C12.7244 29.3984 13.8008 28.322 13.8008 26.9984C13.8008 26.6672 13.532 26.3984 13.2008 26.3984C12.8696 26.3984 12.6008 26.6672 12.6008 26.9984C12.6008 27.6602 12.0626 28.1984 11.4008 28.1984C10.4084 28.1984 9.60078 29.006 9.60078 29.9984C9.60078 30.3296 9.86958 30.5984 10.2008 30.5984Z" fill="white"/>
<path d="M10.2008 32.3984C10.532 32.3984 10.8008 32.1296 10.8008 31.7984V29.9984C10.8008 29.6672 10.532 29.3984 10.2008 29.3984C9.86958 29.3984 9.60078 29.6672 9.60078 29.9984V31.7984C9.60078 32.1296 9.86958 32.3984 10.2008 32.3984Z" fill="white"/>
<path d="M13.1984 24.5992H22.7984C23.1296 24.5992 23.3984 24.3304 23.3984 23.9992V16.7992C23.3984 16.468 23.1296 16.1992 22.7984 16.1992H13.1984C12.8672 16.1992 12.5984 16.468 12.5984 16.7992V23.9992C12.5984 24.3304 12.8672 24.5992 13.1984 24.5992ZM22.1984 23.3992H13.7984V17.3992H22.1984V23.3992Z" fill="#FF7B02"/>
<path d="M16.1984 22.2016H19.7984C20.1296 22.2016 20.3984 21.9328 20.3984 21.6016V19.2016C20.3984 18.8704 20.1296 18.6016 19.7984 18.6016H16.1984C15.8672 18.6016 15.5984 18.8704 15.5984 19.2016V21.6016C15.5984 21.9328 15.8672 22.2016 16.1984 22.2016ZM19.1984 21.0016H16.7984V19.8016H19.1984V21.0016Z" fill="#FF7B02"/>
<path d="M14.3992 17.3992H21.5992C21.9304 17.3992 22.1992 17.1304 22.1992 16.7992V14.3992C22.1992 12.0832 20.3152 10.1992 17.9992 10.1992C15.6832 10.1992 13.7992 12.0832 13.7992 14.3992V16.7992C13.7992 17.1304 14.068 17.3992 14.3992 17.3992ZM20.9992 16.1992H14.9992V14.3992C14.9992 12.745 16.345 11.3992 17.9992 11.3992C19.6534 11.3992 20.9992 12.745 20.9992 14.3992V16.1992Z" fill="#FF7B02"/>
<path d="M16.8008 17.4016H19.2008C19.532 17.4016 19.8008 17.1328 19.8008 16.8016V14.4016C19.8008 13.4092 18.9932 12.6016 18.0008 12.6016C17.0084 12.6016 16.2008 13.4092 16.2008 14.4016V16.8016C16.2008 17.1328 16.4696 17.4016 16.8008 17.4016ZM18.6008 16.2016H17.4008V14.4016C17.4008 14.071 17.6696 13.8016 18.0008 13.8016C18.332 13.8016 18.6008 14.071 18.6008 14.4016V16.2016Z" fill="#FF7B02"/>
</g>
<defs>
<clipPath id="clip0_30_12966">
<rect width="36" height="36" fill="white" transform="matrix(-1 0 0 1 36 0)"/>
</clipPath>
</defs>
</svg>
