<svg width="34" height="34" viewBox="0 0 34 34" fill="none" xmlns="http://www.w3.org/2000/svg">
<circle cx="17" cy="17" r="17" fill="#FF7B02"/>
<path d="M14.2524 26.8759C12.8182 26.2748 11.8556 25.4669 11.1378 24.3472C9.191 21.3834 9.78526 17.5491 12.5925 14.917C13.4538 14.1091 14.3753 13.363 15.2357 12.5335C16.6088 11.2279 17.1619 9.59038 16.8339 7.68366C16.8133 7.53859 16.8133 7.37269 16.7927 7C20.6649 10.1089 20.931 14.0883 20.214 18.4194C21.4841 17.7766 21.8121 17.0513 22.1401 14.2124C24.9062 18.2126 24.9878 25.3417 19.6197 27C20.9722 24.513 20.706 22.3788 18.554 20.5336C17.3861 19.5598 16.3203 18.5643 16.6278 16.7618C14.5391 18.3367 14.4781 20.5127 14.7848 22.8546C13.9037 22.316 13.7809 21.5906 13.6581 20.8028C12.8182 22.8337 12.5314 24.8438 14.2524 26.8757L14.2524 26.8759Z" fill="white"/>
</svg>
