<svg width="24" height="24" viewBox="0 0 24 24" fill="none" xmlns="http://www.w3.org/2000/svg">
<path d="M12 24C18.6274 24 24 18.6274 24 12C24 5.37258 18.6274 0 12 0C5.37258 0 0 5.37258 0 12C0 18.6274 5.37258 24 12 24Z" fill="url(#paint0_linear_30_21843)"/>
<path d="M23.9097 13.5172C23.3148 18.2244 19.9933 22.0817 15.5772 23.4547L8.69922 16.5809L17.8047 7.41406L23.9097 13.5172Z" fill="url(#paint1_linear_30_21843)"/>
<path d="M17.8317 7.44931L17.8013 7.41838C17.6439 7.26097 17.457 7.1361 17.2514 7.05091C17.0457 6.96572 16.8253 6.92187 16.6027 6.92188C16.3801 6.92187 16.1597 6.96572 15.954 7.05091C15.7484 7.1361 15.5615 7.26097 15.4041 7.41838L9.89441 12.9285L8.60206 11.6362C8.4427 11.4768 8.25351 11.3504 8.04527 11.2641C7.83704 11.1778 7.61386 11.1334 7.38847 11.1334C7.16308 11.1334 6.93989 11.1778 6.73166 11.2641C6.52343 11.3504 6.33423 11.4768 6.17487 11.6362C6.01541 11.7956 5.88891 11.9848 5.8026 12.1931C5.7163 12.4013 5.67188 12.6246 5.67188 12.85C5.67188 13.0755 5.7163 13.2987 5.8026 13.507C5.88891 13.7153 6.01541 13.9045 6.17487 14.0638L8.66534 16.5543L8.69581 16.5853C8.85317 16.7426 9.03999 16.8675 9.24561 16.9527C9.45122 17.0379 9.67161 17.0817 9.89417 17.0817C10.1167 17.0817 10.3371 17.0379 10.5427 16.9527C10.7484 16.8675 10.9352 16.7426 11.0925 16.5853L11.108 16.5698L17.8317 9.84556C18.1495 9.52779 18.328 9.09681 18.328 8.64744C18.328 8.19807 18.1495 7.76709 17.8317 7.44931Z" fill="white"/>
<defs>
<linearGradient id="paint0_linear_30_21843" x1="3.51469" y1="3.51469" x2="20.4853" y2="20.4853" gradientUnits="userSpaceOnUse">
<stop stop-color="#E67300"/>
<stop offset="1" stop-color="#FF9A35"/>
</linearGradient>
<linearGradient id="paint1_linear_30_21843" x1="13.2367" y1="11.982" x2="21.1127" y2="19.8584" gradientUnits="userSpaceOnUse">
<stop stop-color="#B34118"/>
<stop offset="0.93" stop-color="#B34C18" stop-opacity="0"/>
</linearGradient>
</defs>
</svg>
