<svg width="34" height="34" viewBox="0 0 34 34" fill="none" xmlns="http://www.w3.org/2000/svg">
<g clip-path="url(#clip0_30_7254)">
<path d="M13.2776 15.8945H11.2657V18.0794C8.11467 19.2461 8.87092 23.8775 12.2717 23.9419C13.6035 23.9917 13.6046 25.9033 12.2717 25.9537H9.25391V27.9655H11.2657V29.9774H13.2776V27.7925C16.4286 26.6258 15.6724 21.9944 12.2716 21.93C10.9398 21.8802 10.9387 19.9686 12.2717 19.9182H15.2894V17.9064H13.2776V15.8945Z" fill="#FF7B02"/>
<path d="M33.3964 23.9434H31.3845V19.9198H22.9189C19.2289 7.74045 1.48782 10.0701 1.20703 22.9376C1.20703 29.0388 6.17083 34.0026 12.2721 34.0026H31.3845V29.9789H33.3964V23.9434ZM29.3727 21.9316V23.9434H23.291C23.3526 23.2636 23.3526 22.612 23.291 21.9316H29.3727ZM3.21887 22.9375C3.21887 17.9455 7.28009 13.8843 12.2721 13.8843C24.266 14.3394 24.2627 31.5375 12.272 31.9908C7.28009 31.9908 3.21887 27.9295 3.21887 22.9375ZM29.3727 31.9908H18.6267C19.4382 31.4195 20.17 30.7423 20.8014 29.9789H29.3727V31.9908ZM31.3845 27.9671H22.1266C22.4533 27.3296 22.7198 26.6565 22.9189 25.9553H31.3845V27.9671Z" fill="white"/>
<path d="M18.02 5.92277L25.7455 12.8757H23.3372V14.8876H29.3727V8.85207H27.3609V11.623L18.5954 3.73403L9.48777 5.75787L1.81062 0L0.603516 1.60947L9.02096 7.9226L18.02 5.92277Z" fill="white"/>
</g>
<defs>
<clipPath id="clip0_30_7254">
<rect width="34" height="34" fill="white"/>
</clipPath>
</defs>
</svg>
