<svg width="34" height="34" viewBox="0 0 34 34" fill="none" xmlns="http://www.w3.org/2000/svg">
<path fill-rule="evenodd" clip-rule="evenodd" d="M32.2298 5.66927C32.2298 4.63652 31.819 3.64485 31.0894 2.91385C30.3584 2.18427 29.3667 1.77344 28.334 1.77344C22.9053 1.77344 11.096 1.77344 5.66732 1.77344C4.63457 1.77344 3.6429 2.18427 2.9119 2.91385C2.18232 3.64485 1.77148 4.63652 1.77148 5.66927V28.3359C1.77148 29.3687 2.18232 30.3604 2.9119 31.0914C3.6429 31.8209 4.63457 32.2318 5.66732 32.2318H28.334C29.3667 32.2318 30.3584 31.8209 31.0894 31.0914C31.819 30.3604 32.2298 29.3687 32.2298 28.3359V5.66927ZM30.1048 5.66927V28.3359C30.1048 28.8063 29.9178 29.2554 29.5863 29.5883C29.2534 29.9198 28.8043 30.1068 28.334 30.1068H5.66732C5.19698 30.1068 4.7479 29.9198 4.41498 29.5883C4.08348 29.2554 3.89648 28.8063 3.89648 28.3359V5.66927C3.89648 5.19894 4.08348 4.74985 4.41498 4.41694C4.7479 4.08544 5.19698 3.89844 5.66732 3.89844H28.334C28.8043 3.89844 29.2534 4.08544 29.5863 4.41694C29.9178 4.74985 30.1048 5.19894 30.1048 5.66927Z" fill="white"/>
<path fill-rule="evenodd" clip-rule="evenodd" d="M2.83398 10.9844H31.1673C31.7538 10.9844 32.2298 10.5084 32.2298 9.92188C32.2298 9.33537 31.7538 8.85938 31.1673 8.85938H2.83398C2.24748 8.85938 1.77148 9.33537 1.77148 9.92188C1.77148 10.5084 2.24748 10.9844 2.83398 10.9844Z" fill="white"/>
<path fill-rule="evenodd" clip-rule="evenodd" d="M6.375 7.4375H7.79167C8.37817 7.4375 8.85417 6.9615 8.85417 6.375C8.85417 5.7885 8.37817 5.3125 7.79167 5.3125H6.375C5.7885 5.3125 5.3125 5.7885 5.3125 6.375C5.3125 6.9615 5.7885 7.4375 6.375 7.4375Z" fill="white"/>
<path fill-rule="evenodd" clip-rule="evenodd" d="M11.334 7.4375H12.7507C13.3372 7.4375 13.8132 6.9615 13.8132 6.375C13.8132 5.7885 13.3372 5.3125 12.7507 5.3125H11.334C10.7475 5.3125 10.2715 5.7885 10.2715 6.375C10.2715 6.9615 10.7475 7.4375 11.334 7.4375Z" fill="white"/>
<path fill-rule="evenodd" clip-rule="evenodd" d="M16.293 7.4375H17.7096C18.2961 7.4375 18.7721 6.9615 18.7721 6.375C18.7721 5.7885 18.2961 5.3125 17.7096 5.3125H16.293C15.7065 5.3125 15.2305 5.7885 15.2305 6.375C15.2305 6.9615 15.7065 7.4375 16.293 7.4375Z" fill="white"/>
<path fill-rule="evenodd" clip-rule="evenodd" d="M9.95946 25.5474L13.7845 21.7238L18.8675 22.9945C19.2301 23.0852 19.6126 22.9789 19.8761 22.714L25.5428 17.0474C25.9579 16.6337 25.9579 15.9594 25.5428 15.5457C25.1291 15.1306 24.4548 15.1306 24.0411 15.5457L18.7995 20.7859L13.7165 19.5152C13.3538 19.4245 12.9713 19.5308 12.7078 19.7957L8.4578 24.0457C8.04271 24.4594 8.04271 25.1337 8.4578 25.5474C8.87146 25.9624 9.5458 25.9624 9.95946 25.5474Z" fill="#FF7B02"/>
<path fill-rule="evenodd" clip-rule="evenodd" d="M21.2501 17.4133L23.7462 17.3751L23.7845 19.8712C23.793 20.4577 24.2761 20.9267 24.8626 20.9182C25.4491 20.9097 25.918 20.4266 25.9095 19.8401L25.8557 16.2814C25.8472 15.6949 25.3641 15.226 24.7776 15.2345L21.2189 15.2883C20.6324 15.2968 20.1635 15.7799 20.172 16.3664C20.1805 16.9529 20.6636 17.4218 21.2501 17.4133Z" fill="#FF7B02"/>
</svg>
