<svg width="23" height="23" viewBox="0 0 23 23" fill="none" xmlns="http://www.w3.org/2000/svg">
<g clip-path="url(#clip0_30_14134)">
<path d="M13.3177 15.1226C12.7553 14.7302 12.1543 14.4105 11.5257 14.1662C12.3619 13.4062 12.9166 12.3416 13.0131 11.1498C14.2811 9.91425 15.9432 9.23691 17.725 9.23691C19.116 9.23691 20.4515 9.65577 21.5875 10.448C21.9946 10.732 22.5544 10.6323 22.8383 10.2252C23.1221 9.81826 23.0224 9.25832 22.6155 8.97457C22.0531 8.58221 21.4519 8.26267 20.8233 8.01823C21.746 7.17963 22.3261 5.97042 22.3261 4.62838C22.3261 2.10205 20.2709 0.046875 17.7446 0.046875C15.2185 0.046875 13.1633 2.10205 13.1633 4.62838C13.1633 5.96498 13.7387 7.1698 14.655 8.00805C14.5295 8.05631 14.4048 8.10737 14.2812 8.16177C13.719 8.40919 13.1905 8.71347 12.699 9.07073C12.0211 7.38669 10.3708 6.19486 8.44701 6.19486C5.92085 6.19486 3.8655 8.25003 3.8655 10.7762C3.8655 12.1091 4.43773 13.3106 5.34915 14.1485C2.91232 15.0615 0.936454 17.0224 0.132071 19.5233C-0.134652 20.3526 0.00660606 21.2321 0.519698 21.9363C1.03279 22.6403 1.82664 23.0441 2.69771 23.0441H10.5132C11.0093 23.0441 11.4115 22.6419 11.4115 22.1456C11.4115 21.6496 11.0093 21.2474 10.5132 21.2474H2.69771C2.4073 21.2474 2.14268 21.1128 1.97159 20.878C1.8005 20.6432 1.75347 20.35 1.84226 20.0734C2.73017 17.3128 5.43812 15.3849 8.42736 15.3849C9.81818 15.3849 11.1539 15.8038 12.2899 16.596C12.6969 16.8799 13.2568 16.7801 13.5407 16.3732C13.8245 15.9662 13.7248 15.4063 13.3177 15.1226ZM17.7446 1.84358C19.2802 1.84358 20.5294 3.09279 20.5294 4.62838C20.5294 6.1638 19.2802 7.41319 17.7446 7.41319C16.2092 7.41319 14.9598 6.1638 14.9598 4.62838C14.9598 3.09279 16.2092 1.84358 17.7446 1.84358ZM8.44701 7.99138C9.9826 7.99138 11.2318 9.24077 11.2318 10.7762C11.2318 12.3118 9.9826 13.561 8.44701 13.561C6.91142 13.561 5.6622 12.3118 5.6622 10.7762C5.6622 9.24077 6.91142 7.99138 8.44701 7.99138ZM22.9999 18.777C22.9999 19.2731 22.5978 19.6753 22.1015 19.6753H19.6312V22.1456C19.6312 22.6419 19.229 23.0441 18.7329 23.0441C18.2366 23.0441 17.8345 22.6419 17.8345 22.1456V19.6753H15.3641C14.868 19.6753 14.4658 19.2731 14.4658 18.777C14.4658 18.2808 14.868 17.8786 15.3641 17.8786H17.8345V15.4082C17.8345 14.9122 18.2366 14.51 18.7329 14.51C19.229 14.51 19.6312 14.9122 19.6312 15.4082V17.8786H22.1015C22.5978 17.8786 22.9999 18.2808 22.9999 18.777Z" fill="white"/>
<path d="M23.4742 18.7768C23.4742 19.2729 23.072 19.675 22.5758 19.675H20.1054V22.1454C20.1054 22.6416 19.7032 23.0438 19.2072 23.0438C18.7109 23.0438 18.3087 22.6416 18.3087 22.1454V19.675H15.8384C15.3423 19.675 14.9401 19.2729 14.9401 18.7768C14.9401 18.2805 15.3423 17.8783 15.8384 17.8783H18.3087V15.408C18.3087 14.9119 18.7109 14.5097 19.2072 14.5097C19.7032 14.5097 20.1054 14.9119 20.1054 15.408V17.8783H22.5758C23.072 17.8783 23.4742 18.2805 23.4742 18.7768Z" fill="#FF7B02"/>
</g>
<defs>
<clipPath id="clip0_30_14134">
<rect width="23" height="23" fill="white"/>
</clipPath>
</defs>
</svg>
