<svg width="28" height="28" viewBox="0 0 28 28" fill="none" xmlns="http://www.w3.org/2000/svg">
<path d="M26.25 14C26.25 11.8956 25.27 9.96844 23.6009 8.7325C23.6162 8.5925 23.625 8.4525 23.625 8.3125C23.625 6.25187 22.0347 4.55656 20.0178 4.38812C19.6328 2.87437 18.2569 1.75 16.625 1.75C15.5794 1.75 14.6409 2.21375 14 2.94219C13.3591 2.21375 12.4206 1.75 11.375 1.75C9.74312 1.75 8.36719 2.87437 7.98219 4.38812C5.96531 4.55656 4.375 6.25187 4.375 8.3125C4.375 8.4525 4.38375 8.5925 4.39906 8.7325C2.73 9.96844 1.75 11.8956 1.75 14C1.75 16.1044 2.73 18.0316 4.39906 19.2675C4.38375 19.4075 4.375 19.5475 4.375 19.6875C4.375 21.7481 5.96531 23.4434 7.98219 23.6119C8.36719 25.1256 9.74312 26.25 11.375 26.25C12.4206 26.25 13.3591 25.7863 14 25.0578C14.6409 25.7863 15.5794 26.25 16.625 26.25C18.2569 26.25 19.6328 25.1256 20.0178 23.6119C22.0347 23.4434 23.625 21.7481 23.625 19.6875C23.625 19.5475 23.6162 19.4075 23.6009 19.2675C25.27 18.0316 26.25 16.1044 26.25 14ZM22.1791 18.1169L21.6103 18.4625L21.7919 19.1034C21.8466 19.2981 21.875 19.495 21.875 19.6875C21.875 20.8928 20.8928 21.875 19.6875 21.875C19.5781 21.875 19.4578 21.8597 19.3659 21.8487L18.3728 21.7131V22.715V22.7763C18.3597 23.73 17.5787 24.5 16.6228 24.5C15.6669 24.5 14.8728 23.7147 14.8728 22.75V20.125H13.1228V22.75C13.1228 23.7147 12.3375 24.5 11.3728 24.5C10.4081 24.5 9.63813 23.73 9.62281 22.7784V21.7131L8.63188 21.8487C8.54 21.8619 8.41969 21.875 8.31031 21.875C7.105 21.875 6.12281 20.8928 6.12281 19.6875C6.12281 19.495 6.15125 19.2981 6.20594 19.1034L6.3875 18.4625L5.81875 18.1169C4.36625 17.2353 3.49781 15.6953 3.49781 14C3.49781 12.3047 4.36406 10.7647 5.81875 9.88313L6.3875 9.5375L6.20594 8.89656C6.15125 8.70187 6.12281 8.505 6.12281 8.3125C6.12281 7.10719 7.105 6.125 8.31031 6.125C8.41969 6.125 8.54 6.14031 8.63188 6.15125L9.625 6.28687V5.285C9.625 5.26531 9.625 5.24562 9.625 5.22375C9.63812 4.27 10.4191 3.5 11.375 3.5C12.3309 3.5 13.125 4.28531 13.125 5.25V7H14.875V5.25C14.875 4.28531 15.6603 3.5 16.625 3.5C17.5897 3.5 18.3597 4.27 18.375 5.22156V6.28687L19.3659 6.15125C19.4578 6.13813 19.5781 6.125 19.6875 6.125C20.8928 6.125 21.875 7.10719 21.875 8.3125C21.875 8.505 21.8466 8.70187 21.7919 8.89656L21.6103 9.5375L22.1791 9.88313C23.6316 10.7647 24.5 12.3047 24.5 14C24.5 15.6953 23.6337 17.2353 22.1791 18.1169Z" fill="white"/>
<path d="M11.8125 8.75C10.1238 8.75 8.75 10.1238 8.75 11.8125V18.375H10.5V14.875H13.125V18.375H14.875V11.8125C14.875 10.1238 13.5012 8.75 11.8125 8.75ZM10.5 13.125V11.8125C10.5 11.0884 11.0884 10.5 11.8125 10.5C12.5366 10.5 13.125 11.0884 13.125 11.8125V13.125H10.5Z" fill="#FF7B02"/>
<path d="M15.75 10.5H16.625V16.625H15.75V18.375H19.25V16.625H18.375V10.5H19.25V8.75H15.75V10.5Z" fill="#FF7B02"/>
</svg>
