<svg width="24" height="24" viewBox="0 0 24 24" fill="none" xmlns="http://www.w3.org/2000/svg">
<g clip-path="url(#clip0_30_14208)">
<path d="M21.1875 18.375H20.3733C20.6381 16.2209 21.1875 11.6569 21.1875 10.875C21.1875 8.80725 19.5052 7.125 17.4375 7.125C15.3698 7.125 13.6875 8.80725 13.6875 10.875C13.6875 11.6569 14.2369 16.2209 14.5017 18.375H13.6875C12.1367 18.375 10.875 19.6367 10.875 21.1875V23.0625C10.875 23.5803 11.2947 24 11.8125 24H23.0625C23.5803 24 24 23.5803 24 23.0625V21.1875C24 19.6367 22.7383 18.375 21.1875 18.375ZM15.5625 10.875C15.5625 9.84113 16.4036 9 17.4375 9C18.4714 9 19.3125 9.84113 19.3125 10.875C19.3125 11.46 18.8402 15.4874 18.4842 18.375H16.3908C16.0348 15.4874 15.5625 11.46 15.5625 10.875ZM22.125 22.125H12.75V21.1875C12.75 20.6706 13.1706 20.25 13.6875 20.25H21.1875C21.7044 20.25 22.125 20.6706 22.125 21.1875V22.125Z" fill="#FF7B02"/>
<path d="M8.0625 22.125H1.875V1.875H16.5V4.3125C16.5 4.83028 16.9197 5.25 17.4375 5.25C17.9553 5.25 18.375 4.83028 18.375 4.3125V0.9375C18.375 0.419719 17.9553 0 17.4375 0H0.9375C0.419719 0 0 0.419719 0 0.9375V23.0625C0 23.5803 0.419719 24 0.9375 24H8.0625C8.58028 24 9 23.5803 9 23.0625C9 22.5447 8.58028 22.125 8.0625 22.125Z" fill="white"/>
<path d="M10.4933 4.58709L8.34374 6.73668L7.6004 5.99334C7.23426 5.6272 6.64068 5.6272 6.27459 5.99334C5.90849 6.35948 5.90845 6.95306 6.27459 7.31915L7.68084 8.7254C7.86388 8.90845 8.10379 8.99999 8.34374 8.99999C8.5837 8.99999 8.8236 8.90845 9.00665 8.7254L11.8192 5.9129C12.1853 5.54676 12.1853 4.95318 11.8192 4.58709C11.453 4.22099 10.8594 4.22095 10.4933 4.58709Z" fill="white"/>
<path d="M9.9375 12.75H4.6875C4.16972 12.75 3.75 13.1697 3.75 13.6875C3.75 14.2053 4.16972 14.625 4.6875 14.625H9.9375C10.4553 14.625 10.875 14.2053 10.875 13.6875C10.875 13.1697 10.4553 12.75 9.9375 12.75Z" fill="white"/>
<path d="M8.0625 16.5H4.6875C4.16972 16.5 3.75 16.9197 3.75 17.4375C3.75 17.9553 4.16972 18.375 4.6875 18.375H8.0625C8.58028 18.375 9 17.9553 9 17.4375C9 16.9197 8.58028 16.5 8.0625 16.5Z" fill="white"/>
</g>
<defs>
<clipPath id="clip0_30_14208">
<rect width="24" height="24" fill="white"/>
</clipPath>
</defs>
</svg>
