<svg width="32" height="32" viewBox="0 0 32 32" fill="none" xmlns="http://www.w3.org/2000/svg">
<path d="M4.3 19.11C3.9 19.77 3.68 20.53 3.68 21.31C3.68 23.65 5.585 25.555 7.925 25.555C8.145 25.555 8.365 25.53 8.585 25.495C9.115 27.235 10.735 28.5 12.645 28.5C14.985 28.5 16.89 26.595 16.89 24.255C16.89 23.795 16.815 23.355 16.68 22.94C16.775 22.975 16.885 23 17 23H18.585L22.29 26.705C22.48 26.895 22.735 27 23 27H26.5C27.05 27 27.5 26.55 27.5 26C27.5 25.45 27.05 25 26.5 25H23.415L19.71 21.295C19.52 21.105 19.265 21 19 21H17C16.96 21 16.925 21.005 16.885 21.01V19.985C16.925 19.995 16.96 20 17 20H20.085L23.29 23.205C23.48 23.395 23.735 23.5 24 23.5H25C25.55 23.5 26 23.05 26 22.5C26 21.95 25.55 21.5 25 21.5H24.415L21.21 18.295C21.02 18.105 20.765 18 20.5 18H17C16.96 18 16.925 18.005 16.885 18.01V16.985C16.925 16.995 16.96 17 17 17H22.315L25.27 20.18C25.455 20.385 25.72 20.5 26 20.5H27.5C28.05 20.5 28.5 20.05 28.5 19.5C28.5 18.95 28.05 18.5 27.5 18.5H26.435L25.04 17H28C28.55 17 29 16.55 29 16C29 15.45 28.55 15 28 15H25.045L26.44 13.5H27.5C28.05 13.5 28.5 13.05 28.5 12.5C28.5 11.95 28.05 11.5 27.5 11.5H26C25.72 11.5 25.455 11.615 25.265 11.82L22.315 15H17C16.96 15 16.925 15.005 16.885 15.01V13.985C16.925 13.995 16.96 14 17 14H20.5C20.765 14 21.02 13.895 21.205 13.705L24.415 10.5H25C25.55 10.5 26 10.05 26 9.5C26 8.95 25.55 8.5 25 8.5H24C23.735 8.5 23.48 8.605 23.295 8.795L20.085 12H17C16.96 12 16.925 12.005 16.885 12.01V10.985C16.925 10.995 16.96 11 17 11H19C19.265 11 19.52 10.895 19.705 10.705L23.415 7H26.5C27.05 7 27.5 6.55 27.5 6C27.5 5.45 27.05 5 26.5 5H23C22.735 5 22.48 5.105 22.295 5.295L18.585 9H17C16.96 9 16.925 9.005 16.885 9.01V8.035C16.885 7.985 16.875 7.935 16.87 7.89C16.875 7.84 16.885 7.795 16.885 7.745C16.885 5.405 14.98 3.5 12.64 3.5C10.54 3.5 8.795 5.035 8.46 7.04C6.145 7.07 4.27 8.96 4.27 11.28C4.27 11.57 4.305 11.86 4.36 12.135C3.2 12.925 2.5 14.225 2.5 15.645C2.5 17.075 3.21 18.34 4.3 19.11ZM5.81 14.555C5.995 14.71 6.22 14.785 6.445 14.785C6.735 14.785 7.02 14.66 7.215 14.42C7.565 13.995 7.505 13.365 7.08 13.01C6.56 12.58 6.265 11.95 6.265 11.28C6.265 10.045 7.27 9.035 8.51 9.035C8.54 9.035 8.565 9.03 8.595 9.025C9.14 10.74 10.745 11.98 12.64 11.98C13.19 11.98 13.64 11.53 13.64 10.98C13.64 10.43 13.19 9.98 12.64 9.98C11.405 9.98 10.395 8.975 10.395 7.735C10.395 6.495 11.405 5.5 12.64 5.5C13.875 5.5 14.885 6.505 14.885 7.745C14.885 7.795 14.895 7.845 14.9 7.89C14.895 7.94 14.885 7.985 14.885 8.035V15.735C14.525 15.68 14.25 15.37 14.25 14.995C14.25 14.445 13.8 13.995 13.25 13.995C12.7 13.995 12.25 14.445 12.25 14.995C12.25 16.47 13.42 17.68 14.885 17.74V20.655C14.235 20.245 13.465 20.005 12.64 20.005C12.09 20.005 11.64 20.455 11.64 21.005C11.64 21.555 12.09 22.005 12.64 22.005C13.875 22.005 14.885 23.01 14.885 24.25C14.885 25.49 13.88 26.5 12.64 26.5C11.4 26.5 10.395 25.495 10.395 24.255C10.395 24.24 10.39 24.225 10.39 24.21C10.39 24.05 10.36 23.89 10.285 23.74C10.035 23.25 9.43 23.055 8.94 23.305C8.625 23.465 8.28 23.55 7.92 23.55C6.685 23.55 5.675 22.545 5.675 21.305C5.675 20.775 5.85 20.285 6.185 19.88C6.19 19.87 6.195 19.86 6.205 19.85C6.38 19.87 6.555 19.885 6.74 19.885C9.08 19.885 10.985 17.98 10.985 15.64C10.985 15.09 10.535 14.64 9.985 14.64C9.435 14.64 8.985 15.09 8.985 15.64C8.985 16.875 7.98 17.885 6.74 17.885C5.5 17.885 4.5 16.885 4.5 15.645C4.5 14.995 4.775 14.4 5.245 13.98C5.415 14.185 5.6 14.38 5.81 14.555Z" fill="white"/>
<path d="M29 16H17" stroke="#FF7B02" stroke-width="2"/>
</svg>
