<svg width="25" height="25" viewBox="0 0 25 25" fill="none" xmlns="http://www.w3.org/2000/svg">
<path d="M22.2705 17.2051C22.8099 17.2051 23.2471 16.7679 23.2471 16.2286V5.69077C23.2471 4.64736 22.8407 3.66636 22.1029 2.92866L20.3185 1.14409C19.5807 0.406299 18.5998 0 17.5563 0H7.70601C5.5521 0 3.79976 1.75234 3.79976 3.90625V11.6529L3.64033 11.7111C2.88643 11.9862 2.27823 12.5708 1.97163 13.3151C1.66192 14.0671 1.6835 14.922 2.03081 15.6607C2.37813 16.3994 3.02276 16.9614 3.79947 17.2025C3.79956 17.2025 3.79966 17.2025 3.79976 17.2026V21.0938C3.79976 23.2477 5.5521 25 7.70601 25H19.3408C21.4821 25 23.2344 23.2582 23.247 21.1171C23.2502 20.5778 22.8155 20.138 22.2762 20.1348H22.2703C21.7337 20.1348 21.2971 20.5683 21.2939 21.1056C21.2876 22.176 20.4114 23.0469 19.3408 23.0469H7.70601C6.62906 23.0469 5.75288 22.1707 5.75288 21.0938V17.1126C5.87154 17.0634 5.98731 17.0061 6.09922 16.9406L10.6233 14.295L11.0151 15.1282C10.7772 15.4109 10.7106 15.817 10.8782 16.1733C11.0445 16.5271 11.3959 16.7346 11.7626 16.7346C11.9018 16.7346 12.0432 16.7047 12.1774 16.6415L19.3379 13.2746C19.826 13.0452 20.0356 12.4634 19.8061 11.9753C19.6386 11.6191 19.2834 11.4112 18.9139 11.4142L16.0707 5.36728C16.3086 5.08462 16.3751 4.67847 16.2076 4.32217C15.9781 3.83413 15.3964 3.62451 14.9083 3.854L7.74785 7.2209C7.25977 7.45034 7.05015 8.03208 7.27964 8.52017C7.446 8.87393 7.79737 9.0814 8.16402 9.0814C8.1666 9.0814 8.16924 9.0814 8.17183 9.08135L8.56363 9.91455L5.75288 10.9402V3.90625C5.75288 2.8293 6.62906 1.95312 7.70601 1.95312H17.5563C18.078 1.95312 18.5685 2.15625 18.9374 2.52515L20.7219 4.30972C21.0908 4.67861 21.2939 5.16909 21.2939 5.69077V16.2286C21.2939 16.7679 21.7312 17.2051 22.2705 17.2051ZM12.7447 14.2165L9.9772 8.33081L14.3411 6.27891L17.1086 12.1646L12.7447 14.2165ZM9.78887 12.5203L5.11328 15.2546C4.8895 15.3855 4.62857 15.4148 4.37862 15.3372C4.12066 15.2571 3.91455 15.0769 3.79834 14.8296C3.68208 14.5824 3.67471 14.3087 3.77759 14.0589C3.87725 13.8169 4.06626 13.6347 4.30982 13.5458L9.39805 11.6891L9.78887 12.5203Z" fill="white"/>
<path d="M18.9351 18.9453H11.7441C11.2048 18.9453 10.7676 19.3825 10.7676 19.9219C10.7676 20.4612 11.2048 20.8984 11.7441 20.8984H18.9351C19.4744 20.8984 19.9116 20.4612 19.9116 19.9219C19.9116 19.3825 19.4744 18.9453 18.9351 18.9453Z" fill="#FF7B02"/>
</svg>
