<svg width="26" height="26" viewBox="0 0 26 26" fill="none" xmlns="http://www.w3.org/2000/svg">
<g clip-path="url(#clip0_30_14222)">
<path d="M9.73633 4.78516C10.157 4.78516 10.498 4.44412 10.498 4.02344C10.498 3.60275 10.157 3.26172 9.73633 3.26172C9.31564 3.26172 8.97461 3.60275 8.97461 4.02344C8.97461 4.44412 9.31564 4.78516 9.73633 4.78516Z" fill="white"/>
<path d="M13 4.78516C13.4207 4.78516 13.7617 4.44412 13.7617 4.02344C13.7617 3.60275 13.4207 3.26172 13 3.26172C12.5793 3.26172 12.2383 3.60275 12.2383 4.02344C12.2383 4.44412 12.5793 4.78516 13 4.78516Z" fill="white"/>
<path d="M16.2637 4.78516C16.6844 4.78516 17.0254 4.44412 17.0254 4.02344C17.0254 3.60275 16.6844 3.26172 16.2637 3.26172C15.843 3.26172 15.502 3.60275 15.502 4.02344C15.502 4.44412 15.843 4.78516 16.2637 4.78516Z" fill="white"/>
<path d="M4.8418 13.7617C5.26247 13.7617 5.60352 13.4207 5.60352 13V11.3141H12.2389V13C12.2389 13.4207 12.58 13.7617 13.0007 13.7617C13.4213 13.7617 13.7624 13.4207 13.7624 13V11.3141H20.3978V13C20.3978 13.4207 20.7389 13.7617 21.1595 13.7617C21.5802 13.7617 21.9213 13.4207 21.9213 13V10.5523C21.9213 10.1317 21.5802 9.79063 21.1595 9.79063H13.7624V8.0505H19.5277C19.9484 8.0505 20.2895 7.70946 20.2895 7.28879V0.761719C20.2895 0.341047 19.9484 0 19.5277 0H6.4736C6.05293 0 5.71188 0.341047 5.71188 0.761719V7.28879C5.71188 7.70946 6.05293 8.0505 6.4736 8.0505H12.2389V9.79063H4.8418C4.42112 9.79063 4.08008 10.1317 4.08008 10.5523V13C4.08008 13.4207 4.42112 13.7617 4.8418 13.7617ZM7.23532 1.52344H18.766V6.52707H7.23532V1.52344Z" fill="#FF7B02"/>
<path d="M23.4399 20.9643C24.0133 20.3842 24.3682 19.5876 24.3682 18.7094C24.3682 16.9397 22.9284 15.5 21.1588 15.5C19.3892 15.5 17.9495 16.9398 17.9495 18.7094C17.9495 19.5875 18.3043 20.3841 18.8776 20.9641C18.1447 21.3557 17.5255 21.9308 17.0795 22.6275C16.6334 21.9309 16.0141 21.3559 15.281 20.9643C15.8545 20.3842 16.2094 19.5876 16.2094 18.7094C16.2094 16.9397 14.7696 15.5 13 15.5C11.2304 15.5 9.79068 16.9398 9.79068 18.7094C9.79068 19.5875 10.1454 20.3841 10.7188 20.9641C9.98593 21.3557 9.3667 21.9308 8.92064 22.6275C8.47458 21.9309 7.8553 21.3559 7.12222 20.9643C7.6957 20.3842 8.05055 19.5876 8.05055 18.7094C8.05055 16.9397 6.6108 15.5 4.84118 15.5C3.07155 15.5 1.63186 16.9398 1.63186 18.7094C1.63186 19.5875 1.98661 20.3841 2.55998 20.9641C1.03502 21.779 0 23.3862 0 25.2364C0 25.6571 0.341047 25.9982 0.761719 25.9982H25.2383C25.659 25.9982 26 25.6571 26 25.2364V25.2356C26 23.3859 24.9651 21.7792 23.4399 20.9643ZM4.84113 17.0234C5.77078 17.0234 6.52707 17.7798 6.52707 18.7094C6.52707 19.639 5.77073 20.3953 4.84113 20.3953C3.91153 20.3953 3.15524 19.639 3.15524 18.7094C3.15524 17.7797 3.91153 17.0234 4.84113 17.0234ZM1.61058 24.4747C1.79552 23.6825 2.68201 21.9187 4.84199 21.9187C7.00009 21.9187 7.88689 23.6829 8.07178 24.4747H1.61058ZM13 17.0234C13.9297 17.0234 14.6859 17.7798 14.6859 18.7094C14.6859 19.639 13.9296 20.3953 13 20.3953C12.0704 20.3953 11.3141 19.639 11.3141 18.7094C11.3141 17.7797 12.0704 17.0234 13 17.0234ZM9.7694 24.4747C9.95434 23.6825 10.8408 21.9187 13.0008 21.9187C15.1589 21.9187 16.0457 23.6829 16.2306 24.4747H9.7694ZM21.1588 17.0234C22.0885 17.0234 22.8448 17.7798 22.8448 18.7094C22.8448 19.639 22.0884 20.3953 21.1588 20.3953C20.2292 20.3953 19.4729 19.639 19.4729 18.7094C19.4729 17.7797 20.2292 17.0234 21.1588 17.0234ZM17.9283 24.4747C18.1132 23.6825 18.9997 21.9187 21.1597 21.9187C23.3178 21.9187 24.2046 23.6829 24.3895 24.4747H17.9283Z" fill="white"/>
</g>
<defs>
<clipPath id="clip0_30_14222">
<rect width="26" height="26" fill="white"/>
</clipPath>
</defs>
</svg>
