<svg width="32" height="32" viewBox="0 0 32 32" fill="none" xmlns="http://www.w3.org/2000/svg">
<path d="M7 15.8954V9H8V14.3553C8.5708 13.6489 9.24384 13.0289 10 12.5217V4H11V11.9495C11.6292 11.6356 12.2981 11.3918 13 11.2318V7H14V11.059C14.3287 11.0224 14.6617 11 15 11C15.3383 11 15.6713 11.0224 16 11.059V6C16 5.44727 15.5527 5 15 5H13V3C13 2.44727 12.5527 2 12 2H9C8.44727 2 8 2.44727 8 3V7H6C5.44727 7 5 7.44727 5 8V11H3C2.44727 11 2 11.4473 2 12V17C2 17.5527 2.44727 18 3 18H6.23175C6.40063 17.2595 6.66052 16.5544 7 15.8954ZM5 16H4V13H5V16Z" fill="white"/>
<path d="M22.9567 19.1708C22.5404 15.1479 19.1311 12 15 12C10.8689 12 7.45959 15.1479 7.04327 19.1708C5.85956 19.5726 5 20.6821 5 22V23C5 24.6543 6.3457 26 8 26H9C9.55273 26 10 25.5527 10 25V20C10 19.4783 9.59711 19.0641 9.08765 19.0176C9.55865 16.1759 12.0267 14 15 14C17.9733 14 20.4413 16.1759 20.9124 19.0176C20.4029 19.0641 20 19.4783 20 20V25C20 25.5527 20.4473 26 21 26C21 27.1025 20.1025 28 19 28H17C17 27.4473 16.5527 27 16 27H14C13.4473 27 13 27.4473 13 28V29C13 29.5527 13.4473 30 14 30H19C21.2061 30 23 28.2061 23 26V25.8157C24.1615 25.4016 25 24.3019 25 23V22C25 20.6821 24.1404 19.5726 22.9567 19.1708ZM8 24C7.44824 24 7 23.5518 7 23V22C7 21.4482 7.44824 21 8 21V24ZM23 23C23 23.5518 22.5518 24 22 24V21C22.5518 21 23 21.4482 23 22V23Z" fill="white"/>
<path d="M24 2C20.6914 2 18 4.69141 18 8C18 11.3086 20.6914 14 24 14C27.3086 14 30 11.3086 30 8C30 4.69141 27.3086 2 24 2ZM25 4.14197C26.399 4.50549 27.4945 5.60101 27.858 7H25V4.14197ZM24 12C21.7939 12 20 10.2061 20 8C20 6.1413 21.2795 4.58905 23 4.14197V8C23 8.55273 23.4473 9 24 9H27.858C27.4109 10.7205 25.8587 12 24 12Z" fill="#FF7B02"/>
</svg>
