<svg width="24" height="24" viewBox="0 0 24 24" fill="none" xmlns="http://www.w3.org/2000/svg">
<g clip-path="url(#clip0_30_14264)">
<path d="M16.4999 24H7.49992C6.25736 23.9539 6.2583 22.1707 7.49992 22.125H16.4999C17.7424 22.1711 17.7415 23.9543 16.4999 24ZM18.3749 20.25H5.62399C2.5229 20.25 0 17.7271 0 14.626V6.93757C0 3.83595 2.52336 1.31259 5.62498 1.31259H8.67184C9.9144 1.35867 9.91346 3.14193 8.67184 3.18758H5.62498C3.55724 3.18758 1.87499 4.86983 1.87499 6.93757V14.626C1.87499 16.6932 3.55681 18.375 5.62399 18.375H18.3749C20.2078 18.375 21.7621 17.0665 22.0709 15.2637C22.1583 14.7533 22.6422 14.4103 23.1532 14.4979C23.6635 14.5852 24.0064 15.0698 23.919 15.5802C23.508 18.2147 21.0457 20.2926 18.3749 20.25ZM21.1874 13.125H14.2499C11.8361 13.1444 10.5406 10.1972 12.1553 8.43756C11.2072 7.43303 11.2074 5.69192 12.1553 4.68758C10.5422 2.91351 11.8288 -0.00867115 14.2499 9.4443e-05H21.1874C23.6011 -0.019218 24.8967 2.92785 23.282 4.68758C24.2301 5.6921 24.2299 7.43322 23.282 8.43756C24.8951 10.2116 23.6084 13.1338 21.1874 13.125ZM14.2499 9.37506C13.0076 9.42235 13.0085 11.2032 14.2499 11.2501H21.1874C22.4297 11.2028 22.4288 9.42189 21.1874 9.37506H14.2499ZM14.2499 7.50007H21.1874C22.4297 7.45277 22.4288 5.6719 21.1874 5.62507H14.2499C13.0076 5.67237 13.0085 7.45324 14.2499 7.50007ZM14.2499 3.75008H21.1874C22.4297 3.70278 22.4288 1.92192 21.1874 1.87509H14.2499C13.0076 1.92238 13.0085 3.70325 14.2499 3.75008Z" fill="white"/>
<path d="M21.1874 13.125H14.2499C11.8361 13.1444 10.5406 10.1972 12.1553 8.43756C11.2072 7.43303 11.2074 5.69192 12.1553 4.68758C10.5422 2.91351 11.8288 -0.00867115 14.2499 9.4443e-05H21.1874C23.6011 -0.019218 24.8967 2.92785 23.282 4.68758C24.2301 5.6921 24.2299 7.43322 23.282 8.43756C24.8951 10.2116 23.6084 13.1338 21.1874 13.125ZM14.2499 9.37506C13.0076 9.42235 13.0085 11.2032 14.2499 11.2501H21.1874C22.4297 11.2028 22.4288 9.42189 21.1874 9.37506H14.2499ZM14.2499 7.50007H21.1874C22.4297 7.45277 22.4288 5.6719 21.1874 5.62507H14.2499C13.0076 5.67237 13.0085 7.45324 14.2499 7.50007ZM14.2499 3.75008H21.1874C22.4297 3.70278 22.4288 1.92192 21.1874 1.87509H14.2499C13.0076 1.92238 13.0085 3.70325 14.2499 3.75008Z" fill="#FF7B02"/>
</g>
<defs>
<clipPath id="clip0_30_14264">
<rect width="24" height="24" fill="white"/>
</clipPath>
</defs>
</svg>
