<svg width="25" height="25" viewBox="0 0 25 25" fill="none" xmlns="http://www.w3.org/2000/svg">
<path d="M21.875 19.793H3.125C1.40625 19.793 0 18.3867 0 16.668V4.16797C0 2.44922 1.40625 1.04297 3.125 1.04297H21.875C23.5938 1.04297 25 2.44922 25 4.16797V16.668C25 18.3867 23.5938 19.793 21.875 19.793ZM3.125 3.1263C2.55208 3.1263 2.08333 3.59505 2.08333 4.16797V16.668C2.08333 17.2409 2.55208 17.7096 3.125 17.7096H21.875C22.4479 17.7096 22.9167 17.2409 22.9167 16.668V4.16797C22.9167 3.59505 22.4479 3.1263 21.875 3.1263H3.125Z" fill="white"/>
<path d="M20.8333 23.9583H4.16667C3.59375 23.9583 3.125 23.4896 3.125 22.9167C3.125 22.3437 3.59375 21.875 4.16667 21.875H20.8333C21.4062 21.875 21.875 22.3437 21.875 22.9167C21.875 23.4896 21.4062 23.9583 20.8333 23.9583Z" fill="white"/>
<path d="M9.37435 15.6242C9.37435 15.6242 9.3431 15.6242 9.32227 15.6242C8.94727 15.6034 8.60352 15.3846 8.43685 15.0513L6.64518 11.4576H5.20768C4.63477 11.4576 4.16602 10.9888 4.16602 10.4159C4.16602 9.84297 4.63477 9.37422 5.20768 9.37422H7.29102C7.68685 9.37422 8.05143 9.59297 8.2181 9.94714L9.4681 12.4576L13.6868 5.69714C13.8639 5.40547 14.1868 5.21797 14.5306 5.20755C14.8743 5.19714 15.2077 5.34297 15.4056 5.62422L18.2181 9.37422H19.7806C20.3535 9.37422 20.8223 9.84297 20.8223 10.4159C20.8223 10.9888 20.3535 11.4576 19.7806 11.4576H17.6973C17.3743 11.4576 17.0618 11.3013 16.8639 11.0409L14.6556 8.09297L10.2493 15.1346C10.0618 15.4367 9.72852 15.6242 9.36393 15.6242H9.37435Z" fill="#FF7B02"/>
</svg>
