<svg width="27" height="27" viewBox="0 0 27 27" fill="none" xmlns="http://www.w3.org/2000/svg">
<g clip-path="url(#clip0_30_14481)">
<path d="M25.3125 19.4062V9.70312C25.3125 8.53875 24.3675 7.59375 23.2031 7.59375H21.9375V6.83438C21.9375 6.15938 21.6759 5.52656 21.195 5.04563L17.7356 1.58625C17.2547 1.10531 16.6219 0.84375 15.9469 0.84375H11.0531C10.3781 0.84375 9.74531 1.10531 9.26437 1.58625L5.805 5.04563C5.32406 5.52656 5.0625 6.15938 5.0625 6.83438V7.59375H3.79688C2.6325 7.59375 1.6875 8.53875 1.6875 9.70312V19.4062C1.22344 19.4062 0.84375 19.7859 0.84375 20.25V24.0469C0.84375 25.2113 1.78875 26.1562 2.95312 26.1562H24.0469C25.2113 26.1562 26.1562 25.2113 26.1562 24.0469V20.25C26.1562 19.7859 25.7766 19.4062 25.3125 19.4062ZM6.75 6.83438C6.75 6.615 6.84281 6.39563 6.99469 6.23531L10.4541 2.77594C10.6144 2.61563 10.8253 2.53125 11.0531 2.53125H15.9469C16.1662 2.53125 16.3856 2.62406 16.5459 2.77594L20.0053 6.23531C20.1656 6.39563 20.25 6.60656 20.25 6.83438V11.7281C20.25 11.9475 20.1572 12.1669 20.0053 12.3272L16.5459 15.7866C16.3856 15.9469 16.1747 16.0312 15.9469 16.0312H11.0531C10.8338 16.0312 10.6144 15.9384 10.4541 15.7866L6.99469 12.3272C6.83437 12.1669 6.75 11.9559 6.75 11.7281V6.83438ZM3.375 9.70312C3.375 9.46688 3.56063 9.28125 3.79688 9.28125H5.0625V11.7281C5.0625 12.4031 5.32406 13.0359 5.805 13.5169L9.26437 16.9763C9.74531 17.4572 10.3781 17.7188 11.0531 17.7188H15.9469C16.6219 17.7188 17.2547 17.4572 17.7356 16.9763L21.195 13.5169C21.6759 13.0359 21.9375 12.4031 21.9375 11.7281V9.28125H23.2031C23.4394 9.28125 23.625 9.46688 23.625 9.70312V19.4062H17.7188C17.3981 19.4062 17.1028 19.5834 16.9678 19.8703L16.3603 21.0938H10.6566L10.0491 19.8703C9.90563 19.5834 9.61031 19.4062 9.29813 19.4062H3.375V9.70312ZM24.4688 24.0469C24.4688 24.2831 24.2831 24.4688 24.0469 24.4688H2.95312C2.71687 24.4688 2.53125 24.2831 2.53125 24.0469V21.0938H8.75813L9.36563 22.3172C9.50906 22.6041 9.80437 22.7812 10.1166 22.7812H16.8666C17.1872 22.7812 17.4825 22.6041 17.6175 22.3172L18.225 21.0938H24.4519V24.0469H24.4688Z" fill="white"/>
<path d="M13.5 11.7109C13.9641 11.7109 14.3438 11.3313 14.3438 10.8672V4.96094C14.3438 4.49687 13.9641 4.11719 13.5 4.11719C13.0359 4.11719 12.6562 4.49687 12.6562 4.96094V10.8672C12.6562 11.3313 13.0359 11.7109 13.5 11.7109Z" fill="#FF7B02"/>
<path d="M13.5 14.4453C13.9641 14.4453 14.3438 14.0656 14.3438 13.6016V13.1797C14.3438 12.7156 13.9641 12.3359 13.5 12.3359C13.0359 12.3359 12.6562 12.7156 12.6562 13.1797V13.6016C12.6562 14.0656 13.0359 14.4453 13.5 14.4453Z" fill="#FF7B02"/>
</g>
<defs>
<clipPath id="clip0_30_14481">
<rect width="27" height="27" fill="white"/>
</clipPath>
</defs>
</svg>
