<svg width="25" height="25" viewBox="0 0 25 25" fill="none" xmlns="http://www.w3.org/2000/svg">
<g clip-path="url(#clip0_30_14299)">
<path d="M23.2422 1.95312H16.4062V0.976562C16.4062 0.437207 15.969 0 15.4297 0H9.57031C9.03096 0 8.59375 0.437207 8.59375 0.976562V1.95312H1.75781C1.21846 1.95312 0.78125 2.39033 0.78125 2.92969V24.0234C0.78125 24.5628 1.21846 25 1.75781 25H23.2422C23.7815 25 24.2188 24.5628 24.2188 24.0234V2.92969C24.2188 2.39033 23.7815 1.95312 23.2422 1.95312ZM10.5469 1.95312H14.4531V3.90625H10.5469V1.95312ZM22.2656 23.0469H2.73438V3.90625H8.59375V4.88281C8.59375 5.42217 9.03096 5.85938 9.57031 5.85938H15.4297C15.969 5.85938 16.4062 5.42217 16.4062 4.88281V3.90625H22.2656V23.0469Z" fill="white"/>
<path d="M14.4531 8.78906C14.9925 8.78906 15.4297 8.35184 15.4297 7.8125C15.4297 7.27316 14.9925 6.83594 14.4531 6.83594C13.9138 6.83594 13.4766 7.27316 13.4766 7.8125C13.4766 8.35184 13.9138 8.78906 14.4531 8.78906Z" fill="#FF7B02"/>
<path d="M18.3594 8.78906C18.8987 8.78906 19.3359 8.35184 19.3359 7.8125C19.3359 7.27316 18.8987 6.83594 18.3594 6.83594C17.82 6.83594 17.3828 7.27316 17.3828 7.8125C17.3828 8.35184 17.82 8.78906 18.3594 8.78906Z" fill="#FF7B02"/>
<path d="M14.4531 16.6016C14.9925 16.6016 15.4297 16.1643 15.4297 15.625C15.4297 15.0857 14.9925 14.6484 14.4531 14.6484C13.9138 14.6484 13.4766 15.0857 13.4766 15.625C13.4766 16.1643 13.9138 16.6016 14.4531 16.6016Z" fill="#FF7B02"/>
<path d="M18.3594 16.6016C18.8987 16.6016 19.3359 16.1643 19.3359 15.625C19.3359 15.0857 18.8987 14.6484 18.3594 14.6484C17.82 14.6484 17.3828 15.0857 17.3828 15.625C17.3828 16.1643 17.82 16.6016 18.3594 16.6016Z" fill="#FF7B02"/>
<path d="M18.4782 9.88373C17.9249 10.437 17.1892 10.7418 16.4067 10.7418C15.6241 10.7418 14.8884 10.437 14.3351 9.88373C13.9537 9.50233 13.3354 9.50228 12.954 9.88368C12.5726 10.265 12.5726 10.8834 12.954 11.2647C13.8762 12.187 15.1024 12.6949 16.4067 12.6949C17.711 12.6949 18.9371 12.187 19.8593 11.2647C20.2407 10.8833 20.2407 10.265 19.8593 9.88368C19.4779 9.50228 18.8596 9.50233 18.4782 9.88373Z" fill="#FF7B02"/>
<path d="M16.4067 18.5547C15.1024 18.5547 13.8762 19.0626 12.954 19.9849C12.5726 20.3663 12.5726 20.9846 12.954 21.3659C13.3354 21.7473 13.9537 21.7473 14.3351 21.3659C14.8884 20.8125 15.6241 20.5078 16.4067 20.5078C17.1892 20.5078 17.9249 20.8125 18.4782 21.3659C18.6689 21.5566 18.9188 21.652 19.1688 21.6519C19.4187 21.6519 19.6686 21.5565 19.8593 21.3659C20.2407 20.9846 20.2408 20.3662 19.8594 19.9849C18.9371 19.0626 17.711 18.5547 16.4067 18.5547Z" fill="#FF7B02"/>
<path d="M9.57031 6.83594H5.66406C5.12471 6.83594 4.6875 7.27314 4.6875 7.8125V11.7188C4.6875 12.2581 5.12471 12.6953 5.66406 12.6953H9.57031C10.1097 12.6953 10.5469 12.2581 10.5469 11.7188V7.8125C10.5469 7.27314 10.1097 6.83594 9.57031 6.83594ZM8.59375 10.7422H6.64062V8.78906H8.59375V10.7422Z" fill="white"/>
<path d="M9.57031 14.6484H5.66406C5.12471 14.6484 4.6875 15.0856 4.6875 15.625V19.5312C4.6875 20.0706 5.12471 20.5078 5.66406 20.5078H9.57031C10.1097 20.5078 10.5469 20.0706 10.5469 19.5312V15.625C10.5469 15.0856 10.1097 14.6484 9.57031 14.6484ZM8.59375 18.5547H6.64062V16.6016H8.59375V18.5547Z" fill="white"/>
</g>
<defs>
<clipPath id="clip0_30_14299">
<rect width="25" height="25" fill="white"/>
</clipPath>
</defs>
</svg>
