<svg width="23" height="23" viewBox="0 0 23 23" fill="none" xmlns="http://www.w3.org/2000/svg">
<path d="M20.4844 8.98438C19.9882 8.98438 19.5859 9.38661 19.5859 9.88281V16.7109C19.5859 17.2063 19.1829 17.6094 18.6875 17.6094H7.90625C7.41085 17.6094 7.00781 17.2063 7.00781 16.7109V2.69531C7.00781 2.19991 7.41085 1.79688 7.90625 1.79688H14.1953V4.49219C14.1953 5.97838 15.4044 7.1875 16.8906 7.1875H20.4844C20.8477 7.1875 21.1754 6.9686 21.3144 6.63289C21.4535 6.29715 21.3767 5.91073 21.1197 5.65378L15.7291 0.263152C15.5564 0.0905176 15.3214 0 15.0938 0H7.90625C6.42005 0 5.21094 1.20912 5.21094 2.69531V3.59375H4.3125C2.8263 3.59375 1.61719 4.80287 1.61719 6.28906V20.3047C1.61719 21.7909 2.8263 23 4.3125 23H15.0938C16.5799 23 17.7891 21.7909 17.7891 20.3047V19.4062H18.6875C20.1737 19.4062 21.3828 18.1971 21.3828 16.7109V9.88281C21.3828 9.38661 20.9806 8.98438 20.4844 8.98438ZM16.8906 5.39062C16.3952 5.39062 15.9922 4.98759 15.9922 4.49219V3.06745L18.3153 5.39062H16.8906ZM15.9922 20.3047C15.9922 20.8001 15.5891 21.2031 15.0938 21.2031H4.3125C3.8171 21.2031 3.41406 20.8001 3.41406 20.3047V6.28906C3.41406 5.79366 3.8171 5.39062 4.3125 5.39062H5.21094V16.7109C5.21094 18.1971 6.42005 19.4062 7.90625 19.4062H15.9922V20.3047Z" fill="white"/>
<path d="M16.8906 10.7812H9.70312C9.20692 10.7812 8.80469 10.379 8.80469 9.88281C8.80469 9.38661 9.20692 8.98438 9.70312 8.98438H16.8906C17.3868 8.98438 17.7891 9.38661 17.7891 9.88281C17.7891 10.379 17.3868 10.7812 16.8906 10.7812Z" fill="#FF7B02"/>
<path d="M16.8906 14.375H9.70312C9.20692 14.375 8.80469 13.9728 8.80469 13.4766C8.80469 12.9804 9.20692 12.5781 9.70312 12.5781H16.8906C17.3868 12.5781 17.7891 12.9804 17.7891 13.4766C17.7891 13.9728 17.3868 14.375 16.8906 14.375Z" fill="#FF7B02"/>
</svg>
