<svg width="28" height="28" viewBox="0 0 28 28" fill="none" xmlns="http://www.w3.org/2000/svg">
<path d="M24.9375 10.9375C24.3334 10.9375 23.8438 11.4272 23.8438 12.0312V20.3438C23.8438 20.9468 23.3531 21.4375 22.75 21.4375H9.625C9.02191 21.4375 8.53125 20.9468 8.53125 20.3438V3.28125C8.53125 2.67816 9.02191 2.1875 9.625 2.1875H17.2812V5.46875C17.2812 7.27803 18.7532 8.75 20.5625 8.75H24.9375C25.3799 8.75 25.7787 8.48351 25.948 8.07483C26.1173 7.66609 26.0238 7.19567 25.7109 6.88286L19.1484 0.320359C18.9382 0.110195 18.6522 0 18.375 0H9.625C7.81572 0 6.34375 1.47197 6.34375 3.28125V4.375H5.25C3.44072 4.375 1.96875 5.84697 1.96875 7.65625V24.7188C1.96875 26.528 3.44072 28 5.25 28H18.375C20.1843 28 21.6562 26.528 21.6562 24.7188V23.625H22.75C24.5593 23.625 26.0312 22.153 26.0312 20.3438V12.0312C26.0312 11.4272 25.5416 10.9375 24.9375 10.9375ZM20.5625 6.5625C19.9594 6.5625 19.4688 6.07184 19.4688 5.46875V3.73428L22.2969 6.5625H20.5625ZM19.4688 24.7188C19.4688 25.3218 18.9781 25.8125 18.375 25.8125H5.25C4.64691 25.8125 4.15625 25.3218 4.15625 24.7188V7.65625C4.15625 7.05316 4.64691 6.5625 5.25 6.5625H6.34375V20.3438C6.34375 22.153 7.81572 23.625 9.625 23.625H19.4688V24.7188Z" fill="white"/>
<path d="M20.5625 13.125H11.8125C11.2084 13.125 10.7188 12.6353 10.7188 12.0312C10.7188 11.4272 11.2084 10.9375 11.8125 10.9375H20.5625C21.1666 10.9375 21.6562 11.4272 21.6562 12.0312C21.6562 12.6353 21.1666 13.125 20.5625 13.125Z" fill="#FF7B02"/>
<path d="M20.5625 17.5H11.8125C11.2084 17.5 10.7188 17.0103 10.7188 16.4062C10.7188 15.8022 11.2084 15.3125 11.8125 15.3125H20.5625C21.1666 15.3125 21.6562 15.8022 21.6562 16.4062C21.6562 17.0103 21.1666 17.5 20.5625 17.5Z" fill="#FF7B02"/>
</svg>
