<svg width="29" height="29" viewBox="0 0 29 29" fill="none" xmlns="http://www.w3.org/2000/svg">
<g clip-path="url(#clip0_30_14407)">
<path d="M17.3908 18.9605L16.557 18.1267L15.3555 19.3282L17.3908 21.3635L20.9433 17.8109L19.7418 16.6094L17.3908 18.9605Z" fill="#FF7B02"/>
<path d="M27.7164 24.6489L23.9678 20.9003C24.904 18.4942 24.1922 15.5396 22.0626 13.8443V3.22852H17.6163V1.18945H14.3497L12.7093 0H9.90703L8.15326 1.18945H4.98535V3.22852H0.539062V29H22.0625V26.2042L24.1118 28.2535C24.6087 28.7503 25.2614 28.9988 25.9141 28.9988C28.1526 29.014 29.3209 26.2458 27.7164 24.6489ZM21.3501 21.8872C16.9283 25.9573 10.8791 19.9061 14.9488 15.4859C15.8312 14.6035 16.9904 14.1623 18.1494 14.1623C22.1252 14.1356 24.1994 19.0508 21.3501 21.8872ZM6.68457 2.88867H8.67515L10.429 1.69922H12.158L13.7985 2.88867H15.917V4.92773H6.68457V2.88867ZM20.3633 27.3008H2.23828V4.92773H4.98535V6.62695H17.6162V4.92773H20.3633V12.8682C14.1283 10.5725 9.05827 18.2549 13.7474 23.0888C15.5239 24.8579 18.0981 25.355 20.3632 24.5049L20.3633 24.5049V27.3008ZM26.5148 27.0519C26.1986 27.3815 25.6296 27.3815 25.3133 27.0519L21.9097 23.6483C22.3557 23.3115 22.7745 22.8928 23.1112 22.4467L26.5148 25.8504C26.8444 26.1666 26.8444 26.7357 26.5148 27.0519Z" fill="white"/>
<path d="M3.9375 8.94922H14.2461V10.6484H3.9375V8.94922Z" fill="#FF7B02"/>
<path d="M3.9375 12.3477H10.7344V14.0469H3.9375V12.3477Z" fill="#FF7B02"/>
<path d="M3.9375 15.7461H8.35547V17.4453H3.9375V15.7461Z" fill="#FF7B02"/>
<path d="M3.9375 19.1445H9.54492V20.8438H3.9375V19.1445Z" fill="#FF7B02"/>
<path d="M3.9375 22.543H10.7344V24.2422H3.9375V22.543Z" fill="#FF7B02"/>
</g>
<defs>
<clipPath id="clip0_30_14407">
<rect width="29" height="29" fill="white"/>
</clipPath>
</defs>
</svg>
