<svg width="25" height="25" viewBox="0 0 25 25" fill="none" xmlns="http://www.w3.org/2000/svg">
<g clip-path="url(#clip0_30_14453)">
<path d="M24.714 20.5708L19.9209 15.7777C20.7259 14.3471 21.2891 12.5462 21.2891 10.3065V2.92968C21.2891 2.39033 20.8519 1.95312 20.3125 1.95312H17.2153C15.6949 1.95312 14.2656 1.36108 13.1906 0.286035C13.0074 0.102929 12.759 0 12.5 0C12.2411 0 11.9926 0.102881 11.8095 0.286035C10.7344 1.36108 9.30512 1.95312 7.78476 1.95312H4.68755C4.1482 1.95312 3.71099 2.39033 3.71099 2.92968V10.3064C3.71099 12.5461 4.27422 14.347 5.07915 15.7777L0.286049 20.5708C0.00675235 20.8501 -0.0767924 21.2701 0.0743792 21.635C0.225551 21.9999 0.581654 22.2378 0.976623 22.2378H2.76217V24.0234C2.76217 24.4184 3.00011 24.7745 3.36505 24.9256C3.72994 25.0768 4.15001 24.9933 4.4293 24.714L9.21552 19.9277C10.8318 20.894 12.1926 21.2423 12.2632 21.2599C12.341 21.2794 12.4205 21.2891 12.5 21.2891C12.5796 21.2891 12.6591 21.2794 12.7369 21.2599C12.8075 21.2423 14.1683 20.8939 15.7846 19.9277L20.5708 24.714C20.8512 24.9943 21.2715 25.0763 21.635 24.9256C22 24.7745 22.2379 24.4184 22.2379 24.0234V22.2378H24.0235C24.4184 22.2378 24.7745 21.9999 24.9257 21.635C25.0768 21.2701 24.9933 20.8501 24.714 20.5708ZM4.71529 21.6658V21.2613C4.71529 20.7219 4.27808 20.2847 3.73873 20.2847H3.33424L6.21216 17.4068C6.66196 17.9394 7.13521 18.3956 7.59814 18.7829L4.71529 21.6658ZM15.8666 17.5123C14.472 18.5943 13.05 19.1184 12.5002 19.2944C11.9485 19.1178 10.5273 18.5937 9.13344 17.5123C6.83467 15.7287 5.66411 13.3014 5.66411 10.3064V3.90624H7.78481C9.51626 3.90624 11.16 3.33447 12.5 2.28032C13.8401 3.33447 15.4838 3.90624 17.2153 3.90624H19.336V10.3064C19.336 13.298 18.1678 15.7269 15.8666 17.5123ZM21.2613 20.2847C20.7219 20.2847 20.2847 20.7219 20.2847 21.2613V21.6658L17.4018 18.7829C17.8648 18.3956 18.338 17.9394 18.7878 17.4068L21.6657 20.2847H21.2613Z" fill="white"/>
<path d="M14.7391 7.9032L11.5234 11.1189L10.2609 9.85632C9.87947 9.47493 9.26111 9.47493 8.87976 9.85632C8.49841 10.2377 8.49841 10.856 8.87976 11.2374L10.8329 13.1905C11.0236 13.3812 11.2735 13.4765 11.5235 13.4765C11.7734 13.4765 12.0233 13.3812 12.214 13.1905L16.1203 9.28425C16.5016 8.90286 16.5016 8.28455 16.1203 7.9032C15.7388 7.52185 15.1205 7.52185 14.7391 7.9032Z" fill="#FF7B02"/>
</g>
<defs>
<clipPath id="clip0_30_14453">
<rect width="25" height="25" fill="white"/>
</clipPath>
</defs>
</svg>
