<svg width="23" height="24" viewBox="0 0 23 24" fill="none" xmlns="http://www.w3.org/2000/svg">
<path d="M12.9824 12.451H8.5149C8.63645 14.7343 9.18926 16.7572 9.61755 18.1375C9.76516 18.6132 9.5008 19.1191 9.02705 19.2673C8.93811 19.2952 8.84804 19.3084 8.7595 19.3084C8.37667 19.3084 8.02188 19.0607 7.90198 18.6743C7.43776 17.1781 6.83711 14.9726 6.71569 12.451H4.49219C3.99598 12.451 3.59375 12.0471 3.59375 11.5488C3.59375 11.0505 3.99598 10.6465 4.49219 10.6465H6.71582C6.83801 8.1253 7.44234 5.91885 7.90939 4.42193C8.05777 3.94635 8.56197 3.68177 9.03536 3.83073C9.50888 3.97973 9.77244 4.48599 9.62406 4.96147C9.19331 6.34196 8.63735 8.36485 8.51503 10.6465H12.9824C13.4786 10.6465 13.8809 11.0505 13.8809 11.5488C13.8809 12.0471 13.4786 12.451 12.9824 12.451ZM15.234 9.83461C15.2728 9.83461 15.312 9.83209 15.3514 9.82694C15.8435 9.76248 16.1902 9.30964 16.1261 8.81557C15.9401 7.38419 15.6184 5.94704 15.1425 4.42193C14.9942 3.94644 14.4901 3.68177 14.0166 3.83077C13.5431 3.97978 13.2795 4.48603 13.4279 4.96152C13.8723 6.38558 14.172 7.72263 14.3444 9.04902C14.4033 9.50353 14.7895 9.83461 15.234 9.83461ZM23 18.2706V19.4886C23 21.4786 21.3878 23.0976 19.4062 23.0976H16.3066C14.325 23.0976 12.7129 21.4786 12.7129 19.4886V18.2706C12.7129 16.6744 13.7505 15.3178 15.1836 14.843V13.6691C15.1836 12.1766 16.3927 10.9623 17.8789 10.9623C19.3651 10.9623 20.5742 12.1766 20.5742 13.6691V14.8583C21.984 15.3464 23 16.6911 23 18.2706ZM16.9805 13.6691V14.6616H18.7773V13.6691C18.7773 13.1716 18.3743 12.7668 17.8789 12.7668C17.3835 12.7668 16.9805 13.1716 16.9805 13.6691ZM21.2031 18.2706C21.2031 17.2756 20.397 16.4661 19.4062 16.4661H16.3066C15.3158 16.4661 14.5098 17.2756 14.5098 18.2706V19.4886C14.5098 20.4836 15.3158 21.2931 16.3066 21.2931H19.4062C20.397 21.2931 21.2031 20.4836 21.2031 19.4886V18.2706ZM10.8001 21.2682C5.75157 20.9073 1.79688 16.6381 1.79688 11.5488C1.79688 6.17576 6.14967 1.8045 11.5 1.8045C16.5899 1.8045 20.8424 5.79479 21.1812 10.8888C21.2143 11.3859 21.6426 11.7622 22.1376 11.7289C22.6327 11.6957 23.0072 11.2657 22.9742 10.7685C22.7801 7.85016 21.5004 5.13696 19.3709 3.12869C17.2315 1.11112 14.4362 0 11.5 0C8.42824 0 5.54035 1.20126 3.36824 3.38253C1.19613 5.56381 0 8.46401 0 11.5488C0 14.4886 1.10063 17.2896 3.09921 19.4356C5.08794 21.5711 7.77755 22.8612 10.6725 23.0681C10.6942 23.0697 10.7158 23.0705 10.7372 23.0705C11.2044 23.0704 11.5988 22.7075 11.6325 22.2322C11.6677 21.7352 11.2951 21.3036 10.8001 21.2682ZM17.834 17.7743C17.2137 17.7743 16.7109 18.2793 16.7109 18.9021C16.7109 19.525 17.2137 20.0299 17.834 20.0299C18.4542 20.0299 18.957 19.525 18.957 18.9021C18.957 18.2793 18.4542 17.7743 17.834 17.7743Z" fill="white"/>
<path d="M23 18.4259V19.6048C23 21.5308 21.4307 23.0978 19.5017 23.0978H16.4844C14.5555 23.0978 12.9862 21.5308 12.9862 19.6048V18.4259C12.9862 16.881 13.9962 15.568 15.3912 15.1085V13.9723C15.3912 12.5277 16.5682 11.3525 18.0149 11.3525C19.4617 11.3525 20.6387 12.5277 20.6387 13.9723V15.1233C22.011 15.5957 23 16.8972 23 18.4259ZM17.1404 13.9723V14.9329H18.8895V13.9723C18.8895 13.4908 18.4972 13.099 18.0149 13.099C17.5327 13.099 17.1404 13.4908 17.1404 13.9723ZM21.2509 18.4259C21.2509 17.4629 20.4662 16.6794 19.5017 16.6794H16.4844C15.52 16.6794 14.7353 17.4629 14.7353 18.4259V19.6048C14.7353 20.5678 15.52 21.3513 16.4844 21.3513H19.5017C20.4662 21.3513 21.2509 20.5678 21.2509 19.6048V18.4259ZM17.9712 17.9456C17.3675 17.9456 16.878 18.4343 16.878 19.0372C16.878 19.64 17.3675 20.1287 17.9712 20.1287C18.575 20.1287 19.0644 19.64 19.0644 19.0372C19.0644 18.4343 18.575 17.9456 17.9712 17.9456Z" fill="#FF7B02"/>
</svg>
