<svg width="25" height="25" viewBox="0 0 25 25" fill="none" xmlns="http://www.w3.org/2000/svg">
<g clip-path="url(#clip0_30_14364)">
<path d="M12.963 25.0002H12.0361C10.7842 25.0002 9.80401 24.2145 9.80401 23.2122V22.2696C9.80401 21.8454 9.4214 21.3796 8.89404 21.1624C8.64705 21.0611 8.02222 20.8786 7.53339 21.3709L6.75865 22.1544C6.09129 22.8157 4.91488 22.6314 4.01521 21.7327L3.36006 21.0779C2.97612 20.6945 2.71654 20.2182 2.62862 19.7351C2.52238 19.153 2.67458 18.6065 3.04707 18.2344L3.71272 17.5684C4.01311 17.2676 4.07243 16.6683 3.85309 16.1422C3.75124 15.8977 3.43978 15.3293 2.74992 15.3293C2.74782 15.3293 2.74591 15.3293 2.7442 15.3293L1.64103 15.3345C0.702071 15.3293 0 14.3676 0 13.0979V12.1685C0 10.9161 0.78561 9.93592 1.7896 9.93592H2.72951C3.15465 9.93592 3.62136 9.55311 3.83803 9.02668C3.93892 8.7814 4.12087 8.15731 3.62861 7.66865L2.84528 6.8916C2.18536 6.22517 2.36808 5.04814 3.26679 4.1494L3.92252 3.49327C4.80826 2.60845 6.05658 2.47113 6.76647 3.18009L7.12694 3.54019C7.43974 3.85205 7.44069 4.35864 7.12828 4.67106C6.81587 4.98368 6.30929 4.98444 5.99726 4.6724L5.63583 4.31191C5.58738 4.30104 5.31865 4.35959 5.0543 4.62471L4.39877 5.28046C4.16951 5.50972 4.0793 5.73059 4.05679 5.83893L4.75581 6.53282C5.56125 7.33181 5.77678 8.52104 5.31789 9.63551C4.85022 10.7717 3.81018 11.5352 2.72989 11.5352H1.7896C1.75966 11.5621 1.59983 11.7937 1.59983 12.1685V13.0979C1.59983 13.4222 1.69214 13.6423 1.75317 13.734L2.73733 13.7298H2.74992C3.87999 13.7298 4.86796 14.4174 5.33028 15.5269C5.8031 16.6614 5.60817 17.9363 4.84412 18.6994L4.17867 19.3655C4.176 19.4057 4.22673 19.6813 4.49146 19.9461L5.14757 20.6018C5.3772 20.8315 5.59826 20.9219 5.70697 20.9446L6.39817 20.2459C7.19847 19.4391 8.38842 19.2241 9.50418 19.6834C10.6413 20.1515 11.4048 21.191 11.4048 22.2702V23.2126C11.4303 23.2412 11.6621 23.4007 12.0361 23.4007H12.963C13.3371 23.4007 13.5688 23.2412 13.6025 23.1748L13.5957 22.2702C13.5957 21.191 14.3592 20.1515 15.4963 19.6834C16.6124 19.2238 17.8024 19.4391 18.6015 20.2451L19.2935 20.9446C19.4022 20.9219 19.6233 20.8315 19.8525 20.6018L20.509 19.9461C20.7734 19.6817 20.8245 19.4057 20.801 19.3355L20.1558 18.6988C19.3923 17.9357 19.1974 16.6614 19.67 15.5269C20.1325 14.417 21.1209 13.7298 22.2506 13.7298H22.2631L23.2471 13.734C23.3074 13.6413 23.3997 13.4222 23.3997 13.0979V12.1685C23.3997 11.7937 23.2399 11.5621 23.1731 11.5287L22.27 11.5352C21.1901 11.5352 20.1497 10.7717 19.6822 9.63551C19.2229 8.52104 19.4383 7.33181 20.2447 6.53282L20.9431 5.83893C20.9206 5.73059 20.8306 5.50972 20.6013 5.28008L19.9456 4.62471C19.6809 4.35997 19.4035 4.30886 19.3343 4.3327L19.0028 4.6724C18.6898 4.98444 18.1833 4.98406 17.8718 4.67106C17.5594 4.35826 17.5602 3.85166 17.8731 3.54019L18.2344 3.17951C18.9433 2.46979 20.1926 2.60884 21.0776 3.49327L21.7331 4.14902C22.6314 5.04814 22.8147 6.22517 22.1592 6.88683L21.3717 7.66865C20.8786 8.15731 21.0606 8.78102 21.1621 9.02668C21.3787 9.55311 21.8449 9.93592 22.2704 9.93592H23.2103C24.2139 9.93592 25.0001 10.9165 25.0001 12.1685V13.0979C25.0001 14.368 24.298 15.3293 23.3667 15.3345L22.2557 15.3293C22.254 15.3293 22.2519 15.3293 22.2502 15.3293C21.5603 15.3293 21.2487 15.8977 21.1468 16.1422C20.9277 16.6683 20.987 17.2676 21.2868 17.5678L21.9532 18.2348C22.3251 18.6062 22.4775 19.153 22.3715 19.7351C22.2835 20.2179 22.0234 20.6945 21.64 21.0779L20.9839 21.7336C20.0848 22.6324 18.9088 22.8147 18.247 22.1613L17.4654 21.3709C16.9773 20.8799 16.3525 21.0615 16.1055 21.1633C15.5781 21.3804 15.1955 21.8458 15.1955 22.2705V23.213C15.1951 24.2149 14.215 25.0002 12.963 25.0002Z" fill="white"/>
<path d="M12.4325 19.5044C8.57198 19.5044 5.43164 16.3633 5.43164 12.5023C5.43164 10.9324 5.9386 9.44863 6.89891 8.21229C7.16937 7.86286 7.67193 7.79915 8.02116 8.07095C8.37057 8.3418 8.43332 8.844 8.16249 9.19324C7.42284 10.1467 7.03147 11.2911 7.03147 12.5027C7.03147 15.4816 9.45467 17.9052 12.4329 17.9052C15.4111 17.9052 17.8343 15.4816 17.8343 12.5027C17.8343 11.2911 17.4431 10.1467 16.7033 9.19324C16.4325 8.844 16.4958 8.3418 16.8446 8.07095C17.1939 7.79915 17.6966 7.86343 17.9671 8.21229C18.9272 9.44901 19.4341 10.9324 19.4341 12.5023C19.4338 16.3633 16.2934 19.5044 12.4325 19.5044Z" fill="white"/>
<path d="M15.4215 18.735C14.9796 18.735 14.6216 18.377 14.6216 17.9351V6.84328C14.6216 6.40116 14.9796 6.04334 15.4215 6.04334H16.5443L12.4324 1.93129L8.32107 6.04334H9.44332C9.88543 6.04334 10.2432 6.40116 10.2432 6.84328V15.2795C10.2432 15.7216 9.88543 16.0794 9.44332 16.0794C9.0014 16.0794 8.64341 15.7216 8.64341 15.2795V7.64322H6.38976C6.06609 7.64322 5.77428 7.44867 5.65088 7.14922C5.52691 6.85053 5.59538 6.50644 5.82368 6.27718L11.8665 0.234318C12.1789 -0.0781059 12.6859 -0.0781059 12.9979 0.234318L19.0411 6.27718C19.2694 6.50606 19.3385 6.85015 19.2145 7.14922C19.0905 7.4481 18.7989 7.64322 18.4753 7.64322H16.221V17.9355C16.2214 18.377 15.863 18.735 15.4215 18.735Z" fill="#FF7B02"/>
</g>
<defs>
<clipPath id="clip0_30_14364">
<rect width="25" height="25" fill="white"/>
</clipPath>
</defs>
</svg>
