<svg width="33" height="33" viewBox="0 0 33 33" fill="none" xmlns="http://www.w3.org/2000/svg">
<g clip-path="url(#clip0_30_12934)">
<path d="M32.3915 20.2255C31.9354 19.7076 31.0098 19.4535 29.9706 20.0535C28.6522 20.8146 25.367 22.4159 22.9198 23.3417C23.0281 22.8806 22.956 22.3938 22.7016 21.9657C22.3468 21.3686 21.7252 21.0261 21.0313 21.0494C18.006 21.048 15.9642 20.2009 14.3231 19.5201C12.759 18.8713 11.408 18.311 9.81367 18.6968C8.19873 19.0877 6.47776 20.43 4.2542 23.0372C4.04711 22.9344 3.81727 22.8798 3.57866 22.8798C3.17216 22.8798 2.79072 23.0373 2.50481 23.3233L0.389974 25.4381C0.213759 25.6143 0.213759 25.9 0.389974 26.0761L6.92758 32.6138C7.01215 32.6983 7.12694 32.7459 7.24656 32.7459C7.36619 32.7459 7.48098 32.6983 7.56554 32.6138L9.68038 30.4989C9.96642 30.2129 10.1239 29.8315 10.1239 29.425C10.1239 29.228 10.0866 29.0371 10.0159 28.8599C11.375 28.2848 12.8884 28.2349 14.8245 28.3506C15.2571 28.3765 15.7109 28.4131 16.1914 28.4518C17.3306 28.5435 18.5085 28.6384 19.6464 28.6132C22.0341 28.5605 23.4719 27.8895 25.393 26.8719C27.3523 25.834 31.5303 23.3564 32.3094 22.3322C32.8549 21.6152 32.8871 20.7882 32.3915 20.2255L32.3915 20.2255ZM9.04235 29.8608L7.2465 31.6567L1.34697 25.7572L3.14277 23.9613C3.2584 23.8457 3.41315 23.7821 3.57866 23.7821C3.74418 23.7821 3.89887 23.8457 4.0145 23.9613L9.04242 28.9892C9.15798 29.1047 9.2216 29.2595 9.2216 29.425C9.2216 29.5905 9.15798 29.7453 9.04242 29.8608H9.04235ZM31.5913 21.786C31.0396 22.5111 27.5184 24.725 24.9707 26.0746C23.1636 27.0318 21.8155 27.6629 19.6265 27.7112C18.5353 27.7355 17.3804 27.6424 16.2638 27.5524C15.7785 27.5133 15.3202 27.4764 14.8784 27.45C13.1699 27.3477 11.2158 27.3118 9.45266 28.1235L4.94584 23.6167C9.36075 18.4393 11.0117 19.1234 13.9773 20.3536C15.6938 21.0656 17.83 21.9518 21.0393 21.9518C21.0449 21.9518 21.0507 21.9517 21.0564 21.9515C21.4173 21.9374 21.741 22.1155 21.9259 22.4266C22.1108 22.7377 22.1114 23.1081 21.9275 23.4175C21.5961 23.9751 20.4042 24.2648 18.7415 24.192C17.1867 24.1242 15.6208 23.7522 15.0052 23.4318C14.7842 23.3168 14.5117 23.4027 14.3967 23.6238C14.2817 23.8448 14.3676 24.1172 14.5887 24.2323C15.4172 24.6634 17.1471 25.0256 18.7022 25.0935C18.8761 25.1011 19.0559 25.1055 19.239 25.1055C20.0678 25.1055 20.9617 25.0145 21.6647 24.7173C24.1294 24.0225 28.7272 21.8132 30.4218 20.8349C31.0158 20.4921 31.5082 20.5879 31.7144 20.822C31.9194 21.0547 31.8734 21.4152 31.5913 21.786V21.786ZM10.6577 6.99312L11.8359 7.74117C11.619 8.56965 11.5092 9.42539 11.5092 10.2902C11.5092 15.8242 16.0115 20.3265 21.5456 20.3265C27.0796 20.3265 31.5819 15.8242 31.5819 10.2902C31.5819 4.75615 27.0796 0.253906 21.5456 0.253906C18.4762 0.253906 15.6264 1.6254 13.7089 4.02048L10.7682 5.36891C10.4547 5.51264 10.2534 5.80396 10.23 6.14827C10.2066 6.49245 10.3665 6.80834 10.6577 6.99312ZM11.1302 6.20944C11.1312 6.1959 11.1319 6.19474 11.1442 6.18914L15.9254 3.99676C15.9335 3.99309 15.9372 3.9929 15.937 3.9929C15.937 3.9929 15.9408 3.99354 15.9483 3.99837C15.9557 4.00302 15.9579 4.00604 15.9579 4.00604C15.9579 4.00617 15.9593 4.00965 15.9594 4.01842L16.0092 9.27818C16.0094 9.29152 16.0087 9.29275 15.997 9.29926C15.9852 9.30577 15.9835 9.3057 15.9724 9.29848L14.6756 8.47522C14.5501 8.39556 14.3934 8.3828 14.2567 8.44113C14.12 8.49952 14.0208 8.62147 13.9915 8.76726C13.8914 9.26542 13.8407 9.77782 13.8407 10.2902C13.8407 14.5387 17.2971 17.995 21.5456 17.995C25.794 17.995 29.2504 14.5387 29.2504 10.2902C29.2504 6.04167 25.794 2.5853 21.5456 2.5853C19.8308 2.5853 18.201 3.14211 16.8633 4.17008L16.8617 4.00972C16.8586 3.68984 16.702 3.40805 16.4319 3.2366C16.2735 3.13599 16.0983 3.08797 15.9201 3.09036C17.5083 1.84409 19.472 1.15619 21.5456 1.15619C26.5821 1.15619 30.6796 5.25366 30.6796 10.2902C30.6796 15.3267 26.5821 19.4241 21.5456 19.4241C16.5091 19.4241 12.4116 15.3267 12.4116 10.2902C12.4116 9.39755 12.54 8.51577 12.7931 7.66924C12.851 7.47575 12.7732 7.26731 12.6027 7.15903L11.1413 6.23122C11.13 6.22401 11.1293 6.22278 11.1302 6.20937L11.1302 6.20944ZM16.8744 5.34545C18.1421 4.14584 19.7935 3.48765 21.5456 3.48765C25.2965 3.48765 28.3481 6.53925 28.3481 10.2902C28.3481 14.0411 25.2965 17.0927 21.5456 17.0927C17.7946 17.0927 14.743 14.0411 14.743 10.2902C14.743 10.0623 14.7544 9.83448 14.7769 9.60831L15.4887 10.0603C15.78 10.2452 16.1339 10.2556 16.4354 10.0879C16.737 9.92026 16.915 9.61424 16.9116 9.26948L16.8744 5.34551L16.8744 5.34545ZM19.2926 13.4236C19.5172 13.8127 19.8863 14.0592 20.3318 14.1179C20.3973 14.1265 20.4622 14.1308 20.5264 14.1308C20.8985 14.1308 21.2442 13.9871 21.5151 13.7162L26.4649 8.76649C26.9944 8.23707 26.9944 7.37559 26.4649 6.84617C25.9354 6.31669 25.0739 6.31682 24.5446 6.84617L20.7955 10.5952L19.9279 9.09243C19.7472 8.77951 19.4542 8.55527 19.103 8.46117C18.7516 8.36707 18.3858 8.4147 18.073 8.59543C17.7598 8.77629 17.5354 9.06922 17.4414 9.42017C17.3473 9.77125 17.3951 10.1371 17.5759 10.4503L19.2926 13.4236ZM18.3129 9.65375C18.3446 9.53554 18.4196 9.43719 18.5241 9.37686C18.5931 9.33703 18.6702 9.31666 18.7486 9.31666C18.7888 9.31666 18.8293 9.32201 18.8694 9.33271C18.9879 9.36448 19.0861 9.43931 19.1463 9.54354L20.3079 11.5555C20.3781 11.677 20.5007 11.7589 20.6397 11.7772C20.7792 11.7956 20.9185 11.7482 21.0176 11.649L25.1824 7.48419C25.36 7.3065 25.6491 7.30662 25.8267 7.48419C26.0043 7.66183 26.0043 7.95083 25.8267 8.12847L20.877 13.0781C20.7572 13.198 20.6173 13.2455 20.4494 13.2233C20.2814 13.2012 20.1585 13.1191 20.0739 12.9724L18.3572 9.99903C18.2969 9.89455 18.2811 9.77189 18.3128 9.65369L18.3129 9.65375Z" fill="#FF7B02"/>
</g>
<defs>
<clipPath id="clip0_30_12934">
<rect width="33" height="33" fill="white"/>
</clipPath>
</defs>
</svg>
