<svg width="24" height="24" viewBox="0 0 24 24" fill="none" xmlns="http://www.w3.org/2000/svg">
<rect x="23.5713" width="23.5707" height="23.5707" transform="rotate(90 23.5713 0)" fill="#FF7B02"/>
<path d="M11.3869 15.3997C11.1967 15.3997 11.0699 15.3363 10.9431 15.2095L8.28006 12.5465C8.02644 12.2929 8.02644 11.9124 8.28006 11.6588C8.53368 11.4052 8.9141 11.4052 9.16772 11.6588L11.3869 13.878L16.3325 8.9324C16.5861 8.67878 16.9665 8.67878 17.2201 8.9324C17.4737 9.18602 17.4737 9.56645 17.2201 9.82007L11.8307 15.2095C11.7673 15.3363 11.5771 15.3997 11.3869 15.3997Z" fill="white"/>
<path d="M8.21892 15.3997C8.02871 15.3997 7.9019 15.3363 7.77509 15.2095L5.11209 12.5465C4.85847 12.2929 4.85847 11.9124 5.11209 11.6588C5.36571 11.4052 5.74614 11.4052 5.99976 11.6588L8.66275 14.3218C8.91637 14.5754 8.91637 14.9559 8.66275 15.2095C8.59935 15.3363 8.40914 15.3997 8.21892 15.3997ZM11.5794 12.1026C11.3892 12.1026 11.2623 12.0392 11.1355 11.9124C10.8819 11.6588 10.8819 11.2784 11.1355 11.0248L13.1645 8.9324C13.4181 8.67878 13.7985 8.67878 14.0522 8.9324C14.3058 9.18602 14.3058 9.56645 14.0522 9.82007L12.0232 11.9124C11.8964 12.0392 11.7696 12.1026 11.5794 12.1026Z" fill="white"/>
</svg>
