<svg width="25" height="25" viewBox="0 0 25 25" fill="none" xmlns="http://www.w3.org/2000/svg">
<g clip-path="url(#clip0_30_14433)">
<path d="M5.88281 17.6523H16.1764V19.1172H5.88281V17.6523Z" fill="#FF7B02"/>
<path d="M5.88281 20.5938H11.8093V22.0586H5.88281V20.5938Z" fill="#FF7B02"/>
<path d="M2.94141 14.7109H4.40625V16.1758H2.94141V14.7109Z" fill="white"/>
<path d="M2.94141 20.5938H4.40625V22.0586H2.94141V20.5938Z" fill="white"/>
<path d="M5.88281 11.7656H16.1764V13.2305H5.88281V11.7656Z" fill="#FF7B02"/>
<path d="M2.94141 8.82422H4.40625V10.2891H2.94141V8.82422Z" fill="white"/>
<path d="M5.88281 14.7109H11.8093V16.1758H5.88281V14.7109Z" fill="#FF7B02"/>
<path d="M5.88281 8.82422H11.8108V10.2891H5.88281V8.82422Z" fill="#FF7B02"/>
<path d="M0 0V25H19.1162V4.84189L14.2743 0L0 0ZM14.7033 2.50063L16.6155 4.41284H14.7033V2.50063ZM1.46484 23.5352V1.46484H13.2385V5.87769H17.6513V23.5352H1.46484Z" fill="white"/>
<path d="M20.5938 8.49219V22.7976L22.7971 25.0009L25.0005 22.7976V8.49219H20.5938ZM23.5356 9.95703V11.4341H22.0586V9.95703H23.5356ZM23.5356 12.8989V19.6738H22.0586V12.8989H23.5356ZM22.7971 22.9293L22.0586 22.1908V21.1387H23.5356V22.1908L22.7971 22.9293Z" fill="white"/>
<path d="M7.34814 2.94141H2.94141V7.34814H7.34814V2.94141ZM5.8833 5.8833H4.40625V4.40625H5.8833V5.8833Z" fill="white"/>
</g>
<defs>
<clipPath id="clip0_30_14433">
<rect width="25" height="25" fill="white"/>
</clipPath>
</defs>
</svg>
