<svg width="24" height="24" viewBox="0 0 24 24" fill="none" xmlns="http://www.w3.org/2000/svg">
<g clip-path="url(#clip0_30_14350)">
<path d="M12.6099 18.0436C12.9057 17.5834 13.0781 17.0366 13.0781 16.4501V13.0343C13.0781 11.4043 11.752 10.0781 10.1219 10.0781H8.0625V8.78531C8.88089 8.49506 9.46875 7.71352 9.46875 6.79688C9.46875 5.63377 8.52248 4.6875 7.35938 4.6875C6.19627 4.6875 5.25 5.63377 5.25 6.79688C5.25 7.71352 5.83786 8.49506 6.65625 8.78531V10.0781H4.59684C2.96677 10.0781 1.64062 11.4043 1.64062 13.0343V16.45C1.64062 17.0366 1.81303 17.5833 2.10886 18.0435C0.910687 18.2649 0 19.3169 0 20.5781V24H14.7188V20.5781C14.7188 19.3169 13.8081 18.2649 12.6099 18.0436ZM7.35938 6.09375C7.74708 6.09375 8.0625 6.40917 8.0625 6.79688C8.0625 7.18458 7.74708 7.5 7.35938 7.5C6.97167 7.5 6.65625 7.18458 6.65625 6.79688C6.65625 6.40917 6.97167 6.09375 7.35938 6.09375ZM3.04688 13.0343C3.04688 12.1797 3.74217 11.4844 4.59684 11.4844H10.1219C10.9766 11.4844 11.6719 12.1797 11.6719 13.0343V16.45C11.6719 17.3047 10.9766 18 10.1219 18H4.59684C3.74217 18 3.04688 17.3047 3.04688 16.4501V13.0343ZM2.8125 22.5938H1.40625V20.5781C1.40625 19.932 1.93195 19.4062 2.57812 19.4062H2.8125V22.5938ZM10.5 22.5938H4.21875V19.4062H10.5V22.5938ZM13.3125 22.5938H11.9062V19.4062H12.1406C12.7868 19.4062 13.3125 19.932 13.3125 20.5781V22.5938Z" fill="white"/>
<path d="M7.35539 16.5936H7.3635C8.57606 16.5936 9.56255 15.6071 9.56255 14.3945H8.1563C8.1563 14.8317 7.80066 15.1874 7.36345 15.1874H7.35534C6.91819 15.1874 6.5625 14.8317 6.5625 14.3945H5.15625C5.1563 15.6071 6.14278 16.5936 7.35539 16.5936Z" fill="white"/>
<path d="M16.875 3.25781H20.3906V4.66406H16.875V3.25781Z" fill="#FF7B02"/>
<path d="M16.875 6.07031H20.3906V7.47656H16.875V6.07031Z" fill="#FF7B02"/>
<path d="M18.6328 0C15.6733 0 13.2656 2.40769 13.2656 5.36719C13.2656 6.49219 13.624 7.59717 14.2795 8.50645V10.257H16.4177C17.115 10.5738 17.8593 10.7344 18.6328 10.7344C21.5923 10.7344 24 8.32669 24 5.36719C24 2.40769 21.5923 0 18.6328 0ZM18.6328 9.32812C18.0198 9.32812 17.4321 9.19181 16.8861 8.92298L16.7392 8.85066H15.6857V8.02462L15.5325 7.83234C14.9695 7.12533 14.6719 6.27281 14.6719 5.36719C14.6719 3.18309 16.4487 1.40625 18.6328 1.40625C20.8169 1.40625 22.5938 3.18309 22.5938 5.36719C22.5938 7.55128 20.8169 9.32812 18.6328 9.32812Z" fill="#FF7B02"/>
</g>
<defs>
<clipPath id="clip0_30_14350">
<rect width="24" height="24" fill="white"/>
</clipPath>
</defs>
</svg>
