<svg width="24" height="24" viewBox="0 0 24 24" fill="none" xmlns="http://www.w3.org/2000/svg">
<g clip-path="url(#clip0_30_14519)">
<path d="M12.0004 4.01953C11.1708 4.01953 10.3896 4.42392 9.9106 5.10131L4.88523 12.2083C4.3307 12.9925 4.26048 14.0096 4.70204 14.8626C5.1436 15.7156 6.01459 16.2455 6.97506 16.2455H17.0258C17.9863 16.2455 18.8573 15.7156 19.2988 14.8626C19.7404 14.0096 19.6702 12.9925 19.1156 12.2083L14.0903 5.10131C13.6113 4.42392 12.83 4.01953 12.0004 4.01953ZM17.6337 14.0007C17.5761 14.1119 17.4017 14.3705 17.0258 14.3705H6.97506C6.59917 14.3705 6.42474 14.1119 6.36713 14.0007C6.30957 13.8894 6.19913 13.5977 6.41617 13.2907L11.4415 6.1838C11.5715 5.99995 11.7752 5.89448 12.0004 5.89448C12.2256 5.89448 12.4293 5.99995 12.5593 6.1838L17.5847 13.2908C17.8017 13.5977 17.6912 13.8895 17.6337 14.0007Z" fill="#FF7B02"/>
<path d="M11.0625 8.50781V9.33159C11.0625 9.84938 11.4822 10.2691 12 10.2691C12.5178 10.2691 12.9375 9.84938 12.9375 9.33159V8.50781C12.9375 7.99003 12.5178 7.57031 12 7.57031C11.4822 7.57031 11.0625 7.99003 11.0625 8.50781Z" fill="#FF7B02"/>
<path d="M12.9185 12.3906C12.8426 12.0168 12.5428 11.7214 12.1675 11.6518C11.784 11.5806 11.3808 11.7662 11.1876 12.1055C10.9907 12.4512 11.0325 12.8916 11.2944 13.1919C11.5468 13.4812 11.9644 13.5856 12.3238 13.4529C12.7494 13.2958 13.0098 12.8371 12.9185 12.3906Z" fill="#FF7B02"/>
<path d="M23.0625 12.476C23.5803 12.476 24 12.0562 24 11.5385V4.23437C24 2.16662 22.3177 0.484375 20.25 0.484375H3.75C1.68225 0.484375 0 2.16662 0 4.23437V16.2305C0 18.2982 1.68225 19.9805 3.75 19.9805H9.07627V21.6411H5.26195C4.74417 21.6411 4.32445 22.0608 4.32445 22.5786C4.32445 23.0964 4.74417 23.5161 5.26195 23.5161H18.738C19.2558 23.5161 19.6755 23.0964 19.6755 22.5786C19.6755 22.0608 19.2558 21.6411 18.738 21.6411H14.9237V19.9805H20.25C22.3177 19.9805 24 18.2982 24 16.226C24 15.7082 23.5803 15.2907 23.0625 15.2907C22.5447 15.2907 22.125 15.7127 22.125 16.2305C22.125 17.2644 21.2839 18.1055 20.25 18.1055H3.75C2.71613 18.1055 1.875 17.2644 1.875 16.2305V4.23437C1.875 3.2005 2.71613 2.35937 3.75 2.35937H20.25C21.2839 2.35937 22.125 3.2005 22.125 4.23437V11.5385C22.125 12.0562 22.5447 12.476 23.0625 12.476ZM13.0487 19.9805V21.6411H10.9513V19.9805H13.0487Z" fill="white"/>
</g>
<defs>
<clipPath id="clip0_30_14519">
<rect width="24" height="24" fill="white"/>
</clipPath>
</defs>
</svg>
