<svg width="27" height="27" viewBox="0 0 27 27" fill="none" xmlns="http://www.w3.org/2000/svg">
<path fill-rule="evenodd" clip-rule="evenodd" d="M11.475 3.375C10.0773 3.375 8.87817 4.28336 8.47214 5.55201C8.14423 5.43734 7.79172 5.375 7.425 5.375C5.69852 5.375 4.275 6.76098 4.275 8.50001C4.275 8.96709 4.37769 9.40871 4.56137 9.80485C3.19539 10.4781 2.25 11.8738 2.25 13.5C2.25 15.4011 3.54204 16.9872 5.28762 17.4723L5.2875 17.5001C5.2875 19.202 6.65091 20.5657 8.32738 20.6232C8.39269 22.304 9.78947 23.625 11.475 23.625C12.2428 23.625 12.9507 23.3509 13.5 22.8936C14.0494 23.3509 14.7572 23.625 15.525 23.625C17.2106 23.625 18.6073 22.304 18.6726 20.6232C20.3491 20.5657 21.7125 19.202 21.7125 17.5001L21.7124 17.4723C23.4579 16.9872 24.75 15.4011 24.75 13.5C24.75 11.8738 23.8046 10.4781 22.4386 9.80485C22.6223 9.40871 22.725 8.96709 22.725 8.50001C22.725 6.76098 21.3014 5.375 19.575 5.375C19.2083 5.375 18.8558 5.43734 18.5279 5.55201C18.1218 4.28336 16.9227 3.375 15.525 3.375C14.7572 3.375 14.0494 3.64908 13.5 4.10642C12.9507 3.64908 12.2428 3.375 11.475 3.375ZM12.375 6.5C12.375 6.02989 11.9853 5.625 11.475 5.625C10.9647 5.625 10.575 6.02989 10.575 6.5C10.575 6.60623 10.594 6.70574 10.6279 6.7972C10.8288 7.33767 10.5885 7.94248 10.0715 8.19777L9.62196 8.41978C9.11295 8.67114 8.49642 8.5039 8.18422 8.02977C8.02465 7.78742 7.74651 7.625 7.425 7.625C6.91472 7.625 6.525 8.02989 6.525 8.50001C6.525 8.97011 6.91472 9.375 7.425 9.375C7.44683 9.375 7.4683 9.37427 7.48941 9.37284C7.88545 9.34608 8.26627 9.53001 8.49153 9.85684C8.7168 10.1837 8.75315 10.605 8.5872 10.9656L8.49802 11.1594C8.25242 11.693 7.6375 11.9479 7.08639 11.7444C6.87844 11.6676 6.6519 11.625 6.4125 11.625C5.34304 11.625 4.5 12.4776 4.5 13.5C4.5 14.5224 5.34304 15.375 6.4125 15.375C6.4727 15.375 6.53197 15.3723 6.59025 15.3671C7.01124 15.3294 7.41787 15.5307 7.64296 15.8885C7.86805 16.2462 7.87361 16.7 7.65736 17.0632C7.58099 17.1913 7.5375 17.3394 7.5375 17.5001C7.5375 17.9701 7.92722 18.375 8.4375 18.375C8.65267 18.375 8.84613 18.303 8.99931 18.1836C9.26043 17.9802 9.5979 17.902 9.92188 17.97C10.2458 18.0379 10.5234 18.2451 10.6807 18.5364L10.8214 18.7968C11.0274 19.1784 10.9958 19.6445 10.74 19.9948C10.6353 20.1383 10.575 20.3112 10.575 20.5C10.575 20.9701 10.9647 21.375 11.475 21.375C11.9853 21.375 12.375 20.9701 12.375 20.5V16.875H11.25C10.6287 16.875 10.125 16.3713 10.125 15.75V11.25C10.125 10.6287 10.6287 10.125 11.25 10.125H12.375V6.5ZM14.625 20.5V16.875H15.75C16.3713 16.875 16.875 16.3713 16.875 15.75V11.25C16.875 10.6287 16.3713 10.125 15.75 10.125H14.625V6.5C14.625 6.02989 15.0147 5.625 15.525 5.625C16.0353 5.625 16.425 6.02989 16.425 6.5C16.425 6.60623 16.406 6.70574 16.372 6.7972C16.1712 7.33767 16.4115 7.94248 16.9284 8.19777L17.3781 8.41978C17.887 8.67114 18.5035 8.5039 18.8157 8.02977C18.9754 7.78742 19.2535 7.625 19.575 7.625C20.0853 7.625 20.475 8.02989 20.475 8.50001C20.475 8.97011 20.0853 9.375 19.575 9.375C19.5532 9.375 19.5317 9.37427 19.5105 9.37284C19.1145 9.34608 18.7337 9.53001 18.5085 9.85684C18.2832 10.1837 18.2468 10.605 18.4128 10.9656L18.502 11.1594C18.7476 11.693 19.3625 11.9479 19.9136 11.7444C20.1215 11.6676 20.3481 11.625 20.5875 11.625C21.6569 11.625 22.5 12.4776 22.5 13.5C22.5 14.5224 21.6569 15.375 20.5875 15.375C20.5273 15.375 20.468 15.3723 20.4097 15.3671C19.9888 15.3294 19.5821 15.5307 19.3571 15.8885C19.132 16.2462 19.1264 16.7 19.3427 17.0632C19.419 17.1913 19.4625 17.3394 19.4625 17.5001C19.4625 17.9701 19.0728 18.375 18.5625 18.375C18.3473 18.375 18.1539 18.303 18.0007 18.1836C17.7396 17.9802 17.4021 17.902 17.0782 17.97C16.7542 18.0379 16.4765 18.2451 16.3192 18.5364L16.1786 18.7968C15.9725 19.1784 16.0043 19.6445 16.26 19.9948C16.3647 20.1383 16.425 20.3112 16.425 20.5C16.425 20.9701 16.0353 21.375 15.525 21.375C15.0147 21.375 14.625 20.9701 14.625 20.5ZM12.375 12.375H14.625V14.625H12.375V12.375Z" fill="white"/>
<mask id="path-2-inside-1_30_14423" fill="white">
<rect x="10" y="10" width="7" height="7" rx="1"/>
</mask>
<rect x="10" y="10" width="7" height="7" rx="1" stroke="#FF7B02" stroke-width="4" mask="url(#path-2-inside-1_30_14423)"/>
</svg>
