<svg width="32" height="32" viewBox="0 0 32 32" fill="none" xmlns="http://www.w3.org/2000/svg">
<path d="M28.7966 8.63812C28.7916 8.62812 28.7916 8.61613 28.7856 8.60612C28.7736 8.58512 28.7526 8.57313 28.7386 8.55313C28.4816 8.13313 28.1286 7.77113 27.6896 7.51713L17.4986 1.63412C16.5746 1.10113 15.4256 1.10113 14.4996 1.63412L4.30859 7.51713C3.86959 7.77113 3.51759 8.13313 3.26059 8.55313C3.24659 8.57313 3.22559 8.58512 3.21359 8.60612C3.20759 8.61613 3.20859 8.62712 3.20259 8.63812C2.95059 9.08212 2.80859 9.59013 2.80859 10.1161V21.8831C2.80859 22.9511 3.38359 23.9461 4.30859 24.4821L14.4986 30.3661C14.9576 30.6301 15.4716 30.7621 15.9856 30.7651C15.9906 30.7651 15.9946 30.7681 15.9996 30.7681C16.0046 30.7681 16.0086 30.7651 16.0136 30.7651C16.5276 30.7631 17.0416 30.6311 17.4996 30.3661L27.6906 24.4821C28.6156 23.9471 29.1906 22.9521 29.1906 21.8831V10.1161C29.1906 9.59013 29.0486 9.08312 28.7966 8.63812ZM26.6906 22.7491L16.9996 28.3441V24.9371C16.9996 24.3841 16.5516 23.9371 15.9996 23.9371C15.4476 23.9371 14.9996 24.3841 14.9996 24.9371V28.3451L5.30959 22.7501C5.00059 22.5721 4.80959 22.2401 4.80959 21.8841V10.6821L9.33059 13.2921C9.48859 13.3831 9.66059 13.4261 9.82959 13.4261C10.1756 13.4261 10.5116 13.2461 10.6966 12.9261C10.9726 12.4471 10.8086 11.8361 10.3306 11.5601L5.81859 8.95512L15.4986 3.36613C15.6536 3.27713 15.8266 3.23313 15.9996 3.23313C16.1726 3.23313 16.3456 3.27713 16.4996 3.36613L26.1806 8.95512L21.6696 11.5591C21.1916 11.8351 21.0276 12.4471 21.3036 12.9251C21.4896 13.2451 21.8246 13.4251 22.1706 13.4251C22.3396 13.4251 22.5116 13.3821 22.6696 13.2911L27.1906 10.6811V21.8821C27.1906 22.2391 26.9986 22.5711 26.6906 22.7491Z" fill="white"/>
<path d="M21.6959 14.9093L20.3009 14.4062C19.0289 13.9472 18.0349 12.9553 17.5769 11.6823L17.0749 10.2863C16.9119 9.83525 16.4789 9.53125 15.9989 9.53125C15.5189 9.53125 15.0859 9.83525 14.9229 10.2872L14.4209 11.6833C13.9629 12.9553 12.9689 13.9483 11.6959 14.4073L10.2989 14.9102C9.84887 15.0742 9.54688 15.5062 9.54688 15.9843C9.54688 16.4623 9.84888 16.8943 10.3019 17.0593L11.6959 17.5612C12.9689 18.0202 13.9619 19.0133 14.4209 20.2863L14.9229 21.6823C15.0859 22.1342 15.5179 22.4383 15.9989 22.4383C16.4799 22.4383 16.9119 22.1342 17.0749 21.6823L17.5769 20.2863C18.0349 19.0142 19.0289 18.0202 20.3009 17.5612L21.6989 17.0582C22.1489 16.8942 22.4509 16.4623 22.4509 15.9843C22.4509 15.5062 22.1489 15.0743 21.6959 14.9093ZM15.9989 18.8992C15.3679 17.6352 14.3479 16.6153 13.0839 15.9843C14.3479 15.3533 15.3679 14.3342 15.9989 13.0693C16.6299 14.3333 17.6499 15.3533 18.9139 15.9843C17.6499 16.6153 16.6299 17.6352 15.9989 18.8992Z" fill="#FF7B02"/>
</svg>
