<svg width="27" height="27" viewBox="0 0 27 27" fill="none" xmlns="http://www.w3.org/2000/svg">
<g clip-path="url(#clip0_30_14144)">
<path d="M27 23.8228V4.76582H23.8228V0H3.17725V4.76582H0V23.8228H10.326V23.9168C10.326 24.7446 9.65261 25.418 8.82489 25.418H7.14551V27H19.8545V25.418H18.1751C17.3473 25.418 16.6739 24.7446 16.6739 23.9168V23.8228H27ZM4.75928 4.75928H22.2407V15.8862H4.75928V4.75928ZM22.2407 3.17725H8.45838L9.30155 1.58203H22.2407V3.17725ZM7.51206 1.58203L6.66884 3.17725H4.75928V1.58203H7.51206ZM3.17725 6.34785V17.4683H23.8228V6.34785H25.418V19.0635H1.58203V6.34785H3.17725ZM1.58203 20.6455H25.418V22.2407H1.58203V20.6455ZM15.4834 25.418H11.5166C11.7655 24.9734 11.9081 24.4616 11.9081 23.9168V23.8228H15.0919V23.9168C15.0919 24.4616 15.2345 24.9734 15.4834 25.418Z" fill="white"/>
<path d="M6.35547 11.1148H11.1148V6.35547H6.35547V11.1148ZM7.9375 7.9375H9.53277V9.53277H7.9375V7.9375Z" fill="white"/>
<path d="M12.709 6.35547H20.6456V7.9375H12.709V6.35547Z" fill="white"/>
<path d="M12.709 9.53125H20.6455V11.1133H12.709V9.53125Z" fill="#FF7B02"/>
<path d="M19.0625 12.7109H20.6445V14.293H19.0625V12.7109Z" fill="#FF7B02"/>
<path d="M12.709 12.7109H17.4682V14.293H12.709V12.7109Z" fill="#FF7B02"/>
<path d="M6.35547 12.7109H11.1148V14.293H6.35547V12.7109Z" fill="white"/>
</g>
<defs>
<clipPath id="clip0_30_14144">
<rect width="27" height="27" fill="white"/>
</clipPath>
</defs>
</svg>
