<svg width="30" height="30" viewBox="0 0 30 30" fill="none" xmlns="http://www.w3.org/2000/svg">
<g clip-path="url(#clip0_30_14471)">
<path d="M11.7188 29.9994C17.3627 29.9994 23.4375 28.7525 23.4375 26.0151V21.7965C23.4375 20.8052 22.6919 19.9723 21.2116 19.3115L23.4616 15.8188L25.4244 13.8558C25.7741 13.5031 25.9703 13.0266 25.9703 12.53C25.9703 12.0334 25.7742 11.5569 25.4247 11.2042L24.1312 9.9108L28.9616 5.51958C29.2792 5.2308 29.5349 4.88055 29.7133 4.49004C29.8916 4.09954 29.9888 3.6769 29.999 3.24773C30.0092 2.81855 29.9322 2.39177 29.7726 1.99323C29.6131 1.59469 29.3743 1.23268 29.0707 0.929126C28.7672 0.625571 28.4052 0.386788 28.0066 0.227236C27.6081 0.0676841 27.1813 -0.00931622 26.7521 0.000898149C26.3229 0.0111125 25.9003 0.108329 25.5098 0.28666C25.1193 0.464992 24.7691 0.720727 24.4803 1.03838L20.089 5.86865L18.7958 4.57546C18.4431 4.22583 17.9666 4.02965 17.47 4.0296C16.9734 4.02956 16.4969 4.22566 16.1442 4.57523L14.226 6.49315L11.9424 7.97071C10.2615 7.99676 1.99488 7.99161 2.37 11.2806C0.796701 11.9492 0 12.8032 0 13.8278V18.0465C0.0191104 18.4284 0.132634 18.7996 0.330404 19.1268C0.528174 19.454 0.804016 19.7271 1.13323 19.9216C0.804029 20.116 0.528193 20.389 0.330423 20.7163C0.132653 21.0435 0.0191225 21.4146 0 21.7965L0 26.0151C0 28.7525 6.07475 29.9994 11.7188 29.9994ZM25.8678 2.29949C25.9859 2.16959 26.1291 2.06501 26.2888 1.99208C26.4485 1.91915 26.6213 1.87939 26.7968 1.87521C26.9724 1.87104 27.1469 1.90253 27.3099 1.96778C27.4729 2.03303 27.6209 2.13068 27.7451 2.25482C27.8692 2.37896 27.9669 2.52701 28.0321 2.68999C28.0974 2.85298 28.1289 3.02751 28.1247 3.20303C28.1205 3.37854 28.0808 3.55138 28.0078 3.71108C27.9349 3.87078 27.8303 4.01402 27.7004 4.13212L22.8042 8.58333L21.4165 7.19565L25.8678 2.29949ZM11.7188 28.1245C5.25238 28.1245 2.0137 26.5892 1.875 26.0151L1.87457 24.093C4.10839 25.2411 8.00648 25.7808 11.7188 25.7808C15.431 25.7808 19.3292 25.2411 21.563 24.0929L21.5634 26.0055C21.4238 26.5892 18.1851 28.1245 11.7188 28.1245ZM12.8024 17.7912C13.6672 18.6004 14.611 19.3207 15.6197 19.9413C14.3243 20.0852 13.022 20.1568 11.7188 20.1559C8.52768 20.1559 5.47005 19.7386 3.53851 19.0396C2.05329 18.504 1.87705 18.0465 1.875 18.0465L1.87457 16.1243C4.10839 17.2725 8.00648 17.8121 11.7188 17.8121C12.0858 17.8121 12.4441 17.8014 12.8024 17.7912ZM11.7188 22.0308C13.9139 22.0472 16.1052 21.8442 18.26 21.425C18.5196 21.5999 18.8162 21.7125 19.1265 21.7539C19.2835 21.754 19.438 21.7147 19.5758 21.6395C19.7136 21.5644 19.8303 21.4558 19.9152 21.3238L20.1814 20.9107C20.5627 20.9938 21.5657 21.5956 21.5604 21.7924C21.5441 22.4003 18.1665 23.9058 11.7188 23.9058C5.25238 23.9058 2.0137 22.3705 1.87409 21.8058C1.87515 21.8018 2.02409 21.4036 3.24669 20.9146C5.39317 21.6235 8.4449 22.0308 11.7188 22.0308ZM18.8 19.5931L18.7977 19.5958C14.4936 17.3545 12.6443 15.5049 10.4027 11.2003L14.6912 8.42541L21.5657 15.2998L18.8 19.5931ZM17.4699 5.90089L24.099 12.5299L22.7733 13.8555L16.1442 7.22654L17.4699 5.90089ZM8.85088 9.9711C8.72938 10.0227 8.61953 10.0983 8.52787 10.1933C8.43621 10.2883 8.36463 10.4008 8.31739 10.524C8.27016 10.6473 8.24824 10.7788 8.25295 10.9107C8.25766 11.0427 8.2889 11.1723 8.3448 11.2919C8.47554 11.5534 8.60389 11.8004 8.73229 12.0471C6.5517 11.8345 5.03253 11.4077 4.38745 11.0092C4.94982 10.6594 6.4702 10.1927 8.85088 9.9711ZM3.71189 12.7744C4.97108 13.4146 7.16831 13.862 9.82475 14.0081C10.224 14.6717 10.6597 15.3129 11.1297 15.9285C5.06186 15.8377 2.00932 14.3842 1.87408 13.837C1.87537 13.8319 2.06697 13.3343 3.71189 12.7744Z" fill="white"/>
<path d="M14.0625 13.125C14.5803 13.125 15 12.7053 15 12.1875C15 11.6697 14.5803 11.25 14.0625 11.25C13.5447 11.25 13.125 11.6697 13.125 12.1875C13.125 12.7053 13.5447 13.125 14.0625 13.125Z" fill="#FF7B02"/>
</g>
<defs>
<clipPath id="clip0_30_14471">
<rect width="30" height="30" fill="white"/>
</clipPath>
</defs>
</svg>
