<svg width="27" height="27" viewBox="0 0 27 27" fill="none" xmlns="http://www.w3.org/2000/svg">
<path d="M27 19.6597V2.66406H0.0065907V19.6597H1.31917L0.692853 20.2861C-0.800621 21.7731 0.28661 24.3492 2.37055 24.3352C2.97809 24.3352 3.58569 24.1039 4.04819 23.6414L7.56791 20.1217C8.42574 20.4561 9.34273 20.5853 10.252 20.5052V22.7186H8.06827V24.3003H18.9383V22.7186H16.7546V19.6597H27V19.6597ZM1.58833 18.078V4.2458H25.4182V18.078H14.5345C16.0155 16.0335 16.0304 13.2494 14.579 11.19L15.6332 10.1358L18.1376 12.6402L22.2502 8.52771V10.2037H23.8319V5.82753H19.403V7.40927H21.1317L18.1376 10.4033L15.6332 7.89892L13.503 10.0292C11.1764 8.10781 7.7156 8.23483 5.5395 10.411C3.82437 12.1261 3.38238 14.6393 4.21263 16.7662L2.9009 18.078H1.58833ZM2.92979 22.5229C2.63538 22.8296 2.10571 22.8298 1.8113 22.5229C1.50455 22.2285 1.50449 21.6988 1.8113 21.4045L5.01768 18.1981C5.33255 18.6123 5.72198 19.0017 6.13613 19.3166L2.92979 22.5229ZM6.65794 17.6763C4.96327 15.9815 4.96327 13.2241 6.65794 11.5294C8.13165 9.99688 10.7229 9.8337 12.3771 11.155L8.27252 15.2596L9.39097 16.378L13.4368 12.3322C14.4624 14.0059 14.2524 16.2286 12.8048 17.6763C11.187 19.3624 8.27569 19.3624 6.65794 17.6763ZM15.1728 22.7185H11.8337V20.1454C12.1757 20.0163 12.5079 19.8542 12.8257 19.6597H15.1728V22.7185Z" fill="white"/>
<path d="M3.16406 5.82812H7.1184V7.40986H3.16406V5.82812Z" fill="#FF7B02"/>
</svg>
