<svg width="27" height="27" viewBox="0 0 27 27" fill="none" xmlns="http://www.w3.org/2000/svg">
<path d="M13.5903 24.1536C9.00967 24.1536 5.01656 21.2299 3.56958 17.0122L4.74853 17.5266L5.38264 16.0733L2.09902 14.6406L0 17.7899L1.31944 18.6694L2.07349 17.538C3.74025 22.3822 8.32815 25.7393 13.5903 25.7393C19.4697 25.7393 24.5075 21.5492 25.5692 15.7762L24.0096 15.4894C23.0863 20.5098 18.7044 24.1536 13.5903 24.1536Z" fill="white"/>
<path d="M13.5898 2.8474C18.1249 2.8474 22.1073 5.7401 23.5788 9.91171L22.1792 9.33648L21.5764 10.8031L25.0771 12.2419L26.9995 9.21887L25.6615 8.36789L25.0532 9.32437C23.3443 4.55993 18.7819 1.26172 13.5898 1.26172C7.7704 1.26172 2.74173 5.40135 1.63281 11.1048L3.18932 11.4075C4.15373 6.44747 8.52777 2.8474 13.5898 2.8474Z" fill="white"/>
<path d="M8.03516 20.9773H19.1419V7.96025L17.248 6.09375H8.03516V20.9773ZM9.62084 7.67943H16.5979L17.5562 8.62386V19.3916H9.62084V7.67943Z" fill="white"/>
<path d="M11.7754 9.39453H15.4034V10.9802H11.7754V9.39453Z" fill="#FF7B02"/>
<path d="M11.7754 12.7422H15.4034V14.3279H11.7754V12.7422Z" fill="#FF7B02"/>
<path d="M11.7754 16.0898H15.4034V17.6755H11.7754V16.0898Z" fill="#FF7B02"/>
</svg>
