<svg width="24" height="24" viewBox="0 0 24 24" fill="none" xmlns="http://www.w3.org/2000/svg">
<g clip-path="url(#clip0_30_14397)">
<path d="M7.04224 12.9375H16.9576C19.1175 12.9375 20.9266 11.4078 21.3591 9.375H23.0625C23.5803 9.375 24 8.95532 24 8.4375V2.14508C24 1.89661 23.9013 1.65802 23.7255 1.48224L22.5178 0.274658C22.342 0.0986939 22.1036 0 21.8549 0H17.9777C17.46 0 17.0402 0.419678 17.0402 0.9375V3.75H6.95984V2.14508C6.95984 1.89661 6.86096 1.65802 6.68518 1.48224L5.4776 0.274658C5.30182 0.0986939 5.06323 0 4.81458 0H0.9375C0.419678 0 0 0.419678 0 0.9375V8.4375C0 8.95532 0.419678 9.375 0.9375 9.375H6.02234C6.53998 9.375 6.95984 8.95532 6.95984 8.4375V5.625H17.0403V8.4375C17.0403 8.95532 17.46 9.375 17.9778 9.375H19.409C19.0307 10.3607 18.0749 11.0625 16.9578 11.0625H7.04224C4.88232 11.0625 3.07324 12.5922 2.64093 14.625H0.9375C0.419678 14.625 0 15.0447 0 15.5625V23.0625C0 23.5803 0.419678 24 0.9375 24H6.02234C6.53998 24 6.95984 23.5803 6.95984 23.0625V20.25H17.0403V23.0625C17.0403 23.5803 17.46 24 17.9778 24H23.0625C23.5803 24 24 23.5803 24 23.0625V16.7701C24 16.5216 23.9013 16.283 23.7255 16.1072L22.5178 14.8997C22.342 14.7237 22.1036 14.625 21.8549 14.625H17.9777C17.46 14.625 17.0402 15.0447 17.0402 15.5625V18.375H6.95984V16.7701C6.95984 16.5214 6.86096 16.283 6.68518 16.1072L5.4776 14.8995C5.30182 14.7237 5.06323 14.625 4.81458 14.625H4.591C4.9693 13.6393 5.92511 12.9375 7.04224 12.9375ZM5.08484 7.5H1.875V1.875H4.42639L5.08484 2.53345V7.5ZM18.9152 7.5C18.9152 6.69763 18.9152 2.55341 18.9152 1.875H21.4666L22.125 2.53345V7.5H18.9152ZM18.9152 16.5H21.4666L22.125 17.1584V22.125H18.9152C18.9152 21.3226 18.9152 17.1784 18.9152 16.5ZM5.08484 17.1584V22.125H1.875V16.5H4.42639L5.08484 17.1584Z" fill="white"/>
<circle cx="12" cy="12" r="3" fill="#FF7B02"/>
</g>
<defs>
<clipPath id="clip0_30_14397">
<rect width="24" height="24" fill="white"/>
</clipPath>
</defs>
</svg>
