<svg width="27" height="27" viewBox="0 0 27 27" fill="none" xmlns="http://www.w3.org/2000/svg">
<g clip-path="url(#clip0_30_14160)">
<path d="M26.209 21.1817H24.4582V10.1109C24.4582 8.74041 23.3432 7.62539 21.9727 7.62539H21.0691V5.87461C21.0691 5.66483 20.9858 5.46365 20.8374 5.31531L15.7539 0.231715C15.6056 0.0833731 15.4043 0 15.1946 0H6.72189C6.28504 0 5.93088 0.354164 5.93088 0.791016V7.62539H5.02733C3.65681 7.62539 2.5418 8.74041 2.5418 10.1109V21.1816H0.791016C0.354164 21.1816 0 21.5358 0 21.9726V24.5144C0 25.9016 1.12593 27 2.48553 27H24.5145C25.8811 27 27 25.8951 27 24.5145V21.9727C27 21.5358 26.6458 21.1817 26.209 21.1817ZM15.9856 2.70069L18.3684 5.08359H15.9855V2.70069H15.9856ZM7.51291 1.58203H14.4036V5.87461C14.4036 6.31146 14.7577 6.66563 15.1946 6.66563H19.4871V17.7926H7.51291V1.58203ZM4.12383 10.1109C4.12383 9.61274 4.52914 9.20742 5.02733 9.20742H5.93082V18.5836C5.93082 19.0204 6.28499 19.3746 6.72184 19.3746H20.2781C20.7149 19.3746 21.0691 19.0204 21.0691 18.5836V9.20742H21.9726C22.4708 9.20742 22.8761 9.61274 22.8761 10.1109V21.1816H16.0418C15.832 21.1816 15.6308 21.265 15.4825 21.4133L14.8669 22.0289H12.1331L11.5175 21.4133C11.3692 21.265 11.168 21.1816 10.9582 21.1816H4.12383V10.1109ZM25.418 24.5145C25.418 25.0067 25.02 25.418 24.5144 25.418H2.48553C1.99315 25.418 1.58203 25.0199 1.58203 24.5145V22.7637H10.6305L11.2461 23.3793C11.3945 23.5276 11.5957 23.611 11.8054 23.611H15.1945C15.4043 23.611 15.6055 23.5276 15.7538 23.3793L16.3694 22.7637H25.418V24.5145Z" fill="white"/>
<path d="M10.1102 4.97266H11.8047C12.8524 4.93411 12.853 3.42938 11.8047 3.39062H10.1102C9.06252 3.42917 9.06194 4.93384 10.1102 4.97266Z" fill="#FF7B02"/>
<path d="M10.1102 8.35938H11.8047C12.8524 8.32083 12.853 6.8161 11.8047 6.77734H10.1102C9.06252 6.81595 9.06194 8.32062 10.1102 8.35938Z" fill="#FF7B02"/>
<path d="M16.8895 10.168H10.1113C9.67448 10.168 9.32031 10.5221 9.32031 10.959C9.32031 11.3958 9.67448 11.75 10.1113 11.75H16.8894C17.9357 11.7121 17.9391 10.2072 16.8895 10.168Z" fill="#FF7B02"/>
<path d="M16.8895 13.5547H10.1113C9.67448 13.5547 9.32031 13.9089 9.32031 14.3457C9.32031 14.7826 9.67448 15.1367 10.1113 15.1367H16.8894C17.9357 15.0988 17.9391 13.5939 16.8895 13.5547Z" fill="#FF7B02"/>
</g>
<defs>
<clipPath id="clip0_30_14160">
<rect width="27" height="27" fill="white"/>
</clipPath>
</defs>
</svg>
