<svg width="25" height="25" viewBox="0 0 25 25" fill="none" xmlns="http://www.w3.org/2000/svg">
<path d="M6.13327 7.57815H6.79733C6.64108 7.85159 6.48483 8.16409 6.32858 8.43753C6.13327 8.78909 6.21139 9.2969 6.60202 9.49221C6.95358 9.68753 7.46139 9.6094 7.6567 9.21878C8.00827 8.55472 8.39889 7.85159 8.75045 7.18753C9.02389 6.67971 8.67233 6.01565 8.08639 6.01565C7.81295 6.01565 7.53952 6.01565 7.30514 6.01565C7.46139 5.66409 7.61764 5.27347 7.77389 4.9219C7.93014 4.53128 7.61764 4.06253 7.22702 3.94534C6.75827 3.82815 6.44577 4.10159 6.25045 4.49221C5.97702 5.19534 5.66452 5.8594 5.39108 6.56253C5.1567 7.07034 5.66452 7.57815 6.13327 7.57815Z" fill="#FF7B02"/>
<path d="M22.1094 21.5234C21.875 21.5234 21.6016 21.5234 21.3672 21.5234C21.3672 18.4375 21.3672 15.3125 21.3672 12.2266C21.3672 11.7578 21.3672 11.2891 21.3672 10.7812C21.3672 10.3516 21.0156 10 20.5859 10C19.8438 10 19.0625 10 18.3203 10C17.8906 10 17.5391 10.3516 17.5391 10.7812V20.8594V21.5234C17.3047 21.5234 17.0703 21.5234 16.8359 21.5234C16.8359 19.0625 16.8359 16.6406 16.8359 14.1797C16.8359 13.7891 16.8359 13.3984 16.8359 13.0469C16.8359 12.6172 16.4844 12.2656 16.0547 12.2656C15.3125 12.2656 14.5312 12.2656 13.7891 12.2656C13.3594 12.2656 13.0078 12.6172 13.0078 13.0469V21.1719V21.5234C12.7734 21.5234 12.5391 21.5234 12.3047 21.5234C12.3047 19.8437 12.3047 18.1641 12.3047 16.4844C12.3047 16.2109 12.3047 15.9375 12.3047 15.6641C12.3047 15.2344 11.9531 14.8828 11.5234 14.8828C10.7812 14.8828 10 14.8828 9.25781 14.8828C8.82812 14.8828 8.47656 15.2344 8.47656 15.6641V21.4844V21.5234C8.24219 21.5234 8.00781 21.5234 7.77344 21.5234C7.77344 20.4297 7.77344 19.2969 7.77344 18.2031C7.77344 18.0078 7.77344 17.8125 7.77344 17.6172C7.77344 17.1875 7.42187 16.8359 6.99219 16.8359C6.25 16.8359 5.46875 16.8359 4.72656 16.8359C4.29688 16.8359 3.94531 17.1875 3.94531 17.6172V21.5234C3.71094 21.5234 3.47656 21.5234 3.24219 21.5234C2.22656 21.5234 2.22656 23.0859 3.24219 23.0859H9.60938H19.7656H22.1094C23.125 23.0859 23.125 21.5234 22.1094 21.5234ZM5.54687 21.5234C5.50781 21.5234 5.50781 21.5234 5.46875 21.5234C5.46875 20.4687 5.46875 19.4531 5.46875 18.3984H6.17188V21.5234C5.97656 21.5234 5.78125 21.5234 5.54687 21.5234ZM10 21.5234C10 19.8437 10 18.1641 10 16.4844V16.4453H10.7031V21.4844V21.5234C10.5078 21.5234 10.2734 21.5234 10 21.5234ZM14.5312 21.5234C14.5312 19.0625 14.5312 16.6406 14.5312 14.1797C14.5312 14.0625 14.5312 13.9453 14.5312 13.8281H15.2344V21.1719V21.5234C15.0391 21.5234 14.7656 21.5234 14.5312 21.5234ZM19.0625 21.5234C19.0625 18.4375 19.0625 15.3125 19.0625 12.2266C19.0625 11.9922 19.0625 11.7969 19.0625 11.5625H19.7656V20.8594V21.5234C19.5703 21.5234 19.2969 21.5234 19.0625 21.5234Z" fill="white"/>
<path d="M5.27404 13.9453C4.57091 14.2969 3.90685 14.6875 3.20373 15.0391C2.34435 15.5078 3.1256 16.875 4.02404 16.4062C5.89904 15.3906 7.77404 14.4141 9.60998 13.3984C12.5787 11.7969 15.5475 10.1953 18.5553 8.59375C19.024 8.32031 19.5319 8.08594 20.0006 7.8125C19.9615 7.89062 19.9225 8.00781 19.8834 8.08594C19.8444 8.20313 19.8053 8.32031 19.7272 8.4375C19.649 8.63281 19.7272 8.86719 19.8053 9.02344C19.8834 9.17969 20.0787 9.33594 20.274 9.375C20.7428 9.49219 21.0553 9.21875 21.2506 8.82812C21.5631 8.00781 21.9147 7.1875 22.2272 6.32813C22.3444 6.01563 22.5006 5.70312 22.2662 5.35156C21.9537 4.84375 21.3287 4.96094 20.8209 4.96094C20.1959 4.96094 19.5709 4.92188 18.9069 4.92188C18.7897 4.92188 18.6334 4.92188 18.5162 4.92188C18.1256 4.92188 17.735 5.27344 17.735 5.70312C17.735 6.13281 18.0865 6.48438 18.5162 6.48438H19.024C17.4225 7.34375 15.7819 8.20312 14.1803 9.10156C11.2506 10.7422 8.28185 12.3438 5.27404 13.9453Z" fill="white"/>
<path d="M6.99219 11.6797C9.6875 11.6797 11.875 9.49219 11.875 6.79688C11.875 4.10156 9.6875 1.91406 6.99219 1.91406C4.29688 1.91406 2.10938 4.10156 2.10938 6.79688C2.10938 9.49219 4.29688 11.6797 6.99219 11.6797ZM6.99219 3.47656C8.82812 3.47656 10.3125 4.96094 10.3125 6.79688C10.3125 8.63281 8.82812 10.1172 6.99219 10.1172C5.15625 10.1172 3.67187 8.63281 3.67187 6.79688C3.67187 4.96094 5.15625 3.47656 6.99219 3.47656Z" fill="#FF7B02"/>
</svg>
