<svg width="21" height="21" viewBox="0 0 21 21" fill="none" xmlns="http://www.w3.org/2000/svg">
<g clip-path="url(#clip0_30_14196)">
<path d="M18.9492 10.0898V6.80859H17.8828V5.98828H15.7893C15.6888 5.6634 15.5588 5.34955 15.4002 5.0489L16.8806 3.56856L14.5604 1.24839L13.0801 2.72869C12.7792 2.56979 12.4653 2.43965 12.1407 2.33924V0.246094H8.85942V2.3392C8.53474 2.43961 8.22088 2.56975 7.91999 2.72865L6.4397 1.24835L4.11953 3.56852L4.89858 4.34766H1.43555C0.643986 4.34766 0 4.99164 0 5.7832V18.0879C0 19.5579 1.19597 20.7539 2.66602 20.7539H18.334C19.804 20.7539 21 19.5579 21 18.0879V10.0898H18.9492ZM6.43966 2.98848L7.73838 4.2872L8.15629 4.01547C8.59975 3.72717 9.08619 3.52554 9.60217 3.41615L10.0898 3.31279V1.47656H10.9102V3.31279L11.3978 3.41619C11.9138 3.52558 12.4003 3.72721 12.8437 4.01551L13.2616 4.28724L14.5603 2.98852L15.1404 3.56861L13.8417 4.86732L14.1134 5.28519C14.4012 5.72779 14.6027 6.21428 14.7123 6.7312L14.8157 7.21875H16.6523V8.03906H14.8157L14.7123 8.52666C14.6027 9.04358 14.4012 9.53006 14.1134 9.97266L14.0372 10.0898H11.9771C12.8116 9.58707 13.3711 8.67222 13.3711 7.62891C13.3711 6.04574 12.0832 4.75781 10.5 4.75781C8.91684 4.75781 7.62891 6.04574 7.62891 7.62891C7.62891 8.67222 8.1884 9.58707 9.0229 10.0898H6.96281L6.88661 9.97266C6.59884 9.53006 6.39733 9.04358 6.2877 8.52666L6.1843 8.03906H4.34766V7.21875H6.1843L6.2877 6.73116C6.39733 6.21424 6.59884 5.72775 6.88661 5.28515L7.15829 4.86728L5.85957 3.56856L6.43966 2.98848ZM17.7188 9.26953V10.0898H15.4603C15.5917 9.82562 15.702 9.55188 15.7893 9.26953H17.7188ZM10.5 9.26953C9.59536 9.26953 8.85938 8.53355 8.85938 7.62891C8.85938 6.72427 9.59536 5.98828 10.5 5.98828C11.4046 5.98828 12.1406 6.72427 12.1406 7.62891C12.1406 8.53355 11.4046 9.26953 10.5 9.26953ZM4.38867 18.0879C4.38867 18.8795 3.74469 19.5234 2.95312 19.5234H2.66602C1.87446 19.5234 1.23047 18.8795 1.23047 18.0879V5.7832C1.23047 5.67012 1.32247 5.57812 1.43555 5.57812H5.35594C5.30229 5.71278 5.25365 5.84944 5.21075 5.98828H3.11719V9.26953H5.21075C5.29803 9.55188 5.40832 9.82562 5.53965 10.0898H4.38867V18.0879ZM19.7695 18.0879C19.7695 18.8795 19.1255 19.5234 18.334 19.5234H5.19877C5.46472 19.1088 5.61914 18.616 5.61914 18.0879V11.3203H19.7695V18.0879Z" fill="white"/>
<circle cx="10.5" cy="7.5" r="3" fill="#4C4743" stroke="#FF7B02"/>
</g>
<defs>
<clipPath id="clip0_30_14196">
<rect width="21" height="21" fill="white"/>
</clipPath>
</defs>
</svg>
