<svg width="33" height="33" viewBox="0 0 33 33" fill="none" xmlns="http://www.w3.org/2000/svg">
<path d="M16.5 2.0625C15.93 2.0625 15.4688 2.52374 15.4688 3.09375C15.4688 3.66376 15.93 4.125 16.5 4.125C23.324 4.125 28.875 9.67603 28.875 16.5C28.875 23.324 23.324 28.875 16.5 28.875C9.67603 28.875 4.125 23.324 4.125 16.5C4.125 14.0275 4.87515 11.6141 6.24767 9.57953C6.37727 10.0009 6.75461 10.3125 7.21875 10.3125C7.78876 10.3125 8.25 9.85126 8.25 9.28125V7.21875C8.25 6.64874 7.78876 6.1875 7.21875 6.1875H5.15625C4.58624 6.1875 4.125 6.64874 4.125 7.21875C4.125 7.63486 4.37406 7.98835 4.72849 8.15137C3.00563 10.5816 2.0625 13.5041 2.0625 16.5C2.0625 24.461 8.53903 30.9375 16.5 30.9375C24.461 30.9375 30.9375 24.461 30.9375 16.5C30.9375 8.53903 24.461 2.0625 16.5 2.0625Z" fill="white"/>
<path d="M21.6562 21.6562C22.2258 21.6562 22.6875 21.1945 22.6875 20.625C22.6875 20.0555 22.2258 19.5938 21.6562 19.5938C21.0867 19.5938 20.625 20.0555 20.625 20.625C20.625 21.1945 21.0867 21.6562 21.6562 21.6562Z" fill="#FF7B02"/>
<path d="M18.5625 21.6562C19.132 21.6562 19.5938 21.1945 19.5938 20.625C19.5938 20.0555 19.132 19.5938 18.5625 19.5938C17.993 19.5938 17.5312 20.0555 17.5312 20.625C17.5312 21.1945 17.993 21.6562 18.5625 21.6562Z" fill="#FF7B02"/>
<path d="M14.4375 19.5938H11.3438C10.7737 19.5938 10.3125 20.055 10.3125 20.625C10.3125 21.195 10.7737 21.6562 11.3438 21.6562H14.4375C15.0075 21.6562 15.4688 21.195 15.4688 20.625C15.4688 20.055 15.0075 19.5938 14.4375 19.5938Z" fill="#FF7B02"/>
<path d="M21.6562 15.4688C22.2258 15.4688 22.6875 15.007 22.6875 14.4375C22.6875 13.868 22.2258 13.4062 21.6562 13.4062C21.0867 13.4062 20.625 13.868 20.625 14.4375C20.625 15.007 21.0867 15.4688 21.6562 15.4688Z" fill="#FF7B02"/>
<path d="M18.5625 15.4688C19.132 15.4688 19.5938 15.007 19.5938 14.4375C19.5938 13.868 19.132 13.4062 18.5625 13.4062C17.993 13.4062 17.5312 13.868 17.5312 14.4375C17.5312 15.007 17.993 15.4688 18.5625 15.4688Z" fill="#FF7B02"/>
<path d="M11.3438 15.4688H14.4375C15.0075 15.4688 15.4688 15.0075 15.4688 14.4375C15.4688 13.8675 15.0075 13.4062 14.4375 13.4062H11.3438C10.7737 13.4062 10.3125 13.8675 10.3125 14.4375C10.3125 15.0075 10.7737 15.4688 11.3438 15.4688Z" fill="#FF7B02"/>
<path d="M25.7812 13.4062C25.7812 11.7003 24.3935 10.3125 22.6875 10.3125H10.3125C8.60651 10.3125 7.21875 11.7003 7.21875 13.4062V15.4688C7.21875 16.264 7.52868 16.9826 8.02341 17.5312C7.52868 18.0799 7.21875 18.7985 7.21875 19.5938V21.6562C7.21875 23.3622 8.60651 24.75 10.3125 24.75H22.6875C24.3935 24.75 25.7812 23.3622 25.7812 21.6562V19.5938C25.7812 18.7985 25.4713 18.0799 24.9766 17.5312C25.4713 16.9826 25.7812 16.264 25.7812 15.4688V13.4062ZM9.28125 13.4062C9.28125 12.8372 9.7435 12.375 10.3125 12.375H22.6875C23.2565 12.375 23.7188 12.8372 23.7188 13.4062V15.4688C23.7188 16.0378 23.2565 16.5 22.6875 16.5H10.3125C9.7435 16.5 9.28125 16.0378 9.28125 15.4688V13.4062ZM23.7188 21.6562C23.7188 22.2253 23.2565 22.6875 22.6875 22.6875H10.3125C9.7435 22.6875 9.28125 22.2253 9.28125 21.6562V19.5938C9.28125 19.0247 9.7435 18.5625 10.3125 18.5625H22.6875C23.2565 18.5625 23.7188 19.0247 23.7188 19.5938V21.6562Z" fill="#FF7B02"/>
</svg>
