<svg width="24" height="24" viewBox="0 0 24 24" fill="none" xmlns="http://www.w3.org/2000/svg">
<g clip-path="url(#clip0_30_14564)">
<path d="M12 24H2.8125C1.26169 24 0 22.7383 0 21.1875V12C0 10.4492 1.26169 9.1875 2.8125 9.1875H8.57227C9.09005 9.1875 9.50977 9.60722 9.50977 10.125C9.50977 10.6428 9.09005 11.0625 8.57227 11.0625H2.8125C2.29556 11.0625 1.875 11.4831 1.875 12V21.1875C1.875 21.7044 2.29556 22.125 2.8125 22.125H12C12.5169 22.125 12.9375 21.7044 12.9375 21.1875V15.4277C12.9375 14.91 13.3572 14.4902 13.875 14.4902C14.3928 14.4902 14.8125 14.91 14.8125 15.4277V21.1875C14.8125 22.7383 13.5508 24 12 24Z" fill="white"/>
<path d="M0.9375 7.3125C0.419719 7.3125 0 6.89278 0 6.375V3.75C0 1.68225 1.68225 0 3.75 0H6.375C6.89278 0 7.3125 0.419719 7.3125 0.9375C7.3125 1.45528 6.89278 1.875 6.375 1.875H3.75C2.71613 1.875 1.875 2.71613 1.875 3.75V6.375C1.875 6.89278 1.45528 7.3125 0.9375 7.3125Z" fill="white"/>
<path d="M13.875 1.875H10.125C9.60722 1.875 9.1875 1.45528 9.1875 0.9375C9.1875 0.419719 9.60722 0 10.125 0H13.875C14.3928 0 14.8125 0.419719 14.8125 0.9375C14.8125 1.45528 14.3928 1.875 13.875 1.875Z" fill="white"/>
<path d="M23.0625 7.3125C22.5447 7.3125 22.125 6.89278 22.125 6.375V3.75C22.125 2.71613 21.2839 1.875 20.25 1.875H17.625C17.1072 1.875 16.6875 1.45528 16.6875 0.9375C16.6875 0.419719 17.1072 0 17.625 0H20.25C22.3177 0 24 1.68225 24 3.75V6.375C24 6.89278 23.5803 7.3125 23.0625 7.3125Z" fill="white"/>
<path d="M20.25 24H17.625C17.1072 24 16.6875 23.5803 16.6875 23.0625C16.6875 22.5447 17.1072 22.125 17.625 22.125H20.25C21.2839 22.125 22.125 21.2839 22.125 20.25V17.625C22.125 17.1072 22.5447 16.6875 23.0625 16.6875C23.5803 16.6875 24 17.1072 24 17.625V20.25C24 22.3177 22.3177 24 20.25 24Z" fill="white"/>
<path d="M23.0625 14.8125C22.5447 14.8125 22.125 14.3928 22.125 13.875V10.125C22.125 9.60722 22.5447 9.1875 23.0625 9.1875C23.5803 9.1875 24 9.60722 24 10.125V13.875C24 14.3928 23.5803 14.8125 23.0625 14.8125Z" fill="white"/>
<path d="M19.3125 3.75H16.5C15.9822 3.75 15.5625 4.16972 15.5625 4.6875C15.5625 5.20528 15.9822 5.625 16.5 5.625H17.0492L7.3125 15.3617V14.8125C7.3125 14.2947 6.89278 13.875 6.375 13.875C5.85722 13.875 5.4375 14.2947 5.4375 14.8125V17.625C5.4375 18.1428 5.85722 18.5625 6.375 18.5625H9.1875C9.70528 18.5625 10.125 18.1428 10.125 17.625C10.125 17.1072 9.70528 16.6875 9.1875 16.6875H8.63831L18.375 6.95081V7.5C18.375 8.01778 18.7947 8.4375 19.3125 8.4375C19.8303 8.4375 20.25 8.01778 20.25 7.5V4.6875C20.25 4.16972 19.8303 3.75 19.3125 3.75Z" fill="#FF7B02"/>
</g>
<defs>
<clipPath id="clip0_30_14564">
<rect width="24" height="24" fill="white"/>
</clipPath>
</defs>
</svg>
