<svg width="26" height="26" viewBox="0 0 26 26" fill="none" xmlns="http://www.w3.org/2000/svg">
<path d="M23.177 15.7557C23.1103 15.689 22.7775 15.3629 22.7005 15.2967C21.9075 14.6091 20.9783 14.2751 19.8596 14.2751C19.5116 14.2751 19.1375 14.306 18.7162 14.3699C18.1036 14.4631 17.4994 14.2596 17.069 13.8288L14.6238 11.3834C14.6239 11.3805 14.6255 11.378 14.6255 11.375V3.25H19.5005V5.6875C19.5005 6.1362 19.8643 6.5 20.313 6.5H22.7505V13.8125C22.7505 14.2612 23.1143 14.625 23.563 14.625C24.0117 14.625 24.3755 14.2612 24.3755 13.8125V4.875C24.3755 4.65958 24.2898 4.45288 24.1375 4.30054L21.7 1.86304C21.5476 1.71069 21.3409 1.625 21.1255 1.625H13.813C13.3643 1.625 13.0005 1.9888 13.0005 2.4375V9.75997L12.1717 8.93115C11.7417 8.5015 11.5394 7.88577 11.6306 7.28433C11.8056 6.12866 11.8587 4.63181 10.7054 3.30197C10.6376 3.22302 10.3115 2.89017 10.2341 2.81281C9.46804 2.04672 8.44924 1.625 7.36538 1.625C6.73974 1.625 6.11291 1.77298 5.55273 2.05307C5.31906 2.16971 5.156 2.39188 5.11395 2.64975C5.07229 2.90762 5.15679 3.16986 5.34167 3.35434L7.1087 5.12137C6.79885 6.15604 6.15655 6.79834 5.12188 7.10818L3.35485 5.34116C3.16998 5.15628 2.90734 5.07257 2.65026 5.11343C2.39239 5.15549 2.17022 5.31854 2.05358 5.55222C1.27203 7.11612 1.57711 8.99701 2.82403 10.2443C2.89068 10.311 3.22354 10.6371 3.3005 10.7033C4.09356 11.3909 5.0227 11.7249 6.14147 11.7249C6.25628 11.7249 6.37926 11.7162 6.50051 11.7094V11.9253C6.21368 12.0586 5.93914 12.2137 5.68286 12.3875L4.48117 11.6999C4.09475 11.4797 3.60043 11.6107 3.37548 11.9963L1.7358 14.8107C1.6271 14.9979 1.59735 15.2209 1.65328 15.43C1.70922 15.639 1.84649 15.8172 2.03454 15.9247L3.22592 16.6071C3.21282 16.7598 3.20648 16.9113 3.20648 17.0625C3.20648 17.2137 3.21282 17.3652 3.22592 17.5179L2.03454 18.2003C1.84649 18.3078 1.70922 18.486 1.65328 18.695C1.59735 18.9041 1.6271 19.1271 1.7358 19.3143L3.37548 22.1287C3.60043 22.5147 4.09396 22.6453 4.48117 22.4251L5.68286 21.7372C5.93914 21.9109 6.21368 22.0664 6.50051 22.1997V23.5625C6.50051 24.0112 6.86431 24.375 7.31301 24.375H10.563C11.0117 24.375 11.3755 24.0112 11.3755 23.5625V22.1997C11.6623 22.0664 11.9369 21.9109 12.1932 21.7372L13.3949 22.4251C13.7829 22.6461 14.2752 22.5147 14.5005 22.1287L14.6993 21.7875C14.8486 22.0954 15.0381 22.4011 15.2956 22.698C15.3634 22.777 15.6895 23.1098 15.7669 23.1872C16.533 23.9533 17.5518 24.375 18.6356 24.375C19.2609 24.375 19.8881 24.227 20.4483 23.9469C20.682 23.8303 20.845 23.6081 20.8871 23.3503C20.9287 23.0924 20.8442 22.8301 20.6594 22.6457L18.8923 20.8786C19.2022 19.844 19.8445 19.2017 20.8791 18.8918L22.6462 20.6588C22.8307 20.8429 23.0917 20.9243 23.3508 20.8866C23.6086 20.8445 23.8308 20.6815 23.9474 20.4478C24.729 18.8839 24.4239 17.003 23.177 15.7557ZM22.4141 4.875H21.1255V3.58643L22.4141 4.875ZM13.502 20.614L12.5352 20.0606C12.2384 19.8912 11.8671 19.9249 11.6064 20.1463C11.2363 20.4597 10.7828 20.716 10.294 20.8874C9.96832 21.0016 9.75051 21.3091 9.75051 21.6542V22.75H8.12551V21.6542C8.12551 21.3091 7.90771 21.0016 7.582 20.8874C7.09323 20.716 6.63977 20.4597 6.26962 20.1463C6.00936 19.9249 5.63723 19.8912 5.34088 20.0606L4.37405 20.614L3.55203 19.2036L4.50775 18.6566C4.80767 18.4852 4.96636 18.1428 4.90328 17.8032C4.85488 17.5437 4.83148 17.3013 4.83148 17.0625C4.83148 16.8237 4.85488 16.5813 4.90328 16.3218C4.96636 15.9822 4.80767 15.6398 4.50775 15.4684L3.55203 14.9214L4.37405 13.511L5.34088 14.064C5.63723 14.233 6.00857 14.2001 6.26962 13.9787C6.63977 13.6653 7.09362 13.409 7.582 13.2376C7.90771 13.1234 8.12551 12.8159 8.12551 12.4708V11.6938C8.42623 11.7842 8.70409 11.9433 8.93206 12.1712L13.8293 17.0688C14.2593 17.4985 14.4617 18.1142 14.3704 18.7157C14.3455 18.8804 14.3248 19.0534 14.3079 19.2305L13.502 20.614ZM21.7043 17.4192C21.5123 17.2267 21.237 17.1434 20.9704 17.197C18.9134 17.6084 17.6089 18.9128 17.1975 20.9699C17.1443 21.2365 17.2277 21.5118 17.4197 21.7038L18.4595 22.7437C17.8759 22.702 17.3324 22.4544 16.9051 22.0276C16.8512 21.9732 16.5905 21.7098 16.5247 21.6352C15.9411 20.9619 15.7875 20.2117 15.9772 18.9593C16.1454 17.8488 15.7717 16.7126 14.9782 15.9195L10.0814 11.0223C9.41171 10.3522 8.52065 9.98328 7.57287 9.98328C7.39633 9.98328 7.21859 9.99637 7.04125 10.0233C5.76855 10.2169 5.04492 10.065 4.36492 9.47546C4.29074 9.41 4.02731 9.14935 3.96224 9.08469C3.53854 8.66058 3.29733 8.10992 3.25607 7.54062L4.29669 8.58084C4.4891 8.77325 4.76522 8.85657 5.03063 8.80301C7.08767 8.3916 8.39211 7.08716 8.80352 5.03012C8.85668 4.76352 8.77337 4.48819 8.58135 4.29617L7.54153 3.25635C8.12512 3.298 8.66863 3.54556 9.09591 3.97244C9.14987 4.02679 9.41052 4.29022 9.47637 4.36481C10.06 5.03806 10.2135 5.78827 10.0239 7.04074C9.85565 8.15118 10.2294 9.28741 11.0228 10.0805L15.9196 14.9777C16.7139 15.7723 17.8303 16.148 18.9598 15.9767C20.2353 15.7838 20.9569 15.935 21.6361 16.5245C21.7103 16.59 21.9737 16.8506 22.0388 16.9153C22.4625 17.3394 22.7037 17.8901 22.745 18.4594L21.7043 17.4192Z" fill="white"/>
<path d="M21.125 7.3125H16.25C15.8013 7.3125 15.4375 7.6763 15.4375 8.125C15.4375 8.5737 15.8013 8.9375 16.25 8.9375H21.125C21.5737 8.9375 21.9375 8.5737 21.9375 8.125C21.9375 7.6763 21.5737 7.3125 21.125 7.3125Z" fill="#FF7B02"/>
<path d="M21.125 9.75H16.25C15.8013 9.75 15.4375 10.1138 15.4375 10.5625C15.4375 11.0112 15.8013 11.375 16.25 11.375H21.125C21.5737 11.375 21.9375 11.0112 21.9375 10.5625C21.9375 10.1138 21.5737 9.75 21.125 9.75Z" fill="#FF7B02"/>
<path d="M21.125 12.1875H18.6875C18.2388 12.1875 17.875 12.5513 17.875 13C17.875 13.4487 18.2388 13.8125 18.6875 13.8125H21.125C21.5737 13.8125 21.9375 13.4487 21.9375 13C21.9375 12.5513 21.5737 12.1875 21.125 12.1875Z" fill="#FF7B02"/>
<path d="M8.9375 14.625C7.59338 14.625 6.5 15.7184 6.5 17.0625C6.5 18.4066 7.59338 19.5 8.9375 19.5C10.2816 19.5 11.375 18.4066 11.375 17.0625C11.375 15.7184 10.2816 14.625 8.9375 14.625ZM8.9375 17.875C8.48959 17.875 8.125 17.5104 8.125 17.0625C8.125 16.6146 8.48959 16.25 8.9375 16.25C9.38541 16.25 9.75 16.6146 9.75 17.0625C9.75 17.5104 9.38541 17.875 8.9375 17.875Z" fill="white"/>
</svg>
