<svg width="39" height="39" viewBox="0 0 39 39" fill="none" xmlns="http://www.w3.org/2000/svg">
<path fill-rule="evenodd" clip-rule="evenodd" d="M21.8937 34.3969C22.1028 34.6042 22.1028 34.9465 21.8937 35.1537L20.2629 36.7846C19.7815 37.2647 19.0093 37.2654 18.5275 36.7847L16.8961 35.1539C16.6871 34.9467 16.6871 34.6043 16.8961 34.3971C17.1052 34.1898 17.4435 34.1898 17.6526 34.3971L19.2835 36.0279C19.3434 36.0885 19.4469 36.0884 19.506 36.0279L21.1373 34.397C21.3464 34.1897 21.6852 34.1897 21.8937 34.3969ZM6.34819 15.5792L6.34811 13.2725C6.34811 12.5967 6.89864 12.0471 7.57529 12.047L9.88151 12.0469C10.1775 12.0469 10.4163 12.2857 10.4163 12.583C10.4163 12.8758 10.1775 13.1147 9.88151 13.1147L7.57529 13.1148C7.48925 13.1148 7.41765 13.1868 7.41765 13.2725L7.41773 15.5792C7.41773 15.8765 7.17803 16.1153 6.88296 16.1153C6.58789 16.1153 6.34819 15.8765 6.34819 15.5792ZM32.716 13.2719L32.7161 15.5785C32.7161 15.8759 32.4765 16.1146 32.1813 16.1146C31.8862 16.1146 31.6466 15.8759 31.6466 15.5785L31.6465 13.2719C31.6465 13.1863 31.5744 13.1142 31.4888 13.1142L29.1817 13.1143C28.8866 13.1143 28.6474 12.8755 28.6473 12.5827C28.6473 12.2854 28.8865 12.0466 29.1816 12.0466L31.4887 12.0466C32.1655 12.0465 32.716 12.5961 32.716 13.2719ZM37.1402 31.9727H37.1397C37.1262 32.0412 36.939 32.2042 36.8154 32.2205L34.2457 32.9099C33.9738 32.9863 33.6698 32.8236 33.5915 32.5315C33.5154 32.2476 33.6843 31.9548 33.969 31.8782L35.2908 31.5223L33.3517 30.4051C33.0967 30.2564 33.0088 29.932 33.1562 29.6753C33.3039 29.4185 33.631 29.3283 33.8865 29.4771L35.8256 30.5988L35.4719 29.2743C35.3953 28.9904 35.5647 28.6976 35.8499 28.621C36.1351 28.5444 36.4283 28.7156 36.5045 28.9994L37.1925 31.5673C37.2289 31.6979 37.214 31.8421 37.1402 31.9727ZM32.4948 29.2923C32.346 29.5494 32.0162 29.6327 31.7641 29.486L30.8013 28.9319C30.5454 28.7832 30.4585 28.4589 30.6063 28.2021C30.7536 27.9453 31.0802 27.8596 31.3361 28.0038L32.2989 28.5624C32.5547 28.7111 32.6421 29.0355 32.4948 29.2923ZM5.84041 29.6759C5.98775 29.9327 5.89993 30.2571 5.64401 30.4057L3.70501 31.5231L5.02687 31.879C5.62934 32.041 5.50595 32.9286 4.88905 32.9287C4.8431 32.9287 4.79669 32.9242 4.75028 32.9107L2.18143 32.2215C2.04634 32.1857 1.93012 32.0999 1.85976 31.9782H1.8575C1.8575 31.9782 1.8575 31.9782 1.85703 31.9737C1.85617 31.9737 1.85571 31.9737 1.85477 31.9737V31.9692H1.85344C1.78356 31.8496 1.76811 31.7014 1.80345 31.5682L2.49133 29.0002C2.56792 28.7163 2.86167 28.5451 3.14684 28.6217C3.43201 28.6983 3.60096 28.9911 3.52436 29.275L3.17032 30.5995L5.10932 29.4777C5.36555 29.3335 5.6926 29.4191 5.84041 29.6759ZM8.39031 28.2026C8.53812 28.4594 8.45022 28.7838 8.19438 28.9325L7.23209 29.4867C6.97984 29.6334 6.64951 29.5497 6.50177 29.293C6.35357 29.0362 6.4414 28.7118 6.69732 28.5631L7.65961 28.0045C7.91545 27.8603 8.2425 27.9458 8.39031 28.2026ZM19.9289 7.74883V8.86158C19.9289 9.15891 19.6897 9.39767 19.3942 9.39775C19.0991 9.39775 18.8599 9.15899 18.8599 8.86166V7.74891C18.8599 7.4561 19.0991 7.21726 19.3942 7.21726C19.6896 7.21726 19.9288 7.45602 19.9289 7.74883ZM17.1356 4.64482C16.9266 4.43757 16.9266 4.09968 17.1356 3.88799L19.0165 2.00928C19.0237 2.00023 19.0304 1.99578 19.0386 1.98674C19.0514 1.98674 19.1585 1.85156 19.3981 1.85156C19.6306 1.85156 19.7491 1.99571 19.7598 1.99571L19.7608 2.00023L21.653 3.88783C21.862 4.0996 21.862 4.43742 21.653 4.64466C21.4439 4.85643 21.1051 4.85643 20.8965 4.64466L19.9288 3.67606L19.9289 5.91965C19.9289 6.21246 19.6896 6.4513 19.3941 6.4513C19.099 6.4513 18.8598 6.21254 18.8598 5.91973L18.8597 3.67614L17.892 4.64474C17.683 4.85659 17.3446 4.85659 17.1356 4.64482ZM28.6052 18.1916C28.6052 18.2772 28.5326 18.3493 28.4475 18.3493L26.1405 18.3493C26.0549 18.3493 25.9832 18.2773 25.9832 18.1917L25.9831 15.885C25.9831 15.7994 26.0547 15.7274 26.1404 15.7274L28.4475 15.7273C28.5326 15.7273 28.6052 15.7994 28.6052 15.8849V18.1916ZM26.7595 23.8006H26.1405C25.4643 23.8006 24.9138 24.3503 24.9138 25.0261L24.9139 26.9407L21.5472 28.8871C21.3246 28.5762 20.9606 28.369 20.5484 28.369H19.9294L19.9293 23.99H20.5483C21.225 23.99 21.7755 23.4403 21.7755 22.7645L21.7754 20.8498L25.1417 18.9035C25.3642 19.2143 25.7287 19.4215 26.1405 19.4215H26.7595L26.7595 23.8006ZM28.6054 25.026C28.6054 24.9403 28.5329 24.8683 28.4477 24.8683L26.1406 24.8684C26.055 24.8684 25.9834 24.9405 25.9834 25.0261L25.9834 27.3328C25.9834 27.4184 26.055 27.4905 26.1407 27.4905L28.4478 27.4904C28.533 27.4904 28.6054 27.4183 28.6054 27.3327V25.026ZM20.7062 31.9056C20.7062 31.9912 20.6341 32.0633 20.5486 32.0633L18.2415 32.0634C18.1568 32.0634 18.0838 31.9913 18.0838 31.9057L18.0838 29.5991C18.0838 29.5135 18.1567 29.4414 18.2414 29.4414L20.5485 29.4413C20.6341 29.4413 20.7062 29.5134 20.7062 29.599V31.9056ZM12.8067 27.333C12.8067 27.4186 12.7341 27.4907 12.649 27.4907L10.3414 27.4908C10.2567 27.4908 10.1846 27.4187 10.1846 27.3331L10.1845 25.0265C10.1845 24.9408 10.2566 24.8687 10.3413 24.8687L12.6489 24.8687C12.7341 24.8687 12.8066 24.9407 12.8066 25.0263L12.8067 27.333ZM12.0298 19.4219L12.0299 23.8009H12.6489C13.3251 23.8009 13.8757 24.3505 13.8757 25.0263L13.8757 26.941L17.2425 28.8871C17.4651 28.5763 17.8291 28.3691 18.2413 28.369H18.8603L18.8603 23.99H18.2412C17.5646 23.99 17.0141 23.4404 17.014 22.7646L17.0139 20.8499L13.6476 18.9037C13.4251 19.2145 13.0606 19.4218 12.6488 19.4218L12.0298 19.4219ZM10.1845 18.1921C10.1845 18.2777 10.2565 18.3497 10.3412 18.3497L12.6488 18.3497C12.734 18.3497 12.8065 18.2776 12.8065 18.192L12.8064 15.8853C12.8064 15.7998 12.7339 15.7277 12.6487 15.7277L10.3412 15.7278C10.2565 15.7278 10.1844 15.7998 10.1844 15.8854L10.1845 18.1921ZM18.0832 11.3169C18.0832 11.2314 18.1561 11.1593 18.2409 11.1593L20.5479 11.1592C20.6336 11.1592 20.7057 11.2313 20.7057 11.3169L20.7057 13.6236C20.7057 13.7091 20.6337 13.7812 20.5481 13.7812L18.241 13.7813C18.1563 13.7813 18.0834 13.7092 18.0834 13.6236L18.0832 11.3169ZM18.2412 22.9223L20.5482 22.9222C20.6339 22.9222 20.7059 22.8502 20.7059 22.7645L20.7058 20.4578C20.7058 20.3723 20.6337 20.3002 20.5481 20.3002L18.241 20.3003C18.1563 20.3003 18.0834 20.3724 18.0834 20.458L18.0834 22.7647C18.0834 22.8503 18.1565 22.9223 18.2412 22.9223ZM21.547 19.7461L24.9137 17.7998V16.2815L21.5469 14.3309C21.3243 14.6462 20.9603 14.8489 20.5481 14.849L18.241 14.8491C17.8288 14.8491 17.4648 14.6464 17.2422 14.331L13.8756 16.2819V17.8001L17.2424 19.7463C17.4649 19.4355 17.8289 19.2282 18.2412 19.2282L20.5482 19.2281C20.9604 19.228 21.3244 19.4353 21.547 19.7461ZM28.4475 14.6596L26.1404 14.6596C25.7286 14.6596 25.3641 14.8624 25.1416 15.1778L21.7753 13.2271L21.7752 11.3169C21.7752 10.6411 21.2246 10.087 20.5479 10.087L18.2409 10.087C17.5642 10.087 17.0137 10.6412 17.0137 11.3169L17.0138 13.2272L13.6475 15.178C13.425 14.8627 13.0605 14.6599 12.6487 14.6599L10.3412 14.66C9.66499 14.66 9.11532 15.2097 9.11532 15.8855L9.1154 18.1922C9.1154 18.868 9.66507 19.4221 10.3412 19.4221H10.9603L10.9603 23.8011H10.3413C9.66514 23.8011 9.11548 24.3507 9.11548 25.0265L9.11555 27.3331C9.11555 28.0135 9.66522 28.5631 10.3414 28.5631L12.649 28.563C13.0607 28.563 13.4252 28.3557 13.6477 28.0448L17.0141 29.991L17.0141 31.9057C17.0141 32.5815 17.5647 33.131 18.2414 33.131L20.5485 33.131C21.2251 33.131 21.7757 32.5813 21.7757 31.9055L21.7756 29.9908L25.1418 28.0445C25.3644 28.3553 25.7288 28.5626 26.1406 28.5626L28.4477 28.5625C29.1243 28.5625 29.6749 28.0128 29.6749 27.3325L29.6748 25.0259C29.6748 24.3501 29.1242 23.8005 28.4475 23.8005H27.829L27.8289 19.4215H28.4475C29.1241 19.4215 29.6746 18.8673 29.6746 18.1916L29.6746 15.8849C29.6746 15.2091 29.1241 14.6596 28.4475 14.6596Z" fill="white"/>
<path fill-rule="evenodd" clip-rule="evenodd" d="M21.8937 34.3969C22.1028 34.6042 22.1028 34.9465 21.8937 35.1537L20.2629 36.7846C19.7815 37.2647 19.0093 37.2654 18.5275 36.7847L16.8961 35.1539C16.6871 34.9467 16.6871 34.6043 16.8961 34.3971C17.1052 34.1898 17.4435 34.1898 17.6526 34.3971L19.2835 36.0279C19.3434 36.0885 19.4469 36.0884 19.506 36.0279L21.1373 34.397C21.3464 34.1897 21.6852 34.1897 21.8937 34.3969ZM6.34819 15.5792L6.34811 13.2725C6.34811 12.5967 6.89864 12.0471 7.57529 12.047L9.88151 12.0469C10.1775 12.0469 10.4163 12.2857 10.4163 12.583C10.4163 12.8758 10.1775 13.1147 9.88151 13.1147L7.57529 13.1148C7.48925 13.1148 7.41765 13.1868 7.41765 13.2725L7.41773 15.5792C7.41773 15.8765 7.17803 16.1153 6.88296 16.1153C6.58789 16.1153 6.34819 15.8765 6.34819 15.5792ZM32.716 13.2719L32.7161 15.5785C32.7161 15.8759 32.4765 16.1146 32.1813 16.1146C31.8862 16.1146 31.6466 15.8759 31.6466 15.5785L31.6465 13.2719C31.6465 13.1863 31.5744 13.1142 31.4888 13.1142L29.1817 13.1143C28.8866 13.1143 28.6474 12.8755 28.6473 12.5827C28.6473 12.2854 28.8865 12.0466 29.1816 12.0466L31.4887 12.0466C32.1655 12.0465 32.716 12.5961 32.716 13.2719ZM37.1402 31.9727C37.1267 32.0412 36.939 32.2042 36.8154 32.2205L34.2457 32.9099C33.9738 32.9863 33.6698 32.8236 33.5915 32.5315C33.5154 32.2476 33.6843 31.9548 33.969 31.8782L35.2908 31.5223L33.3517 30.4051C33.0967 30.2564 33.0088 29.932 33.1562 29.6753C33.3039 29.4185 33.631 29.3283 33.8865 29.4771L35.8256 30.5988L35.4719 29.2743C35.3953 28.9904 35.5647 28.6976 35.8499 28.621C36.1351 28.5444 36.4283 28.7156 36.5045 28.9994L37.1925 31.5673C37.2289 31.6979 37.214 31.8421 37.1402 31.9727ZM32.4948 29.2923C32.346 29.5494 32.0162 29.6327 31.7641 29.486L30.8013 28.9319C30.5454 28.7832 30.4585 28.4589 30.6063 28.2021C30.7536 27.9453 31.0802 27.8596 31.3361 28.0038L32.2989 28.5624C32.5547 28.7111 32.6421 29.0355 32.4948 29.2923ZM5.84041 29.6759C5.98776 29.9327 5.89993 30.2571 5.64401 30.4057L3.70501 31.5231L5.02687 31.879C5.62935 32.041 5.50595 32.9286 4.88905 32.9287C4.8431 32.9287 4.79669 32.9242 4.75028 32.9107L2.18143 32.2215C2.04634 32.1857 1.93012 32.0999 1.85976 31.9782H1.8575C1.8575 31.9782 1.8575 31.9782 1.85703 31.9737H1.85477V31.9692H1.85344C1.78356 31.8496 1.76811 31.7014 1.80345 31.5682L2.49133 29.0002C2.56792 28.7163 2.86167 28.5451 3.14684 28.6217C3.43201 28.6983 3.60096 28.9911 3.52436 29.275L3.17032 30.5995L5.10932 29.4777C5.36555 29.3335 5.6926 29.4191 5.84041 29.6759ZM8.39031 28.2026C8.53812 28.4594 8.45022 28.7838 8.19438 28.9325L7.23209 29.4867C6.97984 29.6334 6.64951 29.5497 6.50177 29.293C6.35357 29.0362 6.4414 28.7118 6.69732 28.5631L7.65961 28.0045C7.91545 27.8603 8.2425 27.9458 8.39031 28.2026ZM19.9289 7.74883V8.86158C19.9289 9.15891 19.6897 9.39767 19.3942 9.39775C19.0991 9.39775 18.8599 9.15899 18.8599 8.86166V7.74891C18.8599 7.4561 19.0991 7.21726 19.3942 7.21726C19.6896 7.21726 19.9289 7.45602 19.9289 7.74883ZM17.1356 4.64482C16.9266 4.43757 16.9266 4.09968 17.1356 3.88799L19.0165 2.00928C19.0237 2.00023 19.0304 1.99578 19.0386 1.98674C19.0514 1.98674 19.1585 1.85156 19.3981 1.85156C19.6306 1.85156 19.7491 1.99571 19.7598 1.99571L19.7608 2.00023L21.653 3.88783C21.862 4.0996 21.862 4.43742 21.653 4.64466C21.4439 4.85643 21.1051 4.85643 20.8965 4.64466L19.9288 3.67606L19.9289 5.91965C19.9289 6.21246 19.6896 6.4513 19.3941 6.4513C19.099 6.4513 18.8598 6.21254 18.8598 5.91973L18.8597 3.67614L17.892 4.64474C17.683 4.85659 17.3446 4.85659 17.1356 4.64482Z" fill="#FF7B02"/>
</svg>
