<svg width="34" height="34" viewBox="0 0 34 34" fill="none" xmlns="http://www.w3.org/2000/svg">
<g clip-path="url(#clip0_30_12700)">
<path d="M33.7038 24.7363L30.2188 22.9938L28.0008 17.2244C27.9747 17.1562 27.9348 17.0941 27.8836 17.042C27.8324 16.9899 27.7711 16.9489 27.7033 16.9216L13.9413 11.4205C13.8451 11.3822 13.7397 11.3728 13.6383 11.3936C13.5368 11.4144 13.4436 11.4643 13.3702 11.5374L11.5347 13.3728C11.4627 13.4463 11.4135 13.5392 11.3932 13.6401C11.3729 13.741 11.3824 13.8456 11.4205 13.9413L16.9216 27.7033C16.9489 27.771 16.9899 27.8324 17.042 27.8836C17.0941 27.9348 17.1562 27.9747 17.2244 28.0008L22.9938 30.2188L24.7363 33.7038C24.773 33.7806 24.8276 33.8475 24.8956 33.8988C24.9635 33.9501 25.0428 33.9844 25.1267 33.9986C25.155 34.0012 25.1835 34.0012 25.2117 33.9986C25.3524 33.998 25.4871 33.9417 25.5863 33.8419L33.8419 25.5863C33.9027 25.5276 33.9486 25.4554 33.9758 25.3755C34.0031 25.2955 34.0109 25.2103 33.9986 25.1267C33.9844 25.0428 33.9501 24.9635 33.8988 24.8955C33.8475 24.8276 33.7806 24.773 33.7038 24.7363ZM12.5335 13.8722L12.8283 13.58L19.6788 20.4305C19.2273 21.0702 19.0323 21.8561 19.1324 22.6327C19.2324 23.4092 19.6202 24.12 20.2191 24.6244C20.818 25.1288 21.5844 25.3901 22.3667 25.3567C23.1489 25.3233 23.8902 24.9975 24.4439 24.4438C24.9975 23.8902 25.3233 23.1489 25.3567 22.3666C25.3901 21.5844 25.1288 20.818 24.6244 20.2191C24.12 19.6202 23.4092 19.2324 22.6327 19.1324C21.8561 19.0323 21.0702 19.2273 20.4305 19.6788L13.58 12.8283L13.8722 12.5335L27.0924 17.8221L29.1775 23.2461L23.2461 29.1775L17.8221 27.0924L12.5335 13.8722ZM22.2314 20.1675C22.7089 20.1682 23.1713 20.3345 23.54 20.6379C23.9086 20.9413 24.1607 21.3632 24.2532 21.8316C24.3457 22.3 24.2729 22.786 24.0473 23.2068C23.8217 23.6275 23.4571 23.9571 23.0158 24.1392C22.5744 24.3214 22.0836 24.3449 21.6268 24.2057C21.1701 24.0666 20.7758 23.7734 20.511 23.3761C20.2462 22.9788 20.1273 22.502 20.1746 22.0269C20.2219 21.5517 20.4325 21.1077 20.7705 20.7705C21.1583 20.3839 21.6838 20.167 22.2314 20.1675ZM25.3578 32.5696L24.0297 29.9133L29.908 24.035L32.5643 25.3631L25.3578 32.5696Z" fill="white"/>
<path d="M10.1602 28.4223C10.0586 28.3263 9.92413 28.2728 9.78435 28.2728C9.64456 28.2728 9.51008 28.3263 9.40849 28.4223L8.7338 29.097C6.93334 26.6534 5.94008 23.7089 5.89247 20.674C5.84486 17.6391 6.74525 14.665 8.46817 12.1661C8.98436 12.4501 9.57869 12.5592 10.1621 12.477C10.7455 12.3949 11.2866 12.1258 11.7043 11.7103C12.1219 11.2947 12.3936 10.755 12.4788 10.172C12.5639 9.58901 12.4577 8.99413 12.1763 8.47652C14.6752 6.7536 17.6494 5.85321 20.6843 5.90082C23.7192 5.94844 26.6636 6.94169 29.1072 8.74215L28.4219 9.40887C28.3231 9.50847 28.2677 9.64311 28.2679 9.7834C28.2675 9.85332 28.2809 9.92262 28.3073 9.98735C28.3337 10.0521 28.3727 10.1109 28.4219 10.1606L30.7647 12.4848C30.8643 12.5838 30.9989 12.6393 31.1393 12.6393C31.2796 12.6393 31.4143 12.5838 31.5138 12.4848L33.8433 10.1553C33.8927 10.1059 33.9319 10.0473 33.9586 9.98285C33.9854 9.91836 33.9991 9.84923 33.9991 9.77941C33.9991 9.7096 33.9854 9.64047 33.9586 9.57598C33.9319 9.51149 33.8927 9.4529 33.8433 9.40356L31.5138 7.07402C31.4143 6.97508 31.2796 6.91954 31.1393 6.91954C30.9989 6.91954 30.8643 6.97508 30.7647 7.07402L29.8643 7.96918C27.645 6.29919 25.0212 5.24997 22.2624 4.92927C19.5035 4.60857 16.709 5.02795 14.1658 6.14434L17.2285 3.08965C17.5757 3.25558 17.9706 3.29314 18.3429 3.19566C18.7152 3.09819 19.041 2.87198 19.2624 2.55718C19.4838 2.24237 19.5865 1.85931 19.5523 1.47596C19.5182 1.09261 19.3493 0.733752 19.0758 0.463048C18.8022 0.192343 18.4416 0.0272942 18.0579 -0.00281863C17.6742 -0.0329314 17.2923 0.0738388 16.9798 0.29855C16.6673 0.523262 16.4446 0.851387 16.351 1.22472C16.2575 1.59804 16.2992 1.99244 16.4688 2.33793L11.2997 7.51496C10.7749 7.16291 10.1441 7.00399 9.51513 7.06537C8.88614 7.12674 8.29797 7.4046 7.85109 7.85148C7.40422 8.29835 7.12636 8.88652 7.06498 9.51551C7.00361 10.1445 7.16252 10.7753 7.51458 11.3001L2.33755 16.4692C1.9907 16.3002 1.59517 16.2596 1.22123 16.3547C0.847298 16.4498 0.519179 16.6743 0.295183 16.9885C0.0711859 17.3026 -0.0341816 17.686 -0.00219629 18.0705C0.029789 18.455 0.197056 18.8157 0.46988 19.0886C0.742705 19.3614 1.10342 19.5287 1.48792 19.5606C1.87243 19.5926 2.25582 19.4873 2.56998 19.2633C2.88413 19.0393 3.1087 18.7111 3.20377 18.3372C3.29885 17.9633 3.25828 17.5677 3.08927 17.2209L6.15192 14.1662C5.03442 16.7087 4.61372 19.5028 4.93301 22.2616C5.25231 25.0205 6.3001 27.6446 7.9688 29.8647L7.07099 30.7651C6.97204 30.8647 6.9165 30.9993 6.9165 31.1397C6.9165 31.28 6.97204 31.4146 7.07099 31.5142L9.40052 33.8437C9.49969 33.9435 9.63438 33.9998 9.77505 34.0004C9.84515 34.0005 9.91457 33.9867 9.97931 33.9598C10.044 33.9329 10.1028 33.8934 10.1522 33.8437L12.4844 31.5142C12.5834 31.4146 12.6389 31.28 12.6389 31.1397C12.6389 30.9993 12.5834 30.8647 12.4844 30.7651L10.1602 28.4223ZM31.1446 8.19496L32.7224 9.77277L31.1446 11.3506L29.5668 9.77277L31.1446 8.19496ZM17.5313 1.23027C17.6102 1.15069 17.711 1.09635 17.8209 1.07414C17.9308 1.05194 18.0448 1.06287 18.1484 1.10556C18.2521 1.14825 18.3407 1.22076 18.4031 1.3139C18.4655 1.40704 18.4988 1.51662 18.4988 1.62871C18.4988 1.74081 18.4655 1.85038 18.4031 1.94352C18.3407 2.03666 18.2521 2.10918 18.1484 2.15187C18.0448 2.19455 17.9308 2.20549 17.8209 2.18328C17.711 2.16108 17.6102 2.10674 17.5313 2.02715C17.4789 1.97485 17.4374 1.91274 17.409 1.84437C17.3807 1.77601 17.3661 1.70272 17.3661 1.62871C17.3661 1.5547 17.3807 1.48142 17.409 1.41305C17.4374 1.34468 17.4789 1.28257 17.5313 1.23027ZM8.6063 8.60668C8.76056 8.45168 8.94393 8.32868 9.14586 8.24475C9.3478 8.16082 9.56433 8.11761 9.78302 8.11761C10.0017 8.11761 10.2182 8.16082 10.4202 8.24475C10.6221 8.32868 10.8055 8.45168 10.9597 8.60668C11.1929 8.83949 11.3518 9.13625 11.4163 9.45939C11.4808 9.78253 11.4479 10.1175 11.322 10.422C11.196 10.7265 10.9825 10.9868 10.7086 11.1699C10.4346 11.353 10.1125 11.4508 9.78302 11.4508C9.45351 11.4508 9.1314 11.353 8.85745 11.1699C8.58351 10.9868 8.37004 10.7265 8.24407 10.422C8.11809 10.1175 8.08527 9.78253 8.14974 9.45939C8.21422 9.13625 8.37311 8.83949 8.6063 8.60668ZM2.02942 18.3286C1.92096 18.419 1.7826 18.4656 1.64153 18.4592C1.50045 18.4529 1.36686 18.394 1.267 18.2941C1.16714 18.1942 1.10823 18.0607 1.10186 17.9196C1.09549 17.7785 1.1421 17.6401 1.23255 17.5317C1.33885 17.4272 1.48194 17.3687 1.63098 17.3687C1.78003 17.3687 1.92312 17.4272 2.02942 17.5317C2.08179 17.584 2.12333 17.6461 2.15167 17.7145C2.18002 17.7828 2.19461 17.8561 2.19461 17.9301C2.19461 18.0041 2.18002 18.0774 2.15167 18.1458C2.12333 18.2141 2.08179 18.2763 2.02942 18.3286ZM9.78302 32.7068L8.2052 31.129L9.78302 29.5512L11.3608 31.129L9.78302 32.7068Z" fill="#FF7B02"/>
</g>
<defs>
<clipPath id="clip0_30_12700">
<rect width="34" height="34" fill="white"/>
</clipPath>
</defs>
</svg>
