<svg width="34" height="34" viewBox="0 0 34 34" fill="none" xmlns="http://www.w3.org/2000/svg">
<g clip-path="url(#clip0_30_12704)">
<path d="M32.3006 0H1.70064C1.23648 0.0148117 0.797072 0.212816 0.478501 0.550713C0.15993 0.888611 -0.011881 1.33891 0.000639286 1.80313V26.5302C-0.011881 26.9944 0.15993 27.4447 0.478501 27.7826C0.797072 28.1205 1.23648 28.3185 1.70064 28.3333H11.5504L10.4171 30.6H8.50064C8.04977 30.6 7.61737 30.7791 7.29856 31.0979C6.97975 31.4167 6.80064 31.8491 6.80064 32.3C6.80064 32.7509 6.97975 33.1833 7.29856 33.5021C7.61737 33.8209 8.04977 34 8.50064 34H25.5006C25.9515 34 26.3839 33.8209 26.7027 33.5021C27.0215 33.1833 27.2006 32.7509 27.2006 32.3C27.2006 31.8491 27.0215 31.4167 26.7027 31.0979C26.3839 30.7791 25.9515 30.6 25.5006 30.6H23.5842L22.4508 28.3333H32.3006C32.7648 28.3185 33.2042 28.1205 33.5228 27.7826C33.8414 27.4447 34.0132 26.9944 34.0006 26.5302V1.80313C34.0132 1.33891 33.8414 0.888611 33.5228 0.550713C33.2042 0.212816 32.7648 0.0148117 32.3006 0ZM1.13397 14.1667H32.8673V23.8H1.13397V14.1667ZM1.70064 1.13333H32.3006C32.4633 1.15014 32.6132 1.22926 32.7188 1.35413C32.8245 1.47899 32.8777 1.6399 32.8673 1.80313V13.0333H1.13397V1.80313C1.12359 1.6399 1.17679 1.47899 1.28243 1.35413C1.38807 1.22926 1.53795 1.15014 1.70064 1.13333ZM26.0673 32.3C26.0673 32.4503 26.0076 32.5944 25.9013 32.7007C25.7951 32.807 25.6509 32.8667 25.5006 32.8667H8.50064C8.35035 32.8667 8.20622 32.807 8.09995 32.7007C7.99368 32.5944 7.93397 32.4503 7.93397 32.3C7.93397 32.1497 7.99368 32.0056 8.09995 31.8993C8.20622 31.793 8.35035 31.7333 8.50064 31.7333H25.5006C25.6509 31.7333 25.7951 31.793 25.9013 31.8993C26.0076 32.0056 26.0673 32.1497 26.0673 32.3ZM22.3171 30.6H11.6842L12.8175 28.3333H21.1838L22.3171 30.6ZM32.3006 27.2H1.70064C1.53795 27.1832 1.38807 27.1041 1.28243 26.9792C1.17679 26.8543 1.12359 26.6934 1.13397 26.5302V24.9333H32.8673V26.5302C32.8777 26.6934 32.8245 26.8543 32.7188 26.9792C32.6132 27.1041 32.4633 27.1832 32.3006 27.2Z" fill="white"/>
<path d="M30.0359 18.1341H16.0744C16.3074 17.839 16.4347 17.4743 16.4359 17.0982V16.4341C16.4359 16.1335 16.3165 15.8453 16.104 15.6327C15.8915 15.4202 15.6032 15.3008 15.3026 15.3008H14.1693C13.8687 15.3008 13.5804 15.4202 13.3679 15.6327C13.1553 15.8453 13.0359 16.1335 13.0359 16.4341V17.0982C13.0371 17.4743 13.1644 17.839 13.3975 18.1341H3.96927C3.66869 18.1341 3.38042 18.2535 3.16788 18.4661C2.95534 18.6786 2.83594 18.9669 2.83594 19.2674V20.4008C2.83594 20.7014 2.95534 20.9896 3.16788 21.2022C3.38042 21.4147 3.66869 21.5341 3.96927 21.5341H14.1693V22.1008C14.1693 22.2511 14.229 22.3952 14.3352 22.5015C14.4415 22.6077 14.5856 22.6674 14.7359 22.6674C14.8862 22.6674 15.0304 22.6077 15.1366 22.5015C15.2429 22.3952 15.3026 22.2511 15.3026 22.1008V21.5341H30.0359C30.3365 21.5341 30.6248 21.4147 30.8373 21.2022C31.0499 20.9896 31.1693 20.7014 31.1693 20.4008V19.2674C31.1693 18.9669 31.0499 18.6786 30.8373 18.4661C30.6248 18.2535 30.3365 18.1341 30.0359 18.1341ZM14.1693 16.4341H15.3026V17.0982C15.302 17.2484 15.2424 17.3923 15.1366 17.4989L14.7359 17.8995L14.3353 17.4989C14.2295 17.3923 14.1699 17.2484 14.1693 17.0982V16.4341ZM3.96927 19.2674H9.06927V20.4008H3.96927V19.2674ZM10.2026 20.4008V19.2674H14.1693V20.4008H10.2026ZM15.3026 19.2674H20.9693V20.4008H15.3026V19.2674ZM22.1026 20.4008V19.2674H30.0359V20.4008H22.1026Z" fill="white"/>
<path d="M18.4453 11.6852C18.715 11.8343 19.0197 11.9085 19.3278 11.8999C19.6358 11.8913 19.9359 11.8004 20.1969 11.6365L24.7036 8.80315C24.9472 8.65124 25.1481 8.43982 25.2874 8.1888C25.4267 7.93778 25.4998 7.65543 25.4998 7.36835C25.4998 7.08127 25.4267 6.79892 25.2874 6.5479C25.1481 6.29688 24.9472 6.08546 24.7036 5.93355L20.1969 3.10022C19.936 2.93621 19.6358 2.84518 19.3278 2.8366C19.0197 2.82803 18.715 2.90224 18.4453 3.05148C18.178 3.19589 17.955 3.41029 17.8002 3.67172C17.6454 3.93314 17.5646 4.23176 17.5664 4.53558V10.2023C17.5648 10.5059 17.6457 10.8043 17.8005 11.0655C17.9553 11.3267 18.1782 11.5409 18.4453 11.6852ZM18.6998 4.53558C18.6993 4.43458 18.7265 4.33537 18.7783 4.24869C18.8301 4.162 18.9047 4.09112 18.9939 4.04372C19.0858 3.99165 19.1903 3.96567 19.2959 3.96857C19.4016 3.97146 19.5044 4.00313 19.5934 4.06015L24.1007 6.89348C24.1819 6.94344 24.249 7.01336 24.2955 7.09659C24.342 7.17982 24.3664 7.27357 24.3664 7.36892C24.3664 7.46426 24.342 7.55802 24.2955 7.64125C24.249 7.72448 24.1819 7.7944 24.1007 7.84435L19.5934 10.6777C19.5044 10.7345 19.4015 10.7661 19.2959 10.769C19.1903 10.7719 19.0859 10.746 18.9939 10.6941C18.9047 10.6467 18.8301 10.5758 18.7783 10.4892C18.7265 10.4025 18.6993 10.3033 18.6998 10.2023V4.53558Z" fill="#FF7B02"/>
<path d="M11.9026 5.10208H15.8693C16.0196 5.10208 16.1637 5.04238 16.27 4.93611C16.3762 4.82984 16.4359 4.68571 16.4359 4.53542C16.4359 4.38513 16.3762 4.24099 16.27 4.13472C16.1637 4.02845 16.0196 3.96875 15.8693 3.96875H11.9026C11.7523 3.96875 11.6082 4.02845 11.5019 4.13472C11.3956 4.24099 11.3359 4.38513 11.3359 4.53542C11.3359 4.68571 11.3956 4.82984 11.5019 4.93611C11.6082 5.04238 11.7523 5.10208 11.9026 5.10208Z" fill="#FF7B02"/>
<path d="M9.06667 5.10208H9.63333C9.78362 5.10208 9.92776 5.04238 10.034 4.93611C10.1403 4.82984 10.2 4.68571 10.2 4.53542C10.2 4.38513 10.1403 4.24099 10.034 4.13472C9.92776 4.02845 9.78362 3.96875 9.63333 3.96875H9.06667C8.91638 3.96875 8.77224 4.02845 8.66597 4.13472C8.5597 4.24099 8.5 4.38513 8.5 4.53542C8.5 4.68571 8.5597 4.82984 8.66597 4.93611C8.77224 5.04238 8.91638 5.10208 9.06667 5.10208Z" fill="#FF7B02"/>
<path d="M10.7659 7.93411H14.7326C14.8828 7.93411 15.027 7.87441 15.1332 7.76814C15.2395 7.66187 15.2992 7.51774 15.2992 7.36745C15.2992 7.21716 15.2395 7.07302 15.1332 6.96675C15.027 6.86048 14.8828 6.80078 14.7326 6.80078H10.7659C10.6156 6.80078 10.4715 6.86048 10.3652 6.96675C10.2589 7.07302 10.1992 7.21716 10.1992 7.36745C10.1992 7.51774 10.2589 7.66187 10.3652 7.76814C10.4715 7.87441 10.6156 7.93411 10.7659 7.93411Z" fill="#FF7B02"/>
<path d="M7.93385 7.93411H8.50052C8.65081 7.93411 8.79494 7.87441 8.90121 7.76814C9.00749 7.66187 9.06719 7.51774 9.06719 7.36745C9.06719 7.21716 9.00749 7.07302 8.90121 6.96675C8.79494 6.86048 8.65081 6.80078 8.50052 6.80078H7.93385C7.78356 6.80078 7.63943 6.86048 7.53316 6.96675C7.42689 7.07302 7.36719 7.21716 7.36719 7.36745C7.36719 7.51774 7.42689 7.66187 7.53316 7.76814C7.63943 7.87441 7.78356 7.93411 7.93385 7.93411Z" fill="#FF7B02"/>
<path d="M15.8693 9.63281H11.9026C11.7523 9.63281 11.6082 9.69251 11.5019 9.79878C11.3956 9.90506 11.3359 10.0492 11.3359 10.1995C11.3359 10.3498 11.3956 10.4939 11.5019 10.6002C11.6082 10.7064 11.7523 10.7661 11.9026 10.7661H15.8693C16.0196 10.7661 16.1637 10.7064 16.27 10.6002C16.3762 10.4939 16.4359 10.3498 16.4359 10.1995C16.4359 10.0492 16.3762 9.90506 16.27 9.79878C16.1637 9.69251 16.0196 9.63281 15.8693 9.63281Z" fill="#FF7B02"/>
<path d="M9.63333 9.63281H9.06667C8.91638 9.63281 8.77224 9.69251 8.66597 9.79878C8.5597 9.90506 8.5 10.0492 8.5 10.1995C8.5 10.3498 8.5597 10.4939 8.66597 10.6002C8.77224 10.7064 8.91638 10.7661 9.06667 10.7661H9.63333C9.78362 10.7661 9.92776 10.7064 10.034 10.6002C10.1403 10.4939 10.2 10.3498 10.2 10.1995C10.2 10.0492 10.1403 9.90506 10.034 9.79878C9.92776 9.69251 9.78362 9.63281 9.63333 9.63281Z" fill="#FF7B02"/>
</g>
<defs>
<clipPath id="clip0_30_12704">
<rect width="34" height="34" fill="white"/>
</clipPath>
</defs>
</svg>
