<svg width="38" height="38" viewBox="0 0 38 38" fill="none" xmlns="http://www.w3.org/2000/svg">
<g clip-path="url(#clip0_30_12775)">
<path d="M4.45142 12.1799C5.9234 9.46259 8.05756 7.21369 10.67 5.61227L9.94954 5.508C9.62506 5.46101 9.40003 5.15984 9.44701 4.83535C9.49391 4.51087 9.79443 4.28598 10.1197 4.33282L12.6052 4.69263C12.7942 4.72002 12.9586 4.83669 13.0468 5.00613C13.1349 5.17564 13.1362 5.37715 13.0502 5.5477L11.9274 7.77278C11.823 7.97978 11.6138 8.09912 11.3969 8.09912C11.3069 8.09912 11.2156 8.07864 11.1298 8.03537C10.8371 7.88767 10.7195 7.5306 10.8672 7.23781L11.1242 6.72852C8.76553 8.21379 6.83592 10.2711 5.49545 12.7456C5.38798 12.944 5.18373 13.0566 4.97288 13.0566C4.87736 13.0566 4.78043 13.0336 4.69055 12.9849C4.40228 12.8286 4.29519 12.4682 4.45142 12.1799ZM33.3094 25.0153C33.0211 24.8592 32.6607 24.9661 32.5045 25.2546C31.164 27.729 29.2343 29.7864 26.8758 31.2716L27.1328 30.7623C27.2805 30.4695 27.1629 30.1125 26.8702 29.9648C26.5775 29.8169 26.2203 29.9346 26.0726 30.2274L24.9498 32.4524C24.8638 32.623 24.865 32.8246 24.9532 32.994C25.0414 33.1635 25.2058 33.2801 25.3948 33.3075L27.8803 33.6673C27.9091 33.6715 27.9378 33.6735 27.9661 33.6735C28.2563 33.6735 28.5102 33.4604 28.5529 33.1647C28.6 32.8402 28.3749 32.539 28.0504 32.4921L27.33 32.3878C29.9423 30.7865 32.0765 28.5376 33.5486 25.8202C33.7049 25.5318 33.5978 25.1715 33.3094 25.0153ZM12.7455 32.5045C10.2711 31.164 8.21371 29.2344 6.72837 26.8758L7.23774 27.1328C7.53023 27.2806 7.8876 27.1629 8.03529 26.8702C8.18299 26.5775 8.06542 26.2204 7.77263 26.0727L5.54763 24.9499C5.3773 24.8638 5.17564 24.8651 5.00605 24.9532C4.83661 25.0414 4.71994 25.2058 4.69255 25.3949L4.33274 27.8803C4.28569 28.2049 4.51072 28.5061 4.83528 28.553C4.86415 28.5571 4.8928 28.5591 4.92107 28.5591C5.21134 28.5591 5.46517 28.3461 5.50792 28.0504L5.6122 27.3302C7.21369 29.9424 9.46259 32.0766 12.1799 33.5487C12.2698 33.5973 12.3667 33.6204 12.4622 33.6204C12.6731 33.6204 12.8773 33.5078 12.9848 33.3094C13.141 33.0211 13.0339 32.6608 12.7455 32.5045ZM15.8363 3.78085C15.8363 2.0235 17.2556 0.59375 19.0001 0.59375C20.7445 0.59375 22.1637 2.0235 22.1637 3.78085C22.1637 5.5382 20.7445 6.96795 19.0001 6.96795C17.2556 6.96795 15.8363 5.5382 15.8363 3.78085ZM17.0238 3.78085C17.0238 4.88344 17.9103 5.78045 19.0001 5.78045C20.0898 5.78045 20.9762 4.88344 20.9762 3.78085C20.9762 2.67826 20.0898 1.78125 19.0001 1.78125C17.9103 1.78125 17.0238 2.67826 17.0238 3.78085ZM24.6927 27.3338L23.3969 26.7583C22.7593 27.1204 22.0821 27.4013 21.3765 27.5959L20.8675 28.9183C20.7793 29.1475 20.559 29.2987 20.3134 29.2987H17.6865C17.4409 29.2987 17.2207 29.1475 17.1324 28.9183L16.6233 27.5955C15.9181 27.4009 15.2411 27.1202 14.6035 26.7582L13.3073 27.3339C13.0828 27.4337 12.8202 27.3848 12.6465 27.2111L10.789 25.3537C10.6153 25.18 10.5665 24.9174 10.6662 24.6929L11.2417 23.3972C10.8797 22.7597 10.5989 22.0824 10.4042 21.3766L9.08185 20.8676C8.85266 20.7795 8.70141 20.5592 8.70141 20.3135V17.6867C8.70141 17.441 8.85266 17.2208 9.08185 17.1326L10.4044 16.6235C10.599 15.9181 10.8797 15.241 11.2418 14.6035L10.6662 13.3074C10.5665 13.083 10.6153 12.8203 10.789 12.6466L12.6464 10.7891C12.82 10.6154 13.0827 10.5665 13.3072 10.6663L14.6035 11.242C15.241 10.8799 15.9181 10.5992 16.6233 10.4046L17.1324 9.08185C17.2206 8.85259 17.4409 8.70141 17.6865 8.70141H20.3134C20.559 8.70141 20.7792 8.85266 20.8675 9.08185L21.3766 10.4046C22.0136 10.5803 22.6273 10.8277 23.2102 11.1407L27.4353 6.91555C26.7468 6.38504 26.0161 5.90818 25.2545 5.4956C24.9661 5.33944 24.859 4.97904 25.0152 4.6907C25.1714 4.40236 25.5318 4.29511 25.8201 4.45142C26.6823 4.91848 27.5078 5.46191 28.2817 6.06916L31.0006 3.35016C31.7071 2.64375 32.8566 2.64367 33.563 3.35016L33.9076 3.69483C34.2493 4.03639 34.4373 4.49135 34.4373 4.976C34.4373 5.46064 34.2493 5.9156 33.9076 6.25723L31.1957 8.96919C31.6267 9.51321 32.0244 10.0831 32.3873 10.6735L32.4921 9.94969C32.5391 9.62521 32.84 9.40032 33.1647 9.44716C33.4892 9.49414 33.7142 9.79532 33.6673 10.1198L33.3074 12.6052C33.2801 12.7943 33.1635 12.9587 32.9939 13.0468C32.9081 13.0916 32.814 13.1139 32.7199 13.1139C32.6282 13.1139 32.5365 13.0927 32.4524 13.0503L30.2273 11.9275C29.9345 11.7798 29.8169 11.4227 29.9646 11.1299C30.1123 10.8371 30.4695 10.7194 30.7622 10.8673L31.269 11.123C30.9844 10.6727 30.677 10.2363 30.3492 9.8155L27.3342 12.8306C27.399 12.98 27.4025 13.1525 27.3337 13.3074L26.7582 14.6031C27.1203 15.2406 27.4011 15.9179 27.5958 16.6236L28.9181 17.1326C29.1473 17.2208 29.2986 17.441 29.2986 17.6867V20.3135C29.2986 20.5592 29.1473 20.7794 28.9181 20.8676L27.5953 21.3768C27.4008 22.082 27.1201 22.7591 26.758 23.3966L27.3337 24.6928C27.4334 24.9172 27.3846 25.1799 27.211 25.3536L25.3536 27.2111C25.18 27.3846 24.9173 27.4336 24.6927 27.3338ZM19 15.0127C16.8013 15.0127 15.0126 16.8014 15.0126 19.0001C15.0126 21.1987 16.8013 22.9874 19 22.9874C21.1987 22.9874 22.9874 21.1987 22.9874 19.0001C22.9874 16.8013 21.1987 15.0127 19 15.0127ZM22.7522 14.5056L23.5894 14.2813L22.9766 13.6684L22.7522 14.5056ZM31.6426 6.84275L30.415 5.61517L23.5089 12.5214L24.7364 13.7489L31.6426 6.84275ZM31.8404 4.18987L31.2547 4.77553L32.4823 6.00311L33.0679 5.41745C33.1853 5.30011 33.2499 5.14336 33.2499 4.97592C33.2499 4.80848 33.1853 4.65173 33.068 4.53447L32.7234 4.1898C32.4799 3.94628 32.0837 3.94628 31.8404 4.18987ZM24.8022 26.0831L26.0831 24.8021L25.5486 23.5987C25.4692 23.4198 25.483 23.2132 25.5856 23.0464C26.0158 22.3479 26.3298 21.5905 26.519 20.795C26.5644 20.6045 26.7006 20.4486 26.8834 20.3783L28.1112 19.9057V18.0943L26.8838 17.6218C26.7011 17.5515 26.5648 17.3956 26.5195 17.2052C26.3301 16.4091 26.016 15.6514 25.5859 14.9531C25.5318 14.8652 25.503 14.7661 25.499 14.6658L25.1564 15.0084C25.0827 15.0821 24.9909 15.1351 24.8901 15.1621L22.964 15.6783C23.719 16.5778 24.1749 17.7365 24.1749 19.0001C24.1749 21.8535 21.8535 24.1749 19 24.1749C16.1465 24.1749 13.8251 21.8534 13.8251 19C13.8251 16.1466 16.1465 13.8251 19 13.8251C19.9177 13.8251 20.7797 14.0662 21.5278 14.487L22.0957 12.3677C22.1226 12.267 22.1757 12.1752 22.2493 12.1015L22.3269 12.0239C21.8369 11.7896 21.3245 11.6069 20.795 11.4809C20.6045 11.4355 20.4486 11.2993 20.3783 11.1166L19.9057 9.88876H18.0943L17.6217 11.1166C17.5514 11.2993 17.3955 11.4355 17.205 11.4809C16.4096 11.6702 15.6521 11.9842 14.9536 12.4143C14.7869 12.517 14.5801 12.5307 14.4013 12.4514L13.1979 11.9169L11.917 13.1979L12.4514 14.4011C12.5308 14.58 12.517 14.7867 12.4143 14.9534C11.9842 15.6518 11.6702 16.4093 11.4808 17.2049C11.4355 17.3954 11.2993 17.5513 11.1166 17.6216L9.88891 18.0942V19.9056L11.1163 20.3781C11.2991 20.4484 11.4353 20.6043 11.4806 20.7948C11.6701 21.591 11.9842 22.3487 12.4141 23.0469C12.5168 23.2136 12.5306 23.4202 12.4512 23.5992L11.917 24.8021L13.1979 26.083L14.4013 25.5485C14.5801 25.4691 14.7867 25.4829 14.9536 25.5856C15.6521 26.0156 16.4097 26.3297 17.2051 26.519C17.3955 26.5643 17.5514 26.7006 17.6217 26.8833L18.0943 28.1111H19.9057L20.3782 26.8837C20.4485 26.7009 20.6044 26.5646 20.7948 26.5193C21.5908 26.33 22.3485 26.0159 23.0469 25.5857C23.2137 25.483 23.4204 25.4692 23.5992 25.5487L24.8022 26.0831ZM37.4062 18.6251C37.4062 20.3825 35.987 21.8121 34.2425 21.8121C32.498 21.8121 31.0788 20.3824 31.0788 18.6251C31.0788 16.8677 32.498 15.438 34.2425 15.438C35.987 15.438 37.4062 16.8678 37.4062 18.6251ZM36.2187 18.6251C36.2187 17.5225 35.3323 16.6255 34.2425 16.6255C33.1528 16.6255 32.2663 17.5225 32.2663 18.6251C32.2663 19.7276 33.1528 20.6246 34.2425 20.6246C35.3323 20.6246 36.2187 19.7277 36.2187 18.6251ZM3.75747 21.8122C2.01296 21.8122 0.59375 20.3825 0.59375 18.6251C0.59375 16.8677 2.01296 15.438 3.75747 15.438C5.50198 15.438 6.92119 16.8678 6.92119 18.6251C6.92119 20.3825 5.50198 21.8122 3.75747 21.8122ZM5.73369 18.6251C5.73369 17.5225 4.84723 16.6255 3.75747 16.6255C2.66772 16.6255 1.78125 17.5225 1.78125 18.6251C1.78125 19.7276 2.66772 20.6246 3.75747 20.6246C4.84723 20.6246 5.73369 19.7277 5.73369 18.6251ZM22.1637 34.2191C22.1637 35.9765 20.7445 37.4062 19.0001 37.4062C17.2556 37.4062 15.8363 35.9765 15.8363 34.2191C15.8363 32.4618 17.2556 31.0321 19.0001 31.0321C20.7445 31.0321 22.1637 32.4618 22.1637 34.2191ZM20.9762 34.2191C20.9762 33.1166 20.0898 32.2196 19.0001 32.2196C17.9103 32.2196 17.0238 33.1166 17.0238 34.2191C17.0238 35.3217 17.9103 36.2187 19.0001 36.2187C20.0898 36.2187 20.9762 35.3217 20.9762 34.2191Z" fill="#FF7B02"/>
</g>
<defs>
<clipPath id="clip0_30_12775">
<rect width="38" height="38" fill="white"/>
</clipPath>
</defs>
</svg>
