<svg width="36" height="36" viewBox="0 0 36 36" fill="none" xmlns="http://www.w3.org/2000/svg">
<g clip-path="url(#clip0_30_12734)">
<path d="M8.65952 31.3984H3.97656" stroke="white" stroke-width="1.2" stroke-miterlimit="10" stroke-linecap="round" stroke-linejoin="round"/>
<path d="M6.30859 14.75H9.17896" stroke="white" stroke-width="1.2" stroke-miterlimit="10" stroke-linecap="round" stroke-linejoin="round"/>
<path d="M6.30859 17.5625H9.17896" stroke="white" stroke-width="1.2" stroke-miterlimit="10" stroke-linecap="round" stroke-linejoin="round"/>
<path d="M6.30859 20.3672H9.17896" stroke="white" stroke-width="1.2" stroke-miterlimit="10" stroke-linecap="round" stroke-linejoin="round"/>
<path d="M3.45703 14.75H3.75832" stroke="white" stroke-width="1.2" stroke-miterlimit="10" stroke-linecap="round" stroke-linejoin="round"/>
<path d="M3.45703 17.5625H3.75832" stroke="white" stroke-width="1.2" stroke-miterlimit="10" stroke-linecap="round" stroke-linejoin="round"/>
<path d="M3.45703 20.3672H3.75832" stroke="white" stroke-width="1.2" stroke-miterlimit="10" stroke-linecap="round" stroke-linejoin="round"/>
<path d="M5.92969 0.527344V4.65884" stroke="#FF7B02" stroke-width="1.2" stroke-miterlimit="10" stroke-linecap="round" stroke-linejoin="round"/>
<path d="M0.855469 0.527344V3.37029C0.855469 3.85446 1.09566 4.18043 1.50361 4.44108C1.70231 4.56806 1.95326 4.65848 2.26516 4.65891C2.53523 4.65926 2.76101 4.59675 2.94762 4.50274C3.42307 4.26333 3.72626 3.89967 3.72626 3.36734V0.527344" stroke="#FF7B02" stroke-width="1.2" stroke-miterlimit="10" stroke-linecap="round" stroke-linejoin="round"/>
<path d="M17.0859 0.527344L19.9924 4.65884" stroke="#FF7B02" stroke-width="1.2" stroke-miterlimit="10" stroke-linecap="round" stroke-linejoin="round"/>
<path d="M19.7894 0.527344L16.8789 4.65884" stroke="#FF7B02" stroke-width="1.2" stroke-miterlimit="10" stroke-linecap="round" stroke-linejoin="round"/>
<path d="M12.3359 0.527344V3.37029C12.3359 3.85446 12.5761 4.18043 12.9841 4.44108C13.1828 4.56806 13.4337 4.65848 13.7456 4.65891C14.0157 4.65926 14.2415 4.59675 14.4281 4.50274C14.9035 4.26333 15.2067 3.89967 15.2067 3.36734V0.527344" stroke="#FF7B02" stroke-width="1.2" stroke-miterlimit="10" stroke-linecap="round" stroke-linejoin="round"/>
<path d="M10.087 0.527344L8.33984 4.65884" stroke="#FF7B02" stroke-width="1.2" stroke-miterlimit="10" stroke-linecap="round" stroke-linejoin="round"/>
<path d="M0.855469 8.03906H35.1453" stroke="white" stroke-width="1.2" stroke-miterlimit="10" stroke-linecap="round" stroke-linejoin="round"/>
<path d="M31.4688 0.539062H35.145" stroke="white" stroke-width="1.2" stroke-miterlimit="10" stroke-linecap="round" stroke-linejoin="round"/>
<path d="M35.145 2.58984H31.4688" stroke="white" stroke-width="1.2" stroke-miterlimit="10" stroke-linecap="round" stroke-linejoin="round"/>
<path d="M35.145 4.64062H31.4688" stroke="white" stroke-width="1.2" stroke-miterlimit="10" stroke-linecap="round" stroke-linejoin="round"/>
<path d="M33.7372 35.4729H16.4648C15.6882 35.4729 15.0586 34.8434 15.0586 34.0667V12.8398C15.0586 12.0632 15.6882 11.4336 16.4648 11.4336H33.7372C34.5139 11.4336 35.1434 12.0632 35.1434 12.8398V34.0667C35.1434 34.8434 34.5139 35.4729 33.7372 35.4729Z" stroke="white" stroke-width="1.2" stroke-miterlimit="10" stroke-linecap="round" stroke-linejoin="round"/>
<path d="M3.72696 27.3281H2.26172C1.48505 27.3281 0.855469 27.9577 0.855469 28.7344V34.0681C0.855469 34.8447 1.48505 35.4743 2.26172 35.4743H10.3762C11.1529 35.4743 11.7825 34.8447 11.7825 34.0681V28.7344C11.7825 27.9577 11.1529 27.3281 10.3762 27.3281H6.1879" stroke="white" stroke-width="1.2" stroke-miterlimit="10" stroke-linecap="round" stroke-linejoin="round"/>
<path d="M0.855469 17.5933V22.2857C0.855469 23.0624 1.48505 23.6919 2.26172 23.6919H10.3762C11.1529 23.6919 11.7825 23.0624 11.7825 22.2857V12.8398C11.7825 12.0632 11.1529 11.4336 10.3762 11.4336H2.26172C1.48505 11.4336 0.855469 12.0632 0.855469 12.8398V15.1323" stroke="white" stroke-width="1.2" stroke-miterlimit="10" stroke-linecap="round" stroke-linejoin="round"/>
<path d="M20.2461 21.5061C20.7946 23.6781 22.761 25.2857 25.1034 25.2857C27.8704 25.2857 30.1135 23.0427 30.1135 20.2757C30.1135 17.5087 27.8704 15.2656 25.1034 15.2656C22.7611 15.2656 20.7947 16.8732 20.2461 19.0452" stroke="white" stroke-width="1.2" stroke-miterlimit="10" stroke-linecap="round" stroke-linejoin="round"/>
<path d="M29.6823 31.8301H20.5244C19.6048 31.8301 18.8594 31.0847 18.8594 30.1651C18.8594 29.2455 19.6048 28.5 20.5244 28.5H29.6823C30.6019 28.5 31.3474 29.2455 31.3474 30.1651C31.3474 31.0847 30.6019 31.8301 29.6823 31.8301Z" stroke="white" stroke-width="1.2" stroke-miterlimit="10" stroke-linecap="round" stroke-linejoin="round"/>
</g>
<defs>
<clipPath id="clip0_30_12734">
<rect width="36" height="36" fill="white"/>
</clipPath>
</defs>
</svg>
